<?xml version="1.0" encoding="UTF-8"?>
<svg width="162px" height="61px" viewBox="0 0 162 61" version="1.1" xmlns="http://www.w3.org/2000/svg" xmlns:xlink="http://www.w3.org/1999/xlink">
    <!-- Generator: sketchtool 45 (43475) - http://www.bohemiancoding.com/sketch -->
    <title>C95DA5CF-A922-4E1B-8FDF-7D23D720D52A</title>
    <desc>Created with sketchtool.</desc>
    <defs></defs>
    <g id="Page-1" stroke="none" stroke-width="1" fill="none" fill-rule="evenodd">
        <g id="курорты" transform="translate(-272.000000, -2017.000000)" fill="#FF8F15">
            <path d="M282,2017 L424,2017 L424,2017 C429.522847,2017 434,2021.47715 434,2027 L434,2055 L434,2055 C434,2060.52285 429.522847,2065 424,2065 L370.843164,2065 L370.843164,2065 C367.282598,2065 363.877864,2066.46041 361.423881,2069.04025 L353,2077.89618 L344.132537,2068.88289 L344.132537,2068.88289 C341.688752,2066.39891 338.350054,2065 334.865485,2065 L282,2065 L282,2065 C276.477153,2065 272,2060.52285 272,2055 L272,2027 L272,2027 C272,2021.47715 276.477153,2017 282,2017 Z" id="Rectangle-10-Copy-4"></path>
        </g>
    </g>
</svg>