<?xml version="1.0" encoding="UTF-8"?>
<svg width="18px" height="14px" viewBox="0 0 18 14" version="1.1" xmlns="http://www.w3.org/2000/svg" xmlns:xlink="http://www.w3.org/1999/xlink">
    <!-- Generator: sketchtool 47 (45396) - http://www.bohemiancoding.com/sketch -->
    <title>67FDEE3B-A152-48F5-AB98-70CB68E617B7</title>
    <desc>Created with sketchtool.</desc>
    <defs></defs>
    <g id="Page-1" stroke="none" stroke-width="1" fill="none" fill-rule="evenodd">
        <g id="бронирование_1024_new" transform="translate(-715.000000, -295.000000)" fill-rule="nonzero" fill="#0191D0">
            <g id="Group-6-Copy" transform="translate(714.000000, 187.000000)">
                <g id="sports-car" transform="translate(1.000000, 108.000000)">
                    <path d="M17.8965716,4.24354828 C17.8085433,4.12794257 17.677192,4.06046456 17.5393884,4.06046456 L15.7875775,4.06046456 C15.3552706,2.83296014 14.7920733,1.63026381 14.1519088,1.17627571 C11.9373728,-0.392091904 6.06343714,-0.392091904 3.84890117,1.17627571 C3.20827577,1.63075997 2.64738289,2.83494478 2.21277157,4.06046456 L0.460960691,4.06046456 C0.321774455,4.06046456 0.190884087,4.12794257 0.103777469,4.24354828 C0.0162099695,4.35865783 -0.0188170304,4.51097952 0.00975762741,4.65734727 L0.269233955,6.0108768 C0.313478587,6.24159206 0.502440033,6.40631779 0.720437019,6.40631779 L1.23938968,6.40631779 C0.738411401,7.02850476 0.49552681,7.81194432 0.492300639,8.59588005 C0.489074468,9.56438798 0.830587716,10.4396175 1.45508225,11.0588275 C1.46199548,11.0652776 1.4689087,11.069743 1.47536104,11.0761931 L1.47536104,12.9700429 C1.47536104,13.3803688 1.78507346,13.7142857 2.16668341,13.7142857 L3.78253422,13.7142857 C4.16414416,13.7142857 4.47385658,13.3803688 4.47385658,12.9700429 L4.47385658,12.2089307 L13.5260316,12.2089307 L13.5260316,12.9700429 C13.5260316,13.3803688 13.8357441,13.7142857 14.217354,13.7142857 L15.8332048,13.7142857 C16.213893,13.7142857 16.5245272,13.3803688 16.5245272,12.9700429 L16.5245272,11.1134053 C17.1872749,10.4599601 17.5039005,9.56091485 17.5080485,8.66335806 C17.5108138,7.85262959 17.256868,7.04041264 16.7263933,6.40532547 L17.2799121,6.40532547 C17.4988308,6.40532547 17.6877923,6.24059974 17.7311152,6.00938831 L17.9910524,4.65635494 C18.0177835,4.51097952 17.9841391,4.35965015 17.8965716,4.24354828 Z M4.60797312,2.41916115 C6.37314956,1.16833712 11.6267387,1.16833712 13.3909933,2.41916115 C13.7338892,2.66128813 14.1749529,3.64021547 14.579146,4.8389425 L3.42074218,4.8389425 C3.82401356,3.64071163 4.26507723,2.66228046 4.60797312,2.41916115 Z M2.54045837,8.7824369 C2.54045837,7.97369309 3.14974381,7.31875944 3.9005199,7.31875944 C4.65221775,7.31875944 5.26058144,7.97369309 5.26058144,8.7824369 C5.26058144,9.59118072 4.65221775,10.2466105 3.9005199,10.2466105 C3.14974381,10.2466105 2.54045837,9.59118072 2.54045837,8.7824369 Z M14.1173427,10.2466105 C13.3665666,10.2466105 12.7572812,9.59118072 12.7572812,8.7824369 C12.7572812,7.97369309 13.3665666,7.31875944 14.1173427,7.31875944 C14.8690406,7.31875944 15.4774042,7.97369309 15.4774042,8.7824369 C15.4774042,9.59118072 14.8681188,10.2466105 14.1173427,10.2466105 Z" id="Shape"></path>
                </g>
            </g>
        </g>
    </g>
</svg>