<svg xmlns="http://www.w3.org/2000/svg" width="16" height="22" viewBox="0 0 16 22">
    <path fill="#9AA7B4" fill-rule="evenodd" stroke="#9AA7B4" d="M3.361.846h9.106c.875 0 1.508.136 1.9.41.392.273.588.724.588 1.353 0 .383-.23.889-.69 1.518-.46.629-.985 1.324-1.573 2.085-.588.761-1.194 1.707-1.818 2.837-.624 1.13-1.196 2.51-1.716 4.142a18.29 18.29 0 0 0-.465 1.791c-.09.474-.191 1.09-.3 1.846-.11.757-.206 1.335-.288 1.736-.19.93-.462 1.575-.813 1.935-.35.36-.818.54-1.401.54-.556 0-1.003-.194-1.34-.581-.337-.387-.506-.96-.506-1.716 0-.583.123-1.376.37-2.379.245-1.002.646-2.203 1.202-3.602a34.947 34.947 0 0 1 2.085-4.307 35.045 35.045 0 0 1 2.974-4.395H3.36c-.765 0-1.337-.14-1.715-.417-.379-.278-.568-.714-.568-1.306 0-.629.2-1.035.602-1.217.4-.182.961-.273 1.681-.273z"/>
</svg>
