<?xml version="1.0" encoding="UTF-8"?>
<svg width="16px" height="22px" viewBox="0 0 16 22" version="1.1" xmlns="http://www.w3.org/2000/svg" xmlns:xlink="http://www.w3.org/1999/xlink">
    <!-- Generator: Sketch 45 (43475) - http://www.bohemiancoding.com/sketch -->
    <title>7</title>
    <desc>Created with Sketch.</desc>
    <defs></defs>
    <g id="Page-1" stroke="none" stroke-width="1" fill="none" fill-rule="evenodd">
        <g id="главная_гайды" transform="translate(-925.000000, -837.000000)" stroke="#9AA7B4" fill="#9AA7B4">
            <g id="Group-2-Copy-6" transform="translate(686.000000, 602.000000)">
                <g id="Group">
                    <g id="Group-2">
                        <path d="M242.361328,235.845703 L251.466797,235.845703 C252.341801,235.845703 252.975258,235.982421 253.367188,236.255859 C253.759117,236.529298 253.955078,236.980466 253.955078,237.609375 C253.955078,237.992189 253.724937,238.498044 253.264648,239.126953 C252.80436,239.755863 252.280276,240.450843 251.692383,241.211914 C251.104489,241.972986 250.498376,242.918614 249.874023,244.048828 C249.249671,245.179042 248.677737,246.559888 248.158203,248.191406 C247.939452,248.911462 247.784506,249.508461 247.693359,249.982422 C247.602213,250.456383 247.501954,251.071611 247.392578,251.828125 C247.283203,252.584639 247.1875,253.163409 247.105469,253.564453 C246.914062,254.494145 246.642905,255.138996 246.291992,255.499023 C245.941079,255.859051 245.473961,256.039062 244.890625,256.039062 C244.334633,256.039062 243.888023,255.84538 243.550781,255.458008 C243.21354,255.070636 243.044922,254.498702 243.044922,253.742188 C243.044922,253.158851 243.167968,252.36589 243.414062,251.363281 C243.660157,250.360672 244.061195,249.159838 244.617188,247.760742 C245.17318,246.361647 245.86816,244.926114 246.702148,243.454102 C247.536137,241.982089 248.527338,240.516934 249.675781,239.058594 L242.361328,239.058594 C241.595699,239.058594 241.023765,238.919598 240.645508,238.641602 C240.267251,238.363605 240.078125,237.928388 240.078125,237.335938 C240.078125,236.707028 240.278644,236.301433 240.679688,236.119141 C241.080731,235.936848 241.641272,235.845703 242.361328,235.845703 Z" id="7"></path>
                    </g>
                </g>
            </g>
        </g>
    </g>
</svg>