<?xml version="1.0" encoding="UTF-8"?>
<svg width="17px" height="16px" viewBox="0 0 17 16" version="1.1" xmlns="http://www.w3.org/2000/svg" xmlns:xlink="http://www.w3.org/1999/xlink">
    <!-- Generator: sketchtool 47 (45396) - http://www.bohemiancoding.com/sketch -->
    <title>7D15AF67-BC9F-4F10-93FF-720EF141C9E1</title>
    <desc>Created with sketchtool.</desc>
    <defs></defs>
    <g id="Page-1" stroke="none" stroke-width="1" fill="none" fill-rule="evenodd">
        <g id="добавить_параметры-copy-3" transform="translate(-916.000000, -848.000000)" fill-rule="nonzero" fill="#4F84AB">
            <g id="Group-5" transform="translate(687.000000, 608.000000)">
                <g id="Group-2-Copy-6">
                    <g id="Group">
                        <g id="Group-2">
                            <path d="M245.059269,245.054449 L241.458458,245.174764 L237.589719,238 L235.725423,238 C235.521166,238 235.355697,238.165323 235.355697,238.369946 L237.368556,245.31096 L233.702245,245.460036 C233.386674,245.460329 233.089546,245.513607 232.826229,245.606185 L231.441217,243.254044 L230.278905,243.253751 C230.124852,243.254044 230,243.37875 230,243.532876 L231.013455,246.633034 L231.013455,247.005541 L230.000073,250.105699 C229.999927,250.259752 230.124779,250.384824 230.278832,250.384824 L231.441364,250.385117 L232.850673,247.991041 C233.107842,248.078642 233.396261,248.128993 233.702318,248.128993 L237.382608,248.278728 L235.35555,255.268995 C235.35555,255.473545 235.520873,255.638575 235.725277,255.638575 L237.589573,255.638575 L241.484951,248.415582 L245.059269,248.534946 C246.076091,248.534946 246.9,247.755387 246.9,246.794698 C246.900073,245.833715 246.076165,245.054449 245.059269,245.054449 Z" id="Shape" transform="translate(238.450000, 246.819288) rotate(-37.000000) translate(-238.450000, -246.819288) "></path>
                        </g>
                    </g>
                </g>
            </g>
        </g>
    </g>
</svg>