<svg xmlns="http://www.w3.org/2000/svg" width="23" height="22" viewBox="0 0 23 22">
    <path fill="#9AA7B4" fill-rule="nonzero" d="M18.737 2.241l-3.905 3.042L4.74.433 2.666 1.937a.508.508 0 0 0-.112.71l7.843 6.089-3.955 3.126c-.35.255-.638.554-.856.87l-3.438-1.496-1.293.938a.384.384 0 0 0-.084.536l3.63 2.627.3.414 1.378 4.264c.124.171.364.21.535.085l1.292-.938-.367-3.8c.357-.11.718-.287 1.058-.534l4.212-2.805L16.2 21.43a.507.507 0 0 0 .71.112l2.072-1.505-1.503-11.174 4.069-2.753c1.13-.822 1.416-2.353.64-3.421-.775-1.068-2.32-1.27-3.45-.448z"/>
</svg>
