<?xml version="1.0" encoding="UTF-8"?>
<svg width="19px" height="23px" viewBox="0 0 19 23" version="1.1" xmlns="http://www.w3.org/2000/svg" xmlns:xlink="http://www.w3.org/1999/xlink">
    <!-- Generator: sketchtool 47 (45396) - http://www.bohemiancoding.com/sketch -->
    <title>47CFF0BC-A262-4D3D-B5DA-6D51BE86E3A4</title>
    <desc>Created with sketchtool.</desc>
    <defs></defs>
    <g id="Page-1" stroke="none" stroke-width="1" fill="none" fill-rule="evenodd">
        <g id="добавить_параметры" transform="translate(-923.000000, -861.000000)" fill-rule="nonzero" fill="#9AA7B4">
            <g id="Group-5" transform="translate(687.000000, 627.000000)">
                <g id="Group-2-Copy-6">
                    <g id="Group">
                        <g id="Group-2">
                            <g id="baby-stroller-copy" transform="translate(236.000000, 234.000000)">
                                <path d="M10.45,0 L10.45,8.55 L19,8.55 C19,3.82610083 15.1738992,0 10.45,0 Z" id="Shape"></path>
                                <path d="M-8.75743922e-13,11.4 C-8.75743922e-13,11.4 2.14068953,15.6180102 2.40121442,15.9755551 C1.15523967,16.5921744 0.311440595,17.7891727 0.311440595,19.1727162 C0.311440595,21.178077 2.08403984,22.8 4.27569817,22.8 C6.27479001,22.8 7.91715335,21.4475474 8.19461474,19.6909135 L10.5504882,19.6909135 C10.8280027,21.4475474 12.4703129,22.8 14.4694047,22.8 C16.6610631,22.8 18.4336623,21.178077 18.4336623,19.1727162 C18.4336623,18.0948834 17.9182934,17.1310666 17.1027927,16.467811 C18.2864368,15.0635241 19,13.3120882 19,11.4 L-8.75743922e-13,11.4 Z M4.27569817,20.7272595 C3.3355893,20.7272595 2.57673822,20.032913 2.57673822,19.1727162 C2.57673822,18.3125194 3.3355893,17.618173 4.27569817,17.618173 C5.21580703,17.618173 5.97465811,18.3125194 5.97465811,19.1727162 C5.97465811,20.032913 5.21575394,20.7272595 4.27569817,20.7272595 Z M14.4694578,20.7272595 C13.529349,20.7272595 12.7704979,20.032913 12.7704979,19.1727162 C12.7704979,18.3125194 13.529349,17.618173 14.4694578,17.618173 C15.4095667,17.618173 16.1684178,18.3125194 16.1684178,19.1727162 C16.1684178,20.032913 15.4095136,20.7272595 14.4694578,20.7272595 Z" id="Shape"></path>
                            </g>
                        </g>
                    </g>
                </g>
            </g>
        </g>
    </g>
</svg>