<?xml version="1.0" encoding="UTF-8"?>
<svg width="20px" height="19px" viewBox="0 0 20 19" version="1.1" xmlns="http://www.w3.org/2000/svg" xmlns:xlink="http://www.w3.org/1999/xlink">
    <!-- Generator: sketchtool 45 (43475) - http://www.bohemiancoding.com/sketch -->
    <title>9F0A5B80-D4E3-4F30-95D1-E9658CBC8085</title>
    <desc>Created with sketchtool.</desc>
    <defs></defs>
    <g id="Page-1" stroke="none" stroke-width="1" fill="none" fill-rule="evenodd">
        <g id="главная_гайды" transform="translate(-923.000000, -836.000000)" fill-rule="nonzero" fill="#FFFFFF">
            <g id="Group-2-Copy-6" transform="translate(686.000000, 602.000000)">
                <g id="Group">
                    <g id="Group-2">
                        <g id="bookmark-star" transform="translate(237.000000, 234.000000)">
                            <path d="M9.17422054,0.425326273 C9.3030944,0.165026594 9.568498,0 9.85857051,0 C10.148643,0 10.414472,0.165026594 10.5429205,0.425326273 L12.9974784,5.39951704 C13.1084886,5.62451464 13.3237037,5.78060938 13.5725195,5.81676211 L19.0617804,6.61424888 C19.3497263,6.65593085 19.587909,6.85753551 19.6776529,7.13357226 C19.7673967,7.40960901 19.6925393,7.71329197 19.4845547,7.91574727 L15.512858,11.7879177 C15.332945,11.9631521 15.250857,12.2157959 15.2929643,12.4633358 L16.2303834,17.930905 C16.2788706,18.2175749 16.1619059,18.5067968 15.9262751,18.677778 C15.6910697,18.8479085 15.3801562,18.8704508 15.1224085,18.7360477 L10.212442,16.1543172 C9.99042166,16.0373525 9.72459274,16.0373525 9.5021471,16.1543172 L4.5921806,18.7356223 C4.33528353,18.8704508 4.02351937,18.8483338 3.78831394,18.677778 C3.55310851,18.5072221 3.43571846,18.2175749 3.48463098,17.930905 L4.42205009,12.4633358 C4.46458272,12.2157959 4.38206942,11.9631521 4.20215641,11.7879177 L0.230459665,7.91574727 C0.0224751172,7.71286664 -0.052382307,7.40960901 0.0373615367,7.13357226 C0.12710538,6.85753551 0.36571342,6.65593085 0.653659307,6.61424888 L6.14377084,5.81676211 C6.39216139,5.78060938 6.60737648,5.62451464 6.71838664,5.39909171 L9.17422054,0.425326273 Z" id="Shape"></path>
                        </g>
                    </g>
                </g>
            </g>
        </g>
    </g>
</svg>