<svg xmlns="http://www.w3.org/2000/svg" width="20" height="21" viewBox="0 0 20 21">
    <g fill="#9aa7b4" fill-rule="nonzero">
        <path d="M19.446 3.64A4.006 4.006 0 0 0 17.993.918a4 4 0 0 0-2.465-.916V0H4.07A4 4 0 0 0 1.51.918 4.006 4.006 0 0 0 .058 3.64 3.396 3.396 0 0 0 3.39 7.36c.664 0 1.303-.228 1.824-.656A2.863 2.863 0 0 0 6.252 4.76 2.456 2.456 0 0 0 5.7 2.95a2.455 2.455 0 0 0-1.67-.89.835.835 0 0 0-.161 1.662c.213.02.405.123.54.289.137.165.2.374.18.587a1.203 1.203 0 0 1-.437.817c-.25.206-.565.302-.887.27A1.725 1.725 0 0 1 1.72 3.802a2.347 2.347 0 0 1 .85-1.594A2.346 2.346 0 0 1 4.3 1.68a3.165 3.165 0 0 1 2.839 3.454h5.226a3.165 3.165 0 0 1 2.838-3.454 2.346 2.346 0 0 1 1.73.527c.487.4.79.967.85 1.594a1.725 1.725 0 0 1-1.546 1.882 1.203 1.203 0 0 1-.887-.27 1.203 1.203 0 0 1-.436-.817.797.797 0 0 1 .178-.587.797.797 0 0 1 .542-.29.835.835 0 1 0-.163-1.661c-.657.064-1.25.38-1.669.89a2.456 2.456 0 0 0-.55 1.81 2.862 2.862 0 0 0 1.037 1.945 2.86 2.86 0 0 0 2.11.642 3.396 3.396 0 0 0 3.047-3.706z"/>
        <path d="M13.175 16.963V5.961H6.328v11.002a1.59 1.59 0 0 0 .243 3.163h6.361a1.59 1.59 0 0 0 .243-3.163zM8.836 8.865a.915.915 0 1 1 1.83 0v6.12a.915.915 0 1 1-1.83 0v-6.12z"/>
    </g>
</svg>
