<?xml version="1.0" encoding="UTF-8"?>
<svg width="20px" height="23px" viewBox="0 0 20 23" version="1.1" xmlns="http://www.w3.org/2000/svg" xmlns:xlink="http://www.w3.org/1999/xlink">
    <!-- Generator: sketchtool 45 (43475) - http://www.bohemiancoding.com/sketch -->
    <title>BD17C436-F501-48B7-AC5A-1447475A6840</title>
    <desc>Created with sketchtool.</desc>
    <defs></defs>
    <g id="Page-1" stroke="none" stroke-width="1" fill="none" fill-rule="evenodd">
        <g id="главная_гайды" transform="translate(-922.000000, -746.000000)" fill-rule="nonzero" fill="#4f84ab">
            <g id="Group-2-Copy-6" transform="translate(686.000000, 602.000000)">
                <g id="Group">
                    <g id="Group-2">
                        <g id="kid-teddy-bear--copy" transform="translate(236.000000, 144.000000)">
                            <circle id="Oval" cx="9.786831" cy="8.14700737" r="1"></circle>
                            <path d="M15.7841282,18.1162892 C15.4099157,17.9154154 15.4675062,17.5533006 15.4675062,17.326278 L15.4675062,14.1543244 C16.5621676,13.9307672 18.9712671,13.9102261 18.9712671,11.7464851 C18.9712671,10.6772795 18.0989656,10.2857394 17.0351788,10.3939264 C16.186884,10.4801232 15.7879088,11.0462622 14.3508545,10.505768 C14.1686945,10.4372769 13.6604611,9.98896536 13.9514383,9.63428573 C14.6953267,8.72739218 15.1149689,7.54508477 15.1149689,6.27191787 C15.1149689,6.06379799 15.1132047,5.64680213 15.2998383,5.56892257 C16.2568873,5.1694433 16.9041194,4.17811722 16.9041194,3.05743295 C16.9041194,1.53997881 15.6957891,0.309721285 14.205429,0.309721285 C13.3974601,0.309721285 12.6725375,0.671520964 12.1779142,1.24446497 C12.1346267,1.29468342 12.0572513,1.39890088 11.8676561,1.31705174 C11.1963545,1.00124888 10.6345632,0.907616992 9.84644225,0.907616992 C8.99997466,0.907616992 8.38481439,1.02178993 7.67602223,1.38295952 C7.45233904,1.45138767 7.30036049,1.22096248 7.18977909,1.10912089 C6.70202372,0.615190606 6.03021805,0.309721285 5.28796792,0.309721285 C3.7975448,0.309721285 2.58915151,1.5399158 2.58915151,3.05743295 C2.58915151,4.2224128 3.30134618,5.2179605 4.30659732,5.6176288 C4.40375774,5.65625353 4.55390901,5.77282082 4.57791558,6.27191787 C4.63859358,7.53418415 5.00738729,8.69708468 5.72550484,9.6138077 C5.99184535,9.95368012 5.73520828,10.3924142 5.33440581,10.5162906 C3.8723999,10.9682566 3.50316512,10.4810684 2.65795772,10.3938634 C1.59429691,10.2841011 0.72186947,10.6772165 0.72186947,11.7464221 C0.72186947,13.8519425 3.1302758,13.9269236 4.22544128,14.1473303 L4.22544128,17.326215 C4.22544128,17.5594756 4.25808012,17.886179 3.77171096,18.1866706 C2.41341844,18.7464457 0.463846188,18.7896701 0.463846188,20.6905361 C0.463846188,21.8471987 1.42316352,23.0078939 2.55815091,22.7848408 C3.98001987,22.5055204 4.7263656,22.0335174 6.88380569,21.0571245 C7.34843663,20.8454131 7.67627427,20.9515838 7.88029854,20.9801901 C8.49230834,21.0661348 9.15485164,21.0994038 9.84637924,21.0994038 C10.6190629,21.0994038 11.3553901,21.0579436 12.0253685,20.9478033 C12.1944856,20.9200162 12.5899323,20.9040748 12.9529922,21.0516427 C15.0584495,22.0316901 15.7340988,22.502874 17.1349226,22.7848408 C18.2688388,23.0130607 19.2292273,21.8471987 19.2292273,20.6905361 C19.2293534,18.7897961 17.1399634,18.6832473 15.7841282,18.1162892 Z M12.3964306,8.70130631 C12.3964306,9.83371032 11.22641,10.7518825 9.78286581,10.7518825 C8.33957368,10.7518825 7.16936406,9.83371032 7.16936406,8.70130631 C7.16936406,7.56877628 8.33951067,6.65073008 9.78286581,6.65073008 C11.226347,6.65073008 12.3964306,7.56877628 12.3964306,8.70130631 Z M13.0037777,16.861143 C13.0037777,18.6048007 11.590163,19.3878178 9.84663127,19.3878178 C8.10291057,19.3878178 6.68942185,18.6048007 6.68942185,16.861143 L6.68942185,15.3765167 C6.68942185,13.632859 8.10297357,12.2193703 9.84663127,12.2193703 C11.590226,12.2193703 13.0037777,13.632922 13.0037777,15.3765167 L13.0037777,16.861143 Z" id="Shape"></path>
                        </g>
                    </g>
                </g>
            </g>
        </g>
    </g>
</svg>