<svg xmlns="http://www.w3.org/2000/svg" width="22" height="21" viewBox="0 0 22 21">
    <path fill="#9AA7B4" fill-rule="nonzero" d="M21.09 19.22L12.51 1.714c-.29-.59-.937-.969-1.652-.969-.715 0-1.363.38-1.651.969L.626 19.22c-.127.259-.1.556.073.794a.96.96 0 0 0 .779.378h18.76a.96.96 0 0 0 .779-.378.759.759 0 0 0 .073-.794zm-6.626-8.954c-.165.118-.413.139-.569.01-.443-.367-1.47-1.444-1.797-1.444-.475 0-.75.658-1.24.658-.309 0-.98-.927-.98-.927a.505.505 0 0 0-.615-.048l-.834.551a.509.509 0 0 1-.57-.01.394.394 0 0 1-.134-.498l2.666-5.455c.088-.18.255-.358.466-.358.212 0 .38.178.467.358l3.275 6.666a.394.394 0 0 1-.135.497z"/>
</svg>
