<?xml version="1.0" encoding="UTF-8"?>
<svg width="20px" height="20px" viewBox="0 0 20 20" version="1.1" xmlns="http://www.w3.org/2000/svg" xmlns:xlink="http://www.w3.org/1999/xlink">
    <!-- Generator: sketchtool 45 (43475) - http://www.bohemiancoding.com/sketch -->
    <title>4E49D8DA-5D7F-491D-8199-DEEFB8837BED</title>
    <desc>Created with sketchtool.</desc>
    <defs></defs>
    <g id="Page-1" stroke="none" stroke-width="1" fill="none" fill-rule="evenodd">
        <g id="главная_гайды" transform="translate(-922.000000, -614.000000)" fill-rule="nonzero" fill="#4f84ab">
            <g id="Group-2-Copy-6" transform="translate(686.000000, 602.000000)">
                <g id="Group">
                    <g id="Group-2">
                        <g id="palm-tree" transform="translate(236.000000, 12.000000)">
                            <path d="M14.4252338,4.69500391 C14.2488977,4.69500391 14.0721704,4.70129908 13.8946963,4.71353378 L14.6075094,4.32305504 C14.7290383,4.25636886 14.8046159,4.128936 14.8046159,3.990371 L14.8046159,3.69695179 L15.2476967,3.83846877 C15.3444006,3.8688421 15.4518454,3.85884806 15.5433566,3.81069175 L18.2015568,2.37322213 C18.3653025,2.28466287 18.4405246,2.09054384 18.3793867,1.91495466 C18.3204894,1.74566067 17.8988905,0.901324654 15.3655268,0.901324654 C13.6835411,0.901289088 11.2724532,2.54326301 10.0543189,4.42640974 C8.8361846,2.54326301 6.42509668,0.901289088 4.74314662,0.901289088 C2.20981848,0.901289088 1.78821952,1.7456251 1.72928672,1.9149191 C1.66814882,2.09054384 1.74337084,2.28466287 1.90711654,2.37318656 L4.56531679,3.81065618 C4.65572547,3.8588125 4.76317026,3.86880653 4.86097666,3.8384332 L5.30405746,3.69691622 L5.30405746,3.99033544 C5.30405746,4.12890044 5.37963513,4.25633329 5.50116403,4.32301948 L6.21397711,4.71349821 C6.03650294,4.70126352 5.85981123,4.69496834 5.68343961,4.69496834 C2.94037897,4.69500391 0.949431797,6.13097976 0.949431797,8.10933658 C0.949431797,8.22083588 0.998335,8.32682245 1.08355105,8.3986657 C1.16837588,8.47054452 1.28101329,8.5020204 1.39105439,8.48349053 L3.99256249,8.05004811 C4.1100013,8.0304157 4.21150657,7.95704311 4.26670495,7.85148333 L4.49567863,7.41210139 L4.63424363,7.67809925 C4.71017697,7.82331508 4.87022381,7.90223596 5.03286697,7.87666403 L7.97698201,7.38596041 C7.19143654,9.67541272 7.31374789,12.9676474 7.5158337,15.1182858 C4.02787949,15.6085626 1.7081961,17.0373541 1.7081961,18.7317167 C1.70816053,18.9413781 1.87784576,19.1110633 2.08754269,19.1110633 L18.0210951,19.1110633 C18.2307921,19.1110633 18.4004773,18.9413781 18.4004773,18.7316812 C18.4004773,16.8228202 15.4449811,15.2680896 11.3413445,14.9885056 C10.5609917,12.988987 9.72835684,9.85644349 10.6564151,7.14009289 L15.0758064,7.87666403 C15.2362089,7.90148907 15.3981408,7.82331508 15.4744298,7.67809925 L15.6129948,7.41210139 L15.8419684,7.85148333 C15.8971668,7.95707868 15.9986721,8.0304157 16.1161109,8.05004811 L18.717619,8.4835261 C18.738354,8.4868693 18.7591245,8.48871873 18.7798594,8.48871873 C18.86913,8.48871873 18.9561955,8.45724285 19.0251223,8.39870127 C19.1103384,8.32682245 19.1592416,8.22087144 19.1592416,8.10937214 C19.159206,6.13097976 17.1682589,4.69500391 14.4252338,4.69500391 Z" id="Shape"></path>
                        </g>
                    </g>
                </g>
            </g>
        </g>
    </g>
</svg>