<?xml version="1.0" encoding="UTF-8"?>
<svg width="23px" height="22px" viewBox="0 0 23 22" version="1.1" xmlns="http://www.w3.org/2000/svg" xmlns:xlink="http://www.w3.org/1999/xlink">
    <!-- Generator: sketchtool 45 (43475) - http://www.bohemiancoding.com/sketch -->
    <title>1C08F7D6-A596-4469-9EE7-FB9ABB75BB20</title>
    <desc>Created with sketchtool.</desc>
    <defs></defs>
    <g id="Page-1" stroke="none" stroke-width="1" fill="none" fill-rule="evenodd">
        <g id="главная_гайды" transform="translate(-920.000000, -791.000000)" fill-rule="nonzero" fill="#9AA7B4">
            <g id="Group-2-Copy-6" transform="translate(686.000000, 602.000000)">
                <g id="Group">
                    <g id="Group-2">
                        <g id="aeroplane" transform="translate(246.694174, 198.911869) rotate(-45.000000) translate(-246.694174, -198.911869) translate(232.694174, 184.911869)">
                            <path d="M23.4296884,11.3987935 L18.4827486,11.564087 L13.1677191,1.70710678 L10.6064747,1.70710678 C10.3258579,1.70710678 10.0985291,1.93423448 10.0985291,2.21535402 L12.8638767,11.7511984 L7.82695048,11.9560054 C7.39340704,11.9564076 6.98520055,12.0296033 6.62344514,12.1567908 L4.72065996,8.92532362 L3.12382856,8.92492144 C2.91218456,8.92532362 2.7406574,9.09664969 2.7406574,9.30839424 L4.13298338,13.5675162 L4.13298338,14.0792825 L2.74075794,18.3384044 C2.74055685,18.5500484 2.91208401,18.7218772 3.12372802,18.7218772 L4.72086105,18.7222794 L6.65702666,15.4332008 C7.01033642,15.5535514 7.40657823,15.6227253 7.82705103,15.6227253 L12.8831811,15.8284372 L10.098328,25.4319473 C10.098328,25.7129663 10.3254557,25.9396919 10.6062736,25.9396919 L13.167518,25.9396919 L18.5191453,16.0164535 L23.4296884,16.1804399 C24.8266394,16.1804399 25.9585578,15.1094509 25.9585578,13.7896167 C25.9586583,12.4693804 24.8267399,11.3987935 23.4296884,11.3987935 Z" id="Shape" transform="translate(14.349608, 13.823399) rotate(9.000000) translate(-14.349608, -13.823399) "></path>
                        </g>
                    </g>
                </g>
            </g>
        </g>
    </g>
</svg>