<svg xmlns="http://www.w3.org/2000/svg" width="20" height="20" viewBox="0 0 20 20">
    <path fill="#9AA7B4" fill-rule="nonzero" d="M14.425 4.695a7.71 7.71 0 0 0-.53.019l.713-.39a.38.38 0 0 0 .197-.334v-.293l.443.141c.096.03.204.02.295-.027l2.659-1.438a.38.38 0 0 0 .177-.458c-.059-.17-.48-1.014-3.013-1.014-1.682 0-4.094 1.642-5.312 3.525C8.836 2.543 6.425.901 4.744.901c-2.534 0-2.956.845-3.015 1.014a.38.38 0 0 0 .178.458l2.658 1.438c.09.048.198.058.296.027l.443-.141v.293a.38.38 0 0 0 .197.333l.713.39a7.71 7.71 0 0 0-.53-.018C2.94 4.695.948 6.131.948 8.109a.378.378 0 0 0 .442.374l2.602-.433a.38.38 0 0 0 .274-.199l.229-.439.138.266a.381.381 0 0 0 .399.199l2.944-.491c-.786 2.29-.663 5.582-.461 7.732-3.488.49-5.808 1.92-5.808 3.614 0 .21.17.38.38.38H18.02c.21 0 .38-.17.38-.38 0-1.91-2.956-3.464-7.06-3.743-.78-2-1.613-5.133-.685-7.849l4.42.737a.384.384 0 0 0 .398-.199l.139-.266.229.44a.38.38 0 0 0 .274.198l2.602.434a.379.379 0 0 0 .442-.374c0-1.979-1.992-3.415-4.735-3.415z"/>
</svg>
