<?xml version="1.0" encoding="UTF-8"?>
<svg width="19px" height="25px" viewBox="0 0 19 25" version="1.1" xmlns="http://www.w3.org/2000/svg" xmlns:xlink="http://www.w3.org/1999/xlink">
    <!-- Generator: sketchtool 47 (45396) - http://www.bohemiancoding.com/sketch -->
    <title>0DAA75F4-4F9D-4756-9D0C-24E521F26E05</title>
    <desc>Created with sketchtool.</desc>
    <defs></defs>
    <g id="Page-1" stroke="none" stroke-width="1" fill="none" fill-rule="evenodd">
        <g id="добавить_параметры" transform="translate(-924.000000, -1121.000000)" fill-rule="nonzero" fill="#9AA7B4">
            <g id="Group-5" transform="translate(687.000000, 627.000000)">
                <g id="Group-2-Copy-6">
                    <g id="Group">
                        <g id="Group-2">
                            <g id="person-shape" transform="translate(237.000000, 494.000000)">
                                <path d="M0,18.0408418 L0,23.081639 C0,24.0103852 0.708159061,24.7619048 1.58331933,24.7619048 L17.4166807,24.7619048 C18.2918409,24.7619048 19,24.0103852 19,23.081639 L19,18.0408418 C19,15.256297 16.8756068,13 14.250042,13 L13.8440056,13 C13.6310539,13 13.4603564,13.1837345 13.4399433,13.4086555 C13.2462706,15.5371139 11.5563494,17.2007535 9.499916,17.2007535 C7.44348257,17.2007535 5.75360336,15.5371139 5.56005668,13.4086555 C5.53964356,13.1837345 5.36894614,13 5.15595239,13 L4.749916,13 C2.12750135,13 0,15.256297 0,18.0408418 Z" id="Shape"></path>
                                <path d="M9.42857143,12.6666667 C12.4261399,12.6666667 14.8571429,9.83085004 14.8571429,6.3332516 C14.8571429,2.83565315 12.4261399,0 9.42857143,0 C6.43100299,0 4,2.83577576 4,6.33341507 C4,9.83101351 6.43100299,12.6666667 9.42857143,12.6666667 Z M9.42857143,6.33341507 C10.844865,6.33341507 12.0263173,5.60207525 12.3987964,4.60786996 C12.9562341,5.29355979 13.3060939,6.16332084 13.3060939,7.12515837 C13.3060939,9.31153543 11.5687252,11.0834662 9.42857143,11.0834662 C7.28681628,11.0834662 5.551049,9.31153543 5.551049,7.12515837 C5.551049,6.16332084 8.01227789,6.33341507 9.42857143,6.33341507 Z" id="Shape"></path>
                            </g>
                        </g>
                    </g>
                </g>
            </g>
        </g>
    </g>
</svg>