<?xml version="1.0" encoding="UTF-8"?>
<svg width="28px" height="23px" viewBox="0 0 28 23" version="1.1" xmlns="http://www.w3.org/2000/svg" xmlns:xlink="http://www.w3.org/1999/xlink">
    <!-- Generator: sketchtool 47 (45396) - http://www.bohemiancoding.com/sketch -->
    <title>165EAB44-18FA-41D5-8E71-B662014F3B45</title>
    <desc>Created with sketchtool.</desc>
    <defs></defs>
    <g id="Page-1" stroke="none" stroke-width="1" fill="none" fill-rule="evenodd">
        <g id="добавить_параметры" transform="translate(-917.000000, -1166.000000)" fill-rule="nonzero" fill="#4f84ab">
            <g id="Group-5" transform="translate(687.000000, 627.000000)">
                <g id="Group-2-Copy-6">
                    <g id="Group">
                        <g id="Group-2">
                            <g id="woman-and-man-partners" transform="translate(230.000000, 539.000000)">
                                <path d="M21.388521,5.44444444 C22.8897608,5.44444444 24.1111111,4.22325377 24.1111111,2.72216968 C24.1111111,1.22119068 22.8898134,0 21.388521,0 C19.8876491,0 18.6666667,1.22113813 18.6666667,2.72216968 C18.6666667,4.22325377 19.8877017,5.44444444 21.388521,5.44444444 Z" id="Shape"></path>
                                <path d="M27.771404,10.7912726 L26.8141174,9.49191967 C26.5975133,9.19778314 26.2339779,8.72556869 26.0038159,8.43930508 L24.5910474,6.68246593 C24.3659427,6.40252208 24.1272263,6.24195738 23.6695386,6.24195738 C23.6656111,6.24195738 20.0558662,6.24383188 20.022617,6.24383188 C19.587741,6.24383188 19.3683931,6.47000424 19.1730406,6.75616073 L17.1941209,9.65473377 C17.0298117,9.89536659 16.7105009,10.291744 16.5106829,10.5029203 L16.3486334,10.6743035 L16.1206772,10.4332423 C15.9158556,10.2166567 15.5886361,9.81058543 15.4203994,9.56422199 L13.4413721,6.66554183 C13.2558652,6.39373868 12.9521031,6.22664 12.6221396,6.22235542 C12.5918495,6.22198052 9.15486062,6.22251609 9.13737519,6.22251609 C8.76695319,6.22251609 8.54163332,6.35983693 8.34907844,6.59929149 L6.93630993,8.35613063 C6.7086766,8.63918081 6.34707801,9.10887807 6.13031255,9.40306816 L5.17958966,10.6935306 C5.05740689,10.6628958 4.93135043,10.6464538 4.80308811,10.6464538 C4.46946621,10.6464538 4.15806424,10.7546394 3.90272324,10.9593353 C3.87350913,10.9826863 3.84574766,11.0073762 3.8187394,11.0327088 L3.29761994,10.3880935 C3.18167813,10.24456 3.00843792,10.162296 2.8223392,10.162296 C2.68401604,10.162296 2.54859815,10.2096942 2.44115694,10.2957607 L0.226856554,12.0694169 C0.100423483,12.1706937 0.0211741577,12.3152983 0.00363493171,12.4766128 C-0.0139042943,12.6380344 0.0324186309,12.796189 0.134156902,12.9219415 L3.12583237,16.6230703 C3.24177419,16.7666037 3.41501439,16.8488677 3.60111311,16.8488677 C3.73943627,16.8488677 3.87485416,16.8014695 3.98229537,16.715403 L6.19659576,14.941854 C6.32302883,14.8405772 6.40227816,14.6959725 6.41981738,14.5346045 C6.43735661,14.3731829 6.39103368,14.2150283 6.28929541,14.0892758 L5.76817595,13.4446605 C5.7987351,13.4238267 5.82891763,13.4020824 5.85807794,13.3787315 C6.21822388,13.0901113 6.39958809,12.6580113 6.39135649,12.2163245 C6.5522224,12.1461109 6.69441925,12.0347118 6.80046163,11.8908034 L7.50698039,10.9317533 L6.53011006,16.1045823 C6.49180353,16.3074573 6.53818026,16.5002099 6.66073963,16.6472246 C6.78319141,16.7942393 6.96487842,16.8752179 7.17222866,16.8752179 L7.68543932,16.8752179 L6.82472602,20.9442315 C6.69786254,21.5440194 7.08490914,22.1347561 7.68732237,22.2610441 C7.76323601,22.2770042 7.8409789,22.2850913 7.91850658,22.2850913 C8.44290792,22.2850913 8.90210208,21.9137788 9.0102965,21.4023068 L9.96785216,16.8752179 L11.024456,16.8752179 C11.0373145,17.1554295 11.04178,17.4832536 11.0337099,17.697322 L10.9032955,21.1312535 C10.8919972,21.4279608 10.9974478,21.7113323 11.2002787,21.9290426 C11.4031096,22.1468065 11.6788951,22.2729338 11.9766316,22.2840738 C11.9911579,22.2846629 12.0055767,22.2849307 12.0199416,22.2849307 C12.6225162,22.2849307 13.1124309,21.8150727 13.1351889,21.2152313 L13.2656033,17.7814605 C13.2751799,17.530866 13.2723284,17.1912593 13.2600079,16.8752179 L14.0391585,16.8752179 C14.2451637,16.8752179 14.4297559,16.7945606 14.5587715,16.6481351 C14.687787,16.5017095 14.744117,16.309064 14.7172701,16.1056535 L14.0582041,11.1103668 C14.2551169,11.36305 14.4765093,11.6260162 14.6509869,11.8105746 L15.1774865,12.367356 C15.1739894,12.6843079 15.2969792,13.0017954 15.5465635,13.2357336 C15.7663418,13.4415541 16.0533718,13.5548813 16.3548205,13.5548813 C16.678812,13.5548813 16.9919356,13.4202384 17.2139198,13.1855504 L18.2282896,12.1127447 C18.5104775,11.8144843 18.9131264,11.3147414 19.1450639,10.9750276 L19.6991097,10.1635278 L19.9263665,12.6908419 L19.5982323,16.355873 C19.5625082,16.7563743 19.5459912,17.3838513 19.5607328,17.7845132 L19.6919542,21.3626209 C19.7164338,22.0315512 20.2620328,22.5555556 20.9340111,22.5555556 C20.9493445,22.5555556 20.9648393,22.5551807 20.9801189,22.5545915 C21.3121267,22.5425411 21.6194936,22.4025424 21.8456743,22.1603565 C22.071855,21.9181169 22.1897336,21.6027717 22.1775745,21.2723234 L22.0463532,17.6942157 C22.0354315,17.396223 22.0492046,16.8734505 22.0758363,16.5754043 L22.2953994,14.1224277 L22.6940671,14.1224277 L23.2796405,16.8904281 C23.3545857,17.244763 23.4848925,17.8193254 23.5702752,18.1711967 L24.3687942,21.4637906 C24.5041583,22.0218574 25.0009057,22.4115401 25.5767949,22.4115401 C25.6746595,22.4115401 25.7731697,22.399811 25.8695278,22.3766743 C26.536126,22.216538 26.9474908,21.5463223 26.7865711,20.8826942 L25.9881059,17.5901539 C25.9075653,17.2580453 25.7843603,16.7152423 25.7134502,16.380188 L25.014356,13.0755438 L24.8040467,10.7360551 C24.8429451,10.7878985 24.8794224,10.8368499 24.911757,10.8807133 L25.8690974,12.1801198 C26.090436,12.4805225 26.4463316,12.6599393 26.8210577,12.6599393 C27.0731169,12.6599393 27.3139853,12.5813173 27.5177309,12.4325887 C27.7718344,12.2471199 27.9381881,11.9742456 27.9860174,11.6642561 C28.0339544,11.3542666 27.9577179,11.0442236 27.771404,10.7912726 Z M4.2756201,11.5981129 C4.3004763,11.5704773 4.32694655,11.5442343 4.35637586,11.5206691 C4.48184051,11.4200885 4.63630406,11.3669597 4.80303431,11.3669597 C4.86350698,11.3669597 4.92381824,11.3745113 4.98294588,11.388222 C4.98482893,11.4086273 4.98622776,11.4290326 4.98934824,11.4493844 C5.03034483,11.7145464 5.17259549,11.9480561 5.38995277,12.1066927 C5.47581965,12.1693547 5.56943393,12.2172885 5.66805172,12.250012 C5.66692189,12.4689006 5.57852635,12.6779346 5.40447912,12.8173977 C5.37510361,12.8409629 5.34406025,12.8615289 5.31167186,12.8798455 L4.2756201,11.5981129 Z" id="Shape"></path>
                                <path d="M11.2781456,5.44444444 C12.7790176,5.44444444 14,4.22325377 14,2.72216968 C14,1.22119068 12.7790176,0 11.2781456,0 C9.77690585,0 8.55555556,1.22113813 8.55555556,2.72216968 C8.55555556,4.22325377 9.7768533,5.44444444 11.2781456,5.44444444 Z" id="Shape"></path>
                            </g>
                        </g>
                    </g>
                </g>
            </g>
        </g>
    </g>
</svg>