<?xml version="1.0" encoding="UTF-8"?>
<svg width="173px" height="241px" viewBox="0 0 173 241" version="1.1" xmlns="http://www.w3.org/2000/svg" xmlns:xlink="http://www.w3.org/1999/xlink">
    <!-- Generator: sketchtool 45 (43475) - http://www.bohemiancoding.com/sketch -->
    <title>C097CE14-7853-4B64-9F7B-D6323C908044</title>
    <desc>Created with sketchtool.</desc>
    <defs>
        <polygon id="path-1" points="0 234.894633 0 0.302787592 172.733546 0.302787592 172.733546 234.894633"></polygon>
    </defs>
    <g id="Page-1" stroke="none" stroke-width="1" fill="none" fill-rule="evenodd">
        <g id="404_1920" transform="translate(-1058.000000, -186.000000)">
            <g id="Group" transform="translate(690.000000, 164.000000)">
                <g id="Page-1" transform="translate(368.000000, 22.000000)">
                    <path d="M117.606738,96.2680532 C118.412022,95.3194793 119.385846,95.0843133 120.533992,95.6157946 C122.257123,96.4137771 123.980558,97.2111511 125.715858,97.9820576 C126.069976,98.1393419 126.476725,98.178587 126.859136,98.2722883 C126.895947,98.2026208 126.932454,98.1329532 126.969266,98.0632857 C126.838449,97.8013478 126.742618,97.5132467 126.570731,97.2814271 C125.522067,95.8655634 124.299994,94.6261503 122.804728,93.6745341 C121.171648,92.6353011 119.478635,92.0755269 117.565363,92.9227938 C117.186299,93.0907261 116.746085,93.1211486 116.334164,93.21485 C116.255978,93.1394021 116.177792,93.0642585 116.099606,92.9888107 C116.651775,92.1305916 117.203639,91.2717641 117.756721,90.4141535 C118.380686,89.445805 119.336257,89.0378391 120.415952,88.8260984 C121.260481,88.6605999 122.105923,88.4923635 122.938891,88.278189 C123.206001,88.2097383 123.434474,87.9910005 123.680896,87.8410175 C123.426564,87.6797782 123.187443,87.4151023 122.915466,87.3761615 C121.889315,87.2289165 120.838217,87.2304377 119.823018,87.0369505 C118.175943,86.7232944 116.805409,87.2127926 115.645094,88.3250396 C114.843461,89.0938165 114.130053,89.9547736 113.38318,90.7801363 C113.047316,91.1518994 112.761648,91.2233923 112.552342,90.6766998 C111.622934,88.2502003 111.90921,85.3174701 114.843461,83.9627557 C115.854401,83.4957701 116.90124,83.1069704 117.917656,82.6521539 C118.121182,82.5608863 118.262647,82.3305879 118.432405,82.164481 C118.231008,81.9977656 118.046343,81.8006278 117.821521,81.675287 C117.678535,81.59558 117.475921,81.6211349 117.299775,81.6019688 C115.389849,81.3938788 113.629907,81.9576079 111.935981,82.7276017 C110.08538,83.5690884 108.771432,84.9092 108.781775,87.0716322 C108.787251,88.1704933 109.079612,89.2684417 109.248761,90.3657817 C109.28831,90.6213308 109.355848,90.872925 109.419736,91.1704572 C109.228378,91.1537248 109.149279,91.1622431 109.08235,91.1376009 C108.988649,91.1029192 108.890688,91.0588065 108.817066,90.9933981 C107.284684,89.6295569 106.022454,88.0983919 105.968606,85.9198359 C105.920842,83.9858768 106.006938,82.0646952 106.922656,80.2834571 C107.007535,80.1179586 106.922656,79.8651476 106.916571,79.6527984 C106.724301,79.6585787 106.522904,79.6299815 106.343411,79.6798745 C106.152662,79.7331139 105.978645,79.8532828 105.804933,79.9573278 C102.954039,81.6661603 101.656823,85.1979096 102.721003,88.3411636 C103.46605,90.5413196 104.671998,92.4512449 106.316944,94.0888887 C106.484876,94.2559083 106.621473,94.4548715 106.877022,94.7667023 C105.847524,94.9182064 104.974094,95.0030852 104.120742,95.1837949 C103.087898,95.402837 101.959527,95.5038397 101.07119,96.0067239 C98.8107972,97.2862947 97.2449505,99.2938763 96.0402191,101.566438 C95.8710699,101.88557 95.9961064,102.36077 95.9851543,102.763868 C96.3964667,102.76691 96.8689283,102.901682 97.2072266,102.745614 C97.9370627,102.409141 98.6066621,101.936071 99.2853884,101.495249 C101.455122,100.086383 103.600517,98.6224514 106.285,98.3778544 C107.26856,98.288108 108.260942,98.1816292 109.456243,98.5576515 C108.566688,99.6169633 107.765968,100.520208 107.024875,101.469999 C106.531118,102.102483 105.995378,102.749874 105.699975,103.480014 C104.892562,105.476948 104.655874,107.596484 104.696336,109.739446 C104.701812,110.029372 104.971964,110.314127 105.119818,110.60162 C105.38206,110.399918 105.746217,110.251761 105.885552,109.985868 C106.188865,109.407536 106.270093,108.694737 106.632425,108.167819 C108.093618,106.044632 109.613527,103.960385 111.153819,101.893176 C111.329965,101.656793 111.760139,101.560049 112.091136,101.497987 C113.223766,101.285334 114.089895,101.833548 114.895788,102.543913 C117.252011,104.621467 119.528528,106.802761 122.001269,108.731852 C124.433245,110.629304 127.056274,112.284593 129.620588,114.008637 C130.357117,114.503915 131.161184,114.247149 131.566716,113.514879 C132.001758,112.72937 131.841127,112.17994 131.029454,111.681923 C129.604159,110.806972 128.189208,109.914375 126.750832,109.061024 C123.042936,106.860563 119.839142,104.013929 116.626524,101.181289 C115.585162,100.262833 115.448565,99.2096059 116.192395,98.0489871 C116.599753,97.4140693 117.116023,96.846081 117.606738,96.2680532" id="Fill-1" fill="#FEFEFE"></path>
                    <path d="M150.975548,239.559483 C148.908034,239.697906 146.815878,239.681478 144.747451,239.542751 C141.891386,239.351393 139.065439,238.886842 136.333497,237.975992 C136.125103,237.906324 135.927965,237.802887 135.538557,237.634347 C136.159481,237.04628 136.629204,236.559215 137.141823,236.122348 C140.022227,233.66786 143.07543,231.464357 146.426774,229.683727 C147.04496,229.355164 147.542672,229.371897 148.122829,229.722973 C150.475706,231.14705 152.15077,233.204221 153.368279,235.599689 C154.4787,237.78433 153.507005,239.39003 150.975548,239.559483 M150.413644,228.980055 C147.242097,227.050355 143.885886,225.423967 140.606948,223.671326 C138.059975,222.309919 135.537949,220.920523 133.433015,218.888299 C132.761286,218.239995 132.001027,217.676875 131.243507,217.127444 C130.822459,216.822002 130.323226,216.625473 130.013221,216.461191 C130.013221,216.936087 130.162595,217.438362 129.984928,217.759928 C129.460443,218.709111 128.71783,219.541166 128.224985,220.50343 C127.55356,221.813728 126.510677,222.589806 125.182126,223.073524 C124.82527,223.203428 124.458374,223.308386 124.109428,223.455935 C123.406364,223.753467 122.728246,224.094199 122.222319,224.665534 C122.253046,224.73581 122.284077,224.806086 122.315108,224.876058 C123.4666,224.700824 124.618092,224.525895 125.838035,224.340318 C125.244796,225.559043 124.703884,226.670378 124.163276,227.781408 C124.251197,227.831909 124.339118,227.882106 124.427039,227.932608 C124.614442,227.711436 124.818272,227.501521 124.986813,227.266659 C125.799398,226.134637 126.587341,224.984362 127.417876,223.865726 C127.681639,223.511 128.02085,223.194301 128.377098,222.929626 C129.421807,222.15446 130.492375,221.413976 131.5526,220.659802 C131.513659,220.580095 131.474414,220.500084 131.435473,220.420377 C130.693468,220.616602 129.951767,220.813131 129.014754,221.061075 C129.511553,219.796107 129.926212,218.740142 130.389547,217.560052 C130.711417,217.900176 130.935935,218.100965 131.117862,218.334914 C132.284565,219.834439 133.441533,221.341571 134.602456,222.84566 C136.25805,224.990751 138.047502,226.987989 140.686655,227.945994 C141.529358,228.25174 142.420434,228.423019 143.468793,228.704123 C142.513222,229.345125 141.706113,229.992516 140.808345,230.469237 C138.159456,231.875061 136.305204,233.966 135.235549,236.745097 C134.971177,237.431429 134.628924,237.568026 133.973319,237.322212 C130.823372,236.140297 127.643611,235.034439 124.516785,233.794417 C122.546928,233.013167 120.643695,232.060334 118.72586,231.151918 C117.390008,230.518825 116.803766,229.485981 116.832363,227.947211 C116.886515,224.995314 117.947044,222.361333 119.139911,219.751994 C119.228136,219.559724 119.499505,219.3924 119.719155,219.328209 C121.054399,218.938496 122.399987,218.584682 123.740707,218.213832 C124.846565,217.907782 125.950598,217.594734 127.076231,217.278644 C127.008693,217.155129 126.993178,217.084548 126.961234,217.07603 C126.81764,217.037394 126.66857,216.989326 126.522846,216.992977 C123.792121,217.057472 121.115548,216.635512 118.480959,215.988121 C117.703055,215.796764 117.558548,216.12411 117.398222,216.689968 C117.005163,218.077843 116.672341,219.489752 116.17402,220.839599 C115.003057,224.010537 114.961379,227.160484 116.040161,230.358499 C116.3742,231.349056 116.897467,232.113878 117.843912,232.571432 C118.730728,233.000085 119.591685,233.496277 120.508315,233.846744 C121.661937,234.28787 122.87762,234.565019 124.03611,234.994585 C126.262733,235.820557 128.462281,236.719238 130.683428,237.560116 C134.796552,239.117748 139.051445,240.156981 143.410382,240.649218 C145.96709,240.937927 148.566085,240.98782 151.140438,240.922108 C152.311096,240.892294 153.519783,240.442345 154.61834,239.967449 C156.046372,239.350481 156.563555,238.310335 156.166845,236.802291 C155.287026,233.457944 153.33816,230.759163 150.413644,228.980055" id="Fill-3" fill="#FEFEFE"></path>
                    <path d="M9.56745405,137.7601 C9.60517796,137.419672 9.60700331,137.075289 9.62525682,136.732732 C9.52881746,136.700484 9.43207387,136.668236 9.33533028,136.635988 C8.59241254,138.204269 7.77982725,139.744561 7.13182775,141.351173 C6.7314675,142.343252 6.51090429,143.426293 6.35696638,144.489864 C6.30098895,144.87623 6.57540001,145.571689 6.87141105,145.688511 C7.34630646,145.876218 8.09378757,145.90299 8.50266613,145.644398 C11.8786523,143.509042 14.0715069,140.475918 15.0255569,136.584879 C15.091878,136.314422 14.8734443,135.973995 14.7876528,135.666119 C14.5962952,135.891245 14.3431799,136.087775 14.2233153,136.346366 C13.4043412,138.109351 12.6878911,139.92527 11.7736946,141.635928 C11.4496949,142.241945 10.7308109,142.753347 10.0752058,143.036581 C9.21272756,143.408952 8.97816999,143.167093 9.0666995,142.213347 C9.20451348,140.726295 9.40317248,139.244719 9.56745405,137.7601" id="Fill-5" fill="#FEFEFE"></path>
                    <path d="M133.136183,223.751946 C132.384747,224.626898 131.660082,225.5271 130.868489,226.363719 C130.564872,226.68498 130.134393,226.928056 129.716388,227.090817 C128.684152,227.493002 127.612671,227.795706 126.583782,228.205498 C126.150565,228.378297 125.784278,228.719638 125.387569,228.98401 C125.421642,229.06037 125.455715,229.136731 125.490093,229.212787 C126.100064,229.117565 126.709123,229.017474 127.320007,228.928032 C127.910204,228.841632 128.502226,228.766489 129.137448,228.680393 C128.718834,230.034803 127.902294,231.108414 128.292006,232.476514 C128.528389,232.297934 128.682935,232.086193 128.814361,231.860762 C129.337019,230.966341 129.876715,230.080437 130.361954,229.165936 C130.665875,228.59308 131.059238,228.341182 131.728533,228.310455 C132.740994,228.264213 133.747371,228.079548 134.907685,227.934737 C134.056768,226.864778 132.915011,227.133408 131.878212,226.838614 C132.406347,225.824328 132.898887,224.8791 133.391123,223.933873 C133.306244,223.873332 133.221061,223.812487 133.136183,223.751946" id="Fill-7" fill="#FEFEFE"></path>
                    <path d="M14.2668499,139.975163 C14.2376443,140.257788 14.1904894,140.540109 14.1819711,140.823647 C14.1485063,141.962666 14.1497232,143.103206 14.0827937,144.240095 C14.0675824,144.494427 13.8798755,144.867103 13.67787,144.946506 C13.4722139,145.027126 13.1445634,144.828467 12.8829298,144.721075 C12.7442032,144.664185 12.6325525,144.541278 12.3779161,144.350225 C12.3779161,144.785571 12.4132062,145.064241 12.3712232,145.330742 C12.2571387,146.050539 12.1826036,146.788893 11.9565643,147.475225 C11.7183561,148.19776 11.3633253,148.24887 10.7563962,147.791619 C10.383112,147.510211 10.0140869,147.223022 9.56474644,146.878031 C9.34327056,147.918177 10.089839,148.353827 10.4771176,148.954063 C10.7612638,149.394277 11.1841367,149.489195 11.5936238,149.219652 C11.979077,148.965928 12.4153358,148.656531 12.6012173,148.263777 C12.8640678,147.707957 12.8847552,147.042009 13.0782423,146.445727 C13.1506479,146.223035 13.4299266,145.893254 13.5948166,145.904815 C14.4019258,145.961097 14.6790749,145.439351 14.8558297,144.837593 C15.3477617,143.162834 14.9480099,141.563827 14.4621624,139.979118 C14.3970582,139.977901 14.331954,139.97638 14.2668499,139.975163" id="Fill-9" fill="#FEFEFE"></path>
                    <path d="M82.9380951,221.690273 C83.6639762,221.987806 84.3807306,222.307546 85.105699,222.606599 C85.3119636,222.691478 85.5337438,222.73772 85.8884702,222.843591 C85.304358,221.321248 84.1991082,220.759344 82.9268387,220.351379 C82.3311659,220.160325 81.7890368,219.801948 81.1787612,219.497419 C81.0214768,220.346511 80.2070662,219.471864 79.6092638,219.832979 C79.8276974,220.036506 79.9655114,220.232731 80.1544352,220.328562 C80.8197756,220.666252 81.0129585,221.186477 81.0631556,221.921484 C81.1243049,222.819861 81.3841131,223.70759 81.5976792,224.590147 C81.6500059,224.807364 81.8559663,224.987465 81.9913465,225.184603 C82.0601014,225.15844 82.128552,225.132276 82.1970027,225.105809 C82.1970027,224.155409 82.232597,223.202881 82.1845294,222.254611 C82.1522816,221.610871 82.3895772,221.465451 82.9380951,221.690273" id="Fill-11" fill="#FEFEFE"></path>
                    <path d="M80.1742707,98.2206309 C80.528693,97.678806 80.9546081,97.1686204 81.2119826,96.584204 C81.3850867,96.1911451 81.3202867,95.6931286 81.3619656,95.242267 C80.8542138,95.2005881 80.3464621,95.1312248 79.8387104,95.1324417 C79.6610429,95.1330502 79.4398713,95.2681261 79.3127052,95.4089824 C78.5022494,96.3079676 77.6689769,97.19235 76.9327521,98.1503549 C76.5171806,98.6915714 76.4520764,99.4040666 76.8186676,100.016776 C76.9318394,100.2057 77.3647517,100.317655 77.6206051,100.275976 C77.8965372,100.230646 78.1365709,99.9644493 78.4578326,99.7508832 C78.1301821,99.6352777 77.9296978,99.5643932 77.6878388,99.478906 C78.1794666,98.1348394 78.942159,97.112643 80.4310367,96.3736802 C80.2606706,97.100474 80.1401975,97.6155271 80.0197243,98.1308845 C80.0711384,98.1606985 80.1228567,98.1908168 80.1742707,98.2206309" id="Fill-13" fill="#FEFEFE"></path>
                    <path d="M96.8601057,23.5012687 C96.8053452,23.4781476 96.7508889,23.4550265 96.6961284,23.4319053 C96.6161172,23.5542038 96.5163314,23.667984 96.4588328,23.7997135 C95.2023831,26.6740324 93.8777869,29.5209711 92.718385,32.4339266 C91.5568535,35.3526624 91.1595355,38.4591051 90.942623,41.5716322 C90.6977218,45.0839112 91.7646392,47.1036618 96.09285,47.9278076 C96.4886469,48.0029512 96.9039142,48.0653174 97.3006237,48.029723 C99.0623914,47.871526 100.846367,47.80125 102.570107,47.445915 C103.623943,47.2286983 104.591074,46.5682256 105.579198,46.0711217 C105.796719,45.9619049 105.938183,45.7017924 106.114938,45.5110433 C106.08482,45.4465476 106.054701,45.3823561 106.024583,45.3181646 C105.230556,45.4158208 104.429835,45.4754489 103.644022,45.618739 C101.678727,45.9768119 99.8047007,45.8271332 97.9160711,45.0756971 C96.2492217,44.4121822 95.4527603,43.2095803 95.3520618,41.5652435 C95.2364563,39.6763097 95.3557125,37.7745985 95.3201182,35.8795803 C95.2674873,33.0606303 95.3572337,30.2660184 96.0782472,27.5127811 C96.4229343,26.1976159 96.6045566,24.8398592 96.8601057,23.5012687" id="Fill-15" fill="#FEFEFE"></path>
                    <path d="M115.882572,23.0852104 C115.943113,23.0039823 116.003654,22.9230584 116.06389,22.8418303 C115.919079,22.5689404 115.807429,22.271104 115.623677,22.0274197 C114.084906,19.9875903 112.056941,18.6757715 109.581766,18.0752312 C107.777711,17.6374512 106.315301,18.3852366 105.001961,19.526385 C104.828248,19.6775849 104.750975,19.9395227 104.526153,20.3274097 C106.080743,20.5394546 107.489914,20.810215 108.910949,20.9054374 C110.7795,21.0307782 112.569256,21.3642089 114.233064,22.2555885 C114.775193,22.5464277 115.332229,22.8095824 115.882572,23.0852104" id="Fill-17" fill="#FEFEFE"></path>
                    <path d="M87.947618,22.9573446 C88.1700065,22.795801 88.3926993,22.2244663 88.2971726,22.1125114 C88.0002489,21.7638694 87.5302211,21.2917121 87.1642383,21.3215261 C85.8986618,21.4252669 84.6370402,21.7687371 83.704286,22.6932772 C82.6683995,23.7197327 81.644682,24.7872587 80.8010657,25.968869 C80.2902717,26.6847107 80.1308578,27.6515382 79.813551,28.5054981 C79.9154664,28.5690811 80.0173818,28.6323599 80.1196014,28.6956388 C80.509618,28.3342193 80.9218431,27.9934872 81.2853921,27.6071213 C82.3151941,26.5122151 83.4459989,25.6089707 84.8515189,24.9795289 C85.9640702,24.480904 86.9494553,23.6829215 87.947618,22.9573446" id="Fill-19" fill="#FEFEFE"></path>
                    <path d="M107.959181,24.1893042 C107.775429,24.8652924 108.045581,25.3663512 108.53873,25.7962213 C109.224453,26.3940236 109.988667,26.4819447 110.796993,26.1129196 C111.402705,25.836379 111.921713,25.3946441 111.849004,24.6818447 C111.773251,23.9413607 111.07901,23.8668256 110.519844,23.7001102 C110.475731,23.7518285 110.431619,23.8032425 110.387506,23.8549608 C110.580689,24.0384085 110.807945,24.1990394 110.954277,24.4144308 C111.040982,24.5415969 111.070187,24.8716811 111.00417,24.9118389 C110.622672,25.1439626 110.216227,25.4171568 109.772971,24.9924585 C109.297467,24.5364251 108.798842,24.0977324 109.400296,23.2772373 C108.691755,23.4393893 108.140499,23.522747 107.959181,24.1893042" id="Fill-21" fill="#FEFEFE"></path>
                    <path d="M84.9748822,30.5330064 C85.9663519,30.9300201 87.801742,30.3504713 88.2711614,29.4186298 C88.4168852,29.1290074 88.4369641,28.6206473 88.272074,28.3745292 C88.1129643,28.1372336 87.6414154,28.1089406 87.3073762,27.9887717 C87.3244128,28.0766928 87.3414494,28.1643096 87.358486,28.2522307 C87.3843451,28.5573684 87.5315901,28.9279146 87.4099001,29.1536497 C87.1710833,29.595993 86.1616644,29.6629225 85.6523916,29.3562636 C85.7199295,29.1363088 85.7877717,28.9163541 85.8553097,28.6963993 L85.667907,28.5187319 C85.3150059,28.7928387 84.8963921,29.0140103 84.6244149,29.3529171 C84.201542,29.8801393 84.3582179,30.2859756 84.9748822,30.5330064" id="Fill-23" fill="#FEFEFE"></path>
                    <g id="Group-27" transform="translate(0.000000, 0.001521)">
                        <mask id="mask-2" fill="white">
                            <use xlink:href="#path-1"></use>
                        </mask>
                        <g id="Clip-26"></g>
                        <path d="M70.0070368,231.31626 C67.8604244,231.402964 65.713812,231.496362 63.5671995,231.587325 C63.5662869,231.560249 63.5653742,231.532869 63.5644615,231.505488 C62.5018032,231.505488 61.4391448,231.508835 60.3764865,231.504576 C59.6347857,231.501533 58.9323299,231.367066 58.5949442,230.605895 C58.2423473,229.810042 58.4251866,229.085378 58.9937833,228.431294 C60.3989992,226.814033 62.2864118,225.9692 64.1762582,225.103071 C64.9711985,224.738609 65.6118966,224.830485 66.1397271,225.464186 C67.5771908,227.190359 68.9906207,228.936916 70.3927943,230.69199 C70.7636447,231.156238 70.4636787,231.297703 70.0070368,231.31626 M41.0323324,97.5676421 C41.9556556,95.3720494 42.913052,93.1910596 43.833333,90.99425 C44.2343017,90.0368535 44.7809943,89.3508259 45.9382666,89.342916 C46.9221307,89.3362231 47.9069074,89.1734626 48.888946,89.1944542 C50.0307029,89.2190964 50.3723477,89.8220706 49.8950185,90.8676923 C49.7304327,91.2281991 49.4970921,91.5893143 49.2083824,91.8561197 C46.4715733,94.3845347 43.717119,96.8934792 40.9638817,99.4036407 C40.8212001,99.533849 40.6432284,99.6248124 40.4816849,99.7343334 C40.4174934,99.6908292 40.3533019,99.647325 40.2891104,99.6038208 C40.5349243,98.9244861 40.7524453,98.2329824 41.0323324,97.5676421 M47.5351443,84.2888242 C48.2528113,83.0962617 48.9862981,81.9134344 49.6994018,80.7184382 C49.9975424,80.2189005 50.2235816,79.6719038 50.5594462,79.2012675 C50.6811362,79.0309014 51.1517725,78.8745297 51.2515583,78.9597128 C52.2433322,79.8048501 53.3975623,80.5772777 53.2776976,81.5745276 C53.0988132,84.0113708 52.7246163,85.812992 51.9661831,87.5203034 C51.6075017,88.3283253 51.1995358,88.3733506 50.6327644,87.6775877 C50.3142407,87.2863542 50.0471311,86.8525292 49.763289,86.433307 C49.3063429,85.7591441 48.7353124,85.2285755 47.8989975,85.1169249 C47.265905,85.0326546 47.2750318,84.7208238 47.5351443,84.2888242 M170.32314,159.734828 C171.018903,160.189645 171.509922,160.143402 172.214203,159.526738 C172.765155,159.044237 172.883499,158.341477 172.542158,157.667923 C171.213911,155.046415 169.874408,152.430079 168.572629,149.794881 C168.16162,148.963129 167.605497,148.096392 167.544956,147.216269 C167.28819,143.476734 167.205745,139.725638 167.033858,135.979714 C166.897869,133.019908 166.879616,130.043065 166.530061,127.106988 C166.032653,122.933628 165.358794,118.776392 164.610705,114.639235 C164.007731,111.304015 163.213399,108.001955 162.442797,104.699592 C162.116363,103.301373 162.04487,103.317801 163.209748,102.446196 C163.351517,102.339717 163.480509,102.205858 163.637793,102.131627 C164.39653,101.774467 164.373714,101.292879 164.024159,100.60533 C162.980058,98.5524188 162.024791,96.4541782 160.987079,94.3976164 C157.991983,88.4618801 154.71122,82.7144592 150.531471,77.4948688 C145.795902,71.581341 141.199365,65.5570752 136.10329,59.9404711 C135.134942,58.8732493 134.201883,57.7734755 133.252397,56.688913 C133.201591,56.7278538 133.150481,56.7670989 133.099676,56.8060397 C133.305636,57.1482929 133.499123,57.4987603 133.719382,57.8315825 C137.869013,64.1083552 142.031421,70.3769137 146.170099,76.6606835 C148.050819,79.5161405 150.068744,82.3019299 151.702433,85.2948966 C154.625428,90.6504756 157.301696,96.1402178 160.091441,101.568811 C160.33695,102.046749 160.24112,102.392957 159.823114,102.676495 C158.022101,103.897958 156.270677,105.203693 154.403344,106.314114 C151.316371,108.149809 147.94434,109.493571 145.066979,111.695857 C144.64441,112.019552 144.449706,111.745445 144.210281,111.449738 C143.112941,110.091678 142.118125,108.625617 140.875974,107.414496 C137.665486,104.284933 134.341218,101.271887 131.069277,98.2046895 C130.70299,97.8615236 130.256388,97.5274844 130.059554,97.0930509 C129.05987,94.887723 128.331555,92.5810882 128.18066,90.1567182 C127.993865,87.1494529 127.958575,84.1330609 127.824108,81.1221449 C127.76235,79.7427882 127.619669,78.3673865 127.513798,76.9901593 C127.445043,76.9913762 127.375984,76.9919847 127.307229,76.9932016 C127.244255,80.1586639 126.239703,83.2282954 126.438667,86.421138 C126.482779,87.1287656 126.499512,87.8382186 126.524154,88.5473674 C126.611162,91.0432302 126.998137,93.4815945 127.962226,95.8013111 C128.092739,96.1155756 128.295961,96.4286233 128.542688,96.6604428 C130.12983,98.152667 131.862088,99.5101195 133.315371,101.120687 C136.98889,105.192132 140.147963,109.666067 143.144581,114.253477 C143.833955,115.30853 144.047216,115.362986 145.171328,114.763967 C145.282979,114.704339 145.40619,114.660226 145.505672,114.584778 C146.002776,114.20906 146.293006,114.357522 146.549164,114.899043 C147.708566,117.347447 148.923337,119.770295 150.049882,122.233606 C150.286569,122.750789 150.382705,123.423431 150.291133,123.983509 C149.944925,126.107305 149.533004,128.222582 149.074537,130.32569 C148.43323,133.269068 147.806222,136.220052 147.02771,139.128748 C146.275665,141.938876 145.316444,144.693026 144.489864,147.483987 C143.600006,150.488514 142.93862,153.574269 141.854666,156.505174 C140.122104,161.189328 138.482939,165.920942 135.971561,170.29144 C134.474469,172.897128 134.099968,175.891311 133.534718,178.804267 C132.059834,186.401377 131.132252,194.067241 130.585559,201.782086 C130.456568,203.600439 130.358607,205.420922 130.272207,207.24171 C130.242393,207.86598 130.026698,208.203365 129.350709,208.277901 C128.422214,208.380729 127.510452,208.635061 126.581652,208.734238 C123.061159,209.110869 119.702818,208.677652 116.728409,206.571198 C116.444872,206.370409 116.178066,206.032111 116.077672,205.704156 C115.127273,202.607449 114.294608,199.472713 113.272108,196.400648 C111.889709,192.248583 110.555986,188.063663 108.855976,184.038764 C107.205859,180.132818 105.035821,176.449564 103.257625,172.593207 C102.32548,170.572239 100.916309,169.149074 99.024637,168.1357 C98.3437812,167.770935 97.5899114,167.517211 96.8430387,167.305774 C95.4308257,166.906023 93.9808888,166.633741 92.5805406,166.198699 C90.5732633,165.575038 88.5982338,164.84794 86.605255,164.177732 C86.2441398,164.056042 85.8626415,163.994284 85.4908784,163.904842 C85.4634982,163.966295 85.4364221,164.028053 85.4093461,164.089506 C85.6843656,164.333191 85.9478246,164.592086 86.2368384,164.81843 C87.8337161,166.068491 89.4470219,167.297864 91.028384,168.566787 C91.3237866,168.803779 91.6496117,169.167632 91.7010258,169.511711 C91.8461412,170.484927 91.8975552,171.477918 91.9112453,172.463911 C91.9629636,176.159942 91.8701749,179.862058 92.0457128,183.5517 C92.2991324,188.875639 93.2251936,194.122002 94.2899815,199.33855 C94.7101164,201.396633 95.2020484,203.440417 95.6973269,205.482072 C95.8631296,206.166578 95.7739917,206.584584 94.9994345,206.752516 C94.3094519,206.90189 93.6477623,207.177518 92.9656896,207.368572 C89.8492075,208.241698 86.7004775,208.533754 83.496987,207.894577 C82.8909706,207.7738 82.5621032,207.468662 82.3120302,206.881812 C80.446826,202.505837 78.6138696,198.113435 76.6214993,193.795264 C74.385749,188.948653 71.4852667,184.489017 68.3331902,180.185145 C65.4734741,176.28072 62.8531832,172.188892 59.8267517,168.421064 C56.4182135,164.177427 52.676853,160.200597 49.0739149,156.113028 C46.3240241,152.992895 43.6167247,149.836255 41.4743715,146.253092 C38.9146213,141.971123 37.1604593,137.379454 36.2833783,132.456179 C35.6146915,128.702953 35.2003369,124.922956 35.3010354,121.114362 C35.4108606,116.973554 36.1260939,112.901501 37.1108706,108.8836 C37.3244366,108.012299 37.5766393,107.026001 38.142498,106.386216 C41.0469352,103.103322 44.0079582,99.8657586 47.0581193,96.7185498 C48.4055323,95.328241 49.9525171,94.1073856 51.521406,92.9641076 C52.5086165,92.2449194 54.0002322,92.6315896 54.5822149,93.6966817 C55.4090988,95.2105059 56.1806137,96.8387187 55.8426196,98.6132638 C55.3798932,101.044631 54.716074,103.437666 54.1420012,105.848346 C54.0291336,106.322633 53.9333027,106.801179 53.8298662,107.277595 C53.8937535,107.318361 53.9576407,107.359432 54.021528,107.400502 C54.268863,107.25995 54.5387107,107.148604 54.7598824,106.975195 C56.6768048,105.472628 58.2219642,103.630544 59.5234393,101.590107 C60.8976241,99.4349759 60.7047454,97.5950224 59.021772,95.6978745 C58.1310009,94.6933232 57.2545283,93.6747775 56.4039149,92.6364572 C56.2542361,92.4536179 56.2636671,92.1408744 56.1997799,91.8880634 C56.4605008,91.8272184 56.7321738,91.6891001 56.9795088,91.7237818 C57.3479254,91.7755001 57.7260773,91.9011451 58.052815,92.0806379 C59.0506734,92.6291558 60.0235854,93.2230032 61.0104916,93.7915999 C62.6021975,94.7082302 63.7685966,95.9881053 64.4552327,97.7072814 C64.8117845,98.6001822 65.215187,99.4754378 65.6286289,100.344001 C65.7144204,100.524406 65.9371132,100.640012 66.0968314,100.785735 C66.2136538,100.612936 66.4040988,100.452913 66.4357382,100.265815 C66.8665209,97.7237096 66.9404476,95.1864721 66.4479072,92.6331107 C66.1561553,91.1208076 65.2897222,90.3380364 63.8145346,90.1229492 C62.3113582,89.9036029 60.8090946,89.6784763 59.3092648,89.4393554 C59.0375918,89.3961554 58.778392,89.2720316 58.355519,89.1333049 C58.6807357,88.8409446 58.8349778,88.5993898 59.0461101,88.5291138 C60.5526328,88.0280551 62.0576345,87.5126977 63.5909291,87.1071656 C64.2967314,86.9203714 64.967852,87.2084726 65.5452713,87.7177455 C66.5330902,88.588742 67.5555908,89.4214061 68.5826548,90.2464646 C68.7353758,90.3690674 68.9921418,90.3626786 69.2008403,90.415918 C69.2455614,90.1859238 69.399195,89.9039072 69.3182712,89.7332369 C68.5078155,88.0247086 67.7317372,86.292755 66.7959407,84.6532858 C66.1375976,83.5005769 64.9578125,83.2106503 63.7348276,83.6365655 C61.9937472,84.2428862 60.2940415,84.9684631 58.5751696,85.6398879 C58.3330064,85.7345019 58.0835418,85.8111666 57.8374237,85.8960455 C57.7957448,85.8449356 57.7537618,85.7938258 57.7117787,85.7430202 C58.0884094,85.1260517 58.4860316,84.5209479 58.8383243,83.8902892 C60.2207232,81.4166348 61.5982546,78.9399381 62.9493183,76.4492471 C63.1050816,76.1620586 63.0822647,75.7781265 63.142197,75.4392197 C63.0576225,75.3932817 62.9730479,75.3473437 62.8884733,75.3011015 C62.5456116,75.5706449 62.1419049,75.7899913 61.8696234,76.1182502 C59.9934671,78.3795555 58.1456037,80.6639819 56.286484,82.9392815 C56.0257631,83.2584137 55.7525689,83.5668979 55.4669015,83.9015456 C55.3744171,83.7631231 55.3223946,83.7214443 55.3254369,83.6840246 C55.3439946,83.4579854 55.3643777,83.2310334 55.4042312,83.0077322 C55.7029802,81.3338856 56.0069011,79.6652108 55.6713408,77.9530318 C55.4875889,77.0160185 55.0616737,76.3601091 54.0549928,76.1933938 C53.6010889,76.1185544 53.1553991,75.9962559 52.6567741,75.884301 C52.7936754,75.5965041 52.875512,75.4133606 52.9664753,75.2344762 C56.0613574,69.1341541 60.0734783,63.6617527 64.6182973,58.5891031 C67.761247,55.0810832 71.0985966,51.7479929 74.3437659,48.3315448 C74.4955742,48.1718266 74.6994051,47.9302718 74.8019289,47.8070607 C76.3626038,50.4258305 78.4152106,52.7610625 80.9798284,54.7951116 C81.5307801,55.2322831 82.3254161,55.8200461 82.3254161,55.8200461 C82.3254161,55.8200461 82.6868355,56.0546036 82.9299114,56.2201021 C85.0944731,60.4716481 87.5045445,64.5455267 91.1665022,67.7386735 C91.4777245,68.0100423 91.4622091,68.2181323 91.1470318,68.4685096 C90.6913026,68.8311459 90.2474382,69.2092977 89.8102667,69.594751 C83.7978657,74.8937441 79.1000214,81.1775139 75.5801368,88.3773055 C73.1064823,93.436265 71.3063823,98.7179173 69.9945636,104.178454 C69.793775,105.013552 69.6717808,105.867816 69.5132795,106.712953 C69.5993752,106.738508 69.6854709,106.764367 69.7718708,106.789922 C69.8920397,106.558407 70.0301579,106.334497 70.130248,106.094768 C71.8071369,102.073216 73.4155751,98.021546 75.1703455,94.0343716 C76.8965189,90.1119971 78.792754,86.2556395 81.2457211,82.7299746 C86.6934803,74.8995243 93.4049907,68.2887125 101.029785,62.5844916 C101.208973,62.4503283 101.37721,62.3021706 101.616635,62.1068581 C101.419801,62.0618328 101.366258,62.0317145 101.324883,62.0435793 C101.18068,62.0852581 101.039216,62.1381933 100.898968,62.1929538 C98.0845814,63.2887727 95.5896312,64.9370644 93.2133288,66.758156 C92.5692843,67.2513049 92.2653634,67.1621669 91.8367102,66.592049 C89.521557,63.5126824 87.1902799,60.4454848 84.8678254,57.3715942 C87.3664263,58.6459932 90.6791336,59.7415078 92.9437854,60.3073665 C99.2062594,61.203918 105.55848,60.5975973 111.476571,58.5936665 C111.367659,59.0792097 111.038487,60.2629497 110.99407,60.4597833 C110.838611,61.1515913 110.630825,61.833664 110.507006,62.5306437 C110.390487,63.183815 110.065271,63.5899556 109.475074,63.9145638 C104.990796,66.3796999 100.522642,68.8737374 96.0544872,71.3677749 C95.4229159,71.7203719 94.8181163,72.1210363 94.2008436,72.4994924 C94.5297109,72.5791994 94.7870854,72.5128783 95.0265105,72.405791 C100.156659,70.1049365 105.280418,67.7891749 110.419085,65.506878 C111.092031,65.208129 111.447366,64.7712617 111.611343,64.0754989 C111.756154,63.4606599 111.995579,62.8677251 112.193325,62.2653594 C112.271511,62.2680974 112.349393,62.2711397 112.427579,62.2741819 C112.828243,62.9991504 113.246553,63.7152963 113.623792,64.4521296 C113.890597,64.972963 114.165313,65.0207263 114.616783,64.6447041 C119.076419,60.9325492 123.915728,57.7993347 129.106721,55.2112916 C129.611735,54.9593932 129.677751,54.7354835 129.312986,54.3028754 C128.365324,53.179372 127.487939,51.9935025 126.49434,50.9131991 C126.32154,50.7254922 126.21141,50.5529966 126.146002,50.3829348 L125.841473,50.6710359 C126.233619,51.6186972 126.65345,52.5566232 126.98901,53.5237549 C127.039815,53.6703914 126.747759,54.0445883 126.532368,54.1589769 C122.688788,56.2003275 118.832126,58.2176442 114.978506,60.2398286 C114.955994,60.2516934 114.932264,60.2605159 114.909143,60.271468 C113.565077,60.8993886 113.536479,60.876876 112.908559,59.4972151 C112.848018,59.3636602 112.652705,58.5386017 112.591556,58.1960442 C115.317413,57.1823661 117.94318,55.8693305 120.414401,54.2642388 C120.415009,54.2672811 120.415618,54.2700191 120.41653,54.2730613 L122.011887,53.1011862 L122.014017,53.1045327 C122.062693,53.0585947 122.119278,53.0120482 122.190467,52.9627638 C124.961958,51.0552723 127.25977,48.6768403 128.943656,45.7678397 C129.673188,44.5077393 130.151734,43.1006981 130.71881,41.7496344 C130.812815,41.5257247 131.131643,39.7864697 131.16815,39.5467403 C131.802764,35.3593857 131.755001,31.1647298 131.048286,26.9950204 C130.71881,25.0507176 130.99961,23.2658289 131.659474,21.4210077 C132.556634,18.9126716 132.374099,16.4295862 130.700556,14.210264 C130.151734,13.4825575 129.409729,13.0943663 128.505876,13.3559999 C127.056244,13.7761348 125.945822,14.7441791 124.900504,15.7864543 C124.887119,15.7998402 124.92758,15.8667698 125.003028,16.0730344 C125.782149,15.7876712 126.543624,15.4347701 127.344041,15.2449336 C127.785775,15.139976 128.448682,15.1287196 128.744085,15.3842687 C130.263689,16.7003466 130.84841,18.2613257 129.494608,19.8156118 C128.549076,20.9013912 128.515612,21.9111144 128.646124,23.1806458 C129.098203,27.5785241 129.098811,31.9943517 128.6084,36.3837117 C128.325775,38.9142563 127.913246,41.4630543 127.216266,43.9056778 C126.417979,46.702115 124.606015,48.9433415 122.550061,51.00903 C120.003393,53.5678675 117.182313,55.7357757 113.943228,57.2921914 C109.406319,59.4722686 104.576441,60.36882 99.5472958,60.1001892 C95.5242228,59.8854063 91.7442257,58.7266128 88.1622792,56.9383776 C84.4297412,55.075303 81.4042224,52.3123304 78.6947935,49.1891554 C76.796733,47.0011683 75.3647454,44.5661505 74.6632023,41.7064344 C74.07909,39.3231348 73.3872821,36.9620437 72.6367588,34.6255948 C71.9784156,32.5760301 70.7879827,31.0421271 68.5011225,30.4841782 C66.8117604,30.0722574 65.920685,27.8994816 66.5251804,26.1949083 C66.9939913,24.8739628 69.1996234,23.8712368 70.6276561,24.4358787 C71.3894358,24.7370615 71.5710582,24.5031124 71.7371651,23.8149552 C72.7827868,19.4757923 75.3589651,16.0626907 78.6214753,13.2084507 C82.910441,9.45552963 87.7445781,6.55748115 93.2562246,4.90918946 C97.5071621,3.63752847 101.818641,2.86601357 106.279493,3.35246953 C110.407828,3.80241848 114.132456,5.17356109 117.354809,7.89820125 C119.62737,9.81999132 121.749645,11.8713813 123.701249,14.1101739 C123.875266,14.3100498 124.118646,14.4490807 124.329778,14.6164045 C124.395187,14.5637736 124.460595,14.5114469 124.526003,14.4591201 C124.43717,14.2163485 124.370849,13.9620163 124.255547,13.7323263 C122.974455,11.1795734 121.318254,8.91370469 119.358131,6.81911475 C115.836117,3.05493737 111.572098,0.830139079 106.459595,0.411829542 C101.574956,0.0123819623 96.790712,0.703885656 92.2534986,2.59373209 C86.4005115,5.03148796 81.2186451,8.53494442 76.9877864,13.2580394 C74.6321713,15.8877613 72.6510573,18.8551731 70.5333463,21.6942019 C70.1892677,22.1554072 69.9029918,22.4544605 69.2629022,22.4191704 C68.2005481,22.3604549 67.1905207,22.6394293 66.3818903,23.3732203 C63.9532612,25.5773313 64.5410241,30.7318175 67.4624979,32.4303063 C69.8068567,33.7929306 71.0590473,35.7652221 71.4807033,38.4317552 C72.0225282,41.8591554 73.1201725,44.9735079 74.7766782,47.7659903 C74.5755854,47.8523902 74.058707,48.0918154 73.5819862,48.4568855 C73.5016708,48.518339 73.425006,48.5852685 73.3446906,48.6470262 C68.3325818,52.5201162 64.12454,57.1735436 60.3533654,62.2233763 C55.7413126,68.398842 51.5302285,74.8505441 47.4231894,81.3716095 C43.840026,87.0606192 40.5489187,92.9063048 37.6858561,98.9914157 C37.4430844,99.5076857 37.1498114,100.000226 36.880268,100.503414 C36.7780483,100.561521 36.6755245,100.619324 36.5733048,100.677127 C36.4537443,100.450784 36.3341839,100.22444 36.2143192,99.9980966 C35.7680209,99.155393 35.2754805,98.3333767 34.8830301,97.4660309 C33.0357751,93.384851 31.1346724,89.3274006 30.0379408,84.9483842 C29.5149779,82.8598788 29.8067297,81.1808603 31.5955734,79.7646924 C36.164122,76.1471515 40.5969862,72.3555939 45.2151235,68.8040699 C49.7124834,65.3456387 54.372908,62.0989483 58.9587974,58.7558184 C59.1163861,58.6411256 59.2453775,58.4874919 59.3877549,58.3518075 C58.9901326,58.3813173 58.6910793,58.5124384 58.4145387,58.6806748 C49.8871087,63.8698427 41.3289519,69.0106387 32.8541527,74.2849896 C30.0650169,76.0212023 27.486709,78.0972346 24.8229139,80.0333232 C23.9400526,80.674934 23.6857204,81.5757445 23.9966384,82.5982452 C24.3194213,83.6602951 24.7395562,84.6931393 25.0574714,85.7564061 C25.163646,86.1108284 25.2132347,86.5781182 25.0705531,86.895425 C23.9178441,89.4594343 22.7246732,92.0054943 21.5217671,94.5463825 C19.3115716,99.2159338 16.9663002,103.825553 15.2379973,108.708366 C14.0305278,112.120555 13.0329736,115.623403 11.5912508,118.933372 C9.51917352,123.689628 7.05464584,128.273387 4.89860243,132.994961 C3.35435573,136.37764 1.96283004,139.836376 0.665614136,143.321579 C0.192239852,144.593544 0.0681160039,146.034658 0.00422872914,147.408539 C-0.0566162945,148.716099 0.532363534,149.326374 1.795202,149.504346 C2.58557886,149.615996 3.40424865,149.525337 4.33183103,149.525337 C4.50310977,150.560615 5.42612878,150.764142 6.48969979,150.644886 C7.35004843,150.548142 8.2447745,149.491568 8.53743906,148.328516 C8.16232949,148.675028 7.81581708,149.049225 7.4163695,149.353146 C6.69261795,149.903793 6.06743533,149.776019 5.69080463,148.954003 C5.41395978,148.350116 5.26945285,147.685992 5.03732908,146.95859 C4.64335755,147.41797 4.33335216,147.929677 3.88644546,148.252155 C3.5429753,148.500099 2.98259263,148.67442 2.60322391,148.570983 C2.33002976,148.496448 2.04040744,147.914465 2.03249759,147.553046 C2.01637366,146.802523 2.13897638,146.039526 2.28165796,145.296608 C2.97924616,141.65838 4.44621968,138.275397 5.94087768,134.927399 C8.41818282,129.378029 11.0652456,123.904411 13.6252999,118.391547 C17.8330375,109.330506 22.4323129,100.478164 27.66103,91.9598605 C27.811013,91.715872 27.9947649,91.4928749 28.225976,91.1719174 C28.4930857,91.5056524 28.6835306,91.7329086 28.8627192,91.968683 C30.6135348,94.2753179 32.4854319,96.4718232 34.7391316,98.3096472 C35.1650467,98.656768 35.1355369,98.9466946 34.911323,99.4103336 C31.8389535,105.756165 27.7942806,111.495981 23.8092358,117.271999 C21.2896433,120.923917 18.8153805,124.60139 16.8896355,128.613815 C16.5324752,129.357646 16.2139515,130.120034 15.8774785,130.873904 C15.9453207,130.904326 16.0131629,130.934749 16.0807009,130.965476 C16.216081,130.733048 16.3681936,130.508834 16.4837991,130.266975 C19.3781969,124.203464 23.433822,118.90873 27.5937962,113.701917 C30.2676308,110.356049 33.0862765,107.129133 35.2785227,103.426409 C35.3564043,103.295288 35.4863085,103.195503 35.6463309,103.022094 C35.6609337,103.198241 35.6880097,103.276731 35.6688435,103.341835 C35.6119534,103.535018 35.5459366,103.72668 35.4677507,103.912257 C33.2748961,109.112073 31.5703227,114.451832 30.6396981,120.036188 C29.5420539,126.621141 30.3771518,132.949328 32.8888344,139.102585 C34.3235601,142.617602 36.2523473,145.858208 38.2772697,149.047095 C41.899374,154.751012 45.8488244,160.200597 50.7136883,164.934948 C51.5107581,165.710418 52.3945321,166.455769 52.982295,167.37818 C56.9058864,173.532654 61.6883052,179.033044 66.2376876,184.69802 C71.7943594,191.61762 77.0300737,198.703936 80.5307921,206.920144 C81.8094503,209.92102 83.4829927,212.759137 84.2913188,215.956847 C84.3582483,216.221523 84.5042764,216.466424 84.6134932,216.720148 C84.7817297,216.416531 84.7747325,216.168587 84.7826424,215.920948 C84.8495719,213.865603 84.2867554,211.909436 83.8520177,209.931668 C83.6411897,208.972447 83.6719165,208.985224 84.6107552,209.071015 C87.2334799,209.310136 89.8574216,209.538305 92.4841012,209.727229 C93.0237966,209.76617 93.241926,209.910981 93.2638302,210.471668 C93.3350189,212.293064 93.4414977,214.113243 93.5592328,215.932509 C93.5930018,216.452429 93.4402808,216.763348 92.8966305,216.830886 C90.335055,217.149105 87.7722626,217.457589 85.2140336,217.79893 C84.3871497,217.909059 83.5721306,218.108935 82.7516355,218.267741 C82.9515114,218.535763 83.1453028,218.655932 83.3533928,218.691831 C85.0753069,218.989363 86.7923535,219.328574 88.5249155,219.542748 C90.6794378,219.808945 92.7530362,219.27503 94.7977332,218.668709 C95.3343864,218.5096 95.5698566,218.683617 95.8035015,219.143301 C97.111061,221.714611 98.4341361,224.278012 99.7788111,226.830157 C100.123802,227.485153 99.966518,227.93419 99.3857523,228.302606 C99.1937862,228.424601 98.9954314,228.537468 98.7940344,228.643643 C95.5424763,230.353388 92.0590987,231.114863 88.4059635,231.113951 C83.5167616,231.112734 78.6275598,231.066796 73.7383579,231.057669 C73.2044428,231.056452 72.9044769,230.929286 72.7891755,230.347912 C72.2631703,227.692331 70.9656502,225.538113 68.6115562,224.093043 C68.4783056,224.011511 68.3949479,223.848446 68.2866438,223.721584 C68.3791282,223.621799 68.4192859,223.539962 68.4813479,223.516537 C70.6614251,222.692087 72.8402854,221.864594 75.030402,221.068437 C75.2287568,220.996336 75.5634044,221.052313 75.7307282,221.182522 C76.7246317,221.954645 77.842659,222.687219 77.2965749,224.254283 C77.264327,224.346767 77.2667608,224.456288 77.2734538,224.556378 C77.3072228,225.079645 77.3479889,225.602304 77.3863213,226.124963 C77.5040564,226.138349 77.6220958,226.152039 77.7401351,226.165425 C77.9762138,225.378394 78.2119883,224.59106 78.5067824,223.607804 C79.2652156,224.574327 79.902263,225.386304 80.5390062,226.197977 C80.611716,226.168771 80.6841216,226.139261 80.7568314,226.110056 C80.77113,225.877932 80.822544,225.640941 80.7930342,225.414597 C80.6363582,224.209866 80.0945333,223.226002 79.1748608,222.407332 C78.8347371,222.104324 78.6680217,221.599918 78.4447205,221.175524 C78.3592332,221.013372 78.3370248,220.817756 78.2749629,220.599018 C77.5429972,221.360189 77.0717525,221.354105 76.4316629,220.601756 C76.7559668,220.402488 77.075099,220.206263 77.3939269,220.010038 C77.3765861,219.94828 77.3592453,219.886523 77.3416002,219.824461 C77.1012624,219.824461 76.8557527,219.792821 76.6214993,219.829937 C75.1730836,220.05841 73.7012424,220.200483 72.285683,220.561902 C68.7308125,221.470014 65.2005842,222.473349 61.6633587,223.45052 C59.7297039,223.984739 58.0415587,224.911409 56.9506074,226.667396 C55.2934932,229.333625 55.3047496,233.091414 59.7138842,234.302838 C62.0521584,234.945362 64.4436721,235.000426 66.8056759,234.771649 C70.028941,234.459818 73.2172203,233.798737 76.4383558,233.456484 C81.9284023,232.873284 87.4330516,232.425769 92.9303995,231.912846 C95.2686737,231.694716 97.619117,231.608621 99.743521,230.346999 C102.253682,228.856296 102.873085,225.903487 101.048038,223.598373 C99.4980113,221.640989 98.5001529,219.416191 97.8518492,217.02346 C97.6757029,216.373331 97.5491452,215.71012 97.3726946,214.933129 C96.3605377,215.408025 95.4548595,215.832723 94.406804,216.324655 C94.406804,215.975709 94.3727308,215.751495 94.41228,215.540971 C94.6605277,214.223981 94.9115134,212.907294 95.1880541,211.596084 C95.6468256,209.421483 95.6571692,209.43061 97.8384633,208.862925 C98.8074203,208.610723 99.7666421,208.322317 100.803441,208.029957 C100.666844,207.711129 100.592005,207.501518 100.490394,207.305901 C98.7952513,204.034569 97.5342382,200.597129 96.5890107,197.041954 C95.8838169,194.390937 95.5385214,191.685767 95.3334737,188.950479 C94.9714458,184.122426 94.6294968,179.295895 94.9425444,174.452935 C94.9988261,173.578896 95.1220372,172.673218 95.421699,171.858199 C95.9081549,170.53482 97.7228578,170.381795 98.5302712,171.540892 C99.7167492,173.244249 100.931216,174.930873 102.046505,176.680471 C103.914752,179.610463 105.450176,182.70352 106.45351,186.050605 C107.789363,190.508111 109.099052,194.975962 110.554161,199.394831 C111.628684,202.659167 112.926812,205.849271 114.103251,209.080446 C114.311645,209.652998 114.587273,209.938665 115.245008,210.077392 C116.784387,210.401696 116.46708,209.993426 116.879913,211.673357 C117.11082,212.611892 117.51909,213.506922 117.847045,214.421727 C117.919755,214.408949 117.99216,214.395868 118.06487,214.38309 C118.083124,214.094989 118.090729,213.805975 118.121456,213.519395 C118.199034,212.794427 118.287563,212.070675 118.370617,211.346315 C118.434808,210.787454 118.694312,210.621347 119.289985,210.676107 C121.759684,210.903059 124.234251,211.082856 126.709731,211.238011 C127.710632,211.300681 127.844491,211.410507 128.030981,212.397109 C128.189178,213.233119 128.455679,214.048747 128.674417,214.873197 C129.055307,214.133626 129.235104,213.428128 129.449887,212.733582 C129.907441,211.254135 129.915047,211.256264 131.459598,211.155262 C132.617175,211.079814 132.577321,211.076467 132.666459,209.968784 C132.978594,206.081395 133.27065,202.190964 133.662796,198.311181 C134.285241,192.14971 135.444947,186.083766 137.189982,180.138903 C137.931075,177.61353 138.654218,175.071729 139.59549,172.618153 C141.127872,168.625503 143.087386,164.780706 144.385515,160.719909 C145.461863,157.352745 146.671158,154.068635 148.098887,150.848412 C148.734717,149.414295 149.572249,148.01273 149.891381,146.505903 C151.02036,141.180138 151.964371,135.815432 152.97957,130.465634 C153.030984,130.194569 153.093959,129.925634 153.151457,129.655786 C153.466939,129.956361 153.622094,130.245679 153.701192,130.554163 C154.574318,133.963006 155.479996,137.364242 156.286497,140.788905 C156.915939,143.461218 156.856311,146.146917 156.311444,148.853912 C155.560008,152.586146 154.232369,156.096904 152.622106,159.526738 C152.175503,160.47805 151.901701,161.516675 151.612991,162.533699 C151.456011,163.087085 151.756281,163.605484 152.248517,163.781326 C152.642185,163.921878 153.272539,163.93709 153.567942,163.709833 C154.283175,163.158882 154.864245,162.433609 155.499467,161.778917 C155.452312,161.729936 155.405157,161.680956 155.358002,161.631976 C155.096673,161.774353 154.838081,161.922207 154.573406,162.058804 C153.744392,162.487153 153.15237,162.114173 153.227514,161.176247 C153.260978,160.753982 153.343119,160.307988 153.52322,159.929836 C154.404865,158.078322 155.336098,156.250234 156.230216,154.4045 C156.592548,153.656714 157.129201,152.904366 157.198564,152.119769 C157.41791,149.629991 157.52013,147.124393 157.538079,144.623966 C157.54964,142.982976 157.343984,141.339552 157.223815,139.698258 C156.894643,135.206069 156.145337,130.778377 154.556369,126.56273 C152.842973,122.016085 150.92027,117.547931 149.041984,113.065174 C148.761185,112.394662 148.829635,112.053625 149.434739,111.654482 C152.607199,109.562326 155.754103,107.430925 158.913481,105.318994 C159.091149,105.200346 159.303802,105.134633 159.56361,105.015073 C159.727283,105.445856 159.882134,105.78963 159.989525,106.147703 C160.870561,109.082867 161.843169,111.995214 162.590042,114.964147 C163.411145,118.226961 164.108733,121.527195 164.696496,124.840207 C165.143099,127.356453 165.387392,129.912857 165.625904,132.460134 C166.100191,137.527916 166.540405,142.599044 166.927075,147.674127 C167.073407,149.596526 167.307965,151.454733 168.501744,153.05009 C168.97238,153.678619 169.502036,154.26699 169.931298,154.921378 C170.638621,155.999552 171.307612,157.104498 171.948006,158.223438 C172.170091,158.611933 172.245843,159.119381 171.631612,159.253544 C170.966576,159.398964 170.323748,159.470761 169.786183,158.784429 C169.166172,157.993443 168.439682,157.275472 167.691288,156.601918 C167.461903,156.395349 166.955672,156.305907 166.674872,156.415732 C166.498422,156.485095 166.374906,157.060081 166.453092,157.346357 C166.831548,158.734232 167.266894,160.107504 167.722624,161.472562 C167.964483,162.197835 168.288787,162.895727 168.575671,163.605788 C168.515434,163.644425 168.455502,163.682757 168.395265,163.72109 C168.053621,163.397394 167.720798,163.063964 167.368506,162.752437 C166.460698,161.949283 165.590006,161.093802 164.617094,160.378264 C163.792948,159.771944 163.307709,160.02445 163.143427,161.010444 C163.064937,161.48321 162.988272,161.971491 163.020824,162.444865 C163.132475,164.059997 163.292802,165.671781 163.434266,167.284783 C163.47199,167.715261 163.508193,168.14574 163.545309,168.576523 C163.301016,168.501075 163.226785,168.406157 163.182368,168.299069 C162.268476,166.104389 161.365231,163.905754 160.438562,161.716855 C160.321435,161.440923 160.084139,161.215796 159.902517,160.967244 C159.653052,161.154951 159.321447,161.292461 159.169943,161.540404 C158.829819,162.097745 158.478439,162.682769 158.312941,163.30491 C158.000806,164.477089 157.820096,165.68395 157.57702,166.874992 C157.505223,167.227284 157.407567,167.574405 157.32208,167.92396 C157.238722,167.920918 157.155364,167.917875 157.072006,167.914833 C156.880953,166.257415 156.6899,164.599996 156.498846,162.942273 C156.281325,163.13424 156.182148,163.355411 156.162373,163.583884 C156.038858,164.996097 155.88279,166.40831 155.841112,167.823566 C155.817991,168.623678 155.922644,169.446302 156.108526,170.225727 C156.201314,170.614223 156.565472,171.158785 156.881562,171.215676 C157.253325,171.282605 157.886417,171.008802 158.088727,170.684803 C158.560884,169.927891 158.880016,169.065717 159.19063,168.220579 C159.429447,167.569842 159.561176,166.879859 159.740669,166.207217 C159.832849,166.199003 159.92503,166.190485 160.016906,166.181967 C160.278843,166.9836 160.524962,167.790405 160.805761,168.585345 C161.223158,169.766347 161.758594,170.89411 162.763146,171.693613 C164.104779,172.761443 165.586963,172.19163 166.01805,170.536037 C166.358782,169.226956 166.121183,167.973853 165.849205,166.706755 C165.696484,165.995477 165.558062,165.280852 165.412947,164.567748 L165.612518,164.494734 C165.814219,164.710126 165.991583,164.956548 166.221881,165.13452 C166.975751,165.718023 167.681553,166.443905 168.537034,166.789809 C169.186859,167.052355 170.137563,167.038056 170.771568,166.747825 C171.494102,166.417133 171.473415,165.47799 171.237641,164.762452 C170.73354,163.231592 170.137258,161.730849 169.578397,160.217938 C169.472526,159.931357 169.366048,159.644777 169.259873,159.358197 C169.314025,159.317127 169.368177,159.276361 169.422329,159.23529 C169.723512,159.400485 170.03656,159.54773 170.32314,159.734828" id="Fill-25" fill="#FEFEFE" mask="url(#mask-2)"></path>
                    </g>
                    <path d="M105.143851,53.6369875 C105.313609,53.3020356 105.570679,52.8298782 105.965868,52.3364251 C106.359231,51.8432762 106.884628,51.332178 107.512852,50.9007867 C107.829247,50.6878292 108.169066,50.4925166 108.525009,50.3206294 C108.703285,50.234838 108.887342,50.1581732 109.074136,50.0869846 C109.166316,50.0544325 109.26671,50.0148832 109.351589,49.9878072 L109.664333,49.8843706 C110.085684,49.7380383 110.497909,49.638861 110.897357,49.5335991 C111.306235,49.4408104 111.700815,49.3249006 112.078055,49.2095993 C112.454077,49.0873008 112.810629,48.9503995 113.149535,48.8201912 C113.488746,48.684811 113.8094,48.5570364 114.105107,48.4386929 C114.40203,48.3166986 114.675833,48.2056564 114.919517,48.0976565 C115.042424,48.0462425 115.157421,47.9978707 115.2639,47.9531496 C115.370379,47.9047778 115.469252,47.8603609 115.558998,47.8244624 C115.92346,47.6650484 116.13155,47.5743893 116.13155,47.5743893 L116.140677,47.3918542 C116.140677,47.3918542 116.082874,47.3632571 115.976699,47.324012 C115.870221,47.2829416 115.712024,47.2324403 115.509714,47.1855896 C115.104486,47.0882376 114.517027,47.0115728 113.821873,47.0295221 C113.473839,47.0362151 113.100251,47.0705925 112.710234,47.1277868 C112.320826,47.187415 111.911339,47.2643839 111.506111,47.3958092 C111.097537,47.5211499 110.692918,47.6924287 110.289515,47.8892623 C109.882158,48.0906593 109.475104,48.3014873 109.09026,48.4998421 L108.796378,48.648304 C108.678947,48.7054983 108.582508,48.7617799 108.475725,48.81867 C108.268243,48.9345798 108.065325,49.0568783 107.87123,49.1886078 C107.4803,49.4478076 107.121923,49.7410806 106.807354,50.0541282 C106.170003,50.6735306 105.708798,51.3613836 105.402443,51.979569 C105.094263,52.5983629 104.919029,53.1411005 104.83415,53.5280749 C104.747142,53.9144408 104.731626,54.1432181 104.731626,54.1432181 L104.910815,54.1785082 C104.910815,54.1785082 104.975919,53.9743731 105.143851,53.6369875" id="Fill-28" fill="#FEFEFE"></path>
                </g>
            </g>
        </g>
    </g>
</svg>