<?xml version="1.0" encoding="UTF-8"?>
<svg width="198px" height="189px" viewBox="0 0 198 189" version="1.1" xmlns="http://www.w3.org/2000/svg" xmlns:xlink="http://www.w3.org/1999/xlink">
    <!-- Generator: Sketch 45 (43475) - http://www.bohemiancoding.com/sketch -->
    <title>Page 1</title>
    <desc>Created with Sketch.</desc>
    <defs></defs>
    <g id="Page-1" stroke="none" stroke-width="1" fill="none" fill-rule="evenodd">
        <g id="Группировка_сколько_вас-Copy" transform="translate(-451.000000, -1743.000000)" fill="#FEFEFE">
            <g id="Page-1" transform="translate(451.000000, 1743.000000)">
                <path d="M50.760126,156.265761 C49.137852,156.249875 47.5094134,156.216917 45.8947268,156.338315 C45.225853,156.388582 44.5854318,156.822721 43.5959917,157.215842 C43.7555635,159.06384 43.8195819,160.732586 44.1064792,162.361736 C44.1655184,162.698426 45.0537146,163.108618 45.5608827,163.109803 C48.033653,163.115731 50.5159076,163.087278 52.973029,162.847328 C53.522876,162.793505 54.047827,161.883495 54.4587303,161.281959 C54.6443837,161.010474 54.5286764,160.528913 54.539109,160.142431 C54.6420126,156.36985 54.5870042,156.303224 50.760126,156.265761" id="Fill-1"></path>
                <path d="M36.1985459,174.090217 C35.3219679,171.756628 34.2365002,169.427069 32.8001168,167.40219 C31.6947322,165.843935 29.9927909,166.370071 29.2326316,168.177524 C27.8424837,171.481823 29.0967703,174.992165 32.2730319,177.059249 C33.2800177,177.04194 34.580777,177.400443 35.2150334,176.905367 C35.8997933,176.371169 36.4814124,174.843263 36.1985459,174.090217" id="Fill-3"></path>
                <path d="M37.1095516,167.81997 C36.9428666,167.864782 36.7759445,167.909595 36.6092596,167.954408 C37.3767692,170.695107 38.0264375,173.476115 38.9485397,176.163465 C39.7105959,178.38443 39.503603,179.909965 36.9698966,180.527861 C36.7086067,180.591642 36.4821712,180.797924 35.9897036,181.082213 C40.1049018,180.736277 40.9056062,179.749682 39.8962492,176.15896 C39.1040807,173.340728 38.0482512,170.596946 37.1095516,167.81997" id="Fill-5"></path>
                <path d="M115.786992,77.2101618 C117.878971,77.4007944 119.551037,78.5417447 121.242309,79.6400161 C121.77129,79.9833445 122.293159,80.3520431 122.861974,80.6145186 C123.125398,80.7361536 123.493623,80.6308789 123.814426,80.6285078 C123.805653,80.3143434 123.903103,79.943985 123.771273,79.6952616 C122.832573,77.9240856 121.611956,76.3594283 119.850501,75.3624008 C119.158154,74.9702288 118.27873,74.8915099 117.473521,74.7207941 C116.808678,74.5799536 116.127712,74.5138012 115.325585,74.3957228 C115.524753,74.15269 115.630976,73.9978603 115.761858,73.8674524 C117.044124,72.5913521 117.984009,71.1025684 118.564679,69.3878235 C119.394073,66.9380523 118.38282,64.1854978 116.160907,62.8536778 C116.025757,62.7725878 115.889895,62.6789312 115.741467,62.6376749 C115.601575,62.5985526 115.444375,62.6208405 115.294761,62.6163355 C115.290019,62.7818349 115.22363,62.9788693 115.290019,63.1078546 C116.003469,64.4961056 116.070807,65.9934251 116.033581,67.500703 C115.991613,69.1986135 115.007864,70.3922012 113.813565,71.4549068 C113.756185,71.5058844 113.679838,71.5405018 113.606572,71.5672947 C113.554409,71.5865002 113.492999,71.5800983 113.343859,71.592902 C113.393652,71.3610131 113.446052,71.1651642 113.476875,70.9657587 C113.608943,70.1105202 113.836801,69.2548074 113.840832,68.3983834 C113.849131,66.7130395 112.825073,65.668591 111.382762,65.0127579 C110.06256,64.4126446 108.690669,63.9735257 107.202123,64.1357057 C107.065076,64.1506433 106.907164,64.1304894 106.795725,64.1928481 C106.620504,64.2902983 106.476581,64.4439425 106.319617,64.5738762 C106.451922,64.7033356 106.561939,64.8828243 106.720562,64.9539558 C107.512968,65.3086652 108.328847,65.6116857 109.11651,65.9754051 C111.40339,67.0312347 111.626506,69.316929 110.902387,71.2080803 C110.739259,71.6341583 110.516617,71.5784386 110.254616,71.2889331 C109.672759,70.6454296 109.116748,69.9744218 108.491738,69.375494 C107.587656,68.5084002 106.519497,68.1268979 105.235809,68.3713534 C104.444589,68.5221523 103.625391,68.5209668 102.825398,68.6357257 C102.613663,68.6660752 102.427061,68.8723567 102.229078,68.9980225 C102.420896,69.1149154 102.599199,69.285394 102.807378,69.3387427 C103.456572,69.5056648 104.115487,69.6367839 104.773691,69.7657692 C105.615178,69.9310315 106.359688,70.2489896 106.846228,71.0034584 C107.277285,71.6718581 107.707157,72.3412061 108.13774,73.0100799 C108.076804,73.068882 108.015868,73.127447 107.954932,73.1862491 C107.633892,73.1132207 107.2908,73.0895102 106.995367,72.9588652 C105.504212,72.2982901 104.184485,72.7345637 102.911941,73.5445151 C101.746332,74.2861802 100.794117,75.252384 99.9768155,76.3556346 C99.842851,76.5363088 99.7681629,76.7608474 99.6662077,76.9652321 C99.6946603,77.0195292 99.72335,77.0738263 99.7518026,77.1281234 C100.050081,77.0548579 100.366854,77.0242713 100.643081,76.9016879 C101.995292,76.3008633 103.33873,75.6794105 104.681694,75.0577206 C105.57653,74.6432607 106.335266,74.826543 106.963121,75.5658371 C107.345572,76.016337 107.747939,76.4590125 108.065186,76.9540882 C108.645145,77.8586446 108.538448,78.6795029 107.727074,79.3950864 C105.223243,81.6030103 102.726051,83.8213667 99.8364492,85.5363488 C98.7154157,86.2014289 97.6126393,86.8970956 96.5015643,87.5790103 C95.8692046,87.9673886 95.7440131,88.3953635 96.0830735,89.0075692 C96.3991348,89.5782815 97.0258039,89.7786354 97.5998356,89.3926281 C99.5983956,88.0487157 101.64248,86.7586262 103.538136,85.2798009 C105.465327,83.7763167 107.239348,82.0762723 109.075965,80.4570807 C109.70382,79.90344 110.378859,79.4761764 111.261838,79.641913 C111.519809,79.6902824 111.855076,79.765919 111.99236,79.9501498 C113.192823,81.5612797 114.377164,83.1854505 115.51598,84.840445 C115.79861,85.2508741 115.86168,85.8064116 116.098311,86.2571486 C116.206905,86.4646157 116.49072,86.5798489 116.695105,86.7370496 C116.810101,86.5129852 117.020887,86.2910547 117.025155,86.0650934 C117.056453,84.3949242 116.872222,82.7430122 116.242708,81.1866535 C116.012479,80.617601 115.594936,80.113041 115.210352,79.6203364 C114.632763,78.8798568 114.008702,78.1758914 113.315407,77.350291 C114.246993,77.057229 115.020193,77.1402158 115.786992,77.2101618" id="Fill-7"></path>
                <path d="M92.3678718,186.009331 C90.2389041,186.719224 88.0361965,187.081283 85.8104898,187.230423 C84.1981743,187.338543 82.5676017,187.351346 80.9562346,187.243463 C78.9832821,187.111396 78.225968,185.859954 79.0914021,184.157539 C80.0402972,182.290335 81.3457985,180.68703 83.1795703,179.57714 C83.63173,179.303521 84.0196341,179.290717 84.5014319,179.546554 C87.113383,180.93433 89.492971,182.651921 91.7378833,184.564649 C92.1374056,184.905369 92.5037331,185.284974 92.9874278,185.743061 C92.6839331,185.874655 92.5302889,185.955034 92.3678718,186.009331 M107.125538,169.419553 C107.000583,168.978537 106.887958,168.723649 106.28168,168.872551 C104.228349,169.377348 102.142297,169.705976 100.014041,169.655709 C99.9004676,169.652864 99.7842861,169.690327 99.6723724,169.720439 C99.6474763,169.727315 99.6356211,169.782086 99.5827466,169.878351 C100.460036,170.124703 101.320491,170.368685 102.182605,170.607213 C103.227291,170.896481 104.276007,171.171997 105.316662,171.475729 C105.487852,171.525758 105.699587,171.656166 105.768111,171.806254 C106.6978,173.839905 107.524349,175.892762 107.566791,178.193157 C107.588842,179.392672 107.13194,180.197645 106.090811,180.690823 C104.596099,181.39882 103.112769,182.141433 101.577513,182.750319 C99.1405454,183.71676 96.6623216,184.578638 94.2073341,185.499792 C93.6963724,185.691373 93.429629,185.585149 93.2235846,185.05024 C92.3899226,182.884284 90.9447663,181.254423 88.8802911,180.158759 C88.1805936,179.787453 87.5515535,179.282893 86.806806,178.783075 C87.6238706,178.564227 88.3185889,178.430499 88.9751332,178.192209 C91.032021,177.445801 92.4266739,175.888968 93.7170005,174.21714 C94.6217941,173.044891 95.5235052,171.870272 96.4328037,170.70158 C96.5745927,170.519484 96.7495763,170.362757 97.0004336,170.097911 C97.3615449,171.017405 97.6847193,171.840397 98.0719121,172.82628 C97.3416281,172.63304 96.7635655,172.480107 96.1852659,172.326937 C96.1549164,172.389295 96.1243299,172.451417 96.0939804,172.513776 C96.9202921,173.101322 97.7546654,173.678437 98.5688847,174.282818 C98.8465349,174.488862 99.1109072,174.735689 99.3162403,175.012153 C99.9637747,175.883989 100.577877,176.780484 101.211185,177.66299 C101.342542,177.846035 101.501402,178.0094 101.647459,178.181776 C101.716219,178.142654 101.784506,178.103294 101.853029,178.063935 C101.431693,177.198026 101.01012,176.331881 100.548002,175.382038 C101.498557,175.526672 102.396,175.663244 103.29368,175.799817 C103.317628,175.745046 103.341576,175.690274 103.36576,175.63574 C102.971454,175.190219 102.442947,174.924662 101.894997,174.69301 C101.623037,174.577777 101.337088,174.495975 101.058964,174.394731 C100.023525,174.017971 99.2107285,173.413116 98.6874373,172.391666 C98.3033268,171.64194 97.724553,170.99322 97.3157836,170.253452 C97.177077,170.002831 97.2937328,169.611371 97.2937328,169.241249 C97.0521226,169.369286 96.6630329,169.522693 96.3351164,169.76051 C95.7444873,170.188959 95.1519613,170.627604 94.628433,171.132875 C92.987902,172.716975 91.0222997,173.799597 89.0372548,174.860643 C86.4817347,176.226606 83.8659899,177.494171 81.394168,178.998129 C79.1148755,180.384721 77.5959794,182.488081 76.9102711,185.094816 C76.6010859,186.269909 77.0041648,187.080572 78.1171367,187.561659 C78.9733237,187.931543 79.9153427,188.282221 80.8277236,188.305695 C82.834108,188.356672 84.8596979,188.318024 86.8525673,188.092774 C90.2495738,187.709138 93.5657274,186.899424 96.77139,185.685445 C98.5024952,185.029849 100.216766,184.32944 101.952139,183.685699 C102.855036,183.350907 103.802508,183.134904 104.701611,182.791101 C105.416009,182.518193 106.087017,182.131475 106.778179,181.797156 C107.515813,181.44055 107.923634,180.844705 108.183976,180.072453 C109.024751,177.580003 108.992267,175.125015 108.079649,172.653668 C107.691271,171.601632 107.431878,170.501227 107.125538,169.419553" id="Fill-9"></path>
                <path d="M100.819037,179.179704 C100.845593,179.120191 100.872149,179.060915 100.898941,179.001401 C100.589519,178.79512 100.304282,178.529088 99.9664066,178.394649 C99.1645167,178.075268 98.3296692,177.839112 97.5249341,177.525658 C97.1993886,177.398807 96.8638848,177.20936 96.6272537,176.959214 C96.010306,176.306938 95.4452842,175.605343 94.8598714,174.923666 C94.793482,174.97085 94.7273296,175.018034 94.6611772,175.065218 C95.0448135,175.801903 95.4284497,176.538589 95.8403015,177.329098 C95.0322469,177.55909 94.142391,177.349726 93.4789706,178.183388 C94.383527,178.29625 95.1678711,178.440173 95.9569573,178.47645 C96.4785888,178.500398 96.7851658,178.696721 97.0220339,179.142953 C97.4002168,179.855929 97.8206043,180.546142 98.2279511,181.243468 C98.3306176,181.418926 98.4510671,181.583951 98.6352979,181.723132 C98.9390296,180.65687 98.3026392,179.820363 97.9761453,178.76477 C98.471221,178.831871 98.9326278,178.890436 99.392849,178.957774 C99.8689563,179.027246 100.343641,179.105491 100.819037,179.179704" id="Fill-11"></path>
                <path d="M134.560509,175.978784 C134.613858,175.999175 134.667443,176.019803 134.720792,176.040194 C134.826304,175.88655 134.986824,175.746184 135.027606,175.576891 C135.194054,174.888811 135.396542,174.197175 135.4442,173.497004 C135.483322,172.924157 135.633884,172.518707 136.152433,172.255521 C136.299439,172.180833 136.407084,172.0279 136.577326,171.869276 C136.111414,171.587832 135.476683,172.26951 135.3541,171.607512 C134.878467,171.845092 134.455945,172.124401 133.991693,172.273304 C133.000119,172.591262 132.138716,173.029195 131.683474,174.215432 C131.959702,174.133157 132.132789,174.097117 132.293309,174.030727 C132.858568,173.797653 133.417187,173.548455 133.982921,173.316804 C134.410421,173.141583 134.595363,173.254919 134.57023,173.756634 C134.532768,174.495454 134.560509,175.23783 134.560509,175.978784" id="Fill-13"></path>
                <path d="M138.127259,78.6894613 C138.326427,78.7219447 138.664065,78.63469 138.752031,78.4874477 C139.03798,78.0099177 138.98724,77.4546173 138.663117,77.0328071 C138.089559,76.2861628 137.440128,75.5968979 136.808243,74.896252 C136.70937,74.7867094 136.536994,74.6811975 136.398288,74.6809604 C136.002796,74.6797749 135.607068,74.7338349 135.211339,74.7663183 C135.243822,75.1179454 135.193082,75.5058495 135.327995,75.8121894 C135.528823,76.2676686 135.86077,76.665294 136.136998,77.0875784 C136.177069,77.0643421 136.217376,77.0411058 136.257447,77.0176324 C136.163554,76.6162132 136.069423,76.214557 135.936881,75.6483497 C137.097274,76.2242783 137.691697,77.0209519 138.074859,78.0682456 C137.886123,78.1348722 137.729871,78.1901177 137.474508,78.2804548 C137.725129,78.4466656 137.912205,78.6543697 138.127259,78.6894613" id="Fill-15"></path>
                <path d="M134.800968,42.8185602 C134.788839,42.8419185 134.775813,42.8670737 134.763684,42.890432 C134.819834,42.822603 134.836904,42.7943034 134.800968,42.8185602" id="Fill-17"></path>
                <path d="M143.964932,83.2257347 C144.042939,83.4125736 144.150585,83.587083 144.244479,83.7675201 C144.31158,83.7476033 144.37868,83.7274493 144.446018,83.7075325 C144.322486,83.0488542 144.22717,82.3832998 144.070918,81.7322089 C143.04852,77.4764073 141.645331,73.3602606 139.717666,69.4172008 C136.974121,63.8058686 133.312743,58.9086974 128.627069,54.7785615 C128.286349,54.4783863 127.940413,54.1834274 127.584992,53.900798 C127.339588,53.7056604 127.327258,53.5434804 127.569817,53.3319826 C130.413183,50.8525733 133.075637,46.1640546 134.763827,42.852406 C134.497795,43.1743949 132.478844,45.252148 132.478844,45.252148 C130.669019,47.6478591 128.852082,50.038354 127.047711,52.438333 C126.713393,52.8829053 126.476525,52.9523771 125.97481,52.5677925 C124.122544,51.1484806 122.178044,49.8638445 119.984584,49.0097915 C119.875278,48.9671126 119.765262,48.9258563 119.652874,48.8933728 C119.620627,48.8841257 119.578897,48.9075992 119.425253,48.9426907 C119.611855,49.0949123 119.743211,49.2106196 119.882866,49.3149459 C125.825197,53.7606688 131.055975,58.9132024 135.302055,65.0158166 C137.213835,67.763629 138.691712,70.7694119 140.037047,73.8261724 C141.40467,76.9336734 142.658008,80.0914408 143.964932,83.2257347" id="Fill-19"></path>
                <path d="M138.149618,22.1376372 C137.435694,21.3990545 136.567889,20.7387164 135.65124,20.2815776 C133.768151,19.3421667 131.849021,18.4352392 129.863502,17.7507164 C127.052857,16.7816674 124.169183,16.0243533 121.314436,15.1842895 C121.228367,15.1589192 121.117164,15.2198553 121.01758,15.2404834 L120.985097,15.4192608 C121.451483,15.5657918 121.9219,15.7009418 122.383543,15.8605136 C126.121033,17.1539226 129.727878,18.750352 133.156893,20.7164285 C134.16957,21.2973363 135.080528,22.0895049 135.944065,22.8866526 C136.670081,23.556712 137.037357,24.4629281 136.725801,25.4739448 C136.299249,26.8574538 135.485741,27.9507459 134.08113,28.4704806 C132.435382,29.0796039 130.771852,29.640832 129.117569,30.2274303 C128.932153,30.2933455 128.757169,30.3886618 128.577206,30.470226 C128.593803,30.5235747 128.610401,30.5766863 128.626761,30.6297978 C128.69813,30.6561165 128.767364,30.6957131 128.84063,30.7063828 C131.330235,31.0660714 133.767676,30.7784628 136.140625,30.0090564 C139.609712,28.883755 140.676211,24.7517223 138.149618,22.1376372" id="Fill-21"></path>
                <path d="M135.12987,13.4042932 C135.175394,13.3514187 135.221155,13.2987814 135.266679,13.2459069 C135.137694,13.0621504 135.027914,12.8603738 134.876404,12.6972454 C133.597696,11.3201383 132.042285,10.3522748 130.249059,9.84060171 C129.026307,9.49158283 127.774629,9.48280993 126.752705,10.4606319 C126.627513,10.58037 126.544764,10.7890226 126.533383,10.9623465 C126.528641,11.0334781 126.756973,11.1698136 126.893308,11.1928128 C127.903377,11.3630543 128.92862,11.4607417 129.926833,11.6814866 C131.129193,11.9475187 132.319461,12.2806515 133.495266,12.6481646 C134.06337,12.8255193 134.586424,13.1477453 135.12987,13.4042932" id="Fill-23"></path>
                <path d="M115.816274,14.36419 C115.523686,14.1865982 115.088361,13.9665645 114.825411,14.0680455 C113.861816,14.4400636 112.989506,14.9832717 112.571489,16.0179989 C112.277242,16.7466232 111.932016,17.4584131 111.69254,18.2045832 C111.463496,18.91827 111.496691,19.6582753 111.713168,20.3707765 C111.776001,20.3812092 111.838834,20.3914047 111.901667,20.4018373 C111.993901,20.2121531 112.096805,20.0267369 112.176946,19.8320735 C112.699289,18.5614266 113.376461,17.4249813 114.510773,16.5673717 C115.011539,16.1887146 115.364589,15.5973742 115.727834,15.0638875 C115.852314,14.8813165 115.903292,14.4170644 115.816274,14.36419" id="Fill-25"></path>
                <path d="M130.145396,13.3658821 C129.403968,13.2843179 129.229222,13.4424671 129.295611,14.1364741 C129.378124,14.9974032 130.68078,15.625732 131.605016,15.2319002 C131.997662,15.0645039 132.355217,14.8219453 132.27389,14.3086125 C132.213902,13.9292441 131.683498,13.6508826 130.965543,13.7220142 C131.32618,13.9226052 131.564471,14.055147 131.903769,14.2438828 C130.874021,14.8022656 130.131407,14.309798 130.145396,13.3658821" id="Fill-27"></path>
                <path d="M115.364826,20.6419538 C116.119058,21.0004569 117.509443,20.1878973 117.600254,19.3656164 C117.683241,18.6137557 117.288935,18.3432187 116.650647,18.6163639 C116.740273,18.8686438 116.973111,19.2091269 116.886804,19.3419059 C116.658235,19.6930587 116.299495,19.975451 115.774544,19.7762826 L115.774544,19.2420846 C115.224222,19.3328959 115.108752,19.7475929 115.060146,20.1464039 C115.041177,20.3019449 115.211893,20.5693996 115.364826,20.6419538" id="Fill-29"></path>
                <path d="M117.534433,34.4665871 C118.140474,35.0828236 118.952323,35.7189769 119.938206,36.2116815 C120.42854,36.4615904 120.960841,36.6737996 121.518038,36.8364538 C121.796163,36.9201519 122.080689,36.9893867 122.368535,37.0498485 C122.514591,37.0771156 122.652824,37.1081764 122.806942,37.132124 L123.222113,37.1992248 C123.500949,37.2407182 123.770538,37.2962008 124.054827,37.3367458 C124.338405,37.3791876 124.62056,37.4213924 124.900818,37.46336 C125.46015,37.5373368 126.011182,37.5954276 126.549174,37.6023037 C126.683375,37.6051489 126.816629,37.6077571 126.948459,37.6103652 C127.080764,37.6056231 127.211646,37.6006439 127.341105,37.5959018 C127.600261,37.5892629 127.853253,37.5724284 128.099842,37.5482437 C128.592073,37.5036679 129.056799,37.4394124 129.482403,37.3568998 C129.907769,37.2720161 130.295199,37.1809677 130.633548,37.0775898 C130.972609,36.9775314 131.2633,36.8722567 131.498508,36.7726725 C131.733954,36.6756964 131.914628,36.5853594 132.035077,36.5184957 C132.155527,36.4532918 132.218834,36.4103757 132.218834,36.4103757 L132.172836,36.275937 C132.172836,36.275937 131.888309,36.2861326 131.398687,36.2832873 C131.277052,36.2856584 131.141191,36.282576 130.994186,36.2790194 C130.848366,36.2813905 130.689268,36.2764113 130.520923,36.2730918 C130.183286,36.264556 129.804866,36.2586284 129.392777,36.2401342 C128.572156,36.2062281 127.614725,36.1663944 126.589008,36.1239526 C126.07686,36.1111489 125.544559,36.0973968 125.003485,36.1009534 C124.467627,36.0895723 123.919203,36.0855416 123.355367,36.0388318 L122.935927,36.0096679 C122.812396,36.0011321 122.674875,35.9835863 122.544941,35.9712568 C122.282465,35.9399589 122.021413,35.9010737 121.765339,35.8479621 C121.252955,35.7433987 120.755508,35.6006614 120.285328,35.4261519 C119.346629,35.0721538 118.524585,34.5822945 117.880133,34.0784459 C117.233073,33.5748344 116.765975,33.06245 116.456316,32.6920916 C116.147368,32.3193622 116.006053,32.0820199 116.006053,32.0820199 L115.879439,32.1467496 C115.879439,32.1467496 115.988982,32.4132559 116.247663,32.8402824 C116.504685,33.2677831 116.926021,33.8503506 117.534433,34.4665871" id="Fill-31"></path>
                <path d="M103.437437,42.4701213 C103.867072,42.8108415 104.486154,43.2689288 104.486154,43.2689288 C104.486154,43.2689288 104.767835,43.4517369 104.957282,43.5807221 L106.467642,44.4779283 C107.774803,45.1446682 109.367202,45.7478638 110.807379,46.2064253 C110.743123,46.4949824 110.658003,46.8352284 110.624571,46.908731 C110.135423,47.9840032 110.113135,48.0017861 109.065367,47.5121638 C109.047584,47.5038651 109.02909,47.496752 109.011544,47.4875049 C106.007895,45.9114665 103.002349,44.3392217 100.006762,42.7482457 C99.8388914,42.6590941 99.6112704,42.3676918 99.6508669,42.2534071 C99.8716119,41.6170167 100.415531,40.6678845 100.764313,39.9425796 C101.561935,40.8433423 102.452976,41.6893338 103.437437,42.4701213 M92.9023781,25.0393309 C94.729511,26.1015623 95.7054361,27.6387155 96.0340639,29.7169427 C96.4565854,32.3881702 97.312061,34.8154163 98.603099,36.991568 C99.143936,37.8992068 99.7689453,38.7667748 100.466983,39.5926123 C100.313339,39.8387275 100.117727,40.1301298 100.0364,40.2188072 C99.2620144,41.0605307 98.5782029,41.9847669 97.8396202,42.8603965 C97.5550939,43.1975601 97.6065457,43.3723066 98.0001404,43.5683927 C102.046104,45.5854468 105.817737,48.0273934 109.293225,50.9207885 C109.645089,51.2136134 109.859432,51.1763879 110.067136,50.7704638 C110.361147,50.1961949 110.687404,49.6382863 110.999671,49.0732646 C111.060607,49.0708935 111.121306,49.0685225 111.182242,49.0661514 C111.336124,49.5358569 111.522725,49.9977378 111.635825,50.4771646 C111.763624,51.0194242 112.040563,51.3596702 112.56504,51.5927447 C116.569747,53.3712709 120.563073,55.1761159 124.561616,56.9693427 C124.74798,57.0530408 124.948809,57.1044926 125.205119,57.0426082 C124.724033,56.7476493 124.252668,56.4351446 123.760437,56.1603396 C120.277836,54.2167881 116.795471,52.2729995 113.300777,50.3517359 C112.840793,50.0987447 112.587091,49.7822092 112.496517,49.2729072 C112.399778,48.7296991 112.238072,48.1983463 112.116674,47.6589319 C112.089644,47.5384825 111.925804,46.9440597 111.81555,46.5113427 C112.148683,46.6064219 112.46759,46.6924911 112.762074,46.7662308 C117.642885,47.4649799 122.593405,46.9921921 127.205813,45.4306171 L128.074804,45.1207205 C130.199504,44.3304488 132.245722,43.3073398 134.171965,42.0561356 C134.172202,42.0587437 134.172676,42.0606406 134.17315,42.0632487 L135.416767,41.1499194 L135.418427,41.1522904 C135.456364,41.1167247 135.500465,41.0804476 135.555948,41.0420365 C137.715976,39.5553868 139.506832,37.7014611 140.819447,35.434498 C141.388025,34.4524082 141.760754,33.3557966 142.202955,32.3028123 C142.275984,32.1283028 142.524707,30.7727723 142.552923,30.5856963 C143.047524,27.3224171 143.010299,24.0532103 142.45974,20.803209 C142.202955,19.2881067 142.421567,17.8970103 142.935848,16.4589672 C143.635071,14.5042717 143.492808,12.5690189 142.188492,10.8393363 C141.760991,10.2721806 141.182455,9.96939727 140.478015,10.1735449 C139.348209,10.5009872 138.482775,11.255456 137.668081,12.0677785 C137.657648,12.0782111 137.689183,12.1303743 137.748223,12.2911316 C138.355212,12.0687269 138.948686,11.7936848 139.57251,11.6457312 C139.916787,11.5639299 140.433439,11.5549199 140.663431,11.7543254 C141.848009,12.7800426 142.303725,13.9963923 141.248844,15.2077629 C140.511684,16.0542286 140.485602,16.8409437 140.587321,17.8303838 C140.939422,21.258214 140.940133,24.6995591 140.558157,28.1205133 C140.337649,30.0927545 140.016134,32.0792221 139.472926,33.983177 C138.850762,36.1626482 137.438563,37.9091652 135.836443,39.5193468 C133.851398,41.5136388 131.652722,43.2030135 129.128262,44.4162809 C125.592312,46.1153769 121.82803,46.814126 117.908443,46.6047621 C114.773201,46.4371287 111.826931,45.5339949 109.035254,44.1402904 C106.126211,42.6882581 103.768199,40.5348685 101.65654,38.1009834 C100.177241,36.3957226 99.0609492,34.4976953 98.5146587,32.2689062 C98.0591796,30.411661 97.5200023,28.5714874 96.9353008,26.7502822 C96.4222051,25.1531414 95.4941753,23.9576569 93.7118554,23.5228059 C92.3952101,23.2015284 91.7007289,21.5081229 92.1720941,20.1796223 C92.5372361,19.1503485 94.2562489,18.3688497 95.369458,18.808917 C95.9629323,19.0436512 96.1047213,18.8610802 96.2339436,18.3249853 C97.0488742,14.9431535 99.0566813,12.28307 101.599398,10.0583117 C104.942107,7.13361882 108.709709,4.87495448 113.005344,3.59008129 C116.318416,2.59921857 119.678671,1.99791973 123.155345,2.37681387 C126.372862,2.7277296 129.275742,3.79612572 131.78716,5.91987719 C133.558336,7.41767088 135.212382,9.01647138 136.733412,10.7613287 C136.869036,10.9168697 137.058721,11.0254639 137.223509,11.1556347 C137.274249,11.1148526 137.325227,11.0740705 137.376204,11.0332884 C137.30697,10.8438413 137.255281,10.6456214 137.165418,10.4666069 C136.167205,8.477057 134.876167,6.71133442 133.348735,5.07886497 C130.603768,2.14516207 127.280264,0.411211585 123.295711,0.085191906 C119.488749,-0.226364355 115.760033,0.312812918 112.223846,1.78571055 C107.662415,3.68563469 103.623565,6.41590132 100.326143,10.097197 C98.4902369,12.1467345 96.9464448,14.4592217 95.2957182,16.6721248 C95.0277893,17.0315763 94.8044362,17.2646507 94.3055668,17.2369094 C93.4775954,17.1911481 92.6904061,17.4085736 92.0601804,17.9804714 C90.1673694,19.6982987 90.6254567,23.7158096 92.9023781,25.0393309" id="Fill-33"></path>
                <path d="M188.949009,106.719993 C188.516766,107.124732 188.237456,107.114299 187.993,106.574173 C187.760637,106.061078 187.641848,105.49487 187.493894,104.946446 C187.439123,104.743484 187.44339,104.524636 187.40735,104.187235 C187.225965,104.356528 187.14938,104.460855 187.046713,104.516574 C186.852998,104.621375 186.615419,104.802523 186.449445,104.756999 C186.286317,104.712423 186.109911,104.439041 186.07719,104.243192 C185.930896,103.3678 185.837477,102.483634 185.717027,101.603737 C185.686915,101.384889 185.627164,101.170071 185.580929,100.953357 C185.530663,100.959759 185.480396,100.966161 185.429893,100.972563 C185.184726,102.240838 185.007371,103.513145 185.52758,104.770277 C185.714419,105.221962 185.97239,105.603228 186.593131,105.492737 C186.719982,105.470212 186.963727,105.702812 187.038178,105.86926 C187.237583,106.315255 187.308715,106.829773 187.558624,107.238779 C187.735267,107.527574 188.098749,107.731247 188.418604,107.896035 C188.758139,108.071019 189.078231,107.962187 189.26175,107.597757 C189.512134,107.10031 190.05463,106.700788 189.796897,105.913361 C189.477042,106.217804 189.215041,106.471033 188.949009,106.719993" id="Fill-35"></path>
                <g id="Group-39" transform="translate(0.000000, 37.624331)">
                    <path d="M170.496295,20.8009091 C170.009281,24.2851703 167.17611,28.7794998 166.082581,32.0954163 C166.00078,32.3439026 165.907123,32.5883581 165.810147,32.8321023 C165.774107,32.7870523 165.736645,32.7401054 165.700842,32.6955297 C165.383121,32.2941105 165.081523,31.9083403 164.792729,31.5356109 C163.786928,29.7807952 162.742243,28.0473189 161.662228,26.332811 C158.461308,21.2504606 155.179535,16.2221702 151.584782,11.4091713 C150.018465,9.31173851 148.353987,7.30345729 146.550801,5.42676946 C149.616572,7.172101 152.693486,8.89941253 155.701166,10.7395862 C159.57428,13.1094528 164.462915,15.5307714 168.303071,17.9556465 C169.806556,18.9050158 170.728658,19.1390386 170.496295,20.8009091 M167.072258,40.6442451 C166.946355,40.5591243 166.807649,40.4879928 166.696446,40.3865117 C164.550644,38.4301565 162.403894,36.4747498 160.271132,34.5041683 C160.045882,34.296227 159.864022,34.0147831 159.735748,33.7338134 C159.36373,32.9188828 159.63,32.4489402 160.520093,32.4297347 C161.285231,32.4133744 162.052741,32.5402257 162.819539,32.545442 C163.721724,32.5518439 164.147565,33.0862791 164.46007,33.8324492 C165.177313,35.544586 165.923483,37.2446304 166.643098,38.9555817 C166.861235,39.4741308 167.030765,40.013071 167.222346,40.542527 C167.172317,40.576433 167.122525,40.610339 167.072258,40.6442451 M158.121536,31.1249447 C157.530433,29.7943102 157.238793,28.390173 157.099376,26.4909602 C157.005956,25.7137293 157.905533,25.1117191 158.678496,24.4530408 C158.756504,24.3866514 159.123069,24.5085235 159.217911,24.6413024 C159.479675,25.0081042 159.655844,25.4344194 159.888207,25.8237461 C160.443982,26.7550954 161.015642,27.6769605 161.574974,28.606413 C161.777699,28.9433395 161.784812,29.1861353 161.291396,29.2518134 C160.639594,29.338831 160.194547,29.7523425 159.838652,30.2777677 C159.617433,30.6044987 159.409255,30.9426108 159.160768,31.2475281 C158.719041,31.7897877 158.401083,31.7546961 158.121536,31.1249447 M143.76031,142.70927 C144.853128,141.34141 145.954719,139.980189 147.075041,138.634854 C147.486419,138.140964 147.985999,138.069358 148.605318,138.35341 C150.078453,139.028449 151.549217,139.68689 152.644406,140.947341 C153.087792,141.457354 153.230055,142.021902 152.95525,142.642169 C152.692301,143.235406 152.145062,143.340207 151.566999,143.342578 C150.738791,143.345897 149.910582,143.343289 149.082374,143.343289 C149.081662,143.364629 149.080951,143.385968 149.08024,143.407071 C147.407225,143.336176 145.734211,143.263385 144.060959,143.19581 C143.705302,143.181346 143.471279,143.071093 143.76031,142.70927 M69.2099234,61.415848 C67.2542796,64.3320051 65.8980377,67.5582959 64.8490842,70.9085926 C64.4659222,72.1325298 64.0173191,73.3427148 63.7342154,74.5901254 C63.302921,76.4907609 62.9349337,78.4101276 62.6582319,80.3385044 C62.5712143,80.945968 62.8448338,81.6124708 62.9866227,82.2443562 C63.33659,83.8040343 63.7178552,85.3565993 64.0573899,86.9184114 C64.1268617,87.237555 64.1097901,87.5906047 64.0602351,87.9168615 C63.9502183,88.6419293 63.4347515,88.8197582 62.8818222,88.3472075 C62.705653,88.1964085 62.5354114,88.0382594 62.3625617,87.8836668 C62.317986,87.9123565 62.2734102,87.9410462 62.2288344,87.9699731 C62.4303738,88.3059512 62.6172127,88.6537845 62.8170924,88.990711 C62.2601323,89.6209367 61.8888255,90.9890338 61.6621529,91.568519 C61.5353016,91.8921676 61.1805922,92.499157 60.6715273,93.2974903 C60.7618644,93.0333551 60.8391607,92.7656633 60.8941691,92.4958375 C61.114677,91.4146377 61.2474559,90.3151808 61.4048937,89.2216515 C61.4305011,89.044771 61.3944611,88.8593547 61.263579,88.6748869 C60.8237488,89.898824 60.3839187,91.1225241 59.9440885,92.3462241 C59.8805443,92.3336575 59.816763,92.321091 59.7529817,92.3085244 C59.7498993,92.0280289 59.7378069,91.7472963 59.7458685,91.4672751 C59.7733727,90.5202768 59.8509061,89.5723301 59.8226906,88.6274658 C59.807753,88.1259883 59.6453359,87.6192944 59.4862383,87.1358369 C59.4155809,86.9210196 59.1884341,86.7576541 59.0321818,86.5708151 C58.8503221,86.7270675 58.6300513,86.8555785 58.4925303,87.0440772 C57.3997123,88.5402111 56.3230175,90.0479632 55.2394467,91.550499 C55.1863351,91.6240016 55.1133067,91.6828037 54.9143754,91.6965558 C55.0191759,91.3762267 55.1232651,91.0558975 55.2285398,90.7360426 C55.6228458,89.5372386 56.0313781,88.3429396 56.4031591,87.1370224 C56.5122275,86.7837356 56.5409172,86.3996252 56.5653391,86.0268958 C56.6163167,85.2496649 56.2931423,84.9715404 55.5597758,85.2849935 C54.6941047,85.6548777 53.881308,86.1492421 53.0495428,86.5968967 C52.7268426,86.7706948 52.4150493,86.9646469 52.0982767,87.1493519 C52.0593914,87.1095182 52.0205062,87.0696845 51.981858,87.0298509 C52.3258977,86.5421254 52.696019,86.0700489 53.0087608,85.5628808 C53.5972559,84.6082952 54.1717619,83.6435141 54.706197,82.6578677 C54.816451,82.4544314 54.8249867,81.996107 54.7033518,81.9121718 C54.5098739,81.7789186 54.1098774,81.7566307 53.8988538,81.8725752 C53.2110115,82.2505209 52.5321793,82.6661664 51.9211591,83.1560257 C51.3912289,83.5811554 50.9163072,83.4120994 50.4371175,83.18353 C50.4020259,83.1666955 50.3716765,83.1484384 50.3436981,83.1297071 C50.2832362,83.0026187 50.2185065,82.8862 50.1540139,82.7944403 C50.1604157,82.6393735 50.2581031,82.4771935 50.3804494,82.3458372 C51.0654464,81.6105739 51.7696489,80.8911967 52.4980361,80.1990865 C52.9404744,79.778699 53.4469312,79.4265977 53.9159253,79.0332402 C55.1054822,78.0350272 56.7464875,76.6491472 57.1995955,75.2165574 C58.3957914,71.434492 59.929388,67.3593646 61.1907877,63.5984016 C61.8248071,61.7077245 62.8941516,59.1054947 63.6803926,57.2755166 C64.7158311,54.8662905 65.7963195,53.0455595 66.9998657,50.7157636 C67.7450874,49.2732154 68.3155625,48.4099153 68.97922,47.3536115 C69.3547947,47.5361826 69.7348744,47.7071354 70.1130572,47.8828304 C70.5279913,48.0765454 70.9460079,48.2619616 71.3656841,48.4421616 C71.7855974,48.6221245 72.20148,48.8129942 72.6249499,48.9822873 L73.8910918,49.5029704 L75.1657695,49.9999429 C75.5904249,50.1659166 76.0160288,50.3295192 76.4454264,50.4819778 L76.8485052,50.6285089 C74.596954,53.7379067 71.1444649,58.5312259 69.2099234,61.415848 M51.6655597,106.430511 C48.2182869,103.726089 45.0870753,101.269442 41.9143703,98.7803114 C43.4712032,96.2584603 47.1818999,91.0065796 50.0153073,87.0220264 C49.9287639,87.1593103 49.8405608,87.2954087 49.7561513,87.4338782 C49.4498114,87.9348815 49.2670033,88.643589 49.7566255,89.0234316 C50.1860231,89.3563273 50.9049261,89.5362901 51.4445776,89.452592 C52.1554191,89.3425752 52.820025,88.9172084 53.496012,88.6087345 C53.7022935,88.5143666 53.8808338,88.3588256 54.0719406,88.2315001 C54.1181761,88.2618496 54.1641745,88.2921991 54.21041,88.3225485 C53.9735419,88.8377782 53.7414159,89.3553789 53.4988572,89.8680004 C53.0670886,90.7808555 52.6640098,91.6894427 52.6896171,92.7433754 C52.7223376,94.0763809 53.7454467,94.7725219 54.9534978,94.2008612 C55.8578171,93.7728862 56.4648065,93.0124898 56.9916543,92.190446 C57.3461266,91.6375166 57.6766512,91.0689383 58.0178457,90.507236 C58.086132,90.5299981 58.1546554,90.5527602 58.2229417,90.5755223 C58.239539,91.117782 58.2165398,91.6650208 58.282218,92.2011157 C58.3675759,92.897968 58.4562532,93.6085723 58.6800805,94.2670135 C58.7758711,94.5489316 59.2071654,94.8692608 59.501413,94.8846726 C59.5467001,94.8870437 59.5969664,94.87424 59.6484183,94.8552716 C57.4442881,98.1413128 53.9614495,103.017382 51.6655597,106.430511 M56.2355257,113.27076 C52.0823907,111.437937 52.0823907,111.437937 53.496012,110.017913 C54.4152689,111.109546 55.3252788,112.190271 56.2355257,113.27076 M57.835986,123.605939 C52.9196092,131.129288 47.7447877,138.483581 42.7655781,145.966622 C41.4527265,147.939574 39.8973162,148.124042 38.006165,147.190796 C35.2702078,145.840482 32.5451575,144.46124 29.8815175,142.975776 C29.2870947,142.64454 28.7967611,141.884381 28.548749,141.214322 C27.3091629,137.865922 26.2410039,134.452792 24.9596873,131.121226 C24.2417327,129.254023 24.8314134,128.163339 26.5158088,127.423096 C28.3514775,126.616464 30.1890429,125.814337 32.0258971,125.010314 C31.9199111,124.699469 31.813925,124.388861 31.707939,124.078016 C29.7963967,124.903616 27.8440723,125.647415 25.9830334,126.57426 C23.1512858,127.984324 22.9374168,128.488173 23.9636082,131.522646 C25.0725494,134.802285 26.3225681,138.034266 27.6752534,141.735953 C20.679938,137.453833 14.0862789,133.433714 7.51229957,129.38206 C5.77289567,128.310107 6.17075823,127.01409 7.25266935,125.681796 C13.1096425,118.468106 18.8807836,111.182811 24.8349699,104.050212 C28.9051182,99.1746174 30.3142345,98.9937061 35.6609572,102.344951 C42.4277031,106.58629 49.1017409,110.975818 55.8198803,115.29469 C59.5881935,117.717431 60.2769842,119.870347 57.835986,123.605939 M3.27783742,126.549838 C0.543065799,125.301953 0.718523663,124.602256 2.53024466,121.920595 C4.94705818,118.343626 7.66641796,114.954918 10.4379409,111.637579 C15.2028074,105.933776 20.1229779,100.360144 24.9447497,94.7035242 C26.074556,93.378106 27.4765592,92.6677388 29.0383713,93.3906726 C32.3476489,94.9223724 35.5471467,96.6907031 38.7020688,98.3160594 C37.8902205,99.2677997 37.2832312,99.9793525 36.6622526,100.707503 C29.0300726,97.5838785 28.3045306,95.1419318 23.1353997,101.831619 C19.9145624,105.999928 15.4448919,111.206759 12.0507306,115.228064 C9.12912007,118.689326 6.50887027,123.151409 3.27783742,126.549838 M41.3057212,100.294465 C43.9968655,102.394032 46.6505471,104.464435 49.3314959,106.556177 C48.9260459,107.250658 48.6265821,107.763517 48.1637527,108.556871 C45.2155863,106.20289 42.5391426,104.065861 39.8119583,101.888287 C40.3003951,101.367366 40.7535032,100.883672 41.3057212,100.294465 M197.249825,67.9092116 C197.08646,66.8495884 196.870931,65.7430183 196.398855,64.7964943 C195.104734,62.2032744 193.739957,59.6380331 192.262791,57.1446345 C190.200924,53.664167 187.911199,50.3162413 185.911454,46.8018677 C184.519883,44.3563644 183.456703,41.7244965 182.237982,39.1801203 C180.494311,35.5393697 178.294685,32.1615687 176.195119,28.725914 C175.052509,26.8563394 173.916775,24.9822597 172.811153,23.0906342 C172.674106,22.8566114 172.674106,22.4902838 172.726744,22.2069431 C172.88513,21.3564467 173.12508,20.5213621 173.28726,19.671577 C173.443513,18.8535639 173.17179,18.1763914 172.434393,17.7522102 C170.209872,16.4727904 168.039648,15.0771891 165.734273,13.9630316 C159.038422,10.7267825 152.293727,7.59082882 145.563969,4.4249999 C144.27222,3.15269329 142.909339,1.94843587 141.459678,0.828350801 C141.397082,0.779981336 141.337332,0.728055293 141.274736,0.679922933 C140.906037,0.397530614 140.506752,0.211877226 140.347655,0.143116712 L140.323944,0.17346618 C140.404086,0.269493795 140.562946,0.45775534 140.681024,0.582235581 C143.210226,3.24492722 145.811507,5.84265202 148.260804,8.57671233 C151.802919,12.5302048 154.929863,16.7950164 157.341934,21.5496874 C157.412829,21.6891053 157.476847,21.8318426 157.583307,22.0561442 C157.194692,22.1433989 156.847333,22.2387152 156.493809,22.2972802 C155.708991,22.4269767 155.377043,22.9384127 155.234069,23.6684597 C154.972305,25.003125 155.209173,26.3036471 155.44201,27.6079629 C155.473071,27.7819982 155.488957,27.9588786 155.50342,28.1350478 C155.505791,28.1642118 155.465246,28.1966952 155.393166,28.3045781 C155.170525,28.0437623 154.957604,27.8033376 154.754405,27.5546142 C153.305455,25.7813043 151.865278,24.0008812 150.40305,22.2384781 C150.190841,21.9826415 149.876202,21.8119258 149.608984,21.6016135 C149.543069,21.6376534 149.477154,21.6734563 149.411239,21.7094963 C149.458186,21.9736315 149.440403,22.2726212 149.561801,22.4964486 C150.614548,24.437629 151.68816,26.3679026 152.765566,28.2958052 C153.040134,28.7873243 153.350031,29.2589266 153.643567,29.739776 C153.610846,29.7796096 153.578126,29.8192062 153.545642,29.8590399 C153.353824,29.7928875 153.159635,29.733137 152.970662,29.6593973 C151.631255,29.1361061 150.306548,28.5706101 148.949358,28.0980594 C147.996195,27.7661121 147.076701,27.9920734 146.563842,28.8904651 C145.834269,30.1682251 145.229651,31.5180651 144.597766,32.849648 C144.534696,32.9826641 144.654434,33.2024606 144.689525,33.3817122 C144.851942,33.3402187 145.052059,33.345198 145.171323,33.2496446 C145.971553,32.6066152 146.768464,31.9578953 147.538345,31.278826 C147.98837,30.8819118 148.511662,30.6573732 149.061509,30.8029558 C150.256519,31.119017 151.429478,31.5206733 152.603623,31.9111856 C152.768174,31.9659569 152.888387,32.1544555 153.141852,32.3820765 C152.812276,32.4901965 152.610499,32.5869355 152.398527,32.6206044 C151.229599,32.8069691 150.058773,32.982427 148.887473,33.1533798 C147.73775,33.3210132 147.062474,33.931085 146.835091,35.109735 C146.451217,37.0997591 146.508834,39.0774538 146.844338,41.0584679 C146.868997,41.2042876 147.017662,41.329005 147.108473,41.4636807 C147.232953,41.3501073 147.406514,41.2600074 147.473378,41.119404 C147.795604,40.4424685 148.110005,39.7603168 148.387893,39.064413 C148.923039,37.7245314 149.832101,36.7270297 151.072635,36.0126317 C151.841804,35.569482 152.600067,35.1066526 153.377772,34.6791519 C153.63266,34.5392599 153.927145,34.4413354 154.214279,34.4010275 C154.407046,34.3739975 154.618781,34.4816433 154.82198,34.5290643 C154.772188,34.7260988 154.779538,34.9698429 154.662882,35.1123432 C153.999936,35.9215833 153.316836,36.7154116 152.622592,37.498333 C151.310926,38.9769212 151.160601,40.4109336 152.231605,42.0905869 C153.245941,43.6810888 154.450199,45.1165238 155.944199,46.2875865 C156.116812,46.4227364 156.326887,46.509517 156.51989,46.6190596 C156.569682,46.5870504 156.619475,46.5550412 156.669267,46.5232691 C156.588414,46.1519623 156.513963,45.7789958 156.42576,45.4093487 C155.978579,43.5307641 155.460978,41.6654573 155.100341,39.7705124 C154.837155,38.3874776 155.438453,37.1184905 156.082668,35.9386549 C156.536251,35.1085495 157.698778,34.8071888 158.468184,35.3677055 C159.690936,36.2587469 160.896616,37.2102502 161.946755,38.293821 C164.324209,40.7469117 166.631717,43.2699483 168.89536,45.8285508 C169.336376,46.327183 169.533173,47.0958782 169.699621,47.7749475 C170.466894,50.9063962 171.024565,54.0800496 171.109923,57.3072887 C171.188642,60.275609 170.865468,63.2216414 170.34431,66.1468085 C169.660736,69.9838823 168.293824,73.5625114 166.298584,76.8997674 C164.628889,79.6923927 162.519127,82.1525965 160.375695,84.5843476 C157.567895,87.7700934 154.651738,90.8695328 151.995211,94.1769135 C149.636726,97.1136988 147.594301,100.302527 145.365512,103.345535 C142.908865,106.699863 140.648304,110.175588 138.905818,113.952912 C137.353016,117.318383 135.924457,120.741708 134.471002,124.15223 C134.276101,124.609606 134.019553,124.847422 133.547477,124.941553 C131.050522,125.439711 128.596483,125.21209 126.167577,124.531598 C125.635987,124.382696 125.120283,124.167879 124.582528,124.05146 C123.979096,123.920578 123.909387,123.594795 124.038609,123.061309 C124.424616,121.470096 124.808015,119.877223 125.135458,118.273206 C125.965326,114.2078 126.687311,110.118683 126.884583,105.969342 C127.02163,103.09373 126.949076,100.208633 126.989383,97.3278048 C127.000053,96.5593468 127.040361,95.7854354 127.153223,95.0269358 C127.193294,94.7587698 127.447471,94.4751919 127.677463,94.290724 C128.909936,93.3015211 130.167542,92.3433789 131.41187,91.3691135 C131.63712,91.1927072 131.842453,90.9909307 132.056796,90.8010094 C132.035694,90.7531141 132.014592,90.7049818 131.993489,90.6570865 C131.703509,90.7267955 131.406417,90.7749278 131.124736,90.8697699 C129.571459,91.3921127 128.032172,91.9587942 126.467752,92.4448599 C125.376594,92.7839204 124.246313,92.9961295 123.145671,93.3076858 C122.563577,93.4724739 121.976268,93.6702197 121.445389,93.9545088 C119.971306,94.7443063 118.872798,95.8534846 118.146544,97.4285745 C116.760427,100.43412 115.069156,103.304753 113.783334,106.348947 C112.458153,109.485849 111.418684,112.747469 110.341515,115.983718 C109.544367,118.377769 108.89541,120.820901 108.15493,123.234396 C108.076448,123.489995 107.868744,123.753656 107.647762,123.910145 C105.329584,125.552099 102.711943,125.8895 99.9681612,125.595964 C99.244516,125.518667 98.5336746,125.320447 97.8100294,125.240543 C97.2834187,125.182215 97.115074,124.919265 97.0920748,124.432962 C97.0247369,123.013651 96.9481519,121.594813 96.8478564,120.177635 C96.4215412,114.164884 95.6986074,108.190306 94.5493584,102.269315 C94.1088169,99.9990323 93.8169404,97.6654427 92.6499085,95.6346364 C90.6926049,92.2286199 89.415082,88.5406853 88.0647677,84.8899762 C87.2199618,82.6057045 86.7044951,80.2007463 86.0111994,77.8590951 C85.3667474,75.6838918 84.6191546,73.5373782 84.0330305,71.3472373 C83.4262783,69.0802743 82.9378415,66.7803536 82.4377866,64.4863606 C82.1387969,63.1144698 81.9711635,56.2493252 81.854982,52.3091107 L83.1512362,52.7197769 L83.8258006,51.388194 C83.9566827,51.1302235 84.0780805,50.8672738 84.2044576,50.6069323 L84.5805065,49.8240108 C84.8304154,49.3019051 85.063964,48.7707894 85.3065227,48.244653 C85.5462361,47.7166196 85.7700634,47.1802876 86.0026636,46.6486977 L86.3355593,45.84254 C86.4446277,45.5727142 86.5586754,45.3057337 86.663713,45.0337741 C86.8730769,44.4893805 87.0900282,43.9492548 87.2865884,43.3982222 C87.3856984,43.1229431 87.4909731,42.8512205 87.5843925,42.572859 L87.8708157,41.741331 C88.0550464,41.1834224 88.234298,40.6226685 88.4014571,40.0555128 C88.5660082,39.4869345 88.7253429,38.9155109 88.856225,38.3284384 C88.4346519,38.7573617 88.0415314,39.2016969 87.6536273,39.6488774 C87.2683313,40.0974805 86.8951277,40.5527225 86.5269033,41.0105727 L85.9848807,41.7029199 C85.8018355,41.9326749 85.6311197,42.1688317 85.4540021,42.4014319 C85.0981072,42.8661581 84.7626033,43.3417912 84.4195121,43.8133935 C84.2485592,44.0493132 84.0861421,44.2902121 83.9189829,44.5285028 L83.423433,45.2459832 C83.1035781,45.7301521 82.7749502,46.209816 82.4619713,46.6977785 C82.1523119,47.1874008 81.8334054,47.6720439 81.5308591,48.1656969 L81.4635213,48.276188 C81.0692153,48.1225438 80.6704043,47.9812291 80.2730159,47.8361207 L78.9883799,47.3732913 L77.6956822,46.9327498 C77.2660475,46.7824251 76.8323821,46.6437185 76.3980053,46.5064346 L75.0958234,46.0936344 L73.7860542,45.702885 C73.350729,45.5684463 72.9080536,45.4555842 72.469646,45.3303927 C72.0310013,45.2059124 71.5904598,45.0864114 71.146836,44.9756833 C70.7039234,44.8632954 70.2640932,44.7421346 69.8176241,44.6401794 C69.3713921,44.5368015 68.9291908,44.4225168 68.4803507,44.3264892 C68.0317476,44.2304616 67.586464,44.1237642 67.1347785,44.0362724 C66.2349642,43.850619 65.3299336,43.6806146 64.4166043,43.5310012 C63.9592283,43.4582099 63.503275,43.384233 63.0404456,43.323297 L62.3708604,43.2341454 C62.4125909,43.2087752 62.4564554,43.1817452 62.5045878,43.1513957 C62.8332156,42.9491449 63.2901174,42.6231253 63.8603554,42.1901711 C64.1413251,41.971323 64.4495619,41.7235481 64.7815092,41.4508771 C65.1072918,41.1734639 65.4650836,40.8744743 65.833308,40.5453722 C66.5711794,39.8862197 67.385873,39.1246377 68.2437196,38.2679766 C69.1039374,37.412738 70.0080196,36.4636058 70.9415029,35.4407339 C71.4010128,34.9240816 71.8839961,34.4012646 72.3579694,33.8514176 C72.8274378,33.2989624 73.314689,32.7401054 73.7967239,32.1610945 C74.2787588,31.5818464 74.7593711,30.9876607 75.2473337,30.3858877 C75.7281831,29.7788983 76.2142488,29.1640845 76.6972321,28.5400235 C77.1731023,27.9102721 77.6527661,27.2757785 78.1343268,26.6386768 L78.4835828,26.1822492 L78.8416117,25.7049564 L79.5398866,24.8158118 C80.5124922,23.6189047 81.5144989,22.4267396 82.5411645,21.2791504 C83.0476212,20.699191 83.5597685,20.1294271 84.07239,19.5712814 C84.5831147,19.0110018 85.0862519,18.4538045 85.5912861,17.914153 C86.5949525,16.827974 87.5805989,15.7866079 88.5131337,14.7917144 C89.4520704,13.7984806 90.3400294,12.8593068 91.1594651,11.9926873 C91.9805605,11.1194287 92.7333695,10.3191986 93.4005836,9.60977978 C94.0682719,8.89751569 94.6477571,8.2710837 95.1231531,7.75063774 C96.0765532,6.71425082 96.6114625,6.10109671 96.6114625,6.10109671 C96.6114625,6.10109671 95.8844979,6.46718717 94.670045,7.19438889 C94.0618701,7.55644856 93.3320602,8.00908243 92.5093051,8.54873391 C91.6851273,9.08648855 90.7670559,9.7105495 89.784729,10.4178344 C89.2906017,10.7680388 88.784145,11.1436135 88.2634619,11.5367339 C88.0031204,11.7340055 87.7385109,11.9345965 87.4698707,12.1380328 C87.2050242,12.3469225 86.936384,12.5586574 86.663713,12.7734747 C85.5732661,13.6334554 84.4503357,14.5757115 83.3127049,15.5824603 C82.7472089,16.0896284 82.1710432,16.6055693 81.6024649,17.1449837 C81.0353092,17.6860578 80.4662567,18.2406469 79.8995752,18.8092253 C78.7794902,19.9584743 77.6601164,21.1563298 76.6147195,22.4357496 L75.8216025,23.4199734 L75.457646,23.8958436 L75.0882361,24.3930532 C74.621613,25.0330002 74.1566497,25.6705762 73.69548,26.3031729 C73.2449801,26.9440683 72.7916349,27.574294 72.3432689,28.196221 C71.9029645,28.8245498 71.4678764,29.4450542 71.0401386,30.0556001 C70.1894051,31.2800115 69.3730518,32.4676715 68.6062535,33.599849 C67.8382697,34.7306038 67.1224491,35.8089583 66.4595029,36.8026663 C65.139301,38.8021746 64.0388956,40.468313 63.2687779,41.6346336 C62.8761316,42.2143559 62.5650496,42.6736287 62.3435933,42.9794944 C62.2793378,43.068646 62.2243294,43.1442825 62.1771454,43.2085381 L61.6505348,43.1383549 C61.7686132,43.2369907 61.8904852,43.330173 62.0140171,43.4212214 C62.0016876,43.4361591 61.9941002,43.4451691 61.9941002,43.4451691 C61.9941002,43.4451691 62.0052442,43.4397157 62.0253981,43.4295201 C62.2760183,43.6142251 62.5354114,43.7880232 62.7997838,43.9625327 C63.1912445,44.2176579 63.5879215,44.4640102 63.9862583,44.7039607 C64.6257311,45.0866485 65.2730283,45.4479969 65.9238822,45.8000981 C65.1447544,47.3856207 64.5040961,48.7302445 63.7022062,50.5794281 C62.3986017,53.5856852 61.1473975,56.6203949 60.0277866,59.698732 C59.239886,61.8644511 58.6966779,64.1197959 58.0669264,66.341709 C57.2700158,69.1533027 56.5399688,71.9850504 55.6797511,74.7769643 C55.4772632,75.4339829 54.9010975,75.9926028 54.4411134,76.5507485 C52.984576,78.318605 51.5029055,80.0655963 50.0283481,81.8185152 C49.7763053,82.1184533 49.6800405,82.4641527 49.739554,82.7989453 C47.3372039,86.7142638 41.9463795,92.8273106 39.49566,96.9906412 C38.4654378,96.3450037 38.7224599,96.4841844 37.8589226,96.0524158 C35.0283605,94.6371348 32.2160555,93.1687421 29.3055889,91.935795 C27.4217879,91.1376988 25.614809,91.6963187 24.2566703,93.2657182 C21.8251563,96.0758893 19.456238,98.9403574 17.0342082,101.758827 C12.6880694,106.81557 8.28218022,111.821573 3.98939019,116.922892 C2.75051541,118.395078 1.64370824,120.034898 0.775903126,121.749406 C-0.611636629,124.492002 -0.1516525,125.934787 2.2639755,127.752198 C2.81761619,128.168792 3.3586903,128.602221 3.46562476,128.685682 C3.00279536,130.296812 2.00908738,131.865974 2.42828941,132.802065 C2.89514959,133.844143 4.5985135,134.747514 5.85659381,134.890014 C6.87496073,135.005247 8.0313229,133.902945 9.55424974,133.120972 C15.830662,137.044352 22.7320837,141.358244 29.6365878,145.673797 C28.6777343,148.353797 29.0774937,149.863683 30.9731499,150.687149 C33.4779295,151.775225 34.6297866,151.404156 35.8945059,149.099967 C36.0441193,149.07436 36.2136495,148.992084 36.3412121,149.035237 C41.4226141,150.750694 42.4480942,150.560772 45.1544132,146.075927 C49.9261558,138.168468 54.4693289,130.123014 59.1403018,122.154144 C60.1783484,120.382968 60.3004576,118.566742 59.3596241,116.826864 C57.6164265,113.603419 55.7141313,110.466042 53.5742567,106.767675 C55.1128325,104.603141 57.1756479,101.73488 59.2005265,98.8400619 C60.3576,97.1857788 61.4615619,95.494033 62.5742967,93.8091633 C63.3868563,92.5788243 63.9601767,91.1116172 64.0927185,90.0704882 C64.1797361,90.0766529 64.2641456,90.0764158 64.3397822,90.0678801 C64.7442837,90.0218816 65.0646128,89.6818728 65.0439847,89.2342181 C65.0058107,88.4112259 64.9825744,87.5742444 64.8130442,86.7730659 C64.2015498,83.8839388 63.8186249,80.9839048 63.9125186,78.0181927 C63.9805678,75.8671741 64.4132848,73.818585 65.3662107,71.9030119 C66.5875397,69.4477874 67.904185,67.1360115 69.1734092,64.7049716 C69.2881681,64.4847009 69.3512381,64.4875461 69.7258644,64.0128615 L73.3998098,58.932645 C74.1950607,57.9064536 76.0741196,55.7331472 77.7094343,53.8270583 C77.8616558,58.0904473 78.5902802,68.6999575 82.0560472,79.7215566 C82.8795136,82.3403838 85.2534111,85.5505514 86.0922894,88.174832 C87.1042545,91.3397125 88.6314492,94.3362482 89.8255111,97.4480172 C90.5593518,99.3602708 91.1227138,101.341285 91.7005392,103.309495 C93.0603376,107.942768 93.9641827,112.670409 94.4495371,117.472739 C94.7551658,120.496304 94.9827868,123.528406 95.2260567,126.558137 C95.2952914,127.421437 95.2642307,127.424045 96.166416,127.482847 C97.3704363,127.561566 97.3761269,127.559906 97.7327331,128.712949 C97.9001294,129.25426 98.0402586,129.804107 98.3373514,130.38051 C98.507593,129.737955 98.7152972,129.102276 98.8385919,128.45071 C98.9839374,127.681778 99.0885008,127.59642 99.8683399,127.547339 C101.797665,127.426416 103.726279,127.286287 105.651099,127.109406 C106.115351,127.066727 106.317602,127.196424 106.367631,127.631749 C106.432361,128.196296 106.501358,128.76037 106.56182,129.325629 C106.585768,129.548745 106.591696,129.773995 106.606159,129.998533 C106.66259,130.008492 106.719258,130.018687 106.775689,130.028646 C107.031526,129.31567 107.349484,128.618107 107.529447,127.886637 C107.851436,126.577342 107.603898,126.895537 108.803887,126.642783 C109.316272,126.5349 109.531326,126.312021 109.693743,125.865789 C110.610629,123.347495 111.62212,120.861209 112.459813,118.317307 C113.593887,114.873117 114.614388,111.39099 115.655754,107.916924 C116.43749,105.308292 117.634397,102.897644 119.090223,100.614083 C119.959451,99.2507282 120.905975,97.9359797 121.830685,96.6084276 C122.459962,95.7050567 123.874295,95.8243206 124.253426,96.8557283 C124.486975,97.4909332 124.583003,98.1967955 124.627104,98.8779988 C124.870848,102.652477 124.604342,106.414151 124.322424,110.177248 C124.162615,112.308824 123.893264,114.417164 123.343891,116.483299 C122.606968,119.25411 121.624167,121.933162 120.303016,124.482755 C120.223823,124.635213 120.165732,124.798579 120.059035,125.047065 C120.867327,125.27516 121.614919,125.499699 122.369862,125.696259 C124.069907,126.138697 124.077968,126.131584 124.435523,127.826412 C124.651052,128.848336 124.846664,129.874527 125.040141,130.900956 C125.071202,131.065033 125.044646,131.239779 125.044646,131.511739 C124.227582,131.128577 123.521957,130.797341 122.733108,130.427457 C122.595587,131.032786 122.496714,131.549676 122.35943,132.056369 C121.854159,133.921202 121.076453,135.655153 119.868639,137.180688 C118.446008,138.977234 118.928754,141.278577 120.88511,142.440393 C122.541052,143.423668 124.37269,143.490769 126.195081,143.660773 C130.479809,144.060533 134.769754,144.409314 139.048555,144.863845 C141.559025,145.130588 144.044125,145.645818 146.556018,145.888851 C148.396903,146.067154 150.260787,146.024475 152.083415,145.523472 C155.519543,144.579319 155.528316,141.650595 154.237041,139.572605 C153.386545,138.204034 152.071085,137.481811 150.563807,137.065454 C147.807222,136.303872 145.055616,135.521899 142.285041,134.81414 C141.182028,134.532459 140.034676,134.421731 138.906055,134.243665 C138.723247,134.214738 138.531903,134.239397 138.34459,134.239397 C138.331075,134.287767 138.317323,134.335899 138.303808,134.384269 C138.552294,134.536964 138.801017,134.689897 139.053771,134.845438 C138.555139,135.431562 138.187626,135.436304 137.617151,134.843067 C137.568781,135.013546 137.551473,135.166004 137.485083,135.292382 C137.311048,135.623143 137.180877,136.016264 136.915794,136.252421 C136.199024,136.890471 135.77674,137.657269 135.654631,138.596206 C135.631869,138.772612 135.67194,138.957317 135.682846,139.138228 C135.739515,139.16099 135.795946,139.18399 135.852614,139.206752 C136.348875,138.574155 136.845373,137.941321 137.436477,137.188038 C137.666232,137.954362 137.849988,138.56799 138.033982,139.181381 C138.125979,139.170949 138.217975,139.160516 138.309972,139.149846 C138.33961,138.7425 138.371383,138.335153 138.397938,137.927332 C138.402918,137.849324 138.404814,137.763966 138.379681,137.691886 C137.954077,136.470557 138.825439,135.899608 139.600062,135.297835 C139.730707,135.196591 139.991285,135.152727 140.145878,135.208921 C141.852798,135.829425 143.550946,136.474351 145.250042,137.116906 C145.298649,137.135163 145.329947,137.198945 145.401789,137.276715 C145.31738,137.375588 145.252413,137.502676 145.148561,137.566221 C143.313841,138.69247 142.302824,140.371412 141.892632,142.441104 C141.802769,142.894212 141.568984,142.993559 141.152864,142.99427 C137.342346,143.001384 133.531828,143.037186 129.72131,143.038135 C126.87415,143.038846 124.159296,142.445372 121.625115,141.112841 C121.468151,141.030328 121.313559,140.942125 121.163945,140.847046 C120.711311,140.559911 120.588728,140.209944 120.857605,139.699456 C121.90561,137.710618 122.936781,135.712532 123.955859,133.708519 C124.138193,133.350253 124.321476,133.214628 124.739966,133.338635 C126.333313,133.811185 127.949423,134.227305 129.628602,134.019838 C130.978916,133.852916 132.317375,133.588543 133.659153,133.356655 C133.82157,133.328676 133.972369,133.235257 134.128147,133.02613 C133.488675,132.902361 132.853707,132.746583 132.209018,132.660751 C130.2152,132.394719 128.217826,132.154294 126.221637,131.906282 C125.797693,131.853645 125.678666,131.611323 125.704985,131.20611 C125.796744,129.788221 125.879731,128.36962 125.935451,126.950071 C125.952522,126.513087 126.12229,126.400224 126.542914,126.369875 C128.590081,126.222633 130.635113,126.044804 132.679197,125.858439 C133.410904,125.791575 133.434852,125.781617 133.270538,126.52921 C132.931715,128.070631 132.49307,129.595217 132.545233,131.1971 C132.551635,131.390104 132.546181,131.583345 132.677064,131.820213 C132.762184,131.62223 132.875995,131.43136 132.928158,131.225316 C133.558147,128.732866 134.862699,126.520911 135.859253,124.182105 C138.587622,117.778604 142.667966,112.255712 146.998693,106.862754 C150.544365,102.447618 154.271896,98.1609926 157.329605,93.3641168 C157.787692,92.6452138 158.476483,92.064306 159.097698,91.4599248 C162.889248,87.7703305 165.967348,83.5228275 168.790323,79.0773417 C170.368495,76.5920048 171.871742,74.06636 172.98993,71.3268463 C174.947471,66.5311561 175.598325,61.5991303 174.742849,56.4669878 C174.017544,52.1146844 172.689044,47.9530135 170.979989,43.9004111 C170.919053,43.7557769 170.867602,43.6064006 170.823263,43.4558388 C170.808562,43.4050983 169.959014,41.2889342 169.879347,41.2438842 C169.725703,40.9569869 169.562337,40.6743575 169.411538,40.3860375 C170.609394,41.6362933 171.856093,42.8417363 173.076474,44.073735 C174.740952,45.7543368 176.389308,47.451536 177.951357,49.2220007 C178.054735,49.3801499 178.16001,49.5375877 178.261491,49.6964482 C179.05603,50.9431475 179.812159,52.1879499 180.528691,53.4040626 C181.24712,54.6187526 181.933776,55.7992995 182.583919,56.9217556 C183.226474,58.0506136 183.833701,59.1178242 184.394454,60.1029964 C184.496173,60.2834335 184.594334,60.4555719 184.692733,60.6284216 C184.692496,60.6760797 184.697001,60.7223152 184.712175,60.76452 C185.773933,63.700831 187.724597,65.8698696 190.517697,67.2448428 C190.855809,67.4115277 191.43316,67.328778 191.785498,67.144073 C192.005295,67.0288399 192.160125,66.4671376 192.084725,66.1724159 C191.877495,65.3608047 191.616679,64.5399464 191.22427,63.8042089 C190.589065,62.6127552 189.831751,61.4865054 189.126126,60.3327514 C189.053809,60.365709 188.981492,60.3986666 188.909175,60.4316242 C188.951854,60.6955223 188.981966,60.9622657 189.039346,61.2230815 C189.289492,62.360001 189.566193,63.4917042 189.796423,64.6326545 C189.944139,65.3643613 189.782196,65.5713541 189.082973,65.3541657 C188.975801,65.320971 188.866022,65.2787663 188.756479,65.2322936 C188.529095,65.0034871 188.250734,64.7049716 187.943208,64.3303454 C187.52946,63.8250742 187.065208,63.1813335 186.604986,62.4031541 C186.487382,62.2092021 186.376417,62.0060029 186.26474,61.7978245 C186.149507,61.5953367 186.038779,61.3660559 185.923783,61.1336928 C185.701853,60.6682552 185.468304,60.1788701 185.22456,59.6683825 C184.729958,58.6431395 184.187462,57.5341984 183.580235,56.3766507 C182.979648,55.2157836 182.31765,54.0046501 181.5895,52.7750224 C180.862298,51.5451576 180.063965,50.2994068 179.198531,49.0685936 C178.334756,47.8384917 177.421664,46.6072043 176.436492,45.4264203 L175.693878,44.5569555 C175.445392,44.2721921 175.197143,43.9876658 174.949368,43.7036138 C174.453818,43.1357468 173.960165,42.5697766 173.470543,42.0083114 C172.501731,40.8770824 171.539321,39.7705124 170.628599,38.6829107 C169.708631,37.6026593 168.839641,36.5420877 168.007638,35.542452 C167.595787,35.0395519 167.195316,34.5501667 166.807886,34.0766676 C166.549204,33.7542045 166.299058,33.4419369 166.052943,33.1348856 C166.059108,33.0066117 166.121466,32.8809459 166.263967,32.7372602 C167.858499,31.1263673 169.127012,29.2691221 170.292858,27.3364774 C170.411885,27.1389688 170.850293,25.6459172 171.029782,25.3651846 C171.235589,25.5947025 171.901143,26.6704489 172.037479,26.8470923 C176.795232,33.0153846 180.278545,39.8774468 184.290128,46.5505362 C186.730889,50.610726 189.235432,54.633216 191.61502,58.7284974 C193.050929,61.1993709 194.46787,63.6994084 195.310067,66.4609729 C195.481969,67.0250462 195.640355,67.6061911 195.68991,68.1889958 C195.713858,68.4697283 195.537688,68.9448872 195.332118,69.0252659 C195.046644,69.1367053 194.598041,69.0482651 194.311143,68.8844254 C193.938177,68.6715049 193.655547,68.3006723 193.312219,67.9774979 C193.192718,68.5603025 193.135576,69.0871503 192.971262,69.577721 C192.747434,70.2461207 192.273461,70.3969196 191.666946,70.0301178 C191.332153,69.8276299 191.032689,69.5665771 190.713309,69.3289977 C191.036483,70.2060499 191.81727,70.9507974 192.492309,70.954354 C193.326208,70.9586218 194.024483,70.724599 194.071667,69.9080086 C194.790333,69.8311865 195.432414,69.8335576 196.035609,69.6815731 C196.999679,69.4390145 197.405366,68.917383 197.249825,67.9092116" id="Fill-37"></path>
                </g>
            </g>
        </g>
    </g>
</svg>