<?xml version="1.0" encoding="UTF-8"?>
<svg width="13px" height="13px" viewBox="0 0 13 13" version="1.1" xmlns="http://www.w3.org/2000/svg" xmlns:xlink="http://www.w3.org/1999/xlink">
    <!-- Generator: sketchtool 45 (43475) - http://www.bohemiancoding.com/sketch -->
    <title>D3E006A6-971E-47C1-97DD-4FD37480040B</title>
    <desc>Created with sketchtool.</desc>
    <defs></defs>
    <g id="Page-1" stroke="none" stroke-width="1" fill="none" fill-rule="evenodd">
        <g id="icons" transform="translate(-222.000000, -74.000000)" fill-rule="nonzero" fill="#FFFFFF">
            <g id="aeroplane" transform="translate(229.313708, 79.313708) rotate(-45.000000) translate(-229.313708, -79.313708) translate(221.313708, 71.313708)">
                <path d="M13.227535,6.81777307 L10.4561468,6.91037423 L7.4785463,1.38826962 L6.04367892,1.38826962 C5.88647099,1.38826962 5.75911623,1.51551172 5.75911623,1.67300129 L7.30832689,7.01519829 L4.48652619,7.12993586 C4.24364529,7.13016117 4.01495873,7.17116703 3.81229512,7.24242036 L2.74631156,5.43207894 L1.85173028,5.43185363 C1.73316249,5.43207894 1.63706907,5.5280597 1.63706907,5.64668382 L2.41708177,8.03274085 L2.41708177,8.31944396 L1.6371254,10.705501 C1.63701274,10.8240688 1.73310616,10.9203312 1.85167395,10.9203312 L2.74642422,10.9205565 L3.83110825,9.07793984 C4.02904041,9.14536294 4.25102409,9.18411574 4.48658252,9.18411574 L7.31914162,9.29936025 L5.75900358,14.6794652 C5.75900358,14.8368984 5.88624568,14.9639152 6.04356627,14.9639152 L7.47843364,14.9639152 L10.476537,9.40469126 L13.227535,9.49656017 C14.0101387,9.49656017 14.6442652,8.89656773 14.6442652,8.15716662 C14.6443215,7.41754019 14.0101951,6.81777307 13.227535,6.81777307 Z" id="Shape" transform="translate(8.140667, 8.176092) rotate(9.000000) translate(-8.140667, -8.176092) "></path>
            </g>
        </g>
    </g>
</svg>