<?xml version="1.0" encoding="UTF-8"?>
<svg width="26px" height="22px" viewBox="0 0 26 22" version="1.1" xmlns="http://www.w3.org/2000/svg" xmlns:xlink="http://www.w3.org/1999/xlink">
    <!-- Generator: sketchtool 45 (43475) - http://www.bohemiancoding.com/sketch -->
    <title>02AFF1B2-74F3-45D9-A8CC-4DCB14C26910</title>
    <desc>Created with sketchtool.</desc>
    <defs></defs>
    <g id="Page-1" stroke="none" stroke-width="1" fill="none" fill-rule="evenodd">
        <g id="бронирование_460" transform="translate(-390.000000, -2755.000000)" fill-rule="nonzero" fill="#FFFFFF">
            <g id="Group-Copy-35" transform="translate(377.000000, 2741.000000)">
                <g id="landscape-photography-in-frame" transform="translate(13.000000, 14.178762)">
                    <path d="M21.436463,0.374103438 L4.09497655,0.374103438 C1.82907459,0.374103438 0,2.20373806 0,4.46964002 L0,17.7060693 C0,19.9719712 1.82907459,21.8116865 4.09497655,21.8116865 L21.436463,21.8116865 C23.702365,21.8116865 25.5460005,19.9719712 25.5460005,17.7060693 L25.5460005,4.47020006 C25.5465605,2.20373806 23.702925,0.374103438 21.436463,0.374103438 Z M22.6674201,17.6971087 C22.6674201,18.3809116 22.1141054,18.9342262 21.4314227,18.9342262 L4.08601599,18.9342262 C3.40277318,18.9342262 2.84889848,18.3809116 2.84889848,17.6971087 L2.84889848,4.45955939 C2.84889848,3.77631659 3.40277318,3.22244189 4.08601599,3.22244189 L21.4314227,3.22244189 C22.1146655,3.22244189 22.6674201,3.77631659 22.6674201,4.45955939 L22.6674201,17.6971087 Z" id="Shape"></path>
                    <path d="M15.1903917,11.3496711 C14.8627712,10.7459532 13.9868763,10.7767552 13.7012584,11.4011943 L13.2722715,12.3403731 L10.8708411,7.92169629 C10.3556088,6.97411693 8.97960257,7.02171991 8.5315745,8.00346142 L5.10920009,15.4961708 C4.71325528,16.3625451 5.34665497,17.3459667 6.29927465,17.3459667 L17.0519483,17.3459667 C17.6831078,17.3459667 18.085213,16.6733646 17.7833541,16.1183698 L15.1903917,11.3496711 Z" id="Shape"></path>
                    <circle id="Oval" cx="18.1608178" cy="7.15612833" r="2.67696771"></circle>
                </g>
            </g>
        </g>
    </g>
</svg>