<?xml version="1.0" encoding="UTF-8"?>
<svg width="17px" height="15px" viewBox="0 0 17 15" version="1.1" xmlns="http://www.w3.org/2000/svg" xmlns:xlink="http://www.w3.org/1999/xlink">
    <!-- Generator: sketchtool 45 (43475) - http://www.bohemiancoding.com/sketch -->
    <title>E661118F-318B-43FB-B31A-ED64B88677E3</title>
    <desc>Created with sketchtool.</desc>
    <defs></defs>
    <g id="Page-1" stroke="none" stroke-width="1" fill="none" fill-rule="evenodd">
        <g id="выдача-по-стране" transform="translate(-719.000000, -1047.000000)" fill-rule="nonzero" fill="#A7AEB1">
            <g id="Group-23" transform="translate(400.000000, 1029.000000)">
                <path d="M333.701304,23.8537477 L330.186085,23.9535844 L326.409308,18 L324.589328,18 C324.389926,18 324.228389,18.1371844 324.228389,18.3069797 L326.193402,24.0665991 L322.614241,24.1903019 C322.306172,24.1905448 322.016106,24.2347548 321.759049,24.3115756 L320.406959,22.3597798 L319.272275,22.3595369 C319.121885,22.3597798 319,22.4632602 319,22.5911532 L319.989365,25.1636492 L319.989365,25.4727544 L319.000071,28.0452504 C318.999929,28.1730827 319.121813,28.2768668 319.272204,28.2768668 L320.407102,28.2771097 L321.782911,26.2905168 C322.033968,26.3632081 322.315531,26.4049889 322.614312,26.4049889 L326.20712,26.5292383 L324.228246,32.3297276 C324.228246,32.4994622 324.38964,32.6364037 324.589185,32.6364037 L326.409165,32.6364037 L330.211948,26.6427995 L333.701304,26.7418468 C334.693956,26.7418468 335.498279,26.0949728 335.498279,25.2977972 C335.498351,24.5003787 334.694027,23.8537477 333.701304,23.8537477 Z" id="Shape-Copy-8"></path>
            </g>
        </g>
    </g>
</svg>