<?xml version="1.0" encoding="UTF-8"?>
<svg width="15px" height="15px" viewBox="0 0 15 15" version="1.1" xmlns="http://www.w3.org/2000/svg" xmlns:xlink="http://www.w3.org/1999/xlink">
    <!-- Generator: sketchtool 48.1 (47250) - http://www.bohemiancoding.com/sketch -->
    <title>AB21E506-7134-427F-B736-982A4F254C32</title>
    <desc>Created with sketchtool.</desc>
    <defs></defs>
    <g id="бронирование1920_new-copy-5" stroke="none" stroke-width="1" fill="none" fill-rule="evenodd" transform="translate(-1243.000000, -364.000000)">
        <g id="Group-14" transform="translate(1243.000000, 247.000000)" fill="#0191D0" fill-rule="nonzero">
            <path d="M14.0139719,120.02826 C14.6296819,119.204093 14.9982108,118.348407 15,117.737083 C14.9992402,117.539118 14.9595344,117.384412 14.8839953,117.269167 C14.8760541,117.255074 14.8542894,117.218186 14.8158826,117.181838 C14.7776964,117.143946 14.7433827,117.123701 14.7359562,117.119608 C14.615074,117.038922 14.4596331,117 14.2616186,117 C13.6518155,117.001029 12.7958853,117.369314 11.9714747,117.986029 C11.305103,118.484681 10.6386824,119.186936 9.7161591,120.159387 C9.55966421,120.324314 9.39498306,120.497721 9.22081663,120.679559 L7.43393179,120.14402 C7.51356403,120.063848 7.55584339,119.960637 7.55481398,119.859216 C7.55584339,119.752157 7.51255913,119.648946 7.43802492,119.574681 L7.11532928,119.251471 C7.04079506,119.176422 6.93782952,119.133407 6.83131005,119.133407 C6.72373667,119.133407 6.62334465,119.174902 6.54829573,119.250711 L6.06552677,119.73375 L5.80991437,119.657426 C5.86498783,119.5875 5.89545347,119.500172 5.89442406,119.414118 C5.89545347,119.305515 5.85344373,119.204363 5.77790461,119.129314 L5.45366486,118.805074 C5.37964535,118.730809 5.27719451,118.688284 5.16964563,118.688284 C5.06258695,118.688284 4.96244003,118.730049 4.88817542,118.805588 L4.4451123,119.248407 L2.628252,118.704167 C2.58754128,118.692132 2.54450212,118.685735 2.49839924,118.685735 C2.36933079,118.687279 2.2497231,118.735172 2.16239479,118.82174 L1.52364565,119.460735 C1.45114575,119.533211 1.41043502,119.631299 1.41121934,119.724265 C1.40891542,119.861275 1.48472414,119.987794 1.60612103,120.052843 L5.42680215,122.187279 C5.4455031,122.19777 5.49954715,122.237745 5.51952261,122.257721 L6.60876133,123.346716 C5.58993918,124.420074 4.68226884,125.459657 3.97491685,126.363971 C3.90883851,126.44799 3.84633859,126.529926 3.78486809,126.611127 L0.829087768,126.342721 C0.814749553,126.340931 0.798597614,126.339632 0.778107445,126.339632 C0.642617432,126.342451 0.51021565,126.396005 0.41188245,126.491005 L0.114015205,126.788603 C0.0405104022,126.860588 -0.000984639787,126.957892 4.47705876e-05,127.051887 C-0.00225914787,127.195319 0.0845544604,127.327966 0.214921931,127.386103 L2.29428187,128.373676 C2.31219851,128.382647 2.35881609,128.415686 2.37393862,128.430784 L2.54656094,128.602132 C2.49251689,128.754265 2.46511497,128.886152 2.46357085,129.001936 C2.46305615,129.156863 2.51300706,129.289534 2.60854615,129.385074 C2.71609502,129.488039 2.84312917,129.536446 3.00038386,129.536446 C3.11359449,129.534657 3.24420706,129.50777 3.39685391,129.453995 L3.57202524,129.628922 C3.58560365,129.64326 3.61812812,129.688848 3.62658399,129.707034 L4.61209736,131.781814 C4.67229336,131.914216 4.80212162,132 4.94349398,132 C5.04337129,132 5.13685156,131.960809 5.20829754,131.889118 L5.51332164,131.583064 C5.60371367,131.487794 5.65699791,131.356422 5.65903222,131.217868 C5.65903222,131.206609 5.56888529,130.205376 5.38859141,128.214167 C5.46952268,128.153211 5.55148335,128.090466 5.63572343,128.024902 C6.54133495,127.316495 7.58116198,126.408039 8.65245955,125.39076 L9.74248259,126.481814 C9.76015414,126.498701 9.80137957,126.55277 9.81343838,126.575294 L11.9437786,130.389069 C12.0088276,130.512255 12.1340725,130.588333 12.2728958,130.588333 C12.3720134,130.588333 12.4662534,130.549142 12.5384837,130.476422 L13.1818162,129.833554 C13.265321,129.74625 13.3121837,129.627647 13.3134582,129.498064 C13.3134582,129.454534 13.3073307,129.412279 13.2960562,129.372574 L12.7518168,127.555196 L13.1946103,127.111618 C13.2691445,127.037574 13.3114238,126.934632 13.3114238,126.828873 C13.3114238,126.722574 13.2701739,126.622696 13.1951495,126.546618 L12.870395,126.222132 C12.7961304,126.147598 12.69341,126.105098 12.5876503,126.105098 C12.4980181,126.105098 12.4104447,126.135074 12.3420379,126.189118 L12.2659596,125.934534 L12.7492432,125.45125 C12.8235078,125.376716 12.8657872,125.27375 12.8657872,125.167721 C12.8657872,125.060931 12.8245373,124.960809 12.7492432,124.88576 L12.4260084,124.562525 C12.3514742,124.486961 12.2480184,124.444191 12.1417195,124.444191 C12.0349305,124.444191 11.9314502,124.487475 11.8584601,124.56201 L11.3198334,122.778431 C11.5047596,122.60223 11.6801761,122.434461 11.8479454,122.276446 C12.8169392,121.356961 13.5166197,120.693113 14.0139719,120.02826 Z" id="Shape-Copy" transform="translate(7.500000, 124.500000) scale(-1, 1) translate(-7.500000, -124.500000) "></path>
        </g>
    </g>
</svg>