<?xml version="1.0" encoding="UTF-8"?>
<svg width="18px" height="18px" viewBox="0 0 18 18" version="1.1" xmlns="http://www.w3.org/2000/svg" xmlns:xlink="http://www.w3.org/1999/xlink">
    <!-- Generator: sketchtool 47 (45396) - http://www.bohemiancoding.com/sketch -->
    <title>B90111A3-C34B-4F62-8CCD-CDFCF96EA783</title>
    <desc>Created with sketchtool.</desc>
    <defs></defs>
    <g id="Page-1" stroke="none" stroke-width="1" fill="none" fill-rule="evenodd">
        <g id="бронирование_1024_new" transform="translate(-715.000000, -189.000000)" fill-rule="nonzero" fill="#0191D0">
            <g id="Group-6-Copy" transform="translate(714.000000, 187.000000)">
                <path d="M17.8167663,5.54527977 C18.5556182,4.58040172 18.9978529,3.57862267 19,2.86292683 C18.9990882,2.63116212 18.9514412,2.45004304 18.8607943,2.31512195 C18.8512649,2.29862267 18.8251473,2.25543759 18.7790591,2.21288379 C18.7332357,2.16852224 18.6920592,2.14482066 18.6831475,2.14002869 C18.5380889,2.04556671 18.3515597,2 18.1139424,2 C17.3821787,2.00120516 16.3550624,2.43236729 15.3657696,3.1543759 C14.5661236,3.73816356 13.7664188,4.56031564 12.6593909,5.69879484 C12.4715971,5.89187948 12.2739797,6.0948924 12.06498,6.30777618 L9.92071815,5.68080344 C10.0162768,5.58694405 10.0670121,5.46611191 10.0657768,5.34737446 C10.0670121,5.2220373 10.015071,5.10120516 9.9256299,5.01426112 L9.53839513,4.63586801 C9.44895408,4.54800574 9.32539542,4.49764706 9.19757206,4.49764706 C9.068484,4.49764706 8.94801358,4.54622669 8.85795488,4.63497848 L8.27863213,5.2004878 L7.97189725,5.11113343 C8.03798539,5.02926829 8.07454417,4.92703013 8.07330888,4.82628407 C8.07454417,4.69913917 8.02413247,4.58071736 7.93348554,4.49285509 L7.54439783,4.11325681 C7.45557442,4.02631277 7.33263341,3.97652798 7.20357476,3.97652798 C7.07510434,3.97652798 6.95492803,4.02542324 6.86581051,4.1138594 L6.33413476,4.63228121 L4.15390241,3.99512195 C4.10504953,3.981033 4.05340254,3.97354376 3.99807909,3.97354376 C3.84319694,3.97535151 3.69966773,4.03142037 3.59487375,4.13276901 L2.82837478,4.88086083 C2.7413749,4.96571019 2.69252203,5.08054519 2.6934632,5.18938307 C2.6906985,5.34978479 2.78166897,5.49790531 2.92734524,5.57406026 L7.51216258,8.07291248 C7.53460372,8.08519369 7.59945658,8.13199426 7.62342713,8.1553802 L8.9305136,9.43030129 C7.70792702,10.6869154 6.61872261,11.9039885 5.76990022,12.9626973 C5.69060621,13.0610617 5.61560631,13.1569871 5.54184171,13.2520516 L1.99490532,12.9378192 C1.97769946,12.9357245 1.95831714,12.9342037 1.93372893,12.9342037 C1.77114092,12.9375036 1.61225878,13.0002009 1.49425894,13.1114204 L1.13681825,13.4598278 C1.04861248,13.5441033 0.998818432,13.6580201 1.00005372,13.7680631 C0.997289023,13.9359828 1.10146535,14.0912769 1.25790632,14.15934 L3.75313824,15.3155237 C3.77463821,15.3260258 3.83057931,15.3647059 3.84872635,15.3823816 L4.05587313,15.5829842 C3.99102027,15.7610904 3.95813796,15.915495 3.95628503,16.0510473 C3.95566738,16.2324247 4.01560848,16.3877475 4.13025538,16.4995983 C4.25931403,16.6201435 4.411755,16.6768149 4.60046063,16.6768149 C4.73631338,16.6747202 4.89304847,16.6432425 5.07622469,16.5802869 L5.28643029,16.7850789 C5.30272438,16.8018651 5.34175374,16.8552367 5.35190079,16.876528 L6.53451684,19.305538 C6.60675203,19.4605452 6.76254594,19.5609756 6.93219277,19.5609756 C7.05204555,19.5609756 7.16422187,19.5150933 7.24995705,19.4311621 L7.61598596,19.0728551 C7.72445641,18.9613199 7.7883975,18.8075179 7.79083867,18.6453085 C7.79083867,18.6321282 7.68266235,17.4599522 7.4663097,15.1287805 C7.56342721,15.0574175 7.66178002,14.9839598 7.76286812,14.9072023 C8.84960195,14.0778479 10.0973944,13.0142898 11.3829515,11.8233286 L12.6909791,13.10066 C12.712185,13.1204304 12.7616555,13.1837303 12.7761261,13.2101004 L15.3325344,17.6750072 C15.4105931,17.8192253 15.560887,17.9082927 15.727475,17.9082927 C15.846416,17.9082927 15.9595041,17.8624103 16.0461805,17.777274 L16.8181794,17.0246485 C16.9183852,16.922439 16.9746204,16.7835868 16.9761498,16.6318795 C16.9761498,16.5809182 16.9687969,16.5314491 16.9552675,16.4849641 L16.3021801,14.3573027 L16.8335323,13.8379914 C16.9229734,13.7513056 16.9737086,13.6307891 16.9737086,13.5069727 C16.9737086,13.3825251 16.9242087,13.2655954 16.8341794,13.176528 L16.444474,12.7966428 C16.3553565,12.7093831 16.232092,12.659627 16.1051804,12.659627 C15.9976217,12.659627 15.8925336,12.6947202 15.8104455,12.7579914 L15.7191515,12.4599426 L16.2990919,11.8941463 C16.3882094,11.8068867 16.4389446,11.6863415 16.4389446,11.5622095 C16.4389446,11.4371879 16.3894447,11.3199713 16.2990919,11.232109 L15.9112101,10.8536872 C15.821769,10.7652224 15.6976221,10.7151506 15.5700635,10.7151506 C15.4419166,10.7151506 15.3177403,10.765825 15.2301522,10.8530846 L14.5838001,8.76499283 C14.8057115,8.55870875 15.0162113,8.36229555 15.2175345,8.17730273 C16.3803271,7.10083214 17.2199436,6.32364419 17.8167663,5.54527977 Z" id="Shape"></path>
            </g>
        </g>
    </g>
</svg>