<?xml version="1.0" encoding="UTF-8"?>
<svg width="15px" height="15px" viewBox="0 0 15 15" version="1.1" xmlns="http://www.w3.org/2000/svg" xmlns:xlink="http://www.w3.org/1999/xlink">
    <!-- Generator: sketchtool 45 (43475) - http://www.bohemiancoding.com/sketch -->
    <title>BF637B9D-C637-49A0-9C78-0DD8957EAF43</title>
    <desc>Created with sketchtool.</desc>
    <defs></defs>
    <g id="Page-1" stroke="none" stroke-width="1" fill="none" fill-rule="evenodd">
        <g id="выдача-по-стране" transform="translate(-1283.000000, -529.000000)" fill-rule="nonzero" fill="#15AD89">
            <g id="airplane-shape" transform="translate(1283.000000, 529.000000)">
                <path d="M13.32127,2.87861665 C13.9065457,2.09518932 14.2568583,1.28180043 14.2585591,0.700695202 C14.2578368,0.512515147 14.2200936,0.365456523 14.1482884,0.2559081 C14.1407398,0.2425116 14.1200509,0.207447717 14.0835425,0.172896395 C14.0472439,0.136877284 14.0146263,0.11763292 14.0075669,0.113742111 C13.8926599,0.0370442351 13.7449023,4.65965222e-05 13.5566757,4.65965222e-05 C12.9770149,0.00102512349 12.1633931,0.351104794 11.3797327,0.93733564 C10.7462996,1.41133876 10.1128199,2.07888054 9.23589666,3.00326234 C9.08713726,3.16003634 8.93059624,3.32487154 8.7650388,3.49772134 L7.06647908,2.98865433 L7.0715814,2.983785 C7.14217513,2.91244572 7.18236463,2.81433675 7.1813861,2.71792854 C7.18236463,2.61616174 7.1412199,2.51805276 7.07036989,2.44745903 L6.76362498,2.14022486 C6.69277497,2.06888558 6.59489897,2.02799714 6.49364473,2.02799714 C6.39138866,2.02799714 6.29595899,2.06744109 6.22461971,2.13950261 L5.76571386,2.59866474 L5.5227363,2.52611396 C5.57508749,2.45964402 5.60404723,2.37663231 5.6030687,2.29483212 C5.60404723,2.19159752 5.56411401,2.0954456 5.49230877,2.02410633 L5.18409607,1.71589363 C5.11373532,1.6452999 5.01634859,1.60487742 4.91411582,1.60487742 C4.81234902,1.60487742 4.71715232,1.64457765 4.64655859,1.71638289 L4.22539593,2.13731258 L2.49834243,1.61997469 C2.45964402,1.60853524 2.41873227,1.6024544 2.37490824,1.6024544 C2.2522196,1.60392219 2.13852409,1.64944699 2.05551238,1.73173645 L1.4483364,2.33914541 C1.37942014,2.40803837 1.34072173,2.50127801 1.34146728,2.58964832 C1.33927724,2.71988559 1.41133876,2.84015122 1.52673505,2.9019848 L5.15856118,4.93091387 C5.17633775,4.94088553 5.22771042,4.97888499 5.2466985,4.99787307 L6.28209652,6.03303811 C5.3136344,7.05333886 4.4508299,8.0415346 3.77844209,8.90114724 C3.71562997,8.98101368 3.65621941,9.05889977 3.59778737,9.13608691 L0.788110277,8.88094765 C0.774480795,8.87924688 0.759127241,8.87801207 0.739649894,8.87801207 C0.610857107,8.88069137 0.484999901,8.93159807 0.391527277,9.02190213 L0.108383511,9.30478961 C0.0385120256,9.37321661 -0.000931930443,9.4657107 4.65965222e-05,9.55505954 C-0.00214344002,9.69140096 0.0803790007,9.81749115 0.204302451,9.87275462 L2.18088032,10.8115115 C2.19791135,10.8200386 2.24222465,10.8514447 2.25659967,10.8657964 L2.42068933,11.0286745 C2.36931666,11.1732869 2.3432692,11.2986548 2.34180141,11.4087158 C2.34131215,11.5559841 2.38879401,11.6820976 2.47961063,11.7729142 L2.48667,11.7790183 L2.48860376,11.7804628 C2.5818434,11.8707902 2.70259829,11.9168043 2.85207993,11.9168043 C2.9596946,11.9151035 3.08385103,11.8895453 3.2289526,11.8384289 L3.39546527,12.0047086 C3.40837251,12.0183381 3.4392893,12.0616728 3.4473272,12.0789602 L4.38412698,14.0511813 C4.44134751,14.1770385 4.5647584,14.2585824 4.69914277,14.2585824 L4.70107652,14.2585824 C4.79408318,14.2585824 4.88294275,14.2213285 4.95085718,14.153181 L5.24080404,13.8622557 C5.32672803,13.7716953 5.37737845,13.6468166 5.3793122,13.5151116 C5.3793122,13.4990591 5.37858996,13.4866178 5.37810069,13.4797914 L5.12223919,10.6598864 C5.19917005,10.6019436 5.27707943,10.5423 5.35715556,10.4799772 C6.218003,9.80658756 7.20643173,8.94303751 8.22477542,7.97604319 L9.26091899,9.01316528 C9.27771704,9.02921778 9.31690471,9.08061375 9.32836745,9.10202485 L11.3534057,12.7272809 C11.4152393,12.8443779 11.5342934,12.9166957 11.6662548,12.9166957 C11.7604729,12.9166957 11.8500547,12.8794418 11.9187147,12.8103159 L12.5302475,12.1992258 C12.6096247,12.1162374 12.6541709,12.0034971 12.6553824,11.8803192 C12.6553824,11.8389415 12.6495579,11.7987753 12.6388407,11.7610321 L12.1215028,10.0334893 L12.5424092,9.6118374 C12.6132592,9.54145335 12.6534487,9.44360065 12.6534487,9.34306866 C12.6534487,9.2420241 12.6142377,9.14708369 12.5429217,9.07476588 L12.2342198,8.7663202 C12.163626,8.69547019 12.065983,8.65507101 11.965451,8.65507101 C11.8802493,8.65507101 11.7970046,8.68356478 11.7319792,8.73493745 L11.6596614,8.49293841 L12.1190565,8.0335433 C12.1896502,7.96269329 12.2298397,7.86481729 12.2298397,7.76402901 C12.2298397,7.66251849 12.1906287,7.56734509 12.1190565,7.49600582 L11.811799,7.18874835 C11.740949,7.11691981 11.642607,7.07626435 11.5415625,7.07626435 C11.4400519,7.07626435 11.3416867,7.11740907 11.2723045,7.18825909 L11.2691359,7.19117137 L10.7603019,5.49284463 C10.9360873,5.32535343 11.1028329,5.16587683 11.2623095,5.01567294 C12.1834063,4.14163868 12.8485017,3.51060528 13.32127,2.87861665 Z" id="Shape"></path>
            </g>
        </g>
    </g>
</svg>