<?xml version="1.0" encoding="UTF-8"?>
<svg width="15px" height="18px" viewBox="0 0 15 18" version="1.1" xmlns="http://www.w3.org/2000/svg" xmlns:xlink="http://www.w3.org/1999/xlink">
    <!-- Generator: sketchtool 47 (45396) - http://www.bohemiancoding.com/sketch -->
    <title>B908456F-E317-45A7-BA85-9240AF7D46AC</title>
    <desc>Created with sketchtool.</desc>
    <defs></defs>
    <g id="Page-1" stroke="none" stroke-width="1" fill="none" fill-rule="evenodd">
        <g id="выдача-по-стране" transform="translate(-1042.000000, -720.000000)" fill-rule="nonzero" fill="#FFFFFF">
            <g id="Group-23" transform="translate(1018.000000, 720.000000)">
                <g id="baby-stroller-copy" transform="translate(23.000000, 0.000000)">
                    <path d="M9,0 L9,7 L16,7 C16,3.13248021 12.8675198,0 9,0 Z" id="Shape"></path>
                    <path d="M0.990805091,8.69231685 C0.990805091,8.69231685 2.68185911,12.1361679 2.88766274,12.4280903 C1.90339548,12.9315374 1.23682996,13.9088428 1.23682996,15.0384554 C1.23682996,16.6757592 2.63710825,18 4.36842547,18 C5.94762331,18 7.24502076,16.8957719 7.46420351,15.4615446 L9.32524369,15.4615446 C9.54446838,16.8957719 10.8418239,18 12.4210217,18 C14.1523389,18 15.5526172,16.6757592 15.5526172,15.0384554 C15.5526172,14.1584443 15.1454977,13.3715231 14.5012866,12.8299992 C15.4363153,11.6834503 16,10.2534669 16,8.69231685 L0.990805091,8.69231685 Z M4.36842547,16.3076832 C3.6257793,16.3076832 3.0263191,15.7407747 3.0263191,15.0384554 C3.0263191,14.3361362 3.6257793,13.7692277 4.36842547,13.7692277 C5.11107164,13.7692277 5.71053183,14.3361362 5.71053183,15.0384554 C5.71053183,15.7407747 5.1110297,16.3076832 4.36842547,16.3076832 Z M12.4210637,16.3076832 C11.6784175,16.3076832 11.0789573,15.7407747 11.0789573,15.0384554 C11.0789573,14.3361362 11.6784175,13.7692277 12.4210637,13.7692277 C13.1637098,13.7692277 13.76317,14.3361362 13.76317,15.0384554 C13.76317,15.7407747 13.1636679,16.3076832 12.4210637,16.3076832 Z" id="Shape"></path>
                </g>
            </g>
        </g>
    </g>
</svg>