<?xml version="1.0" encoding="UTF-8"?>
<svg width="686px" height="228px" viewBox="0 0 686 228" version="1.1" xmlns="http://www.w3.org/2000/svg" xmlns:xlink="http://www.w3.org/1999/xlink">
    <!-- Generator: sketchtool 49.1 (51147) - http://www.bohemiancoding.com/sketch -->
    <title>7DA3788A-77EB-45F4-AD83-EB78076743F2</title>
    <desc>Created with sketchtool.</desc>
    <defs>
        <polygon id="path-1" points="0.00885127462 0.0677735937 41.6888063 0.0677735937 41.6888063 40.7499456 0.00885127462 40.7499456"></polygon>
        <polygon id="path-3" points="0.0975388746 0.0154335721 20.7626314 0.0154335721 20.7626314 39.441351 0.0975388746 39.441351"></polygon>
        <polygon id="path-5" points="0 0.0138818842 29.3205832 0.0138818842 29.3205832 22.7212602 0 22.7212602"></polygon>
        <polygon id="path-7" points="0.0139192308 0.00856153846 10.8831885 0.00856153846 10.8831885 6 0.0139192308 6"></polygon>
        <polygon id="path-9" points="0.01645 0.00998846154 12.86195 0.00998846154 12.86195 7 0.01645 7"></polygon>
        <polygon id="path-11" points="0 0.113716216 56.9684996 0.113716216 56.9684996 51 0 51"></polygon>
        <polygon id="path-13" points="0 0.0841932899 42.1783767 0.0841932899 42.1783767 37.7594149 0 37.7594149"></polygon>
    </defs>
    <g id="Page-1" stroke="none" stroke-width="1" fill="none" fill-rule="evenodd">
        <g id="пляжный_отдых" transform="translate(-549.000000, -109.000000)">
            <g id="Group-8" transform="translate(549.000000, 98.000000)">
                <g id="Page-1" transform="translate(470.692215, 38.304373) rotate(112.000000) translate(-470.692215, -38.304373) translate(449.692215, 17.304373)">
                    <g id="Group-3">
                        <mask id="mask-2" fill="white">
                            <use xlink:href="#path-1"></use>
                        </mask>
                        <g id="Clip-2"></g>
                        <path d="M20.8133465,33.5768828 L34.5816494,40.7499456 C34.5816494,40.7499456 42.842802,34.7002945 41.5518634,18.8850261 C40.2611384,3.06975774 21.7600348,-5.14028393 8.93820662,3.67500167 C-3.21882557,12.03303 -1.5601457,26.1445217 5.58219346,31.5027106 C12.7245326,36.8608995 19.1783712,34.5276434 20.8133465,33.5768828" id="Fill-1" fill="#F36084" mask="url(#mask-2)"></path>
                    </g>
                    <g id="Group-6" transform="translate(20.928367, 1.308023)">
                        <mask id="mask-4" fill="white">
                            <use xlink:href="#path-3"></use>
                        </mask>
                        <g id="Clip-5"></g>
                        <path d="M0.0975388746,32.2722424 L13.726768,39.441351 C13.726768,39.441351 19.9194507,35.8984887 20.6990852,23.0294619 C21.4785084,10.160435 14.9966337,2.82691596 6.95083921,0.0154335721 C6.95083921,0.0154335721 18.6673424,5.54343901 18.0712011,19.7283923 C17.4748483,33.9133455 4.10119892,29.5945176 4.10119892,29.5945176 L0.0975388746,32.2722424 Z" id="Fill-4" fill="#E43C65" mask="url(#mask-4)"></path>
                    </g>
                    <g id="Group-9" transform="translate(0.000000, 11.772207)">
                        <mask id="mask-6" fill="white">
                            <use xlink:href="#path-5"></use>
                        </mask>
                        <g id="Clip-8"></g>
                        <path d="M29.0348678,8.00195451 C27.5307125,2.3052118 23.1440727,0.709666032 20.7218132,0.262455409 C20.1046254,0.115787281 19.4680306,0.0293124309 18.8175735,0.0155358003 C14.7192675,-0.0715748944 10.9553604,3.29331413 11.3057541,7.51659321 C11.6141348,11.2326803 15.9188809,14.9532184 19.5027927,12.2856388 C22.2684082,10.2269863 20.8951974,4.74727852 17.0786139,6.18789018 C16.9828581,6.22392137 16.9564133,6.40640874 17.0914098,6.38945289 C19.5243324,6.08424753 21.1536741,8.7923092 19.4720826,10.6589367 C18.1528277,12.1232865 15.7559468,11.9923026 14.2976434,10.8429077 C11.9918264,9.02524023 12.0323467,5.71143072 14.0238116,3.7116998 C16.0909855,1.63566755 19.2087008,1.2270315 21.8487034,2.42941342 C23.0534352,2.97814721 24.0116331,3.79753881 24.8132948,4.76253879 C26.0470306,7.49984931 26.0476704,11.0410792 24.5089662,14.4358529 C21.6443959,20.7557232 12.2488103,22.5208275 5.66042664,17.8520334 C-0.927956973,13.1832393 0.827210771,2.3219557 0.827210771,2.3219557 C0.827210771,2.3219557 -2.41739701,10.1655213 3.94513938,18.0150215 C10.3076758,25.8645217 20.7851528,21.5244592 20.7851528,21.5244592 C20.7851528,21.5244592 31.1545047,16.030127 29.0348678,8.00195451" id="Fill-7" fill="#E43C65" mask="url(#mask-6)"></path>
                    </g>
                    <path d="M16.2805713,1.08545767 C12.225654,1.87166906 8.39991456,3.81433397 5.61765658,6.83274511 C3.11890649,9.54370988 1.29259829,13.0389895 1.30812115,16.758901 C1.32342842,20.3888333 2.44366185,24.3875326 5.39753373,26.7663963 C5.57669346,26.9105316 5.87723338,26.7048649 5.77525678,26.4888728 C4.31007079,23.3865935 3.48886811,20.3133941 4.24797933,16.9184191 C4.82361891,14.343582 5.9966732,11.884854 7.80120627,9.90741957 C11.770101,5.55891829 17.7845645,4.01346819 23.5687721,4.76448867 C24.3968738,4.87195793 25.0378388,4.36053068 25.3187596,3.6331113 C26.8820414,-0.412790253 18.2222231,0.708893808 16.2805713,1.08545767" id="Fill-10" fill="#FF95AE"></path>
                    <path d="M30.5581847,4.36727456 C30.3235186,3.78968374 29.7381858,3.16379027 29.1020257,3.2853406 C28.7491045,3.35269218 28.337363,3.3592686 28.0059613,3.51755615 C27.8239671,3.6044102 27.6706656,3.75498747 27.5757744,3.94910515 C27.5101909,4.08244767 27.4745299,4.22508789 27.4687913,4.37679902 C27.4669468,4.42555522 27.4737101,4.47227045 27.4794487,4.51921246 C27.4708408,4.50469899 27.4796536,4.57885376 27.5067068,4.74711932 C27.6165592,5.1251499 27.7243621,5.5038608 27.8299106,5.88325202 C27.99141,6.4603893 28.4285651,7.01439572 28.9745478,7.15680916 C29.6070188,7.32167313 30.2030089,6.92187234 30.5022337,6.32001681 C30.8018684,5.71725419 30.8121158,4.99203416 30.5581847,4.36727456" id="Fill-12" fill="#FF95AE"></path>
                    <path d="M21.4595645,14.7507836 C19.3767071,12.7640673 15.547662,13.9897838 13.8470764,15.8587438 C12.4687598,17.3731734 11.2501595,21.9347565 14.4639042,22.2358761 C14.5579448,22.2447078 14.6338755,22.1378861 14.6046378,22.0567184 C14.3951738,21.4769791 14.0187932,20.9632674 13.8128203,20.3892056 C13.3526542,19.1069241 13.7901284,17.6875406 14.6672588,16.6830377 C15.4064921,15.8364543 16.3979549,15.2968783 17.5279694,15.1147766 C18.8227185,14.9059695 19.8161451,15.3635367 21.053728,15.5515262 C21.4861839,15.6171332 21.7512867,15.0289828 21.4595645,14.7507836" id="Fill-14" fill="#FF95AE"></path>
                </g>
                <g id="Page-1" transform="translate(0.000000, 19.000000)">
                    <path d="M27,6.27455965 C27,6.27455965 23.883138,-0.364475421 16,0.0157282121 C17.5050749,1.97239794 17.6932092,4.39915106 17.3942504,7 L27,6.27455965 Z" id="Fill-1" fill="#E94943"></path>
                    <g id="Group-5" transform="translate(14.000000, 20.000000)">
                        <mask id="mask-8" fill="white">
                            <use xlink:href="#path-7"></use>
                        </mask>
                        <g id="Clip-4"></g>
                        <path d="M10.8831885,1.73771538 C10.8831885,1.73771538 7.37334231,7.04863846 0.0139192308,5.81379231 C1.59834231,4.3161 1.98926538,2.26456154 1.93870769,0.00856153846 L10.8831885,1.73771538 Z" id="Fill-3" fill="#E94943" mask="url(#mask-8)"></path>
                    </g>
                    <path d="M7.54316293,10.1757807 C5.19311339,7.76525485 3.09088806,5.90712737 0,5.6675116 C1.98566674,9.6848336 2.24292978,15.7952568 0,20.3327042 C3.09088806,20.0926463 5.19311339,18.2347399 7.54316293,15.8246562 C25.2174847,33.4786356 37,12.9998869 37,12.9998869 C37,12.9998869 25.2174847,-7.47886185 7.54316293,10.1757807" id="Fill-6" fill="#E94943"></path>
                    <path d="M34,12.999737 C34,14.6571404 32.6569362,16 30.9998685,16 C29.3433268,16 28,14.6571404 28,12.999737 C28,11.3428596 29.3433268,10 30.9998685,10 C32.6569362,10 34,11.3428596 34,12.999737" id="Fill-8" fill="#FFFFFE"></path>
                    <path d="M33,12.4996328 C33,13.3283966 32.3273773,14 31.4998164,14 C30.6718884,14 30,13.3283966 30,12.4996328 C30,11.6719706 30.6718884,11 31.4998164,11 C32.3273773,11 33,11.6719706 33,12.4996328" id="Fill-10" fill="#1A1919"></path>
                </g>
                <g id="Page-1-Copy" transform="translate(643.000000, 193.000000)">
                    <path d="M32,7.17092531 C32,7.17092531 28.3164358,-0.416543338 19,0.0179750995 C20.7787248,2.25416908 21.0010654,5.02760121 20.6477504,8 L32,7.17092531 Z" id="Fill-1" fill="#E94943"></path>
                    <g id="Group-5" transform="translate(16.000000, 23.000000)">
                        <mask id="mask-10" fill="white">
                            <use xlink:href="#path-9"></use>
                        </mask>
                        <g id="Clip-4"></g>
                        <path d="M12.86195,2.02733462 C12.86195,2.02733462 8.71395,8.22341154 0.01645,6.78275769 C1.88895,5.03545 2.35095,2.64198846 2.2912,0.00998846154 L12.86195,2.02733462 Z" id="Fill-3" fill="#E94943" mask="url(#mask-10)"></path>
                    </g>
                    <path d="M8.76637854,12.2521478 C6.03523989,9.48004307 3.59211315,7.34319648 0,7.06763834 C2.30766675,11.6875586 2.60664812,18.7145454 0,23.9326098 C3.59211315,23.6565433 6.03523989,21.5199509 8.76637854,18.7483546 C29.3068065,39.0504309 43,15.4998699 43,15.4998699 C43,15.4998699 29.3068065,-8.05069113 8.76637854,12.2521478" id="Fill-6" fill="#E94943"></path>
                    <path d="M40,15.4996932 C40,17.4333304 38.4330923,19 36.4998466,19 C34.5672146,19 33,17.4333304 33,15.4996932 C33,13.5666696 34.5672146,12 36.4998466,12 C38.4330923,12 40,13.5666696 40,15.4996932" id="Fill-8" fill="#FFFFFE"></path>
                    <path d="M39,14.4996328 C39,15.3283966 38.3273773,16 37.4998164,16 C36.6718884,16 36,15.3283966 36,14.4996328 C36,13.6719706 36.6718884,13 37.4998164,13 C38.3273773,13 39,13.6719706 39,14.4996328" id="Fill-10" fill="#1A1919"></path>
                </g>
                <g id="Page-1" transform="translate(36.393398, 210.068963) rotate(23.000000) translate(-36.393398, -210.068963) translate(7.893398, 184.068963)">
                    <g id="Group-3">
                        <mask id="mask-12" fill="white">
                            <use xlink:href="#path-11"></use>
                        </mask>
                        <g id="Clip-2"></g>
                        <path d="M18.0901262,40.0944311 C18.0901262,40.0944311 5.60667381,36.459877 1.19573333,25.8096068 C-3.21520714,15.1593365 5.8561619,13.722377 7.7704119,14.5675527 C7.7704119,14.5675527 5.9394,9.41149865 10.3503405,6.03056622 C14.761281,2.64940405 20.1706262,6.79120135 20.1706262,6.79120135 C20.1706262,6.79120135 20.5868167,0.113647297 27.99365,0.113647297 C35.4007095,0.113647297 36.2328643,5.60786351 36.2328643,5.60786351 C36.2328643,5.60786351 41.1430071,2.22693108 46.3028643,4.84722838 C51.4627214,7.46752568 49.5486976,15.9199716 49.5486976,15.9199716 C49.5486976,15.9199716 55.5407095,13.5532959 56.8722929,20.7380932 C58.2038762,27.9226608 45.3874714,38.9110932 38.5630786,41.1932284 C38.5630786,41.1932284 42.4745905,42.3765662 43.6396976,43.9826068 C44.8048048,45.5886473 42.974019,50.9137824 39.6451738,50.998323 C36.3161024,51.0828635 37.8141619,48.0398635 28.909269,47.7017014 C20.0043762,47.3637689 17.7571738,50.4065392 16.6753048,50.4065392 C15.5934357,50.4065392 10.1838643,48.4625662 12.0981143,41.5313905 L18.0901262,40.0944311 Z" id="Fill-1" fill="#FFAA13" mask="url(#mask-12)"></path>
                    </g>
                    <path d="M0.00613335158,19 C0.00613335158,19 -0.370944217,25.1966733 4.78816251,31.8269194 C9.94749184,38.4571655 17.6733527,40.2946996 17.6733527,40.2946996 C17.6733527,40.2946996 23.4339137,41.2709408 26,40.92633 L20.5944795,32.7720239 C20.5944795,32.7720239 22.6147605,36.5046832 19.6664769,36.3897349 C16.7179708,36.2750207 3.76956337,31.2416429 0.00613335158,19" id="Fill-4" fill="#FF8D00"></path>
                    <path d="M12,5.25037047 C12,5.25037047 14.9690057,3.99922166 19.548881,7.09065913 C19.548881,7.09065913 27.8910824,40.0602635 28,41 C28,41 26.1979689,40.8900089 25.81898,40.9278183 C25.4402134,40.9658569 20.4213334,32.9463597 18.9491671,30.5856756 C18.9491671,30.5856756 23.3654437,35.8130028 24.0198386,34.9697377 C24.6740112,34.1267017 19.0580848,13.4983284 16.6592295,9.78864926 C14.260152,6.07897012 12,5.25037047 12,5.25037047" id="Fill-6" fill="#FF8D00"></path>
                    <path d="M27.9905044,0.00695178303 C27.9905044,0.00695178303 33.8659113,-0.429666564 36,5.61755514 C36,5.61755514 32.6097746,35.9310799 30.7188517,41 L28.7739654,41 L27,33.5608989 C27,33.5608989 28.3415971,37.9118756 29.2600768,37.2335619 C30.1785566,36.5554787 32.9879592,9.07294582 31.7454786,5.68206867 C30.5027777,2.29096111 27.9905044,0.00695178303 27.9905044,0.00695178303" id="Fill-8" fill="#FF8D00"></path>
                    <path d="M41.1668089,4.03167705 C41.1668089,4.03167705 45.2966673,3.58747099 47.8618819,6.02591761 C50.4270965,8.46436422 50.2063724,15.1427725 49.6267748,16.0401007 C49.0474021,16.9374289 37.678198,37.5707201 32.5455188,41 L31,41 C31,41 33.0123919,31.185401 33.1255664,30.4567933 C33.238966,29.7281857 32.1038455,34.90777 33.1525663,35.6928465 C34.2010621,36.4779229 47.0053104,18.5176411 47.1155599,12.7976023 C47.2260345,7.07756344 42.9998765,4.42170048 41.1668089,4.03167705" id="Fill-10" fill="#FF8D00"></path>
                    <path d="M12.4961522,42.3169569 C12.4961522,42.3169569 11.154498,45.2929216 12.8836765,48.4300667 C14.6128549,51.5669769 17.0316875,51.3940486 17.0316875,51.3940486 C17.0316875,51.3940486 21.4878801,48.2999006 28.4686957,48.6079291 C35.4492871,48.9159577 36.9052486,50.7415732 37.1150361,50.9102723 C37.3250478,51.0787364 38.3630032,51.970398 39.7925171,51.9992977 C41.2218069,52.0279625 42.8732116,51.1821174 43.4772473,48.9159577 C44.0812831,46.6500329 44.5335815,44.8288816 42.6304766,43.7884923 C40.7275959,42.7481029 39.0228478,42.1151289 38.3080908,42 C38.3080908,42 42.2115739,43.3256271 42.2115739,46.4954312 C42.2115739,49.6652354 36.7687522,46.2647035 34.2396466,45.4002969 C31.7107652,44.5358903 23.0792174,44.2475981 19.7806666,46.2647035 C16.4821158,48.2820439 13.0183798,46.5957579 12.4961522,42.3169569" id="Fill-12" fill="#FF8D00"></path>
                    <path d="M32,41.6497603 C32,41.6497603 34.8948,42.2190914 38.0902138,41.9059941 C41.285405,41.5928968 48.4259858,35.4314483 50.4672652,33.0578041 C52.5087672,30.6841598 58.3827617,24.7647873 54.9410672,18.063716 C54.9410672,18.063716 53.3019424,14.9492218 48.9049639,16.3724335 C48.9049639,16.3724335 52.482714,15.5183208 53.0834963,19.3896796 C53.6842786,23.2610383 47.4172594,33.1100256 39.8725199,37.835265 C32.3277804,42.5607365 34.1555126,39.6920318 34.1555126,39.6920318 L32,41.6497603 Z" id="Fill-14" fill="#FF8D00"></path>
                    <path d="M39.1146892,13.732207 C37.8340797,16.3383228 37.4695565,19.7758248 36.7873839,22.6070069 C36.1350194,25.313792 35.3053992,28.0406189 35.0014023,30.8125973 C34.9772828,31.0314437 35.2710402,31.0583964 35.3641051,30.8946071 C36.7061512,28.5322172 37.6254231,25.9288658 38.6891846,23.4305606 C39.8059635,20.8078586 41.4135517,18.0266656 41.9726238,15.2362581 C42.2761656,13.722071 39.9736624,11.9841997 39.1146892,13.732207" id="Fill-16" fill="#FFD26D"></path>
                    <path d="M41.6489701,7 C39.6570541,7 39.3648382,10 41.350829,10 C43.3430143,10 43.6352302,7 41.6489701,7" id="Fill-18" fill="#FFD26D"></path>
                    <path d="M50.5794717,19.3129837 C49.5977136,20.2433002 49.0244194,21.64229 48.3094981,22.8135046 C47.3691118,24.354268 46.4020198,25.8720665 45.4242019,27.3854126 C43.629675,30.1627706 41.8364616,32.9408316 40.0423725,35.7184239 C39.8856414,35.9609623 40.2030437,36.106954 40.3553968,35.9040185 C42.2672531,33.3560761 44.1837062,30.8121174 46.0964381,28.264878 C47.1309506,26.8872129 48.1757514,25.5224362 49.2417853,24.1728915 C50.1186912,23.0628388 51.2954875,22.0015281 51.8751298,20.6880711 C52.3076725,19.7080753 51.5535684,18.3899316 50.5794717,19.3129837" id="Fill-20" fill="#FFD26D"></path>
                    <path d="M28.4366525,21.1046447 C28.3041241,19.385005 28.2209201,17.660443 28.0141559,15.9466204 C27.8193491,14.3343743 27.8435131,12.8501055 26.7997272,11.4841933 C26.1627438,10.6505506 24.9037238,10.995105 24.4356394,11.7493212 C23.5854148,13.1197081 24.1892661,14.5607957 24.4924373,16.0173212 C24.7933665,17.4644497 25.1451149,18.8992727 25.5090698,20.3345432 C26.397907,23.8380351 27.2416547,27.3410795 28.3108501,30.8047463 C28.4222039,31.1649623 29.0088664,30.9754574 28.9998983,30.6505918 C28.9132067,27.4614498 28.6820294,24.2866271 28.4366525,21.1046447" id="Fill-22" fill="#FFD26D"></path>
                    <path d="M24.6146491,2.43527052 C23.0029378,3.89500457 22.1037394,7.59464594 24.330615,8.9682625 C24.513902,9.08123841 24.7962367,8.86892897 24.7925952,8.70266253 C24.77633,7.92398138 24.5954707,7.18239045 24.892614,6.41841749 C25.1681514,5.70986667 25.6670317,5.29846382 26.3144837,4.84634701 C27.9931978,3.6743818 26.2627749,0.942496353 24.6146491,2.43527052" id="Fill-24" fill="#FFD26D"></path>
                    <path d="M21.9431762,29.3770751 C20.3178701,26.7810511 18.0867012,24.5279153 16.4063586,21.9395967 C14.6870989,19.2914483 12.999848,16.6181441 11.5244533,13.8292597 C11.3045372,13.4138505 10.9043131,12.9800845 10.3760541,13.0007076 C10.2945355,13.0038804 10.2130169,13.0070532 10.1314983,13.010226 C9.6545914,13.0288095 9.31285803,13.354474 9.14636664,13.7746423 C8.55961688,15.2554298 9.87450742,16.6199571 10.6604481,17.8090744 C11.6499551,19.3064057 12.6887416,20.7953518 13.8251663,22.1884343 C14.9860005,23.6116582 16.2493086,24.9687068 17.5087021,26.3062654 C18.6828924,27.5529462 19.895309,28.9906743 21.3327077,29.9377528 C21.6721383,30.1614347 22.1688492,29.7374137 21.9431762,29.3770751" id="Fill-26" fill="#FFD26D" transform="translate(15.500000, 21.500000) rotate(8.000000) translate(-15.500000, -21.500000) "></path>
                    <path d="M15.9759014,32.804458 C14.2871801,30.5334973 12.0153437,28.647384 10.152833,26.5131275 C8.38799467,24.490761 6.9215622,22.1196407 5.12371734,20.1293073 C4.98989499,19.8170981 4.75278694,19.5495547 4.45640187,19.3873593 L4.11668172,19.2014776 C2.37519493,18.2488336 1.47369035,20.9188536 2.32400114,22.1094894 C4.05021961,24.526629 6.79941563,26.4159005 9.08360144,28.2747181 C11.1551534,29.9605123 13.3461576,31.9055032 15.8027856,32.9894375 C15.9098884,33.0368102 16.0587545,32.9158969 15.9759014,32.804458" id="Fill-30" fill="#FFD26D" transform="translate(9.000000, 26.000000) rotate(4.000000) translate(-9.000000, -26.000000) "></path>
                    <path d="M37.7510782,41.2310864 C34.0020277,39.9380748 29.9385643,39.8091262 26.04426,40.1831275 C22.4067681,40.532699 18.5397844,41.2414124 15.2722571,43.1391223 C14.9291576,43.3383378 14.854254,44.0815551 15.3783515,43.9926511 C19.0600115,43.3675527 22.6326173,42.2959196 26.3668692,42.0093112 C30.0799477,41.7244658 33.7445324,42.0493558 37.4519191,42.2289268 C37.8844931,42.2500824 38.2690286,41.40965 37.7510782,41.2310864" id="Fill-32" fill="#FFD26D"></path>
                </g>
                <g id="Page-1-Copy-2" transform="translate(410.478498, 29.239338) rotate(-121.000000) translate(-410.478498, -29.239338) translate(388.978498, 9.739338)">
                    <g id="Group-3">
                        <mask id="mask-14" fill="white">
                            <use xlink:href="#path-13"></use>
                        </mask>
                        <g id="Clip-2"></g>
                        <path d="M13.39358,29.6851423 C13.39358,29.6851423 4.15107299,26.9941887 0.885297863,19.1089343 C-2.38047726,11.2236799 4.33578916,10.1597829 5.75306288,10.7855346 C5.75306288,10.7855346 4.39741703,6.96809181 7.66319216,4.46491474 C10.9289673,1.96156759 14.933942,5.0280743 14.933942,5.0280743 C14.933942,5.0280743 15.2420814,0.0841422637 20.7259577,0.0841422637 C26.2100015,0.0841422637 26.8261128,4.15195382 26.8261128,4.15195382 C26.8261128,4.15195382 30.4614878,1.64877676 34.2817463,3.58879426 C38.1020049,5.52881177 36.6848986,11.7868395 36.6848986,11.7868395 C36.6848986,11.7868395 41.1212685,10.0345985 42.1071471,15.3540837 C43.0930257,20.6733987 33.6040071,28.8090218 28.5513585,30.4986706 C28.5513585,30.4986706 31.4473663,31.3747911 32.3099892,32.5638725 C33.172612,33.7529539 31.8171336,37.6955811 29.3525209,37.7581732 C26.8877407,37.8207654 27.9968751,35.567787 21.4038644,35.3174183 C14.8108537,35.0672196 13.1470685,37.320028 12.3460735,37.320028 C11.5450786,37.320028 7.5399364,35.8807479 8.95721013,30.7490393 L13.39358,29.6851423 Z" id="Fill-1" fill="#FFAA13" mask="url(#mask-14)"></path>
                    </g>
                    <path d="M0.00454101504,14.067233 C0.00454101504,14.067233 -0.274639933,18.6551302 3.54506303,23.5640364 C7.36493081,28.4729425 13.0850089,29.8334172 13.0850089,29.8334172 C13.0850089,29.8334172 17.350017,30.5562073 19.2498978,30.3010642 L15.2477548,24.2637735 C15.2477548,24.2637735 16.7435319,27.0273623 14.5606797,26.9422568 C12.3776626,26.8573246 2.7909119,23.130709 0.00454101504,14.067233" id="Fill-4" fill="#FF8D00"></path>
                    <path d="M8.88456821,3.88727288 C8.88456821,3.88727288 11.0827627,2.96094647 14.4736139,5.24978706 C14.4736139,5.24978706 20.6500186,29.6598453 20.7306591,30.355608 C20.7306591,30.355608 19.3964701,30.2741728 19.1158741,30.3021661 C18.8354426,30.3303292 15.1195608,24.3928483 14.0295973,22.6450434 C14.0295973,22.6450434 17.2993232,26.5152555 17.7838245,25.8909183 C18.2681613,25.2667508 14.1102378,9.99390161 12.3341717,7.24732684 C10.5579411,4.50075206 8.88456821,3.88727288 8.88456821,3.88727288" id="Fill-6" fill="#FF8D00"></path>
                    <path d="M20.7236288,0.00514696588 C20.7236288,0.00514696588 25.0736665,-0.318116824 26.6537046,4.15912931 C26.6537046,4.15912931 24.1436472,26.6026775 22.7436444,30.355608 L21.3036882,30.355608 L19.9902785,24.8478413 C19.9902785,24.8478413 20.9835711,28.0692204 21.6635957,27.5670101 C22.3436204,27.0649703 24.4236478,6.71743383 23.5037391,4.20689389 C22.5836674,1.69618335 20.7236288,0.00514696588 20.7236288,0.00514696588" id="Fill-8" fill="#FF8D00"></path>
                    <path d="M30.4791102,2.98497581 C30.4791102,2.98497581 33.5367775,2.65609423 35.4360129,4.461473 C37.3352482,6.26685177 37.1718284,11.2114162 36.7427054,11.8757807 C36.3137491,12.5401452 27.89621,27.8166355 24.0960734,30.355608 L22.9518012,30.355608 C22.9518012,30.355608 24.4417373,23.0890685 24.5255295,22.5496215 C24.6094883,22.0101744 23.7690671,25.8450386 24.5455197,26.4262941 C25.3218057,27.0075495 34.8018238,13.7101038 34.8834505,9.47509752 C34.9652437,5.24009126 31.836278,3.27374162 30.4791102,2.98497581" id="Fill-10" fill="#FF8D00"></path>
                    <path d="M9.25190972,31.3306575 C9.25190972,31.3306575 8.25857486,33.5340043 9.53882518,35.8566859 C10.8190755,38.1791936 12.6099325,38.0511609 12.6099325,38.0511609 C12.6099325,38.0511609 15.9092114,35.7603134 21.0776724,35.9883718 C26.2459674,36.2164302 27.3239332,37.5680806 27.4792558,37.6929822 C27.6347444,37.8177098 28.4032265,38.4778788 29.461611,38.4992756 C30.5198296,38.5204984 31.7424977,37.8942511 32.1897141,36.2164302 C32.6369305,34.5387833 32.9718035,33.190438 31.5627814,32.4201539 C30.1539253,31.6498697 28.8917627,31.1812279 28.3625705,31.0959887 C28.3625705,31.0959887 31.2526339,32.0774574 31.2526339,34.4243192 C31.2526339,36.771181 27.2228739,34.2534928 25.350373,33.6135029 C23.478038,32.9735129 17.0874067,32.760067 14.6452235,34.2534928 C12.2030402,35.7470927 9.63855693,34.4985991 9.25190972,31.3306575" id="Fill-12" fill="#FF8D00"></path>
                    <path d="M23.6921819,30.836678 C23.6921819,30.836678 25.8354359,31.2581998 28.2012586,31.0263886 C30.5669164,30.7945774 35.8536645,26.2327599 37.3649883,24.4753596 C38.876477,22.7179592 43.225469,18.3353702 40.6773049,13.3740264 C40.6773049,13.3740264 39.4637285,11.0681151 36.2082906,12.1218335 C36.2082906,12.1218335 38.8571877,11.489465 39.3019953,14.3557442 C39.7468029,17.2220235 35.1068229,24.5140234 29.5208435,28.0124994 C23.9348642,31.5111472 25.2880818,29.3872137 25.2880818,29.3872137 L23.6921819,30.836678 Z" id="Fill-14" fill="#FF8D00"></path>
                    <path d="M28.9597604,10.1670608 C28.0116218,12.0965786 27.7417359,14.6416387 27.2366684,16.7377912 C26.7536703,18.7418427 26.1394356,20.7607326 25.9143622,22.8130519 C25.8965046,22.9750815 26.1139969,22.9950368 26.1829004,22.8737703 C27.1765253,21.1247025 27.8571365,19.1972314 28.644725,17.3475345 C29.4715665,15.4057366 30.6617938,13.346595 31.0757199,11.2806312 C31.3004564,10.1595563 29.5957275,8.87286998 28.9597604,10.1670608" id="Fill-16" fill="#FFD26D"></path>
                    <path d="M30.8360929,5.18266479 C29.3613169,5.18266479 29.1449659,7.40380684 30.6153551,7.40380684 C32.0903306,7.40380684 32.3066816,5.18266479 30.8360929,5.18266479" id="Fill-18" fill="#FFD26D"></path>
                    <path d="M37.4480639,14.2989601 C36.7211891,14.9877484 36.2967332,16.0235335 35.7674193,16.8906781 C35.0711754,18.0314296 34.3551592,19.1551783 33.6312017,20.2756305 C32.3025686,22.3319327 30.974908,24.3887554 29.6465991,26.4452311 C29.5305585,26.6248019 29.765557,26.7328913 29.8783563,26.5826418 C31.2938577,24.6961944 32.7127626,22.8126966 34.1289123,20.9267697 C34.8948455,19.9067731 35.6683958,18.8963188 36.4576667,17.8971419 C37.1069109,17.0752803 37.9781881,16.2895064 38.4073441,15.3170483 C38.7275903,14.5914782 38.1692662,13.6155501 37.4480639,14.2989601" id="Fill-20" fill="#FFD26D"></path>
                    <path d="M21.0539482,15.6254713 C20.9558267,14.3522832 20.8942242,13.0754509 20.7411399,11.8065697 C20.5969087,10.6128938 20.6147993,9.51396986 19.8420004,8.5026749 C19.3703902,7.88546196 18.4382361,8.14056339 18.0916754,8.69897049 C17.4621856,9.71357845 17.9092654,10.7805319 18.1337275,11.8589152 C18.3565297,12.9303412 18.6169574,13.9926565 18.8864226,15.055303 C19.5445005,17.6492207 20.1691949,20.2428072 20.9608066,22.8072391 C21.0432508,23.0739361 21.4776043,22.9336303 21.4709645,22.6931061 C21.4067798,20.331927 21.2356205,17.9813496 21.0539482,15.6254713" id="Fill-22" fill="#FFD26D"></path>
                    <path d="M18.2242107,1.80302726 C17.0309309,2.88378615 16.3651817,5.62292916 18.0139174,6.63992832 C18.1496195,6.72357351 18.3586547,6.56638369 18.3559586,6.44328323 C18.3439162,5.86676276 18.2100114,5.31770315 18.4300106,4.75207233 C18.6340131,4.22747499 19.0033745,3.92288027 19.4827354,3.58814172 C20.725623,2.72044131 19.4444513,0.697806094 18.2242107,1.80302726" id="Fill-24" fill="#FFD26D"></path>
                    <path d="M16.2463038,21.750219 C15.0429586,19.8281729 13.3910442,18.1599947 12.146951,16.2436536 C10.8740444,14.2830157 9.62483633,12.3037529 8.53248259,10.2389167 C8.36966102,9.93135582 8.0733428,9.61020383 7.68223004,9.62547281 C7.62187524,9.62782188 7.56152044,9.63017096 7.50116563,9.63252003 C7.14807299,9.64627889 6.8950602,9.88739458 6.77179318,10.1984791 C6.337375,11.2948256 7.31089456,12.3050952 7.89278988,13.1854947 C8.62540171,14.2940899 9.39449921,15.3964768 10.2358861,16.4278881 C11.0953453,17.4816157 12.0306742,18.4863482 12.9631048,19.4766508 C13.8324527,20.3996691 14.7301025,21.4641353 15.7943247,22.1653339 C16.0456326,22.3309436 16.4133877,22.0170067 16.2463038,21.750219" id="Fill-26" fill="#FFD26D" transform="translate(11.475901, 15.918185) rotate(8.000000) translate(-11.475901, -15.918185) "></path>
                    <path d="M11.8282488,24.2877871 C10.5779522,22.6064116 8.89592839,21.2099697 7.51696145,19.6298075 C6.21030923,18.1324864 5.12459095,16.3769547 3.79350135,14.9033503 C3.69442187,14.6721966 3.51887164,14.4741127 3.29943387,14.3540264 L3.04791163,14.2164031 C1.75854844,13.5110839 1.09109187,15.4879151 1.72064555,16.3694389 C2.99870437,18.1590424 5.03415599,19.5578225 6.72532304,20.9340551 C8.25906012,22.1821846 9.88123726,23.6222183 11.7000772,24.4247423 C11.779374,24.4598162 11.8895916,24.3702942 11.8282488,24.2877871" id="Fill-30" fill="#FFD26D" transform="translate(6.663426, 19.249898) rotate(4.000000) translate(-6.663426, -19.249898) "></path>
                    <path d="M27.9501691,30.5267 C25.1744445,29.5693791 22.1659347,29.4739081 19.2826671,29.7508114 C16.5895383,30.0096274 13.7264982,30.5343451 11.3072841,31.9393729 C11.0532599,32.0868682 10.9978027,32.6371319 11.3858344,32.5713091 C14.1116644,32.1084983 16.7567527,31.3150819 19.5215206,31.1028826 C22.2706122,30.8919886 24.9838,31.1325308 27.7286775,31.2654817 C28.0489469,31.2811449 28.3336496,30.658905 27.9501691,30.5267" id="Fill-32" fill="#FFD26D"></path>
                </g>
            </g>
        </g>
    </g>
</svg>