<?xml version="1.0" encoding="UTF-8"?>
<svg width="846px" height="125px" viewBox="0 0 846 125" version="1.1" xmlns="http://www.w3.org/2000/svg" xmlns:xlink="http://www.w3.org/1999/xlink">
    <!-- Generator: Sketch 45 (43475) - http://www.bohemiancoding.com/sketch -->
    <title>Rectangle 3 Copy 20</title>
    <desc>Created with Sketch.</desc>
    <defs>
        <path d="M668.299026,110.5 L4,110.5 L4,110.5 C1.790861,110.5 2.705415e-16,108.709139 0,106.5 L0,4 L0,4 C-2.705415e-16,1.790861 1.790861,1.21198077e-13 4,1.20792265e-13 L4,1.20792265e-13 L668.315483,1.20792265e-13 C668.304569,0.165261807 668.299026,0.331985725 668.299026,0.5 C668.299026,4.64213562 671.668193,8 675.824271,8 C679.98035,8 683.349517,4.64213562 683.349517,0.5 C683.349517,0.331985725 683.343974,0.165261807 683.333059,3.38618023e-15 L827.790472,1.20792265e-13 C829.999611,1.20386453e-13 831.790472,1.790861 831.790472,4 L831.790472,106.5 C831.790472,108.709139 829.999611,110.5 827.790472,110.5 L683.349517,110.5 C683.349517,106.357864 679.98035,103 675.824271,103 C671.668193,103 668.299026,106.357864 668.299026,110.5 Z" id="path-1"></path>
        <filter x="-1.4%" y="-8.6%" width="102.8%" height="120.8%" filterUnits="objectBoundingBox" id="filter-3">
            <feOffset dx="0" dy="2" in="SourceAlpha" result="shadowOffsetOuter1"></feOffset>
            <feGaussianBlur stdDeviation="3.5" in="shadowOffsetOuter1" result="shadowBlurOuter1"></feGaussianBlur>
            <feColorMatrix values="0 0 0 0 0   0 0 0 0 0   0 0 0 0 0  0 0 0 0.315868433 0" type="matrix" in="shadowBlurOuter1"></feColorMatrix>
        </filter>
        <linearGradient x1="53.6962938%" y1="30.0200313%" x2="12.2038045%" y2="30.0200298%" id="linearGradient-4">
            <stop stop-color="#FFB61B" offset="0%"></stop>
            <stop stop-color="#FF8C16" offset="100%"></stop>
        </linearGradient>
        <path d="M2,0.0999755859 L823.361002,0.0999755859 L823.361002,0.0999755859 C824.465572,0.0999755859 825.361002,0.995406086 825.361002,2.09997559 L825.361002,67.0502469 L825.361002,102.099976 L825.361002,102.099976 C825.361002,103.204545 824.465572,104.099976 823.361002,104.099976 L2,104.099976 L2,104.099976 C0.8954305,104.099976 -1.05925173e-13,103.204545 -1.13908882e-13,102.099976 L-1.13686838e-13,2.09997559 L-1.14130927e-13,2.09997559 C-1.14266198e-13,0.995406086 0.8954305,0.0999755859 2,0.0999755859 Z" id="path-5"></path>
    </defs>
    <g id="Page-1" stroke="none" stroke-width="1" fill="none" fill-rule="evenodd">
        <g id="выдача-по-стране" transform="translate(-393.000000, -534.000000)">
            <g id="Group-20" transform="translate(400.000000, 539.000000)">
                <g id="Rectangle-3-Copy-20">
                    <mask id="mask-2" fill="white">
                        <use xlink:href="#path-1"></use>
                    </mask>
                    <g id="Mask">
                        <use fill="black" fill-opacity="1" filter="url(#filter-3)" xlink:href="#path-1"></use>
                        <use fill="#FFFFFF" fill-rule="evenodd" xlink:href="#path-1"></use>
                    </g>
                    <g id="Bitmap" mask="url(#mask-2)">
                        <g transform="translate(3.000000, 3.000000)">
                            <mask id="mask-6" fill="white">
                                <use xlink:href="#path-5"></use>
                            </mask>
                            <use id="Mask" stroke="none" fill="url(#linearGradient-4)" fill-rule="evenodd" transform="translate(412.680501, 52.099976) scale(-1, 1) translate(-412.680501, -52.099976) " xlink:href="#path-5"></use>
                        </g>
                    </g>
                    <path d="M675,9.5 L675,13.5 L677,13.5 L677,9.5 L675,9.5 Z M675,16.5 L675,20.5 L677,20.5 L677,16.5 L675,16.5 Z M675,23.5 L675,27.5 L677,27.5 L677,23.5 L675,23.5 Z M675,30.5 L675,34.5 L677,34.5 L677,30.5 L675,30.5 Z M675,37.5 L675,41.5 L677,41.5 L677,37.5 L675,37.5 Z M675,44.5 L675,48.5 L677,48.5 L677,44.5 L675,44.5 Z M675,51.5 L675,55.5 L677,55.5 L677,51.5 L675,51.5 Z M675,58.5 L675,62.5 L677,62.5 L677,58.5 L675,58.5 Z M675,65.5 L675,69.5 L677,69.5 L677,65.5 L675,65.5 Z M675,72.5 L675,76.5 L677,76.5 L677,72.5 L675,72.5 Z M675,79.5 L675,83.5 L677,83.5 L677,79.5 L675,79.5 Z M675,86.5 L675,90.5 L677,90.5 L677,86.5 L675,86.5 Z M675,93.5 L675,97.5 L677,97.5 L677,93.5 L675,93.5 Z M675,100.5 L675,103.5489 L677,103.5489 L677,100.5 L675,100.5 Z" id="Line-3" fill="#FFFFFF" fill-rule="nonzero" mask="url(#mask-2)"></path>
                </g>
            </g>
        </g>
    </g>
</svg>