<?xml version="1.0" encoding="UTF-8"?>
<svg width="285px" height="333px" viewBox="0 0 285 333" version="1.1" xmlns="http://www.w3.org/2000/svg" xmlns:xlink="http://www.w3.org/1999/xlink">
    <!-- Generator: Sketch 45 (43475) - http://www.bohemiancoding.com/sketch -->
    <title>Combined Shape Copy 5</title>
    <desc>Created with Sketch.</desc>
    <defs>
        <path d="M656.197543,2008 L916.199307,2008 C916.192148,2008.16651 916.188533,2008.33393 916.188533,2008.5022 C916.188533,2014.85469 921.341687,2020.0044 927.698425,2020.0044 C927.866096,2020.0044 928.032931,2020.00082 928.198855,2019.99373 L928.198855,2329.01068 C928.032931,2329.00358 927.866096,2329 927.698425,2329 C921.341687,2329 916.188533,2334.14971 916.188533,2340.5022 C916.188533,2340.66899 916.192085,2340.83494 916.199118,2341 L656.197732,2341 C656.204765,2340.83494 656.208317,2340.66899 656.208317,2340.5022 C656.208317,2334.14971 651.055163,2329 644.698425,2329 C644.463912,2329 644.231038,2329.00701 644,2329.02083 L644,2019.98358 C644.231038,2019.9974 644.463912,2020.0044 644.698425,2020.0044 C651.055163,2020.0044 656.208317,2014.85469 656.208317,2008.5022 C656.208317,2008.33393 656.204701,2008.16651 656.197543,2008 Z" id="path-1"></path>
    </defs>
    <g id="Page-1" stroke="none" stroke-width="1" fill="none" fill-rule="evenodd">
        <g id="главная-copy" transform="translate(-644.000000, -2008.000000)">
            <mask id="mask-2" fill="white">
                <use xlink:href="#path-1"></use>
            </mask>
            <use id="Combined-Shape-Copy-5" fill="#C8E7FE" xlink:href="#path-1"></use>
        </g>
    </g>
</svg>