<?xml version="1.0" encoding="UTF-8"?>
<svg width="285px" height="333px" viewBox="0 0 285 333" version="1.1" xmlns="http://www.w3.org/2000/svg" xmlns:xlink="http://www.w3.org/1999/xlink">
    <!-- Generator: Sketch 45 (43475) - http://www.bohemiancoding.com/sketch -->
    <title>Combined Shape Copy 6</title>
    <desc>Created with Sketch.</desc>
    <defs>
        <path d="M971.197543,2008 L1231.19931,2008 C1231.19215,2008.16651 1231.18853,2008.33393 1231.18853,2008.5022 C1231.18853,2014.85469 1236.34169,2020.0044 1242.69842,2020.0044 C1242.8661,2020.0044 1243.03293,2020.00082 1243.19885,2019.99373 L1243.19885,2329.01068 C1243.03293,2329.00358 1242.8661,2329 1242.69842,2329 C1236.34169,2329 1231.18853,2334.14971 1231.18853,2340.5022 C1231.18853,2340.66899 1231.19209,2340.83494 1231.19912,2341 L971.197732,2341 C971.204765,2340.83494 971.208317,2340.66899 971.208317,2340.5022 C971.208317,2334.14971 966.055163,2329 959.698425,2329 C959.463912,2329 959.231038,2329.00701 959,2329.02083 L959,2019.98358 C959.231038,2019.9974 959.463912,2020.0044 959.698425,2020.0044 C966.055163,2020.0044 971.208317,2014.85469 971.208317,2008.5022 C971.208317,2008.33393 971.204701,2008.16651 971.197543,2008 Z" id="path-1"></path>
    </defs>
    <g id="Page-1" stroke="none" stroke-width="1" fill="none" fill-rule="evenodd">
        <g id="главная-copy" transform="translate(-959.000000, -2008.000000)">
            <mask id="mask-2" fill="white">
                <use xlink:href="#path-1"></use>
            </mask>
            <use id="Combined-Shape-Copy-6" fill="#C8E7FE" xlink:href="#path-1"></use>
        </g>
    </g>
</svg>