<?xml version="1.0" encoding="UTF-8"?>
<svg width="975px" height="297px" viewBox="0 0 975 297" version="1.1" xmlns="http://www.w3.org/2000/svg" xmlns:xlink="http://www.w3.org/1999/xlink">
    <!-- Generator: Sketch 45 (43475) - http://www.bohemiancoding.com/sketch -->
    <title>form2 copy</title>
    <desc>Created with Sketch.</desc>
    <defs>
        <filter x="-1.0%" y="-3.3%" width="102.0%" height="107.0%" filterUnits="objectBoundingBox" id="filter-1">
            <feOffset dx="0" dy="1" in="SourceAlpha" result="shadowOffsetOuter1"></feOffset>
            <feGaussianBlur stdDeviation="3" in="shadowOffsetOuter1" result="shadowBlurOuter1"></feGaussianBlur>
            <feColorMatrix values="0 0 0 0 0   0 0 0 0 0   0 0 0 0 0  0 0 0 0.5 0" type="matrix" in="shadowBlurOuter1" result="shadowMatrixOuter1"></feColorMatrix>
            <feMerge>
                <feMergeNode in="shadowMatrixOuter1"></feMergeNode>
                <feMergeNode in="SourceGraphic"></feMergeNode>
            </feMerge>
        </filter>
        <path d="M733.166015,8.52582585e-09 L958.689796,8.52582585e-09 C960.584143,8.5258255e-09 962.119814,1.535671 962.119814,3.43001717 L962.119814,281.261407 C962.119814,283.155753 960.584143,284.691424 958.689796,284.691424 L733.166015,284.691424 C733.13507,279.270591 728.731941,274.885727 723.304869,274.885727 C717.877796,274.885727 713.474668,279.270591 713.443733,284.691424 L490.492301,284.691424 C490.461356,279.270591 486.058227,274.885727 480.631155,274.885727 C475.204082,274.885727 470.800954,279.270591 470.770019,284.691424 L248.676092,284.691424 C248.645146,279.270591 244.242017,274.885727 238.814945,274.885727 C233.387872,274.885727 228.984744,279.270591 228.953809,284.691424 L3.43001716,284.691424 C1.53567099,284.691424 2.31990497e-16,283.155753 0,281.261407 L0,3.43001717 L0,3.43001717 C-2.31990497e-16,1.535671 1.53567099,8.5258262e-09 3.43001716,8.52582585e-09 L3.43001716,8.52582585e-09 L228.953798,8.52582585e-09 C228.9537,0.0191506515 228.953645,0.0383142327 228.953645,0.0574905957 C228.953645,5.50477872 233.368699,9.92067825 238.814945,9.92067825 C244.26119,9.92067825 248.676244,5.50477872 248.676244,0.0574905957 C248.676244,0.0383142327 248.676189,0.0191506515 248.67608,-3.11452253e-14 L470.770008,8.52582585e-09 C470.76991,0.0191506515 470.769855,0.0383142327 470.769855,0.0574905957 C470.769855,5.50477872 475.184909,9.92067825 480.631155,9.92067825 C486.0774,9.92067825 490.492454,5.50477872 490.492454,0.0574905957 C490.492454,0.0383142327 490.492399,0.0191506515 490.49229,-3.11452253e-14 L713.443722,8.52582585e-09 C713.443624,0.0191506515 713.443569,0.0383142327 713.443569,0.0574905957 C713.443569,5.50477872 717.858623,9.92067825 723.304869,9.92067825 C728.751114,9.92067825 733.166168,5.50477872 733.166168,0.0574905957 C733.166168,0.0383142327 733.166113,0.0191506515 733.166004,-3.11452253e-14 L733.166015,8.52582585e-09 Z" id="path-2"></path>
        <rect id="path-4" x="0" y="0" width="1" height="284.63692"></rect>
        <path d="M733.166015,8.52582585e-09 L958.689796,8.52582585e-09 C960.584143,8.5258255e-09 962.119814,1.535671 962.119814,3.43001717 L962.119814,281.261407 C962.119814,283.155753 960.584143,284.691424 958.689796,284.691424 L733.166015,284.691424 C733.13507,279.270591 728.731941,274.885727 723.304869,274.885727 C717.877796,274.885727 713.474668,279.270591 713.443733,284.691424 L490.492301,284.691424 C490.461356,279.270591 486.058227,274.885727 480.631155,274.885727 C475.204082,274.885727 470.800954,279.270591 470.770019,284.691424 L248.676092,284.691424 C248.645146,279.270591 244.242017,274.885727 238.814945,274.885727 C233.387872,274.885727 228.984744,279.270591 228.953809,284.691424 L3.43001716,284.691424 C1.53567099,284.691424 2.31990497e-16,283.155753 0,281.261407 L0,3.43001717 L0,3.43001717 C-2.31990497e-16,1.535671 1.53567099,8.5258262e-09 3.43001716,8.52582585e-09 L3.43001716,8.52582585e-09 L228.953798,8.52582585e-09 C228.9537,0.0191506515 228.953645,0.0383142327 228.953645,0.0574905957 C228.953645,5.50477872 233.368699,9.92067825 238.814945,9.92067825 C244.26119,9.92067825 248.676244,5.50477872 248.676244,0.0574905957 C248.676244,0.0383142327 248.676189,0.0191506515 248.67608,-3.11452253e-14 L470.770008,8.52582585e-09 C470.76991,0.0191506515 470.769855,0.0383142327 470.769855,0.0574905957 C470.769855,5.50477872 475.184909,9.92067825 480.631155,9.92067825 C486.0774,9.92067825 490.492454,5.50477872 490.492454,0.0574905957 C490.492454,0.0383142327 490.492399,0.0191506515 490.49229,-3.11452253e-14 L713.443722,8.52582585e-09 C713.443624,0.0191506515 713.443569,0.0383142327 713.443569,0.0574905957 C713.443569,5.50477872 717.858623,9.92067825 723.304869,9.92067825 C728.751114,9.92067825 733.166168,5.50477872 733.166168,0.0574905957 C733.166168,0.0383142327 733.166113,0.0191506515 733.166004,-3.11452253e-14 L733.166015,8.52582585e-09 Z" id="path-6"></path>
        <rect id="path-8" x="0" y="0" width="1" height="284.63692"></rect>
        <path d="M733.166015,8.52582585e-09 L958.689796,8.52582585e-09 C960.584143,8.5258255e-09 962.119814,1.535671 962.119814,3.43001717 L962.119814,281.261407 C962.119814,283.155753 960.584143,284.691424 958.689796,284.691424 L733.166015,284.691424 C733.13507,279.270591 728.731941,274.885727 723.304869,274.885727 C717.877796,274.885727 713.474668,279.270591 713.443733,284.691424 L490.492301,284.691424 C490.461356,279.270591 486.058227,274.885727 480.631155,274.885727 C475.204082,274.885727 470.800954,279.270591 470.770019,284.691424 L248.676092,284.691424 C248.645146,279.270591 244.242017,274.885727 238.814945,274.885727 C233.387872,274.885727 228.984744,279.270591 228.953809,284.691424 L3.43001716,284.691424 C1.53567099,284.691424 2.31990497e-16,283.155753 0,281.261407 L0,3.43001717 L0,3.43001717 C-2.31990497e-16,1.535671 1.53567099,8.5258262e-09 3.43001716,8.52582585e-09 L3.43001716,8.52582585e-09 L228.953798,8.52582585e-09 C228.9537,0.0191506515 228.953645,0.0383142327 228.953645,0.0574905957 C228.953645,5.50477872 233.368699,9.92067825 238.814945,9.92067825 C244.26119,9.92067825 248.676244,5.50477872 248.676244,0.0574905957 C248.676244,0.0383142327 248.676189,0.0191506515 248.67608,-3.11452253e-14 L470.770008,8.52582585e-09 C470.76991,0.0191506515 470.769855,0.0383142327 470.769855,0.0574905957 C470.769855,5.50477872 475.184909,9.92067825 480.631155,9.92067825 C486.0774,9.92067825 490.492454,5.50477872 490.492454,0.0574905957 C490.492454,0.0383142327 490.492399,0.0191506515 490.49229,-3.11452253e-14 L713.443722,8.52582585e-09 C713.443624,0.0191506515 713.443569,0.0383142327 713.443569,0.0574905957 C713.443569,5.50477872 717.858623,9.92067825 723.304869,9.92067825 C728.751114,9.92067825 733.166168,5.50477872 733.166168,0.0574905957 C733.166168,0.0383142327 733.166113,0.0191506515 733.166004,-3.11452253e-14 L733.166015,8.52582585e-09 Z" id="path-10"></path>
        <rect id="path-12" x="0" y="0.48435443" width="1" height="284.63692"></rect>
    </defs>
    <g id="Page-1" stroke="none" stroke-width="1" fill="none" fill-rule="evenodd">
        <g id="Artboard-2" transform="translate(-716.000000, -57.000000)">
            <g id="form2-copy" filter="url(#filter-1)" transform="translate(722.000000, 62.000000)">
                <g id="Combined-Shape" transform="translate(0.000000, 0.373150)" fill-rule="nonzero" fill="#FFFFFF">
                    <path d="M733.166015,8.52582585e-09 L958.689796,8.52582585e-09 C960.584143,8.5258255e-09 962.119814,1.535671 962.119814,3.43001717 L962.119814,281.261407 C962.119814,283.155753 960.584143,284.691424 958.689796,284.691424 L733.166015,284.691424 C733.13507,279.270591 728.731941,274.885727 723.304869,274.885727 C717.877796,274.885727 713.474668,279.270591 713.443733,284.691424 L490.492301,284.691424 C490.461356,279.270591 486.058227,274.885727 480.631155,274.885727 C475.204082,274.885727 470.800954,279.270591 470.770019,284.691424 L248.676092,284.691424 C248.645146,279.270591 244.242017,274.885727 238.814945,274.885727 C233.387872,274.885727 228.984744,279.270591 228.953809,284.691424 L3.43001716,284.691424 C1.53567099,284.691424 2.31990497e-16,283.155753 0,281.261407 L0,3.43001717 L0,3.43001717 C-2.31990497e-16,1.535671 1.53567099,8.5258262e-09 3.43001716,8.52582585e-09 L3.43001716,8.52582585e-09 L228.953798,8.52582585e-09 C228.9537,0.0191506515 228.953645,0.0383142327 228.953645,0.0574905957 C228.953645,5.50477872 233.368699,9.92067825 238.814945,9.92067825 C244.26119,9.92067825 248.676244,5.50477872 248.676244,0.0574905957 C248.676244,0.0383142327 248.676189,0.0191506515 248.67608,-3.11452253e-14 L470.770008,8.52582585e-09 C470.76991,0.0191506515 470.769855,0.0383142327 470.769855,0.0574905957 C470.769855,5.50477872 475.184909,9.92067825 480.631155,9.92067825 C486.0774,9.92067825 490.492454,5.50477872 490.492454,0.0574905957 C490.492454,0.0383142327 490.492399,0.0191506515 490.49229,-3.11452253e-14 L713.443722,8.52582585e-09 C713.443624,0.0191506515 713.443569,0.0383142327 713.443569,0.0574905957 C713.443569,5.50477872 717.858623,9.92067825 723.304869,9.92067825 C728.751114,9.92067825 733.166168,5.50477872 733.166168,0.0574905957 C733.166168,0.0383142327 733.166113,0.0191506515 733.166004,-3.11452253e-14 L733.166015,8.52582585e-09 Z" id="path-2"></path>
                </g>
                <g id="Rectangle-2-Copy-2-Clipped" transform="translate(0.000000, 0.373150)">
                    <mask id="mask-3" fill="white">
                        <use xlink:href="#path-2"></use>
                    </mask>
                    <g id="path-2"></g>
                    <g id="Rectangle-2-Copy-2" stroke-dasharray="2,4" mask="url(#mask-3)">
                        <g transform="translate(238.386193, -0.857504)" id="path-4-Clipped">
                            <g>
                                <mask id="mask-5" fill="white">
                                    <use xlink:href="#path-4"></use>
                                </mask>
                                <g id="path-4"></g>
                                <rect id="path-4" stroke="#7F7F7F" stroke-width="4" mask="url(#mask-5)" x="0" y="0" width="1" height="284.63692"></rect>
                            </g>
                        </g>
                    </g>
                </g>
                <g id="Rectangle-2-Copy-3-Clipped" transform="translate(0.000000, 0.373150)">
                    <mask id="mask-7" fill="white">
                        <use xlink:href="#path-6"></use>
                    </mask>
                    <g id="path-2"></g>
                    <g id="Rectangle-2-Copy-3" stroke-dasharray="2,4" mask="url(#mask-7)">
                        <g transform="translate(480.202402, -1.715009)" id="path-6-Clipped">
                            <g>
                                <mask id="mask-9" fill="white">
                                    <use xlink:href="#path-8"></use>
                                </mask>
                                <g id="path-6"></g>
                                <rect id="path-6" stroke="#7F7F7F" stroke-width="4" mask="url(#mask-9)" x="0" y="0" width="1" height="284.63692"></rect>
                            </g>
                        </g>
                    </g>
                </g>
                <g id="Rectangle-2-Copy-4-Clipped" transform="translate(0.000000, 0.373150)">
                    <mask id="mask-11" fill="white">
                        <use xlink:href="#path-10"></use>
                    </mask>
                    <g id="path-2"></g>
                    <g id="Rectangle-2-Copy-4" stroke-dasharray="2,4" mask="url(#mask-11)">
                        <g transform="translate(722.876117, -1.715009)" id="path-8-Clipped">
                            <g>
                                <mask id="mask-13" fill="white">
                                    <use xlink:href="#path-12"></use>
                                </mask>
                                <g id="path-8"></g>
                                <rect id="path-8" stroke="#7F7F7F" stroke-width="4" mask="url(#mask-13)" x="0" y="0.48435443" width="1" height="284.63692"></rect>
                            </g>
                        </g>
                    </g>
                </g>
            </g>
        </g>
    </g>
</svg>