<?xml version="1.0" encoding="UTF-8"?>
<svg width="743px" height="239px" viewBox="0 0 743 239" version="1.1" xmlns="http://www.w3.org/2000/svg" xmlns:xlink="http://www.w3.org/1999/xlink">
    <!-- Generator: sketchtool 45 (43475) - http://www.bohemiancoding.com/sketch -->
    <title>D58B021F-C5E6-4DBF-A4BF-0CF6AB138DFB</title>
    <desc>Created with sketchtool.</desc>
    <defs>
        <path d="M544.010455,0 L711.625847,0 C713.834986,6.23816945e-14 715.625847,1.790861 715.625847,4 L715.625847,207.753816 L715.625847,207.753816 C715.625847,209.962955 713.834986,211.753816 711.625847,211.753816 L544.0089,211.753816 C543.848187,207.843683 540.614231,204.722833 536.648322,204.722833 C532.682413,204.722833 529.448457,207.843683 529.287743,211.753816 L364.783532,211.753816 C364.622819,207.843683 361.388863,204.722833 357.422954,204.722833 C353.457045,204.722833 350.223089,207.843683 350.062375,211.753816 L185.275699,211.753816 C185.114986,207.843683 181.88103,204.722833 177.915121,204.722833 C173.949212,204.722833 170.715256,207.843683 170.554543,211.753816 L4,211.753816 C1.790861,211.753816 2.705415e-16,209.962955 0,207.753816 L0,4 L0,4 C-2.705415e-16,1.790861 1.790861,4.05812251e-16 4,0 L4,0 L170.552987,0 C170.549858,0.0878555607 170.548281,0.176104426 170.548281,0.264720259 C170.548281,4.31641956 173.846527,7.60097081 177.915121,7.60097081 C181.983715,7.60097081 185.281962,4.31641956 185.281962,0.264720259 C185.281962,0.176104426 185.280384,0.0878555607 185.277255,6.38378239e-16 L350.06082,0 C350.057691,0.0878555607 350.056113,0.176104426 350.056113,0.264720259 C350.056113,4.31641956 353.35436,7.60097081 357.422954,7.60097081 C361.491547,7.60097081 364.789794,4.31641956 364.789794,0.264720259 C364.789794,0.176104426 364.788216,0.0878555607 364.785087,-7.21644966e-16 L529.286188,0 C529.283059,0.0878555607 529.281481,0.176104426 529.281481,0.264720259 C529.281481,4.31641956 532.579728,7.60097081 536.648322,7.60097081 C540.716915,7.60097081 544.015162,4.31641956 544.015162,0.264720259 C544.015162,0.176104426 544.013584,0.0878555607 544.010455,-7.21644966e-16 Z" id="path-1"></path>
        <filter x="-3.1%" y="-8.7%" width="106.3%" height="121.3%" filterUnits="objectBoundingBox" id="filter-3">
            <feMorphology radius="1" operator="dilate" in="SourceAlpha" result="shadowSpreadOuter1"></feMorphology>
            <feOffset dx="0" dy="4" in="shadowSpreadOuter1" result="shadowOffsetOuter1"></feOffset>
            <feGaussianBlur stdDeviation="6.5" in="shadowOffsetOuter1" result="shadowBlurOuter1"></feGaussianBlur>
            <feComposite in="shadowBlurOuter1" in2="SourceAlpha" operator="out" result="shadowBlurOuter1"></feComposite>
            <feColorMatrix values="0 0 0 0 0   0 0 0 0 0   0 0 0 0 0  0 0 0 0.41686481 0" type="matrix" in="shadowBlurOuter1"></feColorMatrix>
        </filter>
        <rect id="path-4" x="178" y="2" width="1" height="222.486954"></rect>
        <mask id="mask-5" maskContentUnits="userSpaceOnUse" maskUnits="objectBoundingBox" x="0" y="0" width="1" height="222.486954" fill="white">
            <use xlink:href="#path-4"></use>
        </mask>
        <rect id="path-6" x="357" y="-10" width="1" height="222.486954"></rect>
        <mask id="mask-7" maskContentUnits="userSpaceOnUse" maskUnits="objectBoundingBox" x="0" y="0" width="1" height="222.486954" fill="white">
            <use xlink:href="#path-6"></use>
        </mask>
        <rect id="path-8" x="536" y="2" width="1" height="222.486954"></rect>
        <mask id="mask-9" maskContentUnits="userSpaceOnUse" maskUnits="objectBoundingBox" x="0" y="0" width="1" height="222.486954" fill="white">
            <use xlink:href="#path-8"></use>
        </mask>
    </defs>
    <g id="Page-1" stroke="none" stroke-width="1" fill="none" fill-rule="evenodd">
        <g id="главная_768" transform="translate(-13.000000, -2364.000000)">
            <g id="Group-11-Copy" transform="translate(27.000000, 2373.000000)">
                <g id="Rectangle-3-Copy-49" transform="translate(0.000000, 0.277549)">
                    <mask id="mask-2" fill="white">
                        <use xlink:href="#path-1"></use>
                    </mask>
                    <g id="Combined-Shape">
                        <use fill="black" fill-opacity="1" filter="url(#filter-3)" xlink:href="#path-1"></use>
                        <use fill="#FFFFFF" fill-rule="evenodd" xlink:href="#path-1"></use>
                        <path stroke="#BBBBBB" stroke-width="1" d="M543.492331,-0.5 L711.625847,-0.5 C714.111128,-0.5 716.125847,1.51471863 716.125847,4 L716.125847,207.753816 C716.125847,210.239097 714.111128,212.253816 711.625847,212.253816 L543.529029,212.253816 L543.509322,211.774349 C543.359157,208.120856 540.334757,205.222833 536.648322,205.222833 C532.961886,205.222833 529.937486,208.120856 529.787321,211.774349 L529.767615,212.253816 L364.303661,212.253816 L364.283954,211.774349 C364.133789,208.120856 361.109389,205.222833 357.422954,205.222833 C353.736518,205.222833 350.712118,208.120856 350.561953,211.774349 L350.542246,212.253816 L184.795828,212.253816 L184.776121,211.774349 C184.625956,208.120856 181.601556,205.222833 177.915121,205.222833 C174.228686,205.222833 171.204286,208.120856 171.054121,211.774349 L171.034414,212.253816 L4,212.253816 C1.51471863,212.253816 -0.5,210.239097 -0.5,207.753816 L-0.5,4 C-0.5,1.51471863 1.51471863,-0.5 4,-0.5 L171.071112,-0.5 L171.052671,0.0177963727 C171.049746,0.0999049026 171.048281,0.182220768 171.048281,0.264720259 C171.048281,4.03981038 174.122205,7.10097081 177.915121,7.10097081 C181.708037,7.10097081 184.781962,4.03981038 184.781962,0.264720259 C184.781962,0.182220768 184.780496,0.0999049026 184.777572,0.0177963727 L184.75913,-0.5 L350.578945,-0.5 L350.560503,0.0177963727 C350.557579,0.0999049026 350.556113,0.182220768 350.556113,0.264720259 C350.556113,4.03981038 353.630038,7.10097081 357.422954,7.10097081 C361.215869,7.10097081 364.289794,4.03981038 364.289794,0.264720259 C364.289794,0.182220768 364.288328,0.0999049026 364.285404,0.0177963727 L364.266963,-0.5 L529.804313,-0.5 L529.785871,0.0177963727 C529.782947,0.0999049026 529.781481,0.182220768 529.781481,0.264720259 C529.781481,4.03981038 532.855406,7.10097081 536.648322,7.10097081 C540.441237,7.10097081 543.515162,4.03981038 543.515162,0.264720259 C543.515162,0.182220768 543.513696,0.0999049026 543.510772,0.0177963727 L543.492331,-0.5 Z"></path>
                    </g>
                    <g id="Rectangle-2-Copy-2" stroke-dasharray="2,4" mask="url(#mask-2)" transform="translate(178.500000, 113.243477) scale(-1, 1) translate(-178.500000, -113.243477) " stroke-width="4" stroke="#7F7F7F">
                        <use mask="url(#mask-5)" xlink:href="#path-4"></use>
                    </g>
                    <g id="Rectangle-2-Copy-3" stroke-dasharray="2,4" mask="url(#mask-2)" transform="translate(357.500000, 101.243477) scale(-1, 1) translate(-357.500000, -101.243477) " stroke-width="4" stroke="#7F7F7F">
                        <use mask="url(#mask-7)" xlink:href="#path-6"></use>
                    </g>
                    <g id="Rectangle-2-Copy-4" stroke-dasharray="2,4" mask="url(#mask-2)" transform="translate(536.500000, 113.243477) scale(-1, 1) translate(-536.500000, -113.243477) " stroke-width="4" stroke="#7F7F7F">
                        <use mask="url(#mask-9)" xlink:href="#path-8"></use>
                    </g>
                </g>
            </g>
        </g>
    </g>
</svg>