<?xml version="1.0" encoding="UTF-8"?>
<svg width="1138px" height="349px" viewBox="0 0 1138 349" version="1.1" xmlns="http://www.w3.org/2000/svg" xmlns:xlink="http://www.w3.org/1999/xlink">
    <!-- Generator: sketchtool 45 (43475) - http://www.bohemiancoding.com/sketch -->
    <title>ECE718EA-C14C-4B5F-B799-100C5DCBF84A</title>
    <desc>Created with sketchtool.</desc>
    <defs>
        <filter x="-1.2%" y="-3.2%" width="102.4%" height="108.4%" filterUnits="objectBoundingBox" id="filter-1">
            <feOffset dx="0" dy="4" in="SourceAlpha" result="shadowOffsetOuter1"></feOffset>
            <feGaussianBlur stdDeviation="3.5" in="shadowOffsetOuter1" result="shadowBlurOuter1"></feGaussianBlur>
            <feColorMatrix values="0 0 0 0 0.118157369   0 0 0 0 0.177699382   0 0 0 0 0.202008929  0 0 0 0.405768795 0" type="matrix" in="shadowBlurOuter1" result="shadowMatrixOuter1"></feColorMatrix>
            <feMerge>
                <feMergeNode in="shadowMatrixOuter1"></feMergeNode>
                <feMergeNode in="SourceGraphic"></feMergeNode>
            </feMerge>
        </filter>
        <path d="M852.931366,0 L1118,0 C1120.20914,-4.05812251e-16 1122,1.790861 1122,4 L1122,328 C1122,330.209139 1120.20914,332 1118,332 L852.928927,332 C852.676952,325.869466 847.606566,320.976415 841.388583,320.976415 C835.170599,320.976415 830.100214,325.869466 829.848238,332 L571.928927,332 C571.676952,325.869466 566.606566,320.976415 560.388583,320.976415 C554.170599,320.976415 549.100214,325.869466 548.848238,332 L290.486063,332 C290.234087,325.869466 285.163702,320.976415 278.945718,320.976415 C272.727735,320.976415 267.657349,325.869466 267.405374,332 L4,332 C1.790861,332 2.705415e-16,330.209139 0,328 L0,4 L0,4 C-2.705415e-16,1.790861 1.790861,4.05812251e-16 4,0 L4,0 L267.402935,0 C267.398029,0.137745079 267.395556,0.276106805 267.395556,0.415043884 C267.395556,6.76753469 272.56674,11.917246 278.945718,11.917246 C285.324697,11.917246 290.495881,6.76753469 290.495881,0.415043884 C290.495881,0.276106805 290.493407,0.137745079 290.488502,-1.83186799e-15 L548.845799,0 C548.840894,0.137745079 548.83842,0.276106805 548.83842,0.415043884 C548.83842,6.76753469 554.009604,11.917246 560.388583,11.917246 C566.767561,11.917246 571.938745,6.76753469 571.938745,0.415043884 C571.938745,0.276106805 571.936272,0.137745079 571.931366,4.64628336e-14 L829.845799,0 C829.840894,0.137745079 829.83842,0.276106805 829.83842,0.415043884 C829.83842,6.76753469 835.009604,11.917246 841.388583,11.917246 C847.767561,11.917246 852.938745,6.76753469 852.938745,0.415043884 C852.938745,0.276106805 852.936272,0.137745079 852.931366,4.16333634e-16 Z" id="path-2"></path>
        <rect id="path-4" x="279" y="0" width="1.11782114" height="331.936439"></rect>
        <mask id="mask-5" maskContentUnits="userSpaceOnUse" maskUnits="objectBoundingBox" x="0" y="0" width="1.11782114" height="331.936439" fill="white">
            <use xlink:href="#path-4"></use>
        </mask>
        <rect id="path-6" x="560" y="0" width="1.11782114" height="331.936439"></rect>
        <mask id="mask-7" maskContentUnits="userSpaceOnUse" maskUnits="objectBoundingBox" x="0" y="0" width="1.11782114" height="331.936439" fill="white">
            <use xlink:href="#path-6"></use>
        </mask>
        <rect id="path-8" x="841" y="0" width="1.11782114" height="331.936439"></rect>
        <mask id="mask-9" maskContentUnits="userSpaceOnUse" maskUnits="objectBoundingBox" x="0" y="0" width="1.11782114" height="331.936439" fill="white">
            <use xlink:href="#path-8"></use>
        </mask>
    </defs>
    <g id="Page-1" stroke="none" stroke-width="1" fill="none" fill-rule="evenodd">
        <g id="главная-copy" transform="translate(-391.000000, -2004.000000)">
            <g id="Group-11" transform="translate(399.000000, 2008.000000)">
                <g id="Rectangle-3-Copy-49" filter="url(#filter-1)" transform="translate(0.000000, 0.435158)">
                    <mask id="mask-3" fill="white">
                        <use xlink:href="#path-2"></use>
                    </mask>
                    <g id="Combined-Shape">
                        <use fill="#FFFFFF" fill-rule="evenodd" xlink:href="#path-2"></use>
                        <path stroke="#BBBBBB" stroke-width="1" d="M852.413241,-0.5 L1118,-0.5 C1120.48528,-0.5 1122.5,1.51471863 1122.5,4 L1122.5,328 C1122.5,330.485281 1120.48528,332.5 1118,332.5 L852.449056,332.5 L852.429349,332.020534 C852.187654,326.140128 847.320566,321.476415 841.388583,321.476415 C835.4566,321.476415 830.589511,326.140128 830.347816,332.020534 L830.328109,332.5 L571.449056,332.5 L571.429349,332.020534 C571.187654,326.140128 566.320566,321.476415 560.388583,321.476415 C554.4566,321.476415 549.589511,326.140128 549.347816,332.020534 L549.328109,332.5 L290.006192,332.5 L289.986485,332.020534 C289.74479,326.140128 284.877701,321.476415 278.945718,321.476415 C273.013735,321.476415 268.146647,326.140128 267.904952,332.020534 L267.885245,332.5 L4,332.5 C1.51471863,332.5 -0.5,330.485281 -0.5,328 L-0.5,4 C-0.5,1.51471863 1.51471863,-0.5 4,-0.5 L267.92106,-0.5 L267.902618,0.0177963727 C267.897913,0.149897955 267.895556,0.282326717 267.895556,0.415043884 C267.895556,6.49092551 272.842417,11.417246 278.945718,11.417246 C285.049019,11.417246 289.995881,6.49092551 289.995881,0.415043884 C289.995881,0.282326717 289.993523,0.149897955 289.988818,0.0177963727 L289.970377,-0.5 L549.363924,-0.5 L549.345483,0.0177963727 C549.340778,0.149897955 549.33842,0.282326717 549.33842,0.415043884 C549.33842,6.49092551 554.285282,11.417246 560.388583,11.417246 C566.491884,11.417246 571.438745,6.49092551 571.438745,0.415043884 C571.438745,0.282326717 571.436387,0.149897955 571.431683,0.0177963727 L571.413241,-0.5 L830.363924,-0.5 L830.345483,0.0177963727 C830.340778,0.149897955 830.33842,0.282326717 830.33842,0.415043884 C830.33842,6.49092551 835.285282,11.417246 841.388583,11.417246 C847.491884,11.417246 852.438745,6.49092551 852.438745,0.415043884 C852.438745,0.282326717 852.436387,0.149897955 852.431683,0.0177963727 L852.413241,-0.5 Z"></path>
                    </g>
                    <g id="Rectangle-2-Copy-2" stroke-dasharray="2,4" mask="url(#mask-3)" stroke-width="4" stroke="#7F7F7F">
                        <use mask="url(#mask-5)" xlink:href="#path-4"></use>
                    </g>
                    <g id="Rectangle-2-Copy-3" stroke-dasharray="2,4" mask="url(#mask-3)" stroke-width="4" stroke="#7F7F7F">
                        <use mask="url(#mask-7)" xlink:href="#path-6"></use>
                    </g>
                    <g id="Rectangle-2-Copy-4" stroke-dasharray="2,4" mask="url(#mask-3)" stroke-width="4" stroke="#7F7F7F">
                        <use mask="url(#mask-9)" xlink:href="#path-8"></use>
                    </g>
                </g>
            </g>
        </g>
    </g>
</svg>