<?xml version="1.0" encoding="UTF-8"?>
<svg width="77px" height="63px" viewBox="0 0 77 63" version="1.1" xmlns="http://www.w3.org/2000/svg" xmlns:xlink="http://www.w3.org/1999/xlink">
    <!-- Generator: sketchtool 49.1 (51147) - http://www.bohemiancoding.com/sketch -->
    <title>59E6ECB6-9B4D-4679-8AD1-C5C4B600F2E4</title>
    <desc>Created with sketchtool.</desc>
    <defs></defs>
    <g id="Page-1" stroke="none" stroke-width="1" fill="none" fill-rule="evenodd">
        <g id="Партнёрка" transform="translate(-922.000000, -1277.000000)">
            <g id="Page-1" transform="translate(922.000000, 1277.000000)">
                <path d="M66.7097732,27.6331677 C66.4213967,26.4875886 67.1350559,25.3297081 68.3035749,25.0472125 L67.2596382,20.8985249 C66.0911192,21.1812402 64.9102764,20.4815912 64.6218998,19.3360122 C64.3335233,18.1902135 65.0471825,17.0325526 66.2157015,16.7498373 L65.1717648,12.6011497 C64.0032458,12.883865 62.822179,12.1842161 62.5340265,11.0386371 C62.2456499,9.89305801 62.9593091,8.73517746 64.1278281,8.45268184 L63.4753396,5.85969719 C59.0934495,6.91960493 54.664729,4.29608614 53.5835969,0 L5.97703615,11.5137833 C7.0579442,15.8098694 4.38211419,20.1516469 0,21.2115546 L0.652488444,23.8043196 C1.82100741,23.521824 3.00185017,24.2212533 3.29022676,25.367052 C3.57837928,26.512631 2.86494411,27.6702919 1.69642514,27.9530072 L2.74036184,32.1016948 C3.90888081,31.8189795 5.08972356,32.5186284 5.37810015,33.6642075 C5.66647674,34.8097865 4.95281751,35.9676671 3.78429854,36.2501627 L4.82823523,40.3988503 C5.9967542,40.116135 7.17759696,40.8157839 7.46597355,41.9613629 C7.75435014,43.106942 7.0406909,44.2648225 5.87217193,44.5475378 L6.52466038,47.1403028 C10.9065505,46.0806147 15.335271,48.7041335 16.4164031,53 L64.0229639,41.4862167 C62.9420558,37.1901306 65.6178858,32.8485728 70,31.788665 L69.3475116,29.1956804 C68.1789926,29.4783957 66.9981498,28.7787467 66.7097732,27.6331677" id="Fill-1" fill="#F18922"></path>
                <path d="M19.6702542,44.8770121 L56.2507418,35.9319559 C56.9791957,33.0199316 58.6051223,30.3526666 60.8670705,28.359253 L56.9695123,12.6988057 C54.0317085,11.9769623 51.3408308,10.3650852 49.32977,8.12298574 L12.7492823,17.0680419 C12.0208285,19.9800662 10.3949019,22.6475494 8.13295363,24.640963 L12.0305119,40.3011921 C14.9683156,41.0232537 17.6591933,42.6349126 19.6702542,44.8770121 M56.8247018,36.884161 L19.6090728,45.9845368 C19.4121042,46.0327469 19.2043518,45.9662126 19.072966,45.8130744 C17.1182448,43.5317088 14.4190042,41.9150325 11.4723974,41.260596 C11.2743283,41.2167487 11.118294,41.0653558 11.069657,40.8701155 L7.01562426,24.5803185 C6.96698731,24.3848601 7.03389062,24.1791489 7.18860454,24.0489161 C9.49016659,22.1113477 11.121155,19.435575 11.781385,16.514825 C11.8256205,16.318494 11.9783537,16.164047 12.1753223,16.1158368 L49.3909513,7.01546104 C49.5879199,6.96725088 49.7956723,7.03378526 49.9270581,7.18714154 C51.8817793,9.46828903 54.5810199,11.0851835 57.5276268,11.7394018 C57.7256958,11.7834672 57.8817302,11.934642 57.930147,12.1301004 L61.9843999,28.4198974 C62.0330368,28.6151377 61.9659134,28.821067 61.8114196,28.9512999 C59.5098575,30.8888682 57.8788692,33.5644228 57.2186391,36.4851729 C57.1744037,36.6815038 57.0216705,36.8359508 56.8247018,36.884161" id="Fill-3" fill="#EA750A"></path>
                <path d="M72.8494651,50.9965147 C72.9572222,49.8436595 74.0079089,48.9939945 75.1965692,49.0982902 L75.5864941,44.9238769 C74.3978339,44.8193657 73.5217802,43.8001124 73.6293151,42.6474727 C73.7370721,41.4946175 74.7879811,40.6449525 75.9764191,40.7492481 L76.3663441,36.5748349 C75.1779061,36.4703237 74.3016302,35.4510704 74.4093872,34.2984307 C74.5169221,33.1455755 75.5678311,32.2956949 76.7562691,32.4002061 L77,29.7910901 C72.5428574,29.3995503 69.2570451,25.5776737 69.6609674,21.2547899 L21.2387269,17 C20.8350268,21.3226683 16.8944515,24.5097203 12.4373089,24.1179651 L12.193578,26.7270811 C13.3822382,26.8315923 14.2582919,27.8506301 14.1507571,29.0034853 C14.043,30.156125 12.9920911,31.0060055 11.803653,30.9017098 L11.413728,35.0761231 C12.6021661,35.1806343 13.478442,36.1996721 13.3706849,37.3525273 C13.26315,38.5053825 12.2122411,39.3550475 11.023803,39.2507519 L10.6336559,43.4251651 C11.8223161,43.5296763 12.698592,44.5489296 12.5908349,45.7015693 C12.4830779,46.8544245 11.4323911,47.7043051 10.2437309,47.5997939 L10,50.2089099 C14.4571426,50.6004497 17.7431771,54.4223263 17.3392548,58.7452101 L65.7612731,63 C66.1651954,58.6771162 70.1057707,55.4902797 74.5629133,55.8820349 L74.8066442,53.2729189 C73.6179839,53.1684077 72.7417081,52.1493699 72.8494651,50.9965147" id="Fill-5" fill="#F9B422"></path>
                <path d="M23.9713193,51.5515675 L62.3611893,54.9141945 C64.0458206,52.4020746 66.5162529,50.4104468 69.3750826,49.2597479 L70.8771109,33.2294187 C68.2787888,31.6006769 66.2188193,29.2122038 65.0286348,26.4484365 L26.6387648,23.0855917 C24.9541335,25.5977116 22.4837012,27.5893395 19.6250967,28.7400384 L18.1228432,44.7705852 C20.7211653,46.3991094 22.7811348,48.7875825 23.9713193,51.5515675 M62.5955786,55.9978456 L23.5392414,52.5766604 C23.3325464,52.5585923 23.1542214,52.4288503 23.0787935,52.2418562 C21.9561563,49.4591501 19.8896572,47.0632756 17.2600382,45.4954864 C17.0832893,45.3901254 16.9835443,45.1970361 17.0022324,44.9971985 L18.5648282,28.3222951 C18.5835163,28.1224575 18.7174852,27.9500485 18.911121,27.877123 C21.7890891,26.7917305 24.267402,24.7937897 25.8889891,22.2514112 C25.9979655,22.0805261 26.1976805,21.9840903 26.4043755,22.0021584 L65.4607127,25.4231258 C65.6674077,25.4414116 65.8459579,25.570936 65.9213858,25.75793 C67.044023,28.5406362 69.1102969,30.9367284 71.7399159,32.5045176 C71.9166648,32.6098786 72.0166349,32.8027502 71.9977217,33.0028055 L70.4353511,49.6774912 C70.4164378,49.8775465 70.2824689,50.0499554 70.0890582,50.1228809 C67.210865,51.2082735 64.7327773,53.2059965 63.110965,55.7483751 C63.0019886,55.9192602 62.8024987,56.0159137 62.5955786,55.9978456" id="Fill-7" fill="#F18922"></path>
                <path d="M44.7237571,34.2968835 L45.6981777,36.87247 C45.7520485,37.0149152 45.8713484,37.1211705 46.0168614,37.1565188 L48.6505422,37.7984692 C49.0173173,37.887892 49.1242332,38.3669877 48.8317625,38.609376 L46.7299779,40.3500693 C46.613774,40.4462251 46.5514408,40.5945617 46.5632056,40.7466856 L46.7782758,43.4985928 C46.808204,43.8815327 46.3943694,44.1333893 46.0777497,43.924666 L43.8044456,42.4248882 C43.6787472,42.3417776 43.5210566,42.3272596 43.3827677,42.385963 L40.8820094,43.4447287 C40.5338103,43.5922237 40.1709568,43.2686184 40.2679654,42.8972509 L40.9645699,40.2297168 C41.0031669,40.0822218 40.9680787,39.9248377 40.8706573,39.8089037 L39.110054,37.7113609 C38.8648493,37.419527 39.0545321,36.9675738 39.4310081,36.9469539 L42.1350718,36.7981965 C42.2845063,36.7897802 42.4205248,36.7070905 42.4985445,36.5770592 L43.9113615,34.2217684 C44.108062,33.893955 44.5881514,33.9383508 44.7237571,34.2968835" id="Fill-9" fill="#F18922"></path>
                <path d="M58.7237571,36.2968835 L59.6981777,38.87247 C59.7520485,39.0149152 59.8713484,39.1211705 60.0168614,39.1565188 L62.6505422,39.7984692 C63.0173173,39.887892 63.1242332,40.3669877 62.8317625,40.609376 L60.7299779,42.3500693 C60.613774,42.4462251 60.5514408,42.5945617 60.5632056,42.7466856 L60.7782758,45.4985928 C60.808204,45.8815327 60.3943694,46.1333893 60.0777497,45.924666 L57.8044456,44.4248882 C57.6787472,44.3417776 57.5210566,44.3272596 57.3827677,44.3857526 L54.8820094,45.4447287 C54.5338103,45.5922237 54.1709568,45.2686184 54.2679654,44.8972509 L54.9645699,42.2297168 C55.0031669,42.0822218 54.9680787,41.9248377 54.8706573,41.8089037 L53.110054,39.7113609 C52.8648493,39.419527 53.0545321,38.9675738 53.4310081,38.9469539 L56.1350718,38.7979861 C56.2845063,38.7897802 56.4205248,38.7070905 56.4985445,38.5770592 L57.9113615,36.2217684 C58.108062,35.893955 58.5881514,35.9383508 58.7237571,36.2968835" id="Fill-11" fill="#F18922"></path>
                <path d="M29.7237571,33.2968835 L30.6981777,35.87247 C30.7520485,36.0149152 30.8713484,36.1211705 31.0168614,36.1565188 L33.6505422,36.7984692 C34.0173173,36.8876816 34.1242332,37.3669877 33.8317625,37.609376 L31.7299779,39.3500693 C31.613774,39.4462251 31.5514408,39.5945617 31.5632056,39.7466856 L31.7782758,42.4985928 C31.8084104,42.8815327 31.3943694,43.1333893 31.0777497,42.924666 L28.8044456,41.4248882 C28.6787472,41.3417776 28.5210566,41.3272596 28.3827677,41.3857526 L25.8820094,42.4447287 C25.5338103,42.5922237 25.1709568,42.2686184 25.2679654,41.8972509 L25.9645699,39.2297168 C26.0031669,39.0822218 25.9680787,38.9248377 25.8706573,38.8089037 L24.110054,36.7113609 C23.8648493,36.419527 24.0545321,35.9675738 24.4310081,35.9469539 L27.1350718,35.7981965 C27.2845063,35.7897802 27.4205248,35.7070905 27.4985445,35.5770592 L28.9113615,33.2217684 C29.108062,32.893955 29.5881514,32.9383508 29.7237571,33.2968835" id="Fill-13" fill="#F18922"></path>
            </g>
        </g>
    </g>
</svg>