<?xml version="1.0" encoding="UTF-8"?>
<svg width="15px" height="16px" viewBox="0 0 15 16" version="1.1" xmlns="http://www.w3.org/2000/svg" xmlns:xlink="http://www.w3.org/1999/xlink">
    <!-- Generator: sketchtool 45 (43475) - http://www.bohemiancoding.com/sketch -->
    <title>B4577AF0-A402-477A-937D-4416F6AF24D7</title>
    <desc>Created with sketchtool.</desc>
    <defs></defs>
    <g id="Page-1" stroke="none" stroke-width="1" fill="none" fill-rule="evenodd">
        <g id="бронирование1920" transform="translate(-1281.000000, -224.000000)" fill-rule="nonzero" fill="#3e4758">
            <g id="school-calendar" transform="translate(1280.980984, 224.048756)">
                <path d="M13.1263902,1.84216009 L11.9689901,1.84216009 L11.9689901,1.05218191 C11.9689901,0.471082884 11.4979072,0 10.9168082,0 L10.8747209,0 C10.2936219,0 9.82253899,0.471082884 9.82253899,1.05218191 L9.82253899,1.84216009 L4.39328034,1.84216009 L4.39328034,1.05218191 C4.39328034,0.471082884 3.92219746,0 3.34109843,0 L3.29901116,0 C2.71791213,0 2.24682925,0.471082884 2.24682925,1.05218191 L2.24682925,1.84216009 L1.08942915,1.84216009 C0.508330124,1.84216009 0.0372472396,2.31324297 0.0372472396,2.89434199 L0.0372472396,14.1737321 C0.0372472396,14.7549153 0.508330124,15.225914 1.08942915,15.225914 L13.1263902,15.225914 C13.7074892,15.225914 14.1785721,14.7549153 14.1785721,14.1737321 L14.1785721,2.89434199 C14.1785721,2.31324297 13.7074471,1.84216009 13.1263902,1.84216009 Z M12.4109065,13.5634665 L1.80491285,13.5634665 L1.80491285,5.01974945 L12.4109065,5.01974945 L12.4109065,13.5634665 Z" id="Shape"></path>
                <path d="M3.24644415,8.88605501 L5.0771565,8.88605501 C5.17012729,8.88605501 5.2455056,8.81067669 5.2455056,8.7177059 L5.2455056,6.88699355 C5.2455056,6.79402276 5.17012729,6.71864445 5.0771565,6.71864445 L3.24644415,6.71864445 C3.15347336,6.71864445 3.07809504,6.79402276 3.07809504,6.88699355 L3.07809504,8.7177059 C3.07809504,8.81067669 3.15347336,8.88605501 3.24644415,8.88605501 Z" id="Shape"></path>
                <path d="M6.19255349,8.88605501 L8.02326584,8.88605501 C8.11623663,8.88605501 8.19161495,8.81067669 8.19161495,8.7177059 L8.19161495,6.88699355 C8.19161495,6.79402276 8.11623663,6.71864445 8.02326584,6.71864445 L6.19255349,6.71864445 C6.0995827,6.71864445 6.02420439,6.79402276 6.02420439,6.88699355 L6.02420439,8.7177059 C6.02420439,8.81067669 6.0995827,8.88605501 6.19255349,8.88605501 Z" id="Shape"></path>
                <path d="M9.13866284,8.88605501 L10.9693752,8.88605501 C11.062346,8.88605501 11.1377243,8.81067669 11.1377243,8.7177059 L11.1377243,6.88699355 C11.1377243,6.79402276 11.062346,6.71864445 10.9693752,6.71864445 L9.13866284,6.71864445 C9.04569204,6.71864445 8.97031373,6.79402276 8.97031373,6.88699355 L8.97031373,8.7177059 C8.97031373,8.81067669 9.04569204,8.88605501 9.13866284,8.88605501 Z" id="Shape"></path>
                <path d="M3.24644415,11.8321643 L5.0771565,11.8321643 C5.17012729,11.8321643 5.2455056,11.756786 5.2455056,11.6638152 L5.2455056,9.8331029 C5.2455056,9.7401321 5.17012729,9.66475379 5.0771565,9.66475379 L3.24644415,9.66475379 C3.15347336,9.66475379 3.07809504,9.7401321 3.07809504,9.8331029 L3.07809504,11.6638152 C3.07809504,11.756786 3.15347336,11.8321643 3.24644415,11.8321643 Z" id="Shape"></path>
                <path d="M6.19255349,11.8321643 L8.02326584,11.8321643 C8.11623663,11.8321643 8.19161495,11.756786 8.19161495,11.6638152 L8.19161495,9.8331029 C8.19161495,9.7401321 8.11623663,9.66475379 8.02326584,9.66475379 L6.19255349,9.66475379 C6.0995827,9.66475379 6.02420439,9.7401321 6.02420439,9.8331029 L6.02420439,11.6638152 C6.02420439,11.756786 6.0995827,11.8321643 6.19255349,11.8321643 Z" id="Shape"></path>
                <path d="M9.13866284,11.8321643 L10.9693752,11.8321643 C11.062346,11.8321643 11.1377243,11.756786 11.1377243,11.6638152 L11.1377243,9.8331029 C11.1377243,9.7401321 11.062346,9.66475379 10.9693752,9.66475379 L9.13866284,9.66475379 C9.04569204,9.66475379 8.97031373,9.7401321 8.97031373,9.8331029 L8.97031373,11.6638152 C8.97031373,11.756786 9.04569204,11.8321643 9.13866284,11.8321643 Z" id="Shape"></path>
            </g>
        </g>
    </g>
</svg>