<?xml version="1.0" encoding="UTF-8"?>
<svg width="149px" height="100px" viewBox="0 0 149 100" version="1.1" xmlns="http://www.w3.org/2000/svg" xmlns:xlink="http://www.w3.org/1999/xlink">
    <!-- Generator: sketchtool 45 (43475) - http://www.bohemiancoding.com/sketch -->
    <title>76DC1770-837F-492D-A040-81CCFCE84ED6</title>
    <desc>Created with sketchtool.</desc>
    <defs>
        <polygon id="path-1" points="6.48684299 0.075231693 0.102818695 0.075231693 0.102818695 22.9336605 6.48684299 22.9336605 6.48684299 0.075231693"></polygon>
        <polygon id="path-3" points="6.43438665 0.075231693 0.0503623562 0.075231693 0.0503623562 22.9364671 6.43438665 22.9364671 6.43438665 0.075231693"></polygon>
    </defs>
    <g id="Page-1" stroke="none" stroke-width="1" fill="none" fill-rule="evenodd">
        <g id="гайды" transform="translate(-239.000000, -6575.000000)">
            <g id="Page-1" transform="translate(239.328715, 6575.074558)">
                <polygon id="Fill-1" fill="#67B5FF" points="126.440601 27.5951409 126.801557 27.4801495 123.321994 16.561614 122.961037 16.6766055"></polygon>
                <polygon id="Fill-2" fill="#67B5FF" points="132.704068 28.2026271 132.343307 28.0876357 135.822675 17.1691002 136.183631 17.2840917"></polygon>
                <polygon id="Fill-3" fill="#67B5FF" points="128.24314 25.9783222 128.667476 25.9783222 128.667476 23.818432 128.24314 23.818432"></polygon>
                <polygon id="Fill-4" fill="#67B5FF" points="130.706686 25.9894315 131.131022 25.9894315 131.131022 23.8295413 130.706686 23.8295413"></polygon>
                <g id="Group-67" transform="translate(0.000000, 0.119669)">
                    <g id="Group-7" transform="translate(119.279265, 0.000000)" fill="#70C1B1">
                        <path d="M10.3849361,0.075212203 C0.139393023,0.107370828 -0.916774191,8.04821246 0.604816036,12.4940937 C1.9574273,16.4459015 8.78324169,23.2036955 8.78324169,23.2036955 C8.78324169,23.2036955 9.56011612,23.2898416 10.3849361,23.3038745 L10.3849361,0.075212203 Z" id="Fill-5"></path>
                    </g>
                    <g id="Group-10" transform="translate(123.177280, 0.000000)">
                        <mask id="mask-2" fill="white">
                            <use xlink:href="#path-1"></use>
                        </mask>
                        <g id="Clip-9"></g>
                        <path d="M5.50122985,22.9336605 C5.50122985,22.9336605 -0.135689909,14.8940042 0.110664651,8.7140909 C0.453105285,0.127543057 6.48684299,0.0751147526 6.48684299,0.0751147526 L6.48684299,22.9036458 L5.50122985,22.9336605 Z" id="Fill-8" fill="#3AB293" mask="url(#mask-2)"></path>
                    </g>
                    <g id="Group-13" transform="translate(129.609005, 0.000000)" fill="#3AB293">
                        <path d="M0.055195895,0.075212203 C10.300739,0.107370828 11.3520337,8.05094107 9.83024857,12.4968223 C8.4776373,16.448825 1.65201781,23.2064241 1.65201781,23.2064241 C1.65201781,23.2064241 0.875143389,23.2927651 0.050323376,23.306798 L0.055195895,0.075212203 Z" id="Fill-11"></path>
                    </g>
                    <g id="Group-16" transform="translate(129.609005, 0.000000)">
                        <mask id="mask-4" fill="white">
                            <use xlink:href="#path-3"></use>
                        </mask>
                        <g id="Clip-15"></g>
                        <path d="M1.0359755,22.9364671 C1.0359755,22.9364671 6.67289525,14.8968107 6.42654069,8.71689747 C6.08410006,0.130349628 0.0552348751,0.0751927129 0.0552348751,0.0751927129 L0.0503623562,22.9064523 L1.0359755,22.9364671 Z" id="Fill-14" fill="#70C1B1" mask="url(#mask-4)"></path>
                    </g>
                    <path d="M130.986388,23.946131 L128.280581,23.946131 C127.903058,23.946131 127.594335,23.6374081 127.594335,23.2598854 C127.594335,22.8825575 127.903058,22.5736398 128.280581,22.5736398 L130.986388,22.5736398 C131.363911,22.5736398 131.672634,22.8825575 131.672634,23.2598854 C131.672634,23.6374081 131.363911,23.946131 130.986388,23.946131" id="Fill-17" fill="#199D86"></path>
                    <path d="M134.025047,27.6521689 L125.156672,27.6521689 C124.942282,27.6521689 124.766871,27.4767582 124.766871,27.2623674 L124.766871,25.9709549 C124.766871,25.7565641 124.942282,25.5811534 125.156672,25.5811534 L134.025047,25.5811534 C134.239438,25.5811534 134.414848,25.7565641 134.414848,25.9709549 L134.414848,27.2623674 C134.414848,27.4767582 134.239438,27.6521689 134.025047,27.6521689" id="Fill-19" fill="#F9B424"></path>
                    <path d="M125.306824,27.6472379 L125.306824,31.9370036 C125.306824,32.9270995 126.116831,33.737107 127.106732,33.737107 L132.074948,33.737107 C133.065044,33.737107 133.874856,32.9270995 133.874856,31.9370036 L133.874856,27.6472379 L125.306824,27.6472379 Z" id="Fill-21" fill="#F9B424"></path>
                    <path d="M130.850445,27.6472379 L129.097312,33.737107 L132.075006,33.737107 C133.064907,33.737107 133.874915,32.9270995 133.874915,31.9370036 L133.874915,27.6472379 L130.850445,27.6472379 Z" id="Fill-23" fill="#F18923"></path>
                    <path d="M101.574382,40.3933967 L67.2810089,40.3933967 C65.5099457,40.0219159 64.1690285,38.4438044 64.1690285,36.5667152 C64.1690285,34.6853382 65.5155978,33.1033287 67.2925081,32.7363306 L86.7169024,32.7363306 C89.2013024,32.7363306 91.2341173,30.7035157 91.2341173,28.2191157 C91.2341173,25.7347157 89.2013024,23.7019008 86.7169024,23.7019008 L35.5217353,23.7019008 C33.0373353,23.7019008 31.0045204,25.7347157 31.0045204,28.2191157 C31.0045204,30.7035157 33.0373353,32.7363306 35.5217353,32.7363306 L45.7312218,32.7363306 C47.3923609,33.1875259 48.6293961,34.6976169 48.6293961,36.496356 C48.6293961,38.6014791 46.9409708,40.3205038 44.852999,40.3933967 L4.51731234,40.3933967 C2.03271747,40.3933967 9.74503796e-05,42.4262116 9.74503796e-05,44.9106116 C9.74503796e-05,47.3950116 2.03271747,49.4278265 4.51731234,49.4278265 L51.8731294,49.4278265 C53.3912114,49.9308654 54.501561,51.3505225 54.501561,53.0315415 C54.501561,54.7607011 53.3276738,56.214076 51.7427408,56.6759908 L41.2563003,56.6759908 C38.7719004,56.6759908 36.7390854,58.7088058 36.7390854,61.1932057 C36.7390854,63.6778006 38.7719004,65.7106155 41.2563003,65.7106155 L79.5012865,65.7106155 C81.9858814,65.7106155 84.0185014,63.6778006 84.0185014,61.1932057 C84.0185014,58.7088058 81.9858814,56.6759908 79.5012865,56.6759908 L72.1884151,56.6759908 C70.7159399,56.1476149 69.6490531,54.7488121 69.6490531,53.1001466 C69.6490531,51.3384387 70.8658186,49.8597266 72.4967481,49.4278265 L101.574382,49.4278265 C104.058782,49.4278265 106.091597,47.3950116 106.091597,44.9106116 C106.091597,42.4262116 104.058782,40.3933967 101.574382,40.3933967" id="Fill-25" fill="#399BF7"></path>
                    <path d="M109.814435,38.9203368 C112.836372,38.9616557 114.659473,38.8811617 115.320187,38.4235347 C116.396624,37.6784291 117.889174,33.8957952 116.707101,28.8400695 C115.734156,24.6797179 111.83809,17.4590346 84.7554602,17.6145654 C75.1513354,17.6699172 71.143786,18.3333594 66.5406199,19.3532751 C55.8152311,21.7297 53.1004585,24.5555661 51.8585508,29.3162121 C50.6616653,33.9043708 51.8585508,38.9203368 53.8455641,39.2514732 C55.8325773,39.5826096 63.1737093,39.334306 65.2712313,39.2514732 C67.3685583,39.1686404 69.1624249,39.2239922 69.659227,37.5681153 C70.156029,35.9122385 68.582985,31.2203925 70.8183018,29.6473485 C73.0538135,28.0743044 76.4484,27.1635332 83.6515423,26.9152296 C90.8544896,26.6667312 95.6566494,28.0743044 96.7328914,28.81941 C97.8093283,29.5645156 99.548038,30.8064233 98.3061303,34.4495083 C97.0642227,38.0923984 100.375976,38.9203368 100.375976,38.9203368 C100.375976,38.9203368 107.37077,38.8868139 109.814435,38.9203368" id="Fill-27" fill="#A82D2F"></path>
                    <path d="M80.2423187,32.8672259 L77.8290575,32.8672259 C77.5581454,32.8672259 77.3384923,32.6475728 77.3384923,32.3764658 L77.3384923,27.0332615 C77.3384923,26.7623495 77.5581454,26.5426963 77.8290575,26.5426963 L80.2423187,26.5426963 C80.5132307,26.5426963 80.7330788,26.7623495 80.7330788,27.0332615 L80.7330788,32.3764658 C80.7330788,32.6475728 80.5132307,32.8672259 80.2423187,32.8672259" id="Fill-29" fill="#611814"></path>
                    <path d="M90.9917582,32.8741254 L88.578497,32.8741254 C88.307585,32.8741254 88.0879318,32.6544723 88.0879318,32.3833653 L88.0879318,27.040161 C88.0879318,26.769249 88.307585,26.5495958 88.578497,26.5495958 L90.9917582,26.5495958 C91.2626703,26.5495958 91.4825183,26.769249 91.4825183,27.040161 L91.4825183,32.3833653 C91.4825183,32.6544723 91.2626703,32.8741254 90.9917582,32.8741254" id="Fill-31" fill="#611814"></path>
                    <path d="M51.5629253,35.3696348 C51.9176447,37.5014593 52.7639038,39.07119 53.845603,39.2514732 C55.8326163,39.5826096 63.1737483,39.334306 65.2712702,39.2514732 C67.3685973,39.1686404 69.1624639,39.2239922 69.6592659,37.5681153 C69.8112885,37.0611784 69.7693849,36.2691018 69.7021441,35.3696348 L51.5629253,35.3696348 Z" id="Fill-33" fill="#FEFEFE"></path>
                    <path d="M98.076089,35.3696348 C97.6371725,38.2346759 100.375918,38.9203368 100.375918,38.9203368 C100.375918,38.9203368 107.370906,38.8868139 109.814377,38.9203368 C112.836508,38.9616557 114.659415,38.8811617 115.320323,38.4235347 C115.845191,38.0602397 116.468289,36.9730833 116.832558,35.3696348 L98.076089,35.3696348 Z" id="Fill-35" fill="#FEFEFE"></path>
                    <path d="M96.4845878,32.4899955 C92.4277285,32.4623196 71.8395817,32.4899955 70.9839674,32.4899955 C70.128548,32.4899955 67.0374219,32.2968489 65.0780846,34.2010293 C62.9507428,36.2683416 57.4058162,45.0747375 56.522526,54.3477259 C55.6394306,63.6205193 55.3698829,74.5376904 59.1720069,77.5300018 C61.5039945,79.3651873 62.9254057,79.0755648 66.2371594,79.1858786 C69.5489131,79.2961924 100.651956,79.2961924 103.991191,79.1858786 C107.33062,79.0755648 109.400466,78.2476264 110.80804,75.6809783 C113.311735,71.1152331 113.388331,58.1286057 111.511826,51.1739619 C109.635127,44.2191232 106.192595,35.1535093 102.335314,33.3730909 C100.900259,32.7108181 100.541447,32.5176714 96.4845878,32.4899955" id="Fill-37" fill="#E84943"></path>
                    <path d="M102.015949,53.7660445 C102.015949,63.70267 93.960701,71.7579183 84.0240756,71.7579183 C74.0874502,71.7579183 66.0322018,63.70267 66.0322018,53.7660445 C66.0322018,43.8294191 74.0874502,35.7741708 84.0240756,35.7741708 C93.960701,35.7741708 102.015949,43.8294191 102.015949,53.7660445" id="Fill-39" fill="#FEFEFE"></path>
                    <path d="M95.7227403,69.4188753 L95.7227403,69.4188753 C94.9365106,70.0758858 93.7558018,69.9702496 93.0987913,69.1840199 L88.6918903,63.9109799 C88.0348798,63.1247502 88.140516,61.9440414 88.9267457,61.287031 L88.9267457,61.287031 C89.7129754,60.6300205 90.8936842,60.7356567 91.5506946,61.5216915 L95.9575957,66.7949264 C96.6146061,67.5809612 96.5089699,68.7618649 95.7227403,69.4188753" id="Fill-41" fill="#3AB293"></path>
                    <path d="M73.4678022,53.2340239 C73.4678022,54.4739826 72.462699,55.4790858 71.2227403,55.4790858 C69.9827817,55.4790858 68.9774836,54.4739826 68.9774836,53.2340239 C68.9774836,51.9940653 69.9827817,50.9889621 71.2227403,50.9889621 C72.462699,50.9889621 73.4678022,51.9940653 73.4678022,53.2340239" id="Fill-43" fill="#399BF7"></path>
                    <path d="M75.5376677,46.8174817 C75.5376677,48.0574403 74.5325645,49.0625435 73.2926059,49.0625435 C72.0526473,49.0625435 71.0473491,48.0574403 71.0473491,46.8174817 C71.0473491,45.577523 72.0526473,44.5724198 73.2926059,44.5724198 C74.5325645,44.5724198 75.5376677,45.577523 75.5376677,46.8174817" id="Fill-45" fill="#399BF7"></path>
                    <path d="M79.9257609,42.181007 C79.9257609,43.4209656 78.9206577,44.4260688 77.680699,44.4260688 C76.4407404,44.4260688 75.4354423,43.4209656 75.4354423,42.181007 C75.4354423,40.9410484 76.4407404,39.9359452 77.680699,39.9359452 C78.9206577,39.9359452 79.9257609,40.9410484 79.9257609,42.181007" id="Fill-47" fill="#399BF7"></path>
                    <path d="M86.6320816,40.6907178 C86.6320816,41.9306765 85.6269784,42.9357797 84.3870198,42.9357797 C83.1470611,42.9357797 82.141763,41.9306765 82.141763,40.6907178 C82.141763,39.4507592 83.1470611,38.445656 84.3870198,38.445656 C85.6269784,38.445656 86.6320816,39.4507592 86.6320816,40.6907178" id="Fill-49" fill="#399BF7"></path>
                    <path d="M92.96583,42.2638008 C92.96583,43.5037595 91.9607268,44.5088627 90.7207682,44.5088627 C89.4808096,44.5088627 88.4755115,43.5037595 88.4755115,42.2638008 C88.4755115,41.0238422 89.4808096,40.018739 90.7207682,40.018739 C91.9607268,40.018739 92.96583,41.0238422 92.96583,42.2638008" id="Fill-51" fill="#399BF7"></path>
                    <path d="M97.436717,46.9002755 C97.436717,48.1402341 96.4316138,49.1453374 95.1916552,49.1453374 C93.9516966,49.1453374 92.9463984,48.1402341 92.9463984,46.9002755 C92.9463984,45.6603169 93.9516966,44.6552137 95.1916552,44.6552137 C96.4316138,44.6552137 97.436717,45.6603169 97.436717,46.9002755" id="Fill-53" fill="#399BF7"></path>
                    <path d="M99.7135477,53.4410086 C99.7135477,54.6809672 98.7084445,55.6860704 97.4684859,55.6860704 C96.2285272,55.6860704 95.2232291,54.6809672 95.2232291,53.4410086 C95.2232291,52.2010499 96.2285272,51.1959467 97.4684859,51.1959467 C98.7084445,51.1959467 99.7135477,52.2010499 99.7135477,53.4410086" id="Fill-55" fill="#399BF7"></path>
                    <path d="M86.4664939,66.4810972 C86.4664939,67.7210558 85.4613907,68.7261591 84.2214321,68.7261591 C82.9814734,68.7261591 81.9761753,67.7210558 81.9761753,66.4810972 C81.9761753,65.2411386 82.9814734,64.2360354 84.2214321,64.2360354 C85.4613907,64.2360354 86.4664939,65.2411386 86.4664939,66.4810972" id="Fill-57" fill="#399BF7"></path>
                    <path d="M79.9671578,64.5354224 C79.9671578,65.7753811 78.9620546,66.7804843 77.7220959,66.7804843 C76.4821373,66.7804843 75.4768392,65.7753811 75.4768392,64.5354224 C75.4768392,63.2954638 76.4821373,62.2903606 77.7220959,62.2903606 C78.9620546,62.2903606 79.9671578,63.2954638 79.9671578,64.5354224" id="Fill-59" fill="#399BF7"></path>
                    <path d="M75.2478893,59.5677724 C75.2478893,60.807731 74.2427861,61.8128342 73.0028274,61.8128342 C71.7628688,61.8128342 70.7575707,60.807731 70.7575707,59.5677724 C70.7575707,58.3278138 71.7628688,57.3227105 73.0028274,57.3227105 C74.2427861,57.3227105 75.2478893,58.3278138 75.2478893,59.5677724" id="Fill-61" fill="#399BF7"></path>
                    <path d="M143.978434,90.6705423 L127.906332,90.6705423 C126.359405,90.3265424 125.192729,88.9409929 125.192729,87.2942764 C125.192729,85.4082218 126.722505,83.864218 128.602323,83.8365421 L130.061935,83.8365421 C132.317131,83.8365421 134.162257,81.9914166 134.162257,79.7362199 L134.162257,79.7362199 C134.162257,77.4810232 132.317131,75.6357028 130.061935,75.6357028 L83.5909671,75.6357028 C81.3355755,75.6357028 79.49045,77.4810232 79.49045,79.7362199 L79.49045,79.7362199 C79.49045,81.9914166 81.3355755,83.8365421 83.5909671,83.8365421 L108.639223,83.8365421 C110.230977,84.1458496 111.44287,85.5536177 111.44287,87.2321031 C111.44287,89.007649 110.087336,90.4807089 108.36032,90.6705423 L97.5072711,90.6705423 C95.2520744,90.6705423 93.4069489,92.5156678 93.4069489,94.7708644 L93.4069489,94.7708644 C93.4069489,97.0260611 95.2520744,98.8713815 97.5072711,98.8713815 L143.978434,98.8713815 C146.23363,98.8713815 148.078756,97.0260611 148.078756,94.7708644 L148.078756,94.7708644 C148.078756,92.5156678 146.23363,90.6705423 143.978434,90.6705423" id="Fill-63" fill="#399BF7"></path>
                    <path d="M82.3483188,91.38499 C80.1352207,91.38499 78.3411592,93.1790515 78.3411592,95.3921496 C78.3411592,97.6052477 80.1352207,99.3993092 82.3483188,99.3993092 C84.561417,99.3993092 86.3554784,97.6052477 86.3554784,95.3921496 C86.3554784,93.1790515 84.561417,91.38499 82.3483188,91.38499" id="Fill-65" fill="#399BF7"></path>
                </g>
            </g>
        </g>
    </g>
</svg>