<?xml version="1.0" encoding="UTF-8"?>
<svg width="13px" height="13px" viewBox="0 0 13 13" version="1.1" xmlns="http://www.w3.org/2000/svg" xmlns:xlink="http://www.w3.org/1999/xlink">
    <!-- Generator: Sketch 49.1 (51147) - http://www.bohemiancoding.com/sketch -->
    <title>Group 8</title>
    <desc>Created with Sketch.</desc>
    <defs></defs>
    <g id="Page-1" stroke="none" stroke-width="1" fill="none" fill-rule="evenodd">
        <g id="оператор_Санмар_-Греция" transform="translate(-1318.000000, -1357.000000)" fill-rule="nonzero">
            <g id="Group-7" transform="translate(1289.000000, 1275.000000)">
                <g id="Group-10-Copy-21" transform="translate(29.000000, 82.000000)">
                    <g id="Group-8">
                        <path d="M1,3 L1,12 L10,12 L10,3 L1,3 Z M0,2 L11,2 L11,13 L0,13 L0,2 Z" id="Rectangle-7-Copy-7" fill="#8B959F"></path>
                        <path d="M5.06698458,10.247713 L11.1613066,0.599472534 C11.3825118,0.249270978 11.8457285,0.144698779 12.1959301,0.365903991 C12.5461317,0.587109202 12.6507038,1.05032591 12.4294986,1.40052747 L5.74685899,11.9801643 C5.46438207,12.4273683 4.82017818,12.4495097 4.5076632,12.0227556 L1.39490022,7.77212979 C1.15017247,7.43794241 1.22269383,6.96863897 1.55688121,6.72391122 C1.89106859,6.47918347 2.36037203,6.55170483 2.60509978,6.88589221 L5.06698458,10.247713 Z" id="Path-5-Copy" fill="#15AD89"></path>
                    </g>
                </g>
            </g>
        </g>
    </g>
</svg>