<?xml version="1.0" encoding="UTF-8"?>
<svg width="17px" height="17px" viewBox="0 0 17 17" version="1.1" xmlns="http://www.w3.org/2000/svg" xmlns:xlink="http://www.w3.org/1999/xlink">
    <!-- Generator: sketchtool 51.1 (57501) - http://www.bohemiancoding.com/sketch -->
    <title>82E008DA-1770-434F-9C4C-798EFBE89AB9</title>
    <desc>Created with sketchtool.</desc>
    <defs></defs>
    <g id="Page-1" stroke="none" stroke-width="1" fill="none" fill-rule="evenodd">
        <g id="для_менеджеров" transform="translate(-1010.000000, -173.000000)" fill="#FFFFFF" fill-rule="nonzero">
            <g id="Group-2" transform="translate(1000.000000, 162.000000)">
                <g id="Group" transform="translate(11.562500, 12.333333)">
                    <path d="M-0.675243505,1.44607684 C-1.26102994,0.860290401 -1.26102994,-0.0894570675 -0.675243505,-0.675243505 C-0.0894570675,-1.26102994 0.860290401,-1.26102994 1.44607684,-0.675243505 L14.6911829,12.5698625 C15.2769693,13.155649 15.2769693,14.1053964 14.6911829,14.6911829 C14.1053964,15.2769693 13.155649,15.2769693 12.5698625,14.6911829 L-0.675243505,1.44607684 Z" id="Line-2"></path>
                    <path d="M-0.675243505,1.44607684 C-1.26102994,0.860290401 -1.26102994,-0.0894570675 -0.675243505,-0.675243505 C-0.0894570675,-1.26102994 0.860290401,-1.26102994 1.44607684,-0.675243505 L14.6911829,12.5698625 C15.2769693,13.155649 15.2769693,14.1053964 14.6911829,14.6911829 C14.1053964,15.2769693 13.155649,15.2769693 12.5698625,14.6911829 L-0.675243505,1.44607684 Z" id="Line-2-Copy" transform="translate(7.007970, 7.007970) scale(-1, 1) translate(-7.007970, -7.007970) "></path>
                </g>
            </g>
        </g>
    </g>
</svg>