<svg xmlns="http://www.w3.org/2000/svg" width="1101" height="90" viewBox="0 0 1101 90">
    <path fill="#FFF" fill-rule="evenodd" d="M42.927 23.921c6.713.963 6.353 7.08 6.113 9.599-1.2 13.68-3.24 21.6-3.36 46.8 0 5.28-1.68 8.4-4.68 8.28-8.04-.36-15.96-4.08-18.84-7.68-.84-1.08-1.2-2.4-1.2-3.96.24-19.92 3.96-45.36 4.68-52.32-4.68 0-9 .12-12.6.48-4.44-.36-5.04-1.56-7.56-4.56C4.52 19.48.92 12.64.44 6.76.32 4.72.32 3.16 2 2.92c6.12-.84 29.76-1.56 47.88-.6 3.96.24 13.92.48 15.48 1.32C68 4.96 71.84 12.76 74 20.56c.6 2.04 0 5.4-3.96 5.28-1.775-.118-12.54-1.871-27.113-1.919zM148.4 7.96c-2.4 13.68-7.44 50.28-7.44 78.36 0 1.68-.96 2.52-2.88 2.52-7.92 0-17.64-3.96-20.4-7.56-.84-1.08-1.2-2.4-1.2-3.96 0-5.76.48-13.68 1.2-22.2-4.32.48-9.24.84-14.28 1.08-.84 10.2-1.44 20.64-1.44 30.12 0 1.68-.96 2.52-2.76 2.52-8.04 0-17.64-3.96-20.52-7.56-.84-1.08-1.2-2.4-1.2-3.96 0-6.72.6-16.44 1.68-26.64-2.52-3.72-4.92-8.52-4.92-10.56 0-1.2.6-1.8 1.68-1.8h4.56c1.8-16.08 4.08-30.96 5.04-34.56.36-1.08 1.08-2.28 3-2.28 4.08 0 15.24 1.68 18.36 2.88 1.92.72 2.88 1.68 2.52 3.6-1.08 6.12-2.76 16.8-4.2 29.28l14.52-.96c1.8-15.36 3.84-29.04 4.8-32.52.24-1.08 1.08-2.28 3-2.28 3.96 0 15.24 1.68 18.36 2.88 1.8.72 2.76 1.68 2.52 3.6zm53.88 43.68c-7.32 0-14.76.36-20.64 2.16-.6 3.72-1.2 7.8-1.8 12.36 0 2.52-1.44 3.84 2.04 3.48 8.88-2.52 21.36-3.12 26.28-3.12 1.32 0 3.72.12 4.2 1.92 2.16 6 .48 7.8-.36 11.52-.96 3.48-2.4 4.68-3.96 5.52-3.24 1.8-11.76.96-20.16 2.4C176.24 89.92 164 89.2 158 82c-.36-.36-1.68-3.36-1.68-3.96-.36-.96-.6-3.12-.6-4.32.6-18.84 3.48-35.52 6.48-47.16 0-.12 0-.24.12-.36l-.36-.36c-1.2-1.44-2.76-7.32-3.84-10.2-.84-1.92 1.44-5.16 2.64-6.24 8.52-7.44 28.32-9 46.44-9 3.96 0 7.8.72 9.24 1.68 2.76 1.92.96 11.4-.24 14.64-.36 1.08-2.4 3-3.48 3-13.92 0-23.64-.6-33.36 1.8 1.92-.12 3.36.24 4.32.84 1.44 1.08 2.64 2.4 2.64 4.08 0 .24-.12.48-.12.72-.48 2.64-1.08 5.4-1.56 8.4 7.08-1.32 15.24-2.4 20.88-.6 3.24 1.08 1.44 10.44.24 13.68-.36 1.08-2.4 3-3.48 3zm75 10.32c-2.52-8.4-30.6-5.28-30.6-28.92 0-18.12 17.28-31.56 31.44-31.56 9.6 0 15.48 2.4 21.36 4.92 4.56 1.92 8.88 5.76 8.28 10.92-.6 5.16-.6 11.28-5.52 20.04-.6 1.08-2.16 5.04-5.4 5.88-1.68.48-3.96-.48-6.72-1.32-6-1.2-6.36-3.84-4.8-9.12 2.16-7.56.36-11.04-3.84-11.04-5.4 0-11.04 5.04-11.16 11.04-.6 19.2 32.52 8.76 32.52 34.08 0 15.84-11.64 22.68-23.04 22.68-14.4 0-20.88-4.8-25.92-8.52-5.64-4.2-8.04-12.36-8.16-15.96-.12-5.04.84-5.88 2.28-6.36 3.36-1.08 8.4 4.08 11.04 5.52 5.4 2.88 10.68 3.36 13.2 3.36 4.44 0 6.36-1.2 5.04-5.64zm74.407-38.039c6.713.963 6.353 7.08 6.113 9.599-1.2 13.68-3.24 21.6-3.36 46.8 0 5.28-1.68 8.4-4.68 8.28-8.04-.36-15.96-4.08-18.84-7.68-.84-1.08-1.2-2.4-1.2-3.96.24-19.92 3.96-45.36 4.68-52.32-4.68 0-9 .12-12.6.48-4.44-.36-5.04-1.56-7.56-4.56-.96-1.08-4.56-7.92-5.04-13.8-.12-2.04-.12-3.6 1.56-3.84 6.12-.84 29.76-1.56 47.88-.6 3.96.24 13.92.48 15.48 1.32 2.64 1.32 6.48 9.12 8.64 16.92.6 2.04 0 5.4-3.96 5.28-1.775-.118-12.54-1.871-27.113-1.919zM400.4 76.36c-.96 6-1.2 7.2-2.28 10.92-.48 1.44-.84 2.28-2.52 2.28-7.32 0-11.28-.96-13.92-4.32-.72-.96-1.08-2.16-1.08-3.6 0-4.08.72-8.28 1.44-11.28.24-.96.84-2.04 2.64-2.04 3.72 0 9.12.12 12.96 2.64 1.44.96 3.12 3.6 2.76 5.4zM437 18.88c-.72-2.04-.6-3.6.6-4.56 2.88-2.28 18.48-11.88 32.28-11.88 5.64 0 18.96 6.24 22.08 7.92 2.88 1.56 5.88 7.68 5.88 13.44 0 13.8-3.6 24.24-14.16 29.28 5.04 6.6 12.48 13.68 15.24 16.2 1.92 1.8 1.2 3.96-.12 6.12-2.28 3.6-10.56 12.36-15.72 12.24-5.64-.12-15.6-20.16-20.52-33.72-.84 7.8-1.44 17.28-2.04 30.6-.12 1.68-.96 2.52-2.76 2.52-8.04 0-15.48-4.44-18.36-8.04-.84-1.08-1.2-2.4-1.2-3.96.48-19.32 2.88-39 4.32-46.44 0-.12-.12-.12-.12-.24-1.44-1.44-4.68-7.68-5.4-9.48zm28.32 13.08c-.72 4.92-1.44 9.6-2.04 14.76 7.08-1.32 14.04-8.28 14.04-16.44 0-4.44-3.24-8.64-9.6-8.64-2.88 0-5.76 1.44-8.4 3.36.84 0 1.44.24 2.04.36 1.8.72 4.56 2.64 3.96 6.6zm87.36 19.68c-7.32 0-14.76.36-20.64 2.16-.6 3.72-1.2 7.8-1.8 12.36 0 2.52-1.44 3.84 2.04 3.48 8.88-2.52 21.36-3.12 26.28-3.12 1.32 0 3.72.12 4.2 1.92 2.16 6 .48 7.8-.36 11.52-.96 3.48-2.4 4.68-3.96 5.52-3.24 1.8-11.76.96-20.16 2.4-11.64 2.04-23.88 1.32-29.88-5.88-.36-.36-1.68-3.36-1.68-3.96-.36-.96-.6-3.12-.6-4.32.6-18.84 3.48-35.52 6.48-47.16 0-.12 0-.24.12-.36l-.36-.36c-1.2-1.44-2.76-7.32-3.84-10.2-.84-1.92 1.44-5.16 2.64-6.24 8.52-7.44 28.32-9 46.44-9 3.96 0 7.8.72 9.24 1.68 2.76 1.92.96 11.4-.24 14.64-.36 1.08-2.4 3-3.48 3-13.92 0-23.64-.6-33.36 1.8 1.92-.12 3.36.24 4.32.84 1.44 1.08 2.64 2.4 2.64 4.08 0 .24-.12.48-.12.72-.48 2.64-1.08 5.4-1.56 8.4 7.08-1.32 15.24-2.4 20.88-.6 3.24 1.08 1.44 10.44.24 13.68-.36 1.08-2.4 3-3.48 3zm55.08-33c-2.52 0-4.44 3-5.04 3.6-2.28 2.4-7.44 7.32-7.44 30 0 11.4 4.56 14.88 10.68 14.88 3.24 0 7.2-3.24 9.6-9.48.36-.96.84-1.8.24-2.52-.48-.6-4.92.24-7.68-.96-3.96-1.8-6.48-12-5.52-12.72 6-4.2 31.32-.12 34.08 5.4 1.08 3.6-.24 9-.96 12.6C633.2 71.2 622.4 89.92 608 89.92c-9.36 0-21.48-2.4-26.4-7.44-5.64-5.76-9.6-18.36-9.6-32.52 0-30 13.8-48.72 32.4-49.32 9.6-.36 18.48 2.4 24 5.64 3.36 1.92 5.04 6.12 4.44 10.08-.72 5.16-1.32 7.44-4.56 12.24-1.08 1.56-3.48 6.12-10.92 4.2-4.56-1.2-6.36-3.48-4.68-7.56 1.08-2.64.12-6.6-4.92-6.6zm68.52-10.68c-2.28 13.68-7.44 50.28-7.44 78.36 0 1.68-.96 2.52-2.76 2.52-8.04 0-17.64-3.96-20.52-7.56-.84-1.08-1.2-2.4-1.2-3.96 0-20.04 6.24-66.72 8.16-73.56.24-1.08.96-2.28 2.88-2.28 4.08 0 15.36 1.68 18.36 2.88 1.92.72 2.88 1.68 2.52 3.6zm36.6 54c-2.52-8.4-30.6-5.28-30.6-28.92 0-18.12 17.28-31.56 31.44-31.56 9.6 0 15.48 2.4 21.36 4.92 4.56 1.92 8.88 5.76 8.28 10.92-.6 5.16-.6 11.28-5.52 20.04-.6 1.08-2.16 5.04-5.4 5.88-1.68.48-3.96-.48-6.72-1.32-6-1.2-6.36-3.84-4.8-9.12 2.16-7.56.36-11.04-3.84-11.04-5.4 0-11.04 5.04-11.16 11.04-.6 19.2 32.52 8.76 32.52 34.08 0 15.84-11.64 22.68-23.04 22.68-14.4 0-20.88-4.8-25.92-8.52-5.64-4.2-8.04-12.36-8.16-15.96-.12-5.04.84-5.88 2.28-6.36 3.36-1.08 8.4 4.08 11.04 5.52 5.4 2.88 10.68 3.36 13.2 3.36 4.44 0 6.36-1.2 5.04-5.64zm61.92 10.32c1.32-15.96 2.16-28.56 5.04-39.96v-.48c.48-7.68-2.88-14.04-4.44-15.96-1.32-1.68.72-4.32 2.04-5.16 9.72-6.24 23.28-7.68 28.44-7.8 1.92 0 4.68.12 7.08.36l.12-.12c7.32.48 11.28 3.24 15.72 5.52 8.52 4.44 13.08 11.4 13.08 30.48 0 28.92-19.68 46.56-37.08 48.96h-1.2c-9.6 1.56-20.88-.72-26.52-7.56-1.56-1.56-2.52-6-2.28-8.28zm28.56-4.32c1.2-.24 2.16-.6 2.76-.84 4.92-1.68 11.64-10.56 11.64-30.84 0-10.56-4.8-12.96-8.52-13.56-3.36.12-6 .24-8.28.6.24 0 .36.12.6.24 2.76 2.04 2.64 6 2.64 7.68 0 .24-.12.48-.12.72-1.08 9.48-2.64 19.32-3.96 33 0 2.52-.24 3.36 3.24 3zM920.12 7.84c-.84 11.28-2.16 24-4.8 42.96-.36 3.48-.84 6.72-1.44 9.6l-.24 1.92c-.12.72-.24 1.2-.48 1.56-4.68 18.24-15.6 26.04-33.96 25.8-8.4-.12-17.64-4.92-22.44-8.16-4.92-3.24-9.96-8.64-6.48-27.48l.24-2.52v-.72c1.68-19.2 3.96-40.44 5.64-46.92.36-1.08 2.04-2.16 3.96-2.16 4.08 0 12.48.48 16.8 2.28 1.92.84 3.84 1.44 3.36 6.96-1.2 13.8-5.28 34.08-5.28 45.36 0 .36-.12.84-.12 1.44.12 9.24 2.04 10.56 5.64 10.56 5.64 0 7.68-7.44 8.64-13.92 0-.36 0-.72.12-1.08 2.4-20.04 3.96-41.04 5.76-50.28.24-1.08 1.08-2.28 3-2.28 5.16 0 16.44 2.28 19.56 3.48 1.8.72 2.76 1.68 2.52 3.6zm7.8 7.68c-.72-2.04-.6-3.6.6-4.56 2.88-2.28 16.56-9.12 31.68-9.12 7.2 0 24 6.36 26.16 8.52 1.56 1.44 3.48 4.08 3.48 9.84 0 11.04-9.6 20.04-19.68 22.8v.84c9.24 1.2 17.76 4.44 19.2 7.32.72 1.08 1.44 3.12 1.44 6.6 0 17.88-15.96 31.32-36 31.32-10.32 0-20.28-2.76-24.84-8.52-.84-.96-1.08-2.16-1.08-3.72 0-12.6 2.04-34.8 4.32-51.24-1.92-3-4.8-8.64-5.28-10.08zm24.96 52.68h2.16c5.76 0 11.16-4.8 11.16-10.08 0-2.88-2.52-4.2-6.6-4.2-2.52 0-4.44.48-5.76.84-.36 4.44-.72 9-.96 13.44zm3.96-41.64c-.48 2.88-.84 6.36-1.32 10.08 5.28-1.68 10.08-6.6 10.08-11.04 0-3.24-2.28-4.8-6.12-4.8-2.52 0-5.16.72-7.92 1.68l2.88.72c1.8.72 2.64 1.44 2.4 3.36zm43.56 54.24c-.96-1.08-1.2-1.92-1.2-3.72 0-2.64.24-5.64.6-8.88-2.64-4.2-5.4-10.44-5.4-12.84 0-1.08.6-1.68 1.68-1.68 1.68.12 3.84.12 6.36 0 4.32-18.48 12-39.36 18.36-48.24.6-.96 1.32-1.56 2.88-1.2 2.16.72 6.24 1.68 9.72 2.76 0-.84 0-1.44.12-2.04.12-1.2.84-2.16 2.64-2.16 3.84 0 12.96 1.56 16.08 2.76 1.92.72 2.52 1.56 2.76 3.36.36 3.6.72 25.8 3.6 52.44 1.44 13.8 3 22.44 3.12 24 .24 1.56-.72 2.52-2.4 2.52-7.68 0-16.68-.72-20.04-3.84-1.08-.96-1.92-5.88-2.76-12.96-4.32.48-9.12.96-14.04 1.2-.36 4.44-.48 8.88-.36 12.84 0 1.56-.72 2.76-2.4 2.76-7.68 0-15.96-3.12-19.32-7.08zm34.44-28.92c-.6-8.64-1.08-17.64-1.32-25.68 0-1.08-.36-1.56-.96-1.68-.48-.12-.84.12-1.2.84-2.76 8.4-4.92 17.88-6.48 27.24l9.96-.72zm66.12-43.92c-2.28 13.68-7.44 50.28-7.44 78.36 0 1.68-.96 2.52-2.76 2.52-8.04 0-17.64-3.96-20.52-7.56-.84-1.08-1.2-2.4-1.2-3.96 0-20.04 6.24-66.72 8.16-73.56.24-1.08.96-2.28 2.88-2.28 4.08 0 15.36 1.68 18.36 2.88 1.92.72 2.88 1.68 2.52 3.6z"/>
</svg>
