<?xml version="1.0" encoding="UTF-8"?>
<svg width="121px" height="27px" viewBox="0 0 121 27" version="1.1" xmlns="http://www.w3.org/2000/svg" xmlns:xlink="http://www.w3.org/1999/xlink">
    <!-- Generator: sketchtool 49.1 (51147) - http://www.bohemiancoding.com/sketch -->
    <title>24E8DCEE-AB85-49B3-8E2C-E5ED7D1CA3DE</title>
    <desc>Created with sketchtool.</desc>
    <defs></defs>
    <g id="Page-1" stroke="none" stroke-width="1" fill="none" fill-rule="evenodd">
        <g id="пляжный_отдых" transform="translate(-1399.000000, -816.000000)" fill="#B0DEF5">
            <g id="Group-7" transform="translate(1272.000000, 450.000000)">
                <g id="Page-1" transform="translate(127.000000, 366.000000)">
                    <path d="M98.1017277,9.17640818 C96.3454133,9.56123386 95.0211823,11.1116755 95.0211823,12.9543832 C95.0211823,15.0646918 96.7575876,16.7925618 98.8913697,16.8235918 L100.548407,16.8235918 C103.108354,16.8235918 105.202856,18.8882837 105.202856,21.4117959 C105.202856,23.9353082 103.108354,26 100.548407,26 L47.7973632,26 C46.9265598,26 39.4021535,26 25.2241441,26 C11.6414758,26.0636182 4.34629416,25.8495111 3.33859931,25.3576788 C1.48084029,24.4509501 0.0053247094,23.4078746 0.0053247094,20.8712896 C0.0053247094,18.3347045 2.78938442,16.8235918 5.34933109,16.8235918 L76.2306626,16.8235918 C78.0375572,16.4774874 79.4131754,14.9021156 79.4131754,13.0238693 C79.4131754,11.0371504 77.8745169,9.38884469 75.9139987,9.17640818 L63.5945076,9.17640818 C61.0342918,9.17640818 58.93979,7.11171634 58.93979,4.58820409 C58.93979,2.06469184 61.0342918,0 63.5945076,0 L116.345552,0 C118.905498,0 121,2.06469184 121,4.58820409 C121,7.11171634 118.905498,9.17640818 116.345552,9.17640818 L98.1017277,9.17640818 Z" id="Fill-1"></path>
                    <path d="M46.5,9 C44.0145798,9 42,6.98515408 42,4.5 C42,2.01457976 44.0145798,0 46.5,0 C48.9851541,0 51,2.01457976 51,4.5 C51,6.98515408 48.9851541,9 46.5,9" id="Fill-3"></path>
                </g>
            </g>
        </g>
    </g>
</svg>