<svg xmlns="http://www.w3.org/2000/svg" width="758" height="50" viewBox="0 0 758 50">
    <path fill="#FFF" fill-rule="evenodd" d="M7.54 49.195c-1.375-.11-2.695-1.32-5.005-3.245-1.21-1.1-2.2-2.75-1.98-3.795.055-.495.33-3.795.44-6.05 0-.935.605-4.895 1.32-5.225.77-.33.165-.44 1.76-.44h.165c.44-.11.88-.22 1.32-.495.55-.385 1.045-.99 1.155-1.705h.055c1.43-3.685 3.245-9.625 4.125-17.985 0-.11 0-.22.055-.275.165-1.485.22-3.135.165-4.29-.11-.99.385-2.365 1.155-2.585 2.09-.715 2.475-.385 6.6-.495 1.87-.055 7.755-.165 9.24.165 1.76.11 3.52.385 4.4.66.825.33 1.925 0 1.76 2.64-.77 5.06-2.31 14.465-3.135 24.695 1.815 0 3.3.055 3.795.165 1.155.22 1.925.77 1.815 1.87l-.385 2.255c-.605 4.18-1.485 8.69-1.76 13.255-.055.825-.495 1.21-1.375 1.21-3.795 0-6.105-2.09-7.425-3.795-.385-.495-.605-1.155-.605-1.87l.44-3.025h-8.47c-1.045.055-3.245-.275-4.895-.275-1.21 0-1.32.44-1.54 2.145l-.605 4.29c-.22 1.54-1.155 2.255-2.585 2.2zm12.925-38.28c-.825 4.29-2.475 15.73-5.06 19.635 1.375.055 3.85.165 5.17.165.605-6.325 1.65-13.97 2.42-19.69a42.57 42.57 0 0 1-2.53-.11zM40.1 37.7c-.44-.495-.55-.88-.55-1.705 0-1.21.11-2.585.275-4.07C38.615 30 37.35 27.14 37.35 26.04c0-.495.275-.77.77-.77.77.055 1.76.055 2.915 0 1.98-8.47 5.5-18.04 8.415-22.11.275-.44.605-.715 1.32-.55.99.33 2.86.77 4.455 1.265 0-.385 0-.66.055-.935.055-.55.385-.99 1.21-.99 1.76 0 5.94.715 7.37 1.265.88.33 1.155.715 1.265 1.54.165 1.65.33 11.825 1.65 24.035.66 6.325 1.375 10.285 1.43 11 .11.715-.33 1.155-1.1 1.155-3.52 0-7.645-.33-9.185-1.76-.495-.44-.88-2.695-1.265-5.94-1.98.22-4.18.44-6.435.55-.165 2.035-.22 4.07-.165 5.885 0 .715-.33 1.265-1.1 1.265-3.52 0-7.315-1.43-8.855-3.245zm15.785-13.255a307.23 307.23 0 0 1-.605-11.77c0-.495-.165-.715-.44-.77-.22-.055-.385.055-.55.385-1.265 3.85-2.255 8.195-2.97 12.485l4.565-.33zM71.78 8.055c-.33-.935-.275-1.65.275-2.09C73.375 4.92 79.7 1.51 86.575 1.51c.935 0 10.285 2.805 11.605 3.795.77.605 2.53 4.73 2.53 7.37 0 6.325-3.355 13.365-10.45 15.125-4.4 1.1-5.115-.22-6.27-1.705 0 0-.275-.275-.495-.55-.385 3.905-.715 8.47-.935 14.41-.055.77-.44 1.155-1.265 1.155-3.685 0-7.535-1.815-8.855-3.465-.385-.495-.55-1.1-.55-1.815 0-8.965 1.485-19.91 2.365-23.32-.88-1.32-2.2-3.795-2.475-4.455zm13.09 6.16a383.29 383.29 0 0 0-.99 7.15c3.3-.495 6.71-3.08 6.71-6.82 0-2.035-1.43-4.125-4.345-4.125-1.045 0-2.145.275-3.3.715.11 0 .165.055.275.055.825.33 1.925 1.21 1.65 3.025zm48.785-8.69c-1.1 6.27-3.465 21.175-3.465 34.045 0 .77-.66 1.265-1.54 1.265-3.63 0-7.48-1.925-8.745-3.575-.385-.495-.55-1.1-.55-1.815 0-3.08.385-7.425.935-11.935-2.31 5.335-4.895 11.88-7.205 15.895-.11.66-.605 1.155-1.375 1.155-3.685 0-7.48-1.54-8.8-3.19-.385-.495-.55-2.2-.55-2.915 0-9.185 3.135-27.995 3.96-31.13.165-.495.495-1.045 1.375-1.045 1.87 0 6.435.935 7.865 1.485.88.33 1.32.77 1.155 1.65-.605 3.3-1.54 8.91-2.365 15.345 3.85-6.215 7.095-16.115 9.57-18.04.22-.22.55-.44 1.1-.44 1.815 0 6.05 1.045 7.48 1.595.825.33 1.265.77 1.155 1.65zm44.935-.44c-1.1 6.27-3.41 22.385-3.41 35.255 0 .77-.44 1.155-1.32 1.155-3.63 0-7.645-1.815-8.91-3.465-.385-.495-.55-1.1-.55-1.815 0-2.31.11-5.995.33-9.24-.055-1.76.88-4.18 1.265-5.885v-.165c-.935 1.375-1.32 2.365-2.31 4.4-.825 1.76-2.255 5.06-3.52 6.105-.165.275-.605.495-1.155.495-1.375.165-3.575-.66-4.345-.88-.77-.22-1.265-.55-1.54-1.21-.385-.99-1.155-2.585-2.035-4.51-.88-1.705-1.265-3.52-2.035-5.445-.22 2.255-.11 4.4-.33 6.875-.385 4.29-.66 9.24-.825 13.42-.055.77-.44 1.155-1.265 1.155-3.685 0-7.7-1.76-9.02-3.41a2.561 2.561 0 0 1-.55-1.815c.385-9.185 2.805-29.755 3.63-32.89.165-.495.495-1.045 1.375-1.045 1.87 0 6.985.77 8.415 1.32.605.275 1.045.55 1.155.99.44.77.88 2.09 1.485 3.3 1.595 4.675 3.19 9.515 4.455 13.64 1.485-3.19 3.795-7.7 6.765-13.64.715-1.595 2.805-4.62 3.575-5.17.22-.275.55-.495 1.1-.495 1.815 0 6.985.77 8.415 1.32.825.33 1.265.77 1.155 1.65zm45.595 2.53c-.715 6.27-3.025 19.25-3.025 32.12 0 .77-.44 1.54-1.32 1.65-3.63.495-6.765-.66-8.03-2.31-.385-.495-.935-1.76-.935-2.475 0-6.05.935-16.94 1.87-24.53-.77 0-1.65.055-2.695.055-1.21.055-3.905 0-5.61.33l1.045.275c.88.33 1.265.77 1.155 1.65-.66 6.27-1.76 15.675-2.2 25.795-.055.77-.605 1.595-1.43 1.595-3.685 0-7.095-1.65-8.415-3.3-.385-.495-.55-1.1-.55-1.815.33-9.185 1.65-20.515 2.145-24.2v-.11c-.495-1.65-1.1-4.015-1.21-5.445-.11-.935.715-2.145 1.375-2.475 2.805-1.485 5.225-1.65 12.43-1.76 1.1 0 4.015.165 6.435.33h.11c1.815 0 6.05.77 7.48 1.32.825.33 1.485.77 1.375 3.3zm3.575.44c-.33-.935-.275-1.65.275-2.09 1.32-1.045 7.645-4.455 14.52-4.455.935 0 10.285 2.805 11.605 3.795.77.605 2.53 4.73 2.53 7.37 0 6.325-3.355 13.365-10.45 15.125-4.4 1.1-5.115-.22-6.27-1.705 0 0-.275-.275-.495-.55-.385 3.905-.715 8.47-.935 14.41-.055.77-.44 1.155-1.265 1.155-3.685 0-7.535-1.815-8.855-3.465-.385-.495-.55-1.1-.55-1.815 0-8.965 1.485-19.91 2.365-23.32-.88-1.32-2.2-3.795-2.475-4.455zm13.09 6.16a383.29 383.29 0 0 0-.99 7.15c3.3-.495 6.71-3.08 6.71-6.82 0-2.035-1.43-4.125-4.345-4.125-1.045 0-2.145.275-3.3.715.11 0 .165.055.275.055.825.33 1.925 1.21 1.65 3.025zm31.79-12.54c3.85 0 8.195.99 10.45 2.42 2.255 1.485 5.995 5.775 5.995 14.52 0 13.255-6.27 23.54-14.245 23.54-3.85 0-8.25-.88-10.45-2.365-2.255-1.485-6.05-5.775-6.05-14.575 0-13.2 6.325-23.54 14.3-23.54zm2.09 8.58c-1.155 0-1.76.33-2.035.605-1.045 1.1-3.19 6.49-3.19 15.785 0 5.775 1.595 6.985 3.3 6.985 1.155 0 1.705-.385 1.98-.66 1.1-.99 3.245-6.38 3.245-15.675 0-5.885-1.595-7.04-3.3-7.04zm45.925-3.905c-.44 2.64-.935 6.435-1.375 10.945.935 0 1.815-.055 2.64-.11 2.145-4.565 5.28-10.67 6.875-13.475.275-.495.825-.715 1.705-.66 2.97.22 5.885 3.245 6.655 4.895.385.825.88 1.705.495 2.53-.715 1.43-4.18 6.105-6.655 9.515-.55.99-1.1 1.155-1.1 2.2 0 .22.11.825.44 1.43 2.2 3.685 5.335 7.755 6.875 9.075.77.66.66 1.54-.11 2.365-1.485 1.65-4.455 5.28-6.82 5.28-1.76 0-6.82-7.425-9.24-13.475l-2.475.165c-.22 3.74-.33 7.645-.33 11.55 0 .77-.99 2.585-1.815 2.585-3.135 0-5.61-1.595-6.93-3.245-.385-.495-1.32-3.3-1.32-4.015 0-2.09.11-4.62.275-7.315-.77-.11-1.54-.22-2.255-.275-1.925 5.995-5.83 13.475-8.085 13.475-2.365 0-5.335-2.915-6.82-4.565-.77-.825-.66-1.485-.11-2.365 1.54-2.42 4.62-6.105 6.82-9.79.33-.605.44-1.21.44-1.43 0-.33-.055-.605-.11-.825-2.365-3.41-4.18-10.34-4.95-11.935-.385-.825.22-1.76.605-2.255 1.1-1.43 4.62-2.75 7.59-3.52.88-.22 1.43.165 1.705.66 1.595 2.805 2.255 9.185 3.96 13.75h1.925c.66-6.27 1.375-11.825 1.87-13.475.11-.495.44-1.045 1.32-1.045 1.87 0 5.775 1.155 7.205 1.705.825.33 1.265.77 1.1 1.65zm50.105-.825c-1.1 6.27-3.465 21.175-3.465 34.045 0 .77-.66 1.265-1.54 1.265-3.63 0-7.48-1.925-8.745-3.575-.385-.495-.55-1.1-.55-1.815 0-3.08.385-7.425.935-11.935-2.31 5.335-4.895 11.88-7.205 15.895-.11.66-.605 1.155-1.375 1.155-3.685 0-7.48-1.54-8.8-3.19-.385-.495-.55-2.2-.55-2.915 0-9.185 3.135-27.995 3.96-31.13.165-.495.495-1.045 1.375-1.045 1.87 0 6.435.935 7.865 1.485.88.33 1.32.77 1.155 1.65-.605 3.3-1.54 8.91-2.365 15.345 3.85-6.215 7.095-16.115 9.57-18.04.22-.22.55-.44 1.1-.44 1.815 0 6.05 1.045 7.48 1.595.825.33 1.265.77 1.155 1.65zm3.575 2.255c-.33-.935-.275-1.65.275-2.09 1.32-1.045 7.59-4.18 14.52-4.18 3.3 0 11 2.915 11.99 3.905.715.66 1.595 1.87 1.595 4.51 0 5.06-4.4 9.185-9.02 10.45v.385c4.235.55 8.14 2.035 8.8 3.355.33.495.66 1.43.66 3.025 0 8.195-7.315 14.355-16.5 14.355-4.73 0-9.295-1.265-11.385-3.905-.385-.44-.495-.99-.495-1.705 0-5.775.935-15.95 1.98-23.485-.88-1.375-2.2-3.96-2.42-4.62zm11.44 24.145h.99c2.64 0 5.115-2.2 5.115-4.62 0-1.32-1.155-1.925-3.025-1.925-1.155 0-2.035.22-2.64.385-.165 2.035-.33 4.125-.44 6.16zm1.815-19.085c-.22 1.32-.385 2.915-.605 4.62 2.42-.77 4.62-3.025 4.62-5.06 0-1.485-1.045-2.2-2.805-2.2-1.155 0-2.365.33-3.63.77l1.32.33c.825.33 1.21.66 1.1 1.54zm19.965 24.86c-.44-.495-.55-.88-.55-1.705 0-1.21.11-2.585.275-4.07-1.21-1.925-2.475-4.785-2.475-5.885 0-.495.275-.77.77-.77.77.055 1.76.055 2.915 0 1.98-8.47 5.5-18.04 8.415-22.11.275-.44.605-.715 1.32-.55.99.33 2.86.77 4.455 1.265 0-.385 0-.66.055-.935.055-.55.385-.99 1.21-.99 1.76 0 5.94.715 7.37 1.265.88.33 1.155.715 1.265 1.54.165 1.65.33 11.825 1.65 24.035.66 6.325 1.375 10.285 1.43 11 .11.715-.33 1.155-1.1 1.155-3.52 0-7.645-.33-9.185-1.76-.495-.44-.88-2.695-1.265-5.94-1.98.22-4.18.44-6.435.55-.165 2.035-.22 4.07-.165 5.885 0 .715-.33 1.265-1.1 1.265-3.52 0-7.315-1.43-8.855-3.245zm15.785-13.255a307.23 307.23 0 0 1-.605-11.77c0-.495-.165-.715-.44-.77-.22-.055-.385.055-.55.385-1.265 3.85-2.255 8.195-2.97 12.485l4.565-.33zm49.665-20.13c-1.1 6.27-3.41 23.045-3.41 35.915 0 .77-.44 1.155-1.32 1.155-3.63 0-8.085-1.815-9.35-3.465-.385-.495-.55-1.1-.55-1.815 0-2.64.22-6.27.55-10.175-1.98.22-4.235.385-6.545.495-.385 4.675-.66 9.46-.66 13.805 0 .77-.44 1.155-1.265 1.155-3.685 0-8.085-1.815-9.405-3.465-.385-.495-.55-1.1-.55-1.815 0-3.08.275-7.535.77-12.21-1.155-1.705-2.255-3.905-2.255-4.84 0-.55.275-.825.77-.825h2.09c.825-7.37 1.87-14.19 2.31-15.84.165-.495.495-1.045 1.375-1.045 1.87 0 6.985.77 8.415 1.32.88.33 1.32.77 1.155 1.65-.495 2.805-1.265 7.7-1.925 13.42l6.655-.44c.825-7.04 1.76-13.31 2.2-14.905.11-.495.495-1.045 1.375-1.045 1.815 0 6.985.77 8.415 1.32.825.33 1.265.77 1.155 1.65zm34.65 1.21c-1.1 6.27-3.465 21.175-3.465 34.045 0 .77-.66 1.265-1.54 1.265-3.63 0-7.48-1.925-8.745-3.575-.385-.495-.55-1.1-.55-1.815 0-3.08.385-7.425.935-11.935-2.31 5.335-4.895 11.88-7.205 15.895-.11.66-.605 1.155-1.375 1.155-3.685 0-7.48-1.54-8.8-3.19-.385-.495-.55-2.2-.55-2.915 0-9.185 3.135-27.995 3.96-31.13.165-.495.495-1.045 1.375-1.045 1.87 0 6.435.935 7.865 1.485.88.33 1.32.77 1.155 1.65-.605 3.3-1.54 8.91-2.365 15.345 3.85-6.215 7.095-16.115 9.57-18.04.22-.22.55-.44 1.1-.44 1.815 0 6.05 1.045 7.48 1.595.825.33 1.265.77 1.155 1.65zm24.695 18.81c-3.355 0-6.765.165-9.46.99-.275 1.705-.55 3.575-.825 5.665 0 1.155-.66 1.76.935 1.595 4.07-1.155 9.79-1.43 12.045-1.43.605 0 1.705.055 1.925.88.99 2.75.22 3.575-.165 5.28-.44 1.595-1.1 2.145-1.815 2.53-1.485.825-5.39.44-9.24 1.1-5.335.935-10.945.605-13.695-2.695-.165-.165-.77-1.54-.77-1.815-.165-.44-.275-1.43-.275-1.98.275-8.635 1.595-16.28 2.97-21.615 0-.055 0-.11.055-.165l-.165-.165c-.55-.66-1.265-3.355-1.76-4.675-.385-.88.66-2.365 1.21-2.86C517.225 1.565 526.3.85 534.605.85c1.815 0 3.575.33 4.235.77 1.265.88.44 5.225-.11 6.71-.165.495-1.1 1.375-1.595 1.375-6.38 0-10.835-.275-15.29.825.88-.055 1.54.11 1.98.385.66.495 1.21 1.1 1.21 1.87 0 .11-.055.22-.055.33-.22 1.21-.495 2.475-.715 3.85 3.245-.605 6.985-1.1 9.57-.275 1.485.495.66 4.785.11 6.27-.165.495-1.1 1.375-1.595 1.375zM553.525 7.78c-.33-.935-.275-1.65.275-2.09 1.32-1.045 7.59-4.18 14.52-4.18 3.3 0 11 2.915 11.99 3.905.715.66 1.595 1.87 1.595 4.51 0 5.06-4.4 9.185-9.02 10.45v.385c4.235.55 8.14 2.035 8.8 3.355.33.495.66 1.43.66 3.025 0 8.195-7.315 14.355-16.5 14.355-4.73 0-9.295-1.265-11.385-3.905-.385-.44-.495-.99-.495-1.705 0-5.775.935-15.95 1.98-23.485-.88-1.375-2.2-3.96-2.42-4.62zm11.44 24.145h.99c2.64 0 5.115-2.2 5.115-4.62 0-1.32-1.155-1.925-3.025-1.925-1.155 0-2.035.22-2.64.385-.165 2.035-.33 4.125-.44 6.16zm1.815-19.085c-.22 1.32-.385 2.915-.605 4.62 2.42-.77 4.62-3.025 4.62-5.06 0-1.485-1.045-2.2-2.805-2.2-1.155 0-2.365.33-3.63.77l1.32.33c.825.33 1.21.66 1.1 1.54zm45.265-11.165c3.85 0 8.195.99 10.45 2.42 2.255 1.485 5.995 5.775 5.995 14.52 0 13.255-6.27 23.54-14.245 23.54-3.85 0-8.25-.88-10.45-2.365-2.255-1.485-6.05-5.775-6.05-14.575 0-13.2 6.325-23.54 14.3-23.54zm2.09 8.58c-1.155 0-1.76.33-2.035.605-1.045 1.1-3.19 6.49-3.19 15.785 0 5.775 1.595 6.985 3.3 6.985 1.155 0 1.705-.385 1.98-.66 1.1-.99 3.245-6.38 3.245-15.675 0-5.885-1.595-7.04-3.3-7.04zm35.533 1.375c3.077.442 2.912 3.245 2.802 4.4-.55 6.27-1.485 9.9-1.54 21.45 0 2.42-.77 3.85-2.145 3.795-3.685-.165-7.315-1.87-8.635-3.52-.385-.495-.55-1.1-.55-1.815.11-9.13 1.815-20.79 2.145-23.98-2.145 0-4.125.055-5.775.22-2.035-.165-2.31-.715-3.465-2.09-.44-.495-2.09-3.63-2.31-6.325-.055-.935-.055-1.65.715-1.76 2.805-.385 13.64-.715 21.945-.275 1.815.11 6.38.22 7.095.605 1.21.605 2.97 4.18 3.96 7.755.275.935 0 2.475-1.815 2.42-.814-.054-5.748-.858-12.427-.88zm35.692 12.705c-3.355 0-6.765.165-9.46.99-.275 1.705-.55 3.575-.825 5.665 0 1.155-.66 1.76.935 1.595 4.07-1.155 9.79-1.43 12.045-1.43.605 0 1.705.055 1.925.88.99 2.75.22 3.575-.165 5.28-.44 1.595-1.1 2.145-1.815 2.53-1.485.825-5.39.44-9.24 1.1-5.335.935-10.945.605-13.695-2.695-.165-.165-.77-1.54-.77-1.815-.165-.44-.275-1.43-.275-1.98.275-8.635 1.595-16.28 2.97-21.615 0-.055 0-.11.055-.165l-.165-.165c-.55-.66-1.265-3.355-1.76-4.675-.385-.88.66-2.365 1.21-2.86C670.235 1.565 679.31.85 687.615.85c1.815 0 3.575.33 4.235.77 1.265.88.44 5.225-.11 6.71-.165.495-1.1 1.375-1.595 1.375-6.38 0-10.835-.275-15.29.825.88-.055 1.54.11 1.98.385.66.495 1.21 1.1 1.21 1.87 0 .11-.055.22-.055.33-.22 1.21-.495 2.475-.715 3.85 3.245-.605 6.985-1.1 9.57-.275 1.485.495.66 4.785.11 6.27-.165.495-1.1 1.375-1.595 1.375zM725.95 6.57c-.77 6.545-2.75 19.14-2.75 32.615 0 .825-.495 1.595-1.43 1.76-3.795.495-6.765-1.265-8.085-2.145-.605-.385-1.595-1.87-1.595-2.585 0-6.27 1.265-16.995 2.365-24.53-1.1-.11-2.42-.165-3.905-.165-.88 0-2.255-.165-3.19 0 .99.33 1.925 1.43 2.035 2.475-.715 6.6-1.595 13.86-5.005 23.815-.715 2.035-2.255 3.355-3.41 3.355-3.85 0-6.765-1.705-8.69-3.41-.55-.44-.825-1.155-.825-1.925 0-.55 1.1-1.705 2.53-3.63 2.805-3.685 5.445-11.605 6.27-20.185-.605-1.76-1.87-4.785-2.035-6.49-.11-.99.88-2.365 1.65-2.585 2.035-.715 5.225-.935 9.35-1.045 1.155 0 4.455.165 7.15.385h.275c1.925 0 6.325.55 7.865 1.1.825.33 1.54.55 1.43 3.19zm24.695 17.765c-3.355 0-6.765.165-9.46.99-.275 1.705-.55 3.575-.825 5.665 0 1.155-.66 1.76.935 1.595 4.07-1.155 9.79-1.43 12.045-1.43.605 0 1.705.055 1.925.88.99 2.75.22 3.575-.165 5.28-.44 1.595-1.1 2.145-1.815 2.53-1.485.825-5.39.44-9.24 1.1-5.335.935-10.945.605-13.695-2.695-.165-.165-.77-1.54-.77-1.815-.165-.44-.275-1.43-.275-1.98.275-8.635 1.595-16.28 2.97-21.615 0-.055 0-.11.055-.165l-.165-.165c-.55-.66-1.265-3.355-1.76-4.675-.385-.88.66-2.365 1.21-2.86C735.52 1.565 744.595.85 752.9.85c1.815 0 3.575.33 4.235.77 1.265.88.44 5.225-.11 6.71-.165.495-1.1 1.375-1.595 1.375-6.38 0-10.835-.275-15.29.825.88-.055 1.54.11 1.98.385.66.495 1.21 1.1 1.21 1.87 0 .11-.055.22-.055.33-.22 1.21-.495 2.475-.715 3.85 3.245-.605 6.985-1.1 9.57-.275 1.485.495.66 4.785.11 6.27-.165.495-1.1 1.375-1.595 1.375z"/>
</svg>
