<?xml version="1.0" encoding="UTF-8"?>
<svg width="846px" height="124px" viewBox="0 0 846 124" version="1.1" xmlns="http://www.w3.org/2000/svg" xmlns:xlink="http://www.w3.org/1999/xlink">
    <!-- Generator: Sketch 45 (43475) - http://www.bohemiancoding.com/sketch -->
    <title>Group 4</title>
    <desc>Created with Sketch.</desc>
    <defs>
        <path d="M668.299026,110.002252 L4,110.002252 C1.790861,110.002252 2.705415e-16,108.211391 0,106.002252 L0,4 L0,4 C-2.705415e-16,1.790861 1.790861,1.1409265e-13 4,1.13686838e-13 L4,1.13686838e-13 L668.315483,1.13686838e-13 C668.304569,0.164517384 668.299026,0.330490294 668.299026,0.497747748 C668.299026,4.6212251 671.668193,7.96396396 675.824271,7.96396396 C679.98035,7.96396396 683.349517,4.6212251 683.349517,0.497747748 C683.349517,0.330490294 683.343974,0.164517384 683.333059,-9.15933995e-16 L827.790472,1.13686838e-13 C829.999611,1.13281025e-13 831.790472,1.790861 831.790472,4 L831.790472,106.002252 C831.790472,108.211391 829.999611,110.002252 827.790472,110.002252 L683.349517,110.002252 C683.349517,105.878775 679.98035,102.536036 675.824271,102.536036 C671.668193,102.536036 668.299026,105.878775 668.299026,110.002252 Z" id="path-1"></path>
        <filter x="-1.4%" y="-8.6%" width="102.8%" height="120.9%" filterUnits="objectBoundingBox" id="filter-3">
            <feOffset dx="0" dy="2" in="SourceAlpha" result="shadowOffsetOuter1"></feOffset>
            <feGaussianBlur stdDeviation="3.5" in="shadowOffsetOuter1" result="shadowBlurOuter1"></feGaussianBlur>
            <feColorMatrix values="0 0 0 0 0   0 0 0 0 0   0 0 0 0 0  0 0 0 0.52904212 0" type="matrix" in="shadowBlurOuter1"></feColorMatrix>
        </filter>
    </defs>
    <g id="Page-1" stroke="none" stroke-width="1" fill="none" fill-rule="evenodd">
        <g id="выдача-по-стране" transform="translate(-393.000000, -661.000000)">
            <g id="Group-5" transform="translate(400.000000, 666.000000)">
                <g id="Rectangle-3-Copy-29">
                    <g id="Group-4">
                        <mask id="mask-2" fill="white">
                            <use xlink:href="#path-1"></use>
                        </mask>
                        <g id="Mask">
                            <use fill="black" fill-opacity="1" filter="url(#filter-3)" xlink:href="#path-1"></use>
                            <use fill="#FFFFFF" fill-rule="evenodd" xlink:href="#path-1"></use>
                        </g>
                        <path d="M675,7.46621622 L675,11.4481982 L677,11.4481982 L677,7.46621622 L675,7.46621622 Z M675,14.4346847 L675,18.4166667 L677,18.4166667 L677,14.4346847 L675,14.4346847 Z M675,21.4031532 L675,25.3851351 L677,25.3851351 L677,21.4031532 L675,21.4031532 Z M675,28.3716216 L675,32.3536036 L677,32.3536036 L677,28.3716216 L675,28.3716216 Z M675,35.3400901 L675,39.3220721 L677,39.3220721 L677,35.3400901 L675,35.3400901 Z M675,42.3085586 L675,46.2905405 L677,46.2905405 L677,42.3085586 L675,42.3085586 Z M675,49.277027 L675,53.259009 L677,53.259009 L677,49.277027 L675,49.277027 Z M675,56.2454955 L675,60.2274775 L677,60.2274775 L677,56.2454955 L675,56.2454955 Z M675,63.213964 L675,67.1959459 L677,67.1959459 L677,63.213964 L675,63.213964 Z M675,70.1824324 L675,74.1644144 L677,74.1644144 L677,70.1824324 L675,70.1824324 Z M675,77.1509009 L675,81.1328829 L677,81.1328829 L677,77.1509009 L675,77.1509009 Z M675,84.1193694 L675,88.1013514 L677,88.1013514 L677,84.1193694 L675,84.1193694 Z M675,91.0878378 L675,95.0698198 L677,95.0698198 L677,91.0878378 L675,91.0878378 Z M675,98.0563063 L675,101.091473 L677,101.091473 L677,98.0563063 L675,98.0563063 Z" id="Line-3" fill="#CACACA" fill-rule="nonzero" mask="url(#mask-2)"></path>
                    </g>
                </g>
            </g>
        </g>
    </g>
</svg>