<?xml version="1.0" encoding="UTF-8"?>
<svg width="35px" height="35px" viewBox="0 0 35 35" version="1.1" xmlns="http://www.w3.org/2000/svg" xmlns:xlink="http://www.w3.org/1999/xlink">
    <!-- Generator: sketchtool 47 (45396) - http://www.bohemiancoding.com/sketch -->
    <title>83EFEB80-EBB1-42C7-81F5-C40A729991DF</title>
    <desc>Created with sketchtool.</desc>
    <defs></defs>
    <g id="Page-1" stroke="none" stroke-width="1" fill="none" fill-rule="evenodd">
        <g id="главная_гайды" transform="translate(-1480.000000, -2124.000000)" fill-rule="nonzero" fill="#FFFFFF">
            <g id="Group-7" transform="translate(1481.000000, 2125.000000)">
                <g id="Group-6" transform="translate(8.461538, 8.461538)">
                    <polygon id="Line-5" points="0.803357755 2 14.956002 16.1526443 16.1526443 14.956002 2 0.803357755"></polygon>
                    <polygon id="Line-5-Copy" transform="translate(8.478001, 8.478001) scale(-1, 1) translate(-8.478001, -8.478001) " points="0.803357755 2 14.956002 16.1526443 16.1526443 14.956002 2 0.803357755"></polygon>
                </g>
                <path d="M16.5,33.8461538 C6.91998376,33.8461538 -0.846153846,26.0800162 -0.846153846,16.5 C-0.846153846,6.91998376 6.91998376,-0.846153846 16.5,-0.846153846 C26.0800162,-0.846153846 33.8461538,6.91998376 33.8461538,16.5 C33.8461538,26.0800162 26.0800162,33.8461538 16.5,33.8461538 Z M16.5,32.1538462 C25.1453805,32.1538462 32.1538462,25.1453805 32.1538462,16.5 C32.1538462,7.85461949 25.1453805,0.846153846 16.5,0.846153846 C7.85461949,0.846153846 0.846153846,7.85461949 0.846153846,16.5 C0.846153846,25.1453805 7.85461949,32.1538462 16.5,32.1538462 Z" id="Oval-5"></path>
            </g>
        </g>
    </g>
</svg>