<?xml version="1.0" encoding="UTF-8"?>
<svg width="11px" height="12px" viewBox="0 0 11 12" version="1.1" xmlns="http://www.w3.org/2000/svg" xmlns:xlink="http://www.w3.org/1999/xlink">
    <!-- Generator: Sketch 49.1 (51147) - http://www.bohemiancoding.com/sketch -->
    <title>₽</title>
    <desc>Created with Sketch.</desc>
    <defs></defs>
    <g id="Page-1" stroke="none" stroke-width="1" fill="none" fill-rule="evenodd">
        <g id="питание-copy" transform="translate(-1245.000000, -1566.000000)" fill="#19B8FF">
            <g id="Group-7-Copy-20" transform="translate(675.000000, 1508.000000)">
                <g id="Group-5-Copy-14">
                    <g id="Group-3-Copy-31" transform="translate(458.000000, 55.000000)">
                        <path d="M116.210938,5.6015625 L116.210938,9.125 L117.570312,9.125 C118.9375,9.125 119.648438,8.453125 119.648438,7.359375 C119.648438,6.2734375 118.9375,5.6015625 117.585938,5.6015625 L116.210938,5.6015625 Z M119.265625,13.4921875 L116.210938,13.4921875 L116.210938,15 L113.851562,15 L113.851562,13.4921875 L112.4375,13.4921875 L112.4375,12.0390625 L113.851562,12.0390625 L113.851562,10.8828125 L112.4375,10.8828125 L112.4375,9.15625 L113.851562,9.15625 L113.851562,3.7265625 L118.289062,3.7265625 C120.546875,3.7265625 122.039062,5.2265625 122.039062,7.3359375 C122.039062,9.421875 120.46875,10.921875 118.164062,10.921875 L116.210938,10.921875 L116.210938,12.0390625 L119.265625,12.0390625 L119.265625,13.4921875 Z" id="₽"></path>
                    </g>
                </g>
            </g>
        </g>
    </g>
</svg>