<svg xmlns="http://www.w3.org/2000/svg" width="16" height="11" viewBox="0 0 16 11">
    <g fill="#FFF" fill-rule="nonzero">
        <path d="M14.417 0H1.443C.661 0 0 .685 0 1.497V9.53c0 .787.648 1.427 1.443 1.427h12.974c.796 0 1.444-.64 1.444-1.427V1.478C15.861.677 15.2 0 14.417 0zm.453 9.53c0 .242-.199.431-.453.431H1.443a.437.437 0 0 1-.452-.43V1.496c0-.258.22-.5.452-.5h12.974c.237 0 .453.229.453.481V9.53z"/>
        <path d="M3.965 7.47H2.478a.497.497 0 0 0-.495.499c0 .275.221.498.495.498h1.487a.497.497 0 0 0 .496-.498.497.497 0 0 0-.496-.498zM15.366 2.49H.496A.497.497 0 0 0 0 2.988c0 .275.222.498.496.498h14.87a.497.497 0 0 0 .495-.498.497.497 0 0 0-.495-.498zM6.94 7.47H5.451a.497.497 0 0 0-.495.499c0 .275.221.498.495.498H6.94a.497.497 0 0 0 .496-.498.497.497 0 0 0-.496-.498zM9.913 7.47H8.426a.497.497 0 0 0-.495.499c0 .275.221.498.495.498h1.487a.497.497 0 0 0 .496-.498.497.497 0 0 0-.496-.498zM12.887 7.47H11.4a.497.497 0 0 0-.495.499c0 .275.221.498.495.498h1.487a.497.497 0 0 0 .496-.498.497.497 0 0 0-.496-.498z"/>
    </g>
</svg>
