<?xml version="1.0" encoding="UTF-8"?>
<svg width="12px" height="17px" viewBox="0 0 12 17" version="1.1" xmlns="http://www.w3.org/2000/svg" xmlns:xlink="http://www.w3.org/1999/xlink">
    <!-- Generator: sketchtool 45 (43475) - http://www.bohemiancoding.com/sketch -->
    <title>14720A06-4921-4066-A0AF-11FB873D3FCC</title>
    <desc>Created with sketchtool.</desc>
    <defs></defs>
    <g id="Page-1" stroke="none" stroke-width="1" fill="none" fill-rule="evenodd">
        <g id="выдача-по-стране" transform="translate(-1284.000000, -633.000000)" fill-rule="nonzero" fill="#15AD89">
            <g id="info-currency" transform="translate(1267.000000, 617.000000)">
                <g id="euro-currency-sign" transform="translate(17.075893, 16.903664)">
                    <path d="M10.7112443,12.9097608 C10.689334,12.8079926 10.6346758,12.7314829 10.5469466,12.6800261 C10.4520217,12.6292154 10.3569499,12.6218141 10.2622012,12.658292 L10.2076018,12.6800261 C10.1782902,12.6872512 10.1346458,12.6983825 10.0761695,12.7129502 C10.0176051,12.7275179 9.95037635,12.743701 9.87363167,12.7621749 C9.79688698,12.7805314 9.70757178,12.7984766 9.6052749,12.8170093 C9.50300739,12.8353658 9.39533573,12.8517251 9.28225994,12.8662927 C9.16903729,12.8808017 9.0469448,12.8936072 8.91542443,12.9047385 C8.78399218,12.9155174 8.65264803,12.9209216 8.52121577,12.9209216 C7.59411173,12.9209216 6.76008228,12.6710975 6.01918616,12.1706563 C5.27805509,11.6711256 4.73253046,10.9936695 4.38220108,10.1399031 L8.61972388,10.1399031 C8.70008112,10.1399031 8.77306641,10.11253 8.83885596,10.0577543 C8.90441056,10.0029199 8.94453044,9.93533874 8.95927434,9.8549815 L9.22205075,8.62876995 C9.24401976,8.5193067 9.22205075,8.42041678 9.15649616,8.33324562 C9.0834815,8.24554579 8.99219849,8.20154903 8.88270588,8.20154903 L3.85676576,8.20154903 C3.83482612,7.70539593 3.83482612,7.32220115 3.85676576,7.05187657 L9.20025796,7.05187657 C9.39747977,7.05187657 9.51410937,6.95733346 9.55058733,6.76751297 L9.81336373,5.51900933 C9.83533275,5.41727048 9.80957496,5.32216933 9.73661904,5.23464573 C9.67106445,5.14694591 9.57954648,5.10324285 9.46288751,5.10324285 L4.33849802,5.10324285 C4.70339508,4.28539645 5.25088753,3.64333152 5.98100473,3.1758145 C6.71097507,2.70864993 7.53581161,2.47515575 8.45557307,2.47515575 C8.55769373,2.47515575 8.66536539,2.47856271 8.77858803,2.48575844 C8.89166383,2.49348284 8.99754389,2.50247016 9.09619885,2.51310223 C9.19470696,2.52423358 9.28939693,2.53483628 9.38073868,2.545997 C9.47208042,2.55715773 9.55402366,2.56990446 9.62718517,2.58447214 C9.69999423,2.59903983 9.7639922,2.61178656 9.81876788,2.62256547 C9.87360229,2.63369683 9.91548439,2.64268415 9.94479599,2.64987988 L9.98844031,2.66101124 C10.0832184,2.69046969 10.1709182,2.68115929 10.2512167,2.63369683 C10.3313977,2.58623436 10.382649,2.51524626 10.4045592,2.42032133 L10.8755126,0.678924702 C10.8974229,0.584381588 10.8864677,0.496652393 10.8425884,0.416324522 C10.7770339,0.328624697 10.7038136,0.2739665 10.6236913,0.252056229 C9.95196235,0.0843222365 9.24399039,0 8.49945235,0 C6.86411201,0 5.40240909,0.467517019 4.11399117,1.40166995 C2.82557324,2.33617532 1.93670937,3.5697882 1.44781075,5.10283166 L0.374736125,5.10283166 C0.272468613,5.10283166 0.188528191,5.13537399 0.122914859,5.20116355 C0.0571253048,5.2669531 0.0242305277,5.35089352 0.0242305277,5.45316104 L0.0242305277,6.7013416 C0.0242305277,6.80360912 0.0571253048,6.88737332 0.122914859,6.95333909 C0.188528191,7.01912865 0.272468613,7.05167098 0.374736125,7.05167098 L1.10846588,7.05167098 C1.08652623,7.4023528 1.08276683,7.78557695 1.09748137,8.20137281 L0.374736125,8.20137281 C0.279840568,8.20137281 0.197691736,8.23641162 0.128289631,8.30578435 C0.0589168953,8.3749515 0.0242305277,8.45710033 0.0242305277,8.55223085 L0.0242305277,9.78922132 C0.0242305277,9.88467491 0.0589168953,9.96682374 0.128289631,10.0356678 C0.197486144,10.1054224 0.279634975,10.1401381 0.374736125,10.1401381 L1.41494534,10.1401381 C1.87491418,11.7535682 2.74345378,13.0362001 4.02091657,13.9886802 C5.29837936,14.9411602 6.79118546,15.4176645 8.49948172,15.4176645 C8.63808034,15.4176645 8.7786174,15.4142282 8.9210048,15.4064744 C9.06333345,15.3993081 9.1963517,15.3885291 9.32076445,15.373609 C9.44479538,15.3593938 9.5671522,15.3428583 9.68759995,15.3243256 C9.80801833,15.3063803 9.91751095,15.2880239 10.0160191,15.2695499 C10.114674,15.2515459 10.2076018,15.2332482 10.2951547,15.2147155 C10.3826783,15.1967702 10.4610384,15.1766222 10.5306461,15.1543007 C10.5998132,15.1325667 10.6582308,15.1162074 10.7058989,15.105076 C10.7531558,15.0942971 10.7916015,15.0814916 10.8207369,15.066924 L10.8753951,15.0557926 C10.9556936,15.0266572 11.0177238,14.9736438 11.061603,14.8970753 C11.1054236,14.8205068 11.1162025,14.738358 11.0944684,14.6506288 L10.7112443,12.9097608 Z" id="Shape"></path>
                </g>
            </g>
        </g>
    </g>
</svg>