<?xml version="1.0" encoding="UTF-8"?>
<svg width="25px" height="16px" viewBox="0 0 25 16" version="1.1" xmlns="http://www.w3.org/2000/svg" xmlns:xlink="http://www.w3.org/1999/xlink">
    <!-- Generator: sketchtool 45 (43475) - http://www.bohemiancoding.com/sketch -->
    <title>271DBFAA-A7AC-48A2-B62A-97823D892206</title>
    <desc>Created with sketchtool.</desc>
    <defs></defs>
    <g id="Page-1" stroke="none" stroke-width="1" fill="none" fill-rule="evenodd">
        <g id="главная_вход" transform="translate(-1466.000000, -244.000000)" fill-rule="nonzero" fill="#B0B8BF">
            <g id="Group-7" transform="translate(946.000000, 52.000000)">
                <g id="eye" transform="translate(520.283648, 192.552354)">
                    <path d="M12.3322811,0.0365793343 C7.61985374,0.0365793343 3.34637841,2.61479172 0.192987522,6.80249482 C-0.0643291741,7.14558375 -0.0643291741,7.62489917 0.192987522,7.9679881 C3.34637841,12.1607366 7.61985374,14.738949 12.3322811,14.738949 C17.0447084,14.738949 21.3181838,12.1607366 24.4715746,7.97303352 C24.7288913,7.62994459 24.7288913,7.15062918 24.4715746,6.80754025 C21.3181838,2.61479172 17.0447084,0.0365793343 12.3322811,0.0365793343 Z M12.6703246,12.5643707 C9.54216083,12.7611422 6.95890301,10.1829299 7.1556746,7.04972067 C7.31712822,4.46646285 9.41097977,2.3726113 11.9942376,2.21115769 C15.1224013,2.0143861 17.7056592,4.59259849 17.5088876,7.72580767 C17.3423885,10.3040201 15.248537,12.3978716 12.6703246,12.5643707 Z M12.5139164,10.172839 C10.8287443,10.2787929 9.43620689,8.89130095 9.54720625,7.20612886 C9.63297848,5.81359144 10.7631538,4.68846157 12.1556912,4.59764391 C13.8408633,4.49168998 15.2334007,5.87918197 15.1224013,7.56435406 C15.0315837,8.9619369 13.9014084,10.0870668 12.5139164,10.172839 Z" id="Shape"></path>
                </g>
            </g>
        </g>
    </g>
</svg>