<?xml version="1.0" encoding="UTF-8"?>
<svg width="23px" height="22px" viewBox="0 0 23 22" version="1.1" xmlns="http://www.w3.org/2000/svg" xmlns:xlink="http://www.w3.org/1999/xlink">
    <!-- Generator: Sketch 51.2 (57519) - http://www.bohemiancoding.com/sketch -->
    <title>Shape</title>
    <desc>Created with Sketch.</desc>
    <defs></defs>
    <g id="Page-1" stroke="none" stroke-width="1" fill="none" fill-rule="evenodd">
        <g id="выдача-по-стране" transform="translate(-764.000000, -10875.000000)" fill-rule="nonzero" stroke="#BCC1CB" stroke-width="2">
            <g id="Group-39-Copy" transform="translate(46.000000, 10863.000000)">
                <g id="Group-6-Copy-15">
                    <g id="Group-23-Copy-33">
                        <g id="Group-18">
                            <path d="M729.435256,32.0364674 L736.907287,25.3706395 C738.365187,24.0492539 739.359862,22.3894444 739.789564,20.5681945 C740.015385,19.6123772 740.033662,18.9240851 739.97124,18.5336849 L739.962799,18.4662808 C739.671761,15.262944 737.463513,13.0004423 734.73504,13.0004423 C732.924484,13.0004423 731.245573,13.9731079 730.293337,15.5671652 L729.4254,17.0201052 L728.571469,15.5588895 C727.628668,13.9456019 726.034326,13 724.261588,13 C721.533354,13 719.324907,15.2627048 719.02541,18.5358503 C718.962951,18.9199699 718.981232,19.6120302 719.207123,20.5684441 C719.636832,22.389323 720.63169,24.0494387 722.089796,25.3706094 L729.435256,32.0364674 Z" id="Shape"></path>
                        </g>
                    </g>
                </g>
            </g>
        </g>
    </g>
</svg>