<?xml version="1.0" encoding="UTF-8"?>
<svg width="280px" height="333px" viewBox="0 0 280 333" version="1.1" xmlns="http://www.w3.org/2000/svg" xmlns:xlink="http://www.w3.org/1999/xlink">
    <!-- Generator: Sketch 45 (43475) - http://www.bohemiancoding.com/sketch -->
    <title>Combined Shape Copy 3</title>
    <desc>Created with Sketch.</desc>
    <defs>
        <path d="M464.23999,2019.99373 L464.23999,2329.01068 C464.074066,2329.00358 463.907232,2329 463.73956,2329 C457.382822,2329 452.229668,2334.14971 452.229668,2340.5022 C452.229668,2340.66899 452.23322,2340.83494 452.240253,2341 L189,2341 C186.790861,2341 185,2339.20914 185,2337 L185,2012 L185,2012 C185,2009.79086 186.790861,2008 189,2008 L189,2008 L452.240442,2008 C452.233284,2008.16651 452.229668,2008.33393 452.229668,2008.5022 C452.229668,2014.85469 457.382822,2020.0044 463.73956,2020.0044 C463.907232,2020.0044 464.074066,2020.00082 464.23999,2019.99373 Z" id="path-1"></path>
    </defs>
    <g id="Page-1" stroke="none" stroke-width="1" fill="none" fill-rule="evenodd">
        <g id="главная-copy" transform="translate(-185.000000, -2008.000000)">
            <mask id="mask-2" fill="white">
                <use xlink:href="#path-1"></use>
            </mask>
            <use id="Combined-Shape-Copy-3" fill="#C8E7FE" xlink:href="#path-1"></use>
        </g>
    </g>
</svg>