<?xml version="1.0" encoding="UTF-8"?>
<svg width="158px" height="86px" viewBox="0 0 158 86" version="1.1" xmlns="http://www.w3.org/2000/svg" xmlns:xlink="http://www.w3.org/1999/xlink">
    <!-- Generator: sketchtool 49.1 (51147) - http://www.bohemiancoding.com/sketch -->
    <title>0A4146B7-0B67-44BB-8BF6-F8671F99F6B4</title>
    <desc>Created with sketchtool.</desc>
    <defs>
        <polygon id="path-1" points="0.0896504786 0.015639686 18.8958986 0.015639686 18.8958986 22 0.0896504786 22"></polygon>
        <polygon id="path-3" points="0.0867487805 0.10967 13.8601878 0.10967 13.8601878 22 0.0867487805 22"></polygon>
        <polygon id="path-5" points="0.174430088 0.071335 20.9252177 0.071335 20.9252177 22 0.174430088 22"></polygon>
        <polygon id="path-7" points="0.0188666667 0.168006035 4.91233333 0.168006035 4.91233333 29.6907216 0.0188666667 29.6907216"></polygon>
    </defs>
    <g id="Page-1" stroke="none" stroke-width="1" fill="none" fill-rule="evenodd">
        <g id="Партнёрка" transform="translate(-1340.000000, -1586.000000)">
            <g id="Page-1" transform="translate(1340.000000, 1586.000000)">
                <path d="M94.6700483,6.94745644 L89.9888744,6.94745644 C89.9888744,6.94745644 89.2939122,6.81865488 89.0089759,6.47868281 C88.7227724,6.13710961 88.766943,5.45823289 88.766943,5.45823289 C88.766943,2.45612475 86.2675049,0 83.2141246,0 L74.7873236,0 C71.7324951,0 69.233057,2.45612475 69.233057,5.45823289 C69.233057,5.45823289 69.2942441,6.29811156 68.9468535,6.61851433 C68.6405561,6.90120173 68.0096774,6.94745644 68.0096774,6.94745644 L63.3313999,6.94745644 C58.7483425,6.94745644 55,10.6325331 55,15.1350726 L55,31.813807 C55,36.3163466 58.7483425,40 63.3313999,40 L94.6700483,40 C99.2516575,40 103,36.3163466 103,31.813807 L103,15.1350726 C103,10.6325331 99.2516575,6.94745644 94.6700483,6.94745644 M75.3669716,4.49257701 L82.6330284,4.49257701 C83.3066294,4.49257701 83.8578562,5.03429075 83.8578562,5.69626671 C83.8578562,6.35824268 83.3066294,6.89995641 82.6330284,6.89995641 L75.3669716,6.89995641 C74.6948189,6.89995641 74.143592,6.35824268 74.143592,5.69626671 C74.143592,5.03429075 74.6948189,4.49257701 75.3669716,4.49257701 M97.1010583,18.5276772 C96.1269526,27.8544044 88.9392806,35.5186309 78.9985518,35.5172076 C69.1007264,35.5172076 61.9441909,27.9257434 60.9016572,18.6479394 C60.5144407,15.1952037 66.0102356,15.2329191 66.3947366,18.6479394 C68.0695973,33.5577872 90.0544061,33.3982085 91.6081598,18.5276772 C91.9669551,15.1000258 97.4614828,15.0747636 97.1010583,18.5276772" id="Fill-1" fill="#FFFFFF"></path>
                <path d="M2.57886668,64.5576356 L3.80814048,64.5486302 L3.79724016,62.928021 C3.78616404,61.2421683 3.9816664,59.8985219 4.38515372,58.9013087 C4.78741036,57.9028091 5.47606389,57.1730019 6.45076267,56.7106009 C7.42423078,56.2494862 8.76373836,56.0127722 10.4652418,56.0004586 C13.4774197,55.9785883 14.9897499,56.7389036 14.999947,58.2801181 C15.0032874,58.781849 14.8487491,59.2104338 14.5361563,59.5684455 C14.2223329,59.9264571 13.8513707,60.107117 13.4234455,60.1102413 C13.221614,60.1117116 12.874738,60.0756899 12.3826416,59.9996032 C11.8907212,59.9248031 11.474048,59.8867597 11.133677,59.8891489 C10.2002939,59.8959489 9.60411719,60.1870631 9.34250972,60.763778 C9.08230875,61.3377361 8.95554868,62.1603543 8.96275695,63.2263028 L8.9711959,64.511322 L10.2372143,64.5021328 C12.204193,64.4877976 13.1911986,65.1005342 13.1994617,66.3390561 C13.2052635,67.2217717 12.9475239,67.7837838 12.4271219,68.0252763 C11.9054893,68.2665849 11.1837832,68.3913744 10.2630586,68.3979907 L8.99704018,68.4071799 L9.09197838,82.699711 C9.09901083,83.7669459 8.86061048,84.5823965 8.37941449,85.1460627 C7.89804269,85.7097289 7.27250548,85.9944107 6.50420936,85.9999242 C5.77160297,86.0052539 5.16153717,85.7295776 4.67260547,85.1728952 C4.18384959,84.6162128 3.93595541,83.8042541 3.92892295,82.7370192 L3.83398476,68.4446719 L2.41553783,68.4549638 C1.64601103,68.4606611 1.05299894,68.2829417 0.634216019,67.9223571 C0.215257287,67.5643454 0.00375608981,67.0933065 6.40489551e-05,66.51457 C-0.00855071304,65.2229345 0.851870618,64.570133 2.57886668,64.5576356" id="Fill-3" fill="#FFFFFF"></path>
                <path d="M20.4690634,60.971489 C19.7936137,60.9763349 19.213335,60.7631135 18.7318623,60.3316516 C18.2480765,59.9012281 18.0053574,59.2880434 18.0000701,58.4941742 C17.9952785,57.7742057 18.2360149,57.1798855 18.7245923,56.7113868 C19.2131698,56.2415035 19.7833696,56.0049177 20.4361831,56.0000717 C21.063882,55.9955719 21.6213593,56.202736 22.1110934,56.6205254 C22.598349,57.0395263 22.8458597,57.6514995 22.8513122,58.4590411 C22.8564342,59.2414877 22.6229679,59.8544994 22.1520698,60.2966916 C21.6813369,60.7414798 21.1207203,60.9668161 20.4690634,60.971489 M22.9025327,66.2028564 L22.9998516,80.8921179 C23.006626,81.9083812 22.781421,82.6813089 22.3219236,83.2058821 C21.8634175,83.7306284 21.2791734,83.9949053 20.5680346,83.9999243 C19.8567306,84.0051164 19.277278,83.7430894 18.8298422,83.2112473 C18.3824064,82.6807897 18.1553839,81.9198038 18.1487748,80.9274241 L18.0524472,66.3870022 C18.0456729,65.3819884 18.2627817,64.6241177 18.703278,64.1120055 C19.1437743,63.6000664 19.719757,63.339597 20.4310611,63.3344049 C21.1421998,63.3292128 21.7299137,63.5812018 22.1951941,64.0867374 C22.6616311,64.5920999 22.8965845,65.2966652 22.9025327,66.2028564" id="Fill-5" fill="#FFFFFF"></path>
                <g id="Group-9" transform="translate(27.000000, 64.000000)">
                    <mask id="mask-2" fill="white">
                        <use xlink:href="#path-1"></use>
                    </mask>
                    <g id="Clip-8"></g>
                    <path d="M13.4121548,19.6956467 L9.48116442,13.9837133 L5.53190481,19.7504633 C4.96080865,20.5556633 4.47649135,21.1311467 4.07913558,21.4769133 C3.68159712,21.8212133 3.1760875,21.9955633 2.55986635,21.9999633 C1.87897212,22.00473 1.29819327,21.7942633 0.816250962,21.37113 C0.334308654,20.9467133 0.0933375,20.4584967 0.0896836538,19.9062967 C0.0856644231,19.3408967 0.446847115,18.5305633 1.17323173,17.4740133 L5.97822212,10.45803 L1.63507788,4.67093 C0.881472115,3.71594667 0.502385577,2.88306333 0.497452885,2.17338 C0.493616346,1.62118 0.7132125,1.14029667 1.15514519,0.729263333 C1.59707788,0.319696667 2.17877019,0.11033 2.9005875,0.10538 C3.52868365,0.10098 4.05118365,0.276063333 4.46534712,0.628063333 C4.88078942,0.980063333 5.36638558,1.53556333 5.92177019,2.29309667 L9.43311635,7.04253 L12.7807702,2.24543 C13.3387125,1.45361333 13.8230298,0.88473 14.2324433,0.540246667 C14.6431356,0.195763333 15.1552221,0.0199466667 15.7714433,0.01573 C16.4786452,0.01078 17.0672798,0.20933 17.534424,0.60588 C18.0030298,1.00389667 18.2387029,1.48423 18.2425394,2.04963 C18.2454625,2.45883 18.1530202,2.85024667 17.9657606,3.22626333 C17.7783183,3.60228 17.4896644,4.04796333 17.0999817,4.56313 L12.8372221,10.41018 L17.7401356,17.3586967 C18.5063471,18.44458 18.8921933,19.2627967 18.8958471,19.8149967 C18.8998663,20.3803967 18.6683952,20.8680633 18.1986933,21.27928 C17.7304529,21.6903133 17.147299,21.8983967 16.453251,21.9031633 C15.8383087,21.90738 15.3159913,21.73358 14.8872125,21.3802967 C14.4598952,21.0297633 13.9677221,20.4678467 13.4121548,19.6956467" id="Fill-7" fill="#FFFFFF" mask="url(#mask-2)"></path>
                </g>
                <path d="M56.4122767,65.4671705 L56.9825411,65.4671705 L56.9825411,62.3671128 C56.9825411,61.5341854 57.0040872,60.8829939 57.0487688,60.4107264 C57.0934504,59.9384588 57.2158391,59.5310468 57.419997,59.1907751 C57.6215057,58.8378487 57.9136139,58.5510081 58.293849,58.3300776 C58.6726713,58.1103774 59.0974114,58 59.5655969,58 C60.2238117,58 60.8195075,58.24624 61.3514482,58.7362593 C61.7060753,59.0651066 61.9305429,59.464961 62.026264,59.9384588 C62.1207488,60.4107264 62.1691392,61.0810757 62.1691392,61.9507369 L62.1691392,65.4671705 L64.0685488,65.4671705 C64.8032344,65.4671705 65.3632556,65.6411731 65.7498486,65.9875964 C66.136265,66.3354257 66.3289434,66.7785171 66.3289434,67.3205614 C66.3289434,68.0137595 66.0534363,68.5000879 65.5022454,68.7755041 C64.9512312,69.0535566 64.162857,69.1931102 63.1372994,69.1931102 L62.1691392,69.1931102 L62.1691392,78.6825771 C62.1691392,79.4900193 62.1972197,80.1108042 62.254617,80.5463379 C62.3107781,80.9804655 62.4638965,81.3333919 62.7100868,81.6051171 C62.9575134,81.8754363 63.3592946,82.0100685 63.9166667,82.0100685 C64.2202543,82.0100685 64.6310425,81.9566375 65.1515037,81.8501268 C65.6707286,81.7434404 66.0751589,81.688779 66.3672671,81.688779 C66.7844132,81.688779 67.1618226,81.8564542 67.4973761,82.1902227 C67.8329297,82.5253973 68,82.9380822 68,83.4281015 C68,84.2608532 67.5445302,84.8981595 66.632531,85.3373842 C65.7205318,85.7792452 64.4104602,86 62.7010798,86 C61.0798264,86 59.8513473,85.7296809 59.015819,85.1862304 C58.1790544,84.6441861 57.6317489,83.8952721 57.3716066,82.9380822 C57.1112877,81.9794863 56.9825411,80.6999523 56.9825411,79.0991287 L56.9825411,69.1931102 L56.2987183,69.1931102 C55.551317,69.1931102 54.9810526,69.016647 54.5881017,68.6637206 C54.1965637,68.3095639 54,67.8627815 54,67.3205614 C54,66.7785171 54.2053941,66.3354257 54.6174185,65.9875964 C55.0282067,65.6411731 55.6265516,65.4671705 56.4122767,65.4671705" id="Fill-10" fill="#FFFFFF"></path>
                <g id="Group-14" transform="translate(72.000000, 64.000000)">
                    <mask id="mask-4" fill="white">
                        <use xlink:href="#path-3"></use>
                    </mask>
                    <g id="Clip-13"></g>
                    <path d="M5.09960244,14.23092 L5.09960244,18.7279033 C5.09960244,19.8191033 4.86160244,20.63732 4.38304146,21.1816367 C3.90584634,21.7272367 3.30043171,22.0000367 2.56543171,22.0000367 C1.84272439,22.0000367 1.24840732,21.7244867 0.783504878,21.1722867 C0.318602439,20.62027 0.0867487805,19.8044367 0.0867487805,18.7279033 L0.0867487805,3.73930333 C0.0867487805,1.32003667 0.900626829,0.10967 2.52838293,0.10967 C3.36087073,0.10967 3.96133415,0.393103333 4.32891951,0.958503333 C4.69513902,1.52262 4.89728537,2.35807 4.93433415,3.46247 C5.53496829,2.35807 6.15028537,1.52262 6.7804561,0.958503333 C7.41062683,0.393103333 8.25284634,0.10967 9.30591951,0.10967 C10.3577976,0.10967 11.380139,0.393103333 12.3717488,0.958503333 C13.3643829,1.52262 13.8601878,2.27337 13.8601878,3.20690333 C13.8601878,3.86378667 13.6491634,4.40663667 13.226261,4.83307 C12.8045537,5.26078667 12.3469927,5.47528667 11.8575049,5.47528667 C11.6749927,5.47528667 11.2309195,5.35355333 10.526822,5.10843667 C9.82272439,4.86625333 9.20109024,4.74433667 8.66226098,4.74433667 C7.92726098,4.74433667 7.32799268,4.95095333 6.86309024,5.36675333 C6.39699268,5.77980333 6.03674878,6.39433667 5.77911463,7.20998667 C5.52250488,8.02435333 5.3449439,8.99510333 5.24643171,10.1193033 C5.1489439,11.24222 5.09960244,12.61282 5.09960244,14.23092" id="Fill-12" fill="#FFFFFF" mask="url(#mask-4)"></path>
                </g>
                <path d="M102.008622,82.9539367 C100.686063,83.9688007 99.4065338,84.7313281 98.1713383,85.2387601 C96.9363291,85.7449046 95.5491325,86 94.0140328,86 C92.6106301,86 91.3782288,85.7263288 90.3166424,85.1789864 C89.2550561,84.631828 88.4371186,83.8904513 87.8624574,82.9539367 C87.2879825,82.0174221 87,81.0010868 87,79.906586 C87,78.4306375 87.4750035,77.1698741 88.4235204,76.1270545 C89.3707334,75.0857062 90.6744784,74.3868147 92.3308437,74.0309318 C92.6778757,73.951111 93.5390292,73.774549 94.9154219,73.4968316 C96.2918145,73.2205855 97.4703821,72.9654901 98.452615,72.7343042 C99.4333576,72.5045896 100.499042,72.2242973 101.647992,71.8947148 C101.580746,70.4693441 101.290156,69.4239496 100.776221,68.7583474 C100.262285,68.0914578 99.1966009,67.7593004 97.5806575,67.7593004 C96.190853,67.7593004 95.1454726,67.950576 94.4445164,68.333311 C93.7435602,68.7158622 93.1420753,69.2896888 92.6415519,70.054975 C92.1397247,70.8187898 91.7858005,71.323463 91.5786617,71.5678911 C91.3715228,71.8110318 90.9274411,71.9333378 90.2466027,71.9333378 C89.6317059,71.9333378 89.1002608,71.738016 88.6535712,71.3488438 C88.2055776,70.9609591 87.9822328,70.462723 87.9822328,69.855607 C87.9822328,68.9071377 88.3227452,67.9838653 89.0048875,67.0857898 C89.6855397,66.190473 90.747126,65.4505676 92.1907643,64.8714073 C93.6330986,64.2907756 95.4293571,64 97.5806575,64 C99.9851068,64 101.874131,64.2802923 103.250523,64.8408768 C104.626916,65.4014613 105.598345,66.2888696 106.166114,67.5016302 C106.733883,68.7158622 107.017767,70.3246 107.017767,72.3291311 C107.017767,73.5952281 107.014973,74.6698657 107.008267,75.5532278 C107.001561,76.4380612 106.990757,77.4211072 106.977345,78.5010784 C106.977345,79.5172298 107.14816,80.5760504 107.488673,81.6773563 C107.828999,82.7786621 108,83.4865656 108,83.802722 C108,84.3566854 107.736233,84.8615426 107.208886,85.3172934 C106.680049,85.7728603 106.082662,86 105.415236,86 C104.854173,86 104.300002,85.7382835 103.751047,85.2188968 C103.203396,84.6967513 102.623519,83.9423164 102.008622,82.9539367 Z M101.647992,75.1388587 C100.846074,75.4296343 99.6809183,75.7353074 98.1512206,76.0580849 C96.6213366,76.3821498 95.5638483,76.6186694 94.9759615,76.771506 C94.3878885,76.9228711 93.8270118,77.2191643 93.2927725,77.6602016 C92.7587195,78.1025264 92.4908547,78.7188383 92.4908547,79.5106088 C92.4908547,80.3290475 92.8043571,81.0249962 93.4326657,81.5975355 C94.0596704,82.1715461 94.8817059,82.4584594 95.8976547,82.4584594 C96.9793589,82.4584594 97.9776114,82.2246986 98.8925986,81.7557057 C99.8073996,81.2880001 100.478924,80.6849304 100.906614,79.9463124 C101.400431,79.1280577 101.647992,77.7823237 101.647992,75.910582 L101.647992,75.1388587 Z" id="Fill-15" fill="#FFFFFF"></path>
                <path d="M114.300769,67.36962 L118.500618,79.6572726 L123.02193,66.8345491 C123.376598,65.8032847 123.724907,65.0738269 124.066682,64.6439645 C124.408632,64.2155761 124.927917,64 125.62436,64 C126.284064,64 126.844149,64.2314218 127.305854,64.6933443 C127.768971,65.1563722 128,65.6914431 128,66.2983727 C128,66.5364277 127.959022,66.8146498 127.876184,67.1313808 C127.793169,67.4494016 127.69885,67.7462333 127.590401,68.0229814 C127.483188,68.3012035 127.359549,68.6179345 127.220366,68.9746485 L122.242472,81.8585439 C122.10329,82.228524 121.923483,82.6981851 121.701462,83.2651318 C121.479441,83.8335525 121.233223,84.3192436 120.960157,84.7223893 C120.687267,85.1257192 120.352911,85.4383967 119.953733,85.6633697 C119.554378,85.8883426 119.069535,86 118.500618,86 C117.764435,86 117.178914,85.8244068 116.742644,85.474326 C116.304961,85.1257192 115.982263,84.7424728 115.772959,84.3258767 C115.563832,83.9092805 115.212873,83.0869591 114.719199,81.8585439 L109.779457,69.1143123 C109.664649,68.7962915 109.547192,68.4795605 109.427262,68.1628295 C109.306096,67.8448087 109.205418,67.5212603 109.123639,67.1912631 C109.040801,66.8612658 109,66.5764106 109,66.3394611 C109,65.9681912 109.107036,65.6022646 109.322698,65.2389176 C109.538361,64.8755706 109.835625,64.5774491 110.215727,64.347317 C110.596006,64.1170007 111.006665,64 111.450707,64 C112.311766,64 112.903822,64.2581385 113.227757,64.7731259 C113.550632,65.2895872 113.907773,66.1544711 114.300769,67.36962" id="Fill-17" fill="#FFFFFF"></path>
                <g id="Group-21" transform="translate(130.000000, 64.000000)">
                    <mask id="mask-6" fill="white">
                        <use xlink:href="#path-5"></use>
                    </mask>
                    <g id="Clip-20"></g>
                    <path d="M16.4271292,12.377035 L5.75169558,12.377035 C5.76507611,13.5993183 6.01484602,14.677135 6.50081947,15.6106683 C6.98660708,16.5442017 7.63370442,17.2474683 8.44043894,17.7215683 C9.24717345,18.1942017 10.1356779,18.4312517 11.1089257,18.4312517 C11.7625274,18.4312517 12.3585186,18.3557183 12.8982,18.204835 C13.4378814,18.0539517 13.9613947,17.8169017 14.4674389,17.4951517 C14.9734832,17.1732183 15.4405009,16.827635 15.867377,16.4595017 C16.2929522,16.090085 16.8460142,15.5908683 17.5265628,14.9605683 C17.8056956,14.7235183 18.2056248,14.6043517 18.7265363,14.6043517 C19.2862885,14.6043517 19.7386248,14.755235 20.084846,15.0584683 C20.4312531,15.3604183 20.6044566,15.788135 20.6044566,16.340335 C20.6044566,16.827635 20.4111823,17.395785 20.0244478,18.0471683 C19.6378991,18.6974517 19.0552885,19.322435 18.2755009,19.919735 C17.4970142,20.518135 16.5170761,21.014785 15.3371735,21.4093183 C14.1572708,21.804035 12.8015628,22.0000183 11.2685628,22.0000183 C7.76379292,22.0000183 5.03899646,21.014785 3.09268673,19.043035 C1.14619115,17.071285 0.174430088,14.3951683 0.174430088,11.015785 C0.174430088,9.42536833 0.413421239,7.948985 0.893819469,6.58755167 C1.37310265,5.22776833 2.07372212,4.061035 2.99326195,3.08771833 C3.91280177,2.11586833 5.04568673,1.36896833 6.39210265,0.849951667 C7.73703186,0.330751667 9.22970442,0.071335 10.8699345,0.071335 C13.0015274,0.071335 14.8311292,0.514818333 16.3559522,1.40215167 C17.8822619,2.28930167 19.0257398,3.437335 19.7856425,4.843685 C20.5453593,6.25131833 20.9252177,7.68406833 20.9252177,9.141935 C20.9252177,10.496585 20.5319788,11.3745683 19.745315,11.7746017 C18.9586513,12.175735 17.8527133,12.377035 16.4271292,12.377035 M5.75169558,9.31940167 L15.6471558,9.31940167 C15.5129788,7.478735 15.0097221,6.10171833 14.1385009,5.187985 C13.2646779,4.27425167 12.1156248,3.81866833 10.6887398,3.81866833 C9.33024425,3.81866833 8.21352743,4.28085167 7.34100531,5.20906833 C6.4671823,6.13471833 5.93827965,7.50531833 5.75169558,9.31940167" id="Fill-19" fill="#FFFFFF" mask="url(#mask-6)"></path>
                </g>
                <g id="Group-24" transform="translate(153.000000, 56.000000)">
                    <mask id="mask-8" fill="white">
                        <use xlink:href="#path-7"></use>
                    </mask>
                    <g id="Clip-23"></g>
                    <path d="M0.0188666667,26.4582349 L0.0188666667,3.39922555 C0.0188666667,2.33615288 0.2367,1.53070153 0.672533333,0.985406085 C1.10953333,0.440110636 1.6982,0.168006035 2.43853333,0.168006035 C3.18003333,0.168006035 3.7772,0.437395021 4.2322,0.976172995 C4.68603333,1.51495097 4.91236667,2.32311793 4.91236667,3.39922555 L4.91236667,26.4582349 C4.91236667,27.5357908 4.68253333,28.3437767 4.22253333,28.8825547 C3.7627,29.4213327 3.16803333,29.6907216 2.43853333,29.6907216 C1.7222,29.6907216 1.13953333,29.4122806 0.690533333,28.8525019 C0.2427,28.2941715 0.0188666667,27.4965049 0.0188666667,26.4582349" id="Fill-22" fill="#FFFFFF" mask="url(#mask-8)"></path>
                </g>
                <path d="M53,83.5 C53,84.8808234 51.8806833,86 50.5000903,86 C49.1193167,86 48,84.8808234 48,83.5 C48,82.1191766 49.1193167,81 50.5000903,81 C51.8806833,81 53,82.1191766 53,83.5" id="Fill-25" fill="#FFFFFF"></path>
            </g>
        </g>
    </g>
</svg>