<?xml version="1.0" encoding="UTF-8"?>
<svg width="18px" height="13px" viewBox="0 0 18 13" version="1.1" xmlns="http://www.w3.org/2000/svg" xmlns:xlink="http://www.w3.org/1999/xlink">
    <!-- Generator: sketchtool 45 (43475) - http://www.bohemiancoding.com/sketch -->
    <title>257AD3E6-8014-49D0-95D7-7C5949DAD829</title>
    <desc>Created with sketchtool.</desc>
    <defs></defs>
    <g id="Page-1" stroke="none" stroke-width="1" fill="none" fill-rule="evenodd">
        <g id="выдача-по-стране" transform="translate(-911.000000, -1047.000000)" fill-rule="nonzero" fill="#A7AEB1">
            <g id="Group-23" transform="translate(400.000000, 1029.000000)">
                <g id="dish-copy-8" transform="translate(511.000000, 18.000000)">
                    <path d="M17.3819166,11.6553367 L17.3819166,12.0459416 C17.3819166,12.3695968 17.1196645,12.6318489 16.7960093,12.6318489 L0.5859073,12.6318489 C0.262252108,12.6318489 0,12.3695968 0,12.0459416 L0,11.6553367 C0,11.3316816 0.262252108,11.0694294 0.5859073,11.0694294 L16.7960093,11.0694294 C17.1196645,11.0694294 17.3819166,11.3317597 17.3819166,11.6553367 Z M16.8546,9.7927765 C16.8546,10.1164317 16.5923479,10.3786838 16.2686927,10.3786838 L1.11322387,10.3786838 C0.789568678,10.3786838 0.52731657,10.1164317 0.52731657,9.7927765 C0.52731657,5.7107994 3.53888009,2.3190211 7.45680315,1.7223331 C7.42149247,1.60483916 7.40196223,1.48062681 7.40196223,1.35180532 C7.40196223,0.641060708 7.98021367,0.0628092626 8.69095829,0.0628092626 C9.40170291,0.0628092626 9.97995435,0.641060708 9.97995435,1.35180532 C9.97995435,1.48062681 9.96042411,1.60483916 9.92511343,1.7223331 C13.8430365,2.31894297 16.8546,5.7107994 16.8546,9.7927765 Z M8.09067673,3.40115282 C8.01177455,3.08726275 7.69366594,2.89735066 7.37961963,2.97562788 C7.28649943,2.99906417 5.08122247,3.56817546 3.66012385,5.25090123 C2.45518595,6.67770268 2.30245945,8.45995457 2.29660038,8.53510695 C2.27121106,8.85766845 2.51213614,9.13976328 2.83477576,9.16507448 C2.85039996,9.16632441 2.86586791,9.16687126 2.88133586,9.16687126 C3.18413275,9.16687126 3.44068203,8.93391452 3.46482141,8.62689909 C3.46599323,8.61221235 3.59122115,7.14869403 4.55554644,6.00687789 C5.72431433,4.62288672 7.63476273,4.12002202 7.665933,4.11189743 C7.97935434,4.03283901 8.16942267,3.71480853 8.09067673,3.40115282 Z" id="Shape"></path>
                </g>
            </g>
        </g>
    </g>
</svg>