<?xml version="1.0" encoding="UTF-8"?>
<svg width="181px" height="99px" viewBox="0 0 181 99" version="1.1" xmlns="http://www.w3.org/2000/svg" xmlns:xlink="http://www.w3.org/1999/xlink">
    <!-- Generator: sketchtool 47 (45396) - http://www.bohemiancoding.com/sketch -->
    <title>BFEAFB74-0194-411E-8D73-DF61E505C303</title>
    <desc>Created with sketchtool.</desc>
    <defs></defs>
    <g id="Page-1" stroke="none" stroke-width="1" fill="none" fill-rule="evenodd">
        <g id="заявка_сформирована" transform="translate(-883.000000, -383.000000)">
            <g id="Group-9" transform="translate(883.000000, 383.000000)">
                <g id="like" transform="translate(0.500091, 0.000000)" fill-rule="nonzero" fill="#F39200">
                    <path d="M143.690749,5.03535571 C144.941222,2.07152278 147.797854,0.000619659822 151.12047,0.000619659822 C155.596273,0.000619659822 158.819744,3.8294977 159.225001,8.39267263 C159.225001,8.39267263 159.443741,9.52541078 158.962265,11.5647113 C158.306665,14.3420266 156.765571,16.809512 154.687852,18.6926582 L143.690749,28.5043518 L132.878924,18.6920385 C130.801205,16.809512 129.260111,14.3414069 128.604511,11.5640916 C128.123035,9.52479112 128.341775,8.39205297 128.341775,8.39205297 C128.747033,3.82887804 131.970503,0 136.446306,0 C139.769542,0 142.440275,2.07152278 143.690749,5.03535571 Z" id="Shape"></path>
                    <path d="M169.24305,31.54686 C170.068174,29.591177 171.95312,28.2246931 174.145546,28.2246931 C177.098901,28.2246931 179.225906,30.7511755 179.493315,33.7621831 C179.493315,33.7621831 179.63765,34.5096195 179.319949,35.8552504 C178.887351,37.6878599 177.870462,39.3160283 176.49948,40.5586209 L169.24305,47.0328597 L162.108875,40.558212 C160.737894,39.3160283 159.721004,37.687451 159.288407,35.8548415 C158.970705,34.5092106 159.115041,33.7617742 159.115041,33.7617742 C159.38245,30.7507666 161.509454,28.2242842 164.462809,28.2242842 C166.655644,28.2242842 168.417926,29.591177 169.24305,31.54686 Z" id="Shape-Copy"></path>
                    <path d="M10.1607205,50.7906901 C10.9858445,48.8350072 12.8707909,47.4685233 15.0632165,47.4685233 C18.0165718,47.4685233 20.1435763,49.9950056 20.4109852,53.0060132 C20.4109852,53.0060132 20.5553206,53.7534497 20.2376192,55.0990806 C19.805022,56.93169 18.7881322,58.5598584 17.4171507,59.8024511 L10.1607205,66.2766899 L3.02654601,59.8020422 C1.65556441,58.5598584 0.638674692,56.9312811 0.206077456,55.0986717 C-0.111623916,53.7530408 0.0327114562,53.0056043 0.0327114562,53.0056043 C0.300120333,49.9945967 2.42712489,47.4681144 5.38048012,47.4681144 C7.57331469,47.4681144 9.33559643,48.8350072 10.1607205,50.7906901 Z" id="Shape-Copy-2"></path>
                </g>
                <g id="email" transform="translate(40.367105, 10.263376)">
                    <polygon id="XMLID_1257_" fill="#F24841" fill-rule="nonzero" points="68.4889368 44.4669789 68.4889368 44.4671929 48.1547788 63.6713187 77.0476461 87.7487081 77.0476461 36.3836107"></polygon>
                    <polygon id="XMLID_1258_" fill="#F24841" fill-rule="nonzero" points="0 36.3836107 0 87.7487081 28.8928673 63.6713187"></polygon>
                    <polygon id="XMLID_1259_" fill="#D41D15" fill-rule="nonzero" points="28.8928673 63.6713187 0 87.7487081 38.5238231 87.7487081 38.5238231 72.7672213"></polygon>
                    <polygon id="XMLID_1260_" fill="#AA251F" fill-rule="nonzero" points="38.5238231 72.7672213 38.5238231 87.7487081 77.0476461 87.7487081 48.1547788 63.6713187"></polygon>
                    <polygon id="XMLID_1261_" fill="#F24841" fill-rule="nonzero" points="8.55935142 28.2998144 0 36.3836107 8.55870936 36.3836107"></polygon>
                    <polygon id="XMLID_1262_" fill="#F24841" fill-rule="nonzero" points="77.0476461 36.3836107 68.4878667 28.2993864 68.4885087 36.3836107"></polygon>
                    <polygon id="XMLID_1263_" fill="#F24841" fill-rule="nonzero" points="38.5238231 0 16.4825896 18.7469127 60.8597539 18.7469127"></polygon>
                    <polygon id="XMLID_1264_" fill="#AA251F" fill-rule="nonzero" points="68.4889368 44.4669789 77.0476461 36.3836107 68.4885087 36.3836107"></polygon>
                    <polygon id="XMLID_1265_" fill="#AA251F" fill-rule="nonzero" points="38.5238231 72.7672213 8.55785327 44.4661228 8.55870936 36.3836107 0 36.3836107 28.8928673 63.6713187"></polygon>
                    <path d="M8.55785327,44.4661228 L38.5238231,72.7672213 L48.1547788,63.6713187 L68.4889368,44.4671929 L68.4885087,36.3836107 L68.4878667,28.2993864 L68.4872432,22.7094587 L68.4872432,22.7094587 C68.4869968,20.5003197 66.6959361,18.7096584 64.4867971,18.7099048 C64.4853397,18.709905 64.4838822,18.709906 64.4824248,18.7099077 L52.1411384,18.724774 L24.8720503,18.7570912 L12.555445,18.7717975 L12.555445,18.7717975 C10.3484182,18.7744328 8.56056836,20.5641371 8.56022116,22.7711654 L8.55935142,28.2998144 L8.55870936,36.3836107 L8.55785327,44.4661228 Z" id="XMLID_1266_" fill="#DEDDE0" fill-rule="nonzero"></path>
                    <polygon id="XMLID_1266_-path" fill="#1083C5" points="19.2619115 38.5238231 57.7857346 38.5238231 57.7857346 41.7341417 19.2619115 41.7341417"></polygon>
                    <polygon id="XMLID_1266_-path" fill="#1083C5" points="19.2619115 32.1031859 19.2619115 28.8928673 57.7857346 28.8928673 57.7857346 32.1031859"></polygon>
                </g>
            </g>
        </g>
    </g>
</svg>