<?xml version="1.0" encoding="UTF-8"?>
<svg width="16px" height="15px" viewBox="0 0 16 15" version="1.1" xmlns="http://www.w3.org/2000/svg" xmlns:xlink="http://www.w3.org/1999/xlink">
    <!-- Generator: sketchtool 45 (43475) - http://www.bohemiancoding.com/sketch -->
    <title>37118F0E-BCF4-4235-83E4-E877F6CF32F8</title>
    <desc>Created with sketchtool.</desc>
    <defs></defs>
    <g id="Page-1" stroke="none" stroke-width="1" fill="none" fill-rule="evenodd">
        <g id="тур_инфо" transform="translate(-401.000000, -1450.000000)" fill-rule="nonzero" fill="#5F6A77">
            <g id="attachment-clip" transform="translate(410.282029, 1458.009514) rotate(-32.000000) translate(-410.282029, -1458.009514) translate(401.282029, 1453.009514)">
                <path d="M4.72884014,9.48296819 C2.14947279,9.48296819 0,7.3334954 0,4.75412805 C0,2.1747607 2.14947279,0.0252879152 4.72884014,0.0252879152 L13.7566258,0.0252879152 C15.6481619,0.0252879152 17.1957823,1.57290832 17.1957823,3.46444438 C17.1957823,5.35598043 15.6481619,6.90360084 13.7566258,6.90360084 L6.44841837,6.90360084 C5.24471361,6.90360084 4.29894558,5.95783281 4.29894558,4.75412805 C4.29894558,3.55042329 5.24471361,2.60465526 6.44841837,2.60465526 L12.8968367,2.60465526 L12.8968367,3.89433894 L6.44841837,3.89433894 C5.9325449,3.89433894 5.58862925,4.23825458 5.58862925,4.75412805 C5.58862925,5.27000152 5.9325449,5.61391717 6.44841837,5.61391717 L13.7566258,5.61391717 C14.9603306,5.61391717 15.9060986,4.66814914 15.9060986,3.46444438 C15.9060986,2.26073962 14.9603306,1.31497159 13.7566258,1.31497159 L4.72884014,1.31497159 C2.83730408,1.31497159 1.28968367,2.862592 1.28968367,4.75412805 C1.28968367,6.64566411 2.83730408,8.19328451 4.72884014,8.19328451 L12.8968367,8.19328451 L12.8968367,9.48296819 L4.72884014,9.48296819 Z" id="Shape"></path>
            </g>
        </g>
    </g>
</svg>