<?xml version="1.0" encoding="UTF-8"?>
<svg width="103px" height="65px" viewBox="0 0 103 65" version="1.1" xmlns="http://www.w3.org/2000/svg" xmlns:xlink="http://www.w3.org/1999/xlink">
    <!-- Generator: sketchtool 49.1 (51147) - http://www.bohemiancoding.com/sketch -->
    <title>FB8D2ABD-D751-4880-B42B-CA67C841AC80</title>
    <desc>Created with sketchtool.</desc>
    <defs></defs>
    <g id="Page-1" stroke="none" stroke-width="1" fill="none" fill-rule="evenodd">
        <g id="Партнёрка" transform="translate(-910.000000, -1639.000000)" fill-rule="nonzero">
            <g id="gift-card" transform="translate(910.000000, 1639.000000)">
                <path d="M100.439479,1.88405797 L3.50547499,1.88405797 C2.61327826,1.88405797 1.88990826,2.60554682 1.88990826,3.49542334 L1.88990826,61.5045767 C1.88990826,62.3944532 2.61327826,63.115942 3.50547499,63.115942 L100.439479,63.115942 C101.331676,63.115942 102.055046,62.3944532 102.055046,61.5045767 L102.055046,3.49542334 C102.055046,2.60554682 101.331676,1.88405797 100.439479,1.88405797 Z" id="Shape" fill="#F0F0F1"></path>
                <path d="M6.73660846,59.8932113 C5.84441173,59.8932113 5.12104173,59.1717224 5.12104173,58.2818459 L5.12104173,1.88405797 L3.50547499,1.88405797 C2.61327826,1.88405797 1.88990826,2.60554682 1.88990826,3.49542334 L1.88990826,61.5045767 C1.88990826,62.3944532 2.61327826,63.115942 3.50547499,63.115942 L100.439479,63.115942 C101.331676,63.115942 102.055046,62.3944532 102.055046,61.5045767 L102.055046,59.8932113 L6.73660846,59.8932113 Z" id="Shape" fill="#E1E0E4"></path>
                <g id="Group" transform="translate(52.917431, 33.913043)" fill="#C3C1C9">
                    <path d="M39.0077064,3.40791125 L30.8811009,3.40791125 C29.9835173,3.40791125 29.2557798,2.67738234 29.2557798,1.77635589 C29.2557798,0.875329449 29.9835173,0.144800538 30.8811009,0.144800538 L39.0077064,0.144800538 C39.90529,0.144800538 40.6330275,0.875329449 40.6330275,1.77635589 C40.6330275,2.67738234 39.90529,3.40791125 39.0077064,3.40791125 Z" id="Shape"></path>
                    <path d="M24.3798165,3.40791125 L1.6253211,3.40791125 C0.727737523,3.40791125 0,2.67738234 0,1.77635589 C0,0.875329449 0.727737523,0.144800538 1.6253211,0.144800538 L24.3798165,0.144800538 C25.2774001,0.144800538 26.0051376,0.875329449 26.0051376,1.77635589 C26.0051376,2.67738234 25.2774001,3.40791125 24.3798165,3.40791125 Z" id="Shape"></path>
                    <path d="M39.0077064,11.565688 L1.6253211,11.565688 C0.727737523,11.565688 0,10.8351591 0,9.93413268 C0,9.03310623 0.727737523,8.30257732 1.6253211,8.30257732 L39.0077064,8.30257732 C39.90529,8.30257732 40.6330275,9.03310623 40.6330275,9.93413268 C40.6330275,10.8351591 39.90529,11.565688 39.0077064,11.565688 Z" id="Shape"></path>
                    <path d="M39.0077064,19.7234648 L14.6278899,19.7234648 C13.7303063,19.7234648 13.0025688,18.9929359 13.0025688,18.0919095 C13.0025688,17.190883 13.7303063,16.4603541 14.6278899,16.4603541 L39.0077064,16.4603541 C39.90529,16.4603541 40.6330275,17.190883 40.6330275,18.0919095 C40.6330275,18.9929359 39.90529,19.7234648 39.0077064,19.7234648 Z" id="Shape"></path>
                    <path d="M8.1266055,19.7234648 L1.6253211,19.7234648 C0.727737523,19.7234648 0,18.9929359 0,18.0919095 C0,17.190883 0.727737523,16.4603541 1.6253211,16.4603541 L8.1266055,16.4603541 C9.02418908,16.4603541 9.75192661,17.190883 9.75192661,18.0919095 C9.75192661,18.9929359 9.02418908,19.7234648 8.1266055,19.7234648 Z" id="Shape"></path>
                </g>
                <path d="M26.7737003,0.942028986 L20.4740061,0.942028986 C19.6042546,0.942028986 18.8990826,1.6590779 18.8990826,2.54347826 L18.8990826,63.3985507 C18.8990826,64.2829511 19.6042546,65 20.4740061,65 L26.7737003,65 C27.6434518,65 28.3486239,64.2829511 28.3486239,63.3985507 L28.3486239,2.54347826 C28.3486239,1.6590779 27.6434518,0.942028986 26.7737003,0.942028986 Z" id="Shape" fill="#68DEC8"></path>
                <path d="M101.390625,17.8985507 L1.609375,17.8985507 C0.720597656,17.8985507 0,18.6015399 0,19.468599 L0,25.7487923 C0,26.6158514 0.720597656,27.3188406 1.609375,27.3188406 L101.390625,27.3188406 C102.279402,27.3188406 103,26.6158514 103,25.7487923 L103,19.468599 C103,18.6015399 102.279402,17.8985507 101.390625,17.8985507 Z" id="Shape" fill="#38C7C2"></path>
                <path d="M44.461407,29.9492407 C42.1622825,27.6572643 34.2491379,24.7861948 29.0697893,23.0797101 C34.2491379,21.3734254 42.1622825,18.502156 44.4616076,16.2101796 C47.1741413,13.5058793 47.9957443,9.24286703 46.4777043,5.73011614 C46.0023139,4.62991945 45.3110922,3.62450524 44.4616076,2.77766172 C44.4616076,2.77746176 44.4616076,2.77746176 44.4616076,2.77746176 C40.7465417,-0.925853913 34.7020627,-0.925853913 30.9871973,2.77766172 C28.6880728,5.06963819 25.8080492,12.9581805 24.0964431,18.1214264 C22.384837,12.9581805 19.5046128,5.06963819 17.2054883,2.77746176 C14.492754,0.0733614442 10.2164466,-0.745687205 6.69274038,0.767633151 C5.58911246,1.24174554 4.58056264,1.93061825 3.73127863,2.77746176 C3.73107804,2.77746176 3.73107804,2.77746176 3.73107804,2.77746176 C0.016212726,6.48097739 0.016212726,12.5066639 3.73127863,16.2099796 C6.03040316,18.5019561 13.9435477,21.3730255 19.1228964,23.0795102 C13.9435477,24.7857949 6.03040316,27.6570643 3.73107804,29.9490408 C1.01834378,32.653541 0.196740738,36.9165533 1.71478073,40.4293041 C2.19017117,41.5295008 2.88139287,42.5349151 3.73087746,43.3817586 L3.73087746,43.3819585 C7.44594336,47.0852742 13.4904224,47.0852742 17.2052877,43.3817586 C19.5044122,41.0897821 22.3844358,33.2012398 24.0960419,28.0379939 C25.8076481,33.2012398 28.6878722,41.0897821 30.9869967,43.3819585 C33.699731,46.0860588 37.9760384,46.9051075 41.4997447,45.3917871 C42.6033726,44.9178747 43.6119224,44.228802 44.4612064,43.3819585 C44.461407,43.3819585 44.461407,43.3819585 44.461407,43.3819585 C48.1764729,39.6784429 48.1764729,33.6525564 44.461407,29.9492407 Z M30.2660882,15.0437951 C32.9798254,7.6817555 34.3369949,6.22742425 34.3935603,6.16903504 C36.2054598,4.36256885 39.2463539,4.36576826 41.0576516,6.17123463 C42.8775746,7.98569934 42.8747664,11.0051414 41.057451,12.8170066 C41.0014873,12.8707966 39.542821,14.2237466 32.15742,16.9290467 C31.1564925,17.295579 30.1665972,17.6433147 29.2284533,17.9634556 C29.5495926,17.0286283 29.8984128,16.0412108 30.2660882,15.0437951 Z M16.0352656,16.9292467 C8.65026579,14.2239466 7.19139887,12.8709966 7.13282756,12.814607 C5.32092807,11.0081408 5.32393687,7.97690096 7.13503401,6.17123463 C8.95515755,4.35696988 11.9840164,4.35976937 13.8015323,6.17143459 C13.8554901,6.22722428 15.2126596,7.68135558 17.9263968,15.0437951 C18.2940722,16.0416107 18.6428924,17.0284283 18.9640317,17.9636555 C18.0260884,17.6435147 17.035792,17.2957789 16.0352656,16.9292467 Z M17.9263968,31.1158252 C15.2126596,38.4778647 13.8554901,39.932196 13.7989247,39.9905852 C11.9870252,41.7970514 8.94613114,41.793852 7.13483342,39.9883856 C5.31491047,38.1739209 5.31771869,35.1544789 7.13503401,33.3426137 C7.19099769,33.2888236 8.64966403,31.9358736 16.035065,29.2305735 C17.0359925,28.8640413 18.0258878,28.5163055 18.9640317,28.1961647 C18.6428924,29.1309919 18.2940722,30.1184095 17.9263968,31.1158252 Z M41.0576516,39.9883856 C39.2375281,41.8026504 36.2086692,41.7998509 34.3911533,39.9881857 C34.3371955,39.932396 32.980026,38.4782647 30.2662888,31.1158252 C29.8986134,30.1180096 29.5497932,29.1311919 29.2286539,28.1959647 C30.1665972,28.5161056 31.1568937,28.8638413 32.1576206,29.2303736 C39.5426204,31.9356737 41.0014873,33.2886237 41.0600587,33.3450132 C42.8717576,35.1514794 42.8687488,38.1827193 41.0576516,39.9883856 Z" id="Shape" fill="#E84943"></path>
            </g>
        </g>
    </g>
</svg>