<?xml version="1.0" encoding="UTF-8"?>
<svg width="13px" height="15px" viewBox="0 0 13 15" version="1.1" xmlns="http://www.w3.org/2000/svg" xmlns:xlink="http://www.w3.org/1999/xlink">
    <!-- Generator: sketchtool 45 (43475) - http://www.bohemiancoding.com/sketch -->
    <title>EBF330B2-C2E7-48CB-A635-FFF92455DA24</title>
    <desc>Created with sketchtool.</desc>
    <defs></defs>
    <g id="Page-1" stroke="none" stroke-width="1" fill="none" fill-rule="evenodd">
        <g id="выдача-по-стране" transform="translate(-620.000000, -7871.000000)" fill-rule="nonzero" fill="#FFFFFF">
            <g id="Group-28" transform="translate(399.000000, 7745.000000)">
                <g id="Group-4" transform="translate(182.000000, 120.000000)">
                    <g id="glass-of-martini" transform="translate(39.765882, 6.729611)">
                        <path d="M7.20029267,7.86241524 L11.5598575,2.97881581 C11.913007,2.5831903 11.8154331,2.23746351 11.757098,2.10715789 C11.6987303,1.97688497 11.5057733,1.67383041 10.9754932,1.67383041 L3.93294067,1.67383041 C3.78608934,0.727030129 2.9654746,0 1.97819293,0 C0.887418848,0 0,0.887418848 0,1.97819293 C0,3.06896702 0.887418848,3.95638587 1.97819293,3.95638587 C2.01403107,3.95638587 2.05241972,3.955176 2.09548434,3.95265818 L2.1066674,3.9520042 L5.59745185,7.86241524 C5.62547492,7.8938063 5.65513293,7.92320272 5.68606621,7.9508661 L5.68606621,10.5994545 C5.68606621,10.9043075 5.46642686,11.2963034 5.20643691,11.4554168 L2.77850158,12.9415875 C2.55575582,13.0779098 2.46364266,13.2208699 2.50464724,13.3664787 C2.54565182,13.5120874 2.69887945,13.5859218 2.96004657,13.5859218 L9.83769796,13.5859218 C10.0988651,13.5859218 10.25206,13.5120874 10.2930973,13.3664787 C10.3341019,13.2208699 10.2419887,13.0779098 10.0192429,12.9415875 L7.59130762,11.4554168 C7.33131767,11.2963034 7.11167831,10.9043075 7.11167831,10.5994545 L7.11167831,7.9508661 C7.14261159,7.92320272 7.17230231,7.8938063 7.20029267,7.86241524 Z M2.94392595,3.41681925 L2.26365542,2.65476847 L10.5341218,2.65476847 L9.85385128,3.41681925 L2.94392595,3.41681925 Z M6.39887226,5.4849999 C6.39887226,5.06056655 6.74296411,4.71647471 7.16739745,4.71647471 C7.5918308,4.71647471 7.93592265,5.06056655 7.93592265,5.4849999 C7.93592265,5.90943325 7.5918308,6.25352509 7.16739745,6.25352509 C6.74296411,6.25352509 6.39887226,5.90946595 6.39887226,5.4849999 Z" id="Shape"></path>
                    </g>
                </g>
            </g>
        </g>
    </g>
</svg>