<?xml version="1.0" encoding="UTF-8"?>
<svg width="13px" height="14px" viewBox="0 0 13 14" version="1.1" xmlns="http://www.w3.org/2000/svg" xmlns:xlink="http://www.w3.org/1999/xlink">
    <!-- Generator: sketchtool 45 (43475) - http://www.bohemiancoding.com/sketch -->
    <title>CE2BC608-2D3E-4CD2-BF25-3FAFB50BB542</title>
    <desc>Created with sketchtool.</desc>
    <defs></defs>
    <g id="Page-1" stroke="none" stroke-width="1" fill="none" fill-rule="evenodd">
        <g id="выдача-по-стране" transform="translate(-593.000000, -8466.000000)" fill-rule="nonzero" fill="#FFFFFF">
            <g id="Group-4" transform="translate(586.000000, 8459.000000)">
                <g id="greek-column" transform="translate(7.341394, 7.341394)">
                    <path d="M12.3346982,2.30896881 C12.2682164,1.62908439 11.9410047,1.01574759 11.4133278,0.582020277 C10.9660147,0.214314254 10.4199163,0.0137503236 9.84990287,0.00134871595 L9.84990287,0 L2.58134365,0 L2.58134365,0.000131582044 C1.98965209,-0.000822387776 1.4209216,0.201419214 0.957950177,0.582020277 C0.430240389,1.01578048 0.103061636,1.62908439 0.0365798083,2.30896881 C-0.0787518534,3.48978608 0.788110653,4.54438327 1.96896081,4.65984651 C2.02955434,4.6657677 2.0899834,4.6687283 2.1500506,4.6687283 C2.57177105,4.6687283 2.97704375,4.52411963 3.30711731,4.25276456 C3.68416565,3.94282306 3.91795405,3.50458906 3.96548806,3.01878815 C4.00617981,2.60200203 3.88213084,2.19429506 3.61620353,1.87080061 C3.35024332,1.54724036 2.97424763,1.34664353 2.5574615,1.30598468 C2.26640202,1.27753007 2.00728408,1.4904956 1.97886236,1.78162088 C1.95044064,2.07274615 2.16337328,2.33173251 2.45449856,2.36018713 C2.58966621,2.37341112 2.71160987,2.43851134 2.79789479,2.54341512 C2.88417972,2.6483847 2.92441093,2.78062465 2.91118693,2.91572652 C2.89125226,3.11997474 2.79292757,3.3041896 2.634437,3.43448872 C2.47594643,3.56478784 2.27623778,3.62557875 2.07198955,3.60564407 C1.47237018,3.54705716 1.03222824,3.01151824 1.09078225,2.41196466 C1.12973054,2.01369871 1.32141268,1.65441394 1.63053179,1.40029611 C1.93965091,1.14617829 2.32926534,1.02758997 2.7275313,1.06657115 C3.82791904,1.17413948 4.6357012,2.15689287 4.52816578,3.25721482 L7.84301353,3.25721482 C7.735511,2.15689287 8.54329317,1.17413948 9.64368091,1.06657115 C10.0418482,1.02755708 10.4314955,1.14617829 10.7406804,1.40029611 C11.0497995,1.65441394 11.2415475,2.01366581 11.28043,2.41196466 C11.338984,3.01155114 10.8988091,3.54705716 10.2992227,3.60564407 C10.0950073,3.62554585 9.89533157,3.56478784 9.7367752,3.43448872 C9.57821884,3.3041896 9.47992705,3.11997474 9.46002527,2.91572652 C9.44683417,2.78062465 9.48706538,2.6483847 9.57331741,2.54341512 C9.65960234,2.43851134 9.7815131,2.37341112 9.91668075,2.36018713 C10.2078389,2.33173251 10.4207387,2.07274615 10.3923169,1.78162088 C10.3638952,1.4904956 10.1047444,1.27753007 9.8137178,1.30598468 C9.39693168,1.34664353 9.02090309,1.54724036 8.75494289,1.87080061 C8.48904847,2.19429506 8.3649995,2.60203492 8.40572414,3.01878815 C8.45315947,3.50458906 8.68701366,3.94282306 9.064062,4.25276456 C9.39413556,4.52408674 9.79940826,4.6687283 10.2211287,4.6687283 C10.2811959,4.6687283 10.341625,4.6657677 10.4021856,4.65984651 C11.5831673,4.54438327 12.4500298,3.48981897 12.3346982,2.30896881 Z" id="Shape"></path>
                    <path d="M8.35740064,10.7601874 L8.35740064,3.7813061 L4.01387736,3.7813061 L4.01387736,10.7601546 C3.5299186,10.8343668 3.15925198,11.2525017 3.15925198,11.7571846 C3.15925198,12.3143688 3.61090735,12.7660241 4.16805862,12.7660241 L8.20325227,12.7660241 C8.76043644,12.7660241 9.21205891,12.3143688 9.21205891,11.7571846 C9.21202601,11.2525017 8.84135939,10.8343668 8.35740064,10.7601874 Z M5.60513191,5.62325734 C5.60513191,5.30265769 5.86500645,5.04265157 6.185639,5.04265157 C6.50633733,5.04265157 6.76617898,5.30265769 6.76617898,5.62325734 L6.76617898,9.50538818 C6.76617898,9.82598783 6.50633733,10.0859282 6.185639,10.0859282 C5.86500645,10.0859282 5.60513191,9.82598783 5.60513191,9.50538818 L5.60513191,5.62325734 Z" id="Shape"></path>
                </g>
            </g>
        </g>
    </g>
</svg>