<?xml version="1.0" encoding="UTF-8"?>
<svg width="33px" height="33px" viewBox="0 0 33 33" version="1.1" xmlns="http://www.w3.org/2000/svg" xmlns:xlink="http://www.w3.org/1999/xlink">
    <!-- Generator: sketchtool 45 (43475) - http://www.bohemiancoding.com/sketch -->
    <title>A2E6C830-C690-4AF2-83BF-CE7D219AEC7C</title>
    <desc>Created with sketchtool.</desc>
    <defs></defs>
    <g id="Page-1" stroke="none" stroke-width="1" fill="none" fill-rule="evenodd">
        <g id="главная_вход" transform="translate(-1256.000000, -103.000000)" fill-rule="nonzero">
            <g id="Group-7" transform="translate(946.000000, 52.000000)">
                <g id="Group-6" transform="translate(198.000000, 51.000000)">
                    <g id="Group-9">
                        <g id="google-plus" transform="translate(112.918367, 0.000000)">
                            <circle id="XMLID_30_" fill="#F24841" cx="16" cy="16.2786071" r="16"></circle>
                            <g id="Group" transform="translate(6.298834, 10.039896)">
                                <path d="M0.148088471,6.58394092 C0.0925901553,9.27574869 1.94662435,11.8445677 4.49703691,12.6823413 C6.899361,13.4894374 9.85304273,12.8856492 11.4516173,10.8283071 C12.6187553,9.38674533 12.8839759,7.46494183 12.7576405,5.6694737 C10.7002984,5.65106722 8.64295634,5.65720271 6.58868199,5.66027046 C6.58533535,6.39318289 6.58868199,7.12330647 6.59174973,7.8562189 C7.82358924,7.890243 9.05570763,7.87462538 10.2875471,7.89944623 C9.97658924,8.96506968 9.26821877,9.95678833 8.1931132,10.341651 C6.11736463,11.2563971 3.46878419,10.0613706 2.81563316,7.88382862 C2.02722241,5.79859792 3.31790686,3.28220945 5.44887486,2.67563238 C6.77023678,2.2107294 8.13147939,2.73419844 9.26208328,3.42109469 C9.83491514,2.88507577 10.3709341,2.31224391 10.8974708,1.73327655 C9.61292188,0.65844987 7.96219559,-0.00055777202 6.26517422,0.144184067 C2.93555414,0.183785881 0.0217531088,3.25766748 0.148088471,6.58394092 Z" id="Shape" fill="#DC4E41"></path>
                                <path d="M16.761607,3.81181399 C16.7554715,4.42480544 16.7490571,5.04086463 16.7459894,5.6535772 C16.1299302,5.65971269 15.5172176,5.66278043 14.9042261,5.66584818 C14.9042261,6.27883963 14.9042261,6.88848445 14.9042261,7.5014759 C15.5172176,7.50454364 16.1332768,7.50761139 16.7459894,7.51402577 C16.7521249,8.12701722 16.7521249,8.73972978 16.7582603,9.35578898 C17.368184,9.35578898 17.9811755,9.35272123 18.5938881,9.35578898 C18.5972347,8.73972978 18.6000236,8.12701722 18.6064379,7.51095802 C19.2191505,7.50789028 19.8352097,7.50482253 20.4482011,7.50175478 C20.4482011,6.88876333 20.4482011,6.27911852 20.4482011,5.66612707 C19.8354886,5.66305932 19.2194294,5.65999157 18.6064379,5.65385608 C18.6030913,5.04086463 18.5972347,4.42480544 18.5938881,3.81209287 C17.9811755,3.81181399 17.3712518,3.81181399 16.761607,3.81181399 Z" id="Shape" fill="#DC4E41"></path>
                                <g id="Shape" fill="#FFFFFF">
                                    <path d="M0.148088471,6.58394092 C0.0217531088,3.25766748 2.93527526,0.183785881 6.26489533,0.143905181 C7.9619167,-0.00083665803 9.61292188,0.658170984 10.897192,1.73299767 C10.3703763,2.31224391 9.83435737,2.88479689 9.26180439,3.4208158 C8.13120051,2.73391956 6.76995789,2.21045052 5.44859598,2.67535349 C3.31734909,3.28220945 2.02666463,5.79859792 2.81535427,7.88354973 C3.46850531,10.0610917 6.11708574,11.2561183 8.19283432,10.3413721 C9.267661,9.95650944 9.97631035,8.96479079 10.2872683,7.89916735 C9.05542875,7.87462538 7.82331035,7.88996411 6.59147085,7.85594002 C6.5884031,7.12302758 6.58533535,6.39290401 6.5884031,5.65999157 C8.64267745,5.65692383 10.7000195,5.65078834 12.7573616,5.66919481 C12.883697,7.46494183 12.6187553,9.38674533 11.4513385,10.8280282 C9.85276385,12.8853703 6.899361,13.4891585 4.49675803,12.6820624 C1.94690324,11.8445677 0.0925901553,9.27574869 0.148088471,6.58394092 Z"></path>
                                    <path d="M16.761607,3.81181399 C17.3715307,3.81181399 17.9811755,3.81181399 18.5938881,3.81181399 C18.5972347,4.42480544 18.6030913,5.04086463 18.6064379,5.6535772 C19.2191505,5.65971269 19.8352097,5.66278043 20.4482011,5.66584818 C20.4482011,6.27883963 20.4482011,6.88848445 20.4482011,7.5014759 C19.8354886,7.50454364 19.2194294,7.50761139 18.6064379,7.51067914 C18.6003024,8.12673833 18.5972347,8.7394509 18.5938881,9.35551009 C17.9811755,9.35244235 17.3679052,9.35551009 16.7582603,9.35551009 C16.7524037,8.7394509 16.7524037,8.12673833 16.7459894,7.51374688 C16.1332768,7.5073325 15.5172176,7.50454364 14.9042261,7.50119701 C14.9042261,6.88820556 14.9042261,6.27856074 14.9042261,5.66556929 C15.5172176,5.66250155 16.130209,5.6594338 16.7459894,5.65329831 C16.7490571,5.04086463 16.7551926,4.42480544 16.761607,3.81181399 Z"></path>
                                </g>
                            </g>
                        </g>
                    </g>
                </g>
            </g>
        </g>
    </g>
</svg>