<?xml version="1.0" encoding="UTF-8"?>
<svg width="952px" height="321px" viewBox="0 0 952 321" version="1.1" xmlns="http://www.w3.org/2000/svg" xmlns:xlink="http://www.w3.org/1999/xlink">
    <!-- Generator: sketchtool 49.1 (51147) - http://www.bohemiancoding.com/sketch -->
    <title>8AEA99FC-C484-4701-91F8-C7D6ADADC3C5</title>
    <desc>Created with sketchtool.</desc>
    <defs>
        <linearGradient x1="95.5896518%" y1="20.2301616%" x2="5.20182313%" y2="92.5161942%" id="linearGradient-1">
            <stop stop-color="#1477C2" offset="0%"></stop>
            <stop stop-color="#45B0E5" offset="100%"></stop>
        </linearGradient>
    </defs>
    <g id="Page-1" stroke="none" stroke-width="1" fill="none" fill-rule="evenodd">
        <g id="Партнёрка" transform="translate(-479.000000, -2101.000000)">
            <g id="Group-12" transform="translate(472.000000, 2102.000000)">
                <path d="M81.5,0.5 L81.5,318.808027" id="Line" stroke="#45B0E5" stroke-width="2" stroke-linecap="square"></path>
                <path d="M870.5,0.5 L870.5,318.808027" id="Line-Copy-2" stroke="#FFFFFF" stroke-linecap="square"></path>
                <path d="M153.5,0.5 L153.5,318.808027" id="Line-Copy-3" stroke="#FFFFFF" stroke-linecap="square"></path>
                <path d="M224.5,0.5 L224.5,318.808027" id="Line-Copy-4" stroke="#FFFFFF" stroke-linecap="square"></path>
                <path d="M296.5,0.5 L296.5,318.808027" id="Line-Copy-5" stroke="#FFFFFF" stroke-linecap="square"></path>
                <path d="M368.5,0.5 L368.5,318.808027" id="Line-Copy-6" stroke="#FFFFFF" stroke-linecap="square"></path>
                <path d="M440.5,0.5 L440.5,318.808027" id="Line-Copy-7" stroke="#FFFFFF" stroke-linecap="square"></path>
                <path d="M511.5,0.5 L511.5,318.808027" id="Line-Copy-8" stroke="#FFFFFF" stroke-linecap="square"></path>
                <path d="M583.5,0.5 L583.5,318.808027" id="Line-Copy-9" stroke="#FFFFFF" stroke-linecap="square"></path>
                <path d="M655.5,0.5 L655.5,318.808027" id="Line-Copy-10" stroke="#FFFFFF" stroke-linecap="square"></path>
                <path d="M727.5,0.5 L727.5,318.808027" id="Line-Copy-11" stroke="#FFFFFF" stroke-linecap="square"></path>
                <path d="M798.5,0.5 L798.5,318.808027" id="Line-Copy-12" stroke="#FFFFFF" stroke-linecap="square"></path>
                <path d="M957.094075,289 L18,289" id="Line-Copy" stroke="#45B0E5" stroke-width="2" stroke-linecap="square"></path>
                <path d="M112.390625,309.257812 L112.390625,305.367188 L110.242188,305.367188 C108.859375,305.367188 108.039062,306.085938 108.039062,307.3125 C108.039062,308.546875 108.851562,309.257812 110.242188,309.257812 L112.390625,309.257812 Z M110.53125,310.835938 L107.695312,315 L105.429688,315 L108.492188,310.5625 C106.992188,310.140625 105.984375,308.921875 105.984375,307.304688 C105.984375,305.179688 107.53125,303.726562 109.898438,303.726562 L114.390625,303.726562 L114.390625,315 L112.390625,315 L112.390625,310.835938 L110.53125,310.835938 Z M122.109375,315 L122.109375,311.359375 L118.359375,311.359375 L118.359375,315 L116.421875,315 L116.421875,306.460938 L118.359375,306.460938 L118.359375,309.84375 L122.109375,309.84375 L122.109375,306.460938 L124.039062,306.460938 L124.039062,315 L122.109375,315 Z M129.46875,307.804688 L127.757812,307.804688 L127.757812,309.953125 L129.3125,309.953125 C130.257812,309.953125 130.742188,309.585938 130.742188,308.867188 C130.742188,308.1875 130.289062,307.804688 129.46875,307.804688 Z M129.429688,311.21875 L127.757812,311.21875 L127.757812,313.65625 L129.601562,313.65625 C130.5625,313.65625 131.085938,313.234375 131.085938,312.445312 C131.085938,311.625 130.53125,311.21875 129.429688,311.21875 Z M125.851562,315 L125.851562,306.460938 L129.914062,306.460938 C131.617188,306.460938 132.648438,307.28125 132.648438,308.632812 C132.648438,309.53125 132,310.320312 131.164062,310.46875 L131.164062,310.53125 C132.273438,310.679688 133.023438,311.46875 133.023438,312.539062 C133.023438,314.039062 131.851562,315 129.96875,315 L125.851562,315 Z M178.742188,312.351562 L178.742188,306.328125 C176.84375,306.40625 175.640625,307.546875 175.640625,309.335938 C175.640625,311.140625 176.84375,312.273438 178.742188,312.351562 Z M183.796875,309.34375 C183.796875,307.539062 182.585938,306.398438 180.695312,306.328125 L180.695312,312.351562 C182.585938,312.265625 183.796875,311.125 183.796875,309.34375 Z M178.726562,314.007812 C175.625,313.929688 173.609375,312.164062 173.609375,309.335938 C173.609375,306.515625 175.625,304.757812 178.726562,304.664062 L178.726562,303.523438 L180.710938,303.523438 L180.710938,304.664062 C183.8125,304.75 185.820312,306.507812 185.820312,309.34375 C185.820312,312.15625 183.8125,313.914062 180.710938,314.007812 L180.710938,315.203125 L178.726562,315.203125 L178.726562,314.007812 Z M191.007812,307.859375 C189.867188,307.859375 189.039062,308.6875 188.953125,309.90625 L193,309.90625 C192.960938,308.671875 192.164062,307.859375 191.007812,307.859375 Z M193.007812,312.460938 L194.835938,312.460938 C194.585938,314.039062 193.070312,315.125 191.078125,315.125 C188.554688,315.125 186.992188,313.453125 186.992188,310.765625 C186.992188,308.078125 188.5625,306.34375 191.007812,306.34375 C193.398438,306.34375 194.914062,307.976562 194.914062,310.5625 L194.914062,311.203125 L188.9375,311.203125 L188.9375,311.320312 C188.9375,312.695312 189.8125,313.609375 191.117188,313.609375 C192.054688,313.609375 192.78125,313.164062 193.007812,312.460938 Z M199.960938,307.804688 L198.25,307.804688 L198.25,309.953125 L199.804688,309.953125 C200.75,309.953125 201.234375,309.585938 201.234375,308.867188 C201.234375,308.1875 200.78125,307.804688 199.960938,307.804688 Z M199.921875,311.21875 L198.25,311.21875 L198.25,313.65625 L200.09375,313.65625 C201.054688,313.65625 201.578125,313.234375 201.578125,312.445312 C201.578125,311.625 201.023438,311.21875 199.921875,311.21875 Z M196.34375,315 L196.34375,306.460938 L200.40625,306.460938 C202.109375,306.460938 203.140625,307.28125 203.140625,308.632812 C203.140625,309.53125 202.492188,310.320312 201.65625,310.46875 L201.65625,310.53125 C202.765625,310.679688 203.515625,311.46875 203.515625,312.539062 C203.515625,314.039062 202.34375,315 200.460938,315 L196.34375,315 Z M256.179688,303.726562 L256.179688,315 L254.367188,315 L254.367188,307 L254.3125,307 L251.054688,314.90625 L249.679688,314.90625 L246.421875,307 L246.367188,307 L246.367188,315 L244.546875,315 L244.546875,303.726562 L246.882812,303.726562 L250.335938,312.234375 L250.398438,312.234375 L253.851562,303.726562 L256.179688,303.726562 Z M262.90625,306.367188 C265.078125,306.367188 266.460938,308.054688 266.460938,310.734375 C266.460938,313.40625 265.085938,315.09375 262.9375,315.09375 C261.710938,315.09375 260.75,314.539062 260.257812,313.585938 L260.21875,313.585938 L260.21875,317.742188 L258.273438,317.742188 L258.273438,306.460938 L260.171875,306.460938 L260.171875,307.898438 L260.210938,307.898438 C260.679688,306.960938 261.710938,306.367188 262.90625,306.367188 Z M262.335938,313.476562 C263.625,313.476562 264.46875,312.40625 264.46875,310.734375 C264.46875,309.070312 263.625,307.984375 262.335938,307.984375 C261.0625,307.984375 260.210938,309.09375 260.210938,310.734375 C260.210938,312.382812 261.0625,313.476562 262.335938,313.476562 Z M274.5625,306.460938 L274.5625,307.976562 L271.929688,307.976562 L271.929688,315 L269.992188,315 L269.992188,307.976562 L267.359375,307.976562 L267.359375,306.460938 L274.5625,306.460938 Z M326.28125,315 L325.320312,312.085938 L321.171875,312.085938 L320.210938,315 L318.132812,315 L322.132812,303.726562 L324.40625,303.726562 L328.40625,315 L326.28125,315 Z M323.21875,305.71875 L321.640625,310.53125 L324.84375,310.53125 L323.273438,305.71875 L323.21875,305.71875 Z M335.210938,315 L335.210938,307.976562 L331.539062,307.976562 L331.539062,315 L329.601562,315 L329.601562,306.460938 L337.140625,306.460938 L337.140625,315 L335.210938,315 Z M343.585938,306.367188 C345.757812,306.367188 347.140625,308.054688 347.140625,310.734375 C347.140625,313.40625 345.765625,315.09375 343.617188,315.09375 C342.390625,315.09375 341.429688,314.539062 340.9375,313.585938 L340.898438,313.585938 L340.898438,317.742188 L338.953125,317.742188 L338.953125,306.460938 L340.851562,306.460938 L340.851562,307.898438 L340.890625,307.898438 C341.359375,306.960938 342.390625,306.367188 343.585938,306.367188 Z M343.015625,313.476562 C344.304688,313.476562 345.148438,312.40625 345.148438,310.734375 C345.148438,309.070312 344.304688,307.984375 343.015625,307.984375 C341.742188,307.984375 340.890625,309.09375 340.890625,310.734375 C340.890625,312.382812 341.742188,313.476562 343.015625,313.476562 Z M399.765625,303.726562 L399.765625,315 L397.953125,315 L397.953125,307 L397.898438,307 L394.640625,314.90625 L393.265625,314.90625 L390.007812,307 L389.953125,307 L389.953125,315 L388.132812,315 L388.132812,303.726562 L390.46875,303.726562 L393.921875,312.234375 L393.984375,312.234375 L397.4375,303.726562 L399.765625,303.726562 Z M404.945312,313.601562 C406.125,313.601562 407.023437,312.867188 407.023437,311.828125 L407.023437,311.179688 L405.070312,311.304688 C404.007812,311.375 403.445312,311.78125 403.445312,312.476562 C403.445312,313.164062 404.039062,313.601562 404.945312,313.601562 Z M404.375,315.09375 C402.695313,315.09375 401.492188,314.070312 401.492188,312.554688 C401.492188,311.03125 402.65625,310.164062 404.804688,310.03125 L407.023438,309.898438 L407.023438,309.273438 C407.023438,308.367188 406.414063,307.875 405.367188,307.875 C404.484375,307.875 403.851563,308.335938 403.71875,309.023438 L401.921875,309.023438 C401.96875,307.460938 403.421875,306.34375 405.429688,306.34375 C407.5625,306.34375 408.945313,307.453125 408.945313,309.148438 L408.945313,315 L407.078125,315 L407.078125,313.625 L407.03125,313.625 C406.5625,314.539062 405.507813,315.09375 404.375,315.09375 Z M411.835938,302.703125 L413.085938,302.703125 C413.09375,303.570312 413.640625,304.210938 414.5,304.210938 C415.359375,304.210938 415.90625,303.570312 415.914062,302.703125 L417.164062,302.703125 C417.164062,304.210938 416.09375,305.226562 414.5,305.226562 C412.90625,305.226562 411.835938,304.210938 411.835938,302.703125 Z M412.53125,315 L410.625,315 L410.625,306.460938 L412.53125,306.460938 L412.53125,312.226562 L412.59375,312.226562 L416.4375,306.460938 L418.351562,306.460938 L418.351562,315 L416.4375,315 L416.4375,309.195312 L416.375,309.195312 L412.53125,315 Z M467.273438,315 L467.273438,306.890625 L467.171875,306.890625 L461.695312,315 L459.742188,315 L459.742188,303.726562 L461.75,303.726562 L461.75,311.859375 L461.851562,311.859375 L467.320312,303.726562 L469.273438,303.726562 L469.273438,315 L467.273438,315 Z M478.632812,315.171875 C476.320312,315.171875 474.828125,313.757812 474.609375,311.359375 L473.25,311.359375 L473.25,315 L471.3125,315 L471.3125,306.460938 L473.25,306.460938 L473.25,309.84375 L474.632812,309.84375 C474.945312,307.617188 476.414062,306.296875 478.632812,306.296875 C481.132812,306.296875 482.6875,307.960938 482.6875,310.726562 C482.6875,313.515625 481.140625,315.171875 478.632812,315.171875 Z M478.625,313.585938 C479.9375,313.585938 480.695312,312.546875 480.695312,310.734375 C480.695312,308.921875 479.9375,307.882812 478.625,307.882812 C477.3125,307.882812 476.554687,308.921875 476.554687,310.734375 C476.554687,312.546875 477.304687,313.585938 478.625,313.585938 Z M489.84375,315 L489.84375,311.359375 L486.09375,311.359375 L486.09375,315 L484.15625,315 L484.15625,306.460938 L486.09375,306.460938 L486.09375,309.84375 L489.84375,309.84375 L489.84375,306.460938 L491.773437,306.460938 L491.773437,315 L489.84375,315 Z M540.695312,315 L540.695312,306.890625 L540.59375,306.890625 L535.117188,315 L533.164062,315 L533.164062,303.726562 L535.171875,303.726562 L535.171875,311.859375 L535.273438,311.859375 L540.742188,303.726562 L542.695312,303.726562 L542.695312,315 L540.695312,315 Z M552.054688,315.171875 C549.742188,315.171875 548.25,313.757812 548.03125,311.359375 L546.671875,311.359375 L546.671875,315 L544.734375,315 L544.734375,306.460938 L546.671875,306.460938 L546.671875,309.84375 L548.054688,309.84375 C548.367188,307.617188 549.835938,306.296875 552.054688,306.296875 C554.554688,306.296875 556.109375,307.960938 556.109375,310.726562 C556.109375,313.515625 554.5625,315.171875 552.054688,315.171875 Z M552.046875,313.585938 C553.359375,313.585938 554.117188,312.546875 554.117188,310.734375 C554.117188,308.921875 553.359375,307.882812 552.046875,307.882812 C550.734375,307.882812 549.976562,308.921875 549.976562,310.734375 C549.976562,312.546875 550.726562,313.585938 552.046875,313.585938 Z M560.335938,311.046875 C560.179688,313.5 559.539062,315.085938 557.5625,315.085938 C557.25,315.085938 557.023438,315.03125 556.921875,314.992188 L556.921875,313.3125 C557,313.335938 557.171875,313.375 557.390625,313.375 C558.21875,313.375 558.492188,312.382812 558.585938,310.945312 L558.859375,306.460938 L564.992188,306.460938 L564.992188,315 L563.054688,315 L563.054688,307.976562 L560.546875,307.976562 L560.335938,311.046875 Z M611.195312,315.226562 C607.976562,315.226562 605.953125,312.976562 605.953125,309.359375 C605.953125,305.765625 607.992188,303.5 611.195312,303.5 C613.734375,303.5 615.6875,305.070312 616.023438,307.382812 L614.023438,307.382812 C613.6875,306.085938 612.578125,305.25 611.195312,305.25 C609.257812,305.25 608.007812,306.84375 608.007812,309.359375 C608.007812,311.890625 609.242188,313.476562 611.203125,313.476562 C612.625,313.476562 613.664062,312.75 614.03125,311.507812 L616.03125,311.507812 C615.59375,313.820312 613.789062,315.226562 611.195312,315.226562 Z M621.203125,307.859375 C620.0625,307.859375 619.234375,308.6875 619.148438,309.90625 L623.195312,309.90625 C623.15625,308.671875 622.359375,307.859375 621.203125,307.859375 Z M623.203125,312.460938 L625.03125,312.460938 C624.78125,314.039062 623.265625,315.125 621.273438,315.125 C618.75,315.125 617.1875,313.453125 617.1875,310.765625 C617.1875,308.078125 618.757812,306.34375 621.203125,306.34375 C623.59375,306.34375 625.109375,307.976562 625.109375,310.5625 L625.109375,311.203125 L619.132812,311.203125 L619.132812,311.320312 C619.132812,312.695312 620.007812,313.609375 621.3125,313.609375 C622.25,313.609375 622.976562,313.164062 623.203125,312.460938 Z M632.226562,315 L632.226562,311.359375 L628.476562,311.359375 L628.476562,315 L626.539062,315 L626.539062,306.460938 L628.476562,306.460938 L628.476562,309.84375 L632.226562,309.84375 L632.226562,306.460938 L634.15625,306.460938 L634.15625,315 L632.226562,315 Z M684.039062,303.539062 C687.320312,303.539062 689.382812,305.78125 689.382812,309.367188 C689.382812,312.953125 687.320312,315.1875 684.039062,315.1875 C680.75,315.1875 678.6875,312.953125 678.6875,309.367188 C678.6875,305.78125 680.75,303.539062 684.039062,303.539062 Z M684.039062,305.257812 C682.023437,305.257812 680.75,306.851562 680.75,309.367188 C680.75,311.875 682.023437,313.46875 684.039062,313.46875 C686.046875,313.46875 687.328125,311.875 687.328125,309.367188 C687.328125,306.851562 686.046875,305.257812 684.039062,305.257812 Z M694.8125,310.453125 L698.625,315 L696.226562,315 L693.007812,311.15625 L692.945312,311.15625 L692.945312,315 L691.007812,315 L691.007812,306.460938 L692.945312,306.460938 L692.945312,310.039062 L693.007812,310.039062 L696.1875,306.460938 L698.460938,306.460938 L694.8125,310.453125 Z M706.296875,306.460938 L706.296875,307.976562 L703.664062,307.976562 L703.664062,315 L701.726562,315 L701.726562,307.976562 L699.09375,307.976562 L699.09375,306.460938 L706.296875,306.460938 Z M760.15625,315 L758.148438,315 L758.148438,310.109375 L752.664062,310.109375 L752.664062,315 L750.648438,315 L750.648438,303.726562 L752.664062,303.726562 L752.664062,308.414062 L758.148438,308.414062 L758.148438,303.726562 L760.15625,303.726562 L760.15625,315 Z M765.992188,315.125 C763.476562,315.125 761.882812,313.453125 761.882812,310.726562 C761.882812,308.03125 763.492188,306.34375 765.992188,306.34375 C768.507812,306.34375 770.109375,308.023438 770.109375,310.726562 C770.109375,313.453125 768.523438,315.125 765.992188,315.125 Z M765.992187,313.570312 C767.335937,313.570312 768.132812,312.523438 768.132812,310.734375 C768.132812,308.945312 767.328125,307.898438 765.992187,307.898438 C764.664062,307.898438 763.859375,308.953125 763.859375,310.734375 C763.859375,312.523438 764.664062,313.570312 765.992187,313.570312 Z M774.929688,310.6875 L776.421875,310.6875 L776.421875,307.960938 L774.929688,307.960938 C773.984375,307.960938 773.382812,308.5 773.382812,309.359375 C773.382812,310.140625 773.992188,310.6875 774.929688,310.6875 Z M776.421875,315 L776.421875,312.125 L775.242187,312.125 L773.234375,315 L771.054687,315 L773.359375,311.8125 C772.179687,311.460938 771.460937,310.578125 771.460937,309.375 C771.460937,307.578125 772.765625,306.460938 774.789062,306.460938 L778.328125,306.460938 L778.328125,315 L776.421875,315 Z M826.195312,310.484375 C826.109375,311.75 825.953125,312.617188 825.429687,313.234375 L825.429687,313.296875 L830.351562,313.296875 L830.351562,305.421875 L826.515625,305.421875 L826.195312,310.484375 Z M824.21875,315 L824.21875,317.226562 L822.382812,317.226562 L822.382812,313.296875 L823.1875,313.296875 C823.984375,312.796875 824.242188,311.867188 824.328125,310.359375 L824.734375,303.726562 L832.359375,303.726562 L832.359375,313.296875 L833.765625,313.296875 L833.765625,317.226562 L831.9375,317.226562 L831.9375,315 L824.21875,315 Z M838.703125,307.859375 C837.5625,307.859375 836.734375,308.6875 836.648437,309.90625 L840.695312,309.90625 C840.65625,308.671875 839.859375,307.859375 838.703125,307.859375 Z M840.703125,312.460938 L842.53125,312.460938 C842.28125,314.039062 840.765625,315.125 838.773437,315.125 C836.25,315.125 834.6875,313.453125 834.6875,310.765625 C834.6875,308.078125 836.257812,306.34375 838.703125,306.34375 C841.09375,306.34375 842.609375,307.976562 842.609375,310.5625 L842.609375,311.203125 L836.632812,311.203125 L836.632812,311.320312 C836.632812,312.695312 837.507812,313.609375 838.8125,313.609375 C839.75,313.609375 840.476562,313.164062 840.703125,312.460938 Z M847.84375,310.453125 L851.65625,315 L849.257812,315 L846.039062,311.15625 L845.976562,311.15625 L845.976562,315 L844.039062,315 L844.039062,306.460938 L845.976562,306.460938 L845.976562,310.039062 L846.039062,310.039062 L849.21875,306.460938 L851.492188,306.460938 L847.84375,310.453125 Z" id="Янв-Фев-Мрт-Апр-Май" fill="#3E4758"></path>
                <text id="100-000-80-000-60-00" font-family="SFUIDisplay-Semibold, SF UI Display" font-size="16" font-weight="500" line-spacing="70" fill="#3E4758">
                    <tspan x="7.171875" y="82">100 000</tspan>
                    <tspan x="14.671875" y="152">80 000</tspan>
                    <tspan x="14.765625" y="222">60 000    </tspan>
                </text>
                <text id="₽" font-family="SFUIDisplay-Semibold, SF UI Display" font-size="16" font-weight="500" line-spacing="40" fill="#3E4758">
                    <tspan x="57.890625" y="31">₽    </tspan>
                </text>
                <path d="M81.6496788,234.963214 C80.7947501,235.701811 81.6496788,225.073402 81.6496788,225.073402 C127.685837,185.115887 163.746377,165.047372 189.862995,165.047372 C198.853159,165.047372 207.12988,167.307108 215.355031,171.663338 C221.845589,175.100888 227.743841,179.409624 236.158584,186.455246 C237.087732,187.233216 238.034732,188.032388 239.298693,189.103593 C239.045247,188.888797 241.71308,191.151386 242.431716,191.759153 C260.169612,206.76052 270.620188,213.149853 285.313593,215.689953 C294.364963,217.254695 307.220679,212.86973 324.296762,202.780594 C337.531025,194.961337 348.152552,187.425822 376.147305,166.642588 C377.395441,165.715975 378.384391,164.982138 379.340006,164.27362 C399.130273,149.600607 410.643274,141.456766 422.466892,134.124664 C437.824683,124.600939 450.527781,118.726363 461.44391,116.596456 C475.00918,113.949659 486.787548,115.158549 497.832842,119.854393 C506.670352,123.61161 514.30538,129.039372 524.891494,138.314616 C526.880147,140.057017 533.660992,146.118763 534.199296,146.59591 C549.17782,159.872698 559.301255,166.820184 572.581435,171.438389 C596.849659,179.877704 631.104069,177.064307 678.257298,160.265141 C733.923425,140.433106 805.88956,101.599216 896.556599,41 L901,47.6575215 C809.829999,108.592903 737.315237,147.722839 680.94053,167.807318 C632.21994,185.164883 596.190661,188.124055 569.955354,179.000683 C555.456034,173.958521 544.591941,166.502738 528.894702,152.588889 C528.329902,152.088256 521.574177,146.048966 519.621426,144.338022 C509.621889,135.57672 502.581542,130.571718 494.704602,127.222881 C485.134956,123.154401 474.979577,122.112089 462.974945,124.45438 C453.205772,126.360498 441.286768,131.872469 426.680983,140.929857 C415.102295,148.110072 403.72124,156.16058 384.102631,170.706321 C383.148567,171.413689 382.160864,172.146601 380.913957,173.072302 C352.665911,194.043579 341.936888,201.655359 328.364198,209.674569 C309.772222,220.659347 295.406762,225.559272 283.951716,223.578998 C274.804855,221.997749 266.393293,218.622418 258.005892,213.49448 C251.57259,209.56125 246.086888,205.332452 237.267689,197.873843 C236.544079,197.261868 233.870879,194.994729 234.128354,195.212938 C232.875496,194.151143 231.939489,193.361248 231.02477,192.595359 C214.309001,178.599331 203.837284,173.053268 189.862995,173.053268 C166.38857,173.053268 132.043394,192.078426 87.3463694,230.304255 C86.4988803,231.029045 82.5046076,234.224616 81.6496788,234.963214 Z" id="Path-20" fill="url(#linearGradient-1)" fill-rule="nonzero"></path>
                <path d="M473,134 C464.715729,134 458,127.284271 458,119 C458,110.715729 464.715729,104 473,104 C481.284271,104 488,110.715729 488,119 C488,127.284271 481.284271,134 473,134 Z" id="Oval-3" fill="#2C93D3" fill-rule="nonzero"></path>
                <path d="M473,126 C476.865993,126 480,122.865993 480,119 C480,115.134007 476.865993,112 473,112 C469.134007,112 466,115.134007 466,119 C466,122.865993 469.134007,126 473,126 Z" id="Path" fill="#E7ECEE"></path>
                <path d="M188,184 C179.715729,184 173,177.284271 173,169 C173,160.715729 179.715729,154 188,154 C196.284271,154 203,160.715729 203,169 C203,177.284271 196.284271,184 188,184 Z" id="Oval-3-Copy" fill="#40AAE1" fill-rule="nonzero"></path>
                <path d="M188,176 C191.865993,176 195,172.865993 195,169 C195,165.134007 191.865993,162 188,162 C184.134007,162 181,165.134007 181,169 C181,172.865993 184.134007,176 188,176 Z" id="Path" fill="#E7ECEE"></path>
                <g id="Group-3" transform="translate(882.000000, 26.000000)">
                    <circle id="Path" fill="#1477C2" cx="18.5" cy="18.5" r="18.5"></circle>
                    <circle id="Oval-2-Copy" fill="#E7ECEE" cx="18.5" cy="18.5" r="12.5"></circle>
                    <circle id="Oval-2" fill="#F24841" cx="18.5" cy="18.5" r="8.5"></circle>
                </g>
            </g>
        </g>
    </g>
</svg>