<?xml version="1.0" encoding="UTF-8"?>
<svg width="18px" height="19px" viewBox="0 0 18 19" version="1.1" xmlns="http://www.w3.org/2000/svg" xmlns:xlink="http://www.w3.org/1999/xlink">
    <!-- Generator: sketchtool 45 (43475) - http://www.bohemiancoding.com/sketch -->
    <title>76809D7F-4006-43BC-AB79-AF7423D19923</title>
    <desc>Created with sketchtool.</desc>
    <defs></defs>
    <g id="Page-1" stroke="none" stroke-width="1" fill="none" fill-rule="evenodd">
        <g id="курорты" transform="translate(-651.000000, -669.000000)" fill-rule="nonzero" fill="#FFFFFF">
            <g id="Group-4" transform="translate(641.000000, 659.000000)">
                <g id="greek-column" transform="translate(10.428272, 10.428272)">
                    <path d="M17.5211396,3.27983419 C17.4267037,2.31407486 16.9619075,1.44284481 16.2123553,0.826745684 C15.5769578,0.304428199 14.8012383,0.0195320011 13.9915481,0.00191581829 L13.9915481,0 L3.66673603,0 L3.66673603,0.000186909102 C2.82625253,-0.00116818189 2.01838466,0.286111107 1.36074499,0.826745684 C0.611146035,1.44289154 0.146396554,2.31407486 0.0519607303,3.27983419 C-0.111865097,4.95715647 1.11949206,6.45518619 2.79686107,6.61919893 C2.88293271,6.62760984 2.96877072,6.63181529 3.05409472,6.63181529 C3.65313839,6.63181529 4.22881843,6.42640219 4.69767991,6.0409489 C5.23326794,5.60068451 5.56535869,4.97818374 5.6328796,4.28811534 C5.69068124,3.69608076 5.51447268,3.11694291 5.13672939,2.65742688 C4.75893937,2.1978174 4.22484661,1.91287447 3.63281203,1.85511956 C3.2193691,1.81470047 2.85129835,2.11721285 2.81092598,2.53074924 C2.77055362,2.94428563 3.07301927,3.31216946 3.48655566,3.35258856 C3.67855803,3.37137292 3.85177604,3.4638462 3.97434168,3.61285948 C4.09690733,3.76196622 4.15405479,3.94980987 4.13527042,4.14171879 C4.10695369,4.43184844 3.96728587,4.69352118 3.74215385,4.87860792 C3.51702184,5.06369466 3.23334055,5.15004666 2.9432109,5.12172993 C2.09146612,5.03850866 1.46625518,4.27778861 1.54942973,3.42613729 C1.60475482,2.86041017 1.87703465,2.35005486 2.31613086,1.98908666 C2.75522707,1.62811846 3.30866492,1.45966663 3.87439204,1.51503845 C5.43746613,1.66783664 6.58490111,3.063814 6.43214965,4.62679463 L11.1408105,4.62679463 C10.9881057,3.063814 12.1355407,1.66783664 13.6986148,1.51503845 C14.2642017,1.4596199 14.8176863,1.62811846 15.256876,1.98908666 C15.6959722,2.35005486 15.9683455,2.86036344 16.0235771,3.42613729 C16.1067517,4.27783534 15.481494,5.03850866 14.6297959,5.12172993 C14.339713,5.14999993 14.0560785,5.06369466 13.830853,4.87860792 C13.6056275,4.69352118 13.4660064,4.43184844 13.4377364,4.14171879 C13.4189988,3.94980987 13.4761462,3.76196622 13.5986652,3.61285948 C13.7212308,3.4638462 13.8944021,3.37137292 14.0864045,3.35258856 C14.4999876,3.31216946 14.8024065,2.94428563 14.7620341,2.53074924 C14.7216618,2.11721285 14.3535443,1.81470047 13.9401481,1.85511956 C13.3481135,1.91287447 12.813974,2.1978174 12.436184,2.65742688 C12.0584874,3.11694291 11.8822789,3.69612749 11.9401272,4.28811534 C12.007508,4.97818374 12.3396922,5.60068451 12.8752802,6.0409489 C13.3441417,6.42635546 13.9198217,6.63181529 14.5188654,6.63181529 C14.6041894,6.63181529 14.6900274,6.62760984 14.7760523,6.61919893 C16.4536082,6.45518619 17.6849654,4.9572032 17.5211396,3.27983419 Z" id="Shape"></path>
                    <path d="M11.8714849,15.2845852 L11.8714849,5.37125358 L5.70161542,5.37125358 L5.70161542,15.2845385 C5.01416375,15.3899553 4.48764081,15.9839057 4.48764081,16.7007955 C4.48764081,17.4922621 5.1292063,18.1338276 5.92062616,18.1338276 L11.6525209,18.1338276 C12.4439874,18.1338276 13.0855062,17.4922621 13.0855062,16.7007955 C13.0854595,15.9839057 12.5589365,15.3899553 11.8714849,15.2845852 Z M7.96195392,7.98770064 C7.96195392,7.53229662 8.33109939,7.16296423 8.78655015,7.16296423 C9.24209435,7.16296423 9.6111931,7.53229662 9.6111931,7.98770064 L9.6111931,13.5021733 C9.6111931,13.9575774 9.24209435,14.3268163 8.78655015,14.3268163 C8.33109939,14.3268163 7.96195392,13.9575774 7.96195392,13.5021733 L7.96195392,7.98770064 Z" id="Shape"></path>
                </g>
            </g>
        </g>
    </g>
</svg>