<?xml version="1.0" encoding="UTF-8"?>
<svg width="17px" height="15px" viewBox="0 0 17 15" version="1.1" xmlns="http://www.w3.org/2000/svg" xmlns:xlink="http://www.w3.org/1999/xlink">
    <!-- Generator: sketchtool 45 (43475) - http://www.bohemiancoding.com/sketch -->
    <title>AA60FA3D-5C43-4389-88D5-C647ACD30862</title>
    <desc>Created with sketchtool.</desc>
    <defs></defs>
    <g id="Page-1" stroke="none" stroke-width="1" fill="none" fill-rule="evenodd">
        <g id="выдача-по-стране" transform="translate(-912.000000, -1075.000000)" fill-rule="nonzero" fill="#A7AEB1">
            <g id="Group-23" transform="translate(400.000000, 1029.000000)">
                <g id="valentines-heart" transform="translate(512.549625, 46.145088)">
                    <path d="M16.0755305,4.37216689 C16.0755305,1.97460065 14.1318921,0.0310601074 11.7343259,0.0310601074 C10.1687594,0.0310601074 8.80152744,0.862505252 8.03771633,2.10507268 C7.2740031,0.862505252 5.90618383,0.0310601074 4.34065001,0.0310601074 C1.94308378,0.0310601074 0,1.97460065 0,4.37216689 C0,5.67750705 0.578429249,6.84532794 1.4900695,7.64059067 L7.64156946,13.7923516 C7.7466257,13.8974079 7.88910416,13.9564286 8.03771633,13.9564286 C8.1863285,13.9564286 8.32880696,13.8974079 8.4338632,13.7923516 L14.5853632,7.64059067 C15.497036,6.84532794 16.0755305,5.67750705 16.0755305,4.37216689 Z" id="Shape"></path>
                </g>
            </g>
        </g>
    </g>
</svg>