<svg xmlns="http://www.w3.org/2000/svg" xmlns:xlink="http://www.w3.org/1999/xlink" width="166" height="120" viewBox="0 0 166 120">
    <defs>
        <path id="a" d="M6.958.08H.11v24.518h6.848V.081z"/>
        <path id="c" d="M6.901.08H.054v24.521h6.847V.081z"/>
    </defs>
    <g fill="none" fill-rule="evenodd">
        <path fill="#67B5FF" d="M135.617 28.567l.387-.124-3.732-11.71-.387.123zM142.335 29.218l-.387-.123 3.732-11.71.387.122zM137.55 26.833h.456v-2.317h-.456zM140.193 26.845h.455v-2.317h-.455z"/>
        <path fill="#70C1B1" d="M139.075.209c-10.99.035-12.122 8.552-10.49 13.32 1.45 4.239 8.772 11.487 8.772 11.487s.833.092 1.718.108V.209z"/>
        <g transform="translate(132.117 .128)">
            <mask id="b" fill="#fff">
                <use xlink:href="#a"/>
            </mask>
            <path fill="#3AB293" d="M5.9 24.598S-.146 15.975.12 9.347C.486.137 6.958.08 6.958.08v24.485l-1.058.032z" mask="url(#b)"/>
        </g>
        <path fill="#3AB293" d="M139.075.209c10.989.035 12.116 8.555 10.484 13.323-1.45 4.239-8.772 11.487-8.772 11.487s-.833.093-1.718.108l.006-24.918z"/>
        <g transform="translate(139.015 .128)">
            <mask id="d" fill="#fff">
                <use xlink:href="#c"/>
            </mask>
            <path fill="#70C1B1" d="M1.111 24.601S7.157 15.978 6.893 9.35C6.526.14.059.08.059.08L.054 24.57l1.057.032z" mask="url(#d)"/>
        </g>
        <path fill="#199D86" d="M140.493 25.812h-2.902a.738.738 0 0 1-.737-.736c0-.404.332-.736.737-.736h2.902c.405 0 .736.332.736.736a.738.738 0 0 1-.736.736"/>
        <path fill="#F9B424" d="M143.752 29.787h-9.512a.42.42 0 0 1-.418-.418v-1.385a.42.42 0 0 1 .418-.418h9.512a.42.42 0 0 1 .418.418v1.385a.42.42 0 0 1-.418.418"/>
        <path fill="#F9B424" d="M134.401 29.782v4.601c0 1.062.869 1.93 1.93 1.93h5.33c1.061 0 1.93-.868 1.93-1.93v-4.6h-9.19z"/>
        <path fill="#F18923" d="M140.347 29.782l-1.88 6.532h3.193c1.062 0 1.93-.869 1.93-1.93v-4.602h-3.243z"/>
        <path fill="#C4E9FF" d="M108.946 43.453H72.164c-1.9-.398-3.338-2.09-3.338-4.104a4.21 4.21 0 0 1 3.35-4.108H93.01a4.86 4.86 0 0 0 4.845-4.846 4.86 4.86 0 0 0-4.845-4.845H38.1a4.86 4.86 0 0 0-4.845 4.845 4.86 4.86 0 0 0 4.845 4.846h10.95c1.782.483 3.109 2.103 3.109 4.032 0 2.258-1.811 4.102-4.05 4.18H4.844A4.86 4.86 0 0 0 0 48.298a4.86 4.86 0 0 0 4.845 4.845h50.793c1.628.54 2.819 2.063 2.819 3.866 0 1.854-1.26 3.413-2.959 3.909H44.25a4.86 4.86 0 0 0-4.845 4.845 4.86 4.86 0 0 0 4.845 4.845h41.021a4.86 4.86 0 0 0 4.845-4.845 4.86 4.86 0 0 0-4.845-4.845h-7.844c-1.579-.567-2.723-2.067-2.723-3.836 0-1.89 1.305-3.475 3.054-3.939h31.188a4.86 4.86 0 0 0 4.845-4.845 4.86 4.86 0 0 0-4.845-4.845"/>
        <path fill="#DD345F" d="M117.784 41.873c3.241.045 5.197-.042 5.906-.533 1.154-.799 2.755-4.856 1.487-10.279-1.043-4.462-5.222-12.207-34.27-12.04-10.302.06-14.6.771-19.537 1.865-11.504 2.55-14.416 5.58-15.748 10.686-1.284 4.921 0 10.301 2.131 10.657 2.132.355 10.006.088 12.255 0 2.25-.09 4.174-.03 4.707-1.806.533-1.776-1.155-6.808 1.243-8.496 2.398-1.687 6.039-2.664 13.765-2.93 7.725-.267 12.876 1.243 14.03 2.042 1.155.8 3.02 2.132 1.688 6.039-1.332 3.907 2.22 4.795 2.22 4.795s7.502-.036 10.123 0"/>
        <path fill="#611814" d="M86.066 35.38h-2.589a.526.526 0 0 1-.526-.525v-5.731c0-.291.236-.527.526-.527h2.589c.29 0 .526.236.526.527v5.73c0 .291-.236.527-.526.527M97.595 35.388h-2.588a.526.526 0 0 1-.526-.526V29.13c0-.29.236-.526.526-.526h2.588c.291 0 .527.235.527.526v5.73c0 .292-.236.527-.527.527"/>
        <path fill="#F9B424" d="M55.305 38.065c.38 2.286 1.288 3.97 2.448 4.164 2.132.355 10.006.088 12.255 0 2.25-.09 4.174-.03 4.707-1.806.163-.544.118-1.393.046-2.358H55.305zM105.194 38.065c-.47 3.073 2.467 3.808 2.467 3.808s7.502-.036 10.123 0c3.242.045 5.197-.042 5.906-.533.563-.39 1.231-1.555 1.622-3.275h-20.118z"/>
        <path fill="#FF4C79" d="M103.487 34.976c-4.351-.03-26.434 0-27.351 0-.918 0-4.233-.207-6.335 1.836-2.282 2.217-8.229 11.662-9.176 21.608-.948 9.946-1.237 21.656 2.841 24.865 2.502 1.968 4.026 1.658 7.578 1.776 3.552.118 36.913.118 40.494 0 3.582-.118 5.802-1.006 7.312-3.76 2.685-4.896 2.767-18.825.755-26.285-2.013-7.46-5.705-17.183-9.843-19.093-1.539-.71-1.924-.917-6.275-.947"/>
        <path fill="#FFF" d="M109.42 57.796c0 10.658-8.64 19.298-19.298 19.298-10.658 0-19.298-8.64-19.298-19.298 0-10.657 8.64-19.297 19.298-19.297 10.658 0 19.298 8.64 19.298 19.297"/>
        <path fill="#3AB293" d="M102.67 74.585a2.004 2.004 0 0 1-2.815-.252l-4.726-5.655a2.004 2.004 0 0 1 .252-2.815 2.004 2.004 0 0 1 2.814.252l4.727 5.656c.704.843.591 2.11-.252 2.814"/>
        <path fill="#DD345F" d="M78.8 57.226a2.408 2.408 0 1 1-4.816 0 2.408 2.408 0 0 1 4.816 0M81.02 50.344a2.408 2.408 0 1 1-4.816 0 2.408 2.408 0 0 1 4.816 0M85.726 45.37a2.408 2.408 0 1 1-4.816 0 2.408 2.408 0 0 1 4.816 0M92.92 43.772a2.408 2.408 0 1 1-4.816 0 2.408 2.408 0 0 1 4.815 0M99.713 45.46a2.408 2.408 0 1 1-4.816 0 2.408 2.408 0 0 1 4.816 0M104.508 50.432a2.408 2.408 0 1 1-4.816 0 2.408 2.408 0 0 1 4.816 0M106.95 57.448a2.408 2.408 0 1 1-4.816 0 2.408 2.408 0 0 1 4.816 0M92.742 71.434a2.408 2.408 0 1 1-4.816 0 2.408 2.408 0 0 1 4.816 0M85.77 69.347a2.408 2.408 0 1 1-4.815 0 2.408 2.408 0 0 1 4.816 0M80.709 64.02a2.408 2.408 0 1 1-4.816 0 2.408 2.408 0 0 1 4.816 0"/>
        <path fill="#C4E9FF" d="M160.932 110.08h-17.238a3.724 3.724 0 0 1-2.91-3.62 3.721 3.721 0 0 1 3.656-3.71h1.566a4.41 4.41 0 0 0 4.398-4.397 4.411 4.411 0 0 0-4.398-4.399H96.162a4.411 4.411 0 0 0-4.398 4.399 4.41 4.41 0 0 0 4.398 4.397h26.866a3.725 3.725 0 0 1 3.007 3.642 3.724 3.724 0 0 1-3.306 3.688h-11.64a4.41 4.41 0 0 0-4.399 4.398 4.411 4.411 0 0 0 4.398 4.398h49.844a4.411 4.411 0 0 0 4.398-4.398 4.41 4.41 0 0 0-4.398-4.398M95.03 110.451a4.298 4.298 0 1 0 0 8.596 4.298 4.298 0 0 0 0-8.596"/>
    </g>
</svg>
