<svg xmlns="http://www.w3.org/2000/svg" width="12" height="16" viewBox="0 0 12 16">
    <g fill="#FFF" fill-rule="nonzero">
        <path d="M11.202 3.822V2.486c.377-.22.634-.625.634-1.093v-.317a.317.317 0 0 0-.317-.317H.733a.317.317 0 0 0-.318.317v.317c0 .468.257.873.635 1.093v1.336c0 1.257.536 2.46 1.47 3.301l1.388 1.25-1.388 1.25a4.448 4.448 0 0 0-1.47 3.3v1.337c-.378.22-.635.625-.635 1.092v.318c0 .175.142.317.318.317h10.786a.317.317 0 0 0 .317-.317v-.318c0-.467-.257-.872-.634-1.092v-1.336c0-1.257-.536-2.46-1.47-3.302l-1.389-1.25 1.389-1.249a4.448 4.448 0 0 0 1.47-3.301zM8.882 6.18L6.97 7.901a.633.633 0 0 0 0 .943l1.913 1.721c.667.601 1.05 1.46 1.05 2.359v1.16H9.14l-2.76-3.68a.328.328 0 0 0-.508 0l-2.76 3.68H2.32v-1.16c0-.898.383-1.758 1.05-2.359l1.912-1.72a.633.633 0 0 0 0-.944L3.37 6.181a3.178 3.178 0 0 1-1.05-2.36V2.663h7.614v1.16c0 .898-.383 1.758-1.05 2.358z"/>
        <path d="M8.313 5.2H3.939a.317.317 0 0 0-.235.53L5.913 7.77a.316.316 0 0 0 .426 0L8.547 5.73a.317.317 0 0 0-.234-.53z"/>
    </g>
</svg>
