<?xml version="1.0" encoding="UTF-8"?>
<svg width="16px" height="21px" viewBox="0 0 16 21" version="1.1" xmlns="http://www.w3.org/2000/svg" xmlns:xlink="http://www.w3.org/1999/xlink">
    <!-- Generator: sketchtool 45 (43475) - http://www.bohemiancoding.com/sketch -->
    <title>2FFC8999-7DAE-4B35-B49A-040EB77A29E8</title>
    <desc>Created with sketchtool.</desc>
    <defs></defs>
    <g id="Page-1" stroke="none" stroke-width="1" fill="none" fill-rule="evenodd">
        <g id="мои_туры_1920" transform="translate(-431.000000, -235.000000)" fill-rule="nonzero" fill="#FFFFFF">
            <g id="Group-5-Copy-14" transform="translate(418.000000, 226.000000)">
                <g id="hourglass" transform="translate(13.121056, 9.840792)">
                    <path d="M14.1158372,4.06151768 L14.1158372,2.34503279 C14.600743,2.06232707 14.9309421,1.54238391 14.9309421,0.94151486 L14.9309421,0.533981519 C14.9309421,0.308703384 14.7486487,0.126409968 14.5233705,0.126409968 L0.666396317,0.126409968 C0.441118182,0.126409968 0.258824766,0.308703384 0.258824766,0.533981519 L0.258824766,0.941553069 C0.258824766,1.54238391 0.589023823,2.06232707 1.07392966,2.345071 L1.07392966,4.06151768 C1.07392966,5.67663505 1.76248754,7.22248016 2.96288834,8.30267659 L4.74635298,9.90782151 L2.96288834,11.5129664 C1.76248754,12.5931629 1.07392966,14.139008 1.07392966,15.7541253 L1.07392966,17.470572 C0.589023823,17.7533159 0.258824766,18.2732591 0.258824766,18.8741282 L0.258824766,19.2816997 C0.258824766,19.5069396 0.441118182,19.689233 0.666396317,19.689233 L14.5234087,19.689233 C14.7486869,19.689233 14.9309803,19.5069396 14.9309803,19.2816615 L14.9309803,18.8740899 C14.9309803,18.2732591 14.6007812,17.7533159 14.1158754,17.470572 L14.1158754,15.7541253 C14.1158754,14.139008 13.4273175,12.5931629 12.2269167,11.5129664 L10.4434139,9.90782151 L12.2268785,8.30267659 C13.4272793,7.22248016 14.1158372,5.67659684 14.1158372,4.06151768 Z M11.1363657,7.09111886 L8.67985593,9.30206175 C8.50791705,9.45650107 8.40998831,9.67658282 8.40998831,9.90782151 C8.40998831,10.1390602 8.50791705,10.3591802 8.67985593,10.5135813 L11.1363657,12.7245242 C11.993653,13.4962622 12.4855892,14.6007212 12.4855892,15.7541253 L12.4855892,17.2438802 L11.4664884,17.2438802 L7.92084132,12.5163635 C7.76720438,12.3109921 7.42252425,12.3109921 7.26888731,12.5163635 L3.72327847,17.2438802 L2.70417765,17.2438802 L2.70417765,15.7541253 C2.70417765,14.6006829 3.19611388,13.496224 4.05343931,12.7244859 L6.50994912,10.5135431 C6.681888,10.3591037 6.77981674,10.139022 6.77981674,9.9077833 C6.77981674,9.67654462 6.681888,9.45642465 6.50994912,9.30202354 L4.05343931,7.09108065 C3.19611388,6.31938077 2.70417765,5.21492186 2.70417765,4.06151768 L2.70417765,2.57176285 L12.4855892,2.57176285 L12.4855892,4.06151768 C12.4855892,5.21492186 11.993653,6.31938077 11.1363657,7.09111886 Z" id="Shape"></path>
                    <path d="M10.4040208,5.83222063 L4.785364,5.83222063 C4.62416175,5.83222063 4.47809013,5.92736014 4.41282977,6.07461623 C4.34756942,6.22229262 4.37500322,6.3942315 4.48366859,6.51363349 L7.3214624,9.13172764 C7.39906415,9.20218437 7.49699289,9.23718348 7.59488342,9.23718348 C7.69277395,9.23718348 7.79070269,9.20214616 7.86830444,9.13172764 L10.705678,6.51363349 C10.8143433,6.3942315 10.8418153,6.22229262 10.7765168,6.07461623 C10.7112946,5.92736014 10.565223,5.83222063 10.4040208,5.83222063 Z" id="Shape"></path>
                </g>
            </g>
        </g>
    </g>
</svg>