<?xml version="1.0" encoding="UTF-8"?>
<svg width="12px" height="16px" viewBox="0 0 12 16" version="1.1" xmlns="http://www.w3.org/2000/svg" xmlns:xlink="http://www.w3.org/1999/xlink">
    <!-- Generator: sketchtool 45 (43475) - http://www.bohemiancoding.com/sketch -->
    <title>9E9A2F10-BD0B-46D8-B195-86A3220F9BC0</title>
    <desc>Created with sketchtool.</desc>
    <defs></defs>
    <g id="Page-1" stroke="none" stroke-width="1" fill="none" fill-rule="evenodd">
        <g id="тур_инфо_1024-" transform="translate(-50.000000, -706.000000)" fill-rule="nonzero" fill="#FFFFFF">
            <g id="Group-5-Copy-15" transform="translate(40.000000, 699.000000)">
                <g id="hourglass" transform="translate(10.213776, 7.660332)">
                    <path d="M10.9881403,3.16159257 L10.9881403,1.82543542 C11.3656038,1.60536983 11.6226394,1.20063235 11.6226394,0.73290002 L11.6226394,0.415665309 C11.6226394,0.240302863 11.4807374,0.098400856 11.305375,0.098400856 L0.518740483,0.098400856 C0.343378037,0.098400856 0.20147603,0.240302863 0.20147603,0.415665309 L0.20147603,0.732929762 C0.20147603,1.20063235 0.458511692,1.60536983 0.835975194,1.82546517 L0.835975194,3.16159257 C0.835975194,4.41884257 1.37196682,5.6221692 2.3063905,6.46302262 L3.69468644,7.71250979 L2.3063905,8.96199696 C1.37196682,9.80285038 0.835975194,11.006177 0.835975194,12.263427 L0.835975194,13.5995544 C0.458511692,13.8196497 0.20147603,14.2243872 0.20147603,14.6921196 L0.20147603,15.009384 C0.20147603,15.1847167 0.343378037,15.3266187 0.518740483,15.3266187 L11.3054047,15.3266187 C11.4807672,15.3266187 11.6226692,15.1847167 11.6226692,15.0093543 L11.6226692,14.6920898 C11.6226692,14.2243872 11.3656335,13.8196497 10.98817,13.5995544 L10.98817,12.263427 C10.98817,11.006177 10.4521784,9.80285038 9.51775471,8.96199696 L8.12942902,7.71250979 L9.51772496,6.46302262 C10.4521486,5.6221692 10.9881403,4.41881282 10.9881403,3.16159257 Z M8.66884105,5.5199141 L6.75662897,7.2409704 C6.62278721,7.36119004 6.54655689,7.5325075 6.54655689,7.71250979 C6.54655689,7.89251208 6.62278721,8.06385928 6.75662897,8.18404918 L8.66884105,9.90510548 C9.33617605,10.5058468 9.7191122,11.3655867 9.7191122,12.263427 L9.7191122,13.4230915 L8.92581722,13.4230915 L6.16579196,9.74306772 C6.04619692,9.58320118 5.7778888,9.58320118 5.65829376,9.74306772 L2.89829824,13.4230915 L2.10500326,13.4230915 L2.10500326,12.263427 C2.10500326,11.365557 2.48793941,10.505817 3.15530416,9.90507574 L5.06751623,8.18401943 C5.20135799,8.06379979 5.27758831,7.89248234 5.27758831,7.71248005 C5.27758831,7.53247775 5.20135799,7.36113056 5.06751623,7.24094066 L3.15530416,5.51988436 C2.48793941,4.9191728 2.10500326,4.05943283 2.10500326,3.16159257 L2.10500326,2.00192809 L9.7191122,2.00192809 L9.7191122,3.16159257 C9.7191122,4.05943283 9.33617605,4.9191728 8.66884105,5.5199141 Z" id="Shape"></path>
                    <path d="M8.09876438,4.53995449 L3.72505365,4.53995449 C3.59956957,4.53995449 3.48586356,4.61401359 3.43506318,4.72864162 C3.38426279,4.84359682 3.40561799,4.97743858 3.49020598,5.07038425 L5.69921959,7.10837783 C5.75962684,7.16322321 5.83585716,7.19046745 5.91205773,7.19046745 C5.9882583,7.19046745 6.06448862,7.16319347 6.12489587,7.10837783 L8.33358231,5.07038425 C8.4181703,4.97743858 8.43955524,4.84359682 8.38872512,4.72864162 C8.33795448,4.61401359 8.22424847,4.53995449 8.09876438,4.53995449 Z" id="Shape"></path>
                </g>
            </g>
        </g>
    </g>
</svg>