<?xml version="1.0" encoding="UTF-8"?>
<svg width="235px" height="254px" viewBox="0 0 235 254" version="1.1" xmlns="http://www.w3.org/2000/svg" xmlns:xlink="http://www.w3.org/1999/xlink">
    <!-- Generator: sketchtool 45 (43475) - http://www.bohemiancoding.com/sketch -->
    <title>BB9595E6-39EA-40CE-B12D-2C1540F052EC</title>
    <desc>Created with sketchtool.</desc>
    <defs></defs>
    <g id="Page-1" stroke="none" stroke-width="1" fill="none" fill-rule="evenodd">
        <g id="главная-copy" transform="translate(-399.000000, -356.000000)" fill="#FEFEFE">
            <g id="Group-8" transform="translate(399.000000, 222.000000)">
                <g id="Page-1-Copy-4" transform="translate(0.000000, 134.000000)">
                    <path d="M28.8820633,66.0866857 L28.8983166,66.0326826 L28.8956951,66.0442173 L28.8820633,66.0866857 Z M9.48656188,8.81823421 L9.48656188,8.81770991 C9.49704792,8.82452583 9.48446467,8.82138002 9.48656188,8.81823421 L9.48656188,8.81823421 Z M7.41294774,11.9294419 C7.41504495,11.9357335 7.38463543,11.9420251 7.34426418,11.9477924 C7.3746737,11.9357335 7.38620834,11.933112 7.39302426,11.9315391 C7.40508321,11.9294419 7.41294774,11.9294419 7.41294774,11.9294419 L7.41294774,11.9294419 Z M0.946207698,13.0708472 L0.939916075,13.0708472 C0.909506563,13.1033539 0.940964679,13.0677014 0.938343169,13.0697986 L0.970325587,13.028903 C0.972947097,13.0257572 0.973995701,13.0241843 0.97661721,13.0210385 C0.973995701,13.0519723 0.950926416,13.0718958 0.946207698,13.0708472 L0.946207698,13.0708472 Z M94.6950634,29.2560479 L94.685626,29.2660096 C94.6819559,29.2686311 94.6840531,29.2644367 94.6861503,29.2602423 C94.6919176,29.2497562 94.7050251,29.2324543 94.7202299,29.2141037 C94.7223271,29.2120065 94.7265215,29.2083364 94.7286187,29.2057149 C94.6992578,29.2544749 94.7045008,29.2413674 94.6950634,29.2560479 L94.6950634,29.2560479 Z M33.8849523,74.5274225 C32.4216256,72.4123886 30.9451914,70.2700909 29.8079805,68.1492895 C29.5353435,67.6234147 29.2831543,67.095967 29.1085617,66.6314354 C29.0215276,66.4012669 28.95966,66.1847302 28.9329206,66.0415958 L28.9219102,65.9634748 C29.0519371,65.5623838 29.2831543,65.0034779 29.5169929,64.4812732 C29.7691822,63.9213187 30.0465379,63.3508782 30.3322824,62.780962 C31.4642503,60.4871411 32.705273,58.1849313 33.9038272,55.8622737 C36.0686699,51.7066566 38.2109676,47.5106682 40.1403987,43.1631566 C41.9875144,44.6222889 43.9054109,45.9807552 45.8704945,47.2102432 C48.4888584,48.8591728 51.1811488,50.2894685 53.8545643,51.5194808 C56.5405631,52.7159378 59.1604999,53.8416141 61.7458327,54.6049977 C64.3248739,55.3830618 66.789093,56.0027867 69.0703307,56.5176512 C71.3437039,57.0519148 73.4870502,57.4089644 75.3750615,57.6213067 C77.2672672,57.838892 78.9230127,57.9358879 80.2856734,57.9678703 C82.0190156,58.0092902 83.2747187,57.9704918 83.9615542,57.9374608 C84.2803298,58.7275838 84.6295149,59.4977833 85.0059637,60.2380977 C86.1741084,62.6241958 87.5283803,64.9201139 89.0682551,67.0975399 C90.6254318,69.2592367 92.3823676,71.3024414 94.4334367,73.0273947 C96.4755928,74.7439592 98.83233,76.1616717 101.395118,76.8160005 L101.412944,76.7677647 C101.459607,76.7918826 102.277518,77.2118484 103.767584,77.7361504 C105.299594,78.2751328 107.553044,78.9126839 110.341282,79.2157304 C113.120082,79.5234957 116.454118,79.4590065 119.889344,78.5876167 C121.602763,78.1498246 123.327192,77.5044089 124.992899,76.6712932 C126.660704,75.8413232 128.256154,74.804254 129.743075,73.6340121 C131.226325,72.4585271 132.598947,71.1467237 133.835251,69.7578479 C135.073652,68.3322709 136.171016,67.0026412 137.376387,65.8103786 C137.969896,65.218966 138.579135,64.668449 139.173169,64.2133549 C139.775592,63.7598338 140.345508,63.438961 140.789592,63.4017355 C141.021334,63.366083 141.342206,63.4075029 141.820894,63.4106487 C142.294863,63.4169403 142.848002,63.3283333 143.298901,63.1568865 C143.750849,62.9943529 144.149843,62.7536983 144.475959,62.5292971 C144.867613,62.2577087 145.176951,61.9787801 145.468463,61.6343137 C146.04467,60.9632072 146.385467,60.0692724 146.350863,59.20365 C146.334085,58.7721495 146.231846,58.3527079 146.053059,57.9820265 C145.866932,57.6144908 145.6095,57.298861 145.315366,57.0576821 C144.722381,56.5664112 144.00933,56.4002075 143.422112,56.4248497 C142.881033,56.4589293 142.504584,56.4914361 142.107163,56.4909118 C141.332769,56.4924847 140.721957,56.4038776 140.314575,56.3053089 C140.109573,56.2596946 139.954903,56.2109345 139.853713,56.1742334 C139.756717,56.135435 139.706384,56.1155116 139.706384,56.1155116 L139.583173,56.2853854 C139.583173,56.2853854 139.631933,56.3309997 139.725259,56.4033533 C139.818585,56.4762313 139.961195,56.5779459 140.158333,56.692768 C140.551559,56.9208393 141.170235,57.1934763 142.002303,57.3827493 C142.406539,57.4902312 142.926123,57.5363698 143.358147,57.6003346 C143.736169,57.6705911 144.09217,57.8394163 144.327057,58.123588 C144.562993,58.4051381 144.680437,58.7863056 144.640066,59.186348 C144.600219,59.5890119 144.377915,59.9906272 144.028729,60.3455796 C143.858331,60.5170263 143.618725,60.693716 143.406383,60.8132569 C143.126406,60.9768391 142.871595,61.0816995 142.617309,61.162442 C142.363547,61.2395144 142.15435,61.2641566 141.857071,61.2494761 C141.566083,61.2384658 141.103125,61.1771224 140.544219,61.2353199 C139.986886,61.2898473 139.451049,61.4964223 139.017976,61.7417956 C138.576514,61.9861203 138.193773,62.2687191 137.84721,62.5691441 C137.145694,63.1631782 136.553233,63.8258958 135.966014,64.4990995 C135.386136,65.1801677 134.819366,65.8680518 134.265703,66.5915885 C133.99359,66.9481138 133.719905,67.3067363 133.444646,67.6674561 C133.169388,68.0108738 132.901994,68.3647776 132.612055,68.7008552 C131.476941,70.0677103 130.212325,71.3616875 128.838654,72.5282593 C127.462361,73.6895881 125.979111,74.7277059 124.418264,75.5723563 C122.860039,76.4196282 121.235752,77.0923076 119.608318,77.5673252 C116.355025,78.5414781 113.126374,78.7543447 110.397382,78.5708391 C107.659477,78.3931007 105.411271,77.8619828 103.87192,77.4131804 C102.329948,76.957562 101.494735,76.573773 101.494735,76.573773 L101.449121,76.6681473 L101.503648,76.5208185 C99.1804664,75.3925207 97.2038482,73.7619417 95.4998669,71.9090587 C93.7995557,70.0472625 92.346715,67.9725998 91.0747586,65.792028 C89.7875973,63.6203694 88.6939035,61.32917 87.6951083,59.0049395 C86.7005075,56.7011568 85.9984672,54.3790236 85.7766875,52.0249079 C85.5501891,49.6823269 85.8516627,47.3607179 86.7518891,45.2682289 C86.8640897,45.0066022 86.9867764,44.7496943 87.1178519,44.4948835 L87.3176109,44.113716 L87.5561683,43.6853613 C87.9216067,43.0142549 88.1963409,42.3656934 88.4480059,41.7134618 C88.941374,40.4110958 89.3267359,39.110827 89.6245394,37.768614 C89.771344,37.0969833 89.8977007,36.4180123 89.9831619,35.703913 C90.0256304,35.3463391 90.0591857,34.981425 90.0670502,34.585577 C90.0691475,34.3753319 90.0712447,34.2023123 90.0497483,33.9301996 L90.0303491,33.727819 L90.0119985,33.6072296 L89.9842105,33.4415502 L89.9637628,33.3314468 C89.7535177,32.1633021 89.6502302,30.9500674 89.7723926,29.904085 C89.8332116,29.3871233 89.9721516,28.9215432 90.1530358,28.6399931 C90.2442643,28.4989559 90.332347,28.4014357 90.4356345,28.3222661 C90.4749571,28.2871379 90.5761474,28.2389021 90.5850606,28.2284161 L90.6956883,28.1896177 C90.6637058,28.1985309 90.7329137,28.1786074 90.7454969,28.174413 C90.7989757,28.1565867 90.8508816,28.1419062 90.9017389,28.1314202 C91.3164618,28.0344243 91.6441505,28.0569693 91.9613531,28.2132113 C92.1207409,28.2918566 92.2832745,28.4061544 92.4327006,28.5602992 C92.5076757,28.6373716 92.5795051,28.7217842 92.6445185,28.8124884 C92.7048133,28.8895608 92.7818857,29.0269279 92.7986633,29.0473757 L93.9904016,30.4755741 L94.729143,29.2051906 C94.7600768,29.169538 94.7988752,29.1291668 94.8444895,29.0866983 C94.9420096,28.9954698 95.0605019,28.9005711 95.1863343,28.8077697 C95.4390478,28.6216425 95.7247924,28.4439042 96.0215473,28.2761275 C96.6161057,27.9395257 97.2588999,27.6380521 97.9148016,27.3596478 C99.2302751,26.8054606 100.606568,26.3335889 102.002784,25.9283035 C103.393757,25.5130564 104.825625,25.1670171 106.240716,24.8686893 C107.664196,24.588712 109.105502,24.4020606 110.552051,24.3019189 C113.445673,24.121559 116.363414,24.388953 119.157419,25.090469 C121.957191,25.7794017 124.621169,26.8872517 127.167704,28.1786074 C129.712141,29.4757304 132.158534,30.9747096 134.539913,32.5549556 L134.997629,32.8585264 C135.140239,32.9544737 135.276557,33.0451779 135.412876,33.1437467 C135.684464,33.3372141 135.949761,33.5401189 136.206145,33.7519369 C136.719436,34.1760972 137.198124,34.6380072 137.638538,35.1345211 C138.512025,36.1322677 139.259155,37.2485065 139.829595,38.4743244 C140.398463,39.6996181 140.800602,41.019286 141.085298,42.3803738 C141.359508,43.7446075 141.486914,45.1534068 141.531479,46.5768865 C141.582337,49.4233217 141.28296,52.334246 140.656944,55.1916916 L140.953174,55.2996978 C141.594396,53.9480474 142.081472,52.535578 142.468931,51.0869317 C142.851672,49.6377612 143.132173,48.1524138 143.266919,46.6398027 C143.417918,45.127716 143.413199,43.5883655 143.241752,42.0484907 C143.079743,40.507043 142.716402,38.9655953 142.126038,37.4902097 C141.54249,36.0153484 140.736638,34.5971116 139.691704,33.3691965 C139.173694,32.7515688 138.607972,32.1748367 138.002927,31.6463404 C137.700405,31.3820922 137.388445,31.1293787 137.068621,30.8881998 C136.910282,30.767086 136.744603,30.6491181 136.585215,30.5363932 L136.133267,30.2186662 C133.64493,28.5120634 130.983049,27.0639415 128.166499,25.9539943 C122.52501,23.7183708 116.411125,22.9597059 110.491756,23.3576511 C107.515294,23.5201847 104.586544,24.0843336 101.687678,24.6746976 C100.235886,24.9866572 98.781997,25.3195889 97.3354479,25.7662942 C96.6119113,25.9912197 95.8894232,26.2402631 95.1679838,26.5558929 C94.819323,26.7089891 94.4706622,26.8778143 94.1193799,27.0807191 C93.8603747,26.7530304 93.5436964,26.448411 93.1651504,26.2009405 C92.3697843,25.674017 91.3269478,25.5266882 90.4718113,25.6656282 C90.3617079,25.6797844 90.2557989,25.6991835 90.1514629,25.7227771 C90.0859251,25.7374576 90.0764877,25.7358847 89.9653357,25.7647213 L89.8436976,25.7967037 C89.5448455,25.8879322 89.3492809,25.9749664 89.1101992,26.1065661 C88.6561537,26.3603283 88.2702675,26.7241938 87.9887174,27.1132259 C87.4224713,27.8996788 87.1938757,28.7160169 87.0496926,29.4725846 C86.7849201,30.996206 86.8808674,32.4029081 87.0601787,33.7912596 L87.0785292,33.9212865 L87.088491,33.9862999 C87.0853452,33.9684736 87.0974041,34.0497404 87.0821993,33.9506474 L87.0842965,33.9653278 L87.0874424,33.9957373 L87.1005499,34.1163268 L87.0979284,34.1561737 C87.0984527,34.2080796 87.0953069,34.3590786 87.088491,34.4728521 C87.0717133,34.7250413 87.0350122,35.0055428 86.9888736,35.2897145 C86.8955479,35.860155 86.760278,36.4526162 86.6050846,37.0414073 C86.2889305,38.2184651 85.9035686,39.400766 85.4374642,40.507043 C85.2051984,41.0575601 84.9498634,41.5949695 84.678275,42.0537337 L84.4292316,42.4668837 L84.1618376,42.9382311 C83.9898665,43.2570067 83.8304788,43.5836468 83.6821013,43.9155299 C82.467818,46.5732164 82.1317405,49.5785151 82.4824985,52.3819575 C82.7137156,54.3029998 83.2458821,56.1516884 83.9426794,57.8907979 C83.2521737,57.8708744 82.0064323,57.8126769 80.3066455,57.6412302 C78.9581409,57.500193 77.3254647,57.293618 75.4741545,56.9533461 C73.6165528,56.6193657 71.5707267,56.1191817 69.3403462,55.4648529 C67.1099658,54.822583 64.7154789,54.0686368 62.230812,53.1579244 C60.9924109,52.6965387 59.7199301,52.223094 58.4196613,51.7391633 C57.1214897,51.2494653 55.8227938,50.6832192 54.5109904,50.0902338 C51.8947237,48.8864365 49.2637766,47.4881233 46.7078047,45.8785163 C44.676659,44.6081327 42.7031865,43.1930418 40.8046892,41.6751877 C40.8104566,41.6610316 40.8172725,41.6473997 40.8230398,41.6337679 C40.8130781,41.6442539 40.8036406,41.6557886 40.7936789,41.6662746 C40.302408,41.2735725 39.81271,40.8777245 39.3324494,40.4708662 C37.0050731,38.4743244 34.8229285,36.3105304 32.8379214,34.0361086 C32.3403588,33.4688139 31.8684871,32.8831686 31.385605,32.3116795 C30.9252679,31.7223641 30.467028,31.1356703 30.0114096,30.5521222 C29.1059402,29.3551409 28.2298317,28.1786074 27.3804625,27.0031224 C25.6895888,24.6568713 24.1130129,22.3473213 22.8971567,20.0461601 C21.6828734,17.7570579 20.8602437,15.4254872 20.9530452,13.2894811 C20.9955136,12.2261968 21.2387897,11.2268773 21.623103,10.3224565 C21.7080399,10.0928122 21.8286294,9.87732411 21.9261495,9.65869021 C22.0456904,9.43586189 22.1641826,9.21617938 22.2805776,8.99964268 C22.5773325,8.44860135 22.7597896,7.74865827 22.6019747,7.05028809 C22.4556945,6.36554977 21.9623264,5.68920027 21.1716791,5.47738229 C20.7857928,5.370949 20.3375147,5.42023338 19.9961941,5.59535023 C19.6459604,5.76469975 19.4047815,6.0216077 19.2333348,6.266981 C18.9449688,6.69848149 18.7882025,7.03875345 18.6062697,7.36696646 C18.4322015,7.68993645 18.2675707,7.98511844 18.1013669,8.24255069 C17.7789213,8.75584228 17.4108613,9.12390224 17.2042863,9.18681847 C17.104669,9.21984949 17.0475201,9.22928692 16.970972,9.18576986 C16.9274549,9.20621764 16.8519554,9.23872436 16.7796018,9.25497772 C16.703578,9.25707493 16.6228355,9.27280398 16.5426173,9.25864783 C16.2117828,9.23138413 15.9438645,9.09349272 15.7462027,9.02847928 C15.6586442,8.99177815 15.5931065,8.96451445 15.5443464,8.94354237 C15.6072626,8.57338521 15.7147445,7.8388382 15.7839524,6.7802726 C15.8358583,5.99644121 15.8798997,5.0453575 15.8196049,3.92649718 C15.8033516,3.64599564 15.7818552,3.35448377 15.7425325,3.04724283 C15.6974426,2.7410505 15.6665088,2.4128375 15.5202285,2.06522531 C15.4494478,1.88958417 15.3535005,1.7087 15.1993557,1.49793062 C15.1175646,1.39202163 15.0189959,1.27667521 14.8590838,1.16028018 C14.6986474,1.04545805 14.465333,0.932733139 14.1643837,0.937451856 C13.6542379,0.954229518 13.3333652,1.25465453 13.1640156,1.47119122 C12.9868016,1.69978687 12.8940001,1.90845904 12.8158792,2.10507226 C12.5317075,2.88523354 12.4598781,3.59146824 12.3759898,4.33230687 C12.3288027,4.80417861 12.2973445,5.28234197 12.2685079,5.76260254 C12.2506817,5.72118269 12.2333797,5.67923854 12.2155534,5.63834299 C11.8878647,4.87286216 11.5454956,4.08955508 11.1533177,3.30310218 C10.7506538,2.51769788 10.3416983,1.72495336 9.68632092,0.948986498 C9.51592279,0.756043387 9.3282227,0.562575974 9.07917928,0.381691807 C8.95177391,0.290463271 8.81650401,0.207623565 8.63614415,0.130026879 L8.47308625,0.070256459 L8.39234375,0.0477114759 C8.23505317,0.0104860387 8.15273777,-0.00209720773 7.99177707,0.000524301933 C7.7013138,-0.00996173672 7.29130969,0.188748696 7.12143586,0.436219208 C6.93793019,0.674776588 6.88182988,0.879778643 6.83883712,1.05122538 C6.76805636,1.38887582 6.76962927,1.65679411 6.7785424,1.91317775 C6.83621561,2.91878886 7.04750929,3.78545996 7.25460855,4.66786011 C7.46118352,5.51093762 7.69135206,6.33723746 7.9168019,7.15357557 C7.32329211,6.52021884 6.70933454,5.90101825 6.02459622,5.34106379 C5.33042046,4.79578978 4.59325194,4.24422415 3.54726959,4.02768745 C3.03135649,3.92282706 2.38856232,3.98417039 1.88051374,4.27830377 C1.75887569,4.34174431 1.58742896,4.46652817 1.53971749,4.50689941 L1.51088088,4.5289201 C1.45373197,4.57505867 1.43957582,4.59236063 1.40339898,4.62748886 C1.34100705,4.68935649 1.28910116,4.75961295 1.2445355,4.83668533 C1.15435557,4.98925719 1.11608152,5.14235336 1.09877956,5.27552605 C1.06679714,5.78462323 1.20468855,6.00797585 1.29381988,6.24391172 C1.71168852,7.09275655 2.1945706,7.6490409 2.66277223,8.23206465 C3.13411966,8.79778643 3.6049428,9.31736965 4.06108548,9.80916486 C4.78776796,10.7041483 5.6392343,11.3595257 6.36644108,11.9761048 C6.08646385,11.9729589 5.81435114,11.9666673 5.56583203,11.9582785 C4.6624598,11.9205287 3.99292623,11.8922164 3.58449502,11.8754388 C3.4701972,11.82196 3.33650021,11.7695298 3.17816103,11.7291585 C2.85152092,11.6389786 2.42369055,11.5907428 1.94080846,11.6683395 C1.45111046,11.7517035 0.938867471,11.8922164 0.384156026,12.3252898 L0.294500396,12.4028865 L0.255702053,12.4380148 C0.2415459,12.4526952 0.259896468,12.4291016 0.219000917,12.4757645 L0.185445594,12.5198059 C0.0926441515,12.6309579 0.0260578061,12.7856269 0.00246421908,12.9586466 C-0.0211293679,13.318842 0.134588306,13.5416703 0.258847864,13.7230788 C0.527814756,14.053389 0.827715461,14.2484293 1.12761617,14.426692 C1.7331849,14.7811201 2.38069779,15.0364551 3.0612417,15.2535161 C3.73392108,15.484209 4.49206167,15.6215761 5.11073795,15.8118977 C5.42479481,15.9036505 5.74357038,15.9812472 6.04976271,16.1259545 C6.35752795,16.2601758 6.67630352,16.362939 6.97043691,16.541726 C7.58177296,16.8400538 8.1616509,17.2144054 8.72737268,17.5960972 C9.00472841,17.799002 9.27946262,18.000334 9.55105102,18.1990444 C9.81477489,18.4124353 10.0758773,18.6232047 10.3322609,18.8308282 C10.8277262,19.2696689 11.3195214,19.686489 11.7594108,20.1164166 C11.9880064,20.3214186 12.1867168,20.5447712 12.3974862,20.7455789 C12.6087799,20.9453379 12.8059174,21.1461456 12.990996,21.3427588 C13.364299,21.7375581 13.7061438,22.0993265 14.0091904,22.4201993 C14.3075182,22.7499852 14.5670476,23.0373026 14.7809628,23.2737628 C15.2072203,23.7561206 15.4510207,24.0324277 15.4510207,24.0324277 C15.4510207,24.0324277 15.3241396,23.6832426 15.039968,23.1007432 C14.7578935,22.5177194 14.3169556,21.700857 13.6909391,20.7780856 C13.3847468,20.3119812 13.0282214,19.8217589 12.6213631,19.3252449 C12.2202722,18.8240123 11.7688482,18.3143908 11.2754801,17.8084395 C11.0169992,17.566212 10.754324,17.3197901 10.4879786,17.069698 C10.2132444,16.8285191 9.91858668,16.5993992 9.62550189,16.3650362 C9.02255467,15.9136123 8.37766329,15.4905006 7.68086603,15.138694 C7.34636139,14.9426051 6.96676679,14.8188698 6.60657137,14.6694438 C6.25109465,14.5058616 5.85996541,14.4272163 5.48089512,14.3317933 C5.08976587,14.2264086 4.75945566,14.1682111 4.40712476,14.1100136 C4.07366873,14.0455245 3.75384455,13.9810353 3.43087456,13.9086817 C2.79542062,13.758207 2.17831724,13.6030136 1.66712286,13.3838554 C1.4091663,13.2816166 1.18581368,13.1411036 1.0557868,13.035719 C1.03062031,13.0147469 1.01436695,12.9969206 1.00283231,12.9890561 C1.01069684,12.9796186 1.02118287,12.9654625 1.02642589,12.9607438 C1.29277128,12.6666104 1.72689328,12.3908276 2.09233172,12.250839 C2.47140202,12.1056073 2.83317035,12.039021 3.13674117,12.039021 C3.43978769,12.0384967 3.6862096,12.0799165 3.8503161,12.1229093 C4.01599552,12.1700965 4.10460254,12.195263 4.10460254,12.195263 C4.10460254,12.195263 4.0658042,12.167475 4.00917959,12.1271037 C4.38667698,12.2419258 4.87532638,12.3918762 5.47827361,12.5475939 C5.8573439,12.6461626 6.27468824,12.7546931 6.74760859,12.8537862 C6.86610082,12.8784284 6.98826317,12.9025463 7.11986296,12.922994 C7.26404599,12.9371502 7.36156615,12.9686083 7.61532828,12.9429175 C7.63000874,12.9408203 7.65360233,12.9366259 7.68034172,12.9292857 C7.70288671,12.9240426 7.72962611,12.9172267 7.77576468,12.8967789 C7.79830966,12.8868172 7.81141721,12.8815742 7.83972951,12.8653208 C7.87538204,12.8433001 7.90998597,12.8176094 7.94091978,12.7887727 C7.96241616,12.7730437 8.0274296,12.6975442 8.05783912,12.6320065 C8.09191874,12.5648958 8.11184221,12.4904449 8.11498803,12.4049837 C8.1359601,12.3719527 8.06989806,12.1512216 8.0798598,12.1910685 L8.07618968,12.1800582 C8.06937376,12.1611833 8.04525587,12.1087531 8.0258567,12.0767707 L7.96294047,11.9792506 L7.82557336,11.7910262 C7.74168505,11.6840686 7.65622383,11.5755381 7.56971402,11.4649104 C6.86714943,10.6281245 6.16877925,9.63142651 5.21297683,8.73749171 C4.76889309,8.25985265 4.31379901,7.7570471 3.87181248,7.22645354 C3.44922513,6.71473485 2.99203384,6.13275971 2.74141752,5.62104102 C2.88874636,5.5617949 3.04918275,5.53610411 3.26676805,5.57542675 C3.79683731,5.67084971 4.4448745,6.08032952 5.03104406,6.56059009 C5.62665105,7.04714228 6.20128597,7.6223015 6.77015357,8.22996744 C7.05589812,8.54140279 7.34321558,8.85493534 7.63158164,9.1695165 L8.09034584,9.66026311 C8.17213694,9.74415142 8.25707385,9.82961264 8.35773982,9.92136548 C8.4070242,9.96697974 8.46364881,10.0157398 8.53390527,10.0697429 C8.6246095,10.1263675 8.65816483,10.1866623 8.93447195,10.2815609 C8.97956191,10.2941441 9.02570048,10.3035816 9.07183905,10.3098732 C9.09176253,10.3214079 9.50124234,10.2920469 9.33294142,10.3020087 C9.34867047,10.3004358 9.40739229,10.2894254 9.55262393,10.2270335 C9.69628266,10.1683117 9.85986486,9.9821845 9.87926403,9.93761884 C10.018204,9.70115866 10.0098152,9.59472537 10.0260686,9.50821555 C10.0391761,9.35302218 10.0286901,9.27385259 10.0229228,9.19153718 C10.0071937,9.03529521 9.98412442,8.91365716 9.96105513,8.79097051 C9.91334366,8.55241313 9.85986486,8.33115771 9.80428885,8.11199951 C9.68946673,7.68416913 9.573596,7.25529015 9.45824958,6.82536256 C9.22336231,5.97756634 8.98795074,5.13448883 8.78294869,4.29508143 C8.58318965,3.46301427 8.38972224,2.60158619 8.35039959,1.84921292 C8.34987529,1.84082409 8.34987529,1.83243526 8.34987529,1.82352212 C8.39968398,1.8728065 8.45054126,1.9252367 8.50087425,1.98290991 C8.97274599,2.53395124 9.37907999,3.27793568 9.74609134,4.00619107 C10.113627,4.74335959 10.4465587,5.50150018 10.7690044,6.25649496 C11.1040333,7.02145148 11.3745731,7.74393955 11.7924418,8.55241313 C11.8574552,8.66356514 11.900448,8.760561 12.0582629,8.94721248 C12.0739919,8.96608735 12.1064986,9.00016698 12.1442484,9.0337223 L12.1987758,9.08038518 C12.2281367,9.10293016 12.2674593,9.12966956 12.3036362,9.15064163 C12.3513476,9.17633243 12.357115,9.18472126 12.4415276,9.21670368 C12.5175514,9.24449168 12.6009154,9.26231795 12.6811336,9.26860957 C12.8614934,9.29430036 13.1561511,9.18839137 13.2479039,9.09401703 C13.3197333,9.03424661 13.3622018,8.99911838 13.4319339,8.89897671 L13.44242,8.88377195 C13.4371769,8.89373369 13.4932773,8.80355375 13.5126764,8.75951239 C13.5457074,8.69187744 13.5451831,8.68506152 13.5582907,8.6525548 L13.5839815,8.57810392 C13.6778315,8.24412359 13.6835989,8.06219082 13.7108626,7.84145971 C13.7507095,7.42516397 13.770633,7.03927775 13.7921294,6.65811025 C13.8340735,5.89892105 13.8728719,5.17381147 13.9410311,4.48907315 C13.9945099,3.96477122 14.0663393,3.44204219 14.1780156,3.01526042 C14.32115,3.36759131 14.4590414,3.76029346 14.5565616,4.12992633 C14.8302472,5.13606173 15.0069369,6.05883314 15.1474499,6.81487652 C15.2785253,7.57406572 15.3755212,8.17648864 15.4274271,8.58806566 C15.4442047,8.71704394 15.4562637,8.82033142 15.4657011,8.91103565 C15.4578366,8.90788984 15.4510207,8.90474403 15.4510207,8.90474403 C15.4510207,8.90474403 15.4615067,8.95822282 15.4798573,9.05417008 C15.489819,9.16427348 15.4929648,9.222471 15.4929648,9.222471 C15.4929648,9.222471 15.4966349,9.20412043 15.5029266,9.17266232 C15.5065967,9.19101288 15.5092182,9.20516904 15.5128883,9.22509251 C15.5611241,9.44267781 15.6554984,9.7383841 15.9155522,10.1384265 C16.052395,10.3287481 16.2338035,10.5762186 16.5745997,10.741898 C16.9279792,10.8126788 17.3820247,10.8137274 17.7752511,10.6527667 C18.5669471,10.3229808 19.0120794,9.70640168 19.4241807,9.09349272 C19.626037,8.77996017 19.8100669,8.44912565 19.9914754,8.11199951 C20.1707867,7.78273789 20.3558653,7.41205642 20.5257391,7.16406161 C20.5870824,7.07545458 20.6484257,7.02407299 20.6846026,7.00939254 C20.7223523,6.99051767 20.7354599,6.99104197 20.7758311,6.9994308 C20.8550007,7.01096545 21.0201558,7.15409987 21.0662944,7.38951144 C21.1218704,7.6217772 21.0678673,7.93478545 20.8911775,8.26247416 C20.7700638,8.48844829 20.6463285,8.71809254 20.5215447,8.9503583 C20.4072468,9.20254753 20.2730255,9.44792083 20.1718353,9.71583912 C19.7261786,10.764443 19.4294237,11.9656187 19.381188,13.2323322 C19.3366223,14.5000943 19.5452945,15.8040332 19.9285592,17.069698 C20.3228342,18.3322171 20.8633895,19.5711425 21.5051351,20.7786099 C22.7860047,23.1998362 24.3950873,25.5492332 26.1053602,27.9243209 C26.961021,29.108719 27.8528586,30.3062246 28.7551822,31.4984872 C29.2218109,32.0961914 29.6910612,32.6970414 30.1629329,33.3015616 C30.6573496,33.8872068 31.1418046,34.4875325 31.6514261,35.0689834 C33.6862419,37.4010784 35.9250111,39.6204485 38.3116335,41.6678475 C38.7814081,42.0657927 39.26062,42.4516789 39.7408806,42.8370408 C36.567281,46.4143529 33.7093112,50.2097746 31.0201666,54.1341746 C30.4298026,54.9971755 29.8546434,55.8706626 29.2889216,56.7525384 C29.0388296,56.1695147 28.7661926,55.5356336 28.4736321,54.8540411 C27.7369879,53.1474383 26.8771327,51.1566639 25.9559342,49.0243279 C25.4976943,47.959995 25.024774,46.8610582 24.5434648,45.7437707 C24.0595341,44.6291048 23.576652,43.4934668 23.1011102,42.354683 C22.5967317,41.2279582 22.1552695,40.0755425 21.6708145,38.9608766 C21.1868838,37.8451621 20.7627236,36.7278747 20.3039594,35.6624932 C19.8425737,34.5981602 19.4514444,33.5495564 19.0351487,32.5685875 C18.6183286,31.5865699 18.240307,30.6569826 17.8916462,29.7955545 C17.1738768,28.0648339 16.5756483,26.6230035 16.1567311,25.613198 C15.7262792,24.6018196 15.4510207,24.0324277 15.4510207,24.0324277 C15.4510207,24.0324277 15.507121,24.6626386 15.6570713,25.7516137 C15.7341437,26.2953148 15.8201292,26.9580325 15.9496318,27.7093572 C16.0728428,28.4622547 16.252154,29.3105753 16.4582047,30.2317738 C16.5599193,30.6942081 16.6658282,31.1755172 16.7754074,31.6736041 C16.8849865,32.1727395 17.037034,32.6729235 17.1723039,33.1967012 C17.4664373,34.2342947 17.7453659,35.342669 18.1260091,36.4562863 C18.311612,37.0151922 18.4998364,37.5835355 18.6906823,38.159219 C18.8799553,38.7354268 19.0812873,39.3147804 19.30831,39.8899397 C19.7455778,41.0465497 20.1886129,42.2230833 20.6877484,43.3760232 C21.1847866,44.5300118 21.6807762,45.6840003 22.2276232,46.7939475 C22.7466821,47.9159536 23.3108309,48.9954913 23.8623966,50.0357064 C24.4060977,51.0795915 24.9885971,52.0600361 25.5254823,52.9953908 C26.0880583,53.9186865 26.6212734,54.7879791 27.150294,55.5702376 C27.4119207,55.9629397 27.6536239,56.3435829 27.8989972,56.6964381 C28.1496135,57.0461475 28.3876466,57.3780306 28.6109992,57.689466 C28.6256796,57.7104381 28.6398358,57.7293129 28.6545162,57.750285 C28.0101492,58.7815869 27.3809869,59.8286179 26.7727966,60.9018639 C26.4461565,61.4943251 26.1237108,62.0941265 25.8117512,62.7196187 C25.4982186,63.3592671 25.196745,63.9637872 24.9230594,64.812632 L24.9047088,64.8713539 L24.8606675,65.0333631 C24.8318309,65.1424179 24.8119074,65.2441325 24.7982755,65.3400798 C24.7657688,65.5382659 24.7547585,65.7170529 24.7526613,65.8811594 C24.7489911,66.2125182 24.7814979,66.4919711 24.8229177,66.7478305 C24.9099518,67.2522089 25.0378815,67.6669318 25.1752486,68.0538666 C25.4489342,68.8251147 25.7745257,69.4815407 26.1174192,70.1159461 C26.8042547,71.3737464 27.5367045,72.5282593 28.3210602,73.6387308 C29.1001729,74.748678 29.8986847,75.8282156 30.734422,76.8721008 C32.3849245,78.9756001 34.1402874,80.9689961 35.9318271,82.9214965 C39.5479375,86.7966121 43.3480779,90.4835033 47.5126082,93.8018102 C44.6016838,89.3494382 41.4972921,85.1073113 38.4337959,80.8672815 C36.8912996,78.7574905 35.3744941,76.6382621 33.8849523,74.5274225 L33.8849523,74.5274225 Z" id="Fill-1"></path>
                    <path d="M94.2083015,96.724007 C95.7607595,94.9670712 97.4033975,93.2976939 99.0722505,91.6576774 C100.761027,90.0391574 102.501709,88.4693974 104.359311,87.0438204 C105.279985,86.3187109 106.238409,85.6439343 107.22567,85.0095289 C108.218173,84.3850853 109.235843,83.7842353 110.344742,83.3595508 C109.166111,83.5608827 108.042008,84.0112581 106.949363,84.4983346 C105.855669,84.9932756 104.806016,85.5783965 103.775763,86.1949756 C102.394228,87.0474906 101.067744,87.9849424 99.7863498,88.9790189 C98.9406507,87.3830438 98.0834171,85.8033221 97.1706074,84.2545342 C96.6452569,83.3710854 96.0690491,82.5342995 95.5651949,81.6618611 C95.0540005,80.7873255 94.578983,79.8855262 94.1244132,78.9727165 C93.2147493,77.1455242 92.3826822,75.2753393 91.5757815,73.392571 C90.7615406,71.5129486 89.9819036,69.6149756 89.2478809,67.7007492 L89.1487878,67.7343046 C90.3793245,71.6529372 91.7456553,75.5317229 93.403498,79.3103669 C93.8203181,80.2541104 94.2512943,81.1931352 94.7184473,82.1216739 C95.185076,83.0570285 95.7036106,83.9562064 96.2462631,84.8239261 C97.2424368,86.3354885 98.2737387,87.8391865 99.5336362,89.1724863 C99.0067128,89.5866848 98.486081,90.0092722 97.9759352,90.4433942 C96.1324896,91.9780259 94.4243139,93.6605108 92.7544122,95.3718323 C91.1012882,97.114612 89.5388685,98.884131 88.0110526,100.767948 C86.5319969,102.67798 85.1745792,104.67924 83.9749764,106.769632 C82.7963456,108.87051 81.7204781,111.026439 80.8427966,113.261539 C79.940473,115.485627 79.2074989,117.772632 78.6145134,120.08795 C78.0514131,122.409034 77.5874059,124.760004 77.4447958,127.138762 C78.0419757,124.839698 78.7681339,122.594113 79.5933851,120.390996 C80.4034316,118.184209 81.3303974,116.027756 82.3349599,113.918489 C83.3636403,111.820233 84.4442266,109.751861 85.6789576,107.778913 C86.8937652,105.796003 88.2066173,103.874437 89.6573607,102.065071 C91.0850349,100.250986 92.6458817,98.4563006 94.2083015,96.724007" id="Fill-3"></path>
                    <path d="M118.108867,86.5714244 L118.323831,86.4791473 L118.475354,86.2038887 C118.850754,85.5207233 119.244505,84.846471 119.604701,84.1564897 L119.664471,84.0427162 C119.848501,84.4170678 120.032007,84.7924679 120.227047,85.1605279 L120.86355,86.3601307 L122.091989,85.5679105 L122.900987,85.0462301 L123.752978,84.5318899 C124.337574,84.1994825 124.927414,83.872318 125.525642,83.5451536 C126.121249,83.215892 126.731013,82.904981 127.335008,82.5809624 L129.161676,81.6277815 L132.83179,79.7167009 C134.046597,79.0571291 135.288669,78.4421229 136.498758,77.7762595 L137.156232,77.4144911 L136.979018,76.8854705 C136.927637,76.7313257 136.877828,76.554636 136.814912,76.4277549 C136.751995,76.3008738 136.693798,76.1614095 136.625114,76.0492089 C136.494039,75.813273 136.35405,75.5967363 136.212489,75.3849184 C135.919404,74.9717684 135.604298,74.589028 135.288144,74.2131035 C134.974088,73.8371791 134.632767,73.4843239 134.293019,73.1346145 C133.954845,72.7838565 133.595698,72.451449 133.226589,72.1305763 L134.481768,74.7368812 C134.685197,75.1652358 134.8708,75.5993578 135.040674,76.0240424 C135.105163,76.1850031 135.160215,76.3422937 135.213169,76.4985357 C134.104795,76.8891406 133.01949,77.322214 131.923175,77.7395583 C130.626052,78.2554714 129.343609,78.80861 128.069031,79.3858664 C127.432004,79.6747568 126.800745,79.9783276 126.168961,80.2839956 C125.536653,80.5891393 124.913782,80.9142065 124.28829,81.2445168 C123.662273,81.5685354 123.045694,81.9266336 122.429115,82.2878776 L121.718162,82.7293398 C121.67045,82.6543647 121.62536,82.5783409 121.577649,82.50389 C121.431893,82.269527 121.272505,82.0430286 121.120458,81.8123358 C120.967886,81.5816429 120.814265,81.3519987 120.650159,81.1281217 L119.415428,79.4456368 L118.745894,81.2130586 L117.91907,83.3967762 C117.668978,84.0484835 117.44615,84.7122497 117.212835,85.3712973 C114.279366,86.7890097 111.363723,88.2465691 108.44074,89.6883994 C105.431247,91.1957674 102.422802,92.705757 99.4332324,94.2576907 C102.567509,93.0240083 105.682911,91.7483817 108.796741,90.4706579 C111.902181,89.1740592 115.01601,87.8958111 118.108867,86.5714244" id="Fill-5"></path>
                    <path d="M88.0528919,114.178543 C88.0534162,114.181688 88.0518433,114.189029 88.0523676,114.192175 C88.0497461,114.171727 88.0528919,114.166484 88.0528919,114.178543 M86.9707328,116.933225 C87.3424628,116.628081 87.6638599,116.280469 87.9789654,115.920274 C88.2814876,115.547495 88.5750967,115.177338 88.8005465,114.691834 C88.8545496,114.565477 88.9122228,114.436499 88.9384379,114.245653 C88.9457781,114.147609 88.9573128,114.029117 88.8875806,113.855573 C88.8262373,113.67731 88.6039333,113.510582 88.4513614,113.48594 C88.1441205,113.424596 88.0004617,113.489086 87.8489385,113.521592 C87.7744876,113.543613 87.7141929,113.563012 87.6402663,113.591325 L87.4740626,113.654765 C86.9827917,113.866059 86.5617772,114.139744 86.1716966,114.467957 C85.7879076,114.796695 85.4423926,115.1679 85.1618911,115.587866 C84.8792923,116.005211 84.6354919,116.455586 84.5117567,116.979364 C84.4525106,117.239417 84.406372,117.527259 84.5028436,117.849705 C84.5395447,117.968197 84.5935478,118.060474 84.6847763,118.145935 C84.7770535,118.227202 84.890827,118.273341 84.9867742,118.286448 C85.1812903,118.312139 85.3228518,118.263903 85.4497328,118.21724 C85.9394308,118.008568 86.2928104,117.692414 86.6231206,117.346899 C86.1889986,117.525162 85.7407204,117.713911 85.3333378,117.765292 C85.2368663,117.774205 85.1403947,117.764768 85.1057908,117.74432 C85.0780028,117.722299 85.1188983,117.723348 85.1199469,117.719678 C85.1141796,117.583359 85.1786687,117.398281 85.2531196,117.217921 C85.6033533,116.487568 86.2015818,115.811219 86.8454246,115.269091 C87.1683946,114.999075 87.52859,114.751605 87.8819695,114.570196 L87.9873542,114.516193 C87.8767265,114.873767 87.7068527,115.263323 87.5359302,115.641345 C87.3534732,116.068127 87.1484711,116.488093 86.9707328,116.933225" id="Fill-7"></path>
                    <path d="M130.602406,65.4886145 L130.613416,65.4566321 L130.703072,65.2023457 C130.834671,64.8605008 130.89182,64.5286177 130.974136,64.1951616 C131.017653,63.8685215 131.08319,63.5361141 131.093676,63.2178628 C131.189624,61.9327988 131.080569,60.7127482 130.903355,59.5414577 C130.728762,58.3696429 130.466087,57.2486853 130.182964,56.1780608 C129.618815,54.0362874 128.924639,52.1068563 128.300196,50.4699856 C127.049736,47.1962444 126.004278,45.1126685 126.004278,45.1126685 L125.76205,45.2122859 C125.76205,45.2122859 125.949226,45.7596571 126.248078,46.7290914 C126.541163,47.6995742 126.973712,49.0805855 127.412028,50.7567788 C127.849296,52.4313992 128.315925,54.3970071 128.677693,56.5057495 C128.854907,57.5595964 128.99542,58.6517173 129.08193,59.748557 C129.165294,60.8432994 129.167915,61.9553438 129.010101,62.9777326 C128.928834,63.4863054 128.809293,63.9744305 128.607437,64.3629383 L128.538229,64.5092185 L128.516732,64.5453953 L128.461156,64.6381968 L128.237804,65.0083539 C128.16178,65.1462454 128.090999,65.2301337 128.023889,65.3093033 L127.825703,65.5604439 C127.215415,66.2556682 126.506035,66.7228213 125.744224,66.9577085 C125.367251,67.0987458 124.960917,67.139117 124.55668,67.1915472 C124.146152,67.2109464 123.730904,67.2093735 123.315657,67.1543218 C122.901983,67.1108047 122.490406,67.0211491 122.095607,66.9110457 C121.687176,66.8040881 121.337466,66.6871687 120.91016,66.5178192 C120.145728,66.2215886 119.424288,65.9248337 118.79565,65.6375163 C118.163342,65.3554418 117.614398,65.0890964 117.158255,64.8694139 C116.246494,64.411174 115.725338,64.1490231 115.725338,64.1490231 L115.548124,64.3424905 C115.548124,64.3424905 115.878959,64.8536849 116.596728,65.6228358 C116.954302,66.008722 117.413066,66.4538544 117.973021,66.9304448 C118.53717,67.401268 119.193071,67.9114137 119.982146,68.3990145 C120.331331,68.62027 120.80163,68.8923827 121.271928,69.1120652 C121.515729,69.215877 121.760578,69.3296505 122.026399,69.4140631 C122.286453,69.5110589 122.557517,69.59285 122.842213,69.655242 C123.961073,69.9420351 125.2928,69.9808335 126.604603,69.5498573 C127.917455,69.1183568 129.071444,68.1468253 129.810185,67.0075172 L130.087541,66.5445586 C130.181915,66.3867437 130.269998,66.2315504 130.318234,66.1099123 L130.498594,65.7172102 L130.543684,65.6186414 L130.566229,65.569357 C130.61761,65.4660695 130.583531,65.5316073 130.596638,65.5043436 L130.602406,65.4886145 Z" id="Fill-9"></path>
                    <path d="M117.583779,40.4946695 C118.002172,40.4621628 118.423186,40.5062041 118.824277,40.5664989 C119.226417,40.6220749 119.60706,40.630988 120.002384,40.5848494 C120.800371,40.4836592 121.607796,40.3835175 122.728229,40.0820439 L122.732424,40.0809953 C122.745007,40.0778495 122.756017,40.0731308 122.768076,40.0668391 C122.848295,40.0233221 122.87818,39.9231804 122.834663,39.8424379 C122.267368,38.7975041 121.264903,38.2254907 120.223639,37.9727772 C119.699337,37.8500906 119.155636,37.8553336 118.637626,37.9780202 C118.119091,38.104377 117.625199,38.2836883 117.141792,38.4446489 C116.65891,38.6103284 116.192806,38.8032715 115.745576,39.0224297 C115.302017,39.2531225 114.877857,39.5063604 114.471523,39.7795217 C113.668816,40.3426219 112.929551,40.9639197 112.312972,41.7089528 C112.281513,41.7477511 112.272076,41.8022785 112.294621,41.8505143 C112.326079,41.9171006 112.405249,41.9464616 112.471835,41.9150034 L112.479175,41.9118576 C113.315961,41.5207284 114.174768,41.1972341 115.034623,40.9633954 C115.461405,40.8401845 115.890808,40.7416157 116.319163,40.6687377 C116.742274,40.5827522 117.165386,40.5261276 117.583779,40.4946695" id="Fill-11"></path>
                    <path d="M137.999834,56.0522283 C138.068518,56.0789677 138.146114,56.0448881 138.172854,55.9762045 C138.518893,55.0901343 138.722846,54.1647414 138.857592,53.2105119 C138.915265,52.7333971 138.950918,52.2484178 138.958782,51.755574 C138.954588,51.2648274 138.919984,50.7667405 138.850252,50.2634107 C138.775277,49.7616537 138.711312,49.2378761 138.572896,48.7120013 C138.433432,48.1876993 138.159746,47.6901368 137.767568,47.2843271 C136.987931,46.478475 135.829224,45.9468329 134.671041,46.2304802 C134.660031,46.2331017 134.647972,46.2372961 134.637486,46.2425392 C134.55517,46.2829104 134.520566,46.3825278 134.560938,46.4648432 L134.562511,46.4690376 C135.06584,47.5003395 135.363644,48.1604356 135.651486,48.8320664 C135.794096,49.1629009 135.973407,49.4607044 136.202527,49.7695183 C136.437414,50.0741377 136.663388,50.4165069 136.821728,50.7950528 C136.980591,51.1725502 137.117434,51.5710197 137.230159,51.983121 C137.35704,52.3931251 137.462425,52.8178097 137.547361,53.2503588 C137.731916,54.1159813 137.845689,55.0177806 137.914897,55.9316389 L137.914897,55.9379305 C137.919091,55.9872149 137.95055,56.0328292 137.999834,56.0522283" id="Fill-13"></path>
                    <path d="M116.208011,45.009381 C116.213778,45.0009922 116.226885,44.9905061 116.234226,44.981593 C116.232653,44.9884089 116.233701,44.9952249 116.230556,45.0020408 C116.210108,45.0481794 116.190184,45.037169 116.208011,45.009381 M115.868263,45.8566529 C116.183893,46.099929 116.52731,46.2624626 116.907954,46.3453023 C117.649317,46.4989228 118.510745,46.3688959 119.064932,45.6998867 C119.135188,45.6076095 119.176084,45.5326343 119.234281,45.3968401 C119.244243,45.3638091 119.259448,45.3239622 119.280944,45.2390253 C119.296149,45.1692931 119.300868,45.1089984 119.298246,45.0418877 C119.286187,44.7682021 119.124178,44.5773562 118.979471,44.464107 C118.680094,44.2318413 118.351881,44.1495258 118.027338,44.108106 C118.283198,44.3047192 118.526998,44.5270232 118.665414,44.7524731 C118.732524,44.8672952 118.741962,44.9721556 118.715222,45.0198671 C118.709979,45.0314017 118.700018,45.0487037 118.692677,45.054471 C118.692153,45.0455579 118.673803,45.0775403 118.648112,45.1147657 C118.629237,45.1168629 118.573137,45.1671959 118.534863,45.1897409 C118.166278,45.4162393 117.610518,45.4461245 117.142317,45.3286809 C116.907429,45.2710077 116.665726,45.1671959 116.46754,45.0445092 L116.311822,44.9417461 C116.302385,44.9349301 116.296093,44.9302114 116.288229,44.9239198 C116.41511,44.8080491 116.63689,44.6722549 116.844513,44.5663459 L117.69965,44.1191163 C117.368815,44.0425683 117.039029,44.035228 116.700854,44.0514814 C116.36268,44.0965714 116.028699,44.102863 115.629706,44.3901804 C115.53271,44.4688257 115.412645,44.5888909 115.354971,44.7896985 C115.293104,44.9926034 115.34501,45.2164803 115.416839,45.3527988 C115.557876,45.6201928 115.755014,45.7601814 115.868263,45.8566529" id="Fill-15"></path>
                    <path d="M134.517106,53.9498824 C134.524446,53.9498824 134.5213,53.9498824 134.524446,53.9498824 C134.520252,53.9540769 134.516057,53.9608928 134.511863,53.9635143 C134.497182,53.9776704 134.474113,53.9645629 134.517106,53.9498824 M134.058342,51.8788898 C134.175785,51.7651163 134.483551,51.7326096 134.803899,51.7745537 C134.648181,51.4940522 134.358242,51.2208909 133.894235,51.2476303 C133.665115,51.2602135 133.434947,51.3907647 133.287618,51.5464824 C133.132425,51.7011514 133.03438,51.8767926 132.962551,52.0450935 C132.827281,52.3764523 132.761219,52.6968008 132.764365,53.0769197 C132.772753,53.4439311 132.898062,53.8885391 133.217886,54.19578 C133.533516,54.5051182 133.947714,54.6162702 134.297948,54.6057842 L134.430072,54.5958224 C134.556429,54.5890065 134.479881,54.5979196 134.618821,54.574326 C134.805996,54.5297604 134.90876,54.4254243 134.982162,54.3226611 C135.109043,54.1166105 135.131064,53.9393964 135.142598,53.7742413 C135.159376,53.1209611 135.010474,52.5478991 134.811239,51.9827016 C134.790267,52.5714927 134.787121,53.1796829 134.645036,53.6924502 C134.613578,53.8025536 134.566915,53.9047925 134.52497,53.9488338 C134.503998,53.9477852 134.451568,53.9451637 134.487221,53.940445 L134.401235,53.9047925 C134.175261,53.811991 134.013776,53.6840614 133.936179,53.551413 C133.858058,53.4203375 133.814541,53.2640955 133.81192,53.0480831 C133.801958,52.8415082 133.844951,52.5777843 133.882176,52.3497129 C133.929363,52.1226902 133.96187,51.9874203 134.058342,51.8788898" id="Fill-17"></path>
                    <path d="M231.455867,246.767423 C230.903777,248.467735 229.800122,249.992405 228.365107,250.516707 C226.886051,251.095536 224.941416,250.881621 223.142011,250.22834 C222.232872,249.910089 221.345753,249.484356 220.484849,249.000425 C220.115216,248.794375 219.753972,248.569973 219.396398,248.340329 L229.717806,237.352534 C230.485384,238.605615 231.08571,239.947304 231.468975,241.329888 C231.958673,243.140827 232.001665,245.054529 231.455867,246.767423 M215.742014,245.424162 C215.387061,245.07655 215.071956,244.751482 214.709139,244.34777 C214.355235,243.956641 214.00238,243.567084 213.650573,243.178577 C212.199306,241.618778 210.676733,240.18691 209.144723,238.830541 C206.057633,236.147688 202.939609,233.749531 199.883453,231.630302 C199.8111,231.579969 199.740843,231.533306 199.669014,231.482973 C199.992508,231.471439 200.344839,231.446272 200.731774,231.394891 C201.610504,231.272204 202.631844,231.007432 203.666292,230.537133 C204.184826,230.306964 204.697594,230.013355 205.201448,229.684094 C205.688,229.348016 206.199719,228.953741 206.619685,228.559466 C207.095226,228.114334 207.487404,227.661337 207.843405,227.151715 C208.199931,226.652055 208.493015,226.116743 208.720562,225.576712 C209.180899,224.496126 209.354968,223.399811 209.340812,222.483331 C209.332423,221.948019 209.264788,221.482438 209.175656,221.081872 C211.17115,222.54048 213.297194,224.046799 215.595209,225.535292 C216.384808,226.047011 217.185941,226.557681 217.995464,227.03899 C218.40337,227.286985 218.813375,227.536553 219.226,227.787693 C219.623421,228.03464 220.022415,228.28211 220.42403,228.531678 C222.014762,229.549348 223.554637,230.700715 225.015866,231.961137 C226.466086,233.23152 227.836087,234.633504 228.955995,236.211128 C228.982211,236.247305 229.006328,236.285055 229.032544,236.321232 C227.61588,236.819843 225.637689,237.87369 223.602348,240.125042 C221.090418,242.904367 219.649636,246.836107 219.196115,248.217118 C218.787684,247.948676 218.387641,247.666077 217.997036,247.370371 C217.204292,246.770045 216.450346,246.117289 215.742014,245.424162 M208.458936,220.554424 C208.368756,221.025771 208.237156,221.62767 208.018522,222.300874 C207.776295,223.060063 207.43078,223.894752 206.956286,224.71476 C206.718778,225.125288 206.448238,225.530574 206.154104,225.93114 C205.859971,226.321745 205.521272,226.733847 205.19201,227.079886 C204.815037,227.484647 204.457988,227.815481 204.060567,228.15051 C203.670486,228.480296 203.262055,228.779148 202.853099,229.056504 C202.440474,229.327568 202.029421,229.581855 201.621514,229.796818 C201.419134,229.908495 201.219899,230.015452 201.021188,230.106681 C200.825624,230.207871 200.633205,230.298575 200.444456,230.378269 C200.072726,230.555483 199.718822,230.697045 199.400571,230.81344 C199.237513,230.876356 199.084941,230.933505 198.941807,230.984362 C197.216854,229.798391 195.527553,228.68425 193.890158,227.641413 L193.913751,227.548612 C193.956744,227.387651 194.003407,227.225117 194.054789,227.061535 C194.153882,226.734895 194.267131,226.408255 194.38772,226.084761 C194.62051,225.434626 194.889477,224.796027 195.189902,224.176826 C195.349814,223.872731 195.48823,223.557101 195.658628,223.260346 C195.822735,222.959921 195.988939,222.661593 196.174541,222.375849 C196.348085,222.08224 196.545223,221.806457 196.730301,221.523334 C196.916953,221.230249 197.107799,221.011615 197.291829,220.749464 C197.501025,220.481022 197.774187,220.171684 198.01222,219.884366 L198.693288,219.123604 C199.182462,218.593535 199.684219,218.080243 200.185975,217.577438 C200.690878,217.078826 201.21518,216.608528 201.735288,216.156579 C201.893627,216.020261 202.054588,215.898623 202.215024,215.772266 C203.700896,216.95614 205.298444,218.2066 207.03231,219.500577 C207.497366,219.846616 207.979199,220.201044 208.458936,220.554424 M100.550782,185.829907 C100.54082,185.840917 100.524043,185.853501 100.504643,185.86556 C100.551831,185.805789 100.580143,185.796352 100.550782,185.829907 M105.185087,222.295106 C105.178795,222.299301 105.16726,222.304544 105.159396,222.308738 L105.189281,222.28829 L105.209205,222.276756 L105.215496,222.275707 C105.204486,222.281475 105.203962,222.285145 105.185087,222.295106 M100.347877,231.891929 C99.1781595,231.994168 97.9775081,232.048695 96.7737108,232.060754 C95.5672921,232.098504 94.3556303,232.082251 93.1382012,232.091688 L92.408373,232.090639 C92.3433595,230.62574 91.9543275,229.183385 91.5495664,227.77511 C91.2533358,226.803054 90.9114909,225.846728 90.5491983,224.89879 C90.6666419,224.948598 90.7851342,224.996834 90.9051993,225.038778 C91.1563399,225.132104 91.4106264,225.214944 91.6664857,225.294638 C91.9212965,225.383769 92.1823988,225.436724 92.4419283,225.505407 C92.9625601,225.633337 93.4889592,225.743965 94.0200771,225.811599 C94.5501464,225.896536 95.0838857,225.948442 95.619198,225.986192 C96.5015981,226.039147 97.3871441,226.038098 98.2684957,225.985668 C98.4352237,225.988814 98.6019517,225.989862 98.769204,225.994057 C99.0575701,226.000872 99.3443632,225.996154 99.632205,225.991435 C99.9195224,225.986716 100.209461,225.974133 100.501498,225.957355 C100.661934,225.948442 100.823943,225.941102 100.983855,225.931665 C100.955543,226.23209 100.928804,226.53199 100.911502,226.835037 C100.89053,227.205718 100.874801,227.577448 100.86379,227.950227 C100.85645,228.136354 100.857499,228.324054 100.862217,228.512279 L100.878995,229.079049 C100.889481,229.440293 100.898918,229.821461 100.936668,230.195812 C100.972845,230.568067 101.014789,230.939797 101.077181,231.308905 C101.104445,231.476158 101.138,231.641837 101.174177,231.807516 C100.902064,231.841072 100.625757,231.86886 100.347877,231.891929 M77.3708692,243.578095 C76.5471909,243.657789 75.6820927,243.789913 74.9244764,243.8932 C74.1432665,243.998061 73.3646782,244.0809 72.5950029,244.129136 C71.8274249,244.175799 71.0661385,244.188382 70.3431261,244.151157 C69.6285026,244.108164 68.925938,244.002779 68.4367643,243.801447 C68.1934882,243.70183 68.0241387,243.583338 67.9355316,243.490012 C67.8464003,243.39354 67.7986888,243.316992 67.7656578,243.141876 C67.7352483,242.971477 67.7467829,242.717715 67.8018346,242.430922 C67.8301469,242.287788 67.8694696,242.136264 67.9171811,241.981595 L67.996875,241.746184 C68.0063124,241.717347 68.035149,241.642372 68.029906,241.651809 L68.0728987,241.549571 C68.2286164,241.180462 68.7025854,240.654587 69.2499566,240.229378 C69.8057166,239.791062 70.4516566,239.393641 71.1259089,239.028203 C72.0355728,238.524348 73.0018612,238.078692 73.9880731,237.65925 C74.0530866,237.70434 74.1149542,237.747333 74.1825892,237.79452 C74.6686171,238.135316 75.2107453,238.5233 75.7533978,238.943266 C75.8839489,239.055991 76.0244619,239.156132 76.1597318,239.264663 C76.2918558,239.377912 76.4239799,239.492734 76.5623956,239.598119 C76.8219251,239.832482 77.0882705,240.05898 77.3362653,240.304353 C77.4683894,240.419176 77.5811143,240.550251 77.7048496,240.671365 L77.8700047,240.83652 L78.0750067,241.0583 C78.2102766,241.206153 78.2931163,241.310489 78.4168516,241.437894 C78.5358681,241.574737 78.6533117,241.710007 78.7686582,241.84318 C79.2358112,242.383211 79.6977212,242.908561 80.1224058,243.354218 C80.1286974,243.361034 80.1344647,243.366801 80.1407563,243.373617 C79.2190335,243.415561 78.2957378,243.481099 77.3708692,243.578095 M234.394579,240.528755 C233.762271,238.262197 232.627158,236.23577 231.278653,234.488796 C229.940634,232.722423 228.378215,231.22292 226.760743,229.88962 C225.142747,228.552126 223.421464,227.433265 221.698608,226.43814 C220.842947,225.963647 219.996724,225.494397 219.160987,225.030914 C218.323152,224.575296 217.527786,224.109715 216.749198,223.646232 C213.610726,221.789679 210.669917,219.913203 208.002269,218.129003 C206.342853,217.015386 204.782006,215.963636 203.315009,214.958549 L205.893002,213.113531 L203.346992,211.720985 C202.579414,211.300495 201.806068,210.890491 201.052647,210.431727 C200.290312,209.992886 199.549473,209.507907 198.799197,209.038656 C198.058358,208.552104 197.31752,208.06293 196.591361,207.546493 C195.856814,207.04526 195.147434,206.502084 194.424422,205.978306 C193.709798,205.440896 192.995174,204.902963 192.294183,204.343533 C191.584278,203.796686 190.898491,203.217332 190.199072,202.653707 C189.505945,202.08117 188.811769,201.509156 188.130177,200.920365 C187.442293,200.339439 186.770138,199.738064 186.093788,199.141409 C185.422682,198.538462 184.752624,197.933941 184.092003,197.317887 L182.472959,195.806324 C181.595278,194.861008 180.733325,193.902584 179.881859,192.937868 C176.463935,189.031295 173.403584,184.839501 170.67302,180.468395 C167.966049,176.079464 165.671179,171.453548 163.806762,166.67139 C161.951781,161.839423 160.325397,156.883722 159.006253,151.885551 C157.699693,146.881614 156.686741,141.802176 156.223783,136.705437 C156.006197,134.160476 155.911823,131.609747 156.074881,129.108302 C156.257338,126.630976 156.623825,124.114326 157.594832,122.073219 C158.074044,121.067608 158.730995,120.231871 159.460299,119.858043 C160.192224,119.476876 161.003843,119.493654 162.094391,119.930397 C163.318636,120.398074 164.540784,120.874141 165.746154,121.365936 C166.348577,121.612358 166.94733,121.863498 167.530354,122.123028 C167.774679,122.233131 168.015333,122.345332 168.245502,122.458057 L168.066715,123.069393 L169.393723,123.162718 C169.539479,123.17268 169.588239,123.174777 169.763356,123.148562 C169.844098,123.131785 169.959445,123.111861 170.141378,123.010671 C170.3123,122.929404 170.62793,122.625833 170.689797,122.24152 C170.721255,122.032848 170.707624,121.889189 170.681933,121.778037 C170.699235,121.698867 170.715488,121.619174 170.73279,121.540004 C174.922487,123.551226 179.143117,125.464404 183.354311,127.389641 L189.890783,130.372394 L193.141455,131.8892 C194.226235,132.390957 195.30787,132.896384 196.381641,133.414918 C197.455411,133.932404 198.522365,134.461425 199.576212,135.006699 C200.631108,135.549352 201.682858,136.092528 202.695285,136.678174 C203.200712,136.970734 203.698274,137.271159 204.170146,137.586789 C204.405557,137.744079 204.635202,137.90504 204.849641,138.069671 C204.956599,138.151986 205.061459,138.234826 205.158455,138.31819 L205.492435,138.606032 C206.387943,139.376756 207.286597,140.150101 208.143306,140.958575 C208.996345,141.770194 209.835228,142.590727 210.627973,143.452679 C211.41495,144.321972 212.157362,145.214858 212.881422,146.181671 C213.604959,147.144289 214.328496,148.105859 215.100793,149.049602 C215.4893,149.521474 215.888818,149.983908 216.365933,150.42537 C216.618122,150.638761 216.855631,150.8726 217.299715,151.018356 C217.518349,151.093855 217.866485,151.068689 218.085119,150.916117 C218.303753,150.772983 218.418575,150.605206 218.515571,150.454731 C218.633539,150.271226 218.588449,150.023755 218.408089,149.895825 C218.222486,149.763701 217.965054,149.806694 217.83293,149.992297 L217.82926,149.997016 C217.759528,150.09506 217.681407,150.166365 217.643133,150.18157 C217.605383,150.189959 217.627404,150.187862 217.561342,150.167414 C217.431839,150.119178 217.212681,149.932527 217.031272,149.739059 C216.652726,149.339017 216.301968,148.860329 215.952259,148.387933 C215.257035,147.433179 214.59222,146.437006 213.930026,145.441356 C212.671702,143.389238 211.14808,141.381686 209.441478,139.645198 C208.59106,138.766468 207.724913,137.913953 206.823114,137.094994 L206.480744,136.789326 C206.351242,136.676076 206.222264,136.570692 206.092761,136.468977 C205.833232,136.265548 205.573702,136.078897 205.3126,135.899585 C204.790919,135.542536 204.265045,135.21642 203.7355,134.901314 C201.622563,133.644563 199.448807,132.586521 197.260371,131.564133 C196.166677,131.052938 195.069837,130.552754 193.968279,130.064105 L190.642632,128.655305 C188.424835,127.720475 186.182919,126.849085 183.936286,125.9929 C179.586153,124.35603 175.202988,122.811436 170.747471,121.470796 C171.035312,120.132253 171.306901,118.789516 171.589499,117.4494 L172.599829,112.550323 C173.1666,109.69078 173.72603,106.830189 174.248759,103.959636 C175.737776,105.194891 177.232037,106.434341 178.728395,107.674839 C181.485698,109.938251 184.239332,112.205332 186.973042,114.412119 C189.695742,116.633586 192.413199,118.770117 195.052535,120.845828 C195.719447,121.361741 196.381116,121.87346 197.035969,122.38046 C197.382533,122.635795 197.727524,122.889557 198.070941,123.142271 C198.396533,123.369293 198.720027,123.594743 199.041949,123.819144 C200.342742,124.760266 201.615223,125.680941 202.854148,126.576973 C205.337242,128.389484 207.722291,130.068299 210.027647,131.505935 C211.187927,132.220559 212.298399,132.896908 213.508488,133.415443 C213.815204,133.5418 214.129785,133.65767 214.495748,133.739986 C214.683973,133.77826 214.879013,133.814437 215.14064,133.800805 C215.206702,133.795037 215.291114,133.784551 215.339874,133.775114 L215.446832,133.752569 L215.66232,133.70643 C216.224372,133.585841 216.77017,133.468922 217.298666,133.355672 C218.344124,133.148049 219.328239,132.993904 220.204348,133.001769 C220.639518,133.00439 221.048474,133.048956 221.37826,133.165351 C221.540793,133.224597 221.67816,133.302194 221.784069,133.395519 C221.887881,133.477835 221.98278,133.652952 221.964953,133.595278 C221.975964,133.63565 221.908329,133.793464 221.8171,133.914578 C221.72692,134.042508 221.617341,134.167292 221.503043,134.282638 C221.275496,134.515428 221.031172,134.71676 220.798906,134.896071 C220.33018,135.251024 219.89868,135.518418 219.539008,135.708739 C219.179337,135.899585 218.888874,136.011786 218.693309,136.063692 C218.496696,136.117695 218.398127,136.118744 218.398127,136.118744 C218.335211,136.120316 218.280684,136.169076 218.275441,136.233566 C218.269149,136.302249 218.320006,136.363068 218.389214,136.36936 L218.398127,136.369884 C218.398127,136.369884 218.525533,136.381419 218.752556,136.345766 C218.979578,136.311687 219.303073,136.225177 219.703115,136.067886 C220.103682,135.910071 220.583418,135.68567 221.114536,135.354311 C221.379308,135.187583 221.65981,134.999359 221.943457,134.760802 C222.085543,134.641785 222.228677,134.510185 222.368142,134.349224 C222.499741,134.182496 222.659654,134.012623 222.718375,133.660816 C222.736726,133.575879 222.700549,133.370877 222.692685,133.367207 L222.687966,133.348856 C222.678004,133.322117 222.703695,133.384509 222.664372,133.283843 L222.642352,133.239802 L222.597786,133.151195 C222.535394,133.035324 222.457797,132.919977 222.364472,132.824554 C222.182539,132.624271 221.957613,132.473272 221.724823,132.360547 C221.256622,132.142962 220.760632,132.047539 220.258875,131.99773 C219.25274,131.909123 218.203611,131.99406 217.103626,132.120417 C216.561498,132.191722 216.001543,132.265124 215.424811,132.341148 L215.212469,132.368936 L215.103938,132.382568 C215.080345,132.384141 215.092404,132.377849 215.085064,132.379422 C215.053605,132.375228 214.956085,132.355304 214.855944,132.322798 C214.647796,132.254638 214.401898,132.142962 214.156,132.013459 C213.159303,131.488109 212.111223,130.763524 211.047939,129.9928 C209.982557,129.216309 208.889912,128.368512 207.767906,127.47615 C206.644327,126.580643 205.482998,125.654201 204.289162,124.702593 C203.090608,123.737878 201.860072,122.747471 200.601747,121.735044 C200.284544,121.485477 199.95004,121.222277 199.616584,120.975331 C199.311964,120.736249 199.006296,120.495595 198.699055,120.253891 C198.070417,119.735881 197.436012,119.212103 196.795839,118.684656 C194.239867,116.533969 191.598434,114.311978 188.915057,112.054333 C186.213853,109.809797 183.469657,107.529608 180.725461,105.249419 C177.955049,102.99859 175.184114,100.748287 172.456695,98.5325865 C169.730325,96.3147894 166.992944,94.1976582 164.355706,92.1313842 C161.72738,90.064586 159.117929,88.1115613 156.634311,86.2990495 C154.153839,84.4708087 151.744671,82.8386568 149.507999,81.3517365 C147.277619,79.8559031 145.194567,78.5440997 143.339587,77.3979756 C141.488801,76.2450357 139.844066,75.2897576 138.490318,74.5054019 C137.138668,73.7168518 136.053887,73.1348766 135.318816,72.7316884 C134.577977,72.3395106 134.182654,72.1303141 134.182654,72.1303141 C134.182654,72.1303141 135.625533,73.1831124 138.150571,75.0249851 C139.402604,75.9566696 140.922555,77.0875889 142.666383,78.3852362 C144.391337,79.7022826 146.33807,81.1881543 148.460968,82.8092959 C150.570759,84.4440693 152.839414,86.2387548 155.215026,88.1545541 C157.594308,90.0776936 160.042274,92.1555021 162.626034,94.2815465 C165.191967,96.421747 167.842838,98.6337768 170.537225,100.880935 C171.719002,101.86138 172.911789,102.850737 174.107197,103.841668 C173.17027,106.633051 172.271616,109.433872 171.379779,112.236266 L169.899674,117.014754 C169.574083,118.083281 169.2422,119.150236 168.91556,120.218239 C168.799165,120.153225 168.683294,120.088736 168.566899,120.02582 C167.967622,119.703374 167.37149,119.399803 166.773786,119.101476 C165.579426,118.506393 164.382445,117.934904 163.182318,117.370755 L162.958441,117.266419 L162.681085,117.144781 C162.492337,117.068757 162.300442,116.995355 162.100683,116.934011 C161.702738,116.808179 161.278578,116.721669 160.83764,116.683395 C159.958385,116.599507 159.005204,116.75103 158.178905,117.126955 C157.346313,117.496587 156.654759,118.05392 156.09795,118.654246 C155.537996,119.258766 155.100728,119.913619 154.732668,120.578434 C154.694394,120.647642 154.665033,120.717899 154.628332,120.787631 C151.199397,118.571406 144.048443,113.70169 144.770407,112.065344 C146.021391,109.230443 149.253713,108.20753 150.713369,108.728686 C152.17355,109.250367 157.178537,111.544188 157.178537,110.292679 C157.178537,109.041694 153.841355,106.226717 151.75673,105.913709 C149.671057,105.600701 145.385413,107.118031 145.292087,107.165218 C144.248727,107.686374 148.107064,103.202544 150.087877,102.577052 C152.069214,101.951559 154.71222,101.534215 154.746824,101.013059 C154.779855,100.491903 151.547534,99.1365824 148.836893,100.074559 C146.125727,101.013059 141.412777,105.913709 141.746758,104.766537 C142.081787,103.619888 142.143654,99.6577385 143.405125,98.6149019 C144.666071,97.5720654 149.774869,95.2782444 148.628221,95.4869166 C147.481048,95.6955888 143.405125,93.4017678 139.869757,98.1980819 C138.53803,100.005875 138.736216,102.055896 138.885642,102.785724 C139.035592,103.515552 138.504475,104.24538 137.883701,103.619888 C137.262928,102.993872 136.784764,102.204797 135.907607,100.074559 C135.177779,98.3018937 137.680272,93.5055796 136.428763,94.0267357 C135.177779,94.5484162 131.319965,99.3447302 133.301302,103.30688 C134.077269,104.859338 138.097092,107.790186 137.367264,107.790186 C136.637435,107.790186 133.801486,107.280564 132.362802,107.895046 C129.234816,109.230443 127.254004,113.421189 127.254004,114.567837 C127.254004,115.715009 131.841121,111.648524 133.50945,111.335515 C135.177779,111.022507 140.078429,111.231179 139.765945,111.75286 C139.452937,112.274016 136.116279,114.040389 135.177779,115.085847 C134.239803,116.13183 132.883958,119.468487 133.405114,120.615135 C133.926794,121.762832 136.533624,116.757322 138.4101,115.715009 C140.287101,114.672173 142.258476,114.046681 144.144915,115.923682 C144.618359,116.39398 151.102401,121.830467 153.430826,123.780346 C153.343792,124.075004 153.25938,124.369137 153.183356,124.663795 C152.831025,126.039039 152.611867,127.42005 152.468732,128.796343 C152.184036,131.548404 152.177745,134.284735 152.347094,136.993803 C152.510676,139.70392 152.836792,142.38887 153.291886,145.043935 C153.743835,147.700049 154.303789,150.330472 154.974371,152.928388 C156.301904,158.134182 157.995923,163.202608 159.974639,168.189244 C160.993882,170.692786 162.120607,173.153335 163.393087,175.53419 C164.666617,177.915045 166.052871,180.231411 167.542413,182.475423 C170.501573,186.978128 173.95148,191.129551 177.681364,194.96849 C179.538965,196.896872 181.516108,198.703092 183.539913,200.442726 C184.323221,201.114357 185.119635,201.770259 185.92339,202.416199 C186.064952,202.558809 186.201794,202.705089 186.344404,202.846651 C186.991393,203.500455 187.653586,204.139579 188.31578,204.779752 C188.988459,205.409963 189.66009,206.041222 190.353217,206.65151 C191.037955,207.27071 191.74052,207.872085 192.444657,208.473459 C193.157708,209.064871 193.870234,209.657333 194.608452,210.22253 C195.336707,210.798738 196.086983,211.351876 196.839356,211.902918 C197.52724,212.388421 198.215125,212.875498 198.927127,213.333213 C198.393911,213.729586 197.883766,214.145881 197.393019,214.575285 C196.774343,215.112694 196.203378,215.689426 195.644472,216.272974 C195.501862,216.416633 195.369738,216.567632 195.232371,216.714961 L194.783568,217.208329 C194.538719,217.513997 194.308551,217.780867 194.051119,218.117469 C193.793162,218.478713 193.498504,218.853064 193.278822,219.208541 C193.046556,219.565066 192.816388,219.924213 192.619774,220.299613 C192.408481,220.668198 192.219732,221.046743 192.036751,221.427387 C191.849575,221.805933 191.685993,222.19444 191.525556,222.583472 C191.224083,223.359964 190.96665,224.149562 190.751687,224.951744 C189.28836,224.097132 187.82346,223.249336 186.345977,222.418842 C184.122937,221.150555 181.86005,219.947282 179.607649,218.727756 C178.885685,218.334005 178.155333,217.953362 177.422883,217.576389 C172.451452,214.301075 167.404521,211.141107 162.311977,208.05559 C152.112207,201.934889 141.696949,196.14712 130.877979,191.050381 C125.456172,188.526392 119.952051,186.137148 114.184729,184.230262 C111.290583,183.299626 108.350822,182.441344 105.191378,182.00827 C103.606414,181.808511 101.971116,181.666425 100.153361,181.957937 L99.798933,182.025572 L99.6626145,182.055457 C99.5184315,182.087964 99.4539423,182.107888 99.3464604,182.138297 C98.9542826,182.258362 98.5731151,182.454975 98.256961,182.69563 C97.6146912,183.182707 97.2461069,183.773595 97.0065009,184.285838 C96.5372507,185.327101 96.4276716,186.218939 96.3448319,187.073027 C96.2079891,188.770192 96.3469291,190.324223 96.5199487,191.861476 C96.7034544,193.393487 96.9551193,194.891417 97.2634089,196.37257 C97.6445764,198.21654 98.0792227,200.036392 98.5469,201.843137 C98.6386528,202.573489 98.7482319,203.30122 98.8724915,204.025806 C99.0046156,204.789713 99.1073788,205.561486 99.2683394,206.319627 L99.7176662,208.60401 L100.232531,210.874237 C100.398734,211.632902 100.590629,212.384227 100.786718,213.135027 L101.384946,215.385331 L102.037702,217.619382 L102.371158,218.735096 L102.528449,219.305012 C102.581403,219.494285 102.642747,219.697715 102.706712,219.891182 C102.952609,220.660857 103.242548,221.407988 103.569713,222.144632 C103.676146,222.375849 103.783628,222.601823 103.893731,222.827273 C103.466949,222.982991 103.023914,223.125601 102.57616,223.279745 L101.798621,223.537178 C101.563733,223.612677 101.265406,223.675069 101.001682,223.745326 C100.454835,223.879023 99.9567479,224.009574 99.4130468,224.12125 C98.8793074,224.24551 98.3418979,224.35037 97.8018669,224.456279 C97.7520583,224.466241 97.7017253,224.47463 97.6519166,224.484591 C97.4899073,224.495602 97.327898,224.50399 97.166413,224.516574 C96.9121266,224.530206 96.6573158,224.563237 96.4030294,224.567431 L95.6391215,224.603084 L94.8736406,224.62458 C94.6177813,224.637687 94.3624463,224.640309 94.1065869,224.637687 C93.8512519,224.637687 93.5943439,224.638736 93.3390089,224.629299 C93.0826252,224.62458 92.8236201,224.631396 92.5677607,224.615142 C91.8442241,224.584209 91.1175416,224.542789 90.3845675,224.467814 C90.2188881,224.043129 90.0500629,223.620017 89.8770432,223.199003 C88.6465066,220.190034 87.1726939,217.295363 85.6511696,214.430053 C84.1181108,211.569986 82.4429661,208.790662 80.7190614,206.040174 C78.9988267,203.287588 77.1679644,200.605784 75.2736615,197.965924 C73.373067,195.341268 71.3791467,192.739158 69.3312234,190.237189 C67.2932618,187.729453 65.2327552,185.253699 63.1942693,182.78948 C59.1309293,177.849507 55.2054807,172.90901 52.1215367,167.523381 C49.0113777,162.15715 46.7605495,156.345788 45.2306364,150.27542 C44.8395072,148.760187 44.4897978,147.230799 44.1788868,145.689351 C44.0221205,144.914957 43.8774131,144.150525 43.7384731,143.369315 C43.6032032,142.598591 43.4731764,141.846218 43.3667431,141.076018 C42.9378641,138.00623 42.7533098,134.874575 42.7166087,131.727191 C42.7139872,131.38587 42.7192302,131.043501 42.7197545,130.701656 C44.8284969,128.21227 58.812678,111.744471 60.7510223,110.452067 C62.84823,109.054278 66.4916041,113.013282 66.7375017,114.249586 C67.2576092,116.871095 66.9996527,119.73326 66.7375017,121.240628 C66.4024728,123.165864 72.504823,117.460935 70.8663794,114.315123 C69.6022875,111.888654 65.1645959,110.666506 65.513781,109.617902 C65.8629661,108.569298 68.7691717,110.033149 72.4392852,111.431463 C76.1093988,112.829776 75.7014919,116.521386 76.6992384,115.822491 C77.6954121,115.123597 76.5241216,110.754065 74.9512158,108.565628 C73.37831,106.377716 68.3104075,107.608253 67.2618037,107.083951 C66.2131998,106.559649 68.3104075,106.20994 71.8054042,105.511045 C75.3014495,104.812151 77.0484235,107.782846 77.5727255,107.782846 C78.0970274,107.782846 78.0970274,106.035347 76.1749365,104.287849 C74.251797,102.539826 71.8054042,101.491222 69.8182999,102.015524 C67.8317199,102.539826 65.1399537,104.681075 65.1399537,104.681075 C65.1399537,104.681075 68.4844758,98.6951201 69.1838945,96.5979124 C69.8833133,94.5007047 70.4076153,93.8018102 68.4844758,94.7051824 C66.5623849,95.6085547 62.9578091,104.375407 62.608624,102.977094 C62.2583903,101.578781 63.5916901,97.7996124 60.2770533,95.636867 C58.7911816,94.6669084 53.6299534,95.374716 53.8045459,95.8990179 C53.9791385,96.4233199 60.2770533,98.1928389 60.6204711,102.714943 C60.7546924,104.491802 60.0033677,107.158402 58.8729727,105.860755 C55.3339347,101.797415 50.8333269,104.462441 49.2604211,105.860755 C47.6875153,107.258544 46.6389114,109.006566 48.2118172,108.482264 C49.784723,107.957962 58.3701672,106.253981 59.069586,107.826887 C59.6997969,109.246172 45.6584668,121.869266 42.9106004,124.320377 C42.9509716,123.628299 42.9944887,122.93622 43.0463946,122.244141 C43.2686986,119.074736 43.6147379,115.903234 44.0614431,112.741169 C44.8987533,106.401834 46.0967832,100.093958 47.5129227,93.8018102 C45.0633841,99.7809494 43.2456293,106.005986 41.7366884,112.314387 C41.024162,115.479074 40.407583,118.672072 39.916312,121.896005 C39.4428674,125.120462 39.0957795,128.376901 38.9573638,131.661128 C38.8068892,134.943783 38.8582707,138.255274 39.1880567,141.575154 C39.2698478,142.401978 39.3689408,143.24191 39.4926761,144.057723 C39.6111683,144.8641 39.7417195,145.684108 39.8801352,146.491009 C40.1574909,148.111626 40.4783637,149.729097 40.8438022,151.340277 C41.597224,154.555821 42.5325787,157.750917 43.7306086,160.861076 C44.9349301,163.967565 46.3662744,167.000127 48.0445649,169.877496 C51.3896112,175.659498 55.5819295,180.783501 59.8376883,185.638537 C61.9621597,188.078638 64.1186136,190.459493 66.2425607,192.85765 C68.3696536,195.251088 70.4196742,197.654488 72.4225076,200.142825 C76.4234556,205.1001 80.2492868,210.224627 83.7605369,215.561497 C85.5373961,218.218135 87.197336,220.949223 88.7597558,223.735364 C89.536247,225.132104 90.2634537,226.554535 90.9188312,228.01157 C91.5029035,229.325995 92.0497504,230.669257 92.335495,232.090639 L89.473855,232.088542 L89.4387268,232.348596 C90.6304651,232.66475 91.8321651,232.928998 93.0433026,233.140816 C94.2533915,233.368363 95.4739664,233.527227 96.7029301,233.672458 C97.933991,233.788329 99.1734408,233.886374 100.439106,233.879558 C101.072987,233.871169 101.712111,233.844429 102.372207,233.765784 C102.668437,233.724364 102.966765,233.683993 103.276103,233.61898 C103.444929,234.066733 103.62057,234.504001 103.806697,234.947561 C104.131764,235.718809 104.481474,236.479571 104.874176,237.219885 C105.262683,237.959151 105.68999,238.691076 106.153472,239.382631 C106.587594,240.03696 106.984491,240.692337 107.306412,241.331461 C107.622042,241.967964 107.803975,242.613379 107.711698,243.007654 C107.669754,243.208462 107.55598,243.400881 107.332103,243.590154 C107.113469,243.778902 106.806753,243.940387 106.473821,244.072511 C105.801142,244.337808 105.01731,244.484088 104.251829,244.574268 C103.469047,244.658157 102.663719,244.667594 101.858391,244.677556 C98.6276425,244.657108 95.3906024,244.31002 92.1498921,243.988623 C88.9086576,243.653594 85.6438294,243.303361 82.3407272,243.316992 C82.0979754,243.317517 81.8546994,243.323808 81.6119476,243.328003 C81.5789165,243.110942 81.5374967,242.881297 81.4787749,242.633303 C81.3303974,242.003616 81.0928886,241.288993 80.7237801,240.55497 C80.6404161,240.367794 80.5229724,240.190056 80.4207336,240.002356 C80.3106302,239.815704 80.1617284,239.596546 80.0442848,239.435061 L79.8670707,239.19126 C79.7637832,239.060709 79.7050614,239.007231 79.6216974,238.911283 C79.4617853,238.744555 79.3186509,238.556855 79.1409125,238.407429 C78.9657957,238.255382 78.7948733,238.097567 78.6166106,237.952859 C78.4325806,237.814968 78.2427833,237.68599 78.0587534,237.554914 C77.67444,237.316357 77.2875052,237.100344 76.8937545,236.939384 C76.7050058,236.859165 76.5167814,236.789433 76.3306542,236.727566 C78.5935413,235.872954 80.9088587,235.096462 83.2461967,234.348808 C83.4213135,234.501904 83.6766486,234.713722 83.9933269,234.942318 C84.3026651,235.16934 84.670725,235.414189 85.0587085,235.669 C85.1121873,235.704128 85.1698605,235.741878 85.2243879,235.777531 C85.2191449,235.991446 85.2175719,236.207458 85.222815,236.424519 C85.2432627,237.158542 85.3203351,237.884176 85.4246712,238.43679 C85.4702855,238.712573 85.5227157,238.946411 85.5583682,239.112615 C85.5950693,239.279343 85.6249545,239.380009 85.6249545,239.380009 C85.6249545,239.380009 85.8666577,239.040786 86.0255212,238.475064 C86.1927735,237.94447 86.2771862,237.232993 86.2698459,236.520991 C86.318606,236.569227 86.3710362,236.624278 86.4292337,236.679854 L86.6772285,236.937811 C86.8402864,237.119219 87.0007228,237.297482 87.1559162,237.469977 C87.4694487,237.824405 87.7625335,238.15524 88.0131499,238.438887 C88.2758251,238.72201 88.494459,238.95847 88.6470309,239.123626 C88.8079916,239.286683 88.9002687,239.380009 88.9002687,239.380009 C88.9002687,239.380009 88.8630433,239.253652 88.7975055,239.033446 C88.7256762,238.815336 88.6098055,238.511241 88.4525149,238.153143 C88.2878841,237.799763 88.0849792,237.391856 87.827547,236.974512 C87.7048603,236.761121 87.5580558,236.554022 87.4065325,236.341679 L87.1653536,236.021855 C87.0882812,235.924335 87.0127818,235.825242 86.8895708,235.704128 C86.6656939,235.476581 86.4412927,235.321388 86.2147942,235.178253 C86.1880548,235.161476 86.1618397,235.14732 86.1351003,235.131591 C86.0837187,234.846895 86.0223754,234.577928 85.9500217,234.348284 C85.8713765,234.073549 85.7806722,233.845478 85.7135616,233.688712 C85.6438294,233.531945 85.5992638,233.438095 85.5992638,233.438095 C85.5992638,233.438095 85.556271,233.529848 85.5064623,233.698149 C85.4566536,233.86645 85.3963589,234.10291 85.3517932,234.384985 C85.3329184,234.485651 85.3182379,234.598376 85.3035575,234.709528 C84.9444106,234.553286 84.5962742,234.424307 84.2864117,234.336749 C84.0756423,234.27593 83.8837478,234.232937 83.7123011,234.199906 C84.0043373,234.107105 84.2948005,234.01273 84.5868367,233.920453 L84.5401739,233.662497 C81.270627,233.908919 78.0346355,234.45262 74.836918,235.294649 C73.2372728,235.720382 71.6517837,236.234722 70.0835967,236.922606 C69.304484,237.279131 68.5290414,237.677601 67.7688036,238.192465 C67.0190519,238.723059 66.2388906,239.31185 65.6626828,240.405544 L65.5793188,240.579612 L65.4996249,240.767836 L65.3675008,241.102865 C65.2841368,241.33251 65.2086373,241.571067 65.1446724,241.822732 C65.0198886,242.325537 64.9454377,242.892832 65.0261802,243.52881 C65.0990582,244.158497 65.3942402,244.855819 65.8535287,245.36177 C66.3065255,245.877159 66.8523238,246.184924 67.3546051,246.398315 C68.3733238,246.813038 69.3092027,246.906888 70.2099534,246.94988 C71.1086069,246.989203 71.9737051,246.933627 72.82255,246.846593 C73.6708705,246.75851 74.5034619,246.635824 75.326616,246.492165 C76.172315,246.340642 76.9042405,246.182302 77.6927906,246.066432 C79.251016,245.82368 80.8344078,245.666914 82.4277614,245.546324 C85.6149928,245.310388 88.8478385,245.146806 92.090646,245.142612 C95.3350263,245.138417 98.5704936,245.339225 101.829554,245.559432 C103.45489,245.653806 105.125316,245.802184 106.882252,245.413152 C107.32319,245.306718 107.778284,245.159914 108.228659,244.885704 C108.67484,244.621456 109.122594,244.173702 109.354336,243.605358 C109.590272,243.040161 109.609671,242.453467 109.55357,241.948564 C109.491179,241.439991 109.360627,240.982276 109.209628,240.550775 C108.911301,239.688823 108.498151,238.930158 108.087098,238.200854 C107.701212,237.508776 107.326336,236.827707 106.965092,236.128289 C106.250993,234.742559 105.543709,233.288669 105.021505,231.866238 L104.553303,230.591136 L103.428151,231.238649 C103.132445,231.408523 102.588744,231.575251 102.053956,231.672771 C101.906627,231.701083 101.751958,231.720482 101.600434,231.743027 C101.602007,231.585737 101.605677,231.42897 101.609348,231.272204 C101.616688,230.912533 101.643952,230.552338 101.676458,230.194239 C101.713159,229.83719 101.741996,229.48748 101.789707,229.118896 C101.807534,228.932769 101.843186,228.773905 101.873596,228.591448 L101.970592,228.060855 C102.033508,227.706427 102.101143,227.351999 102.174021,226.99757 L102.41153,225.816318 C102.636455,225.803211 102.860856,225.789054 103.08683,225.767558 C103.668281,225.719322 104.247111,225.631764 104.842718,225.520088 C105.138948,225.457171 105.439373,225.385866 105.751333,225.298308 C105.908623,225.251645 106.06906,225.206031 106.238934,225.13892 C106.324395,225.105889 106.411953,225.070761 106.509473,225.026719 L106.665715,224.951744 C106.746458,224.905081 106.746982,224.918189 106.945693,224.780822 L107.975422,224.067771 L107.350454,222.793718 C107.05999,222.201781 106.725486,221.510751 106.43345,220.852752 C106.128306,220.188986 105.835221,219.514209 105.548428,218.843102 L105.122695,217.824384 L104.759878,216.743273 L104.020088,214.584198 L103.330631,212.409393 C103.216857,212.060208 103.104657,211.710499 102.995078,211.360265 C102.529497,209.101573 102.078598,206.84288 101.67174,204.579993 C101.135379,201.681127 100.640962,198.777019 100.302787,195.881824 C100.139205,194.433702 99.9913518,192.991871 99.9189981,191.56944 C99.8482174,190.154349 99.849266,188.73087 100.020188,187.475691 C100.103028,186.861209 100.26294,186.268223 100.438057,185.968323 C100.45431,185.937913 100.469515,185.915892 100.484196,185.894396 L100.540296,185.885483 C100.642011,185.868705 100.663507,185.870803 100.733763,185.860841 C101.861537,185.73763 103.216333,185.866084 104.5554,186.107263 C107.258177,186.611117 110.018626,187.478837 112.735559,188.453514 C115.456162,189.440774 118.166803,190.526079 120.850704,191.6937 C123.539849,192.849786 126.215886,194.059874 128.873048,195.320821 C139.514804,200.341536 150.007135,205.800568 160.493173,211.289485 C166.588183,214.475667 172.673232,217.693833 178.778728,220.892599 L191.091958,229.257836 L193.129396,230.641993 L193.442928,229.405165 C195.14691,230.615778 196.897554,231.895075 198.679656,233.272416 C201.582716,235.514331 204.592209,237.939752 207.488977,240.654587 C208.929759,242.016199 210.338558,243.451214 211.671334,244.9633 C212.006363,245.351284 212.34244,245.739792 212.679566,246.129872 C212.998866,246.51471 213.393141,246.958269 213.77326,247.357263 C214.533498,248.159445 215.347739,248.919159 216.215458,249.629063 C217.949849,251.04363 219.890815,252.285701 222.107564,253.092078 C223.210695,253.500509 224.383558,253.802507 225.628251,253.90894 C226.864555,254.014849 228.197331,253.917853 229.47453,253.437068 C230.106838,253.193792 230.730233,252.878162 231.275507,252.454526 C231.54762,252.246903 231.810295,252.01988 232.044134,251.774507 L232.219251,251.588904 L232.306285,251.496103 L232.349802,251.448915 C232.331451,251.472509 232.423728,251.364503 232.424777,251.361881 L232.675918,251.0473 C233.495926,250.009182 234.031762,248.881933 234.412406,247.689671 C235.144855,245.301475 235.027936,242.78168 234.394579,240.528755" id="Fill-19"></path>
                    <path d="M219.362633,235.693957 C219.691371,235.564979 219.99599,235.394056 220.301658,235.283953 C220.607326,235.175422 220.890973,235.041725 221.160989,234.947875 C221.432577,234.863463 221.682145,234.774331 221.904973,234.694113 C222.127802,234.616516 222.328085,234.576145 222.492191,234.525288 C222.821453,234.430914 223.013872,234.366949 223.013872,234.366949 C223.013872,234.366949 222.819356,234.342306 222.470695,234.317664 C222.297675,234.312421 222.080614,234.27939 221.838911,234.298265 C221.596684,234.312421 221.321425,234.330248 221.020476,234.36223 C220.720575,234.395261 220.403897,234.466566 220.065198,234.537871 C219.724402,234.603933 219.382032,234.721901 219.022361,234.835675 C218.664263,234.951545 218.307213,235.100447 217.942299,235.25197 C217.850022,235.292342 217.759318,235.33848 217.667565,235.382522 C217.733103,235.192724 217.798116,235.005548 217.876237,234.828859 C218.024615,234.50851 218.126854,234.174006 218.271037,233.883018 C218.417317,233.593603 218.528993,233.301043 218.65902,233.046232 C218.797436,232.797189 218.915404,232.560729 219.020788,232.348386 C219.128795,232.138141 219.24519,231.970365 219.328554,231.820414 C219.501049,231.524708 219.595948,231.344872 219.595948,231.344872 C219.595948,231.344872 219.438133,231.461792 219.16969,231.685144 C219.040712,231.801015 218.861401,231.927372 218.699916,232.108256 C218.534761,232.285994 218.348109,232.489423 218.153069,232.720116 C217.959077,232.951333 217.779241,233.222398 217.584201,233.508142 C217.383918,233.791265 217.218238,234.113711 217.03683,234.444021 C216.858567,234.775904 216.703374,235.130332 216.545035,235.491576 C216.462195,235.69186 216.386695,235.896862 216.313293,236.103437 C216.157051,236.19519 216.002382,236.287991 215.854005,236.388133 C215.526316,236.601524 215.211211,236.823828 214.915504,237.048229 C214.611933,237.263193 214.338772,237.497556 214.080291,237.719335 C213.816043,237.932726 213.587972,238.16237 213.371959,238.365275 C212.517872,239.191575 212.070118,239.857439 212.070118,239.857439 C212.070118,239.857439 212.75538,239.451105 213.741592,238.837147 C214.235485,238.537246 214.812217,238.187013 215.429844,237.812137 C215.572979,237.720384 215.723978,237.633874 215.876025,237.547889 C215.858723,237.617096 215.837227,237.686829 215.822022,237.756561 C215.732891,238.137728 215.658964,238.51575 215.600767,238.882761 C215.53051,239.247675 215.494858,239.606298 215.461303,239.944473 C215.417786,240.281599 215.412542,240.605093 215.396813,240.901324 C215.351199,242.088868 215.488566,242.879515 215.488566,242.879515 C215.488566,242.879515 215.701957,242.111937 215.989799,240.986785 C216.139225,240.428403 216.313818,239.776696 216.500469,239.07885 C216.584882,238.729665 216.70652,238.378907 216.80404,238.01609 C216.905754,237.654846 217.027392,237.294126 217.13435,236.928688 C217.147458,236.889365 217.161089,236.850043 217.174197,236.810196 C217.241308,236.772446 217.307894,236.735745 217.37448,236.697471 C217.710558,236.521305 218.046635,236.34514 218.376946,236.171596 C218.717218,236.021121 219.034945,235.829227 219.362633,235.693957" id="Fill-21"></path>
                    <path d="M212.82139,232.475582 C213.112902,232.345555 213.385014,232.17673 213.665516,232.059286 C213.94759,231.946561 214.208169,231.795562 214.469795,231.697518 C214.731422,231.601046 214.973649,231.481505 215.204867,231.396044 C215.437657,231.319496 215.650523,231.237705 215.841893,231.164303 C216.033264,231.092998 216.20471,231.053151 216.345748,231.005439 C216.628871,230.915784 216.795074,230.85444 216.795074,230.85444 C216.795074,230.85444 216.626773,230.827177 216.324251,230.797816 C216.174301,230.789427 215.986076,230.755872 215.775831,230.768455 C215.565586,230.776319 215.32598,230.786281 215.064354,230.810399 C214.803776,230.834517 214.527468,230.89219 214.232811,230.951436 C213.936056,231.005439 213.638252,231.103484 213.325768,231.20048 C212.985496,231.310583 212.64103,231.446901 212.298661,231.599473 C212.335886,231.490943 212.372063,231.381888 212.416629,231.279649 C212.542461,231.003866 212.625825,230.713927 212.746939,230.462787 C212.869626,230.21217 212.961903,229.957884 213.069909,229.736629 C213.185255,229.520616 213.282251,229.313517 213.369285,229.127914 C213.458941,228.944408 213.554888,228.79708 213.624096,228.664955 C213.766182,228.404377 213.843779,228.24499 213.843779,228.24499 C213.843779,228.24499 213.70379,228.341985 213.464708,228.529686 C213.350411,228.62773 213.191547,228.733639 213.048413,228.887784 C212.901608,229.039307 212.735929,229.212327 212.563433,229.410513 C212.391462,229.608175 212.232075,229.840965 212.060104,230.087387 C211.882889,230.331711 211.735561,230.608543 211.577221,230.894812 C211.342858,231.329982 211.143099,231.810243 210.962215,232.300465 C210.83114,232.378062 210.701113,232.456183 210.576853,232.540595 C210.293206,232.726198 210.022666,232.921763 209.767855,233.117852 C209.251942,233.503214 208.808383,233.911121 208.445042,234.274986 C207.716786,235.003242 207.346629,235.595703 207.346629,235.595703 C207.346629,235.595703 207.954295,235.262247 208.814675,234.746858 C209.244078,234.49362 209.74531,234.198438 210.281671,233.88176 C210.359792,233.832475 210.443156,233.786861 210.524423,233.740722 C210.52285,233.748063 210.520229,233.755927 210.518656,233.763792 C210.442108,234.094102 210.381289,234.422315 210.333053,234.740566 C210.227144,235.375496 210.18887,235.97687 210.17786,236.490686 C210.155315,237.520939 210.297925,238.204629 210.297925,238.204629 C210.297925,238.204629 210.506073,237.544009 210.771369,236.576147 C210.906115,236.096411 211.06393,235.536457 211.232755,234.936655 C211.30773,234.63623 211.415736,234.335281 211.500673,234.023321 C211.595048,233.715032 211.690995,233.401499 211.786942,233.088491 L211.812109,233.012991 C211.861393,232.985203 211.910677,232.957415 211.959962,232.930152 C212.248852,232.77758 212.537218,232.625532 212.82139,232.475582" id="Fill-23"></path>
                    <path d="M86.6238546,233.225072 C86.6238546,233.225072 87.0380531,233.5795 87.7096839,233.981115 C87.9844181,234.150464 88.3094853,234.328727 88.6555246,234.505417 C88.7226352,234.92748 88.8138638,235.375234 88.927113,235.820366 C89.1289692,236.600527 89.3811585,237.360241 89.6118513,237.927011 C89.7214304,238.211707 89.8220964,238.448692 89.8934014,238.619614 C89.9610364,238.789488 90.0097965,238.892775 90.0097965,238.892775 C90.0097965,238.892775 90.0496434,238.792109 90.1015493,238.605982 C90.1466393,238.421428 90.196448,238.150888 90.2064097,237.832637 C90.2473053,237.191416 90.1476879,236.3583 89.9426858,235.560837 C89.8970716,235.385195 89.84569,235.2127 89.7916869,235.042302 C89.944783,235.108888 90.0973549,235.176523 90.2541212,235.238915 C90.4937272,235.331192 90.7322845,235.426091 90.9713662,235.508406 C91.0882856,235.551923 91.2099236,235.590198 91.3278915,235.625326 C91.4290818,235.664124 91.5271263,235.692961 91.6298894,235.737526 C92.0430394,235.904254 92.427877,236.094052 92.7634302,236.266023 C93.4250993,236.620975 93.8953981,236.892039 93.8953981,236.892039 C93.8953981,236.892039 93.6893474,236.380845 93.1309659,235.789432 C92.8551831,235.492677 92.4907932,235.178096 92.0430394,234.911751 C91.932936,234.844116 91.8034334,234.780675 91.6796981,234.714613 C91.5669732,234.659037 91.453724,234.609229 91.3357561,234.558896 C91.1050632,234.454035 90.8670301,234.358088 90.6289971,234.260044 C90.1838647,234.081781 89.7329651,233.926063 89.2993674,233.790793 C89.2411698,233.671252 89.1834966,233.551712 89.1247748,233.446327 C88.83169,232.894237 88.5506642,232.553441 88.5506642,232.553441 C88.5506642,232.553441 88.5349351,232.662496 88.5286435,232.851244 C88.5234005,233.030031 88.5244491,233.281172 88.5475184,233.570062 C88.3283602,233.512389 88.1186394,233.462056 87.9241234,233.421685 C87.1638856,233.251811 86.6238546,233.225072 86.6238546,233.225072" id="Fill-25"></path>
                    <path d="M220.778039,144.52388 C220.778039,144.525977 220.778039,144.525453 220.778039,144.52755 C220.775942,144.531745 220.77699,144.528075 220.778039,144.52388 M217.172414,146.345305 C217.17556,146.35684 217.177133,146.368374 217.178182,146.379909 C217.177657,146.372569 217.17923,146.386725 217.180279,146.407697 C217.178182,146.401405 217.17556,146.39459 217.173463,146.388298 C217.165598,146.359461 217.148821,146.28134 217.172414,146.345305 M220.407882,138.14365 C220.407882,138.14365 220.597155,138.169341 220.944767,138.249559 C221.291855,138.326107 221.797282,138.462426 222.43326,138.638591 C223.067141,138.819999 223.835243,139.058557 224.668883,139.377332 C225.052672,139.530953 225.463725,139.708691 225.810813,139.923131 C225.795084,139.926277 225.780928,139.930471 225.764674,139.933092 C225.523496,139.97661 225.250334,140.003873 224.966687,140.020651 C224.396246,140.053682 223.779143,140.045817 223.136349,140.03271 C222.809184,140.025894 222.477301,140.019078 222.141748,140.012262 C221.969253,140.010165 221.79466,140.009116 221.60696,140.014359 L221.311254,140.029564 L221.139807,140.047915 L221.03652,140.065741 L220.985138,140.075178 C220.949485,140.083567 220.907017,140.095626 220.868219,140.108209 C220.802681,140.127609 220.685762,140.181087 220.671081,140.190525 L220.642769,140.206254 L220.628613,140.213594 C220.427281,140.34834 220.469225,140.342048 220.387434,140.426461 C220.291487,140.540758 220.215463,140.737372 220.212841,140.921926 C220.212317,140.989561 220.219133,141.048807 220.231716,141.112248 C220.244299,141.174115 220.267369,141.241226 220.27733,141.261149 C220.299875,141.318298 220.344441,141.400089 220.365413,141.428402 L220.436718,141.524349 C220.591387,141.698417 220.676324,141.749799 220.769126,141.822677 C220.945291,141.951131 221.101533,142.047602 221.259348,142.144598 C221.57288,142.335968 221.880646,142.511085 222.189984,142.687775 C223.416326,143.390339 224.68671,144.098671 225.786171,144.952235 C226.055662,145.165626 226.31257,145.389503 226.520194,145.61705 C226.563186,145.664237 226.600936,145.710375 226.637113,145.755465 C226.432111,145.719289 226.214525,145.671053 225.994319,145.609185 C224.623269,145.213862 223.235966,144.61406 221.840274,144.066689 C221.485846,143.928798 221.139283,143.791955 220.739765,143.666647 C220.635953,143.635713 220.531617,143.604779 220.393201,143.576467 C220.315604,143.563883 220.254785,143.547106 220.103262,143.545533 L220.051356,143.546057 L219.962225,143.55497 C219.904552,143.564932 219.85684,143.565981 219.721046,143.622081 C219.658654,143.651966 219.626147,143.665598 219.548551,143.722223 C219.43635,143.805587 219.328868,143.942954 219.275914,144.083991 C219.211425,144.282177 219.243407,144.203532 219.23397,144.228174 C219.227678,144.322548 219.242883,144.041522 219.219289,144.443662 C219.238688,144.580505 219.277487,144.722591 219.330441,144.851569 C219.37291,144.942273 219.399649,144.977926 219.43635,145.042939 C219.509228,145.170869 219.570571,145.249514 219.632963,145.334451 C220.127904,145.98878 220.598727,146.490537 221.049103,147.034762 C221.494759,147.565356 221.919444,148.093328 222.244511,148.607144 C222.29432,148.68107 222.333643,148.752375 222.372441,148.82368 C222.358809,148.817913 222.344129,148.813194 222.331021,148.807427 C222.069919,148.699945 221.805671,148.573588 221.546141,148.442513 C221.026558,148.175643 220.525325,147.890947 220.04821,147.605727 C219.557988,147.339382 219.14379,146.990197 218.681355,146.764747 C218.214727,146.5372 217.772216,146.321187 217.356444,146.118282 C217.239525,146.061658 217.124703,146.005557 217.011978,145.95103 C216.966888,145.929009 216.90869,145.90227 216.891913,145.898076 L216.754021,145.855607 C216.637626,145.829916 216.46251,145.854559 216.345066,145.931631 C216.21399,146.018141 216.183057,146.077911 216.15422,146.128244 C216.121189,146.188015 216.096022,146.257747 216.085012,146.326955 C216.072429,146.385676 216.078721,146.489488 216.080293,146.477954 L216.09445,146.552929 C216.142161,146.723851 216.170998,146.745348 216.204553,146.815604 C216.331958,147.033189 216.450975,147.204112 216.573137,147.371888 C216.81484,147.703771 217.04029,147.997905 217.245292,148.263726 C217.651626,148.795892 217.99452,149.196459 218.221018,149.474339 C218.450662,149.750122 218.572825,149.896926 218.572825,149.896926 C218.572825,149.896926 218.298615,149.231063 217.820452,148.06921 C217.827267,148.074977 217.833559,148.08022 217.840899,148.085988 C218.250379,148.415249 218.758428,148.641223 219.242358,148.956329 C219.738348,149.252559 220.264223,149.55246 220.832566,149.844496 C221.119359,149.988679 221.41559,150.131289 221.738036,150.264462 C222.074113,150.390295 222.379781,150.533953 222.929774,150.574325 C222.99636,150.578519 223.069763,150.580616 223.17305,150.565411 C223.27057,150.550731 223.347118,150.548109 223.487631,150.488339 C223.713081,150.425423 224.036575,150.121852 224.101589,149.857604 L224.135668,149.752743 C224.147203,149.679341 224.131474,149.841875 224.164505,149.575529 L224.165029,149.5598 L224.166078,149.497933 L224.168699,149.374197 L224.170272,149.311805 L224.15664,149.198032 C224.14563,149.119911 224.131474,149.040741 224.115221,148.962096 C223.965795,148.378024 223.782813,148.124262 223.57886,147.774028 C223.17305,147.134904 222.716907,146.577047 222.2529,146.022335 C222.212005,145.973051 222.169012,145.923242 222.127068,145.873958 C223.226529,146.31542 224.352729,146.771038 225.570683,147.124418 C225.963385,147.230851 226.355038,147.333614 226.839493,147.371364 C227.087488,147.377131 227.348591,147.413308 227.779042,147.237143 C227.989288,147.151682 228.26874,146.9126 228.375174,146.615321 C228.433896,146.471138 228.451722,146.33377 228.455916,146.221046 C228.456965,146.164945 228.458538,146.101505 228.452246,146.057463 L228.444382,145.984585 L228.439663,145.948933 L228.428128,145.880249 C228.42341,145.834635 228.352104,145.577203 228.300199,145.471294 C228.243574,145.340743 228.180133,145.221726 228.112498,145.115293 C227.977753,144.900853 227.831473,144.721542 227.683095,144.557436 C227.384243,144.231844 227.073332,143.966023 226.7598,143.71698 C225.671873,142.875475 224.550915,142.227962 223.470853,141.609286 C224.001447,141.617675 224.529419,141.62082 225.057391,141.590411 C225.384031,141.571012 225.710147,141.541127 226.04937,141.479783 C226.388594,141.410051 226.741449,141.345038 227.172425,141.062439 C227.280431,140.980648 227.392108,140.897808 227.495919,140.755198 C227.547301,140.685466 227.596585,140.62255 227.634859,140.533943 L227.688863,140.406013 L227.712456,140.340999 C227.712456,140.352534 227.763313,140.108209 227.742341,140.206254 L227.743914,140.193671 C227.748633,140.146483 227.752827,140.152251 227.758595,140.063119 C227.762789,139.926277 227.746536,139.778423 227.710883,139.649445 C227.680474,139.565033 227.644297,139.481669 227.603401,139.401975 C227.562506,139.324902 227.52161,139.277191 227.478093,139.215323 C227.129957,138.784871 226.829007,138.677914 226.533301,138.563616 C225.952899,138.366478 225.446423,138.289406 224.966163,138.217577 C224.012457,138.085452 223.192973,138.061335 222.518721,138.0498 C221.169692,138.033547 220.407882,138.14365 220.407882,138.14365" id="Fill-27"></path>
                </g>
            </g>
        </g>
    </g>
</svg>