<?xml version="1.0" encoding="UTF-8"?>
<svg width="11px" height="11px" viewBox="0 0 11 11" version="1.1" xmlns="http://www.w3.org/2000/svg" xmlns:xlink="http://www.w3.org/1999/xlink">
    <!-- Generator: sketchtool 47 (45396) - http://www.bohemiancoding.com/sketch -->
    <title>F640F93A-4B78-4F2A-BD81-DB31A69BBEA1</title>
    <desc>Created with sketchtool.</desc>
    <defs></defs>
    <g id="Page-1" stroke="none" stroke-width="1" fill="none" fill-rule="evenodd">
        <g id="главная-copy" transform="translate(-968.000000, -643.000000)" fill-rule="nonzero" fill="#6A7886">
            <g id="Group-7" transform="translate(664.000000, 584.000000)">
                <g id="Group-9" transform="translate(309.759272, 64.607394) rotate(45.000000) translate(-309.759272, -64.607394) translate(303.259272, 58.107394)">
                    <path d="M5.49838778,1.24278741 L5.49838778,11.969486 C5.49838778,12.5217707 5.94610303,12.969486 6.49838778,12.969486 C7.05067253,12.969486 7.49838778,12.5217707 7.49838778,11.969486 L7.49838778,1.24278741 C7.49838778,0.690502664 7.05067253,0.242787414 6.49838778,0.242787414 C5.94610303,0.242787414 5.49838778,0.690502664 5.49838778,1.24278741 Z" id="Line-3"></path>
                    <path d="M11.7266985,5.63941457 L1,5.63941457 C0.44771525,5.63941457 -5.68434189e-13,6.08712982 -5.68434189e-13,6.63941457 C-5.68434189e-13,7.19169932 0.44771525,7.63941457 1,7.63941457 L11.7266985,7.63941457 C12.2789833,7.63941457 12.7266985,7.19169932 12.7266985,6.63941457 C12.7266985,6.08712982 12.2789833,5.63941457 11.7266985,5.63941457 Z" id="Line-3-Copy"></path>
                </g>
            </g>
        </g>
    </g>
</svg>