<?xml version="1.0" encoding="UTF-8"?>
<svg width="115px" height="112px" viewBox="0 0 115 112" version="1.1" xmlns="http://www.w3.org/2000/svg" xmlns:xlink="http://www.w3.org/1999/xlink">
    <!-- Generator: sketchtool 51.2 (57519) - http://www.bohemiancoding.com/sketch -->
    <title>73C96D93-1071-44A7-9FD9-349F6E985117</title>
    <desc>Created with sketchtool.</desc>
    <defs>
        <filter x="-53.5%" y="-74.7%" width="207.0%" height="249.3%" filterUnits="objectBoundingBox" id="filter-1">
            <feGaussianBlur stdDeviation="13.6383929" in="SourceGraphic"></feGaussianBlur>
        </filter>
        <path d="M21.1257679,77.3318577 C43.5831895,80.3025964 37.2659891,49.6234421 61.7068956,54.6613358 C86.147802,59.6992296 93.4686885,22.5173221 72.5667146,8.01460097 C66.3331627,3.68948479 41.9002943,-6.64108994 22.0708796,6.64062995 C-14.6477851,31.2347508 1.8307315,74.7794493 21.1257679,77.3318577 Z" id="path-2"></path>
        <linearGradient x1="85.6964802%" y1="21.3591705%" x2="21.5607418%" y2="81.2174205%" id="linearGradient-4">
            <stop stop-color="#FFB815" offset="0%"></stop>
            <stop stop-color="#FF7800" offset="100%"></stop>
        </linearGradient>
    </defs>
    <g id="Page-1" stroke="none" stroke-width="1" fill="none" fill-rule="evenodd">
        <g id="выдача-по-стране" transform="translate(-1099.000000, -1108.000000)">
            <rect fill="#FFFFFF" x="0" y="0" width="1920" height="11551"></rect>
            <g id="Group-36" transform="translate(1110.000000, 1101.000000)">
                <g id="Group-3">
                    <g id="Group-13">
                        <ellipse id="Oval-2-Copy-4" fill="#FF9B28" opacity="0.337444196" filter="url(#filter-1)" cx="49.862069" cy="71.1624925" rx="38.2482759" ry="27.395647"></ellipse>
                        <g id="Trading">
                            <rect id="Boundary" fill-rule="nonzero" x="0" y="0" width="93.6132831" height="92.9720392"></rect>
                            <g id="Group-12" transform="translate(4.380917, 7.556841)" opacity="0.5">
                                <g id="Group-4">
                                    <g id="Group-23">
                                        <mask id="mask-3" fill="white">
                                            <use xlink:href="#path-2"></use>
                                        </mask>
                                        <use id="Path-10" fill="#FFD15D" fill-rule="nonzero" transform="translate(42.508871, 38.814566) scale(-1, -1) translate(-42.508871, -38.814566) " xlink:href="#path-2"></use>
                                        <path d="M9.45614887,20.3478566 C3.76864234,23.7064524 3.07691858,28.1336924 7.38097757,33.6295765 C13.8370661,41.8734026 5.53379013,67.978852 16.6013704,72.5587554 C27.6689507,77.1386589 20.9822876,38.2421935 35.2779121,50.1499423 C49.5735366,62.0576912 99.6082224,49.2339617 71.7086971,24.7314784 C43.8091719,0.22899517 90.1546642,9.84679233 80.0093823,-5.26688892 C73.2458611,-15.3426764 79.3185221,-1.69020245 98.2273656,35.690533 L77.9368018,76.2226782 L14.7593644,94.5422918 C1.23232187,84.7718312 -5.45434121,79.6576057 -5.30062482,79.1996154 C-5.14690843,78.741625 -2.61058795,59.1243721 2.30833661,20.3478566 L9.45614887,20.3478566 Z" id="Path-12" fill="url(#linearGradient-4)" fill-rule="nonzero" mask="url(#mask-3)"></path>
                                    </g>
                                </g>
                            </g>
                        </g>
                    </g>
                    <g id="online-booking" transform="translate(44.674419, 18.302326)" fill="#FFFFFF" fill-rule="nonzero">
                        <path d="M3.30087017,2.14561717 L1.58571302,2.14561717 C1.11211397,2.14561717 0.728085868,1.76169709 0.728085868,1.28801431 C0.728085868,0.814331534 1.11201683,0.430411449 1.58571302,0.430411449 L3.30087017,0.430411449 C3.77446921,0.430411449 4.15849732,0.814331534 4.15849732,1.28801431 C4.15849732,1.76169709 3.77446921,2.14561717 3.30087017,2.14561717 Z" id="Shape"></path>
                    </g>
                </g>
                <g id="hotel" transform="translate(19.000000, 10.000000)" fill-rule="nonzero">
                    <g id="Group" transform="translate(0.000000, 18.000000)" fill="#8CCAFF">
                        <rect id="Rectangle-path" x="0" y="0.0425648872" width="12.1458691" height="36.7760626"></rect>
                        <rect id="Rectangle-path" x="42.8541309" y="0.0425648872" width="12.1458691" height="36.7760626"></rect>
                    </g>
                    <path d="M0,19 L55,19 C55,17.3636596 53.8541309,16 52.4791309,16 L2.52086914,16 C1.14586914,16 0,17.3636596 0,19 Z" id="Shape" fill="#FF7058"></path>
                    <rect id="Rectangle-path" fill="#B8E5FF" x="12" y="12" width="31" height="43"></rect>
                    <path d="M44.7280515,9 L10.2718401,9 C9.57808943,9 9,9.68176588 9,10.4999361 C9,11.3181063 9.57808943,12 10.2718401,12 L44.7281599,12 C45.4219106,12 46,11.3182341 46,10.5000639 C46,9.68189372 45.4218022,9 44.7280515,9 Z" id="Shape" fill="#FF7058"></path>
                    <g id="Group" transform="translate(3.000000, 21.000000)" fill="#0577C3">
                        <rect id="Rectangle-path" x="0" y="0.042298382" width="5.25717857" height="5.75257995"></rect>
                        <rect id="Rectangle-path" x="0" y="8.05075678" width="5.25717857" height="5.75257995"></rect>
                        <rect id="Rectangle-path" x="0" y="16.0593209" width="5.25717857" height="5.75257995"></rect>
                        <rect id="Rectangle-path" x="0" y="24.0677793" width="5.25717857" height="5.75257995"></rect>
                        <rect id="Rectangle-path" x="42.7428214" y="0.042298382" width="5.25717857" height="5.75257995"></rect>
                        <rect id="Rectangle-path" x="42.7428214" y="8.05075678" width="5.25717857" height="5.75257995"></rect>
                        <rect id="Rectangle-path" x="42.7428214" y="16.0593209" width="5.25717857" height="5.75257995"></rect>
                        <rect id="Rectangle-path" x="42.7428214" y="24.0677793" width="5.25717857" height="5.75257995"></rect>
                    </g>
                    <rect id="Rectangle-path" fill="#0577C3" x="16" y="31" width="6" height="6"></rect>
                    <rect id="Rectangle-path" fill="#40596B" x="21" y="41" width="12" height="14"></rect>
                    <rect id="Rectangle-path" fill="#099EEE" x="0" y="53" width="55" height="2"></rect>
                    <g id="Group" transform="translate(16.000000, 15.000000)" fill="#0577C3">
                        <rect id="Rectangle-path" x="0.00724324324" y="0.0921449275" width="5.76572973" height="5.78164251"></rect>
                        <rect id="Rectangle-path" x="0.00724324324" y="8.1410628" width="5.76572973" height="5.78164251"></rect>
                        <rect id="Rectangle-path" x="9.11708108" y="0.0921449275" width="5.76572973" height="5.78164251"></rect>
                        <rect id="Rectangle-path" x="9.11708108" y="8.1410628" width="5.76572973" height="5.78164251"></rect>
                        <rect id="Rectangle-path" x="9.11708108" y="16.1899807" width="5.76572973" height="5.78164251"></rect>
                        <rect id="Rectangle-path" x="18.227027" y="0.0921449275" width="5.76572973" height="5.78164251"></rect>
                        <rect id="Rectangle-path" x="18.227027" y="8.1410628" width="5.76572973" height="5.78164251"></rect>
                        <rect id="Rectangle-path" x="18.227027" y="16.1899807" width="5.76572973" height="5.78164251"></rect>
                    </g>
                    <g id="Group" transform="translate(12.000000, 0.000000)" fill="#40596B">
                        <polygon id="Shape" points="4.31677852 0.113166667 5.80585235 0.113166667 5.80585235 6.78787879 4.31677852 6.78787879 4.31677852 4.18589394 1.56778523 4.18589394 1.56778523 6.78787879 0.0787114094 6.78787879 0.0787114094 0.113166667 1.56778523 0.113166667 1.56778523 2.94148485 4.31677852 2.94148485"></polygon>
                        <path d="M13.1364295,5.88286364 C12.4491812,6.56165152 11.6473557,6.90104545 10.6164832,6.90104545 C9.58561074,6.90104545 8.78378523,6.56165152 8.09653691,5.88286364 C7.40928859,5.20407576 7.06566443,4.41212121 7.06566443,3.39393939 C7.06566443,2.37575758 7.40928859,1.58380303 8.09653691,0.905015152 C8.78389262,0.339393939 9.58571812,0 10.6165906,0 C11.6474631,0 12.4492886,0.339393939 13.1365369,1.01818182 C13.8237852,1.6969697 14.1674094,2.48892424 14.1674094,3.50710606 C14.167302,4.41212121 13.8236779,5.31713636 13.1364295,5.88286364 Z M12.6783356,3.50710606 C12.6783356,2.94148485 12.4492886,2.37575758 12.1056644,1.92330303 C11.7620403,1.47074242 11.1893691,1.24451515 10.6165906,1.24451515 C10.0438121,1.24451515 9.58571812,1.47074242 9.12751678,1.92330303 C8.78389262,2.37586364 8.55484564,2.82831818 8.55484564,3.50710606 C8.55484564,4.18589394 8.78389262,4.63834848 9.12751678,4.97774242 C9.58571812,5.43030303 10.0438121,5.6565303 10.6165906,5.6565303 C11.1892617,5.6565303 11.6474631,5.43030303 12.1056644,4.97774242 C12.5638658,4.52518182 12.6783356,4.07272727 12.6783356,3.50710606 Z" id="Shape"></path>
                        <polygon id="Shape" points="18.1763221 1.47074242 18.1763221 6.90104545 16.6872483 6.90104545 16.6872483 1.47074242 14.7400805 1.47074242 14.7400805 0.113166667 20.1234899 0.113166667 20.1234899 1.35757576 18.1763221 1.35757576"></polygon>
                        <polygon id="Shape" points="26.0796779 0.113166667 26.0796779 1.47074242 22.6434362 1.47074242 22.6434362 2.82831818 25.7360537 2.82831818 25.7360537 4.07272727 22.6434362 4.07272727 22.6434362 5.43030303 26.0796779 5.43030303 26.0796779 6.78787879 21.0398926 6.78787879 21.0398926 0.113166667"></polygon>
                        <polygon id="Shape" points="27.5686443 6.90104545 27.5686443 0.113166667 29.0577181 0.113166667 29.0577181 5.43030303 31.9212886 5.43030303 31.9212886 6.78787879 27.5687517 6.78787879 27.5687517 6.90104545"></polygon>
                    </g>
                </g>
            </g>
        </g>
    </g>
</svg>