<svg xmlns="http://www.w3.org/2000/svg" xmlns:xlink="http://www.w3.org/1999/xlink" width="115" height="112" viewBox="0 0 115 112">
    <defs>
        <filter id="a" width="187.1%" height="231.5%" x="-43.6%" y="-65.8%" filterUnits="objectBoundingBox">
            <feGaussianBlur in="SourceGraphic" stdDeviation="12.179"/>
        </filter>
        <path id="b" d="M7.023 23.326L44.063 1.99C50.635-1.795 59.038.45 62.832 7.007l21.385 36.955c3.794 6.557 1.542 14.94-5.03 18.726l-37.04 21.336c-6.57 3.785-14.974 1.538-18.768-5.018L1.994 42.051C-1.8 35.495.452 27.111 7.024 23.326z"/>
        <linearGradient id="c" x1="85.696%" x2="21.561%" y1="21.359%" y2="81.217%">
            <stop offset="0%" stop-color="#28BBFF"/>
            <stop offset="100%" stop-color="#3198FF"/>
        </linearGradient>
        <linearGradient id="e" x1="50%" x2="50%" y1=".876%" y2="97.269%">
            <stop offset="0%" stop-color="#883BEB"/>
            <stop offset="100%" stop-color="#1047C0"/>
        </linearGradient>
        <linearGradient id="f" x1="83.935%" x2="30.045%" y1="-28.577%" y2="122.402%">
            <stop offset="0%" stop-color="#FFEF85"/>
            <stop offset="100%" stop-color="#FF936B"/>
        </linearGradient>
        <linearGradient id="g" x1="83.935%" x2="30.045%" y1="-28.577%" y2="122.402%">
            <stop offset="0%" stop-color="#FFC20B"/>
            <stop offset="100%" stop-color="#FA2"/>
        </linearGradient>
        <path id="h" d="M8.049.5h43.336v51.66H8.049z"/>
    </defs>
    <g fill="none" fill-rule="evenodd">
        <path fill="#FFF" d="M-1099-980H821v11551h-1920z"/>
        <g transform="translate(10 -2)">
            <ellipse cx="45.483" cy="70.192" fill="#28BAFF" filter="url(#a)" opacity=".258" rx="41.931" ry="27.781"/>
            <path d="M0 0h95v94.782H0z"/>
            <g opacity=".5" transform="translate(2.972 2.638)">
                <mask id="d" fill="#fff">
                    <use xlink:href="#b"/>
                </mask>
                <use fill="#7CF" fill-rule="nonzero" xlink:href="#b"/>
                <path fill="url(#c)" fill-rule="nonzero" d="M-3.102 27.637c25.558 22.7 44.69 31.47 57.395 26.31C67 48.79 75.715 38.546 80.443 23.216L96.62 53.727C75.247 80.926 62.15 93.69 57.327 92.02 48.48 79.14 42.069 72.124 38.092 70.972c-11.052-3.202-20.13 9.602-21.097 8.667C9.125 72.033 1.706 57.02-5.263 34.6c.464-1.492 1.185-3.813 2.16-6.962z" mask="url(#d)"/>
            </g>
            <g transform="translate(11.7 19.143)">
                <path fill="url(#e)" fill-rule="nonzero" d="M13.725.38h43.336v51.66H13.725z" transform="rotate(-79 35.393 26.21)"/>
                <path fill="#0577C3" fill-rule="nonzero" d="M5.903 42.55L14.172.012l50.71 9.857-8.268 42.54z"/>
                <g fill-rule="nonzero" transform="translate(20.357 .467)">
                    <ellipse cx="10.996" cy="11.053" fill="#FEBA10" rx="10.969" ry="11.004"/>
                    <ellipse cx="10.996" cy="11.053" fill="url(#f)" rx="6.92" ry="6.942"/>
                </g>
                <g fill-rule="nonzero" transform="translate(49.606 1.634)">
                    <ellipse cx="10.996" cy="11.053" fill="url(#g)" rx="10.969" ry="11.004"/>
                    <ellipse cx="10.996" cy="11.053" fill="#FFD15D" rx="6.92" ry="6.942"/>
                </g>
                <path fill="#9013FE" fill-rule="nonzero" d="M.227 45.83l8.27-42.54 50.71 9.857-8.269 42.54z"/>
                <g transform="translate(0 3.158)">
                    <mask id="i" fill="#fff">
                        <use xlink:href="#h"/>
                    </mask>
                    <use fill="#0087DF" fill-rule="nonzero" transform="rotate(-79 29.717 26.33)" xlink:href="#h"/>
                    <path fill="#13B6FF" fill-rule="nonzero" d="M8.02 48.847c11.785-1.403 16.344-8.14 13.679-20.212C17.7 10.527 54.527 18.949 45.268 6.316c-6.173-8.421.772-9.966 20.833-4.632v50.111l-19.36 11.37-38.72-14.318z" mask="url(#i)" opacity=".497"/>
                </g>
                <ellipse cx="16.642" cy="14.504" fill="#0BB4FF" fill-rule="nonzero" rx="4.219" ry="4.216" transform="rotate(-79 16.642 14.504)"/>
                <path fill="#FFF" fill-rule="nonzero" d="M57.255 38.668l-21.477-4.174 2.014-10.358 21.477 4.174z"/>
                <ellipse cx="42.422" cy="30.453" fill="#31C0FF" fill-rule="nonzero" rx="2.45" ry="2.448" transform="rotate(-79 42.422 30.453)"/>
            </g>
        </g>
    </g>
</svg>
