<?xml version="1.0" encoding="UTF-8"?>
<svg width="14px" height="14px" viewBox="0 0 14 14" version="1.1" xmlns="http://www.w3.org/2000/svg" xmlns:xlink="http://www.w3.org/1999/xlink">
    <!-- Generator: sketchtool 45 (43475) - http://www.bohemiancoding.com/sketch -->
    <title>94F6B82A-7BF4-4A05-BA81-D1399608770E</title>
    <desc>Created with sketchtool.</desc>
    <defs></defs>
    <g id="Page-1" stroke="none" stroke-width="1" fill="none" fill-rule="evenodd">
        <g id="главная-copy" transform="translate(-646.000000, -3577.000000)" fill-rule="nonzero" fill="#FFFFFF">
            <g id="Group-7" transform="translate(0.000000, 3524.000000)">
                <g id="Group-6" transform="translate(435.000000, 50.000000)">
                    <g id="big-instagram-logo" transform="translate(211.000000, 3.000000)">
                        <path d="M11.7940684,0 L1.62395362,0 C0.747826983,0 0,0.822976834 0,1.69642267 L0,11.8731229 C0,12.7462773 0.747826983,13.3694471 1.62395362,13.3694471 L11.7940684,13.3694471 C12.6701659,13.3694471 13.3709914,12.7462773 13.3709914,11.8731229 L13.3709914,1.69642267 C13.3709914,0.822976834 12.6701659,0 11.7940684,0 Z M11.4795113,1.90986689 C11.7329928,1.90986689 11.9385111,2.11538527 11.9385111,2.36886668 L11.9385111,3.83852853 C11.9385111,4.09200994 11.7329928,4.29752832 11.4795113,4.29752832 L10.0096455,4.29752832 C9.75616411,4.29752832 9.55064573,4.09200994 9.55064573,3.83852853 L9.55064573,2.36886668 C9.55064573,2.11538527 9.75616411,1.90986689 10.0096455,1.90986689 L11.4795113,1.90986689 Z M6.72446932,4.24096925 C8.14153502,4.24096925 9.29017092,5.38712832 9.29017092,6.80031851 C9.29017092,8.21374182 8.14153502,9.35987175 6.72446932,9.35987175 C5.30766588,9.35987175 4.15876772,8.21374182 4.15876772,6.80031851 C4.15876772,5.38712832 5.30763674,4.24096925 6.72446932,4.24096925 Z M11.9385111,11.531787 C11.9385111,11.7371014 11.7202881,11.9371707 11.5142743,11.9371707 L1.93504311,11.9371707 C1.72911678,11.9371707 1.43250944,11.7371014 1.43250944,11.531787 L1.43250944,5.72980465 L2.81026643,5.72980465 C2.71646753,6.20742436 2.66585284,6.43016397 2.66585284,6.80031851 C2.66585284,9.03287228 4.48643739,10.8487363 6.72444018,10.8487363 C8.96264695,10.8487363 10.7832898,9.0324352 10.7832898,6.79988143 C10.7832898,6.43016397 10.732646,6.20742436 10.6393133,5.72980465 L11.9385111,5.72980465 L11.9385111,11.531787 Z" id="Shape"></path>
                    </g>
                </g>
            </g>
        </g>
    </g>
</svg>