<?xml version="1.0" encoding="UTF-8"?>
<svg width="13px" height="15px" viewBox="0 0 13 15" version="1.1" xmlns="http://www.w3.org/2000/svg" xmlns:xlink="http://www.w3.org/1999/xlink">
    <!-- Generator: sketchtool 45 (43475) - http://www.bohemiancoding.com/sketch -->
    <title>07F40833-5802-4163-BD4A-CC0BDFC334DB</title>
    <desc>Created with sketchtool.</desc>
    <defs></defs>
    <g id="Page-1" stroke="none" stroke-width="1" fill="none" fill-rule="evenodd">
        <g id="icons" transform="translate(-189.000000, -73.000000)" fill-rule="nonzero" fill="#FFFFFF">
            <g id="kid-teddy-bear--copy" transform="translate(189.000000, 73.000000)">
                <circle id="Oval" cx="6.38055778" cy="5.31146919" r="1"></circle>
                <path d="M10.2905161,11.8109764 C10.046547,11.680016 10.0840933,11.4439341 10.0840933,11.2959259 L10.0840933,9.22795994 C10.7977616,9.08221109 12.3683821,9.06881928 12.3683821,7.65816095 C12.3683821,6.9610887 11.7996823,6.70582281 11.1061428,6.77635572 C10.5530941,6.83255201 10.2929809,7.20164826 9.35608847,6.84927123 C9.23732862,6.80461818 8.90598413,6.51233997 9.09568768,6.28110538 C9.58066824,5.68985304 9.85425544,4.9190437 9.85425544,4.08899821 C9.85425544,3.95331374 9.85310522,3.68145187 9.97478169,3.63067803 C10.598733,3.37023616 11.0206982,2.72393775 11.0206982,1.99330382 C11.0206982,1.00399443 10.2329231,0.201923846 9.26127777,0.201923846 C8.73451971,0.201923846 8.26190399,0.437800378 7.93943259,0.811333173 C7.91121121,0.844073263 7.860766,0.912018192 7.73715881,0.858656364 C7.29950145,0.652767618 6.93323966,0.591723988 6.41942154,0.591723988 C5.86756411,0.591723988 5.46650828,0.666159424 5.00440882,0.901625165 C4.85857781,0.946237132 4.75949487,0.796010646 4.68740095,0.723095139 C4.36940718,0.40107561 3.93142118,0.201923846 3.44750869,0.201923846 C2.47582226,0.201923846 1.68800614,1.00395335 1.68800614,1.99330382 C1.68800614,2.7528164 2.15232388,3.40186711 2.80770078,3.66243222 C2.87104485,3.68761374 2.96893648,3.76361019 2.98458764,4.08899821 C3.02414687,4.911937 3.26458319,5.67009397 3.73276237,6.26775465 C3.90640398,6.48933564 3.73908856,6.77536982 3.47778403,6.85613145 C2.5246243,7.15079226 2.28390042,6.8331682 1.73286458,6.77631464 C1.0394073,6.70475475 0.470625258,6.96104762 0.470625258,7.65811987 C0.470625258,9.03082106 2.04079396,9.07970526 2.75479083,9.22340016 L2.75479083,11.2958848 C2.75479083,11.4479599 2.77606983,11.6609553 2.4589798,11.8568618 C1.57343637,12.2218091 0.302406101,12.2499894 0.302406101,13.4892654 C0.302406101,14.2433556 0.9278363,15.0000748 1.66779519,14.8546545 C2.5947875,14.6725506 3.08137014,14.3648266 4.48792055,13.728264 C4.79083827,13.590238 5.00457314,13.6594564 5.13758746,13.6781063 C5.53658933,13.7341383 5.96853669,13.7558281 6.41938046,13.7558281 C6.92313419,13.7558281 7.40318524,13.728798 7.83997994,13.6569917 C7.95023641,13.6388757 8.20804921,13.6284827 8.44474733,13.7246901 C9.81740743,14.3636353 10.2578993,14.6708253 11.1711711,14.8546545 C11.9104317,15.0034433 12.5365602,14.2433556 12.5365602,13.4892654 C12.5366424,12.2500715 11.1744575,12.1806067 10.2905161,11.8109764 Z M8.08189511,5.67284627 C8.08189511,6.41112092 7.31909621,7.00972643 6.37797267,7.00972643 C5.43701345,7.00972643 4.6740913,6.41112092 4.6740913,5.67284627 C4.6740913,4.93448946 5.43697237,4.33596611 6.37797267,4.33596611 C7.31905513,4.33596611 8.08189511,4.93448946 8.08189511,5.67284627 Z M8.47785713,10.9926795 C8.47785713,12.1294631 7.55624619,12.6399538 6.41954478,12.6399538 C5.28272013,12.6399538 4.36119135,12.1294631 4.36119135,10.9926795 L4.36119135,10.0247724 C4.36119135,8.88798882 5.2827612,7.96646004 6.41954478,7.96646004 C7.55628727,7.96646004 8.47785713,8.8880299 8.47785713,10.0247724 L8.47785713,10.9926795 Z" id="Shape"></path>
            </g>
        </g>
    </g>
</svg>