<svg xmlns="http://www.w3.org/2000/svg" width="1108" height="301" viewBox="0 0 1108 301">
    <g fill="none" fill-rule="evenodd">
        <g transform="translate(200)">
            <circle cx="11" cy="11" r="11" fill="#F9B422"/>
            <circle cx="13" cy="11" r="11" fill="#FFD66E"/>
            <path fill="#F99D22" d="M11.751 7.663v3.126h.991c.997 0 1.515-.596 1.515-1.567 0-.963-.518-1.559-1.504-1.559h-1.002zm2.227 7h-2.227V16h-1.72v-1.337H9v-1.29h1.03v-1.025H9v-1.532h1.03V6h3.236C14.912 6 16 7.33 16 9.202c0 1.85-1.145 3.18-2.825 3.18H11.75v.992h2.227v1.289z"/>
        </g>
        <g transform="translate(34 101)">
            <circle cx="18" cy="18" r="18" fill="#F9B422"/>
            <circle cx="22" cy="18" r="18" fill="#FFD66E"/>
            <path fill="#F99D22" d="M19.716 12.827v5.314h1.699c1.709 0 2.597-1.013 2.597-2.663 0-1.637-.888-2.65-2.578-2.65h-1.718zm3.818 11.9h-3.818V27h-2.949v-2.274H15v-2.191h1.767v-1.744H15v-2.603h1.767V10h5.546C25.135 10 27 12.262 27 15.443c0 3.145-1.963 5.407-4.843 5.407h-2.441v1.685h3.818v2.191z"/>
        </g>
        <g transform="translate(0 99)">
            <circle cx="9.5" cy="9.5" r="9.5" fill="#F9B422"/>
            <circle cx="12.5" cy="9.5" r="9.5" fill="#FFD66E"/>
            <path fill="#F99D22" d="M11.751 6.497V9.31h.991c.997 0 1.515-.537 1.515-1.41 0-.867-.518-1.403-1.504-1.403h-1.002zm2.227 6.3h-2.227V14h-1.72v-1.204H9v-1.16h1.03v-.923H9V9.335h1.03V5h3.236C14.912 5 16 6.198 16 7.881c0 1.666-1.145 2.863-2.825 2.863H11.75v.892h2.227v1.16z"/>
        </g>
        <g transform="translate(1086 109)">
            <circle cx="9.5" cy="9.5" r="9.5" fill="#F9B422"/>
            <circle cx="12.5" cy="9.5" r="9.5" fill="#FFD66E"/>
            <path fill="#F99D22" d="M11.751 6.497V9.31h.991c.997 0 1.515-.537 1.515-1.41 0-.867-.518-1.403-1.504-1.403h-1.002zm2.227 6.3h-2.227V14h-1.72v-1.204H9v-1.16h1.03v-.923H9V9.335h1.03V5h3.236C14.912 5 16 6.198 16 7.881c0 1.666-1.145 2.863-2.825 2.863H11.75v.892h2.227v1.16z"/>
        </g>
        <g transform="translate(74 245)">
            <circle cx="9.5" cy="9.5" r="9.5" fill="#F9B422"/>
            <circle cx="12.5" cy="9.5" r="9.5" fill="#FFD66E"/>
            <path fill="#F99D22" d="M11.751 6.497V9.31h.991c.997 0 1.515-.537 1.515-1.41 0-.867-.518-1.403-1.504-1.403h-1.002zm2.227 6.3h-2.227V14h-1.72v-1.204H9v-1.16h1.03v-.923H9V9.335h1.03V5h3.236C14.912 5 16 6.198 16 7.881c0 1.666-1.145 2.863-2.825 2.863H11.75v.892h2.227v1.16z"/>
        </g>
        <g transform="translate(873 282)">
            <circle cx="9.5" cy="9.5" r="9.5" fill="#F9B422"/>
            <circle cx="12.5" cy="9.5" r="9.5" fill="#FFD66E"/>
            <path fill="#F99D22" d="M11.751 6.497V9.31h.991c.997 0 1.515-.537 1.515-1.41 0-.867-.518-1.403-1.504-1.403h-1.002zm2.227 6.3h-2.227V14h-1.72v-1.204H9v-1.16h1.03v-.923H9V9.335h1.03V5h3.236C14.912 5 16 6.198 16 7.881c0 1.666-1.145 2.863-2.825 2.863H11.75v.892h2.227v1.16z"/>
        </g>
    </g>
</svg>
