<?xml version="1.0" encoding="UTF-8"?>
<svg width="81px" height="78px" viewBox="0 0 81 78" version="1.1" xmlns="http://www.w3.org/2000/svg" xmlns:xlink="http://www.w3.org/1999/xlink">
    <!-- Generator: Sketch 45 (43475) - http://www.bohemiancoding.com/sketch -->
    <title>Group 3</title>
    <desc>Created with Sketch.</desc>
    <defs>
        <linearGradient x1="81.3990679%" y1="17.4877126%" x2="53.2395556%" y2="73.5012487%" id="linearGradient-1">
            <stop stop-color="#ED1C24" offset="0%"></stop>
            <stop stop-color="#DF1720" offset="100%"></stop>
        </linearGradient>
        <polygon id="path-2" points="3.77231441 17.2248916 29.547124 7.33086922 89.6970008 36.5354982 99.6888049 62.5650379"></polygon>
        <filter x="-3.6%" y="-4.5%" width="107.3%" height="112.7%" filterUnits="objectBoundingBox" id="filter-3">
            <feOffset dx="0" dy="1" in="SourceAlpha" result="shadowOffsetOuter1"></feOffset>
            <feGaussianBlur stdDeviation="1" in="shadowOffsetOuter1" result="shadowBlurOuter1"></feGaussianBlur>
            <feColorMatrix values="0 0 0 0 0.334715136   0 0 0 0 0.128028308   0 0 0 0 0.0418922195  0 0 0 0.465777853 0" type="matrix" in="shadowBlurOuter1"></feColorMatrix>
        </filter>
    </defs>
    <g id="Page-1" stroke="none" stroke-width="1" fill="none" fill-rule="evenodd">
        <g id="выдача-по-стране" transform="translate(-396.000000, -534.000000)">
            <g id="Group-15-Copy-5" transform="translate(386.000000, 513.000000)">
                <g id="Group-3" transform="translate(45.535648, 58.244540) rotate(282.000000) translate(-45.535648, -58.244540) translate(-6.464352, 22.744540)">
                    <g id="Group-14" transform="translate(0.000000, 0.000000)">
                        <g id="Path-14" transform="translate(51.730560, 34.947954) rotate(9.000000) translate(-51.730560, -34.947954) ">
                            <use fill="black" fill-opacity="1" filter="url(#filter-3)" xlink:href="#path-2"></use>
                            <use fill="url(#linearGradient-1)" fill-rule="evenodd" xlink:href="#path-2"></use>
                        </g>
                        <polygon id="Path-16" fill="#AD0C16" points="92.3259141 70.0233666 94.7651192 69.658409 91.8480199 67.7750514"></polygon>
                        <polygon id="Path-15" fill="#AD0C16" points="7.61619577 12.7018456 7.01078792 9.85362564 10.3295935 12.1250951"></polygon>
                        <path d="M40.8804084,36.8356228 L40.8804084,30.5729275 L43.1631233,30.5729275 L43.1631233,29.0851345 L36.8198616,29.0851345 L36.8198616,30.5729275 L39.1025764,30.5729275 L39.1025764,36.8356228 L40.8804084,36.8356228 Z M45.1772834,39.0109158 C46.7617561,39.0109158 47.5513069,38.4362087 48.0561897,36.8732205 L50.0488655,30.8844509 L48.2334358,30.8844509 L47.0679084,35.3156033 L46.9658577,35.3156033 L45.8003303,30.8844509 L43.9043342,30.8844509 L45.9668342,36.8785916 L45.9238655,37.0665798 C45.8271858,37.4694119 45.4780647,37.6574001 44.8818733,37.6574001 C44.8335334,37.6574001 44.5757209,37.6520291 44.5327522,37.646658 L44.5327522,39.0001736 C44.581092,39.0055447 45.1289436,39.0109158 45.1772834,39.0109158 Z M54.662635,30.7931423 C56.1665413,30.7931423 57.0796272,31.921072 57.0796272,33.8600369 C57.0796272,35.7882595 56.1880256,36.9269314 54.7002327,36.9269314 C53.8462288,36.9269314 53.2016975,36.5509548 52.9170295,35.9225369 L52.8203498,35.9225369 L52.8203498,38.6725369 L51.1015998,38.6725369 L51.1015998,30.8844509 L52.7666389,30.8844509 L52.7666389,31.8566189 L52.8686897,31.8566189 C53.1802131,31.1906033 53.8462288,30.7931423 54.662635,30.7931423 Z M54.0610725,35.5250759 C54.8506233,35.5250759 55.3179084,34.9020291 55.3179084,33.8600369 C55.3179084,32.8234158 54.8452522,32.1949978 54.0664436,32.1949978 C53.287635,32.1949978 52.8042366,32.8287869 52.8042366,33.8600369 C52.8042366,34.896658 53.2822639,35.5250759 54.0610725,35.5250759 Z M65.0181038,35.5143337 L65.0181038,32.2003689 L63.3047248,32.2003689 L63.1865608,33.92449 C63.143592,34.5153103 63.025428,35.0363064 62.7837288,35.412283 L62.7837288,35.5143337 L65.0181038,35.5143337 Z M62.1445686,38.3663845 L60.5815803,38.3663845 L60.5815803,35.5143337 L61.0273811,35.5143337 C61.4624397,35.2780056 61.6235725,34.6066189 61.6719123,33.8063259 L61.8652717,30.8844509 L66.7261116,30.8844509 L66.7261116,35.5143337 L67.6015998,35.5143337 L67.6015998,38.3663845 L66.0386116,38.3663845 L66.0386116,36.8356228 L62.1445686,36.8356228 L62.1445686,38.3663845 Z M68.5146858,36.8356228 L70.2334358,36.8356228 L70.2334358,34.4562283 L72.4624397,34.4562283 L72.4624397,36.8356228 L74.1811897,36.8356228 L74.1811897,30.8844509 L72.4624397,30.8844509 L72.4624397,33.1349392 L70.2334358,33.1349392 L70.2334358,30.8844509 L68.5146858,30.8844509 L68.5146858,36.8356228 Z M78.0644905,33.7472439 L78.9990608,33.7472439 L78.9990608,32.2003689 L78.0644905,32.2003689 C77.5273811,32.2003689 77.1836311,32.5118923 77.1836311,32.9899197 C77.1836311,33.4303494 77.5273811,33.7472439 78.0644905,33.7472439 Z M78.9990608,36.8356228 L78.9990608,34.9611111 L78.440467,34.9611111 L77.1675178,36.8356228 L75.2339241,36.8356228 L76.7646858,34.6871853 C75.9858772,34.4508572 75.4971077,33.7848416 75.4971077,32.9630642 C75.4971077,31.690115 76.4585334,30.8844509 77.86576,30.8844509 L80.674842,30.8844509 L80.674842,36.8356228 L78.9990608,36.8356228 Z" id="Тур-дня" fill="#FFFFFF" transform="translate(58.747352, 34.048025) rotate(35.000000) translate(-58.747352, -34.048025) "></path>
                    </g>
                </g>
            </g>
        </g>
    </g>
</svg>