<?xml version="1.0" encoding="UTF-8"?>
<svg width="3px" height="60px" viewBox="0 0 3 60" version="1.1" xmlns="http://www.w3.org/2000/svg" xmlns:xlink="http://www.w3.org/1999/xlink">
    <!-- Generator: Sketch 45 (43475) - http://www.bohemiancoding.com/sketch -->
    <title>Line 3 Copy</title>
    <desc>Created with Sketch.</desc>
    <defs></defs>
    <g id="Page-1" stroke="none" stroke-width="1" fill="none" fill-rule="evenodd">
        <g id="выдача-по-стране" transform="translate(-1074.000000, -1038.000000)" fill-rule="nonzero" fill="#C2CBD0">
            <g id="Group-23" transform="translate(400.000000, 1029.000000)">
                <g id="Group-18">
                    <g id="Group-16" transform="translate(674.000000, 3.000000)">
                        <path d="M0.666666667,-1 L0.666666667,3 L2.66666667,3 L2.66666667,-1 L0.666666667,-1 Z M0.666666667,6 L0.666666667,10 L2.66666667,10 L2.66666667,6 L0.666666667,6 Z M0.666666667,13 L0.666666667,17 L2.66666667,17 L2.66666667,13 L0.666666667,13 Z M0.666666667,20 L0.666666667,24 L2.66666667,24 L2.66666667,20 L0.666666667,20 Z M0.666666667,27 L0.666666667,31 L2.66666667,31 L2.66666667,27 L0.666666667,27 Z M0.666666667,34 L0.666666667,38 L2.66666667,38 L2.66666667,34 L0.666666667,34 Z M0.666666667,41 L0.666666667,45 L2.66666667,45 L2.66666667,41 L0.666666667,41 Z M0.666666667,48 L0.666666667,52 L2.66666667,52 L2.66666667,48 L0.666666667,48 Z M0.666666667,55 L0.666666667,59 L2.66666667,59 L2.66666667,55 L0.666666667,55 Z M0.666666667,62 L0.666666667,66 L2.66666667,66 L2.66666667,62 L0.666666667,62 Z M0.666666667,69 L0.666666667,73 L2.66666667,73 L2.66666667,69 L0.666666667,69 Z" id="Line-3-Copy"></path>
                    </g>
                </g>
            </g>
        </g>
    </g>
</svg>