<?xml version="1.0" encoding="UTF-8"?>
<svg width="162px" height="28px" viewBox="0 0 162 28" version="1.1" xmlns="http://www.w3.org/2000/svg" xmlns:xlink="http://www.w3.org/1999/xlink">
    <!-- Generator: sketchtool 45 (43475) - http://www.bohemiancoding.com/sketch -->
    <title>A15A3F9A-4191-4199-A3EA-B1BB91D61865</title>
    <desc>Created with sketchtool.</desc>
    <defs></defs>
    <g id="Page-1" stroke="none" stroke-width="1" fill="none" fill-rule="evenodd">
        <g id="главная-copy" transform="translate(-391.000000, -10.000000)">
            <g id="logotype-copy-21" transform="translate(391.000000, 10.000000)">
                <path d="M2.91748047,7.90380859 L3.96484375,7.90380859 L3.96484375,6.58251953 C3.96484375,5.20751266 4.13940255,4.11450601 4.48852539,3.3034668 C4.83764823,2.49242759 5.42846263,1.90161318 6.26098633,1.53100586 C7.09351002,1.16039854 8.23485603,0.975097656 9.68505859,0.975097656 C12.2524542,0.975097656 13.5361328,1.60350934 13.5361328,2.86035156 C13.5361328,3.26855673 13.4018568,3.61767433 13.1333008,3.90771484 C12.8647448,4.19775536 12.5478534,4.34277344 12.1826172,4.34277344 C12.0107413,4.34277344 11.7153341,4.3105472 11.2963867,4.24609375 C10.8774393,4.1816403 10.5229507,4.14941406 10.2329102,4.14941406 C9.43798431,4.14941406 8.9277355,4.3830543 8.70214844,4.8503418 C8.47656137,5.31762929 8.36376953,5.98632377 8.36376953,6.85644531 L8.36376953,7.90380859 L9.44335938,7.90380859 C11.119149,7.90380859 11.9570312,8.40868636 11.9570312,9.41845703 C11.9570312,10.1381872 11.7341331,10.5947256 11.2883301,10.7880859 C10.8425271,10.9814463 10.227543,11.078125 9.44335938,11.078125 L8.36376953,11.078125 L8.36376953,22.7280273 C8.36376953,23.5981489 8.15698449,24.2614723 7.7434082,24.7180176 C7.32983192,25.1745628 6.79541343,25.402832 6.14013672,25.402832 C5.51708673,25.402832 4.99878136,25.1745628 4.58520508,24.7180176 C4.17162879,24.2614723 3.96484375,23.5981489 3.96484375,22.7280273 L3.96484375,11.078125 L2.75634766,11.078125 C2.10107094,11.078125 1.59619318,10.9304214 1.24169922,10.6350098 C0.887205259,10.3395981 0.709960938,9.95556877 0.709960938,9.48291016 C0.709960938,8.43017052 1.44579342,7.90380859 2.91748047,7.90380859 Z M18.6601562,10.0146484 L18.6601562,22.7280273 C18.6601562,23.6088911 18.4506857,24.2749001 18.0317383,24.7260742 C17.6127909,25.1772483 17.0810579,25.402832 16.4365234,25.402832 C15.791989,25.402832 15.2683126,25.1718773 14.8654785,24.7099609 C14.4626445,24.2480446 14.2612305,23.5874066 14.2612305,22.7280273 L14.2612305,10.1435547 C14.2612305,9.27343315 14.4626445,8.61816626 14.8654785,8.17773438 C15.2683126,7.73730249 15.791989,7.51708984 16.4365234,7.51708984 C17.0810579,7.51708984 17.6127909,7.73730249 18.0317383,8.17773438 C18.4506857,8.61816626 18.6601562,9.23046483 18.6601562,10.0146484 Z M16.4848633,5.47070312 C15.8725555,5.47070312 15.3488791,5.28271672 14.9138184,4.90673828 C14.4787576,4.53075984 14.2612305,3.99902687 14.2612305,3.31152344 C14.2612305,2.68847345 14.4841286,2.17553912 14.9299316,1.77270508 C15.3757347,1.36987103 15.89404,1.16845703 16.4848633,1.16845703 C17.0542021,1.16845703 17.5590798,1.35107239 17.9995117,1.71630859 C18.4399436,2.08154479 18.6601562,2.61327776 18.6601562,3.31152344 C18.6601562,3.98828463 18.4453146,4.51733208 18.015625,4.89868164 C17.5859354,5.2800312 17.0756865,5.47070312 16.4848633,5.47070312 Z M32.7431641,23.5820312 L29.5527344,18.8930664 L26.2817383,23.5820312 C25.8090797,24.237308 25.4089372,24.7045884 25.0812988,24.9838867 C24.7536605,25.263185 24.3374049,25.402832 23.8325195,25.402832 C23.273923,25.402832 22.7985859,25.2282732 22.4064941,24.8791504 C22.0144023,24.5300276 21.8183594,24.1298851 21.8183594,23.6787109 C21.8183594,23.2167946 22.1191376,22.5561566 22.7207031,21.6967773 L26.7006836,15.9926758 L23.171875,11.2392578 C22.5595673,10.4550742 22.253418,9.77295212 22.253418,9.19287109 C22.253418,8.74169696 22.4360333,8.34961104 22.8012695,8.01660156 C23.1665057,7.68359208 23.6445283,7.51708984 24.2353516,7.51708984 C24.7509791,7.51708984 25.1779768,7.66210792 25.5163574,7.95214844 C25.854738,8.24218895 26.2495095,8.69872735 26.7006836,9.32177734 L29.5527344,13.2211914 L32.3242188,9.32177734 C32.7861351,8.67724287 33.1862776,8.21533343 33.5246582,7.93603516 C33.8630388,7.65673688 34.2846654,7.51708984 34.7895508,7.51708984 C35.3696318,7.51708984 35.8503399,7.68090656 36.2316895,8.00854492 C36.613039,8.33618328 36.8037109,8.73095472 36.8037109,9.19287109 C36.8037109,9.52588057 36.7258309,9.84545745 36.5700684,10.1516113 C36.4143059,10.4577652 36.1752946,10.8203104 35.8530273,11.2392578 L32.3242188,15.9926758 L36.3041992,21.6967773 C36.9272492,22.5883834 37.2387695,23.2597634 37.2387695,23.7109375 C37.2387695,24.1728539 37.0454121,24.5703108 36.6586914,24.9033203 C36.2719707,25.2363298 35.7939482,25.402832 35.2246094,25.402832 C34.719724,25.402832 34.2927264,25.257814 33.9436035,24.9677734 C33.5944807,24.6777329 33.1943382,24.2158235 32.7431641,23.5820312 Z M73.6386719,7.90380859 L74.1220703,7.90380859 L74.1220703,5.26123047 C74.1220703,4.55224255 74.140869,3.9963399 74.1784668,3.59350586 C74.2160646,3.19067181 74.3207999,2.84423973 74.4926758,2.55419922 C74.6645516,2.25341646 74.9116195,2.00903414 75.2338867,1.82104492 C75.556154,1.6330557 75.9160136,1.5390625 76.3134766,1.5390625 C76.8720731,1.5390625 77.3769509,1.74853306 77.828125,2.16748047 C78.1289078,2.44677874 78.3195797,2.78783978 78.4001465,3.19067383 C78.4807133,3.59350787 78.5209961,4.16552364 78.5209961,4.90673828 L78.5209961,7.90380859 L80.1323242,7.90380859 C80.7553742,7.90380859 81.2307113,8.05151219 81.5583496,8.34692383 C81.885988,8.64233546 82.0498047,9.02099378 82.0498047,9.48291016 C82.0498047,10.0737334 81.8161644,10.4873035 81.348877,10.7236328 C80.8815895,10.9599621 80.212895,11.078125 79.3427734,11.078125 L78.5209961,11.078125 L78.5209961,19.1669922 C78.5209961,19.8544956 78.5451658,20.3835431 78.5935059,20.7541504 C78.6418459,21.1247577 78.7707509,21.425536 78.9802246,21.6564941 C79.1896983,21.8874523 79.5307594,22.0029297 80.003418,22.0029297 C80.2612318,22.0029297 80.6103494,21.9572758 81.0507812,21.8659668 C81.4912131,21.7746577 81.8349597,21.7290039 82.0820312,21.7290039 C82.4365252,21.7290039 82.7561021,21.8713365 83.0407715,22.1560059 C83.3254409,22.4406753 83.4677734,22.7924784 83.4677734,23.2114258 C83.4677734,23.9204137 83.0810586,24.4628887 82.3076172,24.8388672 C81.5341758,25.2148456 80.4223705,25.402832 78.972168,25.402832 C77.5971611,25.402832 76.5551793,25.1718773 75.8461914,24.7099609 C75.1372035,24.2480446 74.6726085,23.6088908 74.4523926,22.7924805 C74.2321766,21.9760701 74.1220703,20.885749 74.1220703,19.5214844 L74.1220703,11.078125 L73.5419922,11.078125 C72.9082,11.078125 72.4248064,10.9277359 72.0917969,10.6269531 C71.7587874,10.3261704 71.5922852,9.94482653 71.5922852,9.48291016 C71.5922852,9.02099378 71.766844,8.64233546 72.1159668,8.34692383 C72.4650896,8.05151219 72.9726529,7.90380859 73.6386719,7.90380859 Z M89.4458008,19.0541992 L89.4458008,22.7280273 C89.4458008,23.6196334 89.2363302,24.2883278 88.8173828,24.7341309 C88.3984354,25.1799339 87.8667024,25.402832 87.222168,25.402832 C86.5883757,25.402832 86.0673849,25.1772483 85.6591797,24.7260742 C85.2509745,24.2749001 85.046875,23.6088911 85.046875,22.7280273 L85.046875,10.4819336 C85.046875,8.50536121 85.7612233,7.51708984 87.1899414,7.51708984 C87.9204138,7.51708984 88.4467757,7.74804457 88.769043,8.20996094 C89.0913102,8.67187731 89.2685545,9.35399939 89.3007812,10.2563477 C89.8271511,9.35399939 90.3669406,8.67187731 90.920166,8.20996094 C91.4733914,7.74804457 92.2119094,7.51708984 93.1357422,7.51708984 C94.0595749,7.51708984 94.9565386,7.74804457 95.8266602,8.20996094 C96.6967817,8.67187731 97.1318359,9.28417587 97.1318359,10.046875 C97.1318359,10.5839871 96.9465351,11.0270979 96.5759277,11.3762207 C96.2053204,11.7253435 95.8051779,11.8999023 95.3754883,11.8999023 C95.2143547,11.8999023 94.8249543,11.8005381 94.2072754,11.6018066 C93.5895965,11.4030752 93.044436,11.3037109 92.5717773,11.3037109 C91.9272429,11.3037109 91.4008809,11.4728987 90.9926758,11.8112793 C90.5844706,12.1496599 90.2675793,12.6518521 90.0419922,13.3178711 C89.8164051,13.98389 89.660645,14.7761185 89.574707,15.6945801 C89.4887691,16.6130417 89.4458008,17.7329035 89.4458008,19.0541992 Z M110.650879,22.9213867 C109.587397,23.7485393 108.558843,24.3688944 107.565186,24.7824707 C106.571528,25.196047 105.457037,25.402832 104.22168,25.402832 C103.093744,25.402832 102.102787,25.1799339 101.248779,24.7341309 C100.394771,24.2883278 99.7368187,23.6840858 99.2749023,22.9213867 C98.812986,22.1586876 98.5820312,21.3315474 98.5820312,20.4399414 C98.5820312,19.2368104 98.9633751,18.2109417 99.7260742,17.3623047 C100.488773,16.5136676 101.536126,15.9443374 102.868164,15.6542969 C103.147462,15.5898434 103.840326,15.4448253 104.946777,15.2192383 C106.053228,14.9936512 107.001217,14.7868662 107.790771,14.598877 C108.580326,14.4108877 109.437007,14.1826185 110.36084,13.9140625 C110.307129,12.7539004 110.073488,11.9025906 109.659912,11.3601074 C109.246336,10.8176242 108.389655,10.5463867 107.089844,10.5463867 C105.972651,10.5463867 105.132083,10.7021469 104.568115,11.0136719 C104.004148,11.3251969 103.520754,11.7924774 103.11792,12.4155273 C102.715086,13.0385773 102.430421,13.4494619 102.263916,13.6481934 C102.097411,13.8469248 101.740237,13.9462891 101.192383,13.9462891 C100.69824,13.9462891 100.271242,13.7878434 99.911377,13.4709473 C99.5515119,13.1540511 99.371582,12.7485376 99.371582,12.2543945 C99.371582,11.4809532 99.6455051,10.7290076 100.193359,9.99853516 C100.741214,9.26806275 101.595209,8.66650627 102.755371,8.19384766 C103.915533,7.72118904 105.360343,7.48486328 107.089844,7.48486328 C109.023447,7.48486328 110.543451,7.71313248 111.649902,8.16967773 C112.756353,8.62622299 113.53784,9.34862787 113.994385,10.3369141 C114.45093,11.3252003 114.679199,12.635734 114.679199,14.2685547 C114.679199,15.2998098 114.676514,16.1752894 114.671143,16.8950195 C114.665771,17.6147497 114.657715,18.4150347 114.646973,19.2958984 C114.646973,20.123051 114.783934,20.9851029 115.057861,21.8820801 C115.331788,22.7790572 115.46875,23.356444 115.46875,23.6142578 C115.46875,24.0654319 115.256594,24.4763165 114.832275,24.8469238 C114.407957,25.2175311 113.927249,25.402832 113.390137,25.402832 C112.938963,25.402832 112.493166,25.1906759 112.052734,24.7663574 C111.612302,24.3420389 111.145022,23.7270548 110.650879,22.9213867 Z M110.36084,16.5566406 C109.716305,16.7929699 108.779059,17.0427233 107.549072,17.3059082 C106.319086,17.5690931 105.467776,17.7624506 104.995117,17.8859863 C104.522459,18.0095221 104.071291,18.2512189 103.641602,18.611084 C103.211912,18.9709491 102.99707,19.4731413 102.99707,20.1176758 C102.99707,20.7836947 103.249509,21.3503395 103.754395,21.817627 C104.25928,22.2849144 104.919918,22.5185547 105.736328,22.5185547 C106.60645,22.5185547 107.40942,22.3278828 108.145264,21.9465332 C108.881107,21.5651836 109.420897,21.0737335 109.764648,20.472168 C110.162111,19.806149 110.36084,18.7104568 110.36084,17.1850586 L110.36084,16.5566406 Z M122.252441,10.2563477 L125.813477,20.246582 L129.648438,9.82128906 C129.94922,8.98339425 130.244627,8.38989432 130.534668,8.04077148 C130.824708,7.69164865 131.265134,7.51708984 131.855957,7.51708984 C132.414554,7.51708984 132.889891,7.70507625 133.281982,8.08105469 C133.674074,8.45703313 133.870117,8.89208737 133.870117,9.38623047 C133.870117,9.57959081 133.835205,9.80517449 133.765381,10.0629883 C133.695556,10.3208021 133.614991,10.5624989 133.523682,10.7880859 C133.432373,11.013673 133.327637,11.2714829 133.209473,11.5615234 L128.987793,22.0351562 C128.869628,22.335939 128.716554,22.7172828 128.528564,23.1791992 C128.340575,23.6411156 128.131105,24.035887 127.900146,24.3635254 C127.669188,24.6911637 127.384523,24.9462881 127.046143,25.1289062 C126.707762,25.3115244 126.296877,25.402832 125.813477,25.402832 C125.190427,25.402832 124.693605,25.2604995 124.322998,24.9758301 C123.952391,24.6911607 123.678468,24.3796404 123.501221,24.0412598 C123.323974,23.7028792 123.025881,23.0341847 122.606934,22.0351562 L118.41748,11.6743164 C118.3208,11.4165026 118.221436,11.1586927 118.119385,10.9008789 C118.017333,10.6430651 117.931397,10.3798842 117.861572,10.1113281 C117.791748,9.84277209 117.756836,9.61181737 117.756836,9.41845703 C117.756836,9.11767428 117.848144,8.81958156 118.030762,8.52416992 C118.21338,8.22875829 118.465819,7.98706149 118.788086,7.79907227 C119.110353,7.61108304 119.459471,7.51708984 119.835449,7.51708984 C120.565922,7.51708984 121.068114,7.72656041 121.342041,8.14550781 C121.615968,8.56445522 121.919432,9.26806146 122.252441,10.2563477 Z M149.306641,17.5395508 L140.702148,17.5395508 C140.712891,18.5385792 140.914305,19.4194298 141.306396,20.1821289 C141.698488,20.944828 142.219479,21.5195293 142.869385,21.90625 C143.51929,22.2929707 144.236324,22.4863281 145.020508,22.4863281 C145.546878,22.4863281 146.027586,22.4245612 146.462646,22.3010254 C146.897707,22.1774896 147.319334,21.9841322 147.727539,21.7209473 C148.135744,21.4577624 148.511717,21.1757828 148.855469,20.875 C149.19922,20.5742172 149.645017,20.1660182 150.192871,19.6503906 C150.418458,19.4570303 150.740721,19.3603516 151.159668,19.3603516 C151.610842,19.3603516 151.976073,19.4838855 152.255371,19.730957 C152.534669,19.9780286 152.674316,20.3271462 152.674316,20.7783203 C152.674316,21.1757832 152.518556,21.6403782 152.207031,22.1721191 C151.895506,22.7038601 151.42554,23.2141089 150.797119,23.7028809 C150.168698,24.1916528 149.379155,24.5971664 148.428467,24.9194336 C147.477778,25.2417008 146.384772,25.402832 145.149414,25.402832 C142.324205,25.402832 140.127449,24.597176 138.559082,22.9858398 C136.990715,21.3745037 136.206543,19.1884904 136.206543,16.4277344 C136.206543,15.1279232 136.3999,13.9221247 136.786621,12.8103027 C137.173342,11.6984808 137.737301,10.7451212 138.478516,9.95019531 C139.21973,9.15526946 140.132807,8.54565642 141.217773,8.12133789 C142.30274,7.69701936 143.505853,7.48486328 144.827148,7.48486328 C146.545907,7.48486328 148.020258,7.84740848 149.250244,8.57250977 C150.480231,9.29761105 151.401364,10.2348575 152.013672,11.3842773 C152.62598,12.5336972 152.932129,13.7045839 152.932129,14.8969727 C152.932129,16.0034235 152.615238,16.7204573 151.981445,17.0480957 C151.347653,17.3757341 150.45606,17.5395508 149.306641,17.5395508 Z M140.702148,15.0419922 L148.678223,15.0419922 C148.5708,13.5380784 148.165287,12.4128455 147.46167,11.6662598 C146.758053,10.919674 145.831549,10.5463867 144.682129,10.5463867 C143.58642,10.5463867 142.686771,10.925045 141.983154,11.682373 C141.279537,12.4397011 140.85254,13.5595629 140.702148,15.0419922 Z M156.638184,22.7280273 L156.638184,3.64990234 C156.638184,2.76903856 156.834227,2.1030296 157.226318,1.65185547 C157.61841,1.20068134 158.147458,0.975097656 158.813477,0.975097656 C159.479496,0.975097656 160.0166,1.19799582 160.424805,1.64379883 C160.83301,2.08960184 161.037109,2.75829632 161.037109,3.64990234 L161.037109,22.7280273 C161.037109,23.6196334 160.830324,24.2883278 160.416748,24.7341309 C160.003172,25.1799339 159.468753,25.402832 158.813477,25.402832 C158.168942,25.402832 157.645266,25.1718773 157.242432,24.7099609 C156.839598,24.2480446 156.638184,23.5874066 156.638184,22.7280273 Z" id="logotype" fill="#FFFFFF"></path>
                <g id="logo-globe" transform="translate(42.050126, 2.050126)">
                    <circle id="Oval" stroke="#FFFFFF" stroke-width="2" cx="12.9498738" cy="12.9498738" r="11.9498738"></circle>
                    <path d="M5.74190842,8.4404589 C4.61984169,8.74322251 3.48184202,9.11864352 2.33012743,9.57213114 L1.59738351,7.71119419 C3.13876312,7.10427596 4.65873261,6.62843416 6.15238573,6.27241172 C6.2836133,5.70153366 6.4314943,5.13897892 6.59503833,4.58517905 C7.02665573,3.12361747 7.46373692,2.0752393 7.76754303,1.496561 L9.53833884,2.4262288 C9.48304645,2.53154763 9.37543266,2.75930168 9.23254755,3.10202434 C8.98851725,3.68735277 8.74307241,4.37303993 8.51314776,5.15162075 C8.44632319,5.37790501 8.38230904,5.60579179 8.32118494,5.83524842 C9.55192893,5.632457 10.762458,5.51015439 11.9498738,5.46169041 L11.9498738,1.07915615 L13.9498738,1.07915615 L13.9498738,5.44934248 C15.1499715,5.48373802 16.3235792,5.59309338 17.4674894,5.77004904 C17.4109122,5.55954434 17.3519054,5.35036459 17.2905308,5.14253502 C17.0603359,4.36303909 16.8146015,3.67654304 16.5702817,3.09052011 C16.4272228,2.74738076 16.3194739,2.51934073 16.2641043,2.41387483 L18.0349001,1.48420704 C18.3390151,2.06347362 18.7765595,3.11296299 19.2086402,4.57609333 C19.3654647,5.10713905 19.5079023,5.64622635 19.6350819,6.19297555 C20.1450181,6.31339157 20.6481837,6.447211 21.144263,6.59370942 C22.5931904,7.02159581 23.6326195,7.45494599 24.20656,7.75626476 L23.2768922,9.52706057 C23.1727578,9.47239002 22.9473068,9.36586444 22.6079401,9.22437846 C22.0282049,8.98268003 21.3490322,8.73956708 20.5778213,8.51181885 C20.403393,8.460308 20.2280034,8.41048292 20.0516678,8.36238075 C20.212477,9.42010871 20.3160495,10.5028697 20.3566988,11.6081861 L24.3997476,11.6081861 L24.3997476,13.6081861 L20.3611161,13.6081861 C20.3204416,14.8729848 20.1968842,16.1641293 19.9824983,17.4781573 C20.2079589,17.4179832 20.4319032,17.3550201 20.6543003,17.2893434 C21.4332266,17.0593168 22.1192191,16.8137626 22.7048097,16.569623 C23.0476896,16.4266723 23.2755516,16.3190075 23.380926,16.263686 L24.3105938,18.0344818 C23.7316934,18.3384045 22.6828958,18.7756606 21.220742,19.2074529 C20.672196,19.3694454 20.1150639,19.5160769 19.5497648,19.6463858 C19.1884262,21.177515 18.7024644,22.7361421 18.0799707,24.3170786 L16.2190337,23.5843347 C16.6878957,22.393574 17.0741846,21.2173145 17.3837531,20.0579569 C16.2660342,20.2257211 15.1204342,20.3295237 13.9498738,20.3626617 L13.9498738,24.8205914 L11.9498738,24.8205914 L11.9498738,20.3502519 C10.7892748,20.3032141 9.60678293,20.186283 8.40505545,19.99336 C8.71675564,21.1695973 9.1074952,22.3633097 9.58340941,23.5719807 L7.72247246,24.3047246 C7.09078842,22.7004477 6.59985067,21.1191678 6.23718817,19.5663188 C4.68250288,19.2034223 3.09932475,18.7120022 1.49310297,18.0795524 L2.2258469,16.2186154 C3.43637701,16.6952617 4.63190928,17.0865085 5.80991776,17.3985141 C5.60324657,16.1119303 5.48371489,14.8473999 5.44383334,13.6081861 L0.658312298,13.6081861 L0.658312298,11.6081861 L5.44827723,11.6081861 C5.48798303,10.5300232 5.58762318,9.47334595 5.74190842,8.4404589 Z M7.84938912,7.95217572 C7.63618453,9.13596276 7.50001122,10.3559619 7.45058937,11.6081861 L11.9498738,11.6081861 L11.9498738,7.46448636 C10.6139361,7.52306464 9.24560146,7.68195106 7.84939254,7.95217549 Z M13.9498738,7.4511067 L13.9498738,11.6081861 L18.3543906,11.6081861 C18.3040369,10.3304735 18.163469,9.08626848 17.9429881,7.87979632 C16.6539411,7.64041341 15.3211419,7.49322205 13.9498738,7.4511067 Z M11.9498738,18.3474822 L11.9498738,13.6081861 L7.44594707,13.6081861 C7.49399961,14.9980604 7.64951881,16.4231845 7.92480462,17.8785132 C9.29464868,18.1374817 10.6377397,18.2903883 11.9498738,18.3474822 Z M13.9498738,18.3609185 C15.2937271,18.320179 16.6010264,18.1795114 17.866897,17.9507995 C18.150457,16.4704006 18.3101954,15.0211001 18.3590041,13.6081861 L13.9498738,13.6081861 L13.9498738,18.3609185 Z" id="Combined-Shape" fill="#FFFFFF" fill-rule="nonzero"></path>
                </g>
            </g>
        </g>
    </g>
</svg>