<?xml version="1.0" encoding="UTF-8"?>
<svg width="162px" height="29px" viewBox="0 0 162 29" version="1.1" xmlns="http://www.w3.org/2000/svg" xmlns:xlink="http://www.w3.org/1999/xlink">
    <!-- Generator: Sketch 45 (43475) - http://www.bohemiancoding.com/sketch -->
    <title>Page 1</title>
    <desc>Created with Sketch.</desc>
    <defs>
        <polygon id="path-1" points="6.96491476e-16 23.333 6.96491476e-16 0.756 11.8545 0.756 11.8545 23.333"></polygon>
    </defs>
    <g id="Page-1" stroke="none" stroke-width="1" fill="none" fill-rule="evenodd">
        <g id="главная_гайды" transform="translate(-434.000000, -997.000000)">
            <g id="Page-1" transform="translate(434.000000, 997.000000)">
                <g id="Group-3" transform="translate(0.000000, 2.579900)">
                    <mask id="mask-2" fill="#000">
                        <use xlink:href="#path-1"></use>
                    </mask>
                    <g id="Clip-2"></g>
                    <path d="M2.0405,7.159 L3.0085,7.159 L3.0085,5.938 C3.0085,4.668 3.1695,3.657 3.4925,2.908 C3.8145,2.158 4.3605,1.612 5.1305,1.269 C5.8995,0.927 6.9555,0.756 8.2955,0.756 C10.6675,0.756 11.8545,1.337 11.8545,2.498 C11.8545,2.876 11.7305,3.198 11.4825,3.466 C11.2335,3.734 10.9405,3.868 10.6035,3.868 C10.4445,3.868 10.1715,3.839 9.7845,3.779 C9.3975,3.72 9.0695,3.689 8.8015,3.689 C8.0665,3.689 7.5955,3.905 7.3865,4.338 C7.1785,4.769 7.0745,5.388 7.0745,6.191 L7.0745,7.159 L8.0715,7.159 C9.6205,7.159 10.3945,7.626 10.3945,8.559 C10.3945,9.224 10.1885,9.646 9.7775,9.825 C9.3655,10.004 8.7965,10.094 8.0715,10.094 L7.0745,10.094 L7.0745,20.861 C7.0745,21.665 6.8825,22.278 6.5005,22.7 C6.1185,23.122 5.6245,23.333 5.0195,23.333 C4.4425,23.333 3.9635,23.122 3.5815,22.7 C3.1995,22.278 3.0085,21.665 3.0085,20.861 L3.0085,10.094 L1.8915,10.094 C1.2855,10.094 0.8195,9.957 0.4915,9.683 C0.1635,9.411 -0.0005,9.055 -0.0005,8.619 C-0.0005,7.646 0.6805,7.159 2.0405,7.159" id="Fill-1" fill="#FEFEFE" mask="url(#mask-2)"></path>
                </g>
                <path d="M16.9629,11.6901 L16.9629,23.4411 C16.9629,24.2541 16.7699,24.8711 16.3819,25.2881 C15.9949,25.7051 15.5039,25.9131 14.9079,25.9131 C14.3119,25.9131 13.8279,25.7001 13.4559,25.2721 C13.0839,24.8451 12.8979,24.2351 12.8979,23.4411 L12.8979,11.8091 C12.8979,11.0051 13.0839,10.4001 13.4559,9.9931 C13.8279,9.5861 14.3119,9.3811 14.9079,9.3811 C15.5039,9.3811 15.9949,9.5861 16.3819,9.9931 C16.7699,10.4001 16.9629,10.9651 16.9629,11.6901 M14.9529,7.4911 C14.3869,7.4911 13.9019,7.3171 13.5009,6.9691 C13.0979,6.6221 12.8979,6.1301 12.8979,5.4951 C12.8979,4.9191 13.1029,4.4451 13.5149,4.0731 C13.9269,3.7001 14.4059,3.5141 14.9529,3.5141 C15.4789,3.5141 15.9449,3.6831 16.3529,4.0201 C16.7589,4.3581 16.9629,4.8491 16.9629,5.4951 C16.9629,6.1211 16.7639,6.6101 16.3669,6.9611 C15.9699,7.3141 15.4989,7.4911 14.9529,7.4911" id="Fill-4" fill="#FEFEFE"></path>
                <path d="M29.9795,24.2301 L27.0305,19.8961 L24.0075,24.2301 C23.5705,24.8351 23.2005,25.2671 22.8975,25.5261 C22.5945,25.7841 22.2105,25.9131 21.7435,25.9131 C21.2275,25.9131 20.7885,25.7511 20.4255,25.4291 C20.0625,25.1061 19.8825,24.7361 19.8825,24.3191 C19.8825,23.8921 20.1605,23.2821 20.7165,22.4881 L24.3945,17.2151 L21.1335,12.8221 C20.5675,12.0971 20.2845,11.4661 20.2845,10.9301 C20.2845,10.5131 20.4535,10.1511 20.7905,9.8431 C21.1275,9.5361 21.5695,9.3811 22.1165,9.3811 C22.5925,9.3811 22.9875,9.5161 23.2995,9.7841 C23.6125,10.0521 23.9775,10.4741 24.3945,11.0491 L27.0305,14.6541 L29.5925,11.0491 C30.0195,10.4541 30.3895,10.0271 30.7015,9.7691 C31.0145,9.5111 31.4035,9.3811 31.8705,9.3811 C32.4065,9.3811 32.8515,9.5341 33.2035,9.8361 C33.5565,10.1391 33.7325,10.5031 33.7325,10.9301 C33.7325,11.2391 33.6605,11.5341 33.5165,11.8171 C33.3725,12.1001 33.1515,12.4351 32.8535,12.8221 L29.5925,17.2151 L33.2715,22.4881 C33.8465,23.3121 34.1345,23.9321 34.1345,24.3491 C34.1345,24.7761 33.9565,25.1431 33.5985,25.4511 C33.2415,25.7591 32.7985,25.9131 32.2725,25.9131 C31.8065,25.9131 31.4115,25.7791 31.0885,25.5101 C30.7665,25.2431 30.3965,24.8161 29.9795,24.2301" id="Fill-6" fill="#FEFEFE"></path>
                <path d="M83.0273,9.7389 L83.4743,9.7389 L83.4743,7.2969 C83.4743,6.6409 83.4913,6.1279 83.5263,5.7559 C83.5613,5.3839 83.6573,5.0629 83.8173,4.7949 C83.9753,4.5169 84.2043,4.2909 84.5023,4.1169 C84.7993,3.9439 85.1323,3.8569 85.4993,3.8569 C86.0153,3.8569 86.4823,4.0509 86.8993,4.4369 C87.1773,4.6959 87.3533,5.0109 87.4283,5.3839 C87.5023,5.7559 87.5403,6.2839 87.5403,6.9689 L87.5403,9.7389 L89.0293,9.7389 C89.6053,9.7389 90.0443,9.8759 90.3473,10.1489 C90.6503,10.4229 90.8013,10.7719 90.8013,11.1989 C90.8013,11.7449 90.5853,12.1279 90.1533,12.3449 C89.7213,12.5639 89.1033,12.6739 88.2993,12.6739 L87.5403,12.6739 L87.5403,20.1489 C87.5403,20.7849 87.5623,21.2739 87.6073,21.6169 C87.6513,21.9589 87.7713,22.2369 87.9643,22.4509 C88.1583,22.6639 88.4733,22.7699 88.9103,22.7699 C89.1483,22.7699 89.4703,22.7279 89.8783,22.6439 C90.2853,22.5599 90.6023,22.5169 90.8313,22.5169 C91.1583,22.5169 91.4543,22.6489 91.7173,22.9119 C91.9803,23.1759 92.1113,23.5009 92.1113,23.8869 C92.1113,24.5429 91.7543,25.0449 91.0393,25.3909 C90.3243,25.7389 89.2973,25.9129 87.9573,25.9129 C86.6863,25.9129 85.7233,25.6999 85.0683,25.2719 C84.4123,24.8449 83.9833,24.2549 83.7793,23.5009 C83.5753,22.7459 83.4743,21.7379 83.4743,20.4769 L83.4743,12.6739 L82.9383,12.6739 C82.3523,12.6739 81.9053,12.5349 81.5973,12.2569 C81.2903,11.9779 81.1363,11.6259 81.1363,11.1989 C81.1363,10.7719 81.2973,10.4229 81.6203,10.1489 C81.9423,9.8759 82.4113,9.7389 83.0273,9.7389" id="Fill-8" fill="#FEFEFE"></path>
                <path d="M97.6372,20.0456 L97.6372,23.4416 C97.6372,24.2656 97.4442,24.8836 97.0562,25.2946 C96.6692,25.7066 96.1782,25.9126 95.5822,25.9126 C94.9962,25.9126 94.5142,25.7046 94.1372,25.2876 C93.7602,24.8706 93.5722,24.2546 93.5722,23.4416 L93.5722,12.1226 C93.5722,10.2956 94.2322,9.3816 95.5522,9.3816 C96.2272,9.3816 96.7142,9.5956 97.0122,10.0226 C97.3092,10.4486 97.4732,11.0796 97.5032,11.9136 C97.9902,11.0796 98.4892,10.4486 99.0002,10.0226 C99.5112,9.5956 100.1942,9.3816 101.0482,9.3816 C101.9012,9.3816 102.7302,9.5956 103.5342,10.0226 C104.3392,10.4486 104.7412,11.0156 104.7412,11.7206 C104.7412,12.2166 104.5702,12.6266 104.2272,12.9486 C103.8852,13.2716 103.5142,13.4336 103.1172,13.4336 C102.9692,13.4336 102.6092,13.3416 102.0382,13.1566 C101.4672,12.9736 100.9632,12.8816 100.5262,12.8816 C99.9302,12.8816 99.4442,13.0376 99.0672,13.3516 C98.6892,13.6636 98.3972,14.1276 98.1882,14.7436 C97.9802,15.3586 97.8362,16.0916 97.7562,16.9406 C97.6772,17.7886 97.6372,18.8236 97.6372,20.0456" id="Fill-10" fill="#FEFEFE"></path>
                <path d="M116.209,17.737 C115.613,17.956 114.747,18.186 113.61,18.429 C112.473,18.673 111.687,18.851 111.25,18.966 C110.813,19.08 110.396,19.303 109.999,19.635 C109.602,19.968 109.403,20.432 109.403,21.028 C109.403,21.644 109.636,22.168 110.103,22.599 C110.569,23.031 111.18,23.247 111.935,23.247 C112.739,23.247 113.481,23.071 114.161,22.718 C114.841,22.366 115.34,21.912 115.658,21.356 C116.025,20.74 116.209,19.727 116.209,18.318 L116.209,17.737 Z M116.477,23.62 C115.494,24.384 114.543,24.958 113.625,25.34 C112.707,25.721 111.676,25.913 110.535,25.913 C109.492,25.913 108.576,25.707 107.787,25.295 C106.998,24.883 106.39,24.325 105.963,23.62 C105.536,22.915 105.322,22.15 105.322,21.326 C105.322,20.215 105.675,19.266 106.38,18.481 C107.084,17.697 108.053,17.171 109.284,16.903 C109.542,16.843 110.182,16.71 111.205,16.501 C112.228,16.293 113.104,16.101 113.834,15.927 C114.563,15.754 115.355,15.543 116.209,15.295 C116.159,14.222 115.943,13.435 115.561,12.934 C115.179,12.432 114.387,12.182 113.186,12.182 C112.153,12.182 111.376,12.326 110.855,12.614 C110.334,12.902 109.887,13.334 109.515,13.91 C109.142,14.485 108.879,14.865 108.725,15.049 C108.571,15.232 108.241,15.324 107.735,15.324 C107.278,15.324 106.883,15.177 106.551,14.884 C106.218,14.592 106.052,14.217 106.052,13.76 C106.052,13.046 106.305,12.351 106.812,11.675 C107.318,11.001 108.107,10.444 109.18,10.008 C110.252,9.571 111.587,9.352 113.186,9.352 C114.973,9.352 116.377,9.563 117.4,9.985 C118.423,10.407 119.145,11.075 119.567,11.988 C119.989,12.902 120.2,14.113 120.2,15.622 C120.2,16.575 120.198,17.384 120.193,18.049 C120.188,18.715 120.18,19.455 120.17,20.268 C120.17,21.033 120.297,21.83 120.55,22.659 C120.803,23.488 120.93,24.021 120.93,24.259 C120.93,24.676 120.734,25.056 120.342,25.399 C119.949,25.742 119.505,25.913 119.009,25.913 C118.592,25.913 118.18,25.716 117.772,25.325 C117.365,24.932 116.934,24.364 116.477,23.62 L116.477,23.62 Z" id="Fill-12" fill="#FEFEFE"></path>
                <path d="M126.4399,11.9137 L129.7319,21.1467 L133.2759,11.5117 C133.5539,10.7367 133.8269,10.1887 134.0949,9.8657 C134.3629,9.5437 134.7699,9.3817 135.3159,9.3817 C135.8329,9.3817 136.2719,9.5557 136.6339,9.9027 C136.9969,10.2507 137.1779,10.6527 137.1779,11.1087 C137.1779,11.2877 137.1459,11.4967 137.0809,11.7347 C137.0159,11.9737 136.9419,12.1967 136.8569,12.4047 C136.7729,12.6137 136.6759,12.8517 136.5669,13.1197 L132.6649,22.8007 C132.5559,23.0787 132.4149,23.4317 132.2409,23.8577 C132.0669,24.2847 131.8739,24.6497 131.6599,24.9527 C131.4459,25.2557 131.1839,25.4907 130.8709,25.6597 C130.5579,25.8287 130.1779,25.9127 129.7319,25.9127 C129.1549,25.9127 128.6959,25.7807 128.3539,25.5177 C128.0109,25.2557 127.7579,24.9677 127.5939,24.6547 C127.4299,24.3417 127.1549,23.7237 126.7679,22.8007 L122.8959,13.2247 C122.8059,12.9857 122.7139,12.7477 122.6199,12.5097 C122.5249,12.2707 122.4459,12.0277 122.3819,11.7797 C122.3169,11.5317 122.2849,11.3177 122.2849,11.1397 C122.2849,10.8607 122.3689,10.5857 122.5379,10.3127 C122.7069,10.0397 122.9399,9.8157 123.2379,9.6427 C123.5359,9.4697 123.8579,9.3817 124.2059,9.3817 C124.8809,9.3817 125.3449,9.5757 125.5989,9.9627 C125.8519,10.3507 126.1319,11.0007 126.4399,11.9137" id="Fill-14" fill="#FEFEFE"></path>
                <path d="M143.0903,16.3366 L150.4623,16.3366 C150.3623,14.9466 149.9873,13.9066 149.3383,13.2166 C148.6873,12.5266 147.8313,12.1826 146.7683,12.1826 C145.7563,12.1826 144.9243,12.5316 144.2743,13.2326 C143.6233,13.9316 143.2293,14.9666 143.0903,16.3366 M151.0433,18.6456 L143.0903,18.6456 C143.1003,19.5686 143.2863,20.3826 143.6483,21.0876 C144.0103,21.7926 144.4923,22.3236 145.0933,22.6816 C145.6943,23.0386 146.3563,23.2176 147.0813,23.2176 C147.5683,23.2176 148.0123,23.1606 148.4143,23.0466 C148.8163,22.9326 149.2063,22.7536 149.5833,22.5106 C149.9603,22.2676 150.3083,22.0066 150.6263,21.7286 C150.9433,21.4496 151.3553,21.0726 151.8623,20.5966 C152.0703,20.4176 152.3683,20.3276 152.7563,20.3276 C153.1733,20.3276 153.5103,20.4416 153.7683,20.6706 C154.0263,20.8986 154.1553,21.2216 154.1553,21.6386 C154.1553,22.0066 154.0113,22.4356 153.7233,22.9276 C153.4353,23.4186 153.0013,23.8906 152.4203,24.3416 C151.8403,24.7936 151.1103,25.1686 150.2313,25.4666 C149.3523,25.7646 148.3423,25.9126 147.2003,25.9126 C144.5893,25.9126 142.5593,25.1686 141.1093,23.6796 C139.6593,22.1906 138.9353,20.1696 138.9353,17.6176 C138.9353,16.4166 139.1133,15.3016 139.4713,14.2736 C139.8283,13.2466 140.3503,12.3656 141.0353,11.6306 C141.7203,10.8966 142.5643,10.3326 143.5673,9.9406 C144.5693,9.5486 145.6813,9.3526 146.9033,9.3526 C148.4913,9.3526 149.8543,9.6876 150.9903,10.3576 C152.1273,11.0276 152.9793,11.8946 153.5453,12.9566 C154.1113,14.0196 154.3943,15.1016 154.3943,16.2026 C154.3943,17.2256 154.1013,17.8886 153.5153,18.1906 C152.9293,18.4936 152.1053,18.6456 151.0433,18.6456" id="Fill-16" fill="#FEFEFE"></path>
                <path d="M157.8193,23.4411 L157.8193,5.8071 C157.8193,4.9941 158.0003,4.3781 158.3623,3.9611 C158.7253,3.5441 159.2143,3.3361 159.8293,3.3361 C160.4453,3.3361 160.9413,3.5421 161.3193,3.9541 C161.6963,4.3661 161.8843,4.9841 161.8843,5.8071 L161.8843,23.4411 C161.8843,24.2651 161.6933,24.8831 161.3113,25.2951 C160.9293,25.7071 160.4353,25.9131 159.8293,25.9131 C159.2343,25.9131 158.7503,25.7001 158.3773,25.2721 C158.0053,24.8451 157.8193,24.2351 157.8193,23.4411" id="Fill-18" fill="#FEFEFE"></path>
                <path d="M70.4392,13.2379 C69.7552,19.9019 64.7082,25.3779 57.7282,25.3769 C50.7782,25.3769 45.7532,19.9529 45.0212,13.3239 C44.7492,10.8569 48.6082,10.8839 48.8782,13.3239 C50.0542,23.9769 65.4912,23.8629 66.5822,13.2379 C66.8342,10.7889 70.6922,10.7709 70.4392,13.2379 M55.1782,3.2099 L60.2802,3.2099 C60.7532,3.2099 61.1402,3.5969 61.1402,4.0699 C61.1402,4.5429 60.7532,4.9299 60.2802,4.9299 L55.1782,4.9299 C54.7062,4.9299 54.3192,4.5429 54.3192,4.0699 C54.3192,3.5969 54.7062,3.2099 55.1782,3.2099 M68.7322,4.9639 L65.4452,4.9639 C65.4452,4.9639 64.9572,4.8719 64.7572,4.6289 C64.5562,4.3849 64.5872,3.8999 64.5872,3.8999 C64.5872,1.7549 62.8322,-0.0001 60.6882,-0.0001 L54.7712,-0.0001 C52.6262,-0.0001 50.8712,1.7549 50.8712,3.8999 C50.8712,3.8999 50.9142,4.4999 50.6702,4.7289 C50.4552,4.9309 50.0122,4.9639 50.0122,4.9639 L46.7272,4.9639 C43.5092,4.9639 40.8772,7.5969 40.8772,10.8139 L40.8772,22.7309 C40.8772,25.9479 43.5092,28.5799 46.7272,28.5799 L68.7322,28.5799 C71.9492,28.5799 74.5812,25.9479 74.5812,22.7309 L74.5812,10.8139 C74.5812,7.5969 71.9492,4.9639 68.7322,4.9639" id="Fill-20" fill="#FEFEFE"></path>
            </g>
        </g>
    </g>
</svg>