<?xml version="1.0" encoding="UTF-8"?>
<svg width="173px" height="187px" viewBox="0 0 173 187" version="1.1" xmlns="http://www.w3.org/2000/svg" xmlns:xlink="http://www.w3.org/1999/xlink">
    <!-- Generator: sketchtool 45 (43475) - http://www.bohemiancoding.com/sketch -->
    <title>AD9B215C-491F-4D39-B5AC-D4BAE7B38D5A</title>
    <desc>Created with sketchtool.</desc>
    <defs>
        <polygon id="path-1" points="140.820718 186.683011 0 186.683011 0 0.263891416 172.539276 0.263891416 172.539276 186.683011 140.820718 186.683011 172.539249 186.683116 172.539249 157.075923 140.820718 157.075923 140.820718 186.683011"></polygon>
    </defs>
    <g id="Page-1" stroke="none" stroke-width="1" fill="none" fill-rule="evenodd">
        <g id="выдача-по-стране" transform="translate(-461.000000, -2164.000000)">
            <g id="Page-1-Copy" transform="translate(461.000000, 2164.000000)">
                <path d="M93.6761519,35.6785804 C93.6761519,35.6785804 94.0187882,37.1539908 94.3099522,39.4114724 C94.454766,40.5404052 94.5995798,41.8648559 94.6295412,43.3030065 C94.6449061,44.0220818 94.6402966,44.7703503 94.571923,45.5370567 C94.50547,46.3033789 94.388313,47.0908278 94.132104,47.8874957 C94.0767905,48.0868547 93.9853696,48.2865978 93.9081612,48.4867251 C93.8052167,48.6849317 93.7184052,48.8854431 93.5831945,49.081345 L93.4879324,49.2284635 L93.4760246,49.2469014 L93.4698787,49.2557362 C93.4575868,49.271101 93.4890847,49.2349936 93.4410696,49.2922277 L93.4191746,49.3198844 L93.3757689,49.3751979 L93.202146,49.5960677 C93.1533626,49.6652096 93.0738495,49.7497163 92.990111,49.8353754 L92.7446574,50.0854384 C92.1047111,50.6923503 91.2273778,51.1302487 90.3331431,51.2024635 C89.4385244,51.2750625 88.6038285,51.0472785 87.9408349,50.6958074 C87.7706691,50.6132213 87.6116429,50.5202639 87.4626038,50.4192399 C87.3074187,50.3255143 87.1702874,50.2164238 87.0320037,50.1138634 C86.7684964,49.9033649 86.5130556,49.6598319 86.3259885,49.4670029 C85.9019184,49.0387076 85.5654281,48.6169422 85.2807941,48.2335891 C85.0000013,47.8471629 84.7783633,47.4964601 84.6112705,47.1979977 C84.2751642,46.6029936 84.1441788,46.2296276 84.1441788,46.2296276 L84.2855355,46.1343655 C84.2855355,46.1343655 84.5743948,46.379435 85.0806668,46.8077303 C85.3353393,47.0159242 85.6411,47.2679078 85.9975647,47.5421705 C86.3505723,47.8195062 86.761198,48.1168161 87.1987123,48.4202721 C87.4426295,48.5919743 87.6454456,48.7195027 87.8874421,48.8493357 C88.1198355,48.9787846 88.3664415,49.0978623 88.6207298,49.1885149 C88.8746341,49.28685 89.1366049,49.3509983 89.3989598,49.4013182 C89.662083,49.4297432 89.9252062,49.4662347 90.1844882,49.4347367 C90.7015156,49.4024705 91.2204636,49.2154034 91.7117549,48.86931 L91.8750065,48.7410135 C91.9295518,48.7010648 91.9867859,48.6591956 92.0559277,48.5835237 L92.2533661,48.3833964 L92.3025337,48.3334606 L92.3271174,48.3084927 C92.2833276,48.3611174 92.3175144,48.3200164 92.3086796,48.3303877 L92.3129049,48.3253941 L92.3209715,48.3150228 L92.3878086,48.2320526 C92.5741075,48.0173287 92.724299,47.727317 92.8529797,47.4184834 C93.1084204,46.7969749 93.2762815,46.0944169 93.3903655,45.3903223 C93.5029131,44.6843071 93.5805056,43.9736825 93.6289049,43.2807275 C93.7218623,41.8940491 93.7264718,40.5815062 93.7053451,39.457567 C93.6838343,38.3320912 93.6212225,37.3940667 93.5839627,36.7364508 C93.5428617,36.0792191 93.5079067,35.7047007 93.5079067,35.7047007 L93.6761519,35.6785804 Z" id="Fill-1" fill="#FEFEFE"></path>
                <path d="M21.2825162,48.8013973 L21.294424,48.7614487 L21.2925034,48.7702835 L21.2825162,48.8013973 Z M7.07271249,6.84458278 L7.07271249,6.84419865 C7.08039492,6.84919223 7.071176,6.84727163 7.07271249,6.84458278 L7.07271249,6.84458278 Z M5.55351227,9.12395929 C5.55504875,9.12856874 5.53276971,9.1331782 5.50319236,9.13740354 C5.5254714,9.12856874 5.53392208,9.12664814 5.53891565,9.12549577 C5.54775045,9.12395929 5.55351227,9.12395929 5.55351227,9.12395929 L5.55351227,9.12395929 Z M0.902954224,10.0354794 C0.90449071,10.0327906 0.873376875,10.0685139 0.887973489,10.0512284 L0.89104646,10.0473872 L0.896808281,10.0397048 L0.919471445,10.008975 L0.94789643,9.97094702 C0.936756909,9.99821964 0.922544417,10.0212669 0.912173138,10.0301017 L0.902954224,10.0354794 Z M69.4993576,21.8180199 L69.4924434,21.8253182 C69.4897545,21.8272388 69.491291,21.8241658 69.4928275,21.8210929 C69.4970528,21.8134104 69.5066559,21.8007344 69.5177954,21.7872902 C69.5193319,21.7857537 69.5224049,21.7830648 69.5239413,21.7811442 C69.5024305,21.8168675 69.5062718,21.8072645 69.4993576,21.8180199 L69.4993576,21.8180199 Z M24.9478028,54.9853681 C23.8757199,53.4358223 22.794034,51.8663022 21.9608746,50.312531 C21.7611315,49.9272572 21.5763691,49.5408311 21.4484567,49.2004995 C21.3846925,49.0318702 21.3393662,48.873228 21.319776,48.7683629 L21.3117094,48.7111288 C21.4069716,48.4172759 21.5763691,48.0078025 21.7476873,47.6252176 C21.9324497,47.2149759 22.1356499,46.7970518 22.3449961,46.3795118 C23.1743142,44.6989806 24.0835296,43.0123034 24.9616312,41.3106455 C26.5177071,38.3237173 28.0572657,35.3075959 29.45009,32.1869935 C30.7975879,33.2487051 32.1946375,34.238586 33.6266422,35.1343572 C35.552627,36.3470285 37.5323888,37.3991371 39.4979381,38.3033589 C40.4820572,38.752781 41.4623351,39.1649433 42.4272481,39.5548265 C43.3879357,39.9543128 44.3474711,40.296565 45.3004763,40.5662182 C47.2014932,41.1201213 49.0153146,41.5580197 50.6927728,41.919478 C52.363701,42.295917 53.9458971,42.5402182 55.3325754,42.6808066 C56.7238632,42.8252363 57.9396075,42.8828545 58.9402438,42.8932258 C60.2139905,42.9074383 61.1351136,42.8674896 61.6379286,42.8363758 C61.8707062,43.4137103 62.1257628,43.9760641 62.4007937,44.5165229 C63.2566162,46.2646595 64.2488019,47.9467272 65.3769665,49.5419834 C66.5178071,51.1257161 67.804998,52.6226372 69.307681,53.8863967 C70.8026816,55.1428579 72.5277709,56.180754 74.4038199,56.6609057 C74.4341655,56.677423 75.0330108,56.9947073 76.1273727,57.3953459 C77.248239,57.8067399 78.8999611,58.2934218 80.9523219,58.5381071 C82.9973843,58.7866337 85.4588344,58.7658911 88.0094006,58.1470715 C89.2812266,57.8367014 90.5645763,57.3719145 91.8064409,56.7669232 C93.0498419,56.1634685 94.2448436,55.4086699 95.3507292,54.5440126 C96.4566148,53.6782029 97.4795301,52.7109852 98.4014215,51.6869175 C99.3279224,50.6244376 100.131504,49.6818036 101.02766,48.8390412 C101.463253,48.4211171 101.91306,48.0381481 102.328295,47.7300827 C102.538025,47.5772024 102.739305,47.4538994 102.909086,47.3651673 C103.086166,47.2772035 103.202939,47.2491627 103.314719,47.2314931 C103.376562,47.2241948 103.448393,47.2199695 103.561325,47.2241948 C103.676945,47.2284201 103.832898,47.2399438 104.018813,47.2368708 C104.398709,47.2399438 104.866569,47.1631195 105.233021,47.0206104 C105.420856,46.9530051 105.58987,46.8692666 105.743518,46.7824552 L105.88718,46.7017897 L105.970918,46.6472444 C106.024311,46.6122894 106.078472,46.5781026 106.169125,46.5135702 C106.491019,46.2892432 106.729942,46.063764 106.964256,45.7775935 C107.42405,45.2240745 107.696776,44.4811837 107.657211,43.7617243 C107.638389,43.403339 107.548505,43.0549409 107.394472,42.7487961 C107.233909,42.4449561 107.014192,42.1864424 106.766434,41.9909245 C106.266308,41.5933589 105.678602,41.4719765 105.209974,41.5076998 C104.793586,41.5503373 104.544291,41.5883653 104.25428,41.6079555 C103.697688,41.6436788 103.250954,41.6129491 102.950572,41.5637815 C102.798844,41.5426549 102.684375,41.5157664 102.609088,41.4950238 C102.536489,41.4754336 102.498845,41.4650623 102.498845,41.4650623 L102.363634,41.6517453 C102.363634,41.6517453 102.398205,41.685548 102.465426,41.7512328 C102.532647,41.8111557 102.635592,41.894126 102.778485,41.9905404 C103.064656,42.1806805 103.518687,42.4146105 104.139043,42.5882334 C104.436353,42.6865684 104.843522,42.7345836 105.140064,42.799116 C105.378603,42.8682579 105.573737,42.9923291 105.680522,43.162879 C105.889485,43.5058994 105.827641,43.9679975 105.376682,44.3567284 C105.272586,44.4493016 105.10895,44.5572398 104.988336,44.6194674 C104.970666,44.6309911 104.909207,44.6621049 104.846979,44.6928346 L104.757095,44.7377768 C104.767082,44.732015 104.719067,44.7589035 104.776685,44.7262532 L104.769002,44.7293262 L104.752869,44.7354721 L104.720987,44.747764 C104.635712,44.7834873 104.555431,44.8084552 104.484368,44.8284295 C104.334177,44.8676099 104.243908,44.8741399 104.058378,44.861848 C103.927776,44.8530133 103.796023,44.8445626 103.663501,44.8357278 C103.489878,44.826893 103.272465,44.8257406 103.045065,44.8499403 C102.577205,44.8948825 102.129704,45.070426 101.783995,45.2686326 C101.430603,45.4656869 101.134061,45.6900138 100.871322,45.9231755 C100.337393,46.3837371 99.9067934,46.889625 99.4777298,47.3982018 C99.0525073,47.911388 98.6530211,48.433409 98.2462365,48.9719473 C98.0487981,49.2358387 97.8502073,49.5016507 97.6504642,49.7686151 C97.4526416,50.018294 97.2605809,50.2764236 97.052003,50.5211089 C96.2365132,51.5159834 95.3276819,52.457465 94.3401057,53.3075257 C93.3486884,54.1510564 92.287745,54.9166104 91.1657263,55.5400394 C90.0456283,56.1661573 88.8759785,56.6670517 87.7001829,57.025437 C85.350128,57.7583406 83.0039144,57.9411824 81.0133972,57.8294031 C79.0171181,57.7222332 77.3711579,57.3527084 76.2418409,57.0404177 C75.6764141,56.8821597 75.239284,56.7323523 74.9442787,56.6247983 C74.6485052,56.5164761 74.4975455,56.4500231 74.4975455,56.4500231 L74.4476097,56.5537359 L74.4875583,56.4457977 C72.7855163,55.6191684 71.3373786,54.4245508 70.088984,53.0670657 C68.8432782,51.7030506 67.7788777,50.1830821 66.8469992,48.5855211 C65.9039811,46.9944902 65.1027038,45.3158796 64.3709525,43.6130693 C63.6422741,41.9252398 63.1279356,40.223966 62.9654522,38.4992608 C62.7995118,36.7830063 63.0203816,35.0821167 63.679918,33.5490881 C63.76212,33.3574115 63.8520044,33.169192 63.9480348,32.982509 L64.0943851,32.7032527 L64.2691603,32.3894255 C64.5368929,31.8977501 64.7381726,31.4225919 64.9225508,30.9447448 C65.2840091,29.9905872 65.5663383,29.0379661 65.7845193,28.0546153 C65.8920733,27.5625557 65.9846466,27.0651185 66.0472584,26.5419451 C66.0783722,26.2799743 66.102956,26.0126258 66.1087178,25.7226141 C66.1102543,25.5685814 66.1117908,25.4418214 66.0960418,25.2424624 L66.0818293,25.0941915 L66.068385,25.0058436 L66.0480266,24.8844612 L66.0330459,24.8037957 C65.8790132,23.9479732 65.8033413,23.0591162 65.8928416,22.292794 C65.9373996,21.9140502 66.0391918,21.5729504 66.1717137,21.3666772 C66.2385508,21.2633486 66.3030832,21.191902 66.3787552,21.1338996 C66.4075643,21.1081635 66.4816997,21.0728243 66.4882298,21.0651419 L66.5692794,21.0367169 C66.545848,21.043247 66.596552,21.0286504 66.6057709,21.0255774 C66.6449513,21.0125173 66.6829793,21.0017619 66.7202391,20.9940794 C67.0240791,20.923017 67.264155,20.9395342 67.4965485,21.0540024 C67.6133214,21.1116206 67.732399,21.1953591 67.8418736,21.3082908 C67.896803,21.3647566 67.9494276,21.4266002 67.9970587,21.4930532 C68.0412327,21.549519 68.0976985,21.6501588 68.1099904,21.6651396 L68.9830984,22.7114863 L69.5243255,21.7807601 C69.5469886,21.7546399 69.5757977,21.7250625 69.6088322,21.6939487 C69.6802788,21.6271115 69.7670902,21.5575856 69.8592793,21.4895961 C70.0444259,21.353233 70.253772,21.2230158 70.4711848,21.1000969 C70.9067785,20.853491 71.3777113,20.6326212 71.8582472,20.4286527 C72.8220079,20.0226364 73.8303266,19.6769271 74.8532419,19.3800012 C75.8723161,19.0757771 76.9213517,18.8222569 77.9580954,18.6036918 C79.000985,18.398571 80.0569348,18.2618238 81.1167258,18.1884566 C83.236692,18.0563188 85.3743277,18.2522207 87.4213107,18.7661752 C89.4725191,19.2709107 91.42424,20.0825593 93.2899178,21.0286504 C95.154059,21.9789668 96.9463696,23.0771699 98.6910491,24.2349119 L99.0263871,24.4573182 C99.1308681,24.5276124 99.2307397,24.5940654 99.3306112,24.6662802 C99.5295861,24.808021 99.7239516,24.956676 99.911787,25.1118611 C100.287842,25.4226153 100.638545,25.7610263 100.961207,26.1247893 C101.601153,26.8557723 102.148526,27.6735668 102.56645,28.5716427 C102.983222,29.4693345 103.277843,30.4361681 103.486421,31.4333473 C103.687316,32.4328312 103.780658,33.4649655 103.813308,34.5078551 C103.850568,36.5932503 103.631235,38.7258925 103.172594,40.8193542 L103.389622,40.8984832 C103.859403,39.9082182 104.216252,38.8733951 104.500117,37.8120676 C104.780526,36.750356 104.986031,35.66214 105.08475,34.5539497 C105.195377,33.4461435 105.19192,32.318363 105.066312,31.1901984 C104.947619,30.0608815 104.681423,28.9315645 104.248902,27.8506468 C103.821375,26.7701132 103.23098,25.7310648 102.465426,24.8314524 C102.085914,24.3789574 101.671447,23.9564238 101.228171,23.5692294 C101.006533,23.3756322 100.777981,23.1904857 100.543667,23.0137899 C100.427662,22.9250578 100.30628,22.8386305 100.189507,22.7560444 L99.8583941,22.5232668 C98.0353538,21.2729516 96.0851694,20.2120082 94.0216691,19.3988232 C89.8885226,17.7609294 85.4092827,17.2051057 81.0725519,17.4966539 C78.8918946,17.6157315 76.7461923,18.0290462 74.622385,18.4615669 C73.5587528,18.6901192 72.4935841,18.9340363 71.4337931,19.2613077 C70.9037055,19.4260958 70.3743862,19.6085535 69.8458351,19.8397946 C69.5903944,19.951958 69.3349536,20.0756451 69.0775923,20.2243001 C68.8878363,19.9842242 68.6558269,19.7610497 68.3784913,19.5797444 C67.7957791,19.1937023 67.0317616,19.0857642 66.4052595,19.1875564 C66.324594,19.1979277 66.2470015,19.2121402 66.1705613,19.2294256 C66.1225462,19.240181 66.115632,19.2390287 66.0341982,19.2601553 L65.9450821,19.2835867 C65.7261329,19.3504239 65.5828556,19.414188 65.4076962,19.5106025 C65.075047,19.6965173 64.7923337,19.9630975 64.5860605,20.2481156 C64.1712093,20.8242978 64.0037324,21.4223748 63.898099,21.976662 C63.7041177,23.0929189 63.7744119,24.1235167 63.9057814,25.1406702 L63.9192257,25.2359323 L63.926524,25.2835633 C63.9242193,25.2705032 63.9330541,25.330042 63.9219145,25.2574431 L63.923451,25.2681985 L63.9257558,25.2904775 L63.9353588,25.3788255 L63.9334382,25.4080187 C63.9338223,25.4460467 63.9315176,25.5566737 63.926524,25.640028 C63.9142321,25.8247904 63.8873436,26.0302954 63.8535409,26.2384892 C63.7851673,26.6564133 63.686064,27.0904705 63.5723641,27.5218389 C63.3407388,28.3841915 63.0584096,29.2503853 62.7169256,30.0608815 C62.5467599,30.4642089 62.3596927,30.8579334 62.1607178,31.1940396 L61.9782602,31.4967273 L61.7823582,31.8420525 C61.6563664,32.0755983 61.5395935,32.314906 61.4308871,32.5580548 C60.5412619,34.5051663 60.2950401,36.7069503 60.5520173,38.7608475 C60.7214149,40.1659637 61.1101457,41.5184552 61.6194907,42.7906653 C61.1132187,42.7699228 60.2016986,42.7153775 58.9602181,42.5740209 C57.9745626,42.457248 56.7807132,42.2924599 55.429374,42.0285684 C54.0722731,41.7689024 52.5857232,41.3851651 50.9566642,40.8908008 C49.3287576,40.4048872 47.5829258,39.8360034 45.774098,39.1526514 C44.8741015,38.7988755 43.9452959,38.4562392 42.9926748,38.1112982 C42.0450473,37.753297 41.0966515,37.3403665 40.1390368,36.9070775 C38.2295692,36.0285919 36.3093462,35.0079812 34.4444367,33.8337221 C32.575686,32.6648406 30.7706994,31.3334757 29.0632797,29.8884109 C27.365463,28.4318225 25.7736639,26.8534676 24.3255261,25.1940631 C23.9625314,24.7799802 23.6183586,24.3528371 23.2661192,23.9360654 C22.930013,23.5058494 22.5958274,23.077554 22.2631782,22.6523316 C21.5998005,21.7746142 20.9594701,20.9153345 20.3383458,20.0552867 C19.1014748,18.3394163 17.950647,16.652355 17.067936,14.9814268 C16.1848408,13.317797 15.5986715,11.6399546 15.6651246,10.1272844 C15.6958543,9.37325409 15.8675565,8.66570243 16.1414351,8.02037844 C16.2021263,7.85712684 16.2881695,7.70309415 16.3580796,7.54675673 C16.444891,7.38465749 16.5309342,7.2252471 16.6158251,7.06775732 C16.8474503,6.63677309 16.9972576,6.07672405 16.8689611,5.50784023 C16.7494993,4.95163241 16.3480924,4.39081514 15.6820259,4.21104631 C15.3570592,4.1211619 14.9756266,4.16303114 14.6883038,4.31053376 C14.3936826,4.45381105 14.1947078,4.66699844 14.0556558,4.86597334 C13.8297924,5.20438431 13.7187813,5.4498379 13.5851071,5.69029791 C13.4587311,5.92538022 13.3400376,6.13703112 13.2228806,6.31872055 C12.9974013,6.68286766 12.7373511,6.9221753 12.6574538,6.93600367 C12.6205782,6.94253374 12.6267241,6.95520974 12.6044451,6.92332767 C12.5886961,6.95021617 12.5395286,6.98939655 12.4930499,7.01436444 C12.4408093,7.02780869 12.3847276,7.05200834 12.3251888,7.0512401 C12.2084159,7.06007489 12.0816558,7.04970361 11.9725653,7.03472288 C11.8669319,7.01167559 11.7674445,6.99400601 11.6875472,6.97441582 C11.610723,6.95367326 11.5531047,6.9383084 11.5123879,6.92716888 C11.5588666,6.65213794 11.636075,6.11782505 11.6863949,5.35150281 C11.7244229,4.77724129 11.7566891,4.08082915 11.7125151,3.26111404 C11.7006074,3.05522496 11.6848584,2.84165345 11.6560493,2.6165583 C11.6230148,2.39223139 11.6003517,2.15177138 11.4931818,1.89709887 C11.4413254,1.7684182 11.3710312,1.63589631 11.2580995,1.4814795 C11.1981765,1.40388697 11.1259617,1.31938026 11.0088047,1.23448942 C10.8912635,1.14998271 10.7203295,1.0673966 10.4998438,1.0708537 C10.1260937,1.08314558 9.89101135,1.30324716 9.76694013,1.4618893 C9.63710709,1.62936624 9.5691176,1.78224657 9.51188351,1.9262921 C9.3036897,2.49786478 9.25106507,3.01527633 9.18960564,3.55842402 C9.15503471,3.90374918 9.13198742,4.25406791 9.11086075,4.60630726 C9.09780062,4.57596166 9.08512461,4.54523195 9.07206448,4.51488636 C8.8319886,3.95406908 8.58115731,3.38019168 8.29383448,2.80400955 C7.99882923,2.22859566 7.69921452,1.64780407 7.21906275,1.07930437 C7.09422329,0.937947686 6.95670782,0.796206881 6.77425014,0.663684991 C6.68090864,0.596847864 6.58180531,0.536156679 6.44966754,0.479306709 L6.33020578,0.435516867 L6.27105108,0.418999646 C6.15581466,0.391727025 6.09550759,0.382892232 5.97758232,0.384428718 C5.76477905,0.37674629 5.4643961,0.522328308 5.33994076,0.70401774 C5.20549826,0.878408865 5.16439727,1.02860034 5.13289931,1.15420805 C5.08104292,1.40158224 5.08219528,1.59786829 5.08872535,1.78570366 C5.1309787,2.52244855 5.28577964,3.15778538 5.4375076,3.80387761 C5.58885144,4.42154485 5.75709662,5.02692021 5.92265295,5.62499726 C5.4878275,5.16097859 5.03802132,4.70733119 4.53635874,4.29708951 C4.02778198,3.89760323 3.48770727,3.4935075 2.72138503,3.33486535 C2.34340955,3.25804107 1.87247669,3.30298327 1.50026303,3.51847539 C1.41114686,3.56495408 1.28553916,3.65637498 1.25058411,3.68595233 L1.22945743,3.70208543 C1.1875882,3.73588812 1.17721692,3.74856412 1.15071254,3.77430026 C1.10500209,3.81962659 1.06697407,3.87109886 1.03432375,3.9275647 C0.968254866,4.03934404 0.940214002,4.15189161 0.927537995,4.24907433 C0.904106588,4.62205623 1.00513052,4.78569196 1.07081529,4.9585466 C1.37657594,5.5808233 1.73035176,5.98799201 2.07337219,6.41513503 C2.41869735,6.82998616 2.76363839,7.21065049 3.09820814,7.57057226 C3.62983219,8.22626753 4.2540295,8.7064193 4.78680591,9.15814609 C4.58168507,9.15584137 4.38232606,9.15123191 4.2002525,9.14508597 C3.57490283,9.11896571 3.10358584,9.09937552 2.80051404,9.08669951 C2.7083249,9.034459 2.59654557,8.980682 2.45634125,8.93919688 C2.21396063,8.8623726 1.89206688,8.81282094 1.52599917,8.86160436 C1.34354149,8.88465164 1.14879193,8.92460027 0.949817038,8.99566273 C0.743543835,9.07287114 0.56108616,9.15046367 0.322930879,9.33368958 L0.252252537,9.3913078 L0.223059309,9.41627569 L0.215761002,9.42242163 L0.211919788,9.4254946 C0.224979916,9.41089799 0.191561353,9.44854189 0.191561353,9.44854189 L0.161984003,9.48656991 C0.123955983,9.53957866 0.0863120833,9.59066681 0.0590394624,9.65519921 C0.0333033272,9.72357283 0.0125607705,9.79770826 0.0021894921,9.87030721 C-0.0185530646,10.1875915 0.113968826,10.3735063 0.214224516,10.5225454 C0.429332512,10.7910463 0.655580029,10.9439266 0.880675182,11.0852833 C1.33624319,11.3622348 1.81716321,11.5539114 2.31997815,11.7236931 C2.56773646,11.8105045 2.83393261,11.881567 3.09475105,11.9526294 C3.34020464,12.0140889 3.61446733,12.080926 3.8218929,12.1492996 C4.04391508,12.2157526 4.26862611,12.2726026 4.48680708,12.3763154 C4.70575629,12.4727298 4.93200381,12.5457129 5.14288647,12.6743936 C5.58001665,12.8860445 5.99678839,13.1549295 6.40703006,13.4257351 C6.60830969,13.5701647 6.80805283,13.7138261 7.00549124,13.8551828 C7.19639958,14.0088314 7.38577145,14.1601752 7.57706391,14.304989 C7.94236338,14.6165115 8.30113279,14.9168944 8.62878836,15.2215027 C8.95836454,15.5234222 9.2714235,15.8134338 9.55183214,16.0919219 C9.83569787,16.370794 10.0961322,16.6262348 10.3269892,16.8528664 C10.5559255,17.0860281 10.7556687,17.2892283 10.9200726,17.4563212 C11.2523377,17.7966527 11.4424778,17.9910182 11.4424778,17.9910182 C11.4424778,17.9910182 11.3637329,17.7267426 11.1728245,17.2873077 C10.984605,16.8463363 10.6792285,16.2336627 10.2417142,15.5353299 C10.0250697,15.1850112 9.76694013,14.8197117 9.47808083,14.4428886 C9.18998976,14.0652972 8.85772473,13.6869376 8.4985712,13.3066574 C8.31227231,13.1215109 8.11790687,12.9379009 7.92085258,12.7519861 C7.7184206,12.5706808 7.50100787,12.3982103 7.28397927,12.223435 C6.8380143,11.8842558 6.3574784,11.5681239 5.83660975,11.3038484 C5.58654671,11.1578822 5.30152862,11.0649248 5.03072301,10.9535296 C4.76414275,10.831379 4.4691375,10.7737608 4.18335116,10.7030824 C3.88527294,10.6247217 3.64827002,10.5855413 3.3878357,10.5455927 C3.14929629,10.4998822 2.91344574,10.4541718 2.6814364,10.4096137 C2.2204907,10.3101262 1.77452573,10.2010358 1.41229923,10.0577585 C1.25135235,10.0016767 1.11498925,9.92523657 1.03048254,9.87299606 C1.10116088,9.80039711 1.19719123,9.72088398 1.2809297,9.65980867 C1.40730565,9.56454656 1.54213227,9.49041112 1.67388592,9.43048818 C1.93931382,9.31602 2.19590693,9.25302408 2.41524026,9.24226868 C2.63418947,9.23112916 2.81664714,9.24995111 2.93918188,9.27607137 C3.06363722,9.30372811 3.1297061,9.31870885 3.1297061,9.31870885 C3.1297061,9.31870885 3.10665882,9.30027102 3.07170377,9.27261428 C3.34711883,9.35635275 3.70127878,9.46467499 4.13648835,9.57683844 C4.41382401,9.64905327 4.71958466,9.7285664 5.06606218,9.80116535 C5.15287363,9.81921906 5.24237392,9.83688864 5.33878839,9.85186938 C5.44442178,9.86224066 5.51586837,9.88528794 5.70178314,9.86646599 C5.71253854,9.86492951 5.729824,9.86185654 5.74941419,9.85647884 C5.76593141,9.85263762 5.78552161,9.84764404 5.81932429,9.83266331 C5.83584151,9.825365 5.84544455,9.82152379 5.8661871,9.80961602 C5.89230736,9.79348292 5.91765937,9.77466097 5.94032254,9.75391842 C5.95607152,9.74201065 6.00370257,9.68669717 6.02598162,9.63868199 C6.05094951,9.58951445 6.06554612,9.53496921 6.06785085,9.47235742 C6.08321571,9.44815777 6.03481641,9.28682677 6.04211471,9.31563588 L6.03942586,9.30756933 C6.03443229,9.29374096 6.0167627,9.25532881 6.00255021,9.23189741 L5.95645564,9.16045082 L5.85581583,9.02255123 C5.7943564,8.94419046 5.73174461,8.86467733 5.66836457,8.78362771 C5.15364187,8.17056992 4.64199214,7.4403551 3.94173879,6.78542808 C3.61638794,6.43549346 3.28297055,6.06712102 2.95915619,5.67839014 C2.64993845,5.30348763 2.31460045,4.87749698 2.13099041,4.50221035 C2.23892853,4.45880463 2.35646968,4.43998268 2.51588007,4.46879179 C2.90422683,4.53870189 3.3790009,4.83870072 3.80844865,5.19055594 C4.24481059,5.54702062 4.66580766,5.96840181 5.08257941,6.41359854 C5.29192558,6.64176667 5.50242412,6.87147127 5.7136909,7.10194413 L6.04979714,7.46148178 C6.10972008,7.5229412 6.17194776,7.585553 6.24569907,7.65277425 C6.28180648,7.68619281 6.3232916,7.7219161 6.37476387,7.76148061 C6.44121687,7.80296572 6.46580064,7.84713968 6.66823263,7.91666566 C6.70126707,7.92588458 6.73506976,7.93279876 6.76887244,7.93740822 C6.78346906,7.94585889 7.08346789,7.92396397 6.96016491,7.9316464 C6.97130443,7.93049403 7.01471015,7.9228116 7.12111179,7.87671703 C7.22674518,7.83369543 7.34620694,7.69733233 7.36041943,7.66468201 C7.46221161,7.49144325 7.45606567,7.4134666 7.46797343,7.35008657 C7.47757646,7.23638662 7.46989404,7.17838429 7.4656687,7.11807723 C7.45414506,7.00360904 7.43724372,6.91449287 7.42034237,6.82460846 C7.38538732,6.64983321 7.34620694,6.48773398 7.30549007,6.32717122 C7.22136748,6.01372814 7.13647664,5.69951682 7.05196993,5.38453725 C6.87988353,4.76341292 6.70741302,4.14612979 6.55722154,3.53076728 C6.41087128,2.92116658 6.26913047,2.29005509 6.24032137,1.73922497 C6.23993725,1.73269491 6.23993725,1.72654896 6.23993725,1.7200189 C6.27642878,1.75651043 6.31368856,1.79453845 6.35056422,1.83679181 C6.69627349,2.24050342 6.9939676,2.78557172 7.26285259,3.31911637 C7.53212171,3.85919109 7.77603881,4.41463067 8.01227348,4.96776551 C8.25772707,5.52819867 8.45593372,6.05751798 8.7620785,6.64983321 C8.80970955,6.73126696 8.84120751,6.80232942 8.95682806,6.93907664 C8.9683517,6.95290502 8.99216723,6.97787291 9.01982397,7.00245668 L9.0597726,7.03664349 C9.0812834,7.05316071 9.1100925,7.0727509 9.13659688,7.08811576 C9.17155193,7.10693771 9.17577727,7.11308365 9.23762082,7.13651506 C9.29331842,7.15687349 9.35439373,7.16993362 9.41316431,7.17454308 C9.54530207,7.19336503 9.76117831,7.1157725 9.82839956,7.04663064 C9.8810242,7.0028408 9.91213803,6.97710467 9.96322618,6.90373747 L9.97090861,6.89259795 C9.96706739,6.89989626 10.0081684,6.83382738 10.0223809,6.80156118 C10.0465805,6.75200951 10.0461964,6.74701593 10.0557994,6.72320041 L10.0746214,6.66865516 C10.1433791,6.42396982 10.1476045,6.29067969 10.1675788,6.12896457 C10.196772,5.82397216 10.2113686,5.54125879 10.2271176,5.26200252 C10.2578473,4.7057947 10.2862723,4.1749389 10.3362081,3.67327632 C10.3753885,3.2891549 10.4280131,2.90580173 10.509831,2.59312689 C10.6146961,2.85125648 10.71572,3.13896343 10.7871666,3.41015315 C10.987678,4.14689804 11.1171269,4.82295174 11.2200715,5.37685483 C11.3161018,5.93306264 11.3871643,6.37441816 11.4251923,6.67595347 C11.4374842,6.7696791 11.4459349,6.84458278 11.4528491,6.91103578 C11.4482396,6.9094993 11.4424778,6.90796281 11.4424778,6.90796281 C11.4424778,6.90796281 11.4482396,6.99592662 11.4593791,7.16686065 C11.4805058,7.34009941 11.5116196,7.59361955 11.7002232,7.92780518 C11.8004789,8.08644733 11.9376103,8.29656175 12.2168666,8.44444849 C12.5103353,8.49668901 12.8909997,8.50283495 13.214814,8.36762421 C13.5420855,8.24048002 13.7871549,8.03651154 13.9911234,7.82716537 C14.1950919,7.61513035 14.3614164,7.38696222 14.5146809,7.15034343 C14.6671771,6.91372463 14.8043084,6.66711868 14.9383668,6.41782388 C15.0689681,6.17659562 15.2084042,5.90156469 15.3178788,5.7421543 C15.3205676,5.7386972 15.32172,5.73831308 15.3240247,5.73485599 C15.3413102,5.75867152 15.3601321,5.79093772 15.3685828,5.83933702 C15.3970078,5.95226871 15.3731923,6.13434227 15.25834,6.34714554 C15.1688397,6.51423835 15.078187,6.6836359 14.9859979,6.85495405 C14.8999547,7.04394179 14.8000831,7.22716771 14.7240271,7.42806321 C14.3898414,8.21397564 14.1662828,9.11858159 14.1297912,10.0715868 C14.0963727,11.0253603 14.2534783,12.0025652 14.5392647,12.9459674 C14.8327334,13.8862967 15.2341403,14.8051151 15.7081462,15.6966609 C16.6542372,17.4851303 17.8373312,19.2113719 19.09264,20.9548991 C19.7202944,21.8237817 20.3756055,22.7034198 21.0359103,23.5765277 C21.3793148,24.0159627 21.72464,24.4580864 22.0718857,24.9025149 C22.4352646,25.3338833 22.7913452,25.7748546 23.1666318,26.20315 C24.663553,27.9182522 26.3102815,29.5515365 28.0664846,31.0572924 C28.4091209,31.3476882 28.7590555,31.6296333 29.1093743,31.9108102 C26.8353755,34.4894173 24.7830147,37.2220571 22.8489634,40.0445813 C22.4356487,40.6488043 22.0327053,41.2603256 21.6359079,41.8768405 C21.4665104,41.4581481 21.2825162,41.0029643 21.085846,40.5162824 C20.5607521,39.2609736 19.9484625,37.7959345 19.291999,36.2267985 C18.6320784,34.6668814 17.9279838,33.0032515 17.2242734,31.3396217 C16.8543645,30.5160653 16.5305501,29.6736871 16.1725489,28.8597338 C15.8268397,28.0404028 15.4865081,27.2341319 15.157316,26.4535972 C14.492786,24.8898389 13.872814,23.4305616 13.3415741,22.1798623 C13.0634702,21.5533602 12.8087977,20.9794828 12.5829343,20.4705219 C12.3708992,19.9523421 12.1623213,19.5075295 11.9963809,19.1391571 C11.8335134,18.7700164 11.6852425,18.4857666 11.5930534,18.2894805 C11.4951024,18.094731 11.4424778,17.9910182 11.4424778,17.9910182 C11.4424778,17.9910182 11.4509284,18.1070228 11.4662933,18.3244356 C11.4881882,18.5403118 11.5070102,18.8602849 11.556946,19.2605395 C11.6034246,19.6615622 11.6529763,20.1509329 11.7370989,20.7044519 C11.8162279,21.2591232 11.9353056,21.8856253 12.0697481,22.5666725 C12.2041905,23.2488722 12.3609121,23.9871535 12.5671853,24.7507869 C12.7734585,25.5155727 12.9697445,26.3314466 13.2424708,27.1515458 C13.3699991,27.5644763 13.5082828,27.9816322 13.6484871,28.4041658 C13.7844661,28.8282358 13.9300481,29.2546106 14.0952203,29.6771442 C14.4125046,30.527589 14.7367031,31.3910939 15.1023867,32.2376975 C15.4680703,33.083917 15.8326015,33.9309048 16.2374655,34.7437057 C16.6212028,35.5661097 17.0406634,36.3554792 17.4516733,37.1160396 C17.8565373,37.8789047 18.292131,38.5945229 18.6946902,39.2763385 C19.1183761,39.9477827 19.5140212,40.5835037 19.9112027,41.1523875 C20.2991654,41.7258808 20.6782932,42.2371464 21.0201613,42.6858002 C21.0385991,42.7115363 21.0570369,42.7341995 21.0754748,42.7595515 C20.617602,43.4943758 20.1701006,44.2391872 19.7371957,45.0028206 C19.4978881,45.4368778 19.2616534,45.8763127 19.0331012,46.3345696 C18.8033966,46.8031977 18.5825267,47.2460897 18.3820154,47.8679823 L18.3685711,47.9110039 L18.3363049,48.0296974 C18.3151782,48.1095947 18.3005816,48.1841142 18.2905945,48.2544084 C18.2667789,48.3996063 18.2587124,48.5305917 18.2571759,48.6508217 C18.2544871,48.8935865 18.2783026,49.0983232 18.3086482,49.2857745 C18.3724123,49.6552993 18.466138,49.9591393 18.5667778,50.2426209 C18.7672891,50.8076635 19.0058286,51.2885835 19.257044,51.7533705 C19.760243,52.6748778 20.2968606,53.5207131 20.8715063,54.3342823 C21.4423107,55.1474673 22.0273276,55.9383733 22.6396172,56.7031591 C23.8488314,58.2442542 25.1348699,59.7046839 26.4474128,61.135152 C29.0966983,63.9741935 31.8808103,66.6753353 34.9318868,69.1064398 C32.7992447,65.8444807 30.5248617,62.7365543 28.2804403,59.6301643 C27.150355,58.0844597 26.0390918,56.5318409 24.9478028,54.9853681 L24.9478028,54.9853681 Z" id="Fill-3" fill="#FEFEFE"></path>
                <path d="M73.9809406,136.784447 C73.9794041,136.785215 73.9774835,136.787136 73.975947,136.788288 C74.0285717,136.702245 74.0646791,136.699556 73.9809406,136.784447 M137.220771,164.546055 C136.061108,163.707133 134.655992,162.681913 133.011568,161.55759 C131.374059,160.421743 129.520289,159.148765 127.470233,157.803187 C123.373962,155.106655 118.524045,152.06787 113.211261,148.99682 C111.887195,148.221663 110.525484,147.45995 109.144568,146.691707 C107.76634,145.918855 106.359688,145.155989 104.931908,144.40388 C102.084032,142.88468 99.1466555,141.417336 96.1720192,140.007994 C93.188164,138.617859 90.1635919,137.290719 87.0971506,136.141044 C85.5668109,135.5591 84.0218745,135.029781 82.4596527,134.568451 C80.8962785,134.107121 79.3183077,133.70533 77.6792616,133.461797 C76.8622354,133.335805 76.0244666,133.252835 75.1482856,133.249762 L74.8187094,133.251298 C74.7123078,133.250914 74.6009126,133.252451 74.4668542,133.264359 C74.2156388,133.283565 73.950595,133.303923 73.7151286,133.3335 L73.1685238,133.435293 L73.0352337,133.460645 L72.9526476,133.483308 L72.7882436,133.532859 C72.6799214,133.570503 72.5704467,133.601233 72.4678863,133.653858 C72.2635337,133.756418 72.0530352,133.867429 71.8905518,134.006481 C71.8052769,134.073702 71.7207702,134.144381 71.6420253,134.216211 C71.5736517,134.287658 71.5068145,134.360641 71.441898,134.435161 C71.3020778,134.587657 71.217187,134.728629 71.1203884,134.877668 C70.9433084,135.168833 70.8273037,135.444248 70.7381876,135.702761 C70.5641806,136.21902 70.489661,136.677277 70.4362681,137.11556 C70.347152,137.979833 70.3625168,138.764209 70.4151415,139.518623 C70.5273049,141.021306 70.7504795,142.41029 71.0159074,143.737813 C71.2840241,145.063032 71.577877,146.323719 71.8932407,147.522562 C72.5170539,149.921016 73.2011741,152.0744 73.8295968,153.973113 C74.4468799,155.874129 75.0591694,157.505877 75.5616003,158.847998 C76.0590375,160.191654 76.5000089,161.229934 76.7869476,161.941711 C77.0808005,162.651184 77.2494298,163.024934 77.2494298,163.024934 C77.2494298,163.024934 76.9279201,161.421995 76.3651823,158.617141 C76.0939925,157.21817 75.7648005,155.519201 75.386825,153.570169 C75.0234461,151.623442 74.6416294,149.423194 74.2809394,147.033191 C74.1061642,145.837421 73.9298525,144.594788 73.8030924,143.31528 C73.6759482,142.038076 73.5649371,140.717851 73.5822226,139.420673 C73.592978,138.776117 73.6344631,138.136555 73.7320299,137.575353 C73.7842704,137.303779 73.8537964,137.049875 73.9287001,136.882398 L74.2540509,136.844754 C74.3888776,136.845138 74.4964316,136.850132 74.6174298,136.846291 C74.6696703,136.84245 74.7453422,136.845907 74.8256236,136.851284 L75.0584012,136.863576 C75.6814461,136.8993 76.3528904,136.99725 77.0385471,137.142448 C78.4090923,137.430155 79.8349511,137.843854 81.2700287,138.327079 C82.7051063,138.815681 84.1543964,139.371121 85.6121372,139.954601 C88.5203205,141.143841 91.4626906,142.447933 94.3766357,143.831539 C97.3017203,145.192097 100.199148,146.631016 103.055859,148.04804 C104.480566,148.765578 105.894132,149.47774 107.290798,150.181066 C108.685159,150.892843 110.062618,151.595785 111.417798,152.287204 C116.838904,155.078998 121.898551,157.684878 126.235666,159.918544 C128.414787,161.027887 130.412219,162.044656 132.182634,162.945805 C133.948824,163.856941 135.506821,164.622879 136.784025,165.264362 C138.057771,165.912375 139.076077,166.393295 139.761734,166.736699 C140.452384,167.071653 140.820757,167.250269 140.820757,167.250269 C140.820757,167.250269 140.496558,166.999822 139.889262,166.530042 C139.274284,166.071401 138.38389,165.379598 137.220771,164.546055" id="Fill-5" fill="#FEFEFE"></path>
                <path d="M66.2734675,75.5270293 L66.850802,74.7849067 L66.9099567,74.7080825 L66.9890857,74.6155092 L67.1469596,74.4303627 L67.4623233,74.0600696 C67.8787109,73.5660895 68.293562,73.0740299 68.7049561,72.5858116 C69.1205754,72.1217929 69.5277441,71.6566219 69.9260781,71.1922191 C70.3267167,70.7297369 70.7542438,70.2941432 71.1498889,69.8451053 C71.5436134,69.391842 71.9653787,68.9850574 72.3571825,68.5625238 C72.5561574,68.3539459 72.7524435,68.1476727 72.9468089,67.9437042 C73.1465521,67.7462658 73.3436063,67.5511321 73.5383559,67.3586873 C73.7319531,67.1639377 73.9228614,66.9722612 74.1106968,66.7832734 C74.304294,66.6008157 74.4952024,66.4218152 74.6830377,66.2455034 C74.8697207,66.0672711 75.0537149,65.8917276 75.234252,65.7196412 C75.4197826,65.554469 75.6018562,65.3919856 75.7804726,65.2333435 C75.958705,65.0723966 76.1330961,64.9152909 76.303646,64.7612583 C76.4791895,64.6145239 76.6508918,64.4712466 76.8179846,64.3310423 C77.1475608,64.0410306 77.4752163,63.7890469 77.7813611,63.5466663 C78.3944189,63.061521 78.9494744,62.6639553 79.4184866,62.3478234 C79.8936448,62.0474404 80.2720044,61.8039074 80.5439624,61.6667761 C80.8124633,61.5196576 80.9649595,61.4558934 80.9649595,61.4558934 C80.9649595,61.4558934 80.7982508,61.4605029 80.4932584,61.52081 C80.1874977,61.5788123 79.7396121,61.6802203 79.185709,61.8661351 C78.6367995,62.0581958 77.9665076,62.3036494 77.2366769,62.6620347 C76.8679204,62.8348893 76.4814942,63.0323277 76.0850809,63.2558864 C75.8857219,63.3676657 75.6809852,63.4817498 75.471639,63.5989068 C75.2684388,63.7248987 75.060245,63.8531952 74.8478258,63.9845647 C74.4176098,64.2434626 73.987778,64.5365472 73.5475748,64.8461491 C73.4261924,64.9318082 73.3009689,65.0201561 73.1772818,65.1077358 C73.0996892,64.9102974 73.0117254,64.6959576 72.9087809,64.4493517 C72.7716495,64.1320674 72.6137756,63.7767551 72.4290132,63.3972431 C72.0621773,62.6320732 71.6192853,61.7681841 71.010837,60.8969968 C70.732733,60.473695 70.4300454,60.0354124 70.1557827,59.5648637 C69.8799835,59.0958514 69.6026478,58.6130108 69.3498959,58.1159577 C69.0886934,57.623514 68.8424715,57.1210832 68.5981703,56.6271031 C68.3546373,56.1323547 68.1149456,55.6445205 67.8906187,55.1682099 C67.4446537,54.2144364 67.0228884,53.3236588 66.6787156,52.5519589 C65.9980524,51.0035654 65.544405,49.9714312 65.544405,49.9714312 L65.3992071,50.021367 C65.3992071,50.021367 65.6826887,51.1172654 66.1901131,52.7367213 C66.4436333,53.5468334 66.7409432,54.4925403 67.0958714,55.4947131 C67.4427331,56.4999589 67.8456764,57.5620546 68.2878002,58.613779 C68.5071335,59.1400254 68.733381,59.6662717 68.9650063,60.1836833 C69.1977838,60.6999425 69.4340185,61.2112081 69.6909958,61.6994264 C70.1753729,62.6370668 70.7719134,63.4494836 71.3154452,64.108636 C71.586635,64.4412851 71.8501423,64.7362904 72.0936752,64.9905787 C72.2895772,65.1918584 72.4643524,65.36164 72.6279881,65.510295 C72.4877838,65.6182332 72.3483477,65.7250189 72.2050705,65.8348776 C71.7475818,66.1798187 71.2920138,66.5504958 70.8391347,66.9422997 C70.3812619,67.3287258 69.9145544,67.7285962 69.4655165,68.1568916 C68.5490028,68.9938922 67.6394032,69.913863 66.7374861,70.8730142 C66.2957465,71.3504771 65.8716765,71.8275559 65.4449176,72.3176949 L65.1249444,72.6841467 L64.9647658,72.8673726 L64.8844844,72.9587935 L64.7919111,73.0728776 L64.1623361,73.8630153 L63.5423642,74.6604514 C63.3395481,74.9285682 63.1567063,75.2105133 62.9638773,75.4843918 C62.5820606,76.0348378 62.2029328,76.5845156 61.8729725,77.1576248 C61.1757921,78.2811799 60.5734897,79.4339283 60.0384086,80.5674706 C59.5048639,81.7025494 59.0577466,82.8276411 58.6740093,83.9058699 C58.4976975,84.4509382 58.3083257,84.9733433 58.1596707,85.4903707 C58.0175458,86.0097029 57.8665861,86.5052195 57.7478925,86.9888284 C57.6372656,87.4751261 57.5201085,87.9364559 57.4306082,88.3805003 C57.3480221,88.8272335 57.2604424,89.24631 57.1966783,89.645028 C57.0664611,90.4413117 56.9915575,91.141181 56.9366281,91.7162107 C56.8809305,92.2912405 56.8720957,92.7471926 56.860572,93.0556421 C56.8548102,93.3660122 56.8613403,93.5300321 56.8613403,93.5300321 C56.8613403,93.5300321 56.9135808,93.3744629 57.0119159,93.0821465 C57.1144763,92.7932872 57.2646678,92.3699854 57.4559603,91.8314472 C57.6507098,91.2955978 57.9057664,90.6533468 58.1927051,89.9204431 C58.4877104,89.1890759 58.8284261,88.3716655 59.2156205,87.490491 C59.6078085,86.6104688 60.0464751,85.6686031 60.5327728,84.6871728 C60.7755376,84.1966498 61.0421178,83.7015173 61.3037045,83.1921723 C61.5683642,82.6839796 61.8656742,82.1800123 62.1503081,81.6595278 C62.7441599,80.632003 63.3787284,79.5864245 64.0689946,78.5569791 C64.3931931,78.0280439 64.7803875,77.537905 65.1376204,77.0243346 C65.3212305,76.7711986 65.4944692,76.5092278 65.6865299,76.2618536 L66.2734675,75.5270293 Z" id="Fill-7" fill="#FEFEFE"></path>
                <path d="M86.9598656,63.2757455 L87.0912352,63.2196638 L87.176126,63.0445044 C87.3858563,62.6108313 87.6071102,62.1817677 87.8080057,61.7442534 L87.8441132,61.6662767 C88.0158154,62.0073766 88.1879018,62.3477081 88.3684389,62.6838144 L88.7525603,63.3994326 L89.4612643,62.9227379 C89.8530682,62.6592306 90.2659987,62.4026375 90.6912211,62.1506538 C91.1218212,61.9048161 91.5558785,61.6628196 91.9964657,61.423512 C92.4347483,61.1822837 92.8826338,60.9533474 93.3270623,60.7174968 L94.6707191,60.0230053 L100.078765,57.2557946 L100.466343,57.0575879 L100.360326,56.7337736 C100.32537,56.6266037 100.293104,56.5056054 100.250083,56.4145687 C100.206677,56.3243001 100.167112,56.2255809 100.119481,56.1441472 C100.028061,55.9735973 99.9301095,55.8153393 99.8306221,55.6605383 C99.624733,55.3566983 99.4038632,55.0728325 99.1803045,54.7935763 C98.9575141,54.51432 98.7182065,54.2496603 98.4785147,53.9876895 C98.2395912,53.7249505 97.9876075,53.4733509 97.7290938,53.2294338 C98.0621271,53.8567041 98.3917033,54.4797491 98.7074511,55.1004893 C98.8645567,55.4104753 99.0101387,55.7250707 99.143813,56.0350567 C99.2098819,56.1894735 99.2724937,56.3431221 99.3228136,56.4936977 C99.3258866,56.5013801 99.327423,56.5082943 99.3297278,56.5159767 C98.4919589,56.8225056 97.6687867,57.155923 96.840621,57.4835786 C95.8952981,57.870773 94.9599625,58.282167 94.0303886,58.7089259 C93.5656017,58.9228815 93.104656,59.1460561 92.6437103,59.3711512 C92.1823805,59.5958623 91.7268125,59.8336334 91.2712445,60.0752458 C90.8145241,60.313017 90.3647179,60.572683 89.9152959,60.8354221 L89.2457722,61.2498891 C89.1766304,61.138878 89.1101774,61.0263304 89.0410355,60.9157035 C88.8236228,60.5746037 88.6085148,60.2319673 88.3784261,59.8981658 L87.6324623,58.8149434 L87.2510297,59.9753742 L86.8000711,61.3466877 C86.6629398,61.7576976 86.5423257,62.1748535 86.4151815,62.5900888 C85.4821505,63.0825324 84.5587226,63.5949504 83.6314535,64.0996859 C82.6515598,64.647059 81.6720502,65.1955844 80.7044483,65.7683094 C81.760014,65.3807309 82.804056,64.9681845 83.8473298,64.5548698 C84.8859941,64.1300315 85.9292679,63.7163328 86.9598656,63.2757455" id="Fill-9" fill="#FEFEFE"></path>
                <path d="M64.6330769,84.0351651 C64.6334611,84.0374699 64.6323087,84.0428476 64.6326928,84.0451523 C64.6307722,84.0301716 64.6330769,84.0263304 64.6330769,84.0351651 M63.8402503,86.0533391 C64.1125924,85.8297804 64.3480588,85.5751079 64.5789158,85.3112165 C64.8005539,85.0381062 65.0156619,84.7669165 65.1808341,84.41122 C65.2203986,84.3186468 65.262652,84.2241529 65.281858,84.0843327 C65.2872357,84.012502 65.2956864,83.9256905 65.2445982,83.7985464 C65.199656,83.6679451 65.0367886,83.5457945 64.9250092,83.5277408 C64.6999141,83.4827985 64.5946648,83.5300455 64.4836537,83.553861 C64.4291085,83.5699941 64.3849345,83.5842066 64.3307734,83.6049492 L64.2090069,83.6514279 C63.8490851,83.8062288 63.5406356,84.0067402 63.2548493,84.2472002 C62.9736724,84.4880443 62.7205364,84.7600023 62.5150314,85.0676835 C62.30799,85.3734442 62.1293735,85.7034045 62.0387209,86.0871418 C61.9953151,86.277666 61.9615125,86.4885487 62.0321908,86.7247833 C62.0590793,86.8115948 62.0986438,86.8792002 62.1654809,86.9418119 C62.2330863,87.0013508 62.3164407,87.0351534 62.3867349,87.0447565 C62.5292439,87.0635784 62.6329567,87.0282393 62.7259141,86.9940525 C63.0846835,86.8411721 63.3435813,86.6095469 63.5855778,86.3564109 C63.2675253,86.4870122 62.9391015,86.6252959 62.6406391,86.6629398 C62.5699608,86.6694699 62.4992824,86.6625557 62.4739304,86.6475749 C62.453572,86.6314418 62.4835335,86.6322101 62.4843017,86.6295212 C62.4800764,86.5296497 62.5273233,86.3940548 62.5818686,86.261917 C62.8384617,85.7268359 63.2767442,85.2313193 63.7484453,84.8341377 C63.9850641,84.6363152 64.2489555,84.4550099 64.5078534,84.3221039 L64.5850618,84.2825393 C64.5040121,84.5445102 64.3795568,84.8299124 64.2543332,85.1068639 C64.120659,85.4195388 63.9704675,85.72722 63.8402503,86.0533391" id="Fill-11" fill="#FEFEFE"></path>
                <path d="M88.040476,30.1178851 C88.6247247,30.0437496 89.2166558,29.9703825 90.0371392,29.7498968 L90.0405963,29.7491285 C90.0494311,29.7464397 90.0578817,29.7429826 90.0663324,29.7383731 C90.1254871,29.706491 90.1469979,29.6331238 90.1151158,29.5739691 C89.6994964,28.8084152 88.9654404,28.3893387 88.2025753,28.2041922 C87.8184538,28.1143077 87.4201199,28.118149 87.0402239,28.2080334 C86.6603278,28.3006066 86.2988695,28.4319762 85.9447096,28.5499014 C85.5909337,28.6712838 85.2490657,28.8126405 84.9217942,28.9732032 C84.5968275,29.1422167 84.2860733,29.3277473 83.9883792,29.5278746 C83.4002893,29.940421 82.8586781,30.3956049 82.4069513,30.9414414 C82.3835199,30.9698664 82.3769898,31.009815 82.393507,31.0451542 C82.4161702,31.0943217 82.4745566,31.1154484 82.5233401,31.0924011 L82.5283336,31.0900964 C83.1417755,30.8035418 83.7709664,30.5665389 84.4005414,30.3952207 C84.7136004,30.3049522 85.0281958,30.2327374 85.342023,30.1793445 C85.6516249,30.1163486 85.961995,30.0748635 86.2685239,30.0518162 C86.5750528,30.0283848 86.8831182,30.0602669 87.1773552,30.1044408 C87.4719763,30.1451577 87.7508485,30.1516878 88.040476,30.1178851" id="Fill-13" fill="#FEFEFE"></path>
                <path d="M101.225905,41.4498511 C101.276225,41.4694413 101.333075,41.4444734 101.352665,41.3941535 C101.606185,40.7449883 101.755608,40.067014 101.854327,39.367913 C101.896581,39.0183625 101.922701,38.6630502 101.928463,38.3019761 C101.92539,37.9424384 101.900038,37.5775231 101.84895,37.2087665 C101.79402,36.8411623 101.747158,36.457425 101.645749,36.0721512 C101.543573,35.6880298 101.343062,35.3234986 101.055739,35.0261886 C100.48455,34.435794 99.6356421,34.0462948 98.7871178,34.2541045 C98.7790513,34.2560251 98.7702165,34.2590981 98.7625341,34.2629393 C98.702227,34.2925167 98.676875,34.3654997 98.7064523,34.4258068 L98.7076047,34.4288798 C99.0763613,35.1844466 99.2945422,35.6680555 99.5054249,36.160115 C99.6099059,36.4024956 99.7412755,36.6206766 99.9091365,36.8469241 C100.081223,37.0700987 100.246779,37.32093 100.362784,37.5982656 C100.479173,37.8748331 100.579428,38.1667653 100.662015,38.4686848 C100.754972,38.7690677 100.83218,39.0802061 100.894408,39.3971062 C101.029619,40.0312907 101.112973,40.6919796 101.163677,41.3615032 L101.163677,41.3661126 C101.16675,41.4022201 101.189797,41.4356386 101.225905,41.4498511" id="Fill-15" fill="#FEFEFE"></path>
                <path d="M85.2769913,33.3540312 C85.2620106,33.3878339 85.2474139,33.3797674 85.2604741,33.3594089 C85.2646994,33.353263 85.2743024,33.3455806 85.2796801,33.3390505 C85.2785278,33.3440441 85.279296,33.3490376 85.2769913,33.3540312 M85.7267975,33.0348263 L86.3532995,32.7071707 C86.1109189,32.651089 85.8693065,32.6457113 85.6215482,32.6580032 C85.3737899,32.6906535 85.1291045,32.6956471 84.8367881,32.9057615 C84.7657257,32.9633797 84.6777619,33.0513435 84.6355085,33.198462 C84.5901822,33.347117 84.6285943,33.5111369 84.6808348,33.6110085 C84.7841635,33.8069104 84.9285932,33.9094708 85.0115634,33.9801491 C85.2428045,34.1583815 85.494404,34.2774591 85.7732762,34.3385344 C86.3164239,34.4506979 86.9475354,34.3554358 87.3535517,33.8652968 C87.405024,33.7976915 87.4349854,33.7427621 87.4776229,33.6432747 C87.4849212,33.619075 87.4960607,33.5898818 87.5118097,33.5280382 C87.5229492,33.476566 87.5264063,33.432392 87.5244857,33.3832245 C87.5156509,33.1827131 87.3969574,33.0428929 87.2909399,32.9599226 C87.0716066,32.7897569 86.8311466,32.7294498 86.5933754,32.6991042 C86.7808267,32.8431497 86.9594431,33.0060172 87.0608512,33.1711894 C87.1100187,33.255312 87.1169329,33.3321363 87.0973427,33.3670914 C87.0935015,33.375542 87.0862032,33.388218 87.0808255,33.3928275 C87.0804414,33.3859133 87.0669971,33.4093447 87.0481752,33.4366173 C87.0343468,33.4381538 86.9932458,33.4750295 86.9655891,33.4915467 C86.6951676,33.6574871 86.2879989,33.6793821 85.9449784,33.593723 C85.772892,33.5510855 85.5958121,33.4750295 85.4506142,33.3851451 L85.3365301,33.3098573 C85.3292318,33.3052478 85.3250065,33.3014066 85.3192446,33.2967971 C85.412202,33.2119063 85.5746854,33.1124188 85.7267975,33.0348263" id="Fill-17" fill="#FEFEFE"></path>
                <path d="M98.6743398,39.909601 C98.6797175,39.909601 98.6774128,39.909601 98.6797175,39.909601 C98.6766445,39.912674 98.6735716,39.9176676 98.6704986,39.9195882 C98.6597432,39.9299595 98.6428418,39.9203564 98.6743398,39.909601 M98.3382336,38.3923214 C98.4242768,38.3089671 98.649756,38.2851516 98.8844542,38.3158813 C98.7703702,38.1103763 98.557951,37.910249 98.2180036,37.9298392 C98.0501425,37.9390582 97.8815132,38.0347044 97.7735751,38.1487884 C97.6598751,38.2621043 97.5880444,38.3907849 97.5354198,38.5140879 C97.4363165,38.7568527 97.3879172,38.9915508 97.3902219,39.2700389 C97.3963678,39.5389239 97.4881729,39.8646588 97.7224869,40.089754 C97.953728,40.3163856 98.2571839,40.3978194 98.513777,40.3901369 L98.6105756,40.3828386 C98.7031489,40.3778451 98.6470672,40.3843751 98.7488594,40.3670897 C98.8859907,40.3344393 98.9612785,40.2579992 99.0150555,40.1827114 C99.1080129,40.0317517 99.124146,39.9019186 99.1325967,39.7809204 C99.1448885,39.3023051 99.0357981,38.8824604 98.8898319,38.4683775 C98.8744671,38.8997458 98.8721623,39.3453267 98.7680654,39.7209974 C98.7450181,39.8016629 98.7104472,39.8765666 98.6801016,39.9088328 C98.6647368,39.9080646 98.6263246,39.9061439 98.6524449,39.9026869 L98.589449,39.8765666 C98.4238926,39.8085771 98.3055832,39.7148515 98.2487333,39.6176688 C98.1914992,39.5216384 98.1596171,39.4071702 98.1576965,39.2489122 C98.1503982,39.0975684 98.1818961,38.9043553 98.2091688,38.7372625 C98.2437397,38.5709379 98.2675552,38.4718346 98.3382336,38.3923214" id="Fill-19" fill="#FEFEFE"></path>
                <path d="M162.650915,98.2706666 C162.650531,98.2652889 162.650531,98.2606794 162.649378,98.2526129 C162.653988,98.2503082 162.653988,98.2579906 162.650915,98.2706666 M101.626697,54.9056629 C100.625292,54.3440774 99.8186375,53.9365246 99.2735692,53.6515065 C98.7231232,53.3760914 98.4292703,53.229357 98.4292703,53.229357 C98.4292703,53.229357 99.4713917,54.0237201 101.2952,55.4134714 C102.200959,56.1118042 103.300698,56.9595601 104.562537,57.9321556 C105.812852,58.9143541 107.223346,60.0221602 108.762521,61.2309903 C110.29286,62.4463505 111.938437,63.7800201 113.659301,65.2028058 C114.517044,65.9188082 115.397834,66.6540166 116.298599,67.4057422 C117.197827,68.164382 118.116646,68.939539 119.051213,69.7277562 C120.923805,71.302654 122.859393,72.9301765 124.82571,74.5842033 C125.718024,75.3255576 126.618021,76.0738262 127.519938,76.8236312 C127.455021,77.0041682 127.387032,77.1839371 127.323268,77.3644741 L126.705985,79.0957094 L125.514056,82.5689353 C125.121484,83.7282137 124.748502,84.8921016 124.364765,86.0533007 C124.153882,86.7036182 123.939158,87.3527835 123.725971,88.0019487 C123.298059,87.7630251 122.876294,87.5375459 122.451456,87.3185966 C121.579116,86.8733999 120.691796,86.440111 119.827906,86.0214186 L119.665039,85.9419055 L119.436487,85.8508687 L118.983608,85.6787823 C118.835721,85.6188594 118.656336,85.5961962 118.491932,85.5570158 C118.320998,85.5282067 118.161204,85.4775027 117.97913,85.4740456 C117.26889,85.4098973 116.50372,85.5243655 115.826898,85.820139 C115.167361,86.1232108 114.58849,86.5530427 114.160195,87.028585 L113.834076,87.3873544 L113.562502,87.7587998 C113.474922,87.8836393 113.379276,88.009247 113.302068,88.136007 L113.084271,88.518592 C113.064296,88.5558517 113.048547,88.5931115 113.028957,88.6303713 C110.406176,86.9160374 105.682635,83.627958 106.186218,82.4871174 C107.102732,80.4101729 109.470841,79.6603679 110.540619,80.0425687 C111.610013,80.4243854 115.276836,82.1053007 115.276836,81.1884029 C115.276836,80.2718892 112.831903,78.2091571 111.304636,77.9798367 C109.776601,77.7509003 106.637177,78.8625477 106.568419,78.8967345 C105.804402,79.2785512 108.630767,75.9939289 110.081978,75.5356721 C111.533957,75.0770311 113.470313,74.7716546 113.495281,74.3898379 C113.51948,74.007637 111.151372,73.0146832 109.165848,73.7022605 C107.179556,74.3898379 103.726305,77.9798367 103.97099,77.1397631 C104.216444,76.2993054 104.26177,73.3964999 105.185966,72.6324824 C106.109778,71.868849 109.853041,70.1883178 109.012584,70.340814 C108.17251,70.4936943 105.185966,68.8131631 102.595835,72.3271058 C101.620167,73.6515565 101.765365,75.1534712 101.874839,75.6881683 C101.984698,76.2232494 101.595583,76.7575623 101.140783,76.2993054 C100.685984,75.8410486 100.335665,75.2625617 99.6930298,73.7022605 C99.1583328,72.403546 100.991744,68.8896032 100.075231,69.2714199 C99.1583328,69.6536207 96.3319674,73.1675635 97.7835622,76.0703691 C98.3520619,77.2073685 101.297121,79.3549913 100.762808,79.3549913 C100.227727,79.3549913 98.1500141,78.9812412 97.0959849,79.4314315 C94.8043165,80.4101729 93.3531058,83.4800713 93.3531058,84.320529 C93.3531058,85.1606025 96.7137841,82.1813568 97.9360584,81.9524204 C99.1583328,81.7230999 102.748716,81.8759802 102.519779,82.2577969 C102.290459,82.6399977 99.8459101,83.9341028 99.1583328,84.7000409 C98.4711396,85.465979 97.4778016,87.9105278 97.8596183,88.7509854 C98.2418191,89.5914431 100.151671,85.92462 101.526441,85.1606025 C102.901596,84.3969691 104.345893,83.9387123 105.727961,85.3138669 C106.051008,85.6346083 110.195678,89.1132119 112.140869,90.742655 C111.710653,92.068258 111.48863,93.3953975 111.335366,94.7079404 C111.102204,96.759917 111.091065,98.7888464 111.207069,100.795881 C111.317696,102.803683 111.547017,104.790359 111.88466,106.750915 C112.216156,108.711855 112.616795,110.656662 113.111543,112.572659 C113.614742,114.4852 114.138684,116.391595 114.775173,118.257656 C115.07594,119.192992 115.423954,120.137163 115.748921,121.069041 L116.256345,122.42499 L116.513323,123.101812 L116.809096,123.813973 L117.387583,125.197194 C117.583869,125.656603 117.804739,126.104873 118.012549,126.558905 C118.42087,127.470809 118.884888,128.35544 119.348907,129.238536 C120.303449,130.990129 121.308695,132.713298 122.435707,134.353496 C123.541592,136.007139 124.739667,137.593945 126.00189,139.121211 C127.257967,140.65424 128.604697,142.106219 129.994448,143.50711 C131.381126,144.911842 132.856153,146.222464 134.356147,147.491217 C135.869969,148.745374 137.424893,149.944217 139.044733,151.046261 C140.658427,152.154835 142.304771,153.210017 144.016416,154.149962 C145.71769,155.101047 147.461601,155.980301 149.271582,156.6867 C147.647132,155.627677 146.098739,154.478002 144.581075,153.299133 C143.074935,152.1049 141.594147,150.890308 140.17405,149.610799 C138.756642,148.328986 137.376494,147.014523 136.053195,145.650507 C134.722599,144.294559 133.445395,142.8929 132.2212,141.452828 C131.909293,141.0979 131.619282,140.72415 131.317362,140.361155 C131.015827,139.998161 130.721206,139.629788 130.434651,139.25527 L129.566153,138.140934 L128.729152,137.003934 C127.640552,135.470137 126.569237,133.927506 125.615848,132.31458 C125.119563,131.520217 124.672062,130.698581 124.205354,129.888853 C123.973729,129.483221 123.768608,129.062608 123.548891,128.65083 C123.336087,128.23521 123.106383,127.828426 122.913554,127.403203 C122.516756,126.558905 122.09307,125.72805 121.733917,124.867618 C121.549923,124.439707 121.352484,124.017557 121.17963,123.585036 L120.669901,122.284785 L120.422911,121.654826 L120.177073,120.973779 L119.679251,119.614373 C119.376564,118.720523 119.061968,117.851256 118.778871,116.94665 C118.193854,115.149346 117.660309,113.340518 117.172475,111.521703 C116.228305,107.881769 115.463519,104.194587 115.112816,100.505869 C114.947644,98.6643911 114.857375,96.8194559 114.968002,95.0240723 C115.013713,94.1229235 115.129333,93.2475108 115.272226,92.3901518 C115.438935,91.5481576 115.668256,90.7334361 115.990918,90.043554 C116.310891,89.357129 116.724205,88.8086036 117.127149,88.5846608 C117.531244,88.3753147 117.957619,88.3123188 118.722789,88.6019463 C119.634309,88.9407414 120.519325,89.2730064 121.405877,89.622941 C121.845696,89.7988687 122.28782,89.9705709 122.711122,90.1518762 C122.809841,90.1933614 122.90664,90.2356147 123.001902,90.2774839 L122.843644,90.7849083 L124.196519,90.9205032 C124.261052,90.9270333 124.31867,90.9281856 124.369374,90.926265 C124.422767,90.9231921 124.460411,90.9258809 124.587939,90.8993765 C124.724686,90.8575073 124.728912,90.8809387 124.960537,90.7495692 C125.229038,90.6039872 125.453365,90.2129516 125.473723,90.0093672 C125.499075,89.8826071 125.498307,89.7343363 125.474491,89.591059 C125.476796,89.5803036 125.478717,89.569164 125.480637,89.5584086 C128.460651,90.9838832 131.46064,92.3455937 134.454098,93.7138342 L139.24294,95.8991009 L141.624492,97.0107483 C142.41924,97.3783525 143.211682,97.7486456 143.998363,98.1285417 C144.785043,98.5076695 145.566731,98.8948639 146.338815,99.2947343 C147.111667,99.6919159 147.882214,100.089866 148.623953,100.519313 C148.994246,100.733269 149.358777,100.953755 149.704486,101.184612 C149.876957,101.299848 150.045202,101.417773 150.202692,101.538388 C150.281053,101.599079 150.357493,101.65977 150.428555,101.720845 L150.673241,101.931728 C151.32932,102.496002 151.987704,103.062965 152.615359,103.655281 C153.240324,104.249901 153.854918,104.851051 154.43571,105.482546 C155.012276,106.11942 155.556192,106.773578 156.086664,107.481898 C156.616751,108.187145 157.146839,108.891624 157.71265,109.582658 C157.997284,109.928752 158.289984,110.267547 158.639535,110.590593 C158.824297,110.747314 158.998304,110.918633 159.324039,111.025034 C159.483834,111.080732 159.73889,111.062294 159.899069,110.950515 C160.059248,110.845265 160.14337,110.722347 160.214433,110.612488 C160.301244,110.477661 160.267826,110.29674 160.135688,110.203014 C159.999709,110.106216 159.811105,110.137714 159.714307,110.273309 L159.711618,110.27715 C159.660914,110.348596 159.603295,110.400837 159.575255,110.412361 C159.547982,110.418122 159.563731,110.416586 159.515332,110.401605 C159.420838,110.366266 159.260275,110.229903 159.126985,110.088162 C158.849649,109.794693 158.592672,109.444375 158.336463,109.098281 C157.827118,108.398412 157.340436,107.668965 156.854907,106.939519 C155.933015,105.435683 154.816758,103.964883 153.566443,102.693057 C152.943398,102.049269 152.30883,101.424303 151.648141,100.824306 L151.39731,100.600747 C151.302432,100.517393 151.207938,100.440569 151.11306,100.365665 C150.923304,100.216626 150.732779,100.080263 150.541487,99.9488931 C150.159286,99.6869223 149.774012,99.4479988 149.386434,99.2171418 C147.83804,98.2967869 146.245473,97.5216298 144.64215,96.7722089 C143.840873,96.3980747 143.037291,96.0316228 142.230636,95.6736217 L139.79377,94.6414874 C138.168936,93.9562148 136.526433,93.317805 134.880473,92.6905347 C131.785222,91.5258786 128.66654,90.4272913 125.499075,89.4650671 C125.693825,88.4751862 125.876282,87.4822324 126.067191,86.4915832 C126.291518,85.2892832 126.526984,84.089672 126.742476,82.8850672 L127.37474,79.2677958 L127.670129,77.4539744 C127.694713,77.3049353 127.71584,77.155128 127.739655,77.0060889 C128.764107,77.857686 129.792016,78.7123562 130.820693,79.5674105 C132.842324,81.2225897 134.859346,82.884299 136.868301,84.4941518 C138.870342,86.1132236 140.855865,87.6854326 142.805666,89.1919568 C143.298878,89.5668593 143.787864,89.9383047 144.272241,90.3066772 C144.531907,90.4945126 144.790037,90.6815797 145.047014,90.8671103 C145.284401,91.0303619 145.520636,91.1932294 145.755718,91.3545604 C146.712181,92.0375283 147.6479,92.7055155 148.558652,93.355833 C150.395905,94.6629982 152.161711,95.8752854 153.871436,96.9143339 C154.73302,97.4313613 155.554656,97.920732 156.466944,98.3002439 C156.699338,98.392049 156.937877,98.477708 157.225584,98.5395516 C157.373855,98.5679766 157.52904,98.5967857 157.748757,98.5844938 C157.804071,98.5798843 157.878206,98.5702813 157.917002,98.5625989 L157.994979,98.5449293 L158.153237,98.5088219 C158.563095,98.4150963 158.961044,98.3240595 159.346702,98.2360957 C160.10611,98.0739964 160.81904,97.9526141 161.445158,97.9483887 C161.755912,97.9445475 162.044771,97.9710519 162.269482,98.0436508 C162.380109,98.0809106 162.469994,98.1285417 162.537983,98.1842393 C162.586767,98.2145849 162.628252,98.2860315 162.644385,98.291025 C162.631325,98.3298213 162.604436,98.3897442 162.566024,98.4412165 C162.506101,98.531485 162.429661,98.6217536 162.34938,98.7058762 C162.189585,98.8756578 162.01481,99.0246969 161.848869,99.157603 C161.512763,99.4207261 161.202393,99.6216216 160.944263,99.765283 C160.68575,99.9089445 160.477172,99.9942194 160.337352,100.034552 C160.197147,100.076037 160.128389,100.078726 160.128389,100.078726 C160.068467,100.081031 160.017378,100.12751 160.011232,100.188969 C160.004318,100.256574 160.053486,100.316497 160.121091,100.323411 L160.128389,100.32418 C160.128389,100.32418 160.225188,100.333783 160.39497,100.309967 C160.56552,100.287304 160.806364,100.227381 161.104826,100.115986 C161.403288,100.004591 161.760521,99.8451803 162.157319,99.6051044 C162.355141,99.4844903 162.565256,99.3485113 162.77998,99.1729678 C162.887534,99.085004 162.99624,98.9878213 163.104178,98.8660548 C163.20597,98.7381424 163.333883,98.6125347 163.385739,98.3167612 C163.403025,98.2453146 163.367301,98.0574792 163.364612,98.0651616 L163.361155,98.0517174 C163.351936,98.0267495 163.377673,98.0889772 163.339645,97.9925627 L163.322743,97.9572235 L163.287788,97.8865452 C163.239389,97.794356 163.177929,97.7021669 163.10533,97.6261109 C162.962437,97.4667005 162.786894,97.3464705 162.608277,97.2577384 C162.248356,97.0860361 161.874221,97.009596 161.498551,96.9673426 C160.745288,96.8924389 159.968595,96.9466001 159.156178,97.0291862 C158.757076,97.076049 158.345298,97.1248324 157.921228,97.1747682 L157.765659,97.193206 L157.686145,97.2024249 C157.671933,97.2020408 157.692291,97.1958949 157.694596,97.196279 C157.699206,97.1909013 157.639667,97.1786094 157.577439,97.155178 C157.444149,97.1067787 157.272063,97.0257291 157.099592,96.930467 C156.395113,96.5448091 155.634937,96.0078073 154.868231,95.4366188 C154.098067,94.8604366 153.307161,94.2312457 152.49436,93.5690204 C151.680023,92.903338 150.838413,92.2153765 149.972987,91.508209 C149.106794,90.7948955 148.217937,90.0646807 147.282217,89.3148757 C147.050592,89.1304974 146.801681,88.9338272 146.55738,88.7498331 C146.339967,88.5754419 146.121402,88.3998984 145.901684,88.2235867 C145.445732,87.8410018 144.985171,87.4541915 144.521152,87.0646924 C142.654322,85.4840327 140.725264,83.8503643 138.765093,82.1909598 C136.801848,80.5296347 134.785979,78.8644683 132.772798,77.196229 C130.748478,75.5410498 128.724543,73.8847182 126.708289,72.2810113 C125.704964,71.4739722 124.701639,70.682682 123.705996,69.9052203 C122.714195,69.1239173 121.728923,68.3572109 120.751718,67.6127836 C119.779123,66.8645151 118.81421,66.1343003 117.866198,65.4267486 C116.908584,64.7276476 115.976321,64.0154865 115.057503,63.3759244 C113.22025,62.055699 111.438695,60.878751 109.785052,59.8070522 C108.137171,58.7269028 106.594155,57.78811 105.220153,56.9680108 C103.851144,56.1406133 102.630406,55.4637913 101.626697,54.9056629" id="Fill-21" fill="#FEFEFE"></path>
                <path d="M60.4343993,178.322454 C59.8263351,178.318229 59.2140456,178.332825 58.6029084,178.347038 C57.9890824,178.391212 57.3760246,178.412339 56.7591256,178.477639 C56.1418425,178.547165 55.5130357,178.610161 54.9491454,178.688138 C54.3956265,178.756896 53.8240538,178.812977 53.2751443,178.84217 C52.7246983,178.869827 52.1807824,178.875589 51.6791198,178.84678 C51.1828349,178.815666 50.7019149,178.736153 50.420738,178.620148 C50.2820702,178.564451 50.2098554,178.504912 50.2002523,178.497998 C50.1906493,178.486858 50.1921858,178.519124 50.1733638,178.459201 C50.1576148,178.402736 50.1583831,178.262147 50.1883446,178.084299 C50.1991,177.998256 50.230982,177.895311 50.2544134,177.796208 L50.3070381,177.63795 L50.3200982,177.598001 L50.3262441,177.578027 L50.3270124,177.576106 L50.3366154,177.555748 L50.4303411,177.359846 C50.4441694,177.351011 50.4549248,177.34064 50.4622231,177.327196 C50.4514677,177.317977 50.5505711,177.215032 50.5974339,177.147427 C50.7245781,176.995699 50.8924391,176.837825 51.0775856,176.68264 C51.455177,176.373422 51.9103609,176.083026 52.3870556,175.813757 C53.3389085,175.257934 54.3956265,174.785848 55.4638682,174.329128 C55.7907555,174.187771 56.1218681,174.053329 56.4549014,173.920807 L61.0708885,178.338971 C60.8588535,178.332441 60.6468185,178.325527 60.4343993,178.322454 L60.4343993,178.322454 Z M73.6258972,169.981642 C73.2022112,170.017749 72.7766047,170.067685 72.3413951,170.088427 C71.9096427,170.123382 71.4698236,170.139131 71.0315411,170.162563 C70.591338,170.184842 70.1499824,170.208273 69.7067063,170.219797 C69.2638143,170.232089 68.8186176,170.24899 68.3722685,170.267428 C68.1882743,170.272806 68.0031278,170.28164 67.8187495,170.287786 C67.7542171,169.260646 67.4791862,168.24887 67.1949363,167.259757 C66.9921202,166.594843 66.760495,165.939532 66.5146573,165.289983 C66.5741961,165.321481 66.633735,165.353363 66.6944261,165.381404 C66.8761156,165.469751 67.0612621,165.548112 67.2487133,165.619559 C67.4353964,165.699072 67.6263047,165.754001 67.817213,165.819686 C68.0085055,165.886139 68.2024868,165.928777 68.3964682,165.983706 C68.5908336,166.037483 68.7867355,166.072822 68.9830216,166.114691 C69.376746,166.195741 69.7731593,166.245293 70.1714932,166.286778 C70.9677769,166.360145 71.7694383,166.366675 72.5630332,166.301374 C72.9617512,166.281016 73.3543233,166.214947 73.748816,166.165395 C73.7541937,166.164627 73.7595714,166.163091 73.7649491,166.162706 C73.7445907,166.67474 73.7430542,167.189079 73.770711,167.711484 L73.7941424,168.069485 C73.8052819,168.201623 73.8191103,168.300342 73.8356275,168.433632 C73.8655889,168.68408 73.9151406,168.918394 73.9708382,169.155396 C74.0273041,169.390863 74.0987506,169.622488 74.1805685,169.849504 C74.1870986,169.86871 74.1955492,169.887532 74.2024634,169.906738 L73.6258972,169.981642 Z M80.4102497,176.508633 C80.2984704,176.173295 80.1786245,175.869071 80.0330425,175.567535 L79.8156298,175.126564 L79.6047471,174.73284 C79.3147354,174.206593 79.0600629,173.729514 78.7957874,173.218633 C78.5365054,172.713897 78.2802964,172.205705 78.0406047,171.68983 C77.8085953,171.179716 77.5623735,170.637721 77.3768429,170.152576 L76.959687,169.060518 L75.7401015,169.508404 C75.6828674,169.529531 75.6267857,169.55181 75.5726245,169.580619 L75.4911908,169.625561 L75.3659672,169.661284 C75.1954173,169.706611 75.0413846,169.768454 74.8366479,169.796879 C74.7513729,169.810324 74.6687868,169.827993 74.5854325,169.844894 L74.5908102,169.814165 L74.7221797,169.134654 C74.7640489,168.913016 74.8151371,168.688305 74.8635364,168.480495 L75.026788,167.830178 C75.1401038,167.392663 75.2488102,166.950924 75.3555959,166.509184 C75.4589246,166.068213 75.5591803,165.620711 75.6521377,165.183581 L75.9025848,164.007017 L74.5885055,164.146069 C74.220133,164.184865 73.8540653,164.232496 73.4883817,164.279359 C73.122314,164.313162 72.7570145,164.366171 72.3917151,164.400357 C72.2092574,164.418027 72.0260315,164.431855 71.8435738,164.456055 C71.6611161,164.480639 71.4782743,164.487169 71.2954325,164.50407 C71.1125907,164.517514 70.9289807,164.547476 70.7461389,164.554774 C70.562913,164.564761 70.379687,164.580894 70.1956929,164.59818 L69.6440945,164.634671 C69.4593321,164.652341 69.2749538,164.658103 69.0901914,164.66809 C68.7195143,164.693058 68.3476847,164.706886 67.9723981,164.722251 C67.428098,164.741073 66.8745791,164.752213 66.3095365,164.753749 C66.1985254,164.470652 66.0848254,164.188322 65.969589,163.907146 C65.068056,161.703057 63.9882907,159.581938 62.8735704,157.482715 C61.7503993,155.387332 60.5227473,153.351105 59.2601402,151.336004 C57.9998378,149.319366 56.6584858,147.354585 55.2706551,145.420534 C53.8782149,143.497622 52.4174012,141.591227 50.9170229,139.758584 C49.4239429,137.921331 47.9143457,136.107126 46.4208817,134.302139 C43.4439406,130.682947 40.5680236,127.062987 38.3082372,123.117292 C36.0300131,119.185809 34.3809798,114.928207 33.2601135,110.480849 C32.973559,109.370739 32.71735,108.250256 32.489566,107.120939 C32.3747137,106.553592 32.2686961,105.993543 32.166904,105.421202 C32.0678006,104.856544 31.9725385,104.305329 31.8945619,103.741055 C31.5803506,101.492408 31.4451398,99.1976668 31.4182513,96.8917859 C31.4163307,96.6417229 31.4201719,96.3908916 31.4205561,96.1404444 C32.9654924,94.31702 43.2103948,82.2517662 44.6304917,81.3049069 C46.1669774,80.2808392 48.8366213,83.1817242 49.0163901,84.0870984 C49.3978227,86.0077055 49.2084508,88.1046243 49.0163901,89.2089734 C48.7713206,90.6194673 53.2417257,86.4398421 52.0413463,84.1351135 C51.1156137,82.3577837 47.8640258,81.4623967 48.1198507,80.6941539 C48.3756756,79.925911 50.5048606,80.9979939 53.1937106,82.0224457 C55.8825605,83.0468976 55.5840982,85.7514965 56.3146971,85.2394626 C57.0449119,84.7274288 56.1864005,81.526545 55.0340363,79.9232222 C53.881672,78.3198994 50.1687544,79.2218164 49.4005115,78.837695 C48.6322687,78.4535736 50.1687544,78.1973646 52.7293078,77.6853308 C55.2906294,77.1732969 56.570522,79.3497289 56.9546434,79.3497289 C57.3387648,79.3497289 57.3387648,78.0694522 55.9305757,76.7887914 C54.5216183,75.5085147 52.7293078,74.7402718 51.2738717,75.1243933 C49.8184356,75.5085147 47.8463563,77.0768824 47.8463563,77.0768824 C47.8463563,77.0768824 50.2962827,72.6917523 50.8087007,71.1552666 C51.3211186,69.6187809 51.70524,69.1063629 50.2962827,69.7682042 C48.8880935,70.4300454 46.2472588,76.8529396 45.9914339,75.8284878 C45.7348408,74.804036 46.7116616,72.0352888 44.2836301,70.4507879 C43.19503,69.7401633 39.4133546,70.2587272 39.541267,70.6428486 C39.6691794,71.0269701 44.2836301,72.3233798 44.5348455,75.6364271 C44.6335647,76.9385987 44.0831187,78.8922403 43.2545688,77.9411556 C40.6617492,74.9642146 37.3644509,76.9170879 36.2120867,77.9411556 C35.0597224,78.9656075 34.2914796,80.2458842 35.4438438,79.8617627 C36.5962081,79.4776413 42.8861963,78.2292467 43.3986143,79.381611 C43.8607124,80.4214276 33.5735566,89.6699191 31.5603762,91.4656867 C31.5899536,90.9586465 31.6218357,90.4516062 31.6598637,89.9441818 C31.8227312,87.6221678 32.0762513,85.2986173 32.4035228,82.981981 C33.0169647,78.3379531 33.8946821,73.7162041 34.93181,69.1063629 C33.1375788,73.4868836 31.8058298,78.0475573 30.7003284,82.6696903 C30.1779233,84.9882472 29.7265806,87.3275467 29.3666588,89.6891252 C29.0197972,92.0514719 28.7655088,94.4372501 28.6641007,96.8433866 C28.5538579,99.248755 28.5915018,101.674482 28.83273,104.106739 C28.8930371,104.712498 28.965636,105.327861 29.0562887,105.925938 C29.1431001,106.516716 29.2387464,107.117098 29.3401544,107.708261 C29.5433547,108.89558 29.7780529,110.080595 30.0461696,111.261 C30.5981521,113.616817 31.2830406,115.957653 32.1611422,118.236261 C33.0430849,120.51218 34.0921205,122.733939 35.3216932,124.842381 C37.7723879,129.078088 40.8438227,132.832107 43.9617363,136.389071 C45.5181963,138.177156 47.0980877,139.921452 48.6541636,141.678423 C50.2125442,143.431553 51.714459,145.192366 53.1818028,147.015406 C56.1130334,150.647274 58.9159674,154.401677 61.4884285,158.312033 C62.790216,160.257992 64.0063444,162.25888 65.1510263,164.300102 C65.7199101,165.323401 66.2523024,166.365523 66.7324542,167.43338 C67.1426958,168.355656 67.5287379,169.297521 67.7446141,170.290859 C67.5064588,170.298926 67.2690718,170.305072 67.0297641,170.31698 C66.5814944,170.331192 66.13092,170.355776 65.6788091,170.381896 L65.643854,170.648476 C66.0767589,170.791754 66.5135049,170.916977 66.9525557,171.029909 C67.3908383,171.14745 67.8318097,171.250779 68.2750858,171.343736 C68.7183619,171.43823 69.1624063,171.535413 69.610676,171.603786 C70.0577933,171.681763 70.5079836,171.748216 70.9597104,171.815821 L71.6407577,171.893798 C71.8677734,171.919918 72.0967098,171.944502 72.3271827,171.957946 C72.7850554,171.994822 73.2517629,172.017485 73.720391,172.024784 C73.9562416,172.025936 74.1974699,172.016333 74.4363934,172.012492 C74.6718598,172.01518 74.9280688,171.978305 75.1742906,171.95641 C75.295673,171.949112 75.4258902,171.929137 75.5591803,171.904553 C75.6536742,172.155769 75.7520092,172.403143 75.8591791,172.653206 C76.1000232,173.225163 76.3593052,173.789053 76.6508534,174.338347 C76.9370238,174.88111 77.2692889,175.438855 77.5992492,175.927457 L78.0632678,176.637314 C78.1980944,176.85972 78.3459812,177.087504 78.456224,177.303764 C78.5760699,177.523866 78.6563513,177.728987 78.7212678,177.917206 C78.7623688,178.086604 78.8065428,178.243325 78.7907938,178.3286 C78.7715877,178.418869 78.7677465,178.533337 78.6171709,178.654335 C78.4961727,178.781095 78.2887471,178.89902 78.0632678,179.000813 C77.8312585,179.097995 77.5804272,179.190953 77.3080851,179.247419 C77.1809409,179.275459 77.0234511,179.320786 76.9189701,179.336151 L76.4768464,179.403756 C75.9014325,179.48058 75.3479135,179.505164 74.7483,179.513615 C72.3863374,179.52898 70.0147717,179.254717 67.6412854,178.970083 C66.4531979,178.82258 65.2624215,178.662402 64.0612738,178.546397 C63.3694711,178.470725 62.6738272,178.415796 61.9758786,178.377768 C61.7373392,177.457797 61.300209,176.153321 60.6053334,175.405436 C59.553993,174.272278 58.5329983,173.711845 57.6979183,173.43835 C58.0459323,173.30314 58.392794,173.165624 58.7442651,173.036943 C59.5593707,172.725421 60.3844636,172.427727 61.211477,172.125807 C61.4865079,172.338227 61.9182604,172.670492 62.3438669,172.991617 C62.2343923,173.765238 62.1422032,174.570356 62.204815,174.901085 L62.401101,173.034639 C62.7222265,173.277019 63.0349014,173.508645 63.2688313,173.674201 L62.4026375,173.020042 L62.5559019,171.559997 C62.5109597,171.892646 62.4245324,172.423886 62.3461717,172.977021 L61.2164706,172.123887 C61.5110917,172.016333 61.8053287,171.909931 62.1007181,171.800072 L62.0527029,171.535413 C60.8400316,171.556539 59.6427251,171.684068 58.443498,171.8381 C57.8458051,171.924528 57.2481122,172.018638 56.6508033,172.125807 C56.0554151,172.24066 55.4607952,172.36742 54.8665593,172.509929 C54.2700188,172.646292 53.6803924,172.81761 53.0892295,173.00583 C52.4988349,173.194817 51.9049832,173.396097 51.3172774,173.654995 C50.730724,173.915429 50.1434023,174.206209 49.5568489,174.593788 C49.2637643,174.791994 48.9702955,175.011712 48.6822045,175.28559 C48.5335495,175.441544 48.4102465,175.540647 48.2393125,175.783027 C48.1601835,175.890581 48.0841274,176.001208 48.0115285,176.112988 L47.899365,176.312731 L47.8448198,176.409914 C47.8221566,176.459081 47.886689,176.31734 47.791811,176.523229 L47.7852809,176.539363 L47.7718367,176.571629 L47.7449482,176.635777 L47.6396989,176.894675 C47.576703,177.079821 47.5110183,177.258438 47.462619,177.464327 C47.3612109,177.864197 47.2959103,178.324375 47.3635156,178.858304 C47.4245909,179.386855 47.6750381,179.985316 48.0641531,180.417068 C48.4490428,180.859192 48.9038425,181.108871 49.310243,181.283262 C50.1334152,181.618984 50.8536429,181.685821 51.5400678,181.716551 C52.2261087,181.747665 52.8733533,181.698497 53.5075378,181.62974 C54.1436428,181.559445 54.7520912,181.464567 55.3735996,181.351636 L57.0910065,181.030126 C57.6518238,180.928718 58.2260853,180.868795 58.794585,180.785441 C59.3707671,180.733968 59.9442604,180.655224 60.5242838,180.609129 C61.6843304,180.510026 62.8528278,180.405929 64.0313123,180.324879 C65.2078762,180.238068 66.3936591,180.185827 67.5805943,180.154329 C69.9583058,180.097863 72.328335,180.227312 74.7202591,180.413995 L75.627938,180.478144 C75.9352352,180.491204 76.2628907,180.517708 76.5575119,180.521165 L77.0053974,180.529232 C77.1982264,180.531152 77.3326689,180.51233 77.5001458,180.504264 C77.6599403,180.495429 77.820119,180.484674 77.9860594,180.45548 C78.1519999,180.428208 78.313715,180.422062 78.4861855,180.374431 C78.8253647,180.297222 79.1802929,180.197735 79.5436718,179.978786 C79.9074348,179.792487 80.2708136,179.398762 80.4736297,178.946652 C80.6875854,178.472646 80.6845124,178.013236 80.6618492,177.598385 C80.6111452,177.203124 80.5224132,176.836288 80.4102497,176.508633 L80.4102497,176.508633 Z" id="Fill-23" fill="#FEFEFE"></path>
                <g id="Group-27" transform="translate(0.000000, 0.120230)">
                    <mask id="mask-2" fill="white">
                        <use xlink:href="#path-1"></use>
                    </mask>
                    <g id="Clip-26"></g>
                </g>
                <path d="M169.316766,181.030971 C169.199993,181.435451 169.032516,181.819957 168.817792,182.174117 L168.738663,182.307023 L168.663375,182.412272 L168.591545,182.519826 L168.465169,182.676547 L168.341482,182.828275 C168.340329,182.830196 168.341482,182.828659 168.338793,182.831348 L168.315361,182.855164 L168.268499,182.902795 C168.207807,182.96848 168.145964,183.032244 168.07759,183.084484 C167.565556,183.538132 166.885277,183.767836 166.045972,183.755544 C165.215886,183.744405 164.294762,183.523919 163.409363,183.165534 C162.390673,182.753756 161.410395,182.195627 160.488503,181.55376 L167.391549,174.205518 C168.411008,175.466588 169.17733,176.93278 169.438532,178.455437 C169.587572,179.334691 169.552616,180.22278 169.316766,181.030971 M172.365922,177.918051 C172.123541,176.654292 171.63225,175.489251 171.01151,174.459038 C170.393074,173.424215 169.651336,172.51039 168.839303,171.721404 C167.230218,170.130373 165.374912,168.98646 163.613331,168.12526 C162.763654,167.706951 161.937025,167.300167 161.137668,166.906442 C160.341001,166.514254 159.570453,166.130133 158.838318,165.751773 C157.375967,164.989292 156.035384,164.287503 154.86074,163.638721 C153.691859,162.981874 152.673169,162.403003 151.847692,161.900572 C151.026056,161.393916 150.374586,160.995582 149.942066,160.707491 C149.504551,160.423625 149.27139,160.272281 149.27139,160.272281 C149.27139,160.272281 149.460377,160.476634 149.83067,160.845006 C150.202884,161.21069 150.747184,161.753838 151.485081,162.393784 C151.624133,162.51555 151.775093,162.645768 151.926821,162.775985 C151.748589,163.401334 151.601086,164.009783 151.441291,164.600946 C151.25192,165.301967 151.049488,165.991849 150.755251,166.558428 C150.603907,166.844983 150.450642,167.065469 150.227852,167.24178 C149.971259,167.454968 149.69085,167.640883 149.390851,167.811432 C148.788165,168.148307 148.111727,168.4049 147.350782,168.594656 C148.093673,168.883515 148.939125,168.871992 149.731183,168.647665 C150.128364,168.532428 150.514022,168.356885 150.866646,168.126412 C150.95653,168.070714 151.04411,168.006566 151.149359,167.913225 C151.24078,167.832175 151.322598,167.746132 151.399806,167.6574 C151.550766,167.478399 151.669844,167.286723 151.775093,167.09543 C152.174195,166.319121 152.302492,165.515539 152.337831,164.731547 C152.354348,164.149603 152.314784,163.569964 152.191481,163.002232 C152.780723,163.501974 153.451399,164.049731 154.216185,164.624377 C155.298255,165.45139 156.54396,166.353308 157.941778,167.274047 C158.637806,167.74037 159.368021,168.213608 160.128966,168.701826 C160.894904,169.188892 161.691572,169.667507 162.503604,170.158798 C164.05315,171.076465 165.540852,172.167369 166.801923,173.528312 C165.765563,173.896684 164.325492,174.669152 162.843936,176.307814 C161.454569,177.845452 160.513087,179.863242 159.991834,181.195759 C159.480569,180.813558 158.988125,180.409463 158.523338,179.987697 C158.339344,179.824446 158.173403,179.663115 158.005542,179.502936 C157.830383,179.32624 157.655992,179.150697 157.482369,178.975537 C157.113612,178.604092 156.751002,178.222659 156.380709,177.878103 C155.645885,177.17324 154.92412,176.500259 154.206966,175.861849 C152.781491,174.577731 151.392892,173.422294 150.108006,172.35943 C148.831571,171.288884 147.627734,170.34817 146.561413,169.514243 C145.499701,168.675706 144.550537,167.971995 143.771923,167.390435 C142.996766,166.804266 142.366807,166.368288 141.94581,166.061759 C141.797923,165.958047 141.683455,165.878149 141.584736,165.808623 C141.82558,165.598509 142.104068,165.339995 142.402914,165.03385 C142.832746,164.595568 143.30099,164.066633 143.763857,163.478159 C143.995866,163.182385 144.229028,162.880466 144.452586,162.557804 C144.562445,162.402235 144.673456,162.245129 144.784851,162.087639 C144.887796,161.95166 144.979601,161.810688 145.089076,161.677013 C145.296885,161.400446 145.52851,161.136939 145.75591,160.868054 C145.879213,160.741294 145.995218,160.608388 146.11007,160.475482 C146.233373,160.34949 146.355524,160.224266 146.470376,160.093281 C146.717366,159.840529 146.95629,159.596228 147.182921,159.364218 C147.418388,159.126831 147.641178,158.902504 147.846683,158.695463 C148.05795,158.480739 148.251163,158.283685 148.422481,158.109294 C148.596104,157.926068 148.747832,157.766273 148.872672,157.634904 C149.125039,157.368323 149.27139,157.19931 149.27139,157.19931 C149.27139,157.19931 149.216076,157.194701 149.113132,157.196621 C149.012108,157.202383 148.857307,157.198926 148.67216,157.22543 C148.294953,157.263074 147.764481,157.3568 147.156801,157.559232 C146.852577,157.659872 146.529915,157.788936 146.196113,157.945274 C145.863848,158.1043 145.52198,158.29444 145.180496,158.51531 C144.840933,158.740021 144.501754,158.996614 144.178324,159.288546 C144.020066,159.438738 143.857966,159.591618 143.70547,159.752949 C143.554895,159.917737 143.412386,160.09597 143.266035,160.26844 C143.126215,160.447057 143.004449,160.645647 142.875384,160.833099 C142.740173,161.028232 142.667958,161.184954 142.563477,161.362034 C142.366807,161.705438 142.189343,162.060367 142.026091,162.402235 C141.699588,163.089044 141.441459,163.757031 141.255928,164.348962 C141.069245,164.940125 140.955929,165.455616 140.895622,165.826293 C140.858746,166.007598 140.848759,166.160479 140.834163,166.26035 C140.825328,166.363295 140.820718,166.418224 140.820718,166.418224 C140.820718,166.418224 140.86566,166.385958 140.949399,166.326035 C141.02776,166.263039 141.154136,166.17738 141.292804,166.055613 C141.36425,165.997611 141.442611,165.93231 141.525965,165.860864 C141.608167,165.951132 141.704582,166.056766 141.829421,166.193513 C142.185886,166.573025 142.696767,167.143061 143.366675,167.845235 C144.034662,168.549714 144.835555,169.415908 145.775885,170.383509 C146.706995,171.361099 147.757567,172.463143 148.913004,173.650078 C150.053845,174.846616 151.289948,176.143026 152.597113,177.51434 C153.240132,178.204606 153.907351,178.904859 154.559205,179.635842 C154.893775,179.998453 155.200688,180.372971 155.5318,180.741728 C155.705807,180.938782 155.880583,181.137373 156.05651,181.336348 C156.247803,181.543773 156.4414,181.753119 156.634229,181.946333 C157.404777,182.739543 158.262904,183.475904 159.194782,184.15311 C160.128582,184.828396 161.14151,185.440685 162.266217,185.918532 C163.385931,186.394459 164.618961,186.774739 165.999109,186.802011 C166.68515,186.814687 167.409603,186.738631 168.123685,186.508159 C168.835462,186.281527 169.528417,185.900094 170.098453,185.397663 C170.245187,185.275129 170.377325,185.141839 170.503701,185.003939 L170.600116,184.901379 L170.647747,184.849906 C170.625083,184.878331 170.706133,184.781533 170.70306,184.784606 L170.719193,184.764631 L170.849026,184.602532 L170.981548,184.435823 L171.146336,184.202662 L171.308051,183.967964 L171.441341,183.744789 C171.794733,183.151321 172.064386,182.512143 172.247228,181.856448 C172.622515,180.541985 172.606766,179.176433 172.365922,177.918051" id="Fill-25" fill="#FEFEFE"></path>
                <path d="M161.005915,169.87524 C160.393625,170.346557 159.900029,170.969218 159.503232,171.636053 C159.162516,172.201479 158.898625,172.806855 158.679291,173.426058 C158.139601,173.747184 157.621421,174.101344 157.135507,174.495837 C156.53743,174.97983 155.972004,175.507228 155.492236,176.111835 C156.131798,175.685077 156.761757,175.265616 157.397094,174.859984 C157.739346,174.644107 158.082367,174.432841 158.427692,174.226952 C158.266361,174.81773 158.141906,175.41696 158.065849,176.021951 C157.968283,176.785584 157.925261,177.557668 157.996708,178.325911 C158.163416,177.574954 158.328204,176.837441 158.506053,176.104537 C158.689279,175.37317 158.879035,174.647565 159.11066,173.93694 C159.12372,173.895839 159.139853,173.855506 159.152913,173.814405 C159.21322,173.780987 159.271991,173.744495 159.333066,173.711845 C159.986457,173.350387 160.659437,173.028493 161.350088,172.747316 C162.043427,172.471133 162.756356,172.246037 163.510386,172.089316 C162.742144,172.005962 161.955079,172.1139 161.20681,172.320941 C160.589527,172.489186 159.997212,172.733488 159.426792,173.017737 C159.572758,172.621708 159.728327,172.22952 159.900798,171.844631 C160.210783,171.165504 160.569937,170.509809 161.005915,169.87524" id="Fill-28" fill="#FEFEFE"></path>
                <path d="M156.791834,167.604276 C156.250991,168.000305 155.815781,168.535386 155.466999,169.110032 C155.167769,169.597866 154.937296,170.121039 154.746387,170.656889 C154.287746,170.932304 153.842934,171.22923 153.432308,171.569177 C152.918354,171.992479 152.434361,172.455345 152.031417,172.989658 L153.694279,171.933324 C153.963548,171.766615 154.232817,171.601827 154.503623,171.440881 C154.376863,171.923337 154.280448,172.412324 154.223214,172.906304 C154.144085,173.567761 154.11566,174.237284 154.193637,174.901046 L154.663417,172.98889 C154.827821,172.359315 154.992609,171.734349 155.193121,171.122828 C155.202724,171.092098 155.214631,171.062521 155.224234,171.031791 C155.271481,171.006055 155.31796,170.977246 155.365591,170.951894 C155.928329,170.639603 156.506816,170.361499 157.098747,170.113741 C157.693751,169.869824 158.304504,169.66816 158.954053,169.516048 C158.289139,169.428084 157.605019,169.513743 156.95547,169.68775 C156.448814,169.820272 155.9629,170.014254 155.494272,170.241269 C155.609508,169.930515 155.732811,169.623218 155.865333,169.319378 C156.126536,168.732056 156.428071,168.163941 156.791834,167.604276" id="Fill-30" fill="#FEFEFE"></path>
                <path d="M62.5560556,171.559881 C62.5756458,171.41622 62.5883218,171.305977 62.5883218,171.252584 L62.5560556,171.559881 Z" id="Fill-32" fill="#FEFEFE"></path>
                <path d="M63.421097,173.780218 C63.3757707,173.749489 63.3239143,173.713381 63.268985,173.674201 L64.8930503,174.901085 C64.8930503,174.901085 64.284602,174.368308 63.421097,173.780218" id="Fill-34" fill="#FEFEFE"></path>
                <path d="M65.6262229,171.685374 C65.6177722,171.48371 65.6058644,171.329293 65.585506,171.252853 L65.6262229,171.685374 Z" id="Fill-36" fill="#FEFEFE"></path>
                <path d="M63.5861156,171.252661 C63.5861156,171.252661 64.6631921,171.934477 65.6488476,172.486843 C65.6707425,173.318082 65.7118435,174.31795 65.9135073,174.738179 L65.7045452,172.518341 C66.1900747,172.789147 66.6483316,173.024613 66.9368068,173.126021 C68.0761109,173.525892 68.9134956,173.939206 68.9134956,173.939206 L65.684955,172.3113 L65.6261845,171.685182 C65.6334828,171.857268 65.6384763,172.06431 65.643854,172.290173 L63.5861156,171.252661 Z" id="Fill-38" fill="#FEFEFE"></path>
                <path d="M162.060674,106.303222 C162.060674,106.305142 162.060674,106.304374 162.060674,106.306679 C162.06029,106.307447 162.06029,106.307063 162.059906,106.307447 C162.06029,106.306295 162.06029,106.305526 162.06029,106.304758 C162.06029,106.30399 162.060674,106.303606 162.060674,106.303222 L162.060674,106.303222 Z M162.059521,106.307831 L162.059521,106.308215 L162.059521,106.307831 Z M159.361837,107.5762 C159.365294,107.588876 159.367599,107.601936 159.368751,107.614996 C159.368367,107.606546 159.370672,107.627672 159.371056,107.657634 C159.364141,107.631898 159.354923,107.604625 159.349545,107.58081 C159.346856,107.565061 159.336101,107.500912 159.361837,107.5762 L159.361837,107.5762 Z M162.004592,101.531665 C161.739548,101.560859 161.600881,101.592741 161.600881,101.592741 C161.600881,101.592741 161.739548,101.62155 161.9923,101.692612 C162.245436,101.759834 162.61304,101.877759 163.07437,102.027182 C163.533395,102.181215 164.090371,102.38211 164.686144,102.638319 C164.779869,102.680573 164.8759,102.725899 164.971546,102.772762 C164.957333,102.77353 164.943889,102.775066 164.929677,102.775835 C164.521356,102.79965 164.07347,102.794657 163.604074,102.784669 C163.363614,102.779676 163.120081,102.774682 162.873091,102.769689 C162.745562,102.768152 162.616113,102.767384 162.473988,102.771609 L162.247357,102.782749 L162.11061,102.79773 L162.024951,102.812326 L161.982313,102.820393 C161.949663,102.828075 161.910866,102.838831 161.875911,102.850354 C161.840188,102.862262 161.804465,102.87609 161.770278,102.891071 L161.697679,102.926026 L161.676937,102.93755 L161.666565,102.942928 C161.471047,103.073913 161.512533,103.06623 161.434172,103.148048 C161.341983,103.257907 161.267847,103.446895 161.265927,103.625127 C161.265158,103.690044 161.271688,103.74651 161.28398,103.806817 C161.295888,103.866355 161.318167,103.930504 161.327002,103.948942 C161.348129,104.002334 161.390766,104.079543 161.409588,104.105279 C161.429946,104.13524 161.451841,104.164434 161.474889,104.192859 C161.61202,104.346891 161.678089,104.384151 161.75184,104.442922 C161.890124,104.543561 162.006513,104.615392 162.124438,104.687991 C162.358368,104.8305 162.584231,104.958797 162.811247,105.089014 C163.709323,105.602968 164.635824,106.121148 165.422505,106.731901 C165.450545,106.75418 165.475897,106.777228 165.503554,106.799891 C164.594723,106.517561 163.662076,106.123069 162.720594,105.753544 C162.458624,105.651752 162.204719,105.551112 161.900495,105.455466 C161.820598,105.43165 161.739932,105.407451 161.627001,105.384787 C161.593966,105.379026 161.572456,105.373648 161.527129,105.36827 C161.490254,105.363661 161.447232,105.358283 161.376938,105.358283 L161.330459,105.359051 L161.247873,105.367118 L161.164903,105.382099 C161.147233,105.384403 161.065415,105.409755 161.020089,105.430882 C160.96055,105.459307 160.930205,105.471983 160.855301,105.526528 C160.746979,105.60681 160.642882,105.7401 160.591794,105.876847 C160.52995,106.069676 160.561064,105.990931 160.552229,106.013978 C160.546467,106.104631 160.562216,105.828832 160.538401,106.220251 C160.55415,106.34317 160.588336,106.471467 160.636736,106.586703 C160.673611,106.665448 160.693202,106.6908 160.723547,106.744961 C160.783854,106.850211 160.830333,106.908981 160.877964,106.974282 C161.254019,107.471335 161.59435,107.832025 161.923542,108.230359 C162.129432,108.475428 162.326102,108.718577 162.502413,108.956348 C162.134809,108.766976 161.776808,108.563776 161.435708,108.359808 C161.261317,108.256095 161.090767,108.154303 160.930589,108.042139 C160.772715,107.926903 160.613688,107.820117 160.438913,107.747518 C160.088979,107.593486 159.757482,107.447519 159.445575,107.310388 C159.355307,107.269671 159.266575,107.229723 159.179379,107.190926 C159.141351,107.172488 159.090263,107.150209 159.079892,107.149057 L158.950059,107.109493 C158.837127,107.084141 158.666961,107.10834 158.552877,107.183244 C158.425733,107.268135 158.396155,107.326137 158.367731,107.374152 C158.335464,107.431386 158.311649,107.499376 158.300893,107.565829 C158.288601,107.622679 158.295132,107.722934 158.2959,107.711027 L158.30896,107.7794 C158.35275,107.932665 158.375413,107.941884 158.40307,107.998734 C158.50563,108.163138 158.598203,108.285288 158.694618,108.406671 C158.883606,108.64521 159.059917,108.85494 159.219328,109.044312 C159.860426,109.798343 160.256456,110.203591 160.256456,110.203591 C160.256456,110.203591 160.133921,109.86057 159.916892,109.252122 C159.980272,109.29015 160.044421,109.328178 160.112026,109.363517 C160.289106,109.461084 160.466186,109.570174 160.648644,109.679649 C161.014327,109.89783 161.402674,110.119468 161.824823,110.336497 C162.038011,110.443666 162.259265,110.550452 162.503182,110.650708 C162.760159,110.745586 162.984102,110.857365 163.441974,110.891936 C163.497288,110.895009 163.558747,110.89693 163.649784,110.884254 C163.735059,110.871194 163.799976,110.868505 163.927888,110.815496 C164.129936,110.760183 164.429167,110.479006 164.487553,110.240466 C164.499077,110.208584 164.509448,110.176702 164.518283,110.14482 C164.529422,110.074526 164.512905,110.23432 164.545171,109.975038 L164.545171,109.963899 L164.546324,109.918573 L164.548244,109.827536 L164.549012,109.782209 L164.539025,109.685411 C164.530959,109.618958 164.519819,109.551737 164.505991,109.484899 C164.492162,109.418446 164.475645,109.351993 164.456823,109.287845 L164.408424,109.167615 L164.308552,108.935222 C164.236338,108.806541 164.164507,108.663264 164.086914,108.546491 C163.894854,108.244571 163.690885,107.971845 163.481539,107.709106 C164.071934,107.9415 164.680382,108.168131 165.331468,108.357119 C165.626089,108.436632 165.918405,108.514993 166.299838,108.544954 C166.496508,108.547643 166.703934,108.582982 167.081525,108.429334 C167.265903,108.355198 167.52096,108.13817 167.616606,107.869669 C167.643495,107.803216 167.66078,107.740604 167.670383,107.683754 C167.682291,107.622679 167.688437,107.565061 167.688821,107.518198 C167.690357,107.469414 167.690742,107.412564 167.686132,107.375305 L167.679218,107.313077 L167.675377,107.281963 L167.664237,107.219351 C167.663853,107.197456 167.601241,106.968136 167.559756,106.885934 C167.513662,106.779532 167.462189,106.683502 167.408412,106.598995 C167.301242,106.428061 167.187158,106.288625 167.07269,106.162633 C166.842986,105.911802 166.608287,105.711675 166.373589,105.525376 C165.767446,105.056748 165.154772,104.675699 164.553622,104.322308 C164.708423,104.319619 164.862455,104.31885 165.018409,104.310016 C165.26271,104.295035 165.508164,104.27314 165.768598,104.225893 C166.0298,104.170964 166.304063,104.125253 166.667442,103.88825 C166.708159,103.863667 166.76232,103.814499 166.807646,103.77455 C166.852973,103.734986 166.899451,103.686587 166.946314,103.622822 C166.991256,103.562131 167.03351,103.506818 167.067697,103.428457 C167.085366,103.391197 167.101499,103.353553 167.115712,103.315141 L167.136454,103.257907 C167.135686,103.269815 167.185238,103.032428 167.164495,103.129226 L167.166032,103.119623 L167.171025,103.081979 L167.173714,103.063158 L167.177171,103.017447 C167.182933,102.892223 167.168336,102.75586 167.134918,102.637935 C167.108798,102.563416 167.076915,102.489664 167.040424,102.41937 C167.004317,102.351381 166.97013,102.311048 166.932102,102.257271 C166.783831,102.067131 166.651309,101.965723 166.526854,101.888514 C166.40163,101.812074 166.282552,101.765211 166.168084,101.729488 C165.716357,101.589284 165.337614,101.54703 164.976924,101.505545 C164.263226,101.43141 163.657082,101.43986 163.157725,101.452152 C162.659519,101.462908 162.268868,101.503625 162.004592,101.531665 L162.004592,101.531665 Z" id="Fill-40" fill="#FEFEFE"></path>
            </g>
        </g>
    </g>
</svg>