<svg xmlns="http://www.w3.org/2000/svg" width="158" height="171" viewBox="0 0 158 171">
    <defs>
        <path id="a" d="M128.61 170.71H0V.241h157.58v170.47h-28.97 28.97v-27.075h-28.97v27.074z"/>
    </defs>
    <g fill="none" fill-rule="evenodd">
        <path fill="#FEFEFE" d="M86.084 33s.327 1.33.604 3.364c.139 1.017.277 2.21.305 3.506.015.648.01 1.322-.055 2.013-.063.69-.175 1.4-.419 2.118-.053.18-.14.36-.213.54-.099.178-.181.36-.31.536l-.09.132-.012.017-.006.008c-.012.014.018-.019-.028.033l-.02.025-.042.05-.165.198a2.048 2.048 0 0 1-.202.216l-.234.225c-.61.547-1.446.942-2.299 1.007a4.381 4.381 0 0 1-2.28-.457 3.715 3.715 0 0 1-.455-.249c-.148-.084-.279-.183-.41-.275a7.39 7.39 0 0 1-.674-.583 10.299 10.299 0 0 1-.996-1.111 9.469 9.469 0 0 1-.638-.933c-.32-.537-.445-.873-.445-.873l.135-.086.758.607c.242.188.534.415.873.662.337.25.728.518 1.145.79.233.156.426.27.657.388a4.81 4.81 0 0 0 1.44.497c.25.026.502.058.749.03.492-.029.987-.198 1.455-.51l.156-.115c.052-.036.106-.074.172-.142l.188-.18.047-.045.024-.023-.018.02.004-.005.008-.009.064-.075c.177-.193.32-.454.443-.733.243-.56.403-1.193.512-1.827.107-.636.181-1.277.227-1.901a38.08 38.08 0 0 0 .073-3.445c-.02-1.014-.08-1.86-.115-2.452-.04-.592-.073-.93-.073-.93l.16-.023z"/>
        <path fill="#FEFEFE" d="M19.373 44.386l.01-.037-.001.008-.01.029zM6.438 5.923c.007.004-.001.002 0 0zm-1.383 2.09c.002.003-.019.008-.046.011.02-.008.028-.01.033-.01l.013-.002zm-4.233.835c.001-.003-.027.03-.014.014l.003-.003.005-.007.02-.029.027-.034a.161.161 0 0 1-.033.054l-.008.005zm62.44 10.801l-.005.007c-.003.002-.002-.001 0-.004a.247.247 0 0 1 .023-.031l.005-.006c-.02.033-.016.024-.022.034zM22.71 50.055c-.976-1.42-1.96-2.86-2.719-4.284a9.89 9.89 0 0 1-.466-1.02c-.058-.154-.1-.3-.117-.396l-.008-.052c.087-.27.241-.645.397-.996.168-.376.353-.759.544-1.142.755-1.54 1.582-3.086 2.382-4.646 1.416-2.739 2.818-5.504 4.085-8.364a43.05 43.05 0 0 0 3.802 2.702 46.476 46.476 0 0 0 5.345 2.905c.895.412 1.788.79 2.666 1.147.874.366 1.748.68 2.615.927 1.73.508 3.382.91 4.909 1.24 1.52.346 2.961.57 4.223.699 1.267.132 2.373.185 3.284.194 1.16.014 1.998-.023 2.456-.052.212.53.444 1.045.694 1.54a33.492 33.492 0 0 0 2.71 4.608c1.038 1.451 2.21 2.824 3.577 3.982 1.361 1.152 2.931 2.104 4.64 2.544.027.015.572.306 1.568.673 1.02.377 2.524.823 4.392 1.048 1.862.227 4.102.208 6.424-.359a17.216 17.216 0 0 0 3.456-1.265 18.074 18.074 0 0 0 3.226-2.038 22.073 22.073 0 0 0 2.777-2.62c.844-.973 1.575-1.837 2.39-2.61a12.61 12.61 0 0 1 1.185-1.016c.19-.14.374-.254.528-.335.162-.08.268-.106.37-.122.056-.007.121-.011.224-.007.105.004.247.014.417.011a3.173 3.173 0 0 0 1.57-.416l.13-.074.077-.05c.048-.032.097-.063.18-.123.293-.205.51-.412.724-.674.418-.508.667-1.189.63-1.848a2.361 2.361 0 0 0-.239-.929 2.192 2.192 0 0 0-.571-.695 2.042 2.042 0 0 0-1.417-.443c-.38.04-.606.074-.87.092a5.383 5.383 0 0 1-1.187-.04 2.425 2.425 0 0 1-.41-.09l-.124.17.093.092c.06.055.155.13.285.219.26.174.673.389 1.238.548.27.09.641.134.911.193.217.064.395.177.492.334.19.314.134.738-.276 1.094a1.945 1.945 0 0 1-.354.241c-.016.01-.072.04-.129.067l-.081.041.018-.01-.007.003-.015.005-.03.012c-.077.032-.15.055-.215.074a1.024 1.024 0 0 1-.387.03l-.36-.024a3.616 3.616 0 0 0-.563.013 2.926 2.926 0 0 0-1.148.384c-.321.18-.591.386-.83.6-.486.422-.878.886-1.269 1.352-.387.47-.75.95-1.12 1.443l-.543.73c-.18.23-.355.466-.545.69a20.567 20.567 0 0 1-2.469 2.555 17.952 17.952 0 0 1-2.89 2.046 16.078 16.078 0 0 1-3.154 1.362c-2.139.672-4.274.84-6.086.737a20.237 20.237 0 0 1-4.344-.723 16.022 16.022 0 0 1-1.18-.381c-.27-.1-.408-.16-.408-.16l-.045.095.036-.1c-1.549-.757-2.867-1.852-4.003-3.097-1.134-1.25-2.103-2.644-2.952-4.108-.858-1.459-1.587-2.998-2.253-4.559-.664-1.547-1.132-3.107-1.28-4.688-.15-1.573.05-3.132.65-4.538.075-.175.157-.348.245-.519l.133-.256.159-.288c.244-.45.427-.886.595-1.324.329-.875.586-1.748.784-2.65.098-.45.182-.907.24-1.386.028-.24.05-.486.055-.751.002-.142.003-.258-.011-.44l-.013-.136-.012-.081-.019-.112-.013-.074c-.14-.784-.21-1.6-.128-2.302.04-.347.133-.66.254-.849.06-.094.12-.16.188-.213.026-.024.094-.056.1-.063l.074-.026.033-.01a.91.91 0 0 1 .104-.03c.277-.064.495-.05.707.056.106.053.214.13.314.233.05.052.098.108.141.17.04.051.092.143.103.157l.795.96.493-.854c.02-.024.046-.051.076-.08.065-.06.145-.125.228-.187.169-.125.36-.244.557-.357.397-.226.826-.429 1.263-.616.877-.372 1.795-.689 2.726-.96a35.373 35.373 0 0 1 2.826-.713c.95-.188 1.911-.313 2.876-.38 1.93-.121 3.875.058 5.739.53 1.867.462 3.643 1.206 5.342 2.074 1.696.87 3.328 1.877 4.916 2.939l.305.204c.095.064.186.125.277.191a8.621 8.621 0 0 1 1.484 1.337c.583.67 1.081 1.42 1.462 2.243.379.823.647 1.71.837 2.624.183.916.268 1.862.298 2.818a25.223 25.223 0 0 1-.584 5.786l.198.073c.428-.908.752-1.857 1.01-2.83.256-.973.443-1.97.533-2.986.1-1.016.097-2.05-.017-3.084a11.54 11.54 0 0 0-.744-3.062 9.89 9.89 0 0 0-1.623-2.767 10.443 10.443 0 0 0-1.75-1.667c-.105-.081-.216-.16-.322-.236l-.301-.213a26.682 26.682 0 0 0-5.313-2.865c-3.763-1.501-7.84-2.01-11.788-1.743-1.985.109-3.938.488-5.87.884-.97.21-1.939.433-2.903.733a13.71 13.71 0 0 0-1.446.53 7.032 7.032 0 0 0-.7.353 2.699 2.699 0 0 0-.635-.59c-.53-.355-1.226-.454-1.797-.36-.073.01-.144.022-.213.038-.044.01-.05.009-.124.028l-.082.022a2.327 2.327 0 0 0-1.237.884c-.377.528-.53 1.076-.626 1.585-.176 1.023-.112 1.968.007 2.9l.012.087.007.044c-.002-.012.006.043-.004-.024l.001.01.002.02.01.081-.003.027a4.031 4.031 0 0 1-.072.762c-.063.383-.153.78-.256 1.176a18.29 18.29 0 0 1-.779 2.328c-.155.37-.325.73-.506 1.038l-.166.278-.179.317a9.877 9.877 0 0 0-.32.656c-.81 1.785-1.034 3.803-.8 5.686.155 1.288.508 2.528.972 3.694-.46-.019-1.29-.069-2.42-.198a42.695 42.695 0 0 1-3.215-.5c-1.235-.238-2.588-.59-4.071-1.043a69.53 69.53 0 0 1-4.717-1.594 99.69 99.69 0 0 0-2.532-.954 44.29 44.29 0 0 1-2.598-1.104 45.083 45.083 0 0 1-5.183-2.818 42.535 42.535 0 0 1-4.899-3.616 42.406 42.406 0 0 1-4.312-4.304c-.33-.38-.644-.771-.965-1.153l-.913-1.177a136.252 136.252 0 0 1-1.752-2.38c-1.126-1.574-2.173-3.12-2.977-4.652-.804-1.525-1.337-3.063-1.277-4.45.028-.691.185-1.34.434-1.932.055-.15.134-.29.197-.434l.235-.439c.21-.395.347-.908.23-1.43-.109-.51-.474-1.024-1.08-1.189a1.294 1.294 0 0 0-.905.091 1.51 1.51 0 0 0-.576.51c-.205.31-.306.535-.428.755-.115.216-.223.41-.33.576-.205.334-.442.554-.514.566-.034.006-.028.018-.049-.011a.3.3 0 0 1-.101.083c-.048.012-.099.035-.153.034a1.559 1.559 0 0 1-.32-.015c-.097-.021-.188-.038-.26-.055l-.16-.044c.043-.252.113-.742.159-1.444.034-.527.064-1.165.023-1.917a8.494 8.494 0 0 0-.05-.59c-.031-.206-.052-.427-.15-.66a1.72 1.72 0 0 0-.213-.381A1.064 1.064 0 0 0 10.02.78a.761.761 0 0 0-.463-.15.875.875 0 0 0-.668.358c-.118.154-.18.294-.232.426-.19.524-.237.998-.293 1.496-.032.317-.052.638-.072.96l-.035-.083a29.562 29.562 0 0 0-.708-1.569c-.269-.527-.542-1.06-.979-1.58a2.466 2.466 0 0 0-.405-.382 1.515 1.515 0 0 0-.295-.169l-.109-.04-.054-.015A.915.915 0 0 0 5.441 0a.773.773 0 0 0-.58.293c-.123.16-.16.298-.189.413a2.276 2.276 0 0 0-.04.579c.039.675.18 1.258.318 1.85.137.566.29 1.121.441 1.67A13.2 13.2 0 0 0 4.13 3.586c-.463-.366-.954-.737-1.652-.882a1.634 1.634 0 0 0-1.339.322l-.019.015c-.038.03-.047.042-.072.066a.77.77 0 0 0-.203.435c-.021.342.07.492.13.65.279.571.601.944.913 1.336.315.38.629.73.933 1.059.484.601 1.052 1.041 1.537 1.455a23.803 23.803 0 0 1-.534-.012L2.55 7.978a1.467 1.467 0 0 0-.313-.135 1.947 1.947 0 0 0-.847-.071 2.458 2.458 0 0 0-.524.122c-.188.071-.354.142-.571.31l-.064.053-.027.023-.007.006-.003.003-.019.02-.027.035c-.034.05-.068.096-.093.155a.957.957 0 0 0-.052.197c-.019.291.102.462.193.598.196.246.402.387.607.516.414.254.852.43 1.31.585.225.08.468.145.705.21.223.057.473.118.662.18.202.061.407.114.605.209.2.088.405.155.597.273.398.194.778.44 1.151.689l.545.393c.174.141.346.28.52.413.333.285.66.56.957.84.3.277.585.543.84.798.26.255.496.49.706.697l.54.554.476.49s-.072-.242-.246-.645c-.171-.405-.45-.966-.847-1.606a12.331 12.331 0 0 0-.695-1.002 13.183 13.183 0 0 0-.892-1.042c-.17-.17-.347-.338-.526-.508-.184-.166-.382-.324-.58-.485-.406-.31-.843-.6-1.317-.843-.228-.133-.487-.219-.734-.32-.242-.113-.51-.165-.771-.23a6.523 6.523 0 0 0-.724-.145l-.643-.124c-.42-.092-.826-.192-1.155-.323a1.801 1.801 0 0 1-.348-.17 1.91 1.91 0 0 1 .228-.195 1.985 1.985 0 0 1 1.033-.383c.199-.01.365.008.476.032l.174.039-.053-.043c.25.077.573.176.97.28.252.065.53.138.845.205.08.016.16.033.249.046.096.01.16.031.33.014a.36.36 0 0 0 .043-.01.319.319 0 0 0 .064-.021c.015-.007.024-.01.043-.021a.378.378 0 0 0 .184-.31c.013-.022-.03-.17-.024-.143l-.003-.008a.526.526 0 0 0-.033-.069l-.042-.065-.092-.127-.17-.219c-.469-.562-.935-1.231-1.572-1.832-.296-.32-.6-.658-.894-1.015-.282-.343-.587-.734-.754-1.078a.598.598 0 0 1 .35-.03c.354.064.786.339 1.177.661.397.327.78.713 1.16 1.121l.574.631.306.33c.054.056.111.114.178.175.033.031.07.064.118.1.06.038.083.079.267.142.03.009.06.015.091.02.014.007.287-.013.175-.006a.58.58 0 0 0 .364-.245c.093-.158.087-.23.098-.288.009-.104.002-.157-.002-.213-.01-.105-.026-.186-.042-.269a9.092 9.092 0 0 0-.104-.456l-.23-.864c-.158-.57-.314-1.135-.451-1.7-.133-.558-.262-1.137-.289-1.642v-.017c.033.033.067.068.1.107.315.37.586.87.831 1.359.245.495.467 1.004.682 1.511.224.514.404.999.683 1.542.043.075.072.14.177.265.01.013.032.036.057.058l.037.032c.02.015.046.033.07.047.032.017.035.023.092.044a.568.568 0 0 0 .538-.082c.047-.04.076-.064.122-.131l.007-.01a.806.806 0 0 0 .047-.084c.022-.045.022-.05.03-.072l.018-.05c.062-.224.066-.346.084-.495.027-.28.04-.538.054-.794.028-.51.054-.997.1-1.457.035-.352.083-.703.158-.99.095.237.187.5.252.749.183.675.3 1.295.394 1.803.088.51.152.914.187 1.19l.025.216a.191.191 0 0 0-.01-.002l.016.237c.02.159.048.391.22.698.09.145.215.338.47.473.267.048.613.054.908-.07.298-.117.52-.304.707-.496.185-.194.337-.403.476-.62a9.83 9.83 0 0 0 .386-.672c.119-.22.246-.473.345-.62l.006-.006a.222.222 0 0 1 .04.096c.026.103.005.27-.1.465l-.248.466c-.078.173-.169.341-.238.525a6.951 6.951 0 0 0-.541 2.424c-.03.874.112 1.77.373 2.635.267.862.632 1.704 1.064 2.521.86 1.64 1.938 3.223 3.08 4.82a137.17 137.17 0 0 0 1.77 2.404l.942 1.216c.331.395.655.8.997 1.192a43.79 43.79 0 0 0 4.46 4.45c.312.266.63.525.95.783-2.07 2.363-3.939 4.869-5.7 7.456a71.824 71.824 0 0 0-1.104 1.68l-.5-1.248-1.633-3.932-1.882-4.48c-.337-.755-.632-1.527-.958-2.273l-.924-2.206-1.653-3.918-.69-1.567c-.193-.475-.383-.883-.534-1.22-.148-.34-.283-.6-.367-.78l-.137-.273.021.305c.02.198.037.492.083.859.042.367.087.816.164 1.323.072.509.18 1.083.303 1.707.122.626.265 1.303.452 2.003.188.7.367 1.449.615 2.2.116.38.242.762.37 1.149.123.389.256.78.406 1.167.29.78.584 1.571.917 2.347.333.776.665 1.552 1.033 2.298.35.753.731 1.477 1.106 2.174.368.7.765 1.356 1.131 1.98.386.616.746 1.2 1.107 1.72.354.526.699.995 1.01 1.406l.05.068a57.688 57.688 0 0 0-1.218 2.056c-.218.398-.433.801-.64 1.221-.21.43-.411.836-.594 1.406l-.012.04-.03.108a2.42 2.42 0 0 0-.072.57c-.002.222.02.41.048.582.058.338.143.617.235.877.182.518.4.959.628 1.385.458.845.946 1.62 1.47 2.366a42.92 42.92 0 0 0 1.609 2.172c1.1 1.412 2.271 2.751 3.466 4.062 2.412 2.603 4.946 5.08 7.723 7.308-1.941-2.99-4.011-5.84-6.054-8.687a312.343 312.343 0 0 1-3.034-4.258zM67.278 125.223l-.004.003c.047-.078.08-.08.004-.003m57.452 25.311c-1.054-.764-2.33-1.7-3.824-2.724a234.189 234.189 0 0 0-5.035-3.423 264.394 264.394 0 0 0-12.953-8.03 194.15 194.15 0 0 0-3.695-2.101c-1.252-.705-2.53-1.4-3.827-2.086a187.374 187.374 0 0 0-7.958-4.008c-2.71-1.268-5.458-2.478-8.244-3.526a58.219 58.219 0 0 0-4.213-1.434c-1.42-.42-2.854-.787-4.343-1.009a15.294 15.294 0 0 0-2.3-.193l-.299.001c-.096 0-.198.001-.32.012a14.61 14.61 0 0 0-.682.063l-.497.093-.121.023-.075.02-.15.046c-.098.034-.197.062-.29.11a2.623 2.623 0 0 0-.525.322 4.146 4.146 0 0 0-.226.191 5.775 5.775 0 0 0-.182.2c-.127.139-.204.267-.292.403-.16.266-.266.517-.347.753a6.26 6.26 0 0 0-.274 1.288 12.522 12.522 0 0 0-.02 2.19c.103 1.37.305 2.637.546 3.847.244 1.209.511 2.358.798 3.451.566 2.187 1.188 4.15 1.759 5.882.56 1.733 1.117 3.22 1.573 4.444.452 1.225.853 2.172 1.113 2.82.267.648.42.989.42.989l-.803-4.02-.889-4.6c-.33-1.776-.677-3.782-1.004-5.96a73.495 73.495 0 0 1-.434-3.39c-.116-1.165-.217-2.369-.201-3.552.01-.587.047-1.17.136-1.682.047-.248.11-.48.179-.632l.295-.034c.123 0 .22.005.33.001.048-.003.117 0 .19.005l.211.01c.566.033 1.176.123 1.799.255 1.245.262 2.54.64 3.844 1.08 1.304.446 2.62.952 3.945 1.484a158.285 158.285 0 0 1 7.962 3.535c2.657 1.24 5.29 2.552 7.885 3.844l3.847 1.945c1.267.65 2.518 1.29 3.75 1.92l13.46 6.958 5.404 2.76c1.604.831 3.02 1.53 4.18 2.114 1.157.591 2.082 1.03 2.705 1.343L128 153l-.846-.657c-.559-.418-1.368-1.049-2.424-1.809"/>
        <path fill="#FEFEFE" d="M60.592 69.468l.527-.682.054-.07.073-.085.144-.17.287-.34 1.134-1.354c.38-.426.751-.853 1.115-1.28.365-.425.756-.825 1.117-1.237.359-.416.744-.79 1.101-1.178l.539-.568.54-.537c.176-.18.35-.355.522-.529.176-.167.35-.332.522-.493l.503-.483.499-.447.477-.433.47-.396c.3-.266.6-.497.879-.72.56-.445 1.066-.81 1.494-1.1.433-.277.779-.5 1.027-.626.245-.135.384-.194.384-.194s-.152.004-.43.06a8.98 8.98 0 0 0-1.194.317c-.5.176-1.112.402-1.778.73-.337.16-.69.34-1.051.546l-.56.315-.57.354a20.13 20.13 0 0 0-1.186.792l-.338.24c-.07-.182-.151-.378-.245-.605-.125-.291-.27-.618-.438-.966-.335-.703-.739-1.496-1.294-2.296-.254-.389-.53-.791-.78-1.223-.252-.431-.505-.874-.736-1.33-.238-.453-.463-.914-.686-1.368a87.364 87.364 0 0 1-.646-1.34c-.407-.876-.792-1.694-1.106-2.402L59.927 46l-.132.046s.258 1.006.721 2.493c.232.744.503 1.613.827 2.533.317.923.684 1.898 1.088 2.864.2.484.406.967.618 1.442.212.474.428.944.662 1.392.442.86.987 1.607 1.483 2.212.247.306.488.577.71.81.179.185.338.34.488.477l-.386.298c-.418.317-.834.658-1.247 1.017-.418.355-.844.722-1.253 1.116a46.693 46.693 0 0 0-2.49 2.494c-.403.438-.79.877-1.18 1.327l-.292.336-.146.168-.073.084-.085.105-.574.726-.566.732c-.185.246-.352.505-.528.757-.348.505-.694 1.01-.995 1.536a31.201 31.201 0 0 0-1.675 3.131 34.104 34.104 0 0 0-1.245 3.066c-.16.5-.334.98-.47 1.455-.129.477-.267.932-.375 1.376-.101.447-.208.87-.29 1.278-.075.41-.155.795-.213 1.161a28.28 28.28 0 0 0-.237 1.902c-.051.528-.06.947-.07 1.23-.005.285 0 .436 0 .436l.138-.411c.094-.266.23-.654.406-1.149.177-.492.41-1.082.672-1.755.27-.671.58-1.422.933-2.231.358-.808.759-1.673 1.202-2.574.222-.45.465-.906.704-1.373.242-.467.513-.93.773-1.408a50.357 50.357 0 0 1 1.75-2.849c.296-.486.65-.936.976-1.407.167-.233.326-.473.5-.7l.536-.675zM79.698 57.813l.12-.049.077-.154c.19-.38.392-.756.575-1.14l.033-.069c.157.3.313.598.478.893l.35.628.645-.418c.357-.232.733-.457 1.12-.678.393-.215.788-.428 1.19-.638.398-.211.806-.412 1.211-.619l1.224-.61 4.926-2.427.353-.174-.097-.284c-.031-.094-.06-.2-.1-.28-.04-.079-.076-.166-.119-.237a6.144 6.144 0 0 0-.263-.424 11.942 11.942 0 0 0-.592-.76 14.03 14.03 0 0 0-.64-.708c-.217-.23-.447-.451-.682-.665.303.55.603 1.097.89 1.641.144.272.277.548.398.82.06.136.118.27.163.403l.007.02c-.763.268-1.513.56-2.267.848a62.308 62.308 0 0 0-3.823 1.656 41.5 41.5 0 0 0-1.25.618 29.28 29.28 0 0 0-1.235.667l-.61.363-.187-.293c-.198-.3-.394-.6-.603-.893l-.68-.95-.347 1.018-.41 1.203c-.126.36-.236.727-.351 1.09-.85.433-1.691.882-2.536 1.325-.892.48-1.785.962-2.666 1.464.961-.34 1.912-.702 2.863-1.065.946-.372 1.896-.735 2.835-1.122"/>
        <path fill="#FEFEFE" d="M59.405 76.446v.008c-.002-.012 0-.016 0-.008m-.721 1.71c.248-.19.462-.406.672-.63.202-.23.398-.46.548-.762.036-.078.075-.158.092-.277.005-.06.013-.134-.034-.242a.428.428 0 0 0-.29-.23c-.206-.037-.301.003-.403.023-.05.014-.09.026-.139.043l-.11.04a3.499 3.499 0 0 0-.87.504 3.53 3.53 0 0 0-.673.696c-.189.259-.351.538-.434.863-.04.162-.07.34-.006.54.025.074.06.131.122.184a.41.41 0 0 0 .201.088.643.643 0 0 0 .309-.043c.327-.13.562-.326.783-.54-.29.11-.589.227-.86.26a.348.348 0 0 1-.153-.014c-.018-.014.01-.013.01-.015-.004-.085.039-.2.089-.312.233-.453.632-.873 1.062-1.21.215-.167.456-.32.691-.433l.07-.034a6.044 6.044 0 0 1-.3.699c-.122.265-.259.525-.377.802M80.112 28.004c.528-.075 1.063-.15 1.804-.373h.003a.116.116 0 0 0 .024-.011c.053-.033.073-.107.044-.167-.376-.775-1.04-1.2-1.729-1.387a2.055 2.055 0 0 0-1.05.004c-.344.094-.67.227-.99.346-.32.123-.629.266-.925.429a8.591 8.591 0 0 0-.843.562c-.532.417-1.021.878-1.43 1.43a.108.108 0 0 0-.012.106c.02.05.074.07.118.048l.004-.003a9.896 9.896 0 0 1 1.692-.703c.283-.092.567-.165.851-.219.28-.064.56-.106.837-.129.277-.024.556.009.822.053.266.042.518.048.78.014M92.348 37.994a.09.09 0 0 0 .118-.054c.235-.626.374-1.28.465-1.954.04-.337.064-.68.069-1.028a8.506 8.506 0 0 0-.074-1.054c-.05-.355-.094-.725-.188-1.096a2.336 2.336 0 0 0-.547-1.009c-.53-.57-1.318-.945-2.105-.745a.107.107 0 0 0-.023.009.12.12 0 0 0-.052.157l.002.003c.342.729.544 1.195.74 1.67.096.233.218.444.374.662.16.215.313.457.42.724.109.267.202.549.278.84.087.29.158.59.216.895.125.612.203 1.249.25 1.894v.005a.095.095 0 0 0 .057.08M77.682 30.812c-.015.039-.03.03-.017.006.004-.007.014-.016.02-.024-.001.006 0 .012-.003.018m.464-.37l.646-.379a2.42 2.42 0 0 0-.755-.057c-.255.038-.507.044-.809.287a.665.665 0 0 0-.207.339.742.742 0 0 0 .046.477c.107.227.256.345.341.427.239.207.498.344.786.415.56.13 1.21.02 1.63-.548.052-.078.083-.141.127-.257.008-.028.02-.061.035-.133a.684.684 0 0 0-.228-.657c-.225-.197-.473-.267-.719-.302.194.167.378.355.482.546.051.098.058.186.038.227a.11.11 0 0 1-.017.03c0-.008-.014.019-.034.05-.014.002-.056.045-.085.064-.279.192-.698.217-1.052.118a1.742 1.742 0 0 1-.51-.241l-.117-.087-.018-.015c.096-.099.263-.214.42-.304M90.473 36.61h.006l-.01.007c-.013.009-.032.001.004-.008m-.385-1.232c.098-.068.357-.087.626-.062-.13-.167-.374-.33-.764-.314a.96.96 0 0 0-.783.475c-.114.197-.17.388-.167.614a.84.84 0 0 0 .381.666c.266.184.614.25.908.244l.111-.006c.106-.004.042 0 .159-.013a.528.528 0 0 0 .305-.15.525.525 0 0 0 .135-.326c.014-.39-.111-.73-.279-1.066-.017.35-.02.712-.14 1.017a.39.39 0 0 1-.1.153c-.018-.001-.062-.003-.032-.005l-.072-.022c-.19-.055-.326-.13-.391-.21a.45.45 0 0 1-.104-.3c-.009-.122.027-.28.059-.415.04-.135.067-.216.148-.28M148.324 90.36l-.001-.017c.004-.002.004.005.001.016M92.56 50.54c-.915-.515-1.652-.89-2.15-1.151A1200 1200 0 0 0 89.64 49l2.618 2.006 2.986 2.312 3.838 3.03a294.753 294.753 0 0 1 4.475 3.647l2.412 2.023 2.515 2.132 5.277 4.46 2.462 2.056c-.06.165-.122.33-.18.496l-.564 1.59-1.09 3.19c-.358 1.064-.699 2.132-1.05 3.199-.192.597-.389 1.193-.583 1.789-.391-.22-.777-.426-1.165-.627-.797-.41-1.608-.807-2.397-1.192l-.15-.073-.208-.083-.414-.158c-.135-.055-.299-.076-.45-.112-.155-.026-.301-.073-.468-.076a4.057 4.057 0 0 0-1.966.318 4.732 4.732 0 0 0-1.524 1.11l-.298.329-.248.34c-.08.115-.167.23-.238.347l-.199.351c-.018.035-.032.069-.05.103-2.397-1.574-6.713-4.593-6.253-5.641.837-1.907 3.001-2.596 3.979-2.245.977.35 4.328 1.894 4.328 1.052 0-.841-2.234-2.735-3.63-2.946-1.396-.21-4.265.81-4.328.842-.698.35 1.885-2.665 3.21-3.086 1.328-.421 3.097-.702 3.12-1.052.022-.351-2.142-1.263-3.956-.632-1.815.632-4.971 3.928-4.747 3.157.224-.772.265-3.437 1.11-4.139.844-.701 4.265-2.244 3.497-2.104-.768.14-3.497-1.403-5.864 1.824-.892 1.216-.759 2.595-.659 3.086.1.491-.255.982-.67.561-.416-.42-.736-.952-1.324-2.385-.488-1.192 1.187-4.419.35-4.068-.838.35-3.42 3.577-2.094 6.243.519 1.044 3.21 3.016 2.722 3.016-.489 0-2.388-.343-3.35.07C86.325 73.96 85 76.778 85 77.55c0 .771 3.071-1.965 4.188-2.175 1.117-.21 4.398-.07 4.188.28-.21.351-2.443 1.54-3.071 2.243-.628.703-1.536 2.948-1.187 3.72.35.772 2.095-2.595 3.35-3.297 1.257-.701 2.577-1.122 3.84.14.295.295 4.083 3.49 5.86 4.986-.393 1.217-.596 2.436-.736 3.64-.213 1.885-.223 3.748-.117 5.591a47.88 47.88 0 0 0 .62 5.468c.302 1.801.668 3.587 1.12 5.346.46 1.756.939 3.507 1.52 5.22.275.86.593 1.726.89 2.582l.464 1.245.235.622.27.654.529 1.27c.179.422.38.833.57 1.25.374.837.798 1.65 1.222 2.46.872 1.61 1.79 3.191 2.82 4.697a54.028 54.028 0 0 0 3.26 4.378 57.265 57.265 0 0 0 3.648 4.028c1.267 1.29 2.615 2.493 3.986 3.658a56.981 56.981 0 0 0 4.284 3.265c1.475 1.018 2.979 1.987 4.543 2.85 1.555.873 3.148 1.68 4.802 2.329-1.484-.972-2.9-2.028-4.286-3.11a83.518 83.518 0 0 1-4.027-3.387 80.126 80.126 0 0 1-3.766-3.637 72.978 72.978 0 0 1-3.501-3.855c-.285-.325-.55-.669-.826-1.002a32.407 32.407 0 0 1-.807-1.015l-.794-1.024-.764-1.044c-.995-1.408-1.974-2.825-2.845-4.306-.454-.73-.863-1.484-1.29-2.227-.21-.373-.398-.759-.6-1.137-.194-.382-.404-.755-.58-1.146-.362-.775-.75-1.538-1.078-2.328-.168-.393-.348-.78-.506-1.178l-.466-1.194-.226-.578-.224-.625-.455-1.249c-.277-.82-.564-1.619-.823-2.45a99.063 99.063 0 0 1-1.468-4.98c-.863-3.343-1.562-6.729-1.882-10.116-.15-1.691-.233-3.385-.132-5.034.041-.827.147-1.631.278-2.418.152-.774.362-1.522.656-2.155.293-.63.67-1.134 1.039-1.34.369-.192.759-.25 1.458.016.833.311 1.641.616 2.452.938.401.161.805.319 1.192.485.09.038.179.077.266.116l-.145.465 1.237.125c.059.006.111.007.158.005.048-.003.083 0 .2-.024.124-.039.128-.017.34-.138.245-.134.45-.493.469-.68a1.101 1.101 0 0 0 0-.384l.006-.03c2.723 1.31 5.465 2.56 8.2 3.816l4.376 2.007 2.176 1.02c.727.338 1.45.678 2.17 1.027.718.348 1.433.703 2.138 1.07.706.365 1.41.73 2.088 1.125.339.197.672.4.988.611.157.106.311.214.455.325.072.056.142.111.206.167l.224.194c.6.518 1.201 1.039 1.775 1.583a35.45 35.45 0 0 1 1.663 1.678 25.38 25.38 0 0 1 1.509 1.836c.484.647.969 1.294 1.486 1.929.26.317.527.628.847.925.168.144.327.301.625.399.146.051.38.034.526-.068a.96.96 0 0 0 .288-.31.278.278 0 0 0-.072-.377.275.275 0 0 0-.385.065l-.003.003a.406.406 0 0 1-.124.124c-.025.006-.01.004-.055-.01-.086-.032-.233-.157-.355-.287-.253-.27-.488-.591-.722-.91a57.707 57.707 0 0 1-1.354-1.981 22.035 22.035 0 0 0-3.005-3.9 38 38 0 0 0-1.753-1.716l-.23-.205a6.37 6.37 0 0 0-.26-.216 10.043 10.043 0 0 0-.521-.383c-.35-.24-.702-.46-1.056-.672-1.415-.845-2.87-1.556-4.335-2.245-.732-.343-1.467-.68-2.204-1.008l-2.227-.948a137.572 137.572 0 0 0-4.49-1.792c-2.828-1.07-5.678-2.078-8.572-2.961.178-.91.345-1.821.52-2.73.204-1.105.42-2.206.616-3.313l.578-3.321.27-1.666.063-.41 2.816 2.351c1.847 1.52 3.69 3.046 5.526 4.524 1.83 1.487 3.644 2.93 5.426 4.314l1.34 1.023.708.515.647.448 2.562 1.837c1.679 1.2 3.292 2.314 4.855 3.268.787.475 1.538.924 2.371 1.272.213.085.43.163.694.22.135.026.277.053.478.041.05-.004.118-.013.153-.02l.072-.016.144-.033 1.09-.25c.695-.15 1.346-.26 1.918-.265.284-.003.548.021.754.088a.776.776 0 0 1 .245.129c.045.028.083.093.097.098a.527.527 0 0 1-.071.138 1.824 1.824 0 0 1-.198.243 4.407 4.407 0 0 1-.458.415 6.45 6.45 0 0 1-.826.558c-.237.132-.427.21-.555.247-.128.038-.19.04-.19.04a.113.113 0 0 0-.008.225l.007.001s.089.009.244-.013c.156-.02.376-.076.648-.178a5.677 5.677 0 0 0 1.531-.866c.098-.08.198-.17.296-.282.093-.117.21-.233.258-.504a.705.705 0 0 0-.02-.231l-.003-.013c-.008-.023.015.034-.02-.054l-.015-.033-.032-.064a1.07 1.07 0 0 0-.167-.24 1.507 1.507 0 0 0-.454-.338 3.111 3.111 0 0 0-1.014-.266c-.688-.07-1.398-.02-2.14.056l-1.129.134-.142.017-.073.008c-.013 0 .006-.006.008-.005.004-.005-.05-.016-.107-.038a3.277 3.277 0 0 1-.437-.206c-.643-.354-1.338-.848-2.039-1.372a67.375 67.375 0 0 1-2.169-1.715l-2.304-1.892a234.823 234.823 0 0 0-2.459-2.014 31.8 31.8 0 0 0-.662-.52l-.6-.482-1.26-1.065-5.26-4.475c-1.795-1.525-3.637-3.054-5.476-4.586-1.85-1.52-3.7-3.041-5.542-4.514a242.478 242.478 0 0 0-2.744-2.181 211.136 211.136 0 0 0-2.7-2.105c-.888-.687-1.77-1.358-2.636-2.008-.875-.642-1.727-1.296-2.567-1.883a119.85 119.85 0 0 0-4.818-3.277 115.156 115.156 0 0 0-4.17-2.607c-1.252-.76-2.367-1.381-3.285-1.894M55.343 162.887c-.56-.004-1.125.01-1.688.023-.566.04-1.131.06-1.7.119-.57.064-1.149.121-1.669.193-.51.062-1.037.114-1.543.14a14.01 14.01 0 0 1-1.471.005c-.458-.029-.901-.102-1.16-.208-.128-.05-.195-.105-.204-.111-.009-.01-.007.019-.024-.036a.988.988 0 0 1 .013-.343c.01-.078.04-.173.061-.263l.049-.145.012-.036.005-.019.001-.002.01-.018.085-.18a.082.082 0 0 0 .03-.03c-.01-.008.081-.102.125-.164a3.61 3.61 0 0 1 .442-.425 8.63 8.63 0 0 1 1.207-.794c.878-.509 1.852-.94 2.837-1.358.301-.13.606-.252.913-.374l4.256 4.041c-.196-.006-.391-.012-.587-.015zm12.161-7.628c-.39.033-.783.078-1.184.097-.398.032-.803.047-1.208.068-.405.02-.812.042-1.22.053-.41.01-.82.026-1.231.043-.17.005-.34.013-.51.019-.06-.94-.313-1.865-.575-2.77-.187-.608-.4-1.207-.628-1.801a6.312 6.312 0 0 0 .677.301c.172.073.348.123.524.183.177.061.355.1.534.15.18.05.36.082.541.12.363.074.728.12 1.096.157.734.068 1.473.074 2.204.014.368-.019.73-.08 1.094-.125l.014-.002c-.018.468-.02.939.006 1.416l.021.328c.01.12.023.211.039.333a5.97 5.97 0 0 0 .318 1.295l.02.052-.532.069zm6.255 5.97a7.103 7.103 0 0 0-.348-.862l-.2-.403-.195-.36a57.961 57.961 0 0 1-.746-1.385 39.276 39.276 0 0 1-.696-1.398c-.214-.467-.44-.962-.612-1.406l-.384-.999-1.125.41c-.053.02-.104.04-.154.066l-.075.041-.116.033c-.157.041-.299.098-.488.124-.078.012-.154.028-.231.044l.005-.028.12-.622c.04-.203.087-.408.131-.598l.15-.595c.105-.4.205-.804.304-1.208.095-.403.187-.813.273-1.212l.231-1.077-1.211.128c-.34.035-.677.079-1.015.122-.337.03-.674.079-1.01.11-.169.016-.338.029-.506.051-.168.023-.337.029-.505.044-.169.012-.338.04-.507.046-.169.01-.337.024-.507.04l-.509.033c-.17.017-.34.022-.51.031-.342.023-.685.036-1.03.05a48.47 48.47 0 0 1-1.534.028 54.475 54.475 0 0 0-.313-.774c-.831-2.016-1.827-3.956-2.854-5.876-1.036-1.916-2.167-3.778-3.331-5.621a102.148 102.148 0 0 0-3.678-5.41 110.745 110.745 0 0 0-4.014-5.179c-1.376-1.68-2.768-3.34-4.145-4.99-2.744-3.31-5.395-6.62-7.479-10.23-2.1-3.595-3.62-7.49-4.654-11.557-.264-1.015-.5-2.04-.71-3.073a65.837 65.837 0 0 1-.297-1.554c-.092-.517-.18-1.02-.251-1.537-.29-2.056-.415-4.155-.44-6.264-.001-.229.002-.458.003-.687 1.424-1.668 10.868-12.702 12.178-13.568 1.416-.937 3.877 1.716 4.043 2.544.352 1.757.177 3.674 0 4.684-.226 1.29 3.895-2.532 2.789-4.64-.854-1.625-3.851-2.444-3.616-3.147.236-.703 2.2.278 4.678 1.215 2.479.937 2.204 3.41 2.877 2.942.673-.468-.118-3.396-1.18-4.862-1.063-1.466-4.486-.642-5.194-.993-.708-.351.708-.586 3.069-1.054 2.361-.468 3.541 1.522 3.895 1.522.354 0 .354-1.17-.944-2.342-1.299-1.17-2.951-1.873-4.293-1.522s-3.16 1.786-3.16 1.786 2.259-4.01 2.731-5.416c.473-1.405.827-1.874-.472-1.269-1.298.606-3.733 6.48-3.969 5.543-.236-.937.664-3.47-1.574-4.918-1.004-.65-4.49-.176-4.372.175.118.352 4.372 1.537 4.603 4.567.091 1.191-.416 2.978-1.18 2.108-2.39-2.723-5.43-.936-6.492 0-1.063.937-1.77 2.108-.708 1.757 1.062-.352 6.86-1.493 7.333-.44.426.952-9.058 9.41-10.914 11.052.028-.463.057-.927.092-1.391.15-2.124.384-4.249.686-6.368.565-4.247 1.374-8.474 2.33-12.69-1.654 4.006-2.881 8.177-3.9 12.405a92.199 92.199 0 0 0-1.23 6.42 62.938 62.938 0 0 0-.648 6.543c-.101 2.2-.067 4.418.156 6.643.055.554.122 1.117.206 1.664.08.54.168 1.089.262 1.63.187 1.086.403 2.17.65 3.249.51 2.154 1.14 4.295 1.95 6.38a42.29 42.29 0 0 0 2.914 6.041c2.26 3.874 5.09 7.307 7.965 10.56 1.435 1.636 2.891 3.231 4.326 4.838a130.542 130.542 0 0 1 4.174 4.881c2.702 3.322 5.286 6.756 7.658 10.332 1.2 1.78 2.321 3.61 3.376 5.476a37.723 37.723 0 0 1 1.458 2.866c.378.844.734 1.705.933 2.614-.22.007-.438.013-.659.023-.413.013-.828.036-1.245.06l-.032.244c.399.13.801.245 1.206.348.404.108.81.202 1.22.287.408.087.817.176 1.23.238.413.072.828.132 1.244.194l.628.072c.21.023.42.046.633.058.422.034.852.055 1.284.061.218.001.44-.007.66-.01.217.002.454-.032.68-.052.113-.007.233-.025.355-.048.088.23.178.456.277.685.222.523.461 1.039.73 1.541.264.497.57 1.007.874 1.454l.428.649c.124.203.26.412.362.61.11.2.185.388.245.56.037.155.078.299.064.377-.018.082-.022.187-.16.298-.112.116-.303.223-.511.317a3.814 3.814 0 0 1-.696.225c-.117.026-.263.067-.359.081l-.408.062c-.53.07-1.04.093-1.593.1-2.178.015-4.364-.236-6.552-.497-1.095-.135-2.193-.281-3.3-.387-.638-.07-1.28-.12-1.923-.154-.22-.842-.623-2.035-1.263-2.719-.97-1.036-1.91-1.549-2.68-1.799.32-.123.64-.25.964-.367.751-.285 1.512-.557 2.274-.833.254.194.652.498 1.044.792-.1.707-.185 1.443-.128 1.746l.181-1.707c.296.222.584.433.8.585l-.798-.598.14-1.336c-.04.305-.12.79-.192 1.296l-1.042-.78c.272-.098.543-.196.815-.296l-.044-.242c-1.118.02-2.222.136-3.327.277-.551.079-1.102.165-1.653.263-.549.105-1.097.22-1.645.351-.55.125-1.093.281-1.638.454-.545.172-1.092.357-1.634.593-.54.239-1.082.504-1.623.859-.27.181-.54.382-.806.633-.137.142-.25.233-.408.455-.073.098-.143.2-.21.301l-.104.183-.05.089-.049.104-.006.014-.012.03-.025.058-.097.237c-.058.17-.119.333-.163.521a3.334 3.334 0 0 0-.092 1.275c.056.484.287 1.03.646 1.426.355.404.774.632 1.149.792.759.307 1.423.368 2.056.396.632.029 1.229-.016 1.813-.08a24.87 24.87 0 0 0 1.72-.253l1.584-.295c.517-.092 1.046-.147 1.57-.223.532-.047 1.06-.12 1.595-.162 1.07-.09 2.147-.185 3.233-.26a70.163 70.163 0 0 1 3.272-.156c2.192-.051 4.377.067 6.582.238l.837.059c.283.012.585.036.857.039l.413.007c.177.002.301-.015.456-.022.147-.009.295-.018.448-.045.153-.025.302-.03.46-.074.314-.07.64-.162.976-.362.335-.17.67-.53.857-.944.197-.434.194-.854.174-1.233a5.051 5.051 0 0 0-.232-.997zM155.054 165.736c-.107.369-.26.72-.456 1.042l-.073.122-.069.096-.065.098-.116.143-.113.138-.002.003-.022.021-.043.044c-.055.06-.112.118-.174.166-.468.413-1.09.623-1.858.612-.759-.01-1.6-.212-2.41-.538a13.717 13.717 0 0 1-2.67-1.47l6.31-6.701c.933 1.15 1.633 2.487 1.872 3.875.136.802.104 1.612-.111 2.349m2.788-2.839a9.646 9.646 0 0 0-1.239-3.154 12.248 12.248 0 0 0-1.986-2.497c-1.471-1.45-3.167-2.494-4.778-3.28-.777-.38-1.533-.752-2.263-1.11-.729-.358-1.433-.709-2.103-1.054a178.544 178.544 0 0 1-3.636-1.927c-1.069-.599-2-1.127-2.755-1.585-.751-.462-1.347-.825-1.742-1.088l-.614-.397s.173.187.512.523c.34.333.838.828 1.512 1.412.127.111.265.23.404.348-.163.57-.298 1.126-.444 1.665-.173.639-.358 1.268-.627 1.785-.138.261-.278.462-.482.623a5.246 5.246 0 0 1-.765.52 7.536 7.536 0 0 1-1.866.714c.68.263 1.453.253 2.177.048a3.884 3.884 0 0 0 1.038-.475c.082-.051.162-.11.258-.195.084-.074.159-.152.23-.233.137-.163.246-.338.342-.512.365-.708.483-1.441.515-2.156a6.523 6.523 0 0 0-.134-1.577c.539.456 1.152.955 1.851 1.48.99.753 2.129 1.576 3.407 2.415.636.426 1.304.857 2 1.302.7.445 1.428.881 2.17 1.33 1.417.836 2.777 1.83 3.93 3.072-.947.336-2.264 1.04-3.618 2.535-1.27 1.402-2.131 3.242-2.608 4.457a18.342 18.342 0 0 1-1.343-1.101c-.168-.15-.32-.296-.473-.443l-.478-.48c-.338-.34-.67-.687-1.008-1.001a72.906 72.906 0 0 0-1.987-1.839 115.024 115.024 0 0 0-3.748-3.194c-1.167-.976-2.267-1.834-3.242-2.595-.971-.764-1.839-1.406-2.55-1.936-.71-.535-1.285-.933-1.67-1.212l-.33-.23c.22-.193.474-.428.748-.707.393-.4.82-.883 1.244-1.42.212-.269.425-.544.63-.838l.303-.43c.094-.123.178-.252.279-.374.19-.252.401-.492.61-.737.112-.116.218-.237.323-.358a8.77 8.77 0 0 0 .33-.349l.65-.665.608-.61.526-.534.412-.433c.23-.243.364-.397.364-.397s-.05-.004-.144-.003c-.093.006-.234.003-.403.027a6.52 6.52 0 0 0-1.386.304c-.278.092-.573.21-.878.352a8.375 8.375 0 0 0-.929.52c-.31.205-.62.439-.916.705-.145.137-.293.277-.432.424-.138.15-.268.312-.402.47-.128.163-.24.344-.357.515-.124.178-.19.32-.286.482-.18.313-.342.637-.49.949a13.812 13.812 0 0 0-.705 1.775c-.17.539-.274 1.01-.33 1.347-.033.166-.042.305-.056.396l-.012.144.118-.084c.071-.058.187-.136.314-.247.065-.053.137-.112.213-.177l.277.303c.326.346.793.866 1.406 1.506.61.643 1.343 1.433 2.202 2.315a370.87 370.87 0 0 0 2.869 2.979l3.368 3.524c.588.63 1.198 1.268 1.794 1.935.306.33.586.672.89 1.008l.479.542c.175.19.352.38.528.557.705.723 1.49 1.395 2.341 2.012.854.616 1.78 1.174 2.808 1.61 1.024.434 2.152.78 3.413.806a5.967 5.967 0 0 0 1.943-.268 5.105 5.105 0 0 0 2.176-1.372l.088-.093.044-.047.05-.06.015-.018.119-.148.12-.152.151-.213.148-.214.122-.203a7.09 7.09 0 0 0 .737-1.722c.343-1.199.329-2.444.109-3.592"/>
        <path fill="#FEFEFE" d="M146.814 155c-.535.446-.966 1.036-1.312 1.667a9.641 9.641 0 0 0-.72 1.694c-.47.304-.923.64-1.347 1.013a9.583 9.583 0 0 0-1.435 1.53 98.256 98.256 0 0 1 1.663-1.185c.299-.204.598-.404.9-.6-.141.56-.25 1.127-.316 1.7a10.778 10.778 0 0 0-.06 2.181c.145-.71.289-1.41.444-2.103.16-.692.326-1.38.528-2.052.011-.039.025-.077.037-.116.052-.032.104-.066.157-.097.57-.342 1.158-.647 1.761-.913a10.628 10.628 0 0 1 1.886-.623c-.67-.079-1.358.023-2.011.22-.539.159-1.056.39-1.554.659.127-.375.263-.746.414-1.11.27-.644.584-1.264.965-1.865M143.126 153c-.469.38-.846.893-1.148 1.445-.26.468-.46.97-.625 1.483-.397.265-.783.55-1.139.876-.445.406-.865.85-1.214 1.362l1.441-1.013c.234-.16.467-.318.702-.472-.11.462-.194.931-.243 1.405a8.99 8.99 0 0 0-.026 1.914l.407-1.834c.143-.604.286-1.204.46-1.79l.026-.088.123-.077c.488-.3.989-.566 1.502-.804a9.848 9.848 0 0 1 1.608-.573c-.576-.084-1.17-.002-1.732.165-.44.127-.86.313-1.267.53.1-.297.207-.592.322-.884.226-.563.488-1.108.803-1.645M57 157.307a3.01 3.01 0 0 0 .032-.307l-.032.307zM58.094 159.086A5.126 5.126 0 0 1 58 159l1 1s-.375-.434-.906-.914M60.04 157.433A2.55 2.55 0 0 0 60 157l.04.433zM58 157s1.01.587 1.936 1.062c.02.716.06 1.576.248 1.938l-.196-1.91c.456.232.886.435 1.157.522 1.07.345 1.855.7 1.855.7l-3.03-1.4-.055-.54c.007.148.011.327.016.521L58 157zM148.608 97.628v0zm0 .004zm-2.585 1.208a.21.21 0 0 1 .007.037.24.24 0 0 1 .002.04c-.007-.024-.015-.05-.02-.073-.003-.015-.013-.076.011-.004zm2.532-5.757a3.778 3.778 0 0 0-.387.059s.133.027.375.095c.242.064.594.176 1.036.318.44.147.973.338 1.544.582.09.04.182.084.273.128-.013.001-.026.003-.04.003-.39.023-.82.018-1.27.009l-.7-.014a8.98 8.98 0 0 0-.382.001l-.217.01-.13.015-.083.014-.04.008a1.275 1.275 0 0 0-.204.067l-.07.033-.02.011-.01.005c-.186.125-.147.118-.222.196a.768.768 0 0 0-.023.911c.02.029.04.057.062.084.132.147.195.182.265.238.133.096.244.164.357.233.224.136.44.258.658.382.86.49 1.748.983 2.501 1.565.027.021.051.043.078.065-.87-.27-1.764-.645-2.666-.997-.25-.097-.494-.193-.785-.284-.077-.022-.154-.045-.262-.067-.032-.005-.052-.01-.096-.016a1.04 1.04 0 0 0-.144-.01l-.044.002-.08.007-.079.014a.812.812 0 0 0-.138.047c-.057.027-.087.04-.158.091a.78.78 0 0 0-.253.334c-.059.183-.03.108-.038.13-.005.087.01-.176-.013.197.015.117.048.239.094.349.036.075.054.099.084.15.057.1.102.157.147.219.36.473.687.817 1.002 1.196.197.233.386.465.554.691-.352-.18-.695-.373-1.021-.568a7.731 7.731 0 0 1-.484-.302 2.328 2.328 0 0 0-.471-.28l-.952-.417a55.188 55.188 0 0 0-.35-.154l-.124-.037a.55.55 0 0 0-.38.07c-.122.08-.15.136-.178.182a.562.562 0 0 0-.069.32l.013.066c.042.146.063.154.09.208.098.157.187.273.28.389.18.227.35.427.502.607.614.718.993 1.104.993 1.104l-.325-.906c.06.036.122.073.187.106.17.093.339.197.514.301.35.208.722.42 1.126.626.205.102.416.204.65.3.246.09.46.196.9.229a.95.95 0 0 0 .198-.007c.082-.013.144-.015.267-.066.193-.053.48-.32.536-.548l.03-.09c.01-.068-.006.085.025-.162v-.011l.001-.043.002-.087v-.043l-.009-.092a2.32 2.32 0 0 0-.079-.379l-.046-.114-.096-.222c-.069-.122-.138-.259-.212-.37a9.176 9.176 0 0 0-.58-.797c.566.22 1.148.437 1.772.617.282.075.562.15.928.179.188.002.387.036.748-.11a.992.992 0 0 0 .58-1.004l-.007-.06-.004-.03-.01-.059a1.785 1.785 0 0 0-.246-.59 2.902 2.902 0 0 0-.321-.416 5.588 5.588 0 0 0-.67-.607 16.29 16.29 0 0 0-1.743-1.146c.148-.002.296-.003.445-.012.234-.014.47-.035.719-.08.25-.052.513-.096.86-.321.04-.024.092-.07.135-.109a.883.883 0 0 0 .133-.144c.043-.058.083-.11.116-.185a1.32 1.32 0 0 0 .046-.108l.02-.055c0 .012.047-.214.027-.122l.001-.01.005-.035.003-.018.003-.044c.005-.119-.009-.249-.04-.361a1.605 1.605 0 0 0-.091-.208c-.035-.065-.067-.103-.104-.155a1.407 1.407 0 0 0-.732-.502c-.432-.134-.795-.174-1.14-.213a13.186 13.186 0 0 0-1.743-.051c-.477.01-.851.049-1.104.075z"/>
    </g>
</svg>
