<?xml version="1.0" encoding="UTF-8"?>
<svg width="203px" height="268px" viewBox="0 0 203 268" version="1.1" xmlns="http://www.w3.org/2000/svg" xmlns:xlink="http://www.w3.org/1999/xlink">
    <!-- Generator: sketchtool 50.2 (55047) - http://www.bohemiancoding.com/sketch -->
    <title>6E03C8AC-6DB2-4CFF-9742-FE7CEE0561F7</title>
    <desc>Created with sketchtool.</desc>
    <defs>
        <polygon id="path-1" points="0.0106173963 0.261813309 45.9697238 0.261813309 45.9697238 28 0.0106173963 28"></polygon>
    </defs>
    <g id="Page-1" stroke="none" stroke-width="1" fill="none" fill-rule="evenodd">
        <g id="бронирование1920-" transform="translate(-700.000000, -2912.000000)">
            <g id="Page-1" transform="translate(700.000000, 2912.000000)">
                <path d="M61.8845069,103.954676 C59.7498361,103.000064 57.8605725,103.630759 56.0388555,104.801658 C54.3705604,105.87384 53.0070729,107.270281 51.8370601,108.865528 C51.6452825,109.126718 51.5383623,109.451321 51.3924077,109.746445 C51.4331392,109.824939 51.4742102,109.903433 51.5149417,109.981927 C51.9419437,109.876354 52.3957607,109.832137 52.7908564,109.654583 C54.7269612,108.786349 56.6498282,107.887951 58.5723558,106.98921 C59.853362,106.39005 60.9395358,106.655011 61.8383446,107.723765 C62.385844,108.375026 62.9618556,109.014976 63.4163514,109.730678 C64.2462561,111.038342 64.0938523,112.224665 62.9319858,113.259485 C59.3476123,116.451008 55.7730823,119.658298 51.6361179,122.137204 C50.0312962,123.099015 48.4526105,124.104699 46.8620448,125.090503 C45.9567868,125.651616 45.7775681,126.270657 46.262952,127.155687 C46.7154113,127.980732 47.612523,128.270029 48.4342813,127.712344 C51.2953309,125.769528 54.221551,123.904522 56.9352883,121.766671 C59.6941696,119.593172 62.2337797,117.135518 64.8629991,114.794748 C65.7621473,113.994382 66.7285026,113.376712 67.9921979,113.616308 C68.3614969,113.686233 68.84145,113.795233 69.0379796,114.061565 C70.7565101,116.390681 72.4519595,118.738992 74.0825779,121.131177 C74.4868382,121.724853 74.5771264,122.527961 74.9158768,123.179565 C75.0713354,123.479145 75.4776323,123.646074 75.7702204,123.872987 C75.9348436,123.549413 76.2365963,123.228238 76.242706,122.90158 C76.2878501,120.487457 76.0237741,118.099385 75.1225893,115.849448 C74.7933428,115.026803 74.1952684,114.29739 73.6447141,113.584773 C72.8178643,112.514648 71.9244864,111.496967 70.9319951,110.303102 C72.2656128,109.879782 73.3728312,109.999751 74.4702061,110.100868 C77.4649909,110.376455 79.8589858,112.025859 82.2797956,113.613223 C83.0370624,114.109895 83.7841463,114.642901 84.5984372,115.022347 C84.9755431,115.197844 85.5026768,115.045655 85.9619247,115.04257 C85.9493658,114.588401 86.0892107,114.052996 85.9001486,113.693431 C84.5563479,111.132946 82.8093053,108.871013 80.2873456,107.429326 C79.296212,106.862729 78.0372687,106.748929 76.8849062,106.502136 C75.932807,106.298531 74.9579661,106.202898 73.8096767,106.032199 C74.0947973,105.680861 74.2468617,105.45669 74.4342266,105.26851 C76.2698603,103.423384 77.6153581,101.271479 78.4466205,98.7922307 C79.6339442,95.2510833 78.1862782,91.271877 75.0058256,89.3465431 C74.8120115,89.229316 74.6178579,89.0939223 74.4050357,89.0339377 C74.2047724,88.9777235 73.9797308,89.0099438 73.7655509,89.0030885 C73.7587623,89.242684 73.6637221,89.5275251 73.7587623,89.7139915 C74.7804445,91.7209045 74.876503,93.8854912 74.8232126,96.0641315 C74.7631336,98.5190437 73.3548415,100.2442 71.645136,101.780834 C71.5629942,101.85453 71.4536979,101.904231 71.3491537,101.943307 C71.2744792,101.970728 71.1862276,101.961816 70.9727266,101.980326 C71.0440067,101.645098 71.11936,101.361628 71.1631464,101.073702 C71.3522086,99.8369908 71.6784001,98.5999372 71.6841704,97.362198 C71.6960504,94.9254526 70.2300553,93.4155548 68.1653068,92.4677983 C66.2753644,91.6002498 64.3114265,90.9650987 62.1804893,91.1995527 C61.9842992,91.2214899 61.7582392,91.1923546 61.5987075,91.2821601 C61.3478692,91.4233809 61.1418356,91.6454953 60.9171334,91.8333328 C61.106535,92.0204847 61.2640302,92.2799609 61.4911084,92.3824488 C62.6254811,92.8952314 63.7934574,93.3332903 64.9213809,93.859098 C68.1948372,95.3857915 68.5142401,98.6900855 67.477623,101.423669 C67.2440957,102.039968 66.9253716,101.959074 66.5503022,101.540553 C65.7173427,100.610621 64.9213809,99.6405841 64.0269847,98.7744067 C62.7324014,97.5212429 61.2032723,96.9697274 59.3656021,97.3231224 C58.2329265,97.5411235 57.0601982,97.5394097 55.9153032,97.7053099 C55.6118534,97.7491843 55.345062,98.0473934 55.0612991,98.2290611 C55.3358974,98.3980462 55.5911482,98.6441544 55.8891671,98.7216202 C56.8185246,98.9629297 57.7617986,99.1521382 58.7040544,99.3389473 C59.908689,99.5775146 60.974497,100.037168 61.6710059,101.127859 C62.2880884,102.094468 62.9034737,103.062105 63.5198773,104.028714 C63.432644,104.113721 63.3454107,104.198727 63.2581773,104.283734 C62.7985901,104.178161 62.3074359,104.143884 61.8845069,103.954676" id="Fill-1" fill="#FEFEFE"></path>
                <g id="Group-5" transform="translate(18.000000, 240.000000)">
                    <mask id="mask-2" fill="white">
                        <use xlink:href="#path-1"></use>
                    </mask>
                    <g id="Clip-4"></g>
                    <path d="M22.3692207,24.7044337 C19.3097096,25.7144578 16.1438874,26.2295904 12.9453541,26.4421205 C10.6286578,26.5956145 8.2853837,26.6141687 5.96970963,26.4606747 C3.13440593,26.2727711 2.04608,24.4919036 3.2897837,22.0697349 C4.65342815,19.4131084 6.52954667,17.1319518 9.16483556,15.5531566 C9.81462815,15.1635181 10.37208,15.1453012 11.0644652,15.5093012 C14.8180652,17.4838072 18.2377393,19.9275663 21.4638726,22.6493012 C22.0380207,23.1337349 22.5641244,23.6738313 23.2595763,24.3259277 C22.8234281,24.5128193 22.6026281,24.6275181 22.3692207,24.7044337 M43.5772652,1.10110843 C43.3976948,0.473301205 43.235843,0.110650602 42.3645689,0.322506024 C39.4137541,1.04072289 36.415917,1.50862651 33.3574281,1.43677108 C33.1942133,1.43306024 33.0272504,1.4860241 32.8664207,1.52886747 C32.830643,1.5386506 32.8132652,1.61691566 32.7376207,1.75387952 C33.9983615,2.10404819 35.2349096,2.45151807 36.4735022,2.79089157 C37.9751467,3.20212048 39.482243,3.59412048 40.9777541,4.02660241 C41.2237689,4.09744578 41.5280504,4.28298795 41.6265244,4.49653012 C42.9625689,7.3899759 44.1503911,10.310747 44.211043,13.5837108 C44.2430726,15.2903614 43.5864652,16.4356627 42.0902726,17.1373494 C39.942243,18.1446747 37.8105689,19.2015904 35.6042726,20.0675663 C32.1021393,21.4429398 28.540717,22.6688675 25.0126874,23.9794699 C24.2783911,24.2523855 23.8950578,24.1009157 23.5989541,23.3398554 C22.4009096,20.2581687 20.3240948,17.9395663 17.3572652,16.3803373 C16.3517393,15.8520482 15.4477541,15.1341687 14.3774874,14.4230361 C15.55168,14.1116627 16.5497096,13.9217349 17.4935615,13.5823614 C20.4494874,12.5203855 22.4537244,10.3053494 24.3080356,7.9266988 C25.6083022,6.25918072 26.9041393,4.58795181 28.21088,2.92515663 C28.414643,2.66573494 28.6661096,2.44274699 29.0266133,2.06592771 C29.5455615,3.37416867 30.0099911,4.54544578 30.5664207,5.94780723 C29.5169393,5.67286747 28.6862133,5.45527711 27.8551467,5.2373494 C27.8115319,5.32607229 27.7675763,5.41445783 27.7239615,5.50318072 C28.911443,6.33946988 30.1105096,7.16024096 31.2806133,8.02014458 C31.6796207,8.3133012 32.0595467,8.66448193 32.3546281,9.05816867 C33.2851911,10.2982651 34.1677096,11.5737831 35.0778281,12.8293976 C35.2665985,13.0898313 35.4948948,13.3222651 35.7047911,13.5678554 C35.8032652,13.5118554 35.9017393,13.4558554 36.0002133,13.4001928 C35.394717,12.1678554 34.78888,10.9358554 34.1244356,9.58409639 C35.4908059,9.78987952 36.7805096,9.98419277 38.0705541,10.178506 C38.1049689,10.1005783 38.1393837,10.0226506 38.1741393,9.94506024 C37.6074874,9.31151807 36.8479763,8.93368675 36.0605244,8.60375904 C35.6696948,8.44014458 35.2587615,8.32342169 34.8590726,8.17971084 C33.3710578,7.6433253 32.2029985,6.78274699 31.4509837,5.32944578 C30.8989837,4.26274699 30.0672356,3.33975904 29.4794578,2.28756627 C29.2804652,1.93098795 29.4481096,1.37368675 29.4481096,0.847084337 C29.1008948,1.02925301 28.5413985,1.24751807 28.0701541,1.58587952 C27.2217096,2.19546988 26.3701985,2.81956627 25.617843,3.53845783 C23.2602578,5.79228916 20.435517,7.33296386 17.5828356,8.84226506 C13.9103319,10.7857349 10.15128,12.5895422 6.59905778,14.729012 C3.32351704,16.7018313 1.14073185,19.6944578 0.15530963,23.4032771 C-0.289016296,25.0755181 0.290242963,26.2285783 1.88968,26.9130602 C3.12009481,27.4393253 4.47385778,27.9386024 5.78502815,27.9716627 C8.6683763,28.0441928 11.5793244,27.9892048 14.4429096,27.6690602 C19.325043,27.1228916 24.090643,25.9708434 28.6974578,24.2436145 C31.1852059,23.3108434 33.6487615,22.3143133 36.142643,21.398747 C37.4401837,20.9220723 38.8017837,20.614747 40.0938726,20.1259277 C41.1205244,19.7373012 42.0848207,19.1870843 43.07808,18.7114217 C44.1381244,18.2040482 44.7241985,17.3562892 45.0983319,16.2578795 C46.3065985,12.7116627 46.259917,9.21840964 44.9484059,5.70221687 C44.3902726,4.20539759 44.0175022,2.64009639 43.5772652,1.10110843" id="Fill-3" fill="#FEFEFE" mask="url(#mask-2)"></path>
                </g>
                <path d="M52.8815428,255.259502 C52.9209114,255.171979 52.9602799,255.084804 53,254.99728 C52.5416374,254.693912 52.1184253,254.302671 51.6175305,254.10461 C50.4287403,253.63526 49.1910909,253.287956 47.9980827,252.826975 C47.5154662,252.640421 47.0180865,252.36181 46.666933,251.993933 C45.7523167,251.034661 44.9150316,250.002859 44.0471656,249 C43.9487442,249.06974 43.8506743,249.139131 43.7526043,249.208522 C44.3213396,250.291931 44.8904263,251.37534 45.5006391,252.537904 C44.3027098,252.876142 42.9835112,252.567892 42,253.794267 C43.3409919,253.960248 44.5034192,254.171909 45.6735796,254.22526 C46.4468908,254.260478 46.9013868,254.548853 47.2525404,255.205454 C47.813191,256.253644 48.4364095,257.269056 49.0402953,258.294581 C49.192497,258.552619 49.3710615,258.795313 49.644181,259 C50.094459,257.431899 49.1510194,256.201688 48.6669969,254.649278 C49.4009395,254.74796 50.0849684,254.834089 50.7672397,254.932771 C51.4730619,255.035288 52.1767751,255.150359 52.8815428,255.259502" id="Fill-6" fill="#FEFEFE"></path>
                <path d="M101.115213,250.916876 C101.191521,250.944477 101.268169,250.972078 101.344477,251 C101.495397,250.79203 101.725,250.602033 101.783333,250.37288 C102.021415,249.441508 102.311047,248.505001 102.379215,247.557582 C102.435174,246.782188 102.650533,246.233378 103.392248,245.877133 C103.602859,245.776036 103.756492,245.569029 104,245.353998 C103.333576,244.973041 102.425678,245.896068 102.250339,245 C101.57001,245.321262 100.965649,245.699652 100.301599,245.901204 C98.8832849,246.331586 97.6511628,246.924365 97,248.530035 C97.3954457,248.418347 97.6426841,248.369564 97.872626,248.280021 C98.680814,247.964536 99.479845,247.627227 100.28905,247.313346 C100.900533,247.076491 101.165407,247.229901 101.129118,247.908692 C101.075533,248.909067 101.115213,249.913934 101.115213,250.916876" id="Fill-8" fill="#FEFEFE"></path>
                <path d="M105.910775,111.989871 C106.178214,112.03841 106.630729,111.908381 106.749026,111.688005 C107.132217,110.974793 107.064164,110.144662 106.629775,109.514712 C105.860213,108.398658 104.989209,107.369054 104.141736,106.321735 C104.00913,106.158048 103.777943,106.000383 103.592231,106.000029 C103.061487,105.998257 102.530744,106.079392 102,106.127932 C102.043566,106.653009 101.975514,107.233002 102.156774,107.690761 C102.425803,108.371377 102.871004,108.965543 103.241476,109.596556 C103.295218,109.56148 103.349278,109.526758 103.40302,109.492036 C103.277092,108.891848 103.151163,108.292013 102.973083,107.445584 C104.529379,108.306185 105.326607,109.496642 105.840497,111.061598 C105.587686,111.161511 105.377806,111.244064 105.035319,111.378699 C105.371446,111.627419 105.622348,111.937434 105.910775,111.989871" id="Fill-10" fill="#FEFEFE"></path>
                <path d="M92.2850444,48.7584754 C90.2296458,49.809369 88.1135583,50.2020766 85.8286582,50.0518058 C84.9151865,49.9916975 83.9950878,50.0247571 83.0781282,50.0154069 C83.0519692,50.0888726 83.0258102,50.1630062 83,50.2368058 C83.2253161,50.4231416 83.4199389,50.6896217 83.6818775,50.7824556 C84.8712394,51.2035477 86.0574621,51.8056326 87.285888,51.9134936 C89.2952468,52.0901452 91.336694,51.9485568 93.3638409,51.9054791 C93.8207512,51.895795 94.2856835,51.7769142 94.7268984,51.6463456 C99.5530567,50.2177715 100.510476,47.8838996 99.7825582,44.0830511 C99.1373032,40.7139806 98.2873106,37.3742964 96.591162,34.3328162 C94.8981526,31.2970128 93.0248205,28.3537095 91.2257799,25.3720036 C91.1434663,25.2354242 91.0154617,25.123556 90.908733,25 C90.8490905,25.0320578 90.7897968,25.0637816 90.7305031,25.0955054 C91.1926452,26.5244134 91.5731712,27.9833755 92.1340199,29.3758846 C93.3073375,32.2911374 93.7670381,35.3282765 94.0673432,38.409495 C94.2689418,40.480894 94.6477239,42.5409391 94.7575916,44.6153435 C94.8531591,46.4215981 94.0994316,47.8308039 92.2850444,48.7584754" id="Fill-12" fill="#FEFEFE"></path>
                <path d="M81.6898382,19.8457645 C80.5670927,18.2105682 79.1861022,16.9808187 77.1422498,17.0002265 C74.3384005,17.0266917 71.8356694,17.9741458 69.675925,19.8732883 C69.418015,20.0998304 69.2237452,20.4071796 69,20.6771246 C69.0445481,20.7847497 69.0890962,20.892022 69.1336442,21 C69.7928218,20.8330928 70.4556838,20.6827705 71.1098372,20.4971613 C73.1168453,19.928336 75.1191642,20.0232578 77.153973,20.3740099 C78.7014325,20.6404262 80.2800423,20.705707 82,20.87579 C81.8559724,20.3785972 81.8385551,20.0620734 81.6898382,19.8457645" id="Fill-14" fill="#FEFEFE"></path>
                <path d="M108.427388,29.6621403 C108.802388,30.1330363 109.235683,30.5555549 109.642728,31 C109.761705,30.936309 109.880682,30.8722699 110,30.8082308 C109.714318,29.8076204 109.614091,28.6914612 109.100683,27.8328504 C108.253183,26.4145939 107.195003,25.1125822 106.120117,23.8558155 C105.151936,22.7239945 103.769892,22.2283878 102.363644,22.0056433 C101.95728,21.9412562 101.393417,22.4413874 101.033418,22.8148326 C100.91785,22.9349058 101.12069,23.6052278 101.356258,23.8077862 C102.413075,24.7175586 103.45012,25.7098161 104.653528,26.370045 C106.17364,27.2042931 107.364775,28.3281091 108.427388,29.6621403" id="Fill-16" fill="#FEFEFE"></path>
                <path d="M74.6916698,23.3480587 L74.5972272,23.1619896 C74.0100275,23.1982653 73.3115204,23.111016 73.0677482,23.834653 C72.8331749,24.5310831 73.2416084,25.0946068 73.7730011,25.5127151 C74.4819337,26.0709225 75.2521926,26.1612989 76.0623136,25.7228637 C76.6446072,25.4076407 77.024524,24.9692056 76.9987669,24.249634 C76.9733165,23.5400696 76.4511226,23.3277318 75.7927843,23 C76.1956984,23.9616178 75.605739,24.2846588 75.0344841,24.6302158 C74.5021714,24.9520059 74.1657964,24.5836203 73.8444463,24.2621429 C73.788946,24.2064785 73.8932008,23.8831247 74.0072678,23.7758614 C74.2001391,23.5944831 74.4598562,23.4865942 74.6916698,23.3480587" id="Fill-18" fill="#FEFEFE"></path>
                <path d="M100.082143,31.4614993 C100.491132,32.4989671 102.316066,33.2637965 103.353743,32.9141509 C103.999499,32.6968921 104.188478,32.272533 103.796866,31.673515 C103.545205,31.2884787 103.135285,31.0181341 102.796426,30.6963421 C102.728468,30.7549987 102.660821,30.813983 102.592863,30.8726396 C102.645616,31.1141474 102.698368,31.3556553 102.751121,31.5974908 C102.21025,31.8871691 101.188089,31.7370869 100.977699,31.2432574 C100.870642,30.9915912 101.047518,30.6049165 101.096237,30.2791922 C101.120131,30.1858005 101.144025,30.0930641 101.167919,30 C100.81882,30.1028948 100.336908,30.0966687 100.157859,30.339815 C99.9719833,30.5911535 99.9549163,31.1390519 100.082143,31.4614993" id="Fill-20" fill="#FEFEFE"></path>
                <path d="M67.3980799,45.9204021 C67.2105569,46.6309171 67.0560049,47.3887776 67.0120435,48.1926593 C66.9715165,48.9945546 67.0274987,49.8451197 67.2685997,50.6970093 C67.2984798,50.8032885 67.3383198,50.9082434 67.373695,51.0141916 L67.4289903,51.1724517 L67.4427282,51.2121822 L67.4499407,51.2320475 L67.4533752,51.2419802 C67.4420413,51.2184729 67.4729517,51.2850216 67.470891,51.2807175 L67.49768,51.3456107 C67.5732388,51.5217496 67.6299078,51.6839827 67.7168004,51.873034 L68.0087318,52.4650194 C68.1110796,52.6487732 68.2069018,52.8371623 68.3174923,53.016612 C68.7492074,53.7403705 69.2753709,54.4151279 69.8873966,54.9634097 C70.4997658,55.5106982 71.1863198,55.9282002 71.8701263,56.2228686 C72.5529025,56.5221722 73.226749,56.7142032 73.8511389,56.8350504 C75.1064441,57.0691296 76.159458,57.0184731 76.880357,56.9015991 C77.2406348,56.8506115 77.5205455,56.7757856 77.7097858,56.7221493 C77.8986826,56.6668576 78,56.6254716 78,56.6254716 L78,56.3606012 C78,56.3606012 77.6393788,56.2023411 77.00812,55.9248894 C76.3933467,55.6431334 75.5374723,55.2637065 74.6077565,54.7607838 C74.1413531,54.5137921 73.6594944,54.2303808 73.1810703,53.9145228 C72.70402,53.5953539 72.2245655,53.2579752 71.7440806,52.8937784 C71.2625655,52.5318992 70.7714337,52.1382355 70.3359407,51.6614687 C70.2260371,51.5432703 70.1288411,51.414477 70.0220285,51.2899879 C69.9210546,51.1664921 69.8427483,51.0429963 69.7503605,50.9175139 C69.6590032,50.778788 69.5604334,50.6009937 69.4680456,50.4433958 L69.4330139,50.3824756 C69.4302663,50.3775093 69.4374787,50.3927393 69.4426304,50.4036653 L69.4405697,50.39903 L69.4343877,50.3864487 L69.422367,50.361286 L69.3735972,50.259642 C69.3416565,50.1917689 69.3049075,50.1258824 69.2757143,50.0553606 C68.8038157,48.9220463 68.7680971,47.5059828 68.9216187,46.1958674 C69.0837265,44.8784681 69.4003862,43.6339082 69.7355922,42.5860145 C70.0642727,41.5334857 70.4114994,40.6719946 70.6563784,40.0694144 C70.9060656,39.4674963 71.0692038,39.1337596 71.0692038,39.1337596 L70.8322242,39 C70.8322242,39 70.60177,39.3055943 70.2346233,39.8601667 C69.8654159,40.4144081 69.3705062,41.226236 68.8443427,42.2453249 C68.332604,43.2690491 67.7758736,44.498379 67.3980799,45.9204021" id="Fill-22" fill="#FEFEFE"></path>
                <path d="M201.280402,52.9048736 C201.282444,52.9018156 201.281423,52.9116689 201.278701,52.9235609 C201.278361,52.9147269 201.278361,52.9065724 201.280402,52.9048736 M189.304592,64.9585135 C190.354325,65.2391626 188.825491,66.3512261 188.570969,66.4922301 C187.240853,67.228849 185.55005,67.4558146 184.074979,67.7184559 C183.042599,67.9022709 181.887041,68.0558464 180.8533,67.805097 C179.928786,67.58017 181.258902,66.4942688 181.699893,66.2098822 C182.550228,65.9343297 183.52238,65.5993176 184.529239,65.3220662 C184.927696,65.2422205 185.311861,65.1589771 185.667443,65.0889848 C186.023706,65.0186526 186.411274,64.9415251 186.810411,64.8508068 C187.688308,64.746158 188.540005,64.7536329 189.304592,64.9585135 M182.894922,72.4728415 C182.380433,72.4667257 180.713449,72.485413 180.835946,71.6281762 C180.900938,71.1752643 181.405559,70.8171479 181.814223,70.6017345 C182.747244,70.430491 186.778085,69.6826597 187.169736,70.6384295 C187.977878,72.6107877 183.865372,72.4837142 182.894922,72.4728415 M184.074979,63.6650135 C183.042599,63.8488284 181.887041,64.002404 180.8533,63.7513148 C179.928786,63.5270673 181.258902,62.4408263 181.699893,62.1564398 C183.930364,61.4330719 187.008448,60.2900894 189.304592,60.9047313 C190.354325,61.1860599 188.825491,62.2981234 188.570969,62.4387877 C187.240853,63.1754066 185.55005,63.4023722 184.074979,63.6650135 M114.46624,257.30642 C116.034545,255.346293 117.615441,253.39568 119.223217,251.467832 C119.813586,250.760433 120.530536,250.657483 121.419321,251.064526 C123.53342,252.031848 125.644116,252.975726 127.215825,254.781598 C127.85213,255.51244 128.056292,256.32143 127.661919,257.210265 C127.284559,258.060367 126.499216,258.210545 125.669637,258.213943 C124.481073,258.218699 123.292509,258.214962 122.103605,258.214962 L122.100883,258.306699 C119.699936,258.204769 117.298989,258.10046 114.897702,258.003626 C114.387297,257.9829 114.05145,257.824907 114.46624,257.30642 M147.921268,111.048499 C147.740584,110.926522 147.541526,110.824591 147.381939,110.67917 C144.302494,107.875737 141.221687,105.073663 138.160957,102.249844 C137.8377,101.951867 137.576713,101.548901 137.392626,101.145935 C136.858742,99.9781498 137.240866,99.3050677 138.51824,99.2772066 C139.616292,99.2537626 140.717747,99.4355389 141.818181,99.4430138 C143.112909,99.4521876 143.724034,100.218027 144.172511,101.287279 C145.201828,103.74075 146.272658,106.176893 147.305379,108.628665 C147.618427,109.371739 147.86172,110.144034 148.136999,110.902738 C148.064862,110.951325 147.993065,110.999912 147.921268,111.048499 M135.076067,97.4074586 C134.227773,95.5006758 133.809241,93.4885646 133.609162,90.7670161 C133.475095,89.6532538 134.766081,88.7905806 135.875362,87.8467028 C135.98731,87.7515675 136.513368,87.9262087 136.649476,88.1164792 C137.025135,88.6421017 137.277955,89.2530061 137.61142,89.8109065 C138.409354,91.1455186 139.229405,92.4668797 140.032103,93.7984338 C140.323034,94.2812454 140.333242,94.6291687 139.625139,94.7236244 C138.689737,94.8479798 138.051049,95.4405367 137.540304,96.1934645 C137.222832,96.661666 136.924074,97.1461764 136.567471,97.5831191 C135.933548,98.3601705 135.477245,98.3098847 135.076067,97.4074586 M202.804813,52.1335983 C202.78916,52.1009805 202.761258,52.0568105 202.73812,52.0194359 L202.678232,51.9300767 L202.643525,51.8821693 C202.530215,51.737088 202.442425,51.6769489 202.368246,51.628362 C202.277734,51.5702615 202.238943,51.5580298 202.169869,51.5264313 C202.122911,51.5087633 202.069829,51.4900761 202.027976,51.4785239 C201.94461,51.4554196 201.875535,51.4421686 201.810203,51.431296 C201.563847,51.394601 201.37806,51.3932419 201.192953,51.3932419 C200.47192,51.4037748 199.827108,51.4846397 199.163921,51.5689024 C198.505499,51.656223 197.849798,51.7601923 197.191035,51.8712967 C194.559725,52.3228495 191.879076,52.889584 189.162359,53.5123803 C186.445301,54.1378947 183.703744,54.8235483 180.968992,55.6512252 C180.371137,55.8347004 179.773963,56.0283687 179.170664,56.2448014 C179.16522,56.1095734 179.163859,55.9709477 179.157053,55.836739 C179.119283,55.1211858 179.063479,54.416845 178.997126,53.7159018 C178.859657,52.3153746 178.695306,50.9321756 178.450312,49.561548 C178.326794,48.8752149 178.190686,48.1939784 178.003877,47.4981318 C177.90656,47.1474903 177.8055,46.8005863 177.635705,46.4067942 C177.59181,46.3075817 177.542131,46.2036124 177.476799,46.0891103 C177.409085,45.9742684 177.331163,45.845496 177.17668,45.6830865 C177.131765,45.6389166 177.089912,45.5988238 177.027302,45.5505767 C177.00008,45.5288315 176.967074,45.5050476 176.927603,45.4802445 C176.891874,45.4581595 176.859208,45.4360746 176.778564,45.3983602 C176.711531,45.366422 176.616596,45.335503 176.632929,45.3412791 C176.686691,45.3558891 176.528806,45.3113794 176.523362,45.3120589 L176.416177,45.2926921 C176.273263,45.2641515 176.128308,45.2563368 175.982672,45.2559971 C175.396046,45.2641515 174.901974,45.4870399 174.528017,45.7265769 C174.152699,45.9729094 173.860747,46.249821 173.601802,46.529111 C173.087994,47.0904091 172.707571,47.6724332 172.357774,48.2520788 C171.67349,49.4154474 171.138926,50.5767774 170.673436,51.7228177 C169.751304,54.015578 169.052048,56.2162608 168.445687,58.2545342 C168.143187,59.273501 167.868248,60.2540739 167.623594,61.1853804 C167.562005,61.4154039 167.500756,61.6427092 167.440529,61.8669567 C167.411606,61.9688874 167.382683,62.0701385 167.3541,62.1707101 C167.319052,62.2746793 167.284004,62.3779691 167.249637,62.4805792 C167.105703,62.9056301 166.966192,63.3184492 166.831105,63.7183572 C166.553104,64.516814 166.305387,65.2901279 166.071281,65.9924301 C165.833773,66.6957517 165.62927,67.3474283 165.446885,67.9379466 C165.071567,69.1138866 164.805476,70.0499498 164.624112,70.6883755 C164.449894,71.3298591 164.357,71.6720064 164.357,71.6720064 C164.357,71.6720064 164.5336,71.3645155 164.864343,70.787588 C165.18794,70.2079424 165.658533,69.3558021 166.223042,68.2566498 C166.511931,67.7099617 166.821237,67.0997369 167.145514,66.4303922 C167.469111,65.7576499 167.841707,65.0509306 168.194227,64.2555318 C168.37423,63.858342 168.560018,63.4485807 168.750909,63.0265878 C168.799908,62.9158232 168.844484,62.8251049 168.897566,62.6959927 L168.961877,62.5077608 L169.018021,62.3334593 C169.088457,62.1081926 169.159914,61.8798679 169.232392,61.6484853 C169.518899,60.7358662 169.820379,59.7766987 170.134788,58.7753999 C170.779941,56.7857134 171.521389,54.641772 172.458494,52.4692899 C172.93249,51.3898442 173.43643,50.2869545 174.05368,49.2686673 C174.361625,48.7644503 174.697812,48.2728047 175.064964,47.881391 C175.246668,47.6867035 175.437219,47.5188577 175.610757,47.4077532 C175.69004,47.358147 175.760476,47.3251894 175.822745,47.3020851 C175.903389,47.5079851 175.981311,47.7624719 176.049365,48.0206963 C176.20657,48.6190292 176.33247,49.2625514 176.444759,49.9118497 C176.664234,51.215203 176.849341,52.5586491 176.985789,53.9129678 C177.054183,54.5897873 177.112369,55.2706841 177.152521,55.9471639 C177.171917,56.2848942 177.187229,56.6222846 177.193013,56.9515206 C177.194715,57.0582081 177.193013,57.1601387 177.192333,57.2634285 C177.161368,57.2984247 177.129043,57.3381776 177.099779,57.3796294 C177.061329,57.436031 177.026962,57.4965099 176.997358,57.5580081 C176.959588,57.6415912 176.926242,57.7421628 176.907867,57.8508888 C176.867375,57.980001 176.920457,58.2630284 176.939172,58.3289436 C176.933047,58.3143335 176.933387,58.3153528 176.939172,58.3296231 C176.942234,58.3394764 176.943936,58.3438934 176.944616,58.3421946 C176.969456,58.4013144 177.027982,58.5402798 177.026281,58.5358628 C177.045676,58.5728976 177.072558,58.619446 177.103863,58.6683727 L177.166132,58.7567126 C177.200159,58.7991837 177.222277,58.8277243 177.272637,58.8786896 C177.321295,58.9269368 177.378801,58.9812998 177.492792,59.0512922 C177.600317,59.1127903 177.775896,59.2021496 178.038245,59.2021496 C178.292767,59.2035086 178.539463,59.0954621 178.67489,58.9833384 C178.798068,58.8871838 178.87599,58.7842339 178.915121,58.7247743 C178.969905,58.6415309 178.980453,58.6136699 179.010056,58.5545501 C179.02673,58.516496 179.043403,58.4750442 179.054972,58.4420866 C179.059396,58.4291754 179.060757,58.4220403 179.0645,58.4101483 C179.235315,58.3353992 179.421783,58.2606501 179.60689,58.1903179 C180.231286,57.9555376 180.889709,57.7411435 181.550514,57.5359231 C184.205302,56.7238755 186.927124,56.0253107 189.602668,55.3624217 C192.282296,54.710745 194.935383,54.1134314 197.503743,53.637755 C198.145493,53.5205347 198.781798,53.4111292 199.407895,53.3197313 C200.009153,53.2330903 200.619597,53.155623 201.157224,53.137955 C201.073518,53.2483799 200.955444,53.3737546 200.82444,53.4909748 C200.634569,53.6622183 200.414414,53.827346 200.186093,53.9849988 C199.258857,54.6139109 198.21729,55.1286607 197.206347,55.5941441 C196.19064,56.0606467 195.179697,56.4636126 194.207886,56.8509491 C192.259158,57.6161085 190.43565,58.2440014 188.81086,58.769284 C188.4335,58.8926201 188.06805,59.0098404 187.712467,59.1223039 C185.487781,59.2371457 183.215116,59.8867838 181.110885,60.5629238 C181.109183,60.5636034 181.108163,60.5642829 181.106461,60.5646227 C181.041129,60.5843293 180.974777,60.6101517 180.907403,60.6485456 C179.099888,61.6804236 177.852457,64.2307286 180.124782,65.2751781 C178.739542,66.5380989 178.147471,68.6256388 180.401081,69.4431227 C180.42456,69.4516169 180.448719,69.4573929 180.472198,69.4652076 C179.214899,70.4797574 178.34653,72.5108957 180.052644,73.5135536 C180.797156,73.9511758 181.802314,74.2077013 182.871443,74.2878868 C182.567241,74.4931072 182.257936,74.6908526 181.942505,74.8773857 C181.095232,75.373788 180.207808,75.7984991 179.295543,76.1562757 C178.381918,76.5113342 177.444473,76.8018365 176.493078,77.0271033 C176.01738,77.139227 175.537939,77.2364009 175.056797,77.3125091 C174.816226,77.3515826 174.574974,77.3842004 174.334403,77.4130807 C174.096214,77.4409418 173.846796,77.4650654 173.623239,77.475938 L173.371098,77.4885094 L173.270038,77.7328032 C172.802847,78.8618551 172.444543,80.0221658 172.133876,81.188932 C171.82491,82.3567176 171.565965,83.5329974 171.331519,84.7113158 C170.866369,87.0689719 170.487308,89.4354619 170.144996,91.8012725 L169.128269,98.8810361 C168.786638,101.232916 168.431736,103.578341 167.98394,105.888769 C167.762084,107.047041 167.514708,108.17949 167.21527,109.335044 C166.933526,110.465116 166.593596,111.597905 166.242437,112.709629 C165.884813,113.822032 165.502009,114.919825 165.106615,116.00063 C164.715304,117.083133 164.303237,118.14593 163.869393,119.181886 C163.432826,120.215802 162.953385,121.216761 162.396363,122.125303 C161.835598,123.02637 161.192147,123.844194 160.430282,124.380009 C160.052241,124.652164 159.641535,124.850589 159.19442,124.943686 C158.749687,125.045616 158.259017,125.062265 157.754056,124.959995 C157.435904,124.902234 157.114688,124.803701 156.794834,124.679006 C155.874063,121.640453 154.772268,118.657622 153.529261,115.714544 C153.441812,115.507285 153.367973,115.293231 153.304683,115.077478 C153.292093,115.035346 153.297537,114.984721 153.307405,114.913709 L152.197444,112.047759 C152.114758,112.001211 152.032412,111.954322 151.949727,111.907774 C151.647907,111.345457 151.320227,110.795371 151.048691,110.219123 C149.897897,107.776864 148.683133,105.370621 147.415626,102.992919 C147.957336,102.566849 148.596023,102.046663 149.319438,101.440175 C150.065991,100.804468 150.907479,100.087555 151.795584,99.256141 C152.017781,99.0468433 152.24338,98.8334685 152.474423,98.6051438 C152.594879,98.4824873 152.695939,98.3883713 152.83545,98.2381935 L152.866074,98.202178 C152.74664,99.0176232 152.666676,99.7233231 152.618698,100.284961 C152.539075,101.203696 152.535672,101.735774 152.535672,101.735774 C152.535672,101.735774 152.598282,101.619233 152.716356,101.400082 C152.826943,101.179912 153.003544,100.861889 153.207366,100.451448 C153.619092,99.6322651 154.188365,98.4604023 154.830114,97.0493422 C155.145204,96.3433026 155.486836,95.5781431 155.847862,94.7691534 C156.195619,93.9571059 156.568895,93.1046258 156.939109,92.2188484 C157.302518,91.3300131 157.703356,90.42317 158.070167,89.4871068 C158.459436,88.5602174 158.836116,87.6119225 159.21926,86.6670253 C159.599342,85.7214486 159.979083,84.7758718 160.35304,83.8452449 C160.746052,82.9244713 161.074073,81.9884081 161.446328,81.1107852 C162.151368,79.328018 162.809791,77.6641699 163.373959,76.2378202 C163.66489,75.526684 163.923836,74.8661734 164.144671,74.2732767 C164.365166,73.6800403 164.589064,73.1799005 164.74729,72.7490736 C164.914363,72.3240228 165.029714,71.9774586 165.116143,71.7453964 C165.196106,71.5092571 165.23898,71.3832028 165.23898,71.3832028 C165.23898,71.3832028 165.144725,71.4759597 164.968465,71.6495816 C164.79799,71.8276205 164.537003,72.0827869 164.225315,72.4235751 C163.914989,72.764703 163.522317,73.1737847 163.123861,73.6752835 C162.725744,74.1774619 162.286456,74.7526906 161.815522,75.3890776 C161.348331,76.0275033 160.896792,76.7484928 160.406463,77.5088955 C159.910689,78.2672596 159.465615,79.103091 158.985494,79.9627062 C158.86742,80.1784594 158.744243,80.3938729 158.629231,80.6154022 C158.518643,80.8382906 158.407375,81.0632175 158.295086,81.2891638 C158.068126,81.7403769 157.844908,82.2000841 157.626795,82.6665868 C157.177298,83.5944955 156.792112,84.5652151 156.379365,85.5254019 C156.003026,86.4995192 155.626687,87.4732968 155.293903,88.4450357 C155.125809,88.9302256 154.969285,89.4150758 154.817524,89.8948294 C154.661,90.3728842 154.512982,90.8472015 154.385381,91.31982 C153.888246,93.0210427 153.510206,94.6427594 153.229483,96.0796419 C153.21315,96.0385299 153.196477,95.9980974 153.179463,95.9573251 C153.017154,95.5764442 152.829666,95.2624978 152.637073,94.93598 C151.856493,93.6717 150.896931,92.5389107 149.82508,91.409519 C148.765818,90.3314324 147.658579,89.2577628 146.517653,88.1674446 C145.385234,87.07169 144.23512,85.9586072 143.085007,84.8455245 C140.79703,82.607467 138.508713,80.3694095 136.363649,78.2713369 C135.289416,77.2238295 134.251252,76.2109785 133.26651,75.2507917 C132.277004,74.2957015 131.341261,73.3922561 130.477315,72.5588031 C127.027655,69.2188752 124.707012,67.0124163 124.707012,67.0124163 L124.561036,67.1551192 C124.561036,67.1551192 126.707461,69.5318023 129.957722,73.0664177 C130.768926,73.9511758 131.647844,74.9100036 132.577463,75.9242136 C133.512185,76.9329873 134.497948,77.9971434 135.517738,79.0976547 C137.560039,81.296299 139.73879,83.6410439 141.91754,85.9861285 C143.00062,87.1644469 144.08404,88.3427653 145.150107,89.5027362 C146.206646,90.6688229 147.265907,91.8124849 148.296586,92.8864942 C149.292897,93.9272062 150.236806,94.9971383 150.986762,96.0184835 C151.162341,96.2716113 151.340303,96.5311947 151.455654,96.7581603 C151.497848,96.8386855 151.536298,96.9212494 151.560458,96.9803692 C151.554673,96.9868248 151.549229,96.9926008 151.543104,97.0000758 C151.515542,97.0330333 151.489681,97.0676898 151.465182,97.1037053 C151.398149,97.1951031 151.283478,97.3310106 151.196369,97.4410957 C151.006157,97.6731579 150.809141,97.9035211 150.616548,98.1274288 C149.833586,99.0305344 149.115956,99.8588909 148.479991,100.592792 C147.930795,101.230198 147.448292,101.794894 147.036565,102.2862 C144.884696,98.2939156 142.582088,94.3845351 140.157322,90.5403903 C135.563674,83.2574448 130.853994,76.0519667 125.695157,69.1549987 C121.477167,63.5155152 116.77055,58.318071 111.164598,53.9928134 C111.074766,53.9235006 110.989359,53.8490912 110.899187,53.7801181 C110.365984,53.3723955 109.787864,53.1049974 109.562946,53.0085031 C111.415717,49.8897647 112.643412,46.411551 113.249433,42.5840548 C113.721388,39.605641 115.1216,37.4029195 117.743722,35.8810948 C121.011337,33.9841653 121.66908,28.2274615 118.952362,25.7658362 C118.047924,24.9459739 116.918227,24.6347456 115.730003,24.700321 C115.014415,24.7397342 114.69388,24.4057414 114.309035,23.8906518 C111.940414,20.7199289 109.724574,17.4061632 107.089862,14.4688615 C102.357724,9.19394996 96.5619012,5.28117181 90.0157826,2.55860396 C84.9406523,0.447959824 79.589903,-0.324334786 74.1261841,0.121781722 C68.407943,0.5889639 63.6387156,3.07369355 59.6994072,7.27765361 C57.5073864,9.61696218 55.6546151,12.1472209 54.2217372,14.9985611 C54.0927748,15.2550866 54.0189361,15.5391334 53.9192369,15.8102689 C53.992395,15.8687091 54.0655531,15.9271494 54.1387112,15.9859294 C54.3748588,15.7990565 54.647075,15.6434424 54.8417095,15.420554 C57.0248833,12.920195 59.3982681,10.6291336 61.9400866,8.48315351 C65.5445691,5.43984386 69.7101571,3.90850563 74.327624,3.40598749 C79.3173466,2.86269709 84.1396562,3.72435091 88.894252,5.14458473 C95.0589276,6.98579216 100.465481,10.2220905 105.262951,14.4134791 C108.911669,17.6015303 111.793077,21.4130573 112.962926,26.2595203 C113.148373,27.0273979 113.351855,27.2890199 114.203551,26.9526488 C115.800779,26.3220378 118.267739,27.4419159 118.792095,28.9171923 C119.468552,30.8209172 118.471901,33.2475464 116.58204,33.7079332 C114.024569,34.3307295 112.692751,36.0438441 111.956407,38.3328669 C111.11696,40.9422917 110.343526,43.5795775 109.689867,46.240987 C108.905544,49.4348142 107.303552,52.1543242 105.180606,54.5979418 C102.150499,58.0860089 98.7661717,61.1717896 94.5917366,63.2525341 C90.5850547,65.2496954 86.3571972,66.543875 81.8574638,66.7837518 C76.2324567,67.0837677 70.830667,66.0828087 65.7558769,63.6476853 C62.1330198,61.9094278 58.9776941,59.4882349 56.129292,56.6304391 C53.8297459,54.3234085 51.8030964,51.8206711 50.9105676,48.6971761 C50.1306683,45.9691719 49.6692619,43.1222487 49.3531508,40.2963911 C48.8046352,35.394206 48.8056561,30.4624611 49.3109573,25.5507625 C49.4569333,24.132907 49.4198438,23.0052142 48.3619437,21.7925792 C46.8480815,20.0567001 47.5017406,18.3133461 49.2017306,16.843506 C49.532133,16.5581002 50.2732415,16.5706716 50.7676542,16.6878919 C51.6625648,16.8999076 52.5146015,17.2940395 53.3856932,17.6127427 C53.4700803,17.3827192 53.5153362,17.3076302 53.5007046,17.2926804 C52.3311958,16.1286323 51.0892095,15.0474878 49.4678219,14.5786068 C48.4568791,14.2860658 47.62696,14.7196109 47.0131125,15.532338 C45.141286,18.0109518 44.9374642,20.7841452 45.9405808,23.5855394 C46.6786269,25.6458978 46.9926963,27.6393216 46.6241837,29.8107844 C45.8337359,34.4676563 45.7806538,39.1523893 46.4901172,43.8289679 C46.5309496,44.0967057 46.8875528,46.0391643 46.9926963,46.2892342 C47.62696,47.7981477 48.1622051,49.3695786 48.9781731,50.7769012 C50.861909,54.025771 53.4316297,56.6820839 56.5314914,58.8124347 C56.6114549,58.8674772 56.6744049,58.9194619 56.7288482,58.970767 L56.7315703,58.9670295 L58.5159474,60.2758191 C58.5166279,60.2724215 58.5173085,60.2693635 58.517989,60.2659658 C61.282004,62.0585863 64.2188763,63.5250287 67.2676975,64.6571385 C67.1993032,65.0397183 66.98119,65.9611714 66.9131359,66.1103299 C66.2111584,67.6511817 66.179173,67.6766644 64.6755189,66.9750417 C64.6496584,66.96281 64.6231173,66.9529567 64.5982776,66.9397057 C60.2877344,64.6812621 55.9744691,62.4282548 51.6751548,60.1484058 C51.4342435,60.0206527 51.1075841,59.602737 51.1644092,59.4389684 C51.5397273,58.3588433 52.0093002,57.3113359 52.4482488,56.2529559 L52.107298,55.9311948 C52.0341399,56.1211256 51.9109621,56.3141143 51.7176886,56.5234119 C50.6067063,57.7299311 49.6250267,59.0543501 48.565085,60.3091165 C48.157101,60.7922678 48.2309397,61.0426774 48.7957882,61.3236663 C54.601819,64.21408 60.0148377,67.7133594 65.0025186,71.8595588 C65.5074796,72.2791733 65.8150839,72.2258296 66.1131606,71.6441453 C66.5350957,70.8208854 67.0029673,70.0214092 67.4514434,69.2117401 C67.5385526,69.2083424 67.626002,69.2052845 67.7131112,69.201547 C67.9342868,69.8746291 68.2020795,70.5368386 68.3640481,71.2238512 C68.5477941,72.0009026 68.9448894,72.4884709 69.6975671,72.8224637 C75.4450715,75.3710699 81.1759025,77.9573904 86.9142196,80.5270623 C87.1816719,80.6466609 87.4698808,80.7207305 87.8377129,80.6317111 C87.1473047,80.2090386 86.4708475,79.7615631 85.7641062,79.367771 C80.7665575,76.5826856 75.7690087,73.7969208 70.7537659,71.0437737 C70.0936417,70.6815801 69.7295525,70.2276489 69.5995693,69.4981652 C69.4607391,68.719415 69.2286748,67.9583328 69.0544564,67.1853586 C69.0051172,66.9658679 68.6366046,65.6434875 68.5151281,65.1012164 C75.1344047,67.3392739 82.2389067,68.016773 89.2433692,67.0151344 C91.7763408,66.3831643 95.4818835,65.1596567 98.2761825,63.7360252 C95.6788999,67.1693895 93.0714092,70.5949391 90.4819528,74.0340794 C90.0021718,74.671146 89.6622419,74.7703586 88.9422301,74.2195932 C86.2840391,72.1857369 83.493483,70.3448692 80.3456432,69.1210218 C80.1887786,69.0598634 80.0308932,69.0007436 79.8696052,68.9541953 C79.8233284,68.9409443 79.7634408,68.9745814 79.5429457,69.0248672 C79.8107384,69.2429988 79.9992481,69.408806 80.1996673,69.5583043 C88.7275196,75.9289704 96.2342209,83.3124874 102.32778,92.0574582 C105.071379,95.9950395 107.192283,100.302289 109.122976,104.682589 C111.085655,109.1356 112.884323,113.660642 114.759893,118.152046 C114.871842,118.419784 115.026324,118.670194 115.161071,118.928418 C115.257368,118.899877 115.353664,118.870997 115.450301,118.842456 C115.27302,117.898579 115.136232,116.944508 114.911994,116.011842 C113.444408,109.913331 111.431029,104.014604 108.664632,98.3645875 C104.727366,90.3236177 99.4729129,83.3060318 92.7481525,77.3875981 C92.2595245,76.9574507 91.7630702,76.5347782 91.2530052,76.1297737 C90.9008255,75.850144 90.8831314,75.6177421 91.2312279,75.315008 C95.3270605,71.7484543 98.0226812,67.1989494 100.443704,62.4503398 C100.71558,62.2658453 101.120161,62.0035438 101.120161,62.0035438 C101.120161,62.0035438 102.008607,61.3471103 102.625176,60.8588625 C105.493314,58.5871679 107.789117,55.9791022 109.534703,53.0543719 C109.649715,53.1919783 109.877696,53.4617547 110.04715,53.6401334 C113.676813,57.4557376 117.409917,61.1782452 120.924909,65.0961199 C126.008206,70.7614258 130.495689,76.8728482 133.957599,83.6862331 C134.058999,83.8860172 134.150872,84.0908978 134.303653,84.4116396 C133.74595,84.5370143 133.247455,84.6736014 132.740112,84.7575243 C131.613817,84.9433779 131.137439,85.6762593 130.932256,86.7224076 C130.556938,88.6349665 130.896528,90.4985987 131.230673,92.3676672 C131.275248,92.6170575 131.298046,92.8705251 131.318803,93.1229733 C131.322546,93.1647649 131.264019,93.2113132 131.160577,93.3659081 C130.841064,92.9921623 130.535501,92.6476367 130.24423,92.2912192 C128.164498,89.7500879 126.097697,87.1987636 123.99959,84.6732616 C123.694708,84.306651 123.24317,84.0620175 122.859685,83.7606425 C122.76509,83.8122874 122.670495,83.8635925 122.5759,83.9152373 C122.642933,84.2937398 122.617753,84.7221884 122.791971,85.0429302 C124.302771,87.8246178 125.843515,90.590676 127.389703,93.3533366 C127.783736,94.0576775 128.228469,94.7334777 128.649723,95.422529 L128.509192,95.5937725 C128.233913,95.4986372 127.955232,95.4130154 127.684036,95.3073473 C125.76185,94.5574774 123.86076,93.7474685 121.913053,93.0699694 C120.545167,92.594293 119.225599,92.9180927 118.489595,94.2054769 C117.442583,96.0364913 116.574554,97.9707954 115.668414,99.8789373 C115.577903,100.069548 115.749739,100.384513 115.799759,100.641718 C116.033184,100.581919 116.320032,100.589054 116.491188,100.452127 C117.6396,99.5306742 118.783588,98.6010666 119.888105,97.6279686 C120.533938,97.0591955 121.284915,96.7374344 122.074001,96.9460525 C123.788963,97.3989644 125.47228,97.9745328 127.157298,98.5341321 C127.393446,98.6126187 127.565963,98.882735 127.929712,99.2089131 C127.456736,99.3638477 127.167166,99.5024734 126.862964,99.5507206 C125.185432,99.8181187 123.505178,100.069208 121.824243,100.314181 C120.174273,100.554398 119.205183,101.428623 118.878864,103.117614 C118.327966,105.969294 118.410312,108.803306 118.892134,111.642075 C118.927523,111.851033 119.140872,112.029751 119.271195,112.22274 C119.449837,112.06033 119.698915,111.930878 119.794871,111.729056 C120.257299,110.759355 120.708497,109.78184 121.107294,108.784619 C121.875283,106.864925 123.17988,105.435177 124.960173,104.411454 C126.06401,103.776426 127.152534,103.113197 128.26828,102.500594 C128.634071,102.29979 129.056687,102.159806 129.468754,102.102045 C129.745393,102.063311 130.049255,102.217566 130.340866,102.28552 C130.26941,102.567868 130.279958,102.91715 130.112545,103.121351 C129.161149,104.281322 128.181171,105.418529 127.18452,106.540445 C125.302145,108.659584 125.086414,110.714166 126.623414,113.121089 C128.07909,115.400258 129.807323,117.457559 131.951365,119.135337 C132.199082,119.329005 132.500902,119.453701 132.777541,119.610334 C132.848998,119.564465 132.920455,119.518936 132.991912,119.473067 C132.87588,118.94065 132.769035,118.406533 132.642454,117.876833 C132.000704,115.184845 131.257895,112.511883 130.740344,109.79645 C130.362644,107.814579 131.225569,105.996136 132.150423,104.305446 C132.80102,103.115915 134.469365,102.684069 135.573542,103.487283 C137.328315,104.764134 139.058589,106.127626 140.565646,107.68037 C143.977536,111.195619 147.289046,114.811099 150.537605,118.477545 C151.170848,119.192079 151.452932,120.293609 151.691802,121.266707 C152.793257,125.754035 153.593232,130.301841 153.715729,134.926435 C153.828699,139.180001 153.364911,143.401629 152.616997,147.593357 C151.635998,153.092176 149.67434,158.219968 146.810966,163.002215 C144.414783,167.004012 141.387059,170.529454 138.311016,174.014123 C134.281536,178.579258 130.096552,183.020716 126.284165,187.760152 C122.899497,191.968529 119.968409,196.53808 116.769869,200.899014 C113.244329,205.705384 110.000193,210.686056 107.499547,216.098913 C105.271117,220.921592 103.220989,225.827175 101.135133,230.71441 C100.855431,231.369824 100.487258,231.710613 99.8097804,231.845501 C96.2263947,232.559015 92.7045979,232.233177 89.2188698,231.258041 C88.4559839,231.044326 87.7158962,230.736835 86.9445036,230.569669 C86.0781756,230.382456 85.9781362,229.915614 86.1635834,229.151134 C86.7175434,226.870945 87.2677603,224.588378 87.7376735,222.289842 C88.9286193,216.463825 89.9647421,210.604511 90.2481872,204.658556 C90.4445231,200.537839 90.3404004,196.403192 90.3982464,192.27534 C90.4138988,191.174149 90.4714045,190.065144 90.6333731,188.978223 C90.6908787,188.593945 91.0556484,188.187921 91.3857105,187.922901 C93.1544352,186.505386 94.9592284,185.132719 96.7449665,183.736609 C97.0682232,183.483821 97.3628973,183.194678 97.6705015,182.922523 C97.6402175,182.85355 97.6099334,182.784917 97.5796494,182.716283 C97.1634989,182.816175 96.7371403,182.885148 96.3332396,183.021056 C94.1037891,183.769907 91.8947548,184.581614 89.6496519,185.27814 C88.083388,185.76401 86.4616602,186.068103 84.8821258,186.514559 C84.0467624,186.750699 83.2039131,187.034066 82.442048,187.441449 C80.3265881,188.573219 78.7501161,190.162658 77.7078684,192.419742 C75.7186487,196.726652 73.2915012,200.840234 71.4462158,205.202526 C69.5444455,209.697668 68.0527009,214.371528 66.5068533,219.009033 C65.3628648,222.43968 64.4315452,225.940658 63.3688813,229.399165 C63.2562518,229.765436 62.9581751,230.143259 62.6410433,230.367506 C59.3142213,232.720406 55.5576381,233.203897 51.6200311,232.783263 C50.5815263,232.672159 49.5613962,232.388452 48.5228915,232.273949 C47.7671513,232.190366 47.5255595,231.813563 47.4925533,231.116357 C47.3959165,229.08284 47.2860092,227.049663 47.1420749,225.018865 C46.5306094,216.402667 45.4927852,207.841171 43.8434954,199.356463 C43.2109331,196.103176 42.7920604,192.759171 41.1175907,189.849051 C38.30866,184.968271 36.475284,179.683507 34.5374451,174.452085 C33.3250623,171.178752 32.5856551,167.732817 31.5903647,164.37692 C30.6658505,161.25988 29.5926382,158.183953 28.7514903,155.045508 C27.8807388,151.796978 27.1797821,148.50122 26.4621522,145.213956 C25.949365,142.865134 25.4886391,140.502721 25.1014116,138.130795 C24.9993305,137.50528 25.1068559,136.754051 25.3715861,136.176444 C26.6316068,133.425336 27.9899655,130.719417 29.2867353,127.984957 C29.5735831,127.380168 29.8982009,127.214361 30.4538622,127.633976 C30.5651305,127.718238 30.70294,127.767505 30.8278192,127.834099 C32.0854579,128.503104 32.3239873,128.442286 33.0946994,127.263967 C36.4463611,122.140593 39.979727,117.143952 44.08849,112.597165 C45.7139608,110.798089 47.6517997,109.28204 49.4266492,107.615474 C49.7026084,107.35657 49.9302491,107.006948 50.0762251,106.655967 C51.1542011,104.065229 51.5870248,101.342322 51.6843421,98.5545183 C51.7122443,97.7625171 51.7306189,96.9701761 51.7799581,96.1798737 C52.0024948,92.6139996 50.8789225,89.1857318 50.8088269,85.6504369 C50.7315855,85.6494176 50.6546844,85.6483983 50.5774431,85.647379 C50.4590291,87.1851728 50.2997826,88.7216076 50.2307077,90.2617798 C50.079968,93.6244722 50.0404967,96.9932804 49.8315708,100.352235 C49.663137,103.059514 48.8481898,105.635641 47.7304022,108.098625 C47.5099071,108.584155 47.0103904,108.956882 46.600705,109.340481 C42.9410988,112.76569 39.2233063,116.130761 35.6320944,119.625963 C34.2427711,120.978583 33.1304277,122.615929 31.9027328,124.132658 C31.6352804,124.462913 31.4171672,124.769045 30.9445318,124.40787 C27.7265964,121.947944 23.9547009,120.447185 20.501979,118.397019 C18.4134004,117.156863 16.4544647,115.698915 14.440065,114.334403 C13.9725337,114.017739 13.8653486,113.631422 14.1402869,113.097305 C17.2605649,107.034809 20.2535817,100.90334 23.5232383,94.9223892 C25.3504894,91.5794034 27.6071615,88.46814 29.710712,85.2794093 C34.3397481,78.2611438 38.9953253,71.2602065 43.6369514,64.2500955 C43.8829668,63.8783883 44.0993786,63.4869746 44.3297416,63.1047346 C44.2729164,63.0612442 44.2160913,63.017414 44.1589259,62.9739236 C43.0969425,64.1855394 42.053674,65.413464 40.9702537,66.6057129 C35.2703872,72.8781858 30.1292444,79.6062887 24.8329384,86.2107157 C20.1576255,92.04013 16.4881515,98.4590432 13.1385314,105.088273 C11.9778697,107.385111 10.9094212,109.728497 9.74161377,112.021257 C9.35030302,112.789474 9.32478275,113.326989 10.1734167,113.725877 C10.3493364,113.808781 10.493611,113.958279 10.6525172,114.077198 C11.9550716,115.050976 11.8751081,115.032289 11.5103384,116.593866 C10.6480936,120.282057 9.7596481,123.969908 9.08523252,127.694794 C8.24884831,132.315311 7.4948095,136.958252 6.93880796,141.619541 C6.5474972,144.898311 6.52742126,148.222949 6.37532047,151.52856 C6.18272752,155.712134 6.09051429,159.901484 5.80332623,164.077923 C5.73561245,165.060874 5.11359849,166.028876 4.65389342,166.957804 C3.19787714,169.900882 1.70000762,172.822554 0.214047561,175.751022 C-0.167395358,176.50293 -0.0353705117,177.288136 0.58085886,177.82667 C1.36892469,178.515381 1.91778056,178.567026 2.69597856,178.059411 C3.01651311,177.849774 3.36665117,177.685666 3.70351869,177.501171 L3.88556325,177.638438 C3.76680895,177.9585 3.6473741,178.278562 3.52896006,178.598625 C2.90422394,180.288295 2.2372943,181.964375 1.67312627,183.674092 C1.40941685,184.473568 1.38627848,185.521755 2.19442025,185.891423 C2.90354339,186.215563 3.96688784,186.231532 4.69370503,185.938311 C5.65088517,185.551994 6.43997181,184.741306 7.28316142,184.089969 C7.54074598,183.890864 7.73912352,183.615651 7.96472267,183.375095 C8.03924185,183.402277 8.11342076,183.429458 8.18793994,183.45664 C8.02597131,184.253398 7.87080809,185.051175 7.69999244,185.845894 C7.39579086,187.260692 7.13003982,188.6602 7.51148274,190.122225 C7.99364564,191.971247 9.65110189,192.607634 11.1520338,191.415046 C12.2752658,190.522133 12.8741414,189.26261 13.3409922,187.943627 C13.6550616,187.055811 13.9306805,186.154744 14.2233129,185.259453 C14.3264147,185.268967 14.4295166,185.27848 14.5322782,185.287654 C14.7330377,186.038883 14.8803747,186.809479 15.1478271,187.536244 C15.495243,188.480122 15.8521864,189.442687 16.3802858,190.288372 C16.6065655,190.650226 17.3143276,190.956018 17.7301378,190.881269 C18.0840188,190.817732 18.490982,190.209546 18.5947644,189.775661 C18.8030098,188.905173 18.9200627,187.986438 18.8938619,187.092846 C18.8475852,185.512241 18.6726863,183.935034 18.5348768,182.357487 C18.512419,182.102661 18.4014909,181.855649 18.1581977,181.641594 L17.5174689,187.194777 C17.4242348,187.198174 17.3310008,187.201572 17.2377668,187.20497 C17.1418106,186.814575 17.0329241,186.426899 16.95228,186.033447 C16.6807444,184.703252 16.4782836,183.355389 16.1295066,182.046259 C15.9440594,181.351772 15.5513875,180.698056 15.1706252,180.0756 C15.0015109,179.798688 14.6306163,179.645113 14.3512545,179.435475 C14.1481131,179.713066 13.8827024,179.964495 13.7520386,180.272666 C12.7152352,182.717303 11.704973,185.173152 10.6831415,187.623905 C10.6331218,187.743843 10.5500958,187.849851 10.2768588,187.933774 C10.3183718,187.453001 10.358864,186.971888 10.4013977,186.491115 C10.5592831,184.689661 10.7389458,182.889565 10.8634847,181.085733 C10.8998936,180.557052 10.8141455,180.011723 10.7263558,179.483722 C10.5429501,178.382532 10.0002191,178.100523 9.07808684,178.777683 C7.98990267,179.576819 7.0160493,180.532249 6.00068295,181.429239 C5.60665004,181.777162 5.23439441,182.149549 4.85227096,182.511063 C4.78489745,182.468252 4.71786422,182.425441 4.65049071,182.382291 C4.9717058,181.58927 5.33409359,180.80984 5.60460842,180.000171 C6.11433321,178.475288 6.6012599,176.941572 7.02455605,175.391886 C7.1120055,175.071824 6.97385579,174.429661 6.77649906,174.352193 C6.46276992,174.229537 5.89622,174.329429 5.63965625,174.560132 C4.8025915,175.31238 3.99002621,176.114235 3.29689577,176.997634 C2.69563829,177.763812 1.97664731,177.683967 1.23247634,177.521557 C0.545470757,177.371719 0.630198042,176.805325 0.878935574,176.3711 C1.59486412,175.12143 2.34311834,173.88739 3.13424661,172.683249 C3.61470816,171.952406 4.20677834,171.295293 4.73317638,170.592991 C6.06839673,168.811583 6.33074507,166.735935 6.49475532,164.589275 C6.9268985,158.921251 7.41960978,153.257644 7.95009106,147.597774 C8.21652264,144.75289 8.4900999,141.897472 8.98927631,139.087584 C9.64667838,135.387501 10.426918,131.701688 11.3453073,128.057667 C12.181011,124.741863 13.2688549,121.489256 14.2539372,118.211506 C14.3740526,117.811258 14.5475904,117.427319 14.7303155,116.946206 C15.0209063,117.079736 15.2590954,117.153126 15.457473,117.285636 C18.9915195,119.644311 22.5109344,122.024732 26.0596125,124.361322 C26.7360697,124.807099 26.8126305,125.18798 26.4985611,125.93683 C24.3977328,130.943324 22.247225,135.933849 20.3308231,141.011355 C18.553932,145.719532 17.7155062,150.664528 17.347674,155.681555 C17.2132673,157.514608 16.9829044,159.350039 16.9958346,161.182753 C17.0159106,163.975313 17.1305816,166.773649 17.3759165,169.554657 C17.4531578,170.430581 18.0537348,171.27083 18.4589966,172.105981 C19.4590508,174.167359 20.5002776,176.20903 21.4863808,178.276863 C21.6878207,178.699196 21.7796937,179.197297 21.8174637,179.668896 C21.9011702,180.716404 21.2390043,181.13296 20.3117679,180.654566 C20.0160731,180.50201 19.7265032,180.337222 19.434211,180.17787 C19.3814692,180.232573 19.3287273,180.287276 19.2759854,180.341979 C19.9864696,181.073161 20.6363857,181.88317 21.4367013,182.498491 C21.7671037,182.752639 22.4721436,182.73531 22.9124533,182.578337 C23.4626702,182.381951 23.7988572,181.802985 23.6232777,181.184945 C23.3003613,180.049098 22.9937778,178.889127 22.4942611,177.82667 C20.6935511,173.996116 19.2082716,170.075523 18.3681444,165.906899 C17.7587205,162.883975 17.6920275,159.884156 18.3957063,156.899966 C19.2977627,153.074848 20.3107471,149.276232 21.2876629,145.469122 C21.3761332,145.124597 21.549671,144.801477 21.9025312,144.465785 C21.9668423,144.76716 22.036938,145.067516 22.0947839,145.37025 C23.2302656,151.345085 24.2861241,157.336569 25.5485267,163.284563 C25.9058104,164.967438 26.8425743,166.532753 27.5537391,168.134423 C29.150287,171.731216 30.5028611,175.399021 31.7067371,179.158903 C33.1590104,183.694478 35.3506909,187.988477 37.0642918,192.447603 C38.1174281,195.187839 38.9259102,198.026608 39.7551487,200.847029 C41.7065984,207.486452 43.0037085,214.261103 43.7002416,221.142442 C44.1385097,225.475514 44.4655094,229.820139 44.8146266,234.162045 C44.9139855,235.399143 44.8694101,235.402881 46.1641383,235.487483 C47.8920305,235.599947 47.900197,235.597568 48.4119634,237.249864 C48.6521942,238.025557 48.8532939,238.813481 49.2796525,239.639798 C49.5239665,238.718685 49.8220432,237.807765 49.9989837,236.87408 C50.2075694,235.77221 50.3572883,235.649893 51.4767773,235.579561 C54.2455561,235.406278 57.0133141,235.205475 59.7756277,234.952008 C60.4418768,234.890849 60.7321273,235.076703 60.8039243,235.700518 C60.8968181,236.509508 60.9958368,237.317818 61.0826057,238.127827 C61.116973,238.44755 61.12582,238.77067 61.1462362,239.092091 C61.2272205,239.106361 61.3082048,239.120632 61.3895294,239.135242 C61.756681,238.113897 62.2129833,237.114297 62.4712484,236.06577 C62.9329951,234.189566 62.5780933,234.645536 64.2998606,234.283342 C65.0355248,234.128748 65.3441499,233.809365 65.577235,233.16992 C66.89306,229.561235 68.3446527,225.998419 69.5468274,222.353039 C71.1743399,217.417216 72.6388629,212.427711 74.1333297,207.449417 C75.2552007,203.71162 76.9728848,200.256851 79.0621439,196.984537 C80.3095745,195.030526 81.6679333,193.146847 82.9949871,191.244482 C83.8980643,189.949962 85.9277762,190.120866 86.4718683,191.598861 C86.8070344,192.509101 86.9448439,193.520253 87.0081341,194.496749 C87.3579319,199.90553 86.9754682,205.295962 86.5708869,210.688094 C86.3415448,213.742956 85.9549978,216.764181 85.1665917,219.724926 C84.1090318,223.695465 82.6986118,227.534514 80.8026261,231.188048 C80.6889758,231.40652 80.6056096,231.64062 80.452488,231.996698 C81.612129,232.323556 82.6853412,232.645317 83.7687616,232.926645 C86.2084991,233.560994 86.2200683,233.550801 86.7331958,235.979469 C87.0428417,237.443872 87.3232244,238.914392 87.6008849,240.385251 C87.6454603,240.620032 87.60735,240.870781 87.60735,241.260496 C86.4347788,240.711429 85.4221346,240.236772 84.2900556,239.706733 C84.0923586,240.574163 83.9508062,241.314859 83.7537897,242.040945 C83.0286739,244.712887 81.9125876,247.197957 80.1789108,249.38369 C78.1376297,251.958458 78.8304199,255.256255 81.6379895,256.921122 C84.0140965,258.330143 86.6430242,258.426298 89.2583411,258.669912 C95.4073643,259.242763 101.563873,259.742563 107.70439,260.3939 C111.307171,260.776139 114.873543,261.514457 118.478366,261.86272 C121.120224,262.117887 123.795088,262.057068 126.410745,261.339136 C131.341941,259.986177 131.354531,255.789352 129.50142,252.811618 C128.28087,250.850472 126.392711,249.815196 124.229953,249.218902 C120.273972,248.127564 116.325136,247.007007 112.349078,245.992797 C110.766141,245.589151 109.119574,245.430479 107.499887,245.175313 C107.237539,245.133861 106.962941,245.169537 106.694128,245.169537 C106.674732,245.23851 106.654996,245.307483 106.635601,245.376796 C106.992545,245.595607 107.349148,245.814758 107.711876,246.037306 C106.996288,246.877555 106.468869,246.88435 105.650179,246.034248 C105.581104,246.278542 105.555924,246.496674 105.460648,246.67811 C105.21089,247.152088 105.024081,247.715425 104.643659,248.053834 C103.615022,248.968152 103.009001,250.066965 102.833762,251.41245 C102.801096,251.665238 102.858602,251.929918 102.874254,252.189161 C102.955579,252.221779 103.036563,252.254737 103.117888,252.287354 C103.830073,251.380851 104.542599,250.474008 105.390893,249.394562 C105.720614,250.492695 105.984664,251.372017 106.248374,252.250999 C106.380398,252.236049 106.512423,252.221099 106.644448,252.20581 C106.687322,251.622087 106.732578,251.038364 106.770688,250.453962 C106.777834,250.342178 106.780556,250.219861 106.744488,250.116571 C106.133702,248.366422 107.384196,247.548258 108.495858,246.686265 C108.683347,246.540844 109.057304,246.477986 109.27916,246.558512 C111.728766,247.447687 114.165781,248.371858 116.604157,249.292292 C116.673913,249.318794 116.718829,249.410192 116.82193,249.521636 C116.700794,249.663659 116.60756,249.845436 116.458522,249.936494 C113.825851,251.550056 112.374599,253.956299 111.785931,256.921802 C111.657309,257.57144 111.321462,257.713803 110.724288,257.714822 C105.255805,257.725015 99.7873226,257.77632 94.3188399,257.777679 C90.2332153,257.778699 86.336781,256.928257 82.6999729,255.018416 C82.474714,254.900517 82.2528578,254.774123 82.0381473,254.637875 C81.3885714,254.226415 81.2126517,253.724916 81.5985181,252.993394 C83.1025125,250.143073 84.5823477,247.280181 86.0448291,244.408454 C86.3064969,243.895064 86.5695258,243.700376 87.1701028,243.878415 C89.4567187,244.555574 91.7760005,245.151869 94.1857942,244.854571 C96.1236331,244.615374 98.0444585,244.236531 99.9700477,243.904577 C100.203133,243.864145 100.419885,243.729936 100.643102,243.4306 C99.7253934,243.25324 98.8141498,243.030352 97.8892953,242.907016 C95.0276227,242.525795 92.1611864,242.181269 89.2964514,241.825871 C88.6883885,241.750443 88.5172326,241.403199 88.5550026,240.822534 C88.6866871,238.790716 88.8057817,236.757879 88.8857452,234.723683 C88.9102447,234.097489 89.1538782,233.935759 89.7578578,233.892268 C92.6954106,233.681272 95.6302413,233.426445 98.5637109,233.159387 C99.6137848,233.063572 99.6481521,233.049302 99.4123448,234.120593 C98.9260987,236.32943 98.2965987,238.514144 98.3714582,240.809623 C98.3806455,241.086194 98.3728193,241.363446 98.5606484,241.702535 C98.6831457,241.418828 98.8461352,241.145314 98.9209946,240.849715 C99.8250926,237.278405 101.697259,234.108701 103.127415,230.757221 C107.042905,221.580744 112.898615,213.666848 119.11365,205.938805 C124.202051,199.611969 129.551439,193.469288 133.939564,186.595424 C134.597307,185.565245 135.585451,184.732811 136.476959,183.866741 C141.918561,178.579258 146.335608,172.492978 150.386866,166.122652 C152.651704,162.561195 154.809017,158.941977 156.413732,155.016288 C159.223003,148.144123 160.157045,141.076591 158.92935,133.721954 C158.513199,131.22839 157.956517,128.778997 157.283803,126.365279 C157.898671,126.65714 158.607114,126.849449 159.3455,126.855565 C160.090352,126.862021 160.840988,126.682283 161.51098,126.388383 C162.85913,125.781896 163.873136,124.789771 164.69659,123.764348 C165.524807,122.729412 166.174383,121.61565 166.725281,120.480822 C167.2789,119.345654 167.718189,118.177869 168.087382,117.000569 C168.452152,115.820892 168.73866,114.628983 168.99148,113.436394 C169.247023,112.242446 169.466498,111.056313 169.68427,109.85523 C169.886391,108.67997 170.105865,107.473451 170.282125,106.280862 C170.639409,103.890588 170.899716,101.505751 171.138245,99.1246504 L171.785779,91.9962998 C172.012399,89.6277711 172.233575,87.2619606 172.553089,84.9158566 C172.713696,83.7429745 172.897442,82.575189 173.129847,81.4203146 C173.346939,80.3449462 173.608267,79.2801106 173.949217,78.2485723 C174.114249,78.2292055 174.276217,78.2074603 174.439547,78.1823174 C174.691007,78.1429042 174.941105,78.099074 175.189502,78.049128 C175.686977,77.9509348 176.178668,77.831676 176.665595,77.6974673 C177.640469,77.4307487 178.591524,77.0852038 179.514337,76.6798595 C180.436129,76.2711176 181.326956,75.7951014 182.171847,75.2490929 C182.593102,74.9742199 183.00653,74.6871152 183.401584,74.377246 C183.428125,74.3571996 183.453305,74.3344351 183.479506,74.314049 C185.295868,74.3344351 187.192534,73.8536622 188.267788,72.8482861 C189.769061,71.4450408 188.792485,69.3792461 187.155445,68.8227047 C188.545449,68.4805575 190.017458,67.9416841 190.820496,66.8635975 C191.484703,65.9710247 191.437405,64.7835326 190.71331,63.9252764 C190.553043,63.7353456 190.362492,63.5916234 190.152885,63.4818781 C190.405026,63.2837928 190.631986,63.0626033 190.820155,62.810155 C191.484703,61.9175823 191.437405,60.7304299 190.71331,59.871834 C190.569376,59.70127 190.39822,59.5724976 190.213454,59.4671693 C191.589506,59.0886668 193.080911,58.6425502 194.668952,58.1186267 C195.682277,57.7849737 196.725885,57.3979769 197.800118,56.9596751 C198.87299,56.5128791 199.974105,56.0290482 201.080664,55.3427151 C201.356963,55.1667148 201.633603,54.9781431 201.908881,54.7494787 C202.182118,54.5163973 202.462501,54.2636092 202.711579,53.8603036 C202.832715,53.6591604 202.949087,53.4053531 202.987538,53.0873294 C203.032113,52.7720239 202.953851,52.4037145 202.804813,52.1335983" id="Fill-24" fill="#FEFEFE"></path>
            </g>
        </g>
    </g>
</svg>