<?xml version="1.0" encoding="UTF-8"?>
<svg width="19px" height="25px" viewBox="0 0 19 25" version="1.1" xmlns="http://www.w3.org/2000/svg" xmlns:xlink="http://www.w3.org/1999/xlink">
    <!-- Generator: sketchtool 47 (45396) - http://www.bohemiancoding.com/sketch -->
    <title>CC076BD0-0D03-47F9-8F04-4BEFA9202AF1</title>
    <desc>Created with sketchtool.</desc>
    <defs></defs>
    <g id="Page-1" stroke="none" stroke-width="1" fill="none" fill-rule="evenodd">
        <g id="бронирование1920_продолжить-copy-2" transform="translate(-795.000000, -399.000000)" fill-rule="nonzero" fill="#F24841">
            <path d="M804.499604,399 C799.261776,399 795,403.128971 795,408.20409 C795,409.527878 795.279664,410.791796 795.830806,411.961049 C798.205971,416.99651 802.759823,422.312899 804.099254,423.822182 C804.199605,423.935013 804.345907,424 804.499868,424 C804.653829,424 804.800131,423.935013 804.900482,423.822182 C806.239385,422.313155 810.793237,416.997022 813.169194,411.961049 C813.7206,410.791796 814,409.527878 814,408.20409 C813.999472,403.128971 809.737696,399 804.499604,399 Z M804.5,412 C802.018811,412 800,409.981243 800,407.50012 C800,405.018757 802.018811,403 804.5,403 C806.981189,403 809,405.018757 809,407.50012 C809.000241,409.981243 806.98143,412 804.5,412 Z" id="Shape"></path>
        </g>
    </g>
</svg>