<?xml version="1.0" encoding="UTF-8"?>
<svg width="13px" height="18px" viewBox="0 0 13 18" version="1.1" xmlns="http://www.w3.org/2000/svg" xmlns:xlink="http://www.w3.org/1999/xlink">
    <!-- Generator: sketchtool 50.2 (55047) - http://www.bohemiancoding.com/sketch -->
    <title>B890674C-EFF3-458D-84F8-45FAC976F4E7</title>
    <desc>Created with sketchtool.</desc>
    <defs></defs>
    <g id="Page-1" stroke="none" stroke-width="1" fill="none" fill-rule="evenodd">
        <g id="бронирование1920-" transform="translate(-702.000000, -415.000000)" fill-rule="nonzero">
            <g id="Group-16" transform="translate(702.000000, 411.000000)">
                <g id="if_location_1585851" transform="translate(0.000000, 4.000000)">
                    <path d="M12.960172,6.09809743 C12.9602134,6.09826563 13.8776525,9.82295856 6.90376075,17.393437 C6.90376075,17.393437 6.66517485,17.6186508 6.5,17.6186508 C6.33482515,17.6186508 6.09623925,17.393437 6.09623925,17.393437 C-0.877810021,9.82278761 0.0398280409,6.09809742 0.0398280409,6.09809742 C0.0398280409,6.09809742 2.05863178,12.1788707 6.5,12.1961948 C2.93214555,12.1961948 0.0398280409,9.46598363 0.0398280409,6.09809742 C0.0398280409,2.73021121 2.93214555,0 6.5,0 C10.0678545,0 12.960172,2.73021121 12.960172,6.09809742 Z" id="Combined-Shape" fill="#3E4758"></path>
                    <circle id="XMLID_1_" fill="#FFFFFF" cx="6.5" cy="6.5" r="2.6"></circle>
                </g>
            </g>
        </g>
    </g>
</svg>