<?xml version="1.0" encoding="UTF-8"?>
<svg width="32px" height="43px" viewBox="0 0 32 43" version="1.1" xmlns="http://www.w3.org/2000/svg" xmlns:xlink="http://www.w3.org/1999/xlink">
    <!-- Generator: sketchtool 47 (45396) - http://www.bohemiancoding.com/sketch -->
    <title>BDE76DEB-0499-46CF-8900-BB3ACBD1B274</title>
    <desc>Created with sketchtool.</desc>
    <defs></defs>
    <g id="Page-1" stroke="none" stroke-width="1" fill="none" fill-rule="evenodd">
        <g id="бронирование1920_продолжить-copy" transform="translate(-1076.000000, -536.000000)">
            <g id="placeholder-filled-point" transform="translate(1076.000000, 536.000000)">
                <g id="Group-3">
                    <path d="M15.9993328,0 C7.17772805,0 0,7.10182987 0,15.8310341 C0,18.1079499 0.471013385,20.2818896 1.39925223,22.2930039 C5.39953021,30.9539975 13.0691759,40.0981865 15.3250587,42.6941522 C15.494072,42.8882225 15.7404756,43 15.9997776,43 C16.2590796,43 16.5054832,42.8882225 16.6744965,42.6941522 C18.9294898,40.0986266 26.5991355,30.9548776 30.6007478,22.2930039 C31.5294314,20.2818896 32,18.1079499 32,15.8310341 C31.9991105,7.10182987 24.8213824,0 15.9993328,0 Z M15.9993328,24.0537191 C11.4168485,24.0537191 7.68832613,20.3646226 7.68832613,15.830594 C7.68832613,11.2961253 11.4168485,7.60702882 15.9993328,7.60702882 C20.5818172,7.60702882 24.3103396,11.2961253 24.3103396,15.830594 C24.3107843,20.3646226 20.5822619,24.0537191 15.9993328,24.0537191 Z" id="Shape" fill="#F24841" fill-rule="nonzero"></path>
                    <circle id="Oval-6" fill="#FFFFFF" cx="16" cy="16" r="9"></circle>
                </g>
            </g>
        </g>
    </g>
</svg>