<?xml version="1.0" encoding="UTF-8"?>
<svg width="34px" height="29px" viewBox="0 0 34 29" version="1.1" xmlns="http://www.w3.org/2000/svg" xmlns:xlink="http://www.w3.org/1999/xlink">
    <!-- Generator: Sketch 45 (43475) - http://www.bohemiancoding.com/sketch -->
    <title>Fill 20 Copy</title>
    <desc>Created with Sketch.</desc>
    <defs></defs>
    <g id="Page-1" stroke="none" stroke-width="1" fill="none" fill-rule="evenodd">
        <g id="главная_320-copy-3" transform="translate(-13.000000, -10.000000)" fill="#FEFEFE">
            <path d="M42.562,23.238 C41.878,29.902 36.831,35.378 29.851,35.377 C22.901,35.377 17.876,29.953 17.144,23.324 C16.872,20.857 20.731,20.884 21.001,23.324 C22.177,33.977 37.614,33.863 38.705,23.238 C38.957,20.789 42.815,20.771 42.562,23.238 M27.301,13.21 L32.403,13.21 C32.876,13.21 33.263,13.597 33.263,14.07 C33.263,14.543 32.876,14.93 32.403,14.93 L27.301,14.93 C26.829,14.93 26.442,14.543 26.442,14.07 C26.442,13.597 26.829,13.21 27.301,13.21 M40.855,14.964 L37.568,14.964 C37.568,14.964 37.08,14.872 36.88,14.629 C36.679,14.385 36.71,13.9 36.71,13.9 C36.71,11.755 34.955,10 32.811,10 L26.894,10 C24.749,10 22.994,11.755 22.994,13.9 C22.994,13.9 23.037,14.5 22.793,14.729 C22.578,14.931 22.135,14.964 22.135,14.964 L18.85,14.964 C15.632,14.964 13,17.597 13,20.814 L13,32.731 C13,35.948 15.632,38.58 18.85,38.58 L40.855,38.58 C44.072,38.58 46.704,35.948 46.704,32.731 L46.704,20.814 C46.704,17.597 44.072,14.964 40.855,14.964" id="Fill-20-Copy"></path>
        </g>
    </g>
</svg>