<?xml version="1.0" encoding="UTF-8"?>
<svg width="33px" height="33px" viewBox="0 0 33 33" version="1.1" xmlns="http://www.w3.org/2000/svg" xmlns:xlink="http://www.w3.org/1999/xlink">
    <!-- Generator: sketchtool 45 (43475) - http://www.bohemiancoding.com/sketch -->
    <title>176925E6-543C-45EF-BF83-0111E9BECC33</title>
    <desc>Created with sketchtool.</desc>
    <defs></defs>
    <g id="Page-1" stroke="none" stroke-width="1" fill="none" fill-rule="evenodd">
        <g id="главная_320" transform="translate(-11.000000, -16.000000)" fill-rule="nonzero" fill="#FFFFFF">
            <g id="logotype-copy-22" transform="translate(11.000000, 16.000000)">
                <g id="Group">
                    <g id="logo-globe" transform="translate(0.593407, 0.419176)">
                        <path d="M10.3050091,7.22640928 C11.8291704,6.97527108 13.3282974,6.82381073 14.7988008,6.76379263 L14.7988008,2.53260345 C13.7347727,2.62893406 12.7062191,2.84817629 11.7274511,3.17601903 C11.6541546,3.33005735 11.5540048,3.55287659 11.4336464,3.84156695 C11.1314377,4.56644145 10.8274773,5.41560085 10.5427371,6.37980036 C10.4599811,6.66003225 10.3807056,6.94224871 10.3050091,7.22640928 Z M9.72073411,9.8480257 C9.45670017,11.3140352 9.28806226,12.82489 9.22685793,14.3756525 L14.7988008,14.3756525 L14.7988008,9.24406806 C13.144367,9.31661177 11.4498125,9.51337774 9.72073835,9.84802542 Z M21.6318515,7.14566595 C21.5617859,6.88497557 21.4887116,6.62592601 21.4127048,6.36854854 C21.12763,5.40321575 20.823311,4.55305462 20.5207437,3.82732004 C20.3924241,3.51953406 20.2870443,3.28652476 20.2126364,3.13180943 C19.2742321,2.82841927 18.291078,2.62453739 17.2756137,2.53260345 L17.2756137,6.74850087 C18.7618224,6.79109653 20.2152258,6.92652291 21.6318515,7.14566595 Z M22.2207122,9.75839059 C20.624348,9.46193724 18.9738009,9.27965451 17.2756137,9.2274986 L17.2756137,14.3756525 L22.7301958,14.3756525 C22.6678374,12.793325 22.4937572,11.2524935 22.2207122,9.75839059 Z M28.884755,11.6869416 L28.8262534,11.7983733 C28.6972927,11.7306689 28.4180928,11.5987469 27.9978188,11.4235298 C27.279871,11.1242089 26.4387792,10.8231362 25.4837066,10.5410914 C25.2676935,10.4773 25.0504899,10.4155963 24.8321147,10.3560263 C25.0312619,11.6659234 25.1595267,13.0068216 25.2098671,14.3756525 L29.496823,14.3756525 C29.3833861,13.4471681 29.1761055,12.5476731 28.884755,11.6869416 Z M27.3290093,8.52596395 C26.3184032,7.0097276 25.0105365,5.70858166 23.4886715,4.70578859 C23.5879711,5.00803675 23.6881555,5.32861394 23.7881039,5.66706349 C23.9823163,6.32471394 24.1587121,6.99232313 24.3162121,7.66942087 C24.9477203,7.81854484 25.5708439,7.98426769 26.1851916,8.16569227 C26.5929194,8.28609937 26.9744631,8.40685583 27.3290093,8.52596395 Z M3.17078331,11.7431141 C2.88934383,12.5867835 2.68856303,13.4673464 2.57759143,14.3756525 L6.74718166,14.3756525 C6.79635358,13.0404487 6.91974859,11.7318527 7.11081642,10.4527187 C5.81391506,10.8026574 4.49982632,11.2309739 3.17078331,11.7431141 Z M4.71173251,8.5767301 C5.68909552,8.26576302 6.65851975,7.99676891 7.61915417,7.76779513 C7.78166724,7.06081606 7.96480403,6.36414464 8.167338,5.67831531 C8.25772055,5.37225801 8.34829656,5.08083092 8.43823537,4.80437245 C6.96248924,5.80466047 5.69430458,7.08813006 4.71173251,8.5767301 Z M14.7988008,22.7216403 L14.7988008,16.8524654 L9.22110888,16.8524654 C9.28061746,18.5736948 9.47321343,20.3385776 9.81412915,22.1408661 C11.5105529,22.4615743 13.1738455,22.6509349 14.7988008,22.7216403 Z M17.2756137,22.7382798 C18.9398503,22.6878278 20.5588181,22.5136241 22.1264805,22.2303859 C22.477643,20.3970503 22.675464,18.6022272 22.7359091,16.8524654 L17.2756137,16.8524654 L17.2756137,22.7382798 Z M14.7988008,29.541811 L14.7988008,25.2018832 C13.3615075,25.1436313 11.8971019,24.998823 10.4088749,24.759906 C10.7705261,26.1246394 11.2180957,27.5083689 11.7578321,28.9085315 C12.7274959,29.2307595 13.7457761,29.4464766 14.7988008,29.541811 Z M17.2756137,29.541811 C18.281279,29.4507642 19.2552548,29.2499196 20.1854579,28.9513601 C20.7214047,27.5639515 21.1669486,26.192637 21.528152,24.8399032 C20.1439617,25.0476635 18.7252432,25.1762133 17.2756137,25.2172516 L17.2756137,29.541811 Z M29.5734985,16.8524654 L25.2153375,16.8524654 C25.1649659,18.4188003 25.0119517,20.017762 24.7464548,21.6450628 C25.0256666,21.5705428 25.3030007,21.4925688 25.5784187,21.4112344 C26.543046,21.1263679 27.3925836,20.8222721 28.1177827,20.519928 C28.5424075,20.342897 28.8245933,20.2095642 28.9550895,20.1410536 L28.9615925,20.1534402 C29.2958924,19.1028691 29.5056446,17.9967606 29.5734985,16.8524654 Z M2.50091595,16.8524654 C2.57049699,18.025887 2.7892919,19.1591532 3.13859117,20.2335543 C4.50731054,20.7572251 5.86025869,21.1929039 7.19503963,21.546432 C6.9390967,19.9531184 6.79106789,18.3871158 6.74167832,16.8524654 L2.50091595,16.8524654 Z M27.4052657,23.4327669 C27.0556804,23.5498143 26.6803074,23.6683893 26.2799037,23.7866335 C25.6005808,23.9872461 24.9106249,24.1688355 24.2105548,24.3302109 C23.9660829,25.3661315 23.6755466,26.4122162 23.3365411,27.4674172 C24.9623769,26.4269981 26.3515348,25.0491984 27.4052657,23.4327669 Z M4.63516444,23.3803717 C5.66151904,24.9707511 7.01154613,26.3326147 8.59208588,27.3728028 C8.25494081,26.3160126 7.96644494,25.2684113 7.72417405,24.2310554 C6.70407502,23.9929427 5.67407058,23.7101493 4.63516444,23.3803717 Z M16.0372072,32.0744144 C7.18010225,32.0744144 0,24.8943122 0,16.0372072 C0,7.18010225 7.18010225,0 16.0372072,0 C24.8943122,0 32.0744144,7.18010225 32.0744144,16.0372072 C32.0744144,24.8943122 24.8943122,32.0744144 16.0372072,32.0744144 Z" id="Combined-Shape"></path>
                    </g>
                </g>
            </g>
        </g>
    </g>
</svg>