<?xml version="1.0" encoding="UTF-8"?>
<svg width="1108px" height="198px" viewBox="0 0 1108 198" version="1.1" xmlns="http://www.w3.org/2000/svg" xmlns:xlink="http://www.w3.org/1999/xlink">
    <!-- Generator: sketchtool 49.1 (51147) - http://www.bohemiancoding.com/sketch -->
    <title>972F90A3-FF84-4D2D-B613-6207DF31B5FC</title>
    <desc>Created with sketchtool.</desc>
    <defs></defs>
    <g id="Page-1" stroke="none" stroke-width="1" fill="none" fill-rule="evenodd">
        <g id="раннее_бронирование" transform="translate(-428.000000, -106.000000)">
            <g id="Group-11" transform="translate(428.000000, 106.000000)">
                <g id="Group-2" transform="translate(309.000000, 0.000000)">
                    <circle id="Oval" fill="#F9B422" cx="11" cy="11" r="11"></circle>
                    <circle id="Oval-Copy" fill="#FFD66E" cx="13" cy="11" r="11"></circle>
                    <path d="M11.7510171,7.66320166 L11.7510171,10.7886348 L12.7420667,10.7886348 C13.738812,10.7886348 14.2571196,10.1926542 14.2571196,9.22245322 C14.2571196,8.25918226 13.738812,7.66320166 12.7534581,7.66320166 L11.7510171,7.66320166 Z M13.9780309,14.6625087 L11.7510171,14.6625087 L11.7510171,16 L10.0309194,16 L10.0309194,14.6625087 L9,14.6625087 L9,13.3735274 L10.0309194,13.3735274 L10.0309194,12.3478863 L9,12.3478863 L9,10.8163548 L10.0309194,10.8163548 L10.0309194,6 L13.26607,6 C14.9121237,6 16,7.33056133 16,9.2016632 C16,11.0519751 14.8551668,12.3825364 13.174939,12.3825364 L11.7510171,12.3825364 L11.7510171,13.3735274 L13.9780309,13.3735274 L13.9780309,14.6625087 Z" id="₽" fill="#F99D22"></path>
                </g>
                <g id="Group-2-Copy-5" transform="translate(45.000000, 33.000000)">
                    <circle id="Oval" fill="#F9B422" cx="18" cy="18" r="18"></circle>
                    <circle id="Oval-Copy" fill="#FFD66E" cx="22" cy="18" r="18"></circle>
                    <path d="M19.7160293,12.8274428 L19.7160293,18.1406791 L21.4149715,18.1406791 C23.1236778,18.1406791 24.012205,17.1275121 24.012205,15.4781705 C24.012205,13.8406098 23.1236778,12.8274428 21.4344996,12.8274428 L19.7160293,12.8274428 Z M23.5337673,24.7262647 L19.7160293,24.7262647 L19.7160293,27 L16.7672905,27 L16.7672905,24.7262647 L15,24.7262647 L15,22.5349965 L16.7672905,22.5349965 L16.7672905,20.7914068 L15,20.7914068 L15,18.1878032 L16.7672905,18.1878032 L16.7672905,10 L22.3132628,10 C25.1350692,10 27,12.2619543 27,15.4428274 C27,18.5883576 25.0374288,20.8503119 22.1570382,20.8503119 L19.7160293,20.8503119 L19.7160293,22.5349965 L23.5337673,22.5349965 L23.5337673,24.7262647 Z" id="₽" fill="#F99D22"></path>
                </g>
                <g id="Group-2-Copy" transform="translate(0.000000, 33.000000)">
                    <circle id="Oval" fill="#F9B422" cx="9.5" cy="9.5" r="9.5"></circle>
                    <circle id="Oval-Copy" fill="#FFD66E" cx="12.5" cy="9.5" r="9.5"></circle>
                    <path d="M11.7510171,6.4968815 L11.7510171,9.30977131 L12.7420667,9.30977131 C13.738812,9.30977131 14.2571196,8.77338877 14.2571196,7.9002079 C14.2571196,7.03326403 13.738812,6.4968815 12.7534581,6.4968815 L11.7510171,6.4968815 Z M13.9780309,12.7962578 L11.7510171,12.7962578 L11.7510171,14 L10.0309194,14 L10.0309194,12.7962578 L9,12.7962578 L9,11.6361746 L10.0309194,11.6361746 L10.0309194,10.7130977 L9,10.7130977 L9,9.33471933 L10.0309194,9.33471933 L10.0309194,5 L13.26607,5 C14.9121237,5 16,6.1975052 16,7.88149688 C16,9.54677755 14.8551668,10.7442827 13.174939,10.7442827 L11.7510171,10.7442827 L11.7510171,11.6361746 L13.9780309,11.6361746 L13.9780309,12.7962578 Z" id="₽" fill="#F99D22"></path>
                </g>
                <g id="Group-2-Copy-3" transform="translate(1086.000000, 43.000000)">
                    <circle id="Oval" fill="#F9B422" cx="9.5" cy="9.5" r="9.5"></circle>
                    <circle id="Oval-Copy" fill="#FFD66E" cx="12.5" cy="9.5" r="9.5"></circle>
                    <path d="M11.7510171,6.4968815 L11.7510171,9.30977131 L12.7420667,9.30977131 C13.738812,9.30977131 14.2571196,8.77338877 14.2571196,7.9002079 C14.2571196,7.03326403 13.738812,6.4968815 12.7534581,6.4968815 L11.7510171,6.4968815 Z M13.9780309,12.7962578 L11.7510171,12.7962578 L11.7510171,14 L10.0309194,14 L10.0309194,12.7962578 L9,12.7962578 L9,11.6361746 L10.0309194,11.6361746 L10.0309194,10.7130977 L9,10.7130977 L9,9.33471933 L10.0309194,9.33471933 L10.0309194,5 L13.26607,5 C14.9121237,5 16,6.1975052 16,7.88149688 C16,9.54677755 14.8551668,10.7442827 13.174939,10.7442827 L11.7510171,10.7442827 L11.7510171,11.6361746 L13.9780309,11.6361746 L13.9780309,12.7962578 Z" id="₽" fill="#F99D22"></path>
                </g>
                <g id="Group-2-Copy-4" transform="translate(74.000000, 179.000000)">
                    <circle id="Oval" fill="#F9B422" cx="9.5" cy="9.5" r="9.5"></circle>
                    <circle id="Oval-Copy" fill="#FFD66E" cx="12.5" cy="9.5" r="9.5"></circle>
                    <path d="M11.7510171,6.4968815 L11.7510171,9.30977131 L12.7420667,9.30977131 C13.738812,9.30977131 14.2571196,8.77338877 14.2571196,7.9002079 C14.2571196,7.03326403 13.738812,6.4968815 12.7534581,6.4968815 L11.7510171,6.4968815 Z M13.9780309,12.7962578 L11.7510171,12.7962578 L11.7510171,14 L10.0309194,14 L10.0309194,12.7962578 L9,12.7962578 L9,11.6361746 L10.0309194,11.6361746 L10.0309194,10.7130977 L9,10.7130977 L9,9.33471933 L10.0309194,9.33471933 L10.0309194,5 L13.26607,5 C14.9121237,5 16,6.1975052 16,7.88149688 C16,9.54677755 14.8551668,10.7442827 13.174939,10.7442827 L11.7510171,10.7442827 L11.7510171,11.6361746 L13.9780309,11.6361746 L13.9780309,12.7962578 Z" id="₽" fill="#F99D22"></path>
                </g>
                <g id="Group-2-Copy-2" transform="translate(876.000000, 95.000000)">
                    <circle id="Oval" fill="#F9B422" cx="9.5" cy="9.5" r="9.5"></circle>
                    <circle id="Oval-Copy" fill="#FFD66E" cx="12.5" cy="9.5" r="9.5"></circle>
                    <path d="M11.7510171,6.4968815 L11.7510171,9.30977131 L12.7420667,9.30977131 C13.738812,9.30977131 14.2571196,8.77338877 14.2571196,7.9002079 C14.2571196,7.03326403 13.738812,6.4968815 12.7534581,6.4968815 L11.7510171,6.4968815 Z M13.9780309,12.7962578 L11.7510171,12.7962578 L11.7510171,14 L10.0309194,14 L10.0309194,12.7962578 L9,12.7962578 L9,11.6361746 L10.0309194,11.6361746 L10.0309194,10.7130977 L9,10.7130977 L9,9.33471933 L10.0309194,9.33471933 L10.0309194,5 L13.26607,5 C14.9121237,5 16,6.1975052 16,7.88149688 C16,9.54677755 14.8551668,10.7442827 13.174939,10.7442827 L11.7510171,10.7442827 L11.7510171,11.6361746 L13.9780309,11.6361746 L13.9780309,12.7962578 Z" id="₽" fill="#F99D22"></path>
                </g>
            </g>
        </g>
    </g>
</svg>