<svg xmlns="http://www.w3.org/2000/svg" xmlns:xlink="http://www.w3.org/1999/xlink" width="435" height="204" viewBox="0 0 435 204">
    <defs>
        <path id="a" d="M434.768 204V.209H0v203.79h434.768z"/>
    </defs>
    <g fill="none" fill-rule="evenodd">
        <path fill="#FEFEFE" d="M194.051 74.968c-.725-.22-1.448-.267-2.15-.261-.688.079-1.356.212-1.939.49-.297.117-.575.269-.843.398-.26.164-.51.313-.739.485-.465.314-.848.703-1.168 1.05-.315.373-.568.699-.752 1.026-.185.31-.312.578-.386.78l-.112.31.29.526.289.107c.189.069.451.156.77.253.313.095.69.208 1.083.3.409.124.828.195 1.277.29.444.079.902.152 1.367.2.466.037.935.099 1.407.012.236-.02.474-.062.717-.13.244-.074.492-.164.745-.217l.779-.195c.265-.058.525-.047.794-.075.54-.054 1.068.003 1.606.035.545.01 1.055.149 1.589.204.536.055 1.004.263 1.503.364.51.103.91.296 1.326.447.405.176.814.254 1.156.47.344.187.648.345.903.47l.796.399.398-.45-.489-.743a26.753 26.753 0 0 0-.571-.844c-.197-.328-.555-.664-.901-1.048-.363-.37-.756-.824-1.225-1.176-.468-.366-.949-.805-1.522-1.137-.575-.32-1.151-.76-1.819-.992-.655-.273-1.33-.57-2.039-.746a29.06 29.06 0 0 0-2.14-.602"/>
        <g transform="translate(0 -.209)">
            <mask id="b" fill="#fff">
                <use xlink:href="#a"/>
            </mask>
            <path fill="#FEFEFE" d="M324.954 193.845l-20.23 1.24a590.5 590.5 0 0 1-10.118.56c-3.373.16-6.745.366-10.12.48l-10.123.403-10.127.318c-3.375.103-6.75.206-10.127.268l-10.13.206-18.672.224-.734-22.14-.44-11.828-.505-11.823-2.118-44.035 7.067-.063 10.25-.176 10.25-.176c3.417-.044 6.833-.155 10.248-.24l20.499-.534 20.493-.671 20.493-.767 20.491-.878c6.83-.346 13.66-.637 20.488-1.045 6.726-.386 13.452-.732 20.175-1.194a911.632 911.632 0 0 0-.118 11.214l-.009 11.517c-.008 3.839.05 7.676.076 11.514.026 3.838.065 7.675.137 11.51l.183 11.51.265 11.507.284 11.506.276 8.847-7.507.204-10.123.37c-3.375.11-6.75.263-10.123.436-3.373.173-6.747.302-10.118.51a2282 2282 0 0 0-20.233 1.226zM217.376 136.96a.761.761 0 0 1-.047-.007l.042-.063.005.07zm-40.224 3.09c.013.014.022.03.026.05-.016-.007-.05-.04-.075-.06l-.02-.027c-.053-.084-.137-.151-.173-.248-.207-.348-.32-.784-.328-1.262-.017-.862.263-1.822.666-2.661 3.547.075 7.087.282 10.613.713 1.826.21 3.648.478 5.472.71 1.823.234 3.65.43 5.48.567 1.829.134 3.662.206 5.496.268 1.832.086 3.668.083 5.504.12 2.544.006 5.09-.02 7.64-.137l.352 5.159a169 169 0 0 0-6.638-.783 146.784 146.784 0 0 0-3.368-.32c-1.121-.094-2.244-.21-3.367-.287-2.244-.153-4.486-.353-6.732-.451-2.244-.14-4.49-.211-6.732-.32-2.244-.09-4.483-.212-6.714-.342l-3.334-.215c-1.097-.088-2.224-.16-3.224-.351a4.516 4.516 0 0 1-.49-.12c-.04-.01-.108-.04-.053-.002zm36.394 14.857l-2.038 10.044a368.516 368.516 0 0 0-1.91 10.074c-.567 3.272-1.109 6.549-1.707 9.813-.394.178-.822.35-1.25.492a24.216 24.216 0 0 1-4.974 1.091c-.564.076-1.132.108-1.7.157-.569.018-1.14.07-1.706.055a26.166 26.166 0 0 1-1.714-.046 8.842 8.842 0 0 1-1.7-.204c-1.125-.23-2.215-.658-3.298-1.015a18.874 18.874 0 0 0-1.632-.47 22.685 22.685 0 0 0-1.656-.33c-.16-.034-.322-.055-.482-.085-.042-.477-.19-.792-.322-1.07-.606-1.101-1.272-1.765-1.868-2.446l-1.636-1.75-.657-.734c-.226-.21-.297-.5-.544-.614-.463-.261-.694-.571-.808-.49-.084-.015-.004-.154.103-.223.105-.083.218-.148.311-.191a2.66 2.66 0 0 1 .297-.126s-.097-.05-.308-.124a1.976 1.976 0 0 0-.424-.102c-.173-.005-.45-.03-.756.28-.302.358-.26.812-.22 1.128.053.332.143.645.25.963.08.34.386.52.58.799l.708.79c.49.527 1.035 1.11 1.628 1.744.5.552 1.063 1.187 1.433 1.797-.218-.032-.431-.07-.65-.1-.141-.02-.286-.031-.428-.05-.67-.346-1.377-.81-2.077-1.307-1.954-1.398-3.974-3.133-6.07-5.014l-1.596-1.444a9.872 9.872 0 0 0-.477-.407 6.213 6.213 0 0 0-.561-.374 7.545 7.545 0 0 0-1.17-.541c-1.588-.56-3.19-.706-4.791-.77-3.203-.09-6.431.268-9.677.746-3.245.487-6.502 1.133-9.74 1.853-6.471 1.447-12.857 3.19-18.808 4.933a459.034 459.034 0 0 0-8.55 2.6c-1.353.43-2.688.792-3.944 1.253l-3.622 1.364a336.256 336.256 0 0 0-10.025 3.985l-17.448.046-13.937.094c.118-1.063.291-2.472.555-4.222.284-2.022.74-4.462 1.293-7.24.555-2.778 1.322-5.88 2.244-9.226 1.859-6.684 4.538-14.323 8.329-22.03a113.467 113.467 0 0 1 6.466-11.5 119.074 119.074 0 0 1 3.817-5.555l1.049-1.402.526-.702.5-.63c.096-.12.194-.237.29-.357.814.129 1.736.266 2.752.44 1.707.28 3.636.672 5.615 1.259a33.31 33.31 0 0 1 5.938 2.383c.956.517 1.92 1.037 2.819 1.639a37.93 37.93 0 0 1 2.632 1.824c.826.607 1.672 1.31 2.459 1.93l2.245 1.75c1.148.878 2.142 1.624 2.93 2.21-.183.155-.367.307-.546.463-.732.585-1.442 1.194-2.194 1.752a75.151 75.151 0 0 1-4.567 3.265c-.773.523-1.573 1.01-2.352 1.529l-2.397 1.463-11.147 6.807 12.675-3.264c1.05-.271 2.294-.501 3.466-.692a62.756 62.756 0 0 1 3.608-.452 69.478 69.478 0 0 1 7.288-.417c1.219-.001 2.44.006 3.657.073 1.22.05 2.438.12 3.656.205 1.21.105 2.499.21 3.708.34 1.224.12 2.457.27 3.688.416 2.464.278 4.93.604 7.398.965l7.433 1.056c2.482.36 4.984.637 7.48.923.44.044.88.079 1.319.12.167.07.332.139.535.212.563.214 1.268.4 2.087.589.821.156 1.76.317 2.79.38.517.034 1.054.066 1.612.06.558.018 1.133.002 1.722-.048.593-.03 1.198-.08 1.814-.161a18.119 18.119 0 0 0 1.875-.294 30.469 30.469 0 0 0 3.849-.937c1.286-.395 2.59-.826 3.845-1.327 2.52-.968 4.988-2.001 7.32-2.783 1.158-.375 2.32-.695 3.32-.724.496-.017.909.09 1.064.276.089.09.148.236.18.419.004.035.011.124.013.115a.792.792 0 0 1-.056.359c-.3.732-.994 1.414-1.58 1.917-.607.513-1.18.929-1.67 1.242-.977.637-1.591.927-1.591.927s.66-.148 1.763-.604c.544-.238 1.209-.54 1.918-.996a9.65 9.65 0 0 0 1.099-.804c.365-.324.752-.684 1.042-1.247a1.953 1.953 0 0 0 .21-.75c.005-.138-.002-.18-.005-.274-.026-.333-.12-.723-.376-1.056-.542-.69-1.352-.82-1.982-.86-1.316-.044-2.537.266-3.786.586-2.49.664-5.002 1.646-7.52 2.518a58.802 58.802 0 0 1-3.755 1.184c-.618.199-1.25.313-1.86.48-.323.093-.645.172-.968.245.093-.294.186-.631.272-1.01.284-1.26.4-2.92.266-4.56-.133-1.638-.514-3.257-.995-4.456a11.32 11.32 0 0 0-.686-1.44c-.195-.346-.341-.54-.341-.54s-.114.215-.25.587c-.143.372-.306.9-.448 1.53-.282 1.26-.4 2.92-.27 4.56.13 1.64.508 3.259.99 4.458.172.426.34.774.499 1.077-.561.129-1.12.219-1.663.319-.58.119-1.15.209-1.706.276-1.114.15-2.172.275-3.153.319-.65.043-1.252.058-1.829.062l-11.988-2.987c-2.435-.584-4.867-1.217-7.327-1.745a202.489 202.489 0 0 0-7.42-1.504c-1.248-.204-2.493-.41-3.755-.588-1.274-.194-2.477-.343-3.756-.51-1.275-.133-2.55-.3-3.833-.354a67.687 67.687 0 0 0-3.85-.13c-2.207-.02-4.417.06-6.623.243a66.369 66.369 0 0 0 2.263-1.835c.761-.616 1.48-1.286 2.218-1.93a58.145 58.145 0 0 0 2.117-2.036c.69-.695 1.37-1.4 2.026-2.125.672-.711 1.303-1.462 1.942-2.2a47.923 47.923 0 0 0 1.83-2.29 63.745 63.745 0 0 0 1.716-2.374 72.37 72.37 0 0 0 1.608-2.442c.517-.826.995-1.675 1.468-2.526.933-1.707 1.787-3.454 2.507-5.256.736-1.791 1.351-3.637 1.756-5.52-.734 1.777-1.663 3.452-2.617 5.096-.978 1.632-1.996 3.23-3.103 4.767-.55.768-1.13 1.516-1.7 2.267a69.679 69.679 0 0 1-1.776 2.2c-1.212 1.443-2.498 2.816-3.797 4.17-.663.665-1.314 1.34-2.005 1.976a62.148 62.148 0 0 1-2.078 1.896c-.28.25-.57.494-.859.737a20.255 20.255 0 0 0-.71-1.096c-.418-.6-.88-1.287-1.425-2.001a55.385 55.385 0 0 0-1.805-2.264 52.84 52.84 0 0 0-2.162-2.45c-.401-.421-.841-.823-1.277-1.241-.467-.383-.919-.797-1.416-1.167a23.557 23.557 0 0 0-3.163-2.038 22.386 22.386 0 0 0-3.47-1.497 21.675 21.675 0 0 0-3.541-.877 22.678 22.678 0 0 0-6.356-.117 25.75 25.75 0 0 0-1.407.215c.159-.194.31-.392.472-.584a155.696 155.696 0 0 1 9.207-10.12c3.165-3.241 6.416-6.312 9.629-9.223 6.422-5.828 12.705-11 18.178-15.35 1.159-.918 2.27-1.793 3.35-2.638.5.293 1.075.63 1.725 1.017 1.24.729 2.724 1.654 4.416 2.707 1.69 1.06 3.556 2.317 5.54 3.722 1.968 1.414 4.043 3.057 5.894 4.958.456.479.885.979 1.267 1.494.17.256.388.537.494.754.067.126.13.203.208.365l.23.505.851 2.058c.292.725.676 1.42 1.016 2.143 1.457 2.84 3.202 5.714 5.505 8.277 2.302 2.544 5.08 4.836 8.304 6.414 3.213 1.589 6.833 2.354 10.352 2.33 3.531-.018 6.94-.903 9.934-2.277 1.494-.698 2.918-1.48 4.203-2.4a28.889 28.889 0 0 0 3.548-3.01c.262-.263.487-.517.728-.773l.385-.418.367-.434c.474-.584.903-1.182 1.276-1.797a20.905 20.905 0 0 0 1.75-3.7c.89-2.438 1.284-4.751 1.505-6.783.228-2.035.245-3.81.232-5.26-.002-1.09-.054-2.001-.087-2.713 1.85-.288 3.74-.703 5.644-1.311 2.797-.893 5.594-2.182 8.175-3.923a30.416 30.416 0 0 0 6.893-6.412 34.978 34.978 0 0 0 2.673-3.914l.225-.402c.137.155.285.32.464.499a51.55 51.55 0 0 0 3.388 3.269 96.648 96.648 0 0 0 4.994 4.112c.913.728 1.877 1.446 2.846 2.175l2.946 2.184 5.81 4.228c1.855 1.358 3.632 2.606 5.178 3.695l1.294.883-.232.002c-3.418.042-6.836.056-10.252.136l-10.25.199-10.25.2-10.248.284-3.246.09.218 3.18 1.986 29.08-.03-.017-.153-.08-.24-.11-.335-.154-1.3-.558a1.666 1.666 0 0 0-.714-.145c-.248-.015-.496-.057-.752-.091-4.077-.552-9.483-1.148-14.91-1.666-5.433-.508-10.847-.96-15.022-1.043-.262-.003-.523 0-.775-.021a1.875 1.875 0 0 0-.757.037c-.494.139-.938.246-1.653.512-.106.058-.181.113-.272.167l-.008.005c.12-.052-.172.078-.147.068l-.018.016-.037.033-.075.066-.142.13a3.47 3.47 0 0 0-.496.565 2.827 2.827 0 0 0-.487 1.255c-.084.808.234 1.304.41 1.59.2.29.344.402.344.402s-.036-.181-.031-.5c.002-.307.09-.785.383-1.12.149-.166.337-.292.573-.38.136-.033.237-.085.392-.11l.107-.021.053-.011.025-.006.013-.003c.032-.014-.254.114-.127.06l.01-.001c.1-.004.216-.02.309-.016.1.127.538.168.972.284.22.06.434.038.67.012.236-.02.474-.017.72-.014 3.975.078 9.398.525 14.782 1.03 5.39.514 10.786 1.11 14.787 1.652.248.036.494.062.73.115.23.07.462.1.698.063l1.298-.117.26-.02.066-.006-.02-.023-.014-.032-.002-.018-.001-.01c-.243-.167-.063-.043-.115-.08l.008.004.136.06c.016.008.058.03.051.023a.212.212 0 0 1-.04-.044.166.166 0 0 1-.03-.107l.035.003c.131.037.226.344.256.595.03.248.035.485.031.703a172.272 172.272 0 0 0-6.65-.84c-1.828-.165-3.654-.37-5.483-.487a139.975 139.975 0 0 0-5.493-.34c-1.834-.066-3.67-.073-5.508-.041-1.84.03-3.68.094-5.516.102-3.678.04-7.34-.154-10.995-.493l-.315-.028-.177.283c-.651 1.045-1.143 2.133-1.298 3.437a4.136 4.136 0 0 0 .266 2.029c.052.174.159.323.242.486l.068.119.034.059.119.139.079.084c.065.055.133.108.206.158.172.116.236.137.325.184a6.11 6.11 0 0 0 .708.285c1.18.383 2.291.617 3.425.829a59.01 59.01 0 0 0 3.382.528c2.252.298 4.507.519 6.757.74.525.046 1.053.09 1.578.137 2.184.329 4.368.649 6.553.962 3.05.404 6.094.774 9.157 1.044 1.531.136 3.064.27 4.6.37.9.055 1.797.102 2.696.143-.248 1.054-.49 2.11-.715 3.169-.36 1.67-.745 3.333-1.084 5.008zm-70.1-69.673l5.892-4.463 4.507-3.364a124.257 124.257 0 0 0 4.202 4.7l.442-.405a120.02 120.02 0 0 1-4.01-4.767c.011-.01.04-.03.04-.03s-.032.015-.048.02c-3.395-4.253-6.476-8.748-9.029-13.527-1.754-3.301-3.26-6.736-4.313-10.29-.513-1.776-.924-3.584-1.12-5.39-.092-.9-.141-1.81-.064-2.654-.012-.743.483-1.603.883-2.388.871-1.592 1.864-3.161 2.873-4.783.984-1.653 2-3.284 2.748-5.453a8.305 8.305 0 0 0 .372-1.87c.01-.183.026-.354.017-.555-.008-.201-.004-.363-.052-.654l-.07-.391-.048-.212-.02-.086-.01-.043-.005-.021c-.024-.073.046.129-.054-.166l-.079-.22c-.422-1.12-.819-1.924-1.197-2.79-.745-1.69-1.428-3.312-1.838-4.861-.415-1.532-.44-2.997-.059-3.674.16-.343.427-.624.76-.85.08-.04.037-.054.315-.195l.31-.17.043-.023c-.06.034-.138.077-.064.037l.013-.004.053-.017c.131-.056.288-.093.495-.106.82-.091 2.288.327 3.674 1.04.703.353 1.41.772 2.102 1.234a23.825 23.825 0 0 1 1.945 1.444l2.984 2.479 1.988-3.523c.042-.075.202-.362.332-.562.136-.222.286-.444.442-.668.311-.445.651-.885.994-1.323.702-.866 1.482-1.677 2.29-2.462.83-.76 1.704-1.482 2.65-2.107.458-.336.963-.598 1.44-.91l1.422-.762 1.688-.722 1.784-.653a105.67 105.67 0 0 1 3.575-1.267c1.194-.422 2.389-.781 3.585-1.182 1.202-.368 2.405-.707 3.614-1.062 2.427-.604 4.886-1.18 7.39-1.427 2.502-.32 5.038-.318 7.57-.145 1.261.134 2.53.247 3.778.5 1.254.227 2.507.452 3.734.815 1.233.326 2.46.683 3.657 1.139 1.209.414 2.4.877 3.565 1.419 1.174.512 2.343 1.026 3.472 1.625 1.14.575 2.268 1.13 3.415 1.765l1.715.924.86.452.77.425c1.036.578 2.006 1.243 2.942 1.93a27.235 27.235 0 0 1 4.942 4.843c1.445 1.815 2.645 3.848 3.642 6.017.987 2.174 1.766 4.479 2.379 6.859.594 2.383 1.09 4.83 1.377 7.324.346 2.49.506 5.018.635 7.569.093 2.549.126 5.128.04 7.712l.401.08c.177.082.431.19.774.307.704.234 1.78.462 3.17.54.691.047 1.474.033 2.314-.037.862-.091 1.547-.153 2.252.078 1.399.388 2.416 1.946 2.048 3.643-.173.835-.624 1.68-1.325 2.42-.178.194-.357.35-.53.51l-.364.295-.094.075c.038-.031-.036.023-.048.03l-.165.116c-.44.3-.871.548-1.325.7-.45.163-.942.216-1.626.3-.681.079-1.58.227-2.407.594-.606.274-1.113.622-1.588.994l-.036-.26-.029-.205-.014-.102c-.022-.178-.01-.066-.016-.114l-.008-.031-.013-.06-.115-.48c-.303-1.288-.824-2.423-1.41-3.472-1.17-2.106-2.603-3.921-4.1-5.59-1.499-1.667-3.064-3.191-4.618-4.608-3.1-2.843-6.206-5.21-8.895-7.182-5.386-3.94-9.208-6.203-9.208-6.203l-.224.33s.882.663 2.393 1.87c1.504 1.216 3.661 2.937 6.148 5.116 2.486 2.178 5.326 4.786 8.17 7.73 1.413 1.477 2.82 3.049 4.124 4.715 1.303 1.662 2.5 3.439 3.356 5.27.424.914.751 1.847.875 2.724l.054.327.006.03.005.07.012.207.047.823c.026.294.007.515-.012.726l-.041.65c-.214 1.833-.868 3.45-1.9 4.714-.487.663-1.125 1.19-1.755 1.717-.672.48-1.37.928-2.12 1.284-.733.38-1.517.649-2.286.88-.785.248-1.5.418-2.35.582a67.06 67.06 0 0 1-4.335.72 89.871 89.871 0 0 1-3.428.388c-1.917.176-3.036.233-3.036.233l-.063.395s1.07.41 3.018.803c.974.202 2.166.388 3.55.519 1.385.119 2.953.199 4.697.117a23.317 23.317 0 0 0 2.752-.263c.618-.117 1.25-.26 1.89-.446l-.036.07a32.647 32.647 0 0 1-2.375 3.734 28.37 28.37 0 0 1-6.235 6.189c-2.365 1.71-4.966 3.017-7.607 3.956a38.263 38.263 0 0 1-5.144 1.41c.023-.25.067-.383.12-.331-.05-.064-.125.08-.2.347-3.514.71-6.929.935-9.972.896a61.363 61.363 0 0 1-10.957-1.16c-2.619-.52-4.075-.976-4.075-.976l-.093.285s1.45.526 4.065 1.16c2.612.632 6.4 1.387 11.028 1.654 2.948.154 6.272.118 9.754-.393l-.373 2.602a60.705 60.705 0 0 1-.956 5.048c-.47 1.91-1.115 4.033-2.12 6.154a18.38 18.38 0 0 1-1.856 3.087c-.365.49-.755.97-1.183 1.422l-.327.334-.345.324c-.255.232-.515.487-.77.707-1.963 1.678-4.397 3.225-7.038 4.297-2.654 1.095-5.588 1.648-8.535 1.66a20.668 20.668 0 0 1-4.401-.528c-1.454-.327-2.845-.89-4.204-1.515-2.718-1.28-5.139-3.201-7.208-5.42-2.091-2.204-3.837-4.727-5.294-7.312-.351-.656-.72-1.294-1.05-1.95-.343-.683-.682-1.361-1.02-2.032l-.263-.488c-.091-.166-.244-.39-.367-.577-.262-.42-.517-.7-.773-1.03a18.834 18.834 0 0 0-1.625-1.678c-2.219-2.033-4.562-3.452-6.712-4.741-2.157-1.278-4.214-2.28-6.035-3.155-1.819-.876-3.447-1.546-4.781-2.104a90.519 90.519 0 0 0-1.657-.658 762.766 762.766 0 0 1 3.771-2.932zM432.63 191.946a120.136 120.136 0 0 0-5.638-.563 175.88 175.88 0 0 0-7.97-.46c-1.458-.041-2.964-.12-4.495-.134l-4.642-.044c-1.555.018-3.11.036-4.642.052-1.53.007-3.038.09-4.495.13-1.459.036-2.868.129-4.204.202-1.337.064-2.6.165-3.767.258-1.726.13-3.238.283-4.46.422l-.435-9.751-.593-11.494-.61-11.493-.692-11.491c-.22-3.83-.472-7.66-.738-11.488-.264-3.83-.5-7.66-.798-11.486l-.885-11.484a885.206 885.206 0 0 0-.998-11.478l-.024-.28-.28-.008c-6.84-.224-13.677-.321-20.515-.463-6.84-.158-13.675-.2-20.512-.295l-20.51-.128-20.507-.018-20.505.08-17.214.18c-.14-.297-.293-.607-.473-.93-.383-.708-.82-1.51-1.368-2.33a31.948 31.948 0 0 0-1.852-2.59c-.69-.9-1.48-1.788-2.32-2.69-.413-.46-.874-.88-1.326-1.324-.447-.45-.917-.885-1.412-1.297-.96-.867-2.002-1.655-3.04-2.45-1.07-.746-2.132-1.507-3.233-2.156-1.082-.685-2.186-1.28-3.262-1.844-2.163-1.1-4.249-1.984-6.088-2.618a38.723 38.723 0 0 0-4.553-1.317 11.4 11.4 0 0 0-.67-.146c.319-.571.642-1.136.954-1.688a12.22 12.22 0 0 0 3.181-2.81c1.203-1.517 1.947-3.421 2.231-5.358.034-.04.064-.083.096-.121.864-.998 1.796-1.865 2.68-2.22.44-.196.901-.29 1.559-.373.651-.083 1.491-.211 2.274-.52a7.694 7.694 0 0 0 2.058-1.191l.216-.175.14-.115.087-.081.353-.325c.28-.277.548-.556.77-.834.925-1.12 1.608-2.49 1.74-3.938.15-1.437-.232-2.896-1.052-3.963a5.03 5.03 0 0 0-3.136-1.9c-1.132-.223-2.213.095-2.928.274-.756.166-1.45.315-2.099.395a12.93 12.93 0 0 1-3.012.072 7.767 7.767 0 0 1-.591-.078c.797-2.39 1.344-4.841 1.732-7.33.43-2.61.617-5.26.663-7.931-.011-2.668-.137-5.367-.591-8.05-.435-2.681-1.13-5.357-2.168-7.942-1.025-2.588-2.409-5.086-4.168-7.332a24.067 24.067 0 0 0-6.364-5.684c-1.21-.752-2.498-1.36-3.797-1.89-.333-.127-.637-.262-.994-.381l-.923-.306-1.855-.595c-1.219-.407-2.51-.765-3.778-1.132a102.416 102.416 0 0 0-3.805-1.055 80.196 80.196 0 0 1-1.895-.516l-1.91-.473-1.9-.491-1.915-.44c-1.267-.33-2.559-.564-3.84-.85-1.276-.306-2.593-.413-3.883-.684-2.61-.353-5.246-.67-7.912-.73-2.67-.14-5.343.033-8.016.262-2.655.292-5.301.735-7.876 1.368-1.287.32-2.582.628-3.84 1.01l-1.9.553-1.94.649c-.683.279-1.412.578-2.085.89-.64.337-1.31.628-1.922 1.019-1.26.727-2.447 1.578-3.583 2.496a24.68 24.68 0 0 0-3.12 3.082c-.196.23-.367.486-.553.725a25.802 25.802 0 0 0-2.508-1.391c-.995-.47-2.05-.9-3.234-1.191-1.18-.284-2.499-.478-3.978-.276a7.535 7.535 0 0 0-2.221.639l-.272.127-.067.032-.178.097-.076.046-.303.182c-.143.076-.553.359-.86.588a8.566 8.566 0 0 0-1.584 1.575c-.44.617-.832 1.285-1.077 1.989-.531 1.41-.6 2.813-.49 4.043a14.86 14.86 0 0 0 .737 3.389c.69 2.066 1.627 3.87 2.571 5.552.458.823.957 1.684 1.26 2.309l.053.108c-.095-.281-.023-.066-.041-.123l.007.02.017.042.03.083c.014.039.056.147.048.13a.094.094 0 0 1-.007-.043c.002-.06.012.014.024.048.017.034.016.099.024.152.028.233.002.563-.047.923-.213 1.49-.903 3.258-1.549 5-.64 1.77-1.364 3.57-1.852 5.503-.238.979-.456 1.908-.558 3.062-.065 1.039.02 2.02.145 2.994.263 1.942.744 3.817 1.327 5.649 1.19 3.658 2.825 7.128 4.698 10.442 2.7 4.727 5.905 9.117 9.4 13.249l-.751.337c-1 .47-2.477 1.143-4.31 2.087a145.941 145.941 0 0 0-6.563 3.507 176.365 176.365 0 0 0-8.304 4.932c-5.993 3.774-12.796 8.513-19.656 14.184a159.016 159.016 0 0 0-10.223 9.188c-3.335 3.302-6.603 6.8-9.615 10.54a76.312 76.312 0 0 0-2.224 2.834l-.57.758-.51.713-1.021 1.424a92.86 92.86 0 0 0-3.912 6.025c-2.44 4.062-4.523 8.237-6.287 12.368a105.617 105.617 0 0 0-4.298 12.188 106.854 106.854 0 0 0-2.556 11.242c-.614 3.513-.954 6.76-1.197 9.635-.242 2.876-.275 5.392-.287 7.457.007 1.795.07 3.229.138 4.303-1.594.01-3.177.02-4.746.032l-17.843.202c-5.674.09-11.035.178-15.986.258-9.901.169-18.152.439-23.927.567-2.89.063-5.159.164-6.704.21l-2.374.08s.827.029 2.373.08c1.546.048 3.816.148 6.704.21 5.775.129 14.026.399 23.928.568l15.986.258 17.842.202 19.08.13 19.698.052 19.7-.051c6.498 0 12.892-.09 19.08-.127 12.377-.105 23.928-.266 33.829-.46 9.9-.168 18.151-.441 23.928-.57l6.703-.21 1.94-.067a24.922 24.922 0 0 0 1.244 3.023 22.769 22.769 0 0 0 2.08 3.343 17.86 17.86 0 0 0 2.37 2.56c.403.334.78.626 1.124.873.332.254.688.424.95.579.54.299.877.43.877.43s-.08-.368-.266-.94l-.335-1.012a23.457 23.457 0 0 0-.453-1.262 48.874 48.874 0 0 0-1.213-3.032c-.238-.54-.47-1.107-.749-1.655-.25-.567-.54-1.123-.817-1.687-1.135-2.245-2.444-4.435-3.63-6.03a23.637 23.637 0 0 0-1.537-1.903c-.401-.453-.67-.705-.67-.705s-.06.362-.073.975c-.023.616.004 1.479.137 2.487.137 1.006.37 2.16.745 3.35.058.19.14.385.204.576l-1.928-.066c-1.547-.05-3.816-.12-6.703-.211-5.776-.128-14.028-.401-23.928-.57-9.901-.192-21.452-.354-33.828-.46-6.19-.037-12.583-.125-19.08-.126l-19.677-.051a929.402 929.402 0 0 1 8.276-2.392c1.192-.332 2.431-.68 3.715-1.038 1.282-.36 2.575-.836 3.925-1.256a456.66 456.66 0 0 1 8.515-2.59c5.92-1.734 12.273-3.468 18.68-4.9 3.203-.712 6.422-1.35 9.6-1.827 3.175-.47 6.33-.81 9.316-.724 1.48.052 2.945.21 4.172.65.304.11.59.239.844.388.127.074.244.153.356.235.097.079.207.17.352.305l1.6 1.446c2.123 1.903 4.174 3.672 6.245 5.156 1.05.734 2.064 1.42 3.3 1.899.316.115.654.216 1.06.259h.056c.11.043.219.09.33.129.552.219 1.119.389 1.69.546.57.163 1.144.31 1.73.395.586.098 1.18.149 1.778.15.595.024 1.201-.034 1.796-.054.6-.052 1.191-.078 1.781-.1.582-.035 1.189-.004 1.76.013.575.023 1.157.029 1.75.015a34.265 34.265 0 0 0 3.51-.182 34.65 34.65 0 0 0 3.483-.533 25.26 25.26 0 0 0 1.719-.432 15.575 15.575 0 0 0 1.721-.58l.25-.105.083-.312c.858-3.31 1.78-6.603 2.675-9.904.893-3.3 1.726-6.615 2.525-9.937l2.398-9.964c.401-1.661.755-3.332 1.135-4.997.145-.633.282-1.268.418-1.902l.23 3.366.87 11.802.936 11.799 1.964 23.589.132 1.584 1.512-.084 20.236-1.131 10.12-.481c3.373-.168 6.748-.294 10.122-.42l10.123-.37 10.127-.286c3.375-.113 6.753-.137 10.13-.206 3.377-.066 6.755-.12 10.132-.13l20.27-.132a2356.27 2356.27 0 0 0 15.276-.114c-1.788.166-3.596.339-5.433.514-4.942.476-10.052.83-15.25.996-2.6.086-5.223.126-7.856.142l-7.923-.068c-5.29-.081-10.583-.2-15.786-.113-5.202.08-10.322.16-15.276.239-2.478.022-4.913.116-7.296.195-2.382.064-4.713.17-6.98.298-4.537.209-8.823.494-12.78.755-3.956.293-7.582.56-10.793.855-3.214.278-6.013.554-8.317.81-2.304.263-4.114.468-5.349.608-1.233.16-1.891.247-1.891.247l.007.2.006.2 1.905.113 5.379.227c2.317.09 5.129.17 8.352.217 3.226.066 6.862.077 10.828.088 3.964-.02 8.26-.04 12.8-.153 2.272-.034 4.603-.092 6.986-.197 2.383-.09 4.817-.17 7.29-.323l15.255-.844c5.196-.284 10.466-.778 15.738-1.234l7.899-.63c2.627-.17 5.245-.316 7.844-.414 5.199-.204 10.32-.213 15.283-.088 4.962.116 9.759.264 14.3.182 4.541-.071 8.83-.313 12.788-.51 3.957-.245 7.585-.47 10.797-.75 3.214-.25 6.014-.533 8.319-.78 2.303-.243 4.113-.474 5.347-.636l1.89-.268-.013-.4-1.906-.132a200.729 200.729 0 0 0-5.38-.256l-1.236-.042 5.952-.242 2.654-.108-.116-2.62-.04-.871c1.216.138 2.71.288 4.42.418 1.166.093 2.43.194 3.767.258 1.337.073 2.745.166 4.204.202 1.457.039 2.964.123 4.495.13l4.642.05c1.555-.013 3.11-.028 4.642-.043 1.53-.013 3.037-.092 4.495-.133a175.88 175.88 0 0 0 7.97-.46c2.334-.177 4.278-.395 5.639-.563a54.579 54.579 0 0 0 2.139-.3s-.779-.13-2.14-.297z" mask="url(#b)"/>
        </g>
        <path fill="#FEFEFE" d="M183.376 39.336s.643-1.167 1.8-2.738a30.09 30.09 0 0 1 2.075-2.527c.386-.442.847-.841 1.252-1.286.46-.393.88-.833 1.364-1.19.481-.36.964-.711 1.498-.955.256-.136.516-.257.747-.406.25-.121.49-.243.708-.385.218-.145.422-.3.612-.473.206-.142.397-.3.582-.464.37-.328.71-.68 1.058-.97.341-.302.647-.638.932-.945.295-.272.561-.534.78-.78.443-.478.71-.847.71-.847l.014-.02.02-.031a.323.323 0 0 0-.127-.44s-.372-.207-1.048-.401a9.056 9.056 0 0 0-1.237-.266c-.474-.046-1.004-.027-1.586.023-.29.027-.6.055-.902.126-.294.087-.609.166-.919.279-.314.104-.636.22-.955.36a9 9 0 0 0-.889.559 7.17 7.17 0 0 0-.835.693c-.254.263-.486.559-.725.842-.492.558-.9 1.183-1.349 1.759-.455.57-.815 1.2-1.21 1.784-.347.613-.686 1.216-.953 1.823-.27.606-.537 1.18-.727 1.754-.213.56-.37 1.105-.52 1.6-.568 1.996-.649 3.379-.649 3.379a.262.262 0 0 0 .131.244c.124.068.28.023.348-.101M215.975 27.106s.403.22.982.466l.463.194c.162.067.329.095.509.205.357.194.729.376 1.11.525.383.156.774.422 1.178.567.404.164.814.436 1.274.535.456.154.963.283 1.51.383.526.181 1.098.313 1.613.598 1.052.52 2.07 1.185 3.03 1.851.495.318.915.7 1.363 1.016a39.662 39.662 0 0 1 3.571 3.201.26.26 0 0 0 .266.065.257.257 0 0 0 .16-.325s-.421-1.29-1.391-3.086c-.246-.445-.53-.922-.836-1.427-.33-.49-.66-1.022-1.066-1.532-.392-.52-.803-1.065-1.294-1.56-.458-.525-.993-1.004-1.53-1.494-.524-.5-1.13-.946-1.69-1.445-.612-.436-1.24-.874-1.926-1.14-.716-.216-1.404-.422-2.112-.402-.705.016-1.353.013-1.947.184a9.646 9.646 0 0 0-1.553.575c-.434.231-.778.524-1.05.753-.538.47-.773.814-.773.814-.007.008-.012.018-.018.028a.322.322 0 0 0 .13.436l.027.015zM192.591 40.07c.018.04.033.08.026.11-.016.061-.038-.013-.026-.11m4.331-3.63c-.453-.178-.817-.145-1.119-.115a4.434 4.434 0 0 0-.744.186c-.39.15-.592.268-.592.268s.236.002.63.058c.194.021.43.057.677.128.242.058.517.166.66.321.07.075.1.141.105.208.006.055-.009.035-.009.096l.001.072c-.002-.005.007.062-.005-.002l-.008.023-.027.088a2.203 2.203 0 0 1-.423.731 4.056 4.056 0 0 1-1.67 1.148 4.218 4.218 0 0 1-1 .25c-.125.031-.357.033-.578.038a1.33 1.33 0 0 1-.199.005c.056-.24.172-.522.288-.78.285-.57.565-1.077.755-1.435l.301-.576s-.229.083-.595.282a6.681 6.681 0 0 0-1.41 1.014c-.273.258-.559.543-.807 1.01-.11.24-.25.531-.208 1.007.026.235.136.51.31.714.171.206.378.343.553.426a2.7 2.7 0 0 0 .968.237c.214.02.423.037.742.017a4.692 4.692 0 0 0 1.611-.359c1.023-.408 1.895-1.179 2.366-2.142.231-.48.37-1.02.308-1.565l-.03-.2-.008-.049c-.012-.087-.01-.044-.015-.073l-.02-.068a1.623 1.623 0 0 0-.184-.429 1.401 1.401 0 0 0-.624-.535M226.19 37.117c-.006-.009.012-.027.025-.039-.003.012 0 .032-.006.042-.008.03-.027.01-.02-.003m-.017-2.048a11.048 11.048 0 0 0-1.157-1.045l-.469-.352s.494.707 1.095 1.788c.15.267.303.562.421.872.105.267.187.601.153.745.011-.009.02-.016 0-.002l-.067.038-.016.01-.004.002c-.048.031.061-.039.048-.032l-.008.002-.032.006c-.17.035-.332.075-.489.082-.312.028-.579-.006-.78-.102a1.656 1.656 0 0 1-.557-.43 3.715 3.715 0 0 1-.49-.72c-.074-.103-.162-.334-.242-.488a3.162 3.162 0 0 1-.163-.353c-.1-.24-.147-.42-.167-.56a.57.57 0 0 1 .126-.458c.106-.168.274-.29.418-.4.296-.206.518-.32.518-.32l-.155-.073a1.928 1.928 0 0 0-1.291-.075 1.7 1.7 0 0 0-.973.815c-.247.451-.284.98-.232 1.441.03.25.07.432.153.708.071.192.102.333.214.576.203.468.462.878.854 1.283.384.396.941.736 1.556.842.616.118 1.216-.023 1.684-.25.238-.115.447-.255.631-.413l.035-.028.07-.048.013-.012.058-.05c.034-.025.176-.167.233-.257.112-.18.175-.386.18-.555-.002-.679-.274-1.018-.485-1.355a7.706 7.706 0 0 0-.683-.832M189.273 159.69a.242.242 0 0 1-.042.065.22.22 0 0 1 .042-.065m7.149 19.637l-.006.036v-.005c.002-.012 0 .009.006-.031m-7.327-21.02a6.129 6.129 0 0 0-.573.363 1.85 1.85 0 0 0-.348.315c-.052.08-.085.11-.138.247a.863.863 0 0 0-.04.323.763.763 0 0 0 .227.455c.304.246.519.194.557.219.54.054.973.057 1.476.073l3.15.065c1.123.054 2.308 0 3.556-.051a76.632 76.632 0 0 1 3.914.014c1.342.05 2.782.12 4.075.415.295.072.587.17.759.265-.067.427-.338.865-.812 1.21-.995.728-2.562 1.08-4.116 1.276-1.58.194-3.244.237-4.943.22-1.702-.015-3.437-.106-5.227-.18l-1.37-.035c-.235-.001-.474.002-.734.016a4.608 4.608 0 0 0-.423.04c-.18.047-.291.008-.717.243-.077.052-.15.113-.216.18-.073.074-.192.254-.146.188l-.045.07-.051.084a2.155 2.155 0 0 0-.105.235 1.563 1.563 0 0 0-.073.893c.126.554.408.847.632 1.08.468.442.91.69 1.35.93 1.75.892 3.486 1.452 5.213 2.085.86.309 1.718.618 2.554.947.827.35 1.835.694 2.76.9.944.219 1.886.365 2.785.508.449.073.889.145 1.289.238.392.087.774.219.917.33.07.056.07.064.07.064.006-.007.008.066-.005.176-.04.24-.192.602-.382.946-.085.163-.247.422-.213.34a.827.827 0 0 1-.24.136c-.244.102-.618.157-1.001.174-1.59.04-3.355-.348-5.031-.755-1.69-.421-3.356-.924-4.997-1.436-1.654-.505-3.228-1.05-4.938-1.482a7.107 7.107 0 0 0-.711-.136c-.15-.014-.267-.038-.523-.02-.128.023-.301.004-.648.228-.188.126-.413.444-.434.692-.027.12-.021.313-.008.365l.006.038c.107.656.384 1.128.665 1.538.585.802 1.265 1.386 1.953 1.893 1.388.997 2.813 1.707 4.225 2.332 1.423.616 2.87 1.027 3.924 1.565.216.108.39.24.459.31a1.145 1.145 0 0 1-.032.149c-.108.395-.265.564-.582.668-.328.1-.831.162-1.348.135a9.742 9.742 0 0 1-1.578-.227c-2.096-.482-3.93-1.225-5.425-1.8-1.496-.598-2.69-1.054-3.51-1.337-.822-.286-1.272-.394-1.272-.394s.425.183 1.18.599l3.25 1.866c1.419.788 3.11 1.789 5.307 2.64.554.206 1.144.4 1.807.53.657.118 1.419.223 2.287-.096.427-.16.873-.442 1.195-.84.336-.4.522-.83.638-1.298.036-.14.045-.208.06-.29l.01-.061c.016-.081.014-.102.019-.156.009-.092.01-.185.002-.283a1.868 1.868 0 0 0-.392-.994c-.391-.48-.78-.688-1.134-.887-1.418-.708-2.766-1.061-4.072-1.635-1.31-.577-2.652-1.256-3.836-2.11a8.203 8.203 0 0 1-.9-.754c1.214.349 2.485.77 3.76 1.162 1.656.515 3.353 1.028 5.11 1.467 1.77.417 3.552.853 5.598.812.519-.03 1.06-.08 1.664-.316a2.73 2.73 0 0 0 .91-.582c.375-.394.406-.561.55-.79.24-.455.485-.932.604-1.596.045-.34.069-.741-.095-1.18a2.164 2.164 0 0 0-.777-.991c-.612-.42-1.138-.53-1.633-.657-.496-.114-.964-.19-1.424-.265-.917-.145-1.796-.282-2.647-.481a14.646 14.646 0 0 1-2.482-.813 95.476 95.476 0 0 0-2.613-.97c-1.716-.622-3.467-1.207-4.95-1.968a5.96 5.96 0 0 1-.334-.19l1.217.032c1.76.072 3.533.165 5.283.18 1.752.017 3.49-.023 5.21-.234 1.71-.243 3.459-.53 5.066-1.658.79-.573 1.48-1.506 1.61-2.613l.016-.143.008-.071c.012-.106.006-.142.006-.217 0-.258-.09-.53-.208-.737-.25-.42-.543-.602-.782-.748-.492-.275-.91-.385-1.321-.492-1.616-.362-3.07-.412-4.483-.471a84.606 84.606 0 0 0-4.012-.018c-1.27-.007-2.471.017-3.592.156-1.087.108-2.103.208-3.048.3.963-.793 1.808-1.408 2.38-1.856l1.068-.796-1.225.527c-.801.354-1.957.856-3.416 1.663M304.185 145.196c-11-13-26.333 6.667-5.667 14 13.639 4.84 25.667-6.333 21-15.333-4.666-9-15.333 1.333-15.333 1.333"/>
        <path fill="#FEFEFE" d="M312.768 132.696v-6s-8 0-9.25 14c0 0 9.25-2 9.25-8"/>
    </g>
</svg>
