<?xml version="1.0" encoding="UTF-8"?>
<svg width="32px" height="32px" viewBox="0 0 32 32" version="1.1" xmlns="http://www.w3.org/2000/svg" xmlns:xlink="http://www.w3.org/1999/xlink">
    <!-- Generator: sketchtool 45 (43475) - http://www.bohemiancoding.com/sketch -->
    <title>746CB8D0-4C73-4C7A-B932-A83F57DF5E96</title>
    <desc>Created with sketchtool.</desc>
    <defs></defs>
    <g id="Page-1" stroke="none" stroke-width="1" fill="none" fill-rule="evenodd">
        <g id="главная_вход" transform="translate(-1219.000000, -103.000000)" fill-rule="nonzero" fill="#FF7628">
            <g id="Group-7" transform="translate(946.000000, 52.000000)">
                <g id="Group-6" transform="translate(198.000000, 51.000000)">
                    <g id="Group-9">
                        <path d="M91.0150588,13.2606036 C92.5428747,13.2550384 93.7596931,12.0277442 93.7541279,10.4966547 C93.7485627,8.96491049 92.5291253,7.74612788 91.0006547,7.74481841 C89.4594169,7.74318159 88.2285217,8.98455243 88.2403069,10.530046 C88.2517647,12.0555703 89.4823325,13.2661688 91.0150588,13.2606036 Z M91,0 C82.1634169,0 75,7.16374425 75,16 C75,24.8362558 82.1634169,32 91,32 C99.8365831,32 107,24.8362558 107,16 C107,7.16374425 99.8365831,0 91,0 Z M91.0229156,4.86563683 C94.1394373,4.87414834 96.6408389,7.42334527 96.624798,10.5742404 C96.6090844,13.6524604 94.0667621,16.1473146 90.9554783,16.1368389 C87.8759488,16.1263632 85.3503223,13.5732379 85.3686547,10.488798 C85.3860051,7.37063939 87.9129412,4.85712532 91.0229156,4.86563683 Z M97.3351816,18.3511407 C96.6460767,19.058578 95.816532,19.570578 94.8953248,19.927734 C94.024532,20.2652481 93.0702609,20.4351509 92.1254834,20.5484194 C92.2685422,20.7035908 92.3356522,20.779867 92.4246957,20.8689105 C93.7066598,22.1577494 94.994844,23.4400409 96.2725524,24.7324808 C96.7079488,25.1731151 96.7986292,25.7191611 96.5589974,26.2308338 C96.2974322,26.7906292 95.7104655,27.1585882 95.1346292,27.118977 C94.7699437,27.0937698 94.4854629,26.9127366 94.2330639,26.6583734 C93.2653708,25.6847877 92.2793453,24.7285524 91.3319488,23.7366343 C91.0553248,23.4478977 90.9230691,23.5028951 90.6791816,23.7536573 C89.7059233,24.7560512 88.716624,25.7424041 87.7217596,26.7235192 C87.2749054,27.1641535 86.7432634,27.2440307 86.2247161,26.9919591 C85.6737596,26.7254834 85.3234783,26.1627417 85.3503223,25.5967263 C85.3693095,25.2150179 85.5572174,24.9223529 85.8197647,24.6611151 C87.0889616,23.3945371 88.3542302,22.1240307 89.6198261,20.8545064 C89.7039591,20.7703734 89.7818721,20.6810026 89.9039795,20.5500563 C88.1777801,20.3696777 86.621156,19.944757 85.2884501,18.9027519 C85.1228031,18.7731151 84.9522455,18.6480614 84.8016573,18.502711 C84.2179642,17.9425882 84.1593657,17.300624 84.620624,16.64 C85.0157545,16.074312 85.6783427,15.9230691 86.3674476,16.2481432 C86.5010128,16.3106701 86.6280307,16.3898926 86.7498107,16.4736982 C89.2332072,18.1802558 92.6450128,18.2270691 95.1382302,16.5499744 C95.3850639,16.3614118 95.6492481,16.2062404 95.955335,16.128 C96.5498312,15.9747928 97.1050435,16.1938005 97.4238977,16.714312 C97.7889105,17.3091355 97.7846547,17.8892276 97.3351816,18.3511407 Z" id="Shape"></path>
                    </g>
                </g>
            </g>
        </g>
    </g>
</svg>