<?xml version="1.0" encoding="UTF-8"?>
<svg width="14px" height="13px" viewBox="0 0 14 13" version="1.1" xmlns="http://www.w3.org/2000/svg" xmlns:xlink="http://www.w3.org/1999/xlink">
    <!-- Generator: sketchtool 45 (43475) - http://www.bohemiancoding.com/sketch -->
    <title>D5D54AB9-EE41-450B-9303-AC762C285997</title>
    <desc>Created with sketchtool.</desc>
    <defs></defs>
    <g id="Page-1" stroke="none" stroke-width="1" fill="none" fill-rule="evenodd">
        <g id="icons" transform="translate(-155.000000, -72.000000)" fill-rule="nonzero" fill="#FFFFFF">
            <g id="pair-of-mountains" transform="translate(155.000000, 72.000000)">
                <path d="M13.3524001,12.1683051 L7.91986469,1.08519242 C7.73713467,0.712208214 7.32708693,0.471792845 6.874442,0.471792845 C6.42179706,0.471792845 6.01174932,0.712208214 5.82901931,1.08519242 L0.396085791,12.1683051 C0.315668661,12.3324039 0.333185263,12.5205083 0.442265925,12.6709918 C0.550550377,12.8207588 0.736465226,12.9106906 0.935517528,12.9106906 L6.87404389,12.9106906 L12.8125703,12.9106906 C13.0116226,12.9106906 13.1971393,12.8211171 13.30622,12.6709918 C13.4160968,12.5205083 13.4332153,12.3324039 13.3524001,12.1683051 Z M9.1575719,6.49937521 C9.05326849,6.57425868 8.89601717,6.58751557 8.79728723,6.5061828 C8.51702159,6.27329161 7.86612056,5.59145785 7.65950427,5.59145785 C7.35853719,5.59145785 7.18416738,6.00851223 6.87404389,6.00851223 C6.67897264,6.00851223 6.25379692,5.42162643 6.25379692,5.42162643 C6.15108593,5.32452871 5.9842801,5.31127183 5.86445062,5.39081313 L5.33656392,5.74014992 C5.22867757,5.81145045 5.08058266,5.8085841 4.97627925,5.73298404 C4.87197584,5.65774227 4.83654453,5.52839808 4.89068676,5.41804349 L6.57865028,1.96444624 C6.63438492,1.85050871 6.73988264,1.73800435 6.87404389,1.73800435 C7.00780704,1.73800435 7.11410097,1.85050871 7.16943751,1.96444624 L9.24316439,6.18479295 C9.29690851,6.29443096 9.26227341,6.42341685 9.1575719,6.49937521 Z" id="Shape"></path>
            </g>
        </g>
    </g>
</svg>