<?xml version="1.0" encoding="UTF-8"?>
<svg width="12px" height="13px" viewBox="0 0 12 13" version="1.1" xmlns="http://www.w3.org/2000/svg" xmlns:xlink="http://www.w3.org/1999/xlink">
    <!-- Generator: sketchtool 45 (43475) - http://www.bohemiancoding.com/sketch -->
    <title>F51751D0-0775-4B4C-A584-A108CCEC9F0A</title>
    <desc>Created with sketchtool.</desc>
    <defs></defs>
    <g id="Page-1" stroke="none" stroke-width="1" fill="none" fill-rule="evenodd">
        <g id="icons" transform="translate(-123.000000, -73.000000)" fill-rule="nonzero" fill="#FFFFFF">
            <g id="palm-tree" transform="translate(123.000000, 73.000000)">
                <path d="M8.76391135,3.25306112 C8.65459839,3.25306112 8.5450429,3.25696358 8.43502441,3.26454802 L8.8769063,3.02248529 C8.95224361,2.98114568 8.99909517,2.90214843 8.99909517,2.81625023 L8.99909517,2.63435593 L9.27376659,2.7220841 C9.33371454,2.74091292 9.40032092,2.73471749 9.4570499,2.70486477 L11.104902,1.81375909 C11.2064101,1.75886008 11.2530411,1.63852322 11.215141,1.52967326 C11.1786298,1.42472576 10.9172753,0.901311136 9.34681093,0.901311136 C8.30412666,0.901289088 6.80946261,1.91916959 6.05432567,3.08655618 C5.29918873,1.91916959 3.80452468,0.901289088 2.76186246,0.901289088 C1.19142015,0.901289088 0.930065598,1.42470372 0.893532403,1.52965121 C0.855632246,1.63852322 0.90226333,1.75886008 1.00377137,1.81373704 L2.65162349,2.70484273 C2.70766898,2.73469544 2.77427537,2.74089087 2.8349068,2.72206205 L3.10957822,2.63433388 L3.10957822,2.81622818 C3.10957822,2.90212639 3.15642978,2.98112363 3.23176709,3.02246325 L3.67364898,3.26452598 C3.56363049,3.25694153 3.45409705,3.25303907 3.34476204,3.25303907 C1.64430388,3.25306112 0.410090426,4.1432408 0.410090426,5.36964934 C0.410090426,5.43876917 0.440406143,5.5044716 0.493232657,5.54900814 C0.545816645,5.59356673 0.615642009,5.61307903 0.683857883,5.60159213 L2.29656582,5.33289567 C2.36936763,5.32072528 2.43229204,5.27524069 2.46651021,5.20980283 L2.60845391,4.93742439 L2.69435212,5.10231984 C2.74142416,5.19234098 2.84063923,5.24126503 2.94146379,5.22541267 L4.76655812,4.92121926 C4.2795885,6.34047985 4.35541086,8.38137799 4.48068643,9.71458604 C2.31845928,10.0185149 0.880458061,10.9042409 0.880458061,11.9545978 C0.880436014,12.0845696 0.985626038,12.1897596 1.11561983,12.1897596 L10.9930315,12.1897596 C11.1230253,12.1897596 11.2282153,12.0845696 11.2282153,11.9545758 C11.2282153,10.7712486 9.3960657,9.80745135 6.85216919,9.63413364 C6.36841854,8.39460667 5.85225764,6.45270312 6.42757277,4.76880286 L9.1672096,5.22541267 C9.26664515,5.24080203 9.36702875,5.19234098 9.41432127,5.10231984 L9.50021948,4.93742439 L9.64216318,5.20980283 C9.67638135,5.27526273 9.73930576,5.32072528 9.81210757,5.33289567 L11.4248155,5.60161418 C11.4376694,5.60368667 11.4505453,5.60483316 11.4633991,5.60483316 C11.5187391,5.60483316 11.5727121,5.58532086 11.6154407,5.54903019 C11.6682672,5.5044716 11.698583,5.43879122 11.698583,5.36967139 C11.6985609,4.1432408 10.4643475,3.25306112 8.76391135,3.25306112 Z" id="Shape"></path>
            </g>
        </g>
    </g>
</svg>