<svg xmlns="http://www.w3.org/2000/svg" width="10" height="10" viewBox="0 0 10 10">
    <path fill="#1476C2" fill-rule="nonzero" d="M8.378 6.27c-.36-.355-.81-.355-1.167 0-.273.27-.546.541-.814.816-.074.076-.136.092-.225.042-.177-.097-.365-.175-.534-.28C4.847 6.35 4.184 5.71 3.597 4.99a4.835 4.835 0 0 1-.732-1.172c-.036-.087-.03-.145.042-.216.272-.264.538-.534.807-.805.373-.376.373-.816-.003-1.194-.213-.216-.426-.427-.64-.642-.22-.22-.437-.443-.66-.66-.36-.352-.81-.352-1.167.001-.275.271-.539.549-.819.814-.259.246-.39.546-.417.897-.044.571.096 1.11.294 1.635.403 1.087 1.018 2.052 1.763 2.938a10.913 10.913 0 0 0 3.614 2.827c.633.307 1.289.543 2.002.582.49.028.917-.096 1.259-.479.234-.261.497-.5.745-.75.367-.371.37-.82.005-1.188-.436-.438-.874-.873-1.312-1.309z"/>
</svg>
