<svg xmlns="http://www.w3.org/2000/svg" width="18" height="18" viewBox="0 0 18 18">
    <path fill="#0191D0" fill-rule="nonzero" d="M14.465 10.98c-.595-.588-1.338-.588-1.93 0-.451.447-.902.895-1.346 1.35-.121.125-.223.151-.371.068-.292-.16-.603-.288-.884-.463-1.308-.822-2.403-1.88-3.374-3.07-.482-.592-.91-1.225-1.21-1.938-.06-.144-.049-.239.069-.356.451-.436.89-.884 1.334-1.331.618-.622.618-1.35-.003-1.975-.353-.357-.706-.705-1.058-1.062-.364-.364-.724-.732-1.092-1.092-.595-.58-1.338-.58-1.93.004-.455.447-.89.906-1.353 1.346-.429.406-.645.902-.69 1.482-.072.944.159 1.835.485 2.703.667 1.797 1.683 3.394 2.915 4.857a18.042 18.042 0 0 0 5.976 4.675c1.046.508 2.13.898 3.31.963.81.045 1.516-.16 2.08-.793.388-.432.824-.826 1.233-1.24.607-.614.61-1.357.008-1.963a583.73 583.73 0 0 0-2.17-2.165z"/>
</svg>
