<?xml version="1.0" encoding="UTF-8"?>
<svg width="27px" height="23px" viewBox="0 0 27 23" version="1.1" xmlns="http://www.w3.org/2000/svg" xmlns:xlink="http://www.w3.org/1999/xlink">
    <!-- Generator: sketchtool 45 (43475) - http://www.bohemiancoding.com/sketch -->
    <title>6174D361-363E-450D-92E6-23E1D6A9F6E7</title>
    <desc>Created with sketchtool.</desc>
    <defs></defs>
    <g id="Page-1" stroke="none" stroke-width="1" fill="none" fill-rule="evenodd">
        <g id="бронирование_460" transform="translate(-332.000000, -2755.000000)" fill-rule="nonzero" fill="#FFFFFF">
            <g id="Group-Copy-34" transform="translate(320.000000, 2741.000000)">
                <g id="photo-camera" transform="translate(12.069806, 14.669198)">
                    <path d="M13.3782245,8.02693467 C11.1614527,8.02693467 9.36475712,9.82443291 9.36475712,12.040402 C9.36475712,14.2571738 11.1614527,16.0538693 13.3782245,16.0538693 C15.5944611,16.0538693 17.3916918,14.2571738 17.3916918,12.040402 C17.3916918,9.82443291 15.5944611,8.02693467 13.3782245,8.02693467 Z M24.080804,4.01346734 L20.8700301,4.01346734 C20.4285487,4.01346734 19.9528191,3.67098479 19.813418,3.2519788 L18.9834329,0.761220971 C18.8434967,0.342482546 18.3683022,0 17.9268208,0 L8.82962814,0 C8.38814673,0 7.91241707,0.342482546 7.77301597,0.761488536 L6.94303093,3.25224636 C6.8030947,3.67098479 6.32790017,4.01346734 5.88641876,4.01346734 L2.67564489,4.01346734 C1.2040402,4.01346734 0,5.21750754 0,6.68911223 L0,18.7295142 C0,20.2011189 1.2040402,21.4051591 2.67564489,21.4051591 L24.080804,21.4051591 C25.5524087,21.4051591 26.7564489,20.2011189 26.7564489,18.7295142 L26.7564489,6.68911223 C26.7564489,5.21750754 25.5524087,4.01346734 24.080804,4.01346734 Z M13.3782245,18.7295142 C9.68396155,18.7295142 6.68911223,15.7346649 6.68911223,12.040402 C6.68911223,8.34640667 9.68396155,5.35128978 13.3782245,5.35128978 C17.0719522,5.35128978 20.0673367,8.34640667 20.0673367,12.040402 C20.0673367,15.7346649 17.0719522,18.7295142 13.3782245,18.7295142 Z M23.1443283,8.5601907 C22.6273937,8.5601907 22.2078526,8.14118471 22.2078526,7.62371499 C22.2078526,7.10678039 22.6273937,6.68723927 23.1443283,6.68723927 C23.661798,6.68723927 24.080804,7.10678039 24.080804,7.62371499 C24.080804,8.14118471 23.6615305,8.5601907 23.1443283,8.5601907 Z" id="Shape"></path>
                </g>
            </g>
        </g>
    </g>
</svg>