<?xml version="1.0" encoding="UTF-8"?>
<svg width="23px" height="18px" viewBox="0 0 23 18" version="1.1" xmlns="http://www.w3.org/2000/svg" xmlns:xlink="http://www.w3.org/1999/xlink">
    <!-- Generator: sketchtool 45 (43475) - http://www.bohemiancoding.com/sketch -->
    <title>3B4DC082-1358-497C-84DA-F8F118FD75EA</title>
    <desc>Created with sketchtool.</desc>
    <defs></defs>
    <g id="Page-1" stroke="none" stroke-width="1" fill="none" fill-rule="evenodd">
        <g id="бронирование1920" transform="translate(-1112.000000, -500.000000)" fill-rule="nonzero" fill="#ADBDCB">
            <g id="dish-copy-12" transform="translate(1112.000000, 500.000000)">
                <path d="M22.9979867,15.8656409 L22.9979867,16.3754704 C22.9979867,16.797915 22.6556872,17.1402145 22.2332425,17.1402145 L1.07532175,17.1402145 C0.652877092,17.1402145 0.310577622,16.797915 0.310577622,16.3754704 L0.310577622,15.8656409 C0.310577622,15.4431963 0.652877092,15.1008968 1.07532175,15.1008968 L22.2332425,15.1008968 C22.6556872,15.1008968 22.9979867,15.4432983 22.9979867,15.8656409 Z M22.3097169,13.4345704 C22.3097169,13.857015 21.9674175,14.1993145 21.5449728,14.1993145 L1.76359146,14.1993145 C1.3411468,14.1993145 0.998847334,13.857015 0.998847334,13.4345704 C0.998847334,8.10664902 4.92963214,3.67959627 10.0434251,2.90078085 C9.99733654,2.74742416 9.97184507,2.58529841 9.97184507,2.41715666 C9.97184507,1.48947106 10.7265965,0.734719589 11.6542821,0.734719589 C12.5819677,0.734719589 13.3367192,1.48947106 13.3367192,2.41715666 C13.3367192,2.58529841 13.3112277,2.74742416 13.2651392,2.90078085 C18.3789321,3.6794943 22.3097169,8.10664902 22.3097169,13.4345704 Z M10.8707763,5.09202768 C10.7677908,4.68232876 10.3525857,4.4344497 9.94268282,4.53661951 C9.82113949,4.56720928 6.94274457,5.31003074 5.08788319,7.50637587 C3.5151614,9.36868076 3.3158181,11.6949304 3.30817066,11.7930216 C3.27503175,12.2140387 3.58949453,12.5822375 4.01061363,12.6152745 C4.03100681,12.6169059 4.05119605,12.6176197 4.0713853,12.6176197 C4.46660506,12.6176197 4.80146102,12.3135574 4.83296848,11.9128315 C4.83449797,11.8936619 4.99794928,9.98343307 6.25661614,8.49309972 C7.78212772,6.68667213 10.2757034,6.03031774 10.3163878,6.01971329 C10.7254749,5.91652381 10.9735579,5.5014207 10.8707763,5.09202768 Z" id="Shape"></path>
            </g>
        </g>
    </g>
</svg>