<svg xmlns="http://www.w3.org/2000/svg" width="32" height="43" viewBox="0 0 32 43">
    <g fill="none" fill-rule="evenodd">
        <path fill="#F24841" fill-rule="nonzero" d="M16 0C7.177 0 0 7.102 0 15.831c0 2.277.471 4.45 1.4 6.462 4 8.661 11.67 17.805 13.925 20.401a.895.895 0 0 0 1.35 0c2.254-2.595 9.924-11.74 13.926-20.401A15.297 15.297 0 0 0 32 15.831C32 7.101 24.821 0 16 0zm0 24.054c-4.583 0-8.312-3.69-8.312-8.223 0-4.535 3.729-8.224 8.311-8.224 4.583 0 8.311 3.69 8.311 8.224 0 4.534-3.728 8.223-8.31 8.223z"/>
        <circle cx="16" cy="16" r="9" fill="#FFF"/>
    </g>
</svg>
