<?xml version="1.0" encoding="UTF-8"?>
<svg width="68px" height="72px" viewBox="0 0 68 72" version="1.1" xmlns="http://www.w3.org/2000/svg" xmlns:xlink="http://www.w3.org/1999/xlink">
    <!-- Generator: sketchtool 49.1 (51147) - http://www.bohemiancoding.com/sketch -->
    <title>BFF1FDD6-D95E-4BF6-8E0F-9D91702FB7EF</title>
    <desc>Created with sketchtool.</desc>
    <defs>
        <polygon id="path-1" points="0 0.267540622 67.8514906 0.267540622 67.8514906 72 0 72"></polygon>
    </defs>
    <g id="Page-1" stroke="none" stroke-width="1" fill="none" fill-rule="evenodd">
        <g id="Партнёрка" transform="translate(-926.000000, -176.000000)">
            <g id="Page-1" transform="translate(926.000000, 176.000000)">
                <g id="Group-3">
                    <mask id="mask-2" fill="white">
                        <use xlink:href="#path-1"></use>
                    </mask>
                    <g id="Clip-2"></g>
                    <path d="M1.01108302,39.8475643 C1.01108302,39.8475643 0.150498113,37.7913857 1.08934717,36.1691357 C2.02819623,34.5465643 2.22770566,34.69185 3.01900755,33.86385 C3.80998868,33.0361714 35.9704604,6.10045714 37.324366,5.05645714 C38.6782717,4.01245714 41.4996302,2.06781429 43.7442717,1.45517143 C46.2333283,0.77535 48.1382906,1.74606429 47.8707811,3.69456429 C47.6792906,5.08827857 46.9649698,6.41545714 42.9032528,10.0009929 C38.8418566,13.5862071 13.7662151,34.2858857 12.7244038,35.21385 C11.6825925,36.1421357 9.44019623,37.3947429 10.0291019,40.5653143 C10.6176868,43.7358857 25.8407057,70.2682071 25.8407057,70.2682071 C25.8407057,70.2682071 27.6170453,72.7984929 29.8344226,71.7422786 C32.0518,70.6857429 36.163234,66.9340286 36.163234,66.9340286 L66.869083,40.8873857 C66.869083,40.8873857 68.4805547,39.7392429 67.5760264,37.0180286 C66.6714981,34.2968143 48.6184604,1.65188571 48.4298566,1.30024286 C48.1100642,0.704957143 46.907234,-0.282471429 43.5829321,0.652564286 C40.7782528,1.44135 39.3730264,2.48695714 37.2640642,3.95556429 C35.1547811,5.42417143 1.65195094,33.7815643 1.65195094,33.7815643 C1.65195094,33.7815643 0.0882716981,35.1479571 0.00808301887,36.58635 C-0.105784906,38.6280643 1.01108302,39.8475643 1.01108302,39.8475643" id="Fill-1" fill="#E94E7A" mask="url(#mask-2)"></path>
                </g>
                <path d="M19.7113579,67.9680231 C17.5515964,68.2589003 16.1539913,66.4695939 16.1539913,66.4695939 L0.839806877,39.7760391 C0.839806877,39.7760391 -0.22509266,37.9380519 0.839806877,36.0717487 C1.90470641,34.2054455 5.05847096,31.7037553 5.05847096,31.7037553 C5.05847096,31.7037553 35.6501053,5.63032693 39.2781482,3.40280373 C42.906191,1.17559739 44.9930479,0.650560979 46.5616129,1.20284731 C48.9136646,2.03111839 48.7286968,4.77012444 46.5616129,7.15195828 C42.6295352,11.4736068 16.7983112,32.0765963 15.1440849,33.5631751 C13.4898586,35.0497539 10.5412854,36.5450536 10.3919741,37.9116692 C10.3652318,38.1562848 10.0895311,38.8245418 10.6110065,40.4249998 C11.0248759,41.6959238 11.9993792,43.4779423 13.5864092,46.645588 C14.8859591,49.239401 16.5010048,52.0426581 17.9626005,54.6919215 C21.0663027,60.3171305 23.5763875,65.6147612 23.5763875,65.6147612 C23.5763875,65.6147612 21.2974328,67.7544597 19.7113579,67.9680231 Z" id="Fill-4" fill="#940D51"></path>
                <path d="M12.1453454,59.6023285 C12.1453454,59.6023285 17.1547175,61.0410706 21.4199209,58.4453439 C25.9377956,55.6961015 28.0513604,52.5122099 26.4890782,49.9164832 C25.1004878,47.6096907 23.2433701,47.5850408 20.4816076,48.7882049 C17.1009108,50.2606456 10,55.3971827 10,55.3971827 L12.1453454,59.6023285 Z" id="Fill-6" fill="#761B45" opacity="0.432518116"></path>
                <path d="M5.82262916,48.0963094 C5.82262916,48.0963094 4.09844706,50.2093663 5.64240549,53.6728093 C7.30154208,57.3943034 9.89955515,59.6403139 13.7518361,58.8377572 C16.8248401,58.1974644 22.5348845,55.3694794 23.687618,52.5653657 C24.8403514,49.761252 22.6110353,46.8211629 20.134229,47.0085067 C17.65774,47.1955483 14.3188427,49.9395308 12.8266033,50.8025209 C11.5774122,51.5253054 8.75602326,52.6372815 7.37769292,50.6194075 C6.33220525,49.0895338 5.82262916,48.0963094 5.82262916,48.0963094" id="Fill-8" fill="#ED7298"></path>
                <path d="M5.27978321,50.0160449 C5.27978321,50.0160449 4.34214235,51.883368 5.89986185,55.4199275 C7.57378608,59.2199856 10.0291311,60.108908 12.7764284,59.989809 C15.9469286,59.8521973 22.7341807,56.2952738 23.7752214,53.5566154 C24.7144629,51.0854669 22.55043,48.8429513 20.2458631,49.0086407 C17.7463411,49.1882147 14.7624727,51.8025288 13.2569333,52.6837375 C11.9962881,53.4217806 8.8350715,54.9713009 7.11248855,53.1585905 C5.78589799,51.7624178 5.27978321,50.0160449 5.27978321,50.0160449" id="Fill-10" fill="#E94E7A"></path>
                <path d="M22.7608628,52.0524997 C23.2841673,53.0250378 22.9200361,54.2375807 21.9474694,54.7608698 C20.9752604,55.284159 19.7626819,54.9200384 19.2393774,53.9475003 C18.7157151,52.9753199 19.0798464,51.7624193 20.0524131,51.2391302 C21.0249797,50.715841 22.2375583,51.0799616 22.7608628,52.0524997" id="Fill-12" fill="#940D51"></path>
                <path d="M11,31.0258525 L6.7540885,35 C6.7540885,35 1.47417016,28.654142 1.08181372,26.8230634 C0.789601013,25.459646 1.2142226,24.6002131 3.4368655,23.1148536 C5.6595084,21.6291698 7.12513776,21 7.12513776,21 L11,31.0258525 Z" id="Fill-14" fill="#3AB293"></path>
                <path d="M12,29.9607165 L7.69039491,34 C7.69039491,34 6.32063935,31.2285693 5.22198124,28.6450859 C4.53768584,27.0358273 3.85397282,25.4556783 4.02723059,24.7946989 C4.3356003,23.6008859 4.96602564,22.863019 7.35843884,22.0381395 C9.75085205,21.2129436 11.2498958,21 11.2498958,21 L12,29.9607165 Z" id="Fill-16" fill="#309279"></path>
                <path d="M38,9 C37.8371031,9.08879371 32.0021689,13.2232509 26.4681907,14.2708208 C20.934535,15.3183907 13.7151385,15.5658379 10.2494669,16.3551879 C6.78347274,17.1445379 3.97713033,18.7790604 5.36030231,22.8616124 C6.39961671,25.9285864 8.95983967,34 8.95983967,34 L38,9 Z" id="Fill-18" fill="#6DBFA3"></path>
                <path d="M10.9160524,31 C10.9160524,31 7.6644128,22.776219 7.2727552,21.6096081 C6.88141243,20.4433148 6.75169946,19.1429503 7.99751066,18.2597318 C9.46024476,17.2224266 16.21319,16.5997258 19.7825005,16.3334894 C23.922611,16.0243629 27.1213579,15.0258177 27.8520953,14.7440138 C29.1693746,14.2353689 33,12 33,12 L10.9160524,31 Z" id="Fill-20" fill="#3AB293"></path>
            </g>
        </g>
    </g>
</svg>