<?xml version="1.0" encoding="UTF-8"?>
<svg width="19px" height="13px" viewBox="0 0 19 13" version="1.1" xmlns="http://www.w3.org/2000/svg" xmlns:xlink="http://www.w3.org/1999/xlink">
    <!-- Generator: sketchtool 45 (43475) - http://www.bohemiancoding.com/sketch -->
    <title>9BC283D1-7591-4839-B76D-A3BB42A82B3F</title>
    <desc>Created with sketchtool.</desc>
    <defs></defs>
    <g id="Page-1" stroke="none" stroke-width="1" fill="none" fill-rule="evenodd">
        <g id="главная-copy" transform="translate(-687.000000, -288.000000)" fill-rule="nonzero" fill="#FFFFFF">
            <g id="Group-8" transform="translate(399.000000, 222.000000)">
                <g id="credit-card-2-copy" transform="translate(288.000000, 66.000000)">
                    <path d="M17.1201208,0 L1.71401333,0 C0.785197042,0 0,0.809918388 0,1.76875346 L0,11.2629276 C0,12.1923325 0.769304748,12.9492765 1.71401333,12.9492765 L17.1201208,12.9492765 C18.065418,12.9492765 18.8353113,12.1923325 18.8353113,11.2629276 L18.8353113,1.74697513 C18.8353113,0.799912129 18.0495257,0 17.1201208,0 Z M17.6581044,11.2629276 C17.6581044,11.5484003 17.4220744,11.7720696 17.1201208,11.7720696 L1.71401333,11.7720696 C1.41264835,11.7720696 1.17720696,11.5484003 1.17720696,11.2629276 L1.17720696,1.76875346 C1.17720696,1.46444546 1.4379583,1.17720696 1.71401333,1.17720696 L17.1201208,1.17720696 C17.4014733,1.17720696 17.6581044,1.44855316 17.6581044,1.74697513 L17.6581044,11.2629276 Z" id="Shape"></path>
                    <path d="M4.70882784,8.82905219 L2.9430174,8.82905219 C2.61751967,8.82905219 2.35441392,9.09274655 2.35441392,9.41765567 C2.35441392,9.74256479 2.61751967,10.0062592 2.9430174,10.0062592 L4.70882784,10.0062592 C5.03432556,10.0062592 5.29743132,9.74256479 5.29743132,9.41765567 C5.29743132,9.09274655 5.03432556,8.82905219 4.70882784,8.82905219 Z" id="Shape"></path>
                    <path d="M18.2467079,2.9430174 L0.588603479,2.9430174 C0.263105755,2.9430174 0,3.20671176 0,3.53162088 C0,3.85653 0.263105755,4.12022436 0.588603479,4.12022436 L18.2467079,4.12022436 C18.5722056,4.12022436 18.8353113,3.85653 18.8353113,3.53162088 C18.8353113,3.20671176 18.5722056,2.9430174 18.2467079,2.9430174 Z" id="Shape"></path>
                    <path d="M8.24044871,8.82905219 L6.47463827,8.82905219 C6.14914055,8.82905219 5.88603479,9.09274655 5.88603479,9.41765567 C5.88603479,9.74256479 6.14914055,10.0062592 6.47463827,10.0062592 L8.24044871,10.0062592 C8.56594644,10.0062592 8.82905219,9.74256479 8.82905219,9.41765567 C8.82905219,9.09274655 8.56594644,8.82905219 8.24044871,8.82905219 Z" id="Shape"></path>
                    <path d="M11.7720696,8.82905219 L10.0062592,8.82905219 C9.68076143,8.82905219 9.41765567,9.09274655 9.41765567,9.41765567 C9.41765567,9.74256479 9.68076143,10.0062592 10.0062592,10.0062592 L11.7720696,10.0062592 C12.0975673,10.0062592 12.3606731,9.74256479 12.3606731,9.41765567 C12.3606731,9.09274655 12.0975673,8.82905219 11.7720696,8.82905219 Z" id="Shape"></path>
                    <path d="M15.3036905,8.82905219 L13.53788,8.82905219 C13.2123823,8.82905219 12.9492765,9.09274655 12.9492765,9.41765567 C12.9492765,9.74256479 13.2123823,10.0062592 13.53788,10.0062592 L15.3036905,10.0062592 C15.6291882,10.0062592 15.8922939,9.74256479 15.8922939,9.41765567 C15.8922939,9.09274655 15.6291882,8.82905219 15.3036905,8.82905219 Z" id="Shape"></path>
                </g>
            </g>
        </g>
    </g>
</svg>