<?xml version="1.0" encoding="UTF-8"?>
<svg width="298px" height="143px" viewBox="0 0 298 143" version="1.1" xmlns="http://www.w3.org/2000/svg" xmlns:xlink="http://www.w3.org/1999/xlink">
    <!-- Generator: sketchtool 45 (43475) - http://www.bohemiancoding.com/sketch -->
    <title>DBA2846F-DCDC-40D2-AFF6-E9836DAE836A</title>
    <desc>Created with sketchtool.</desc>
    <defs>
        <path d="M234.374278,116.966977 L3.08387208,116.966977 C1.38069656,116.966977 0,115.657779 0,114.042802 L0,2.92417442 C0,1.30919748 1.38069656,2.96666451e-16 3.08387208,0 L234.374278,0 C234.374278,3.22995388 237.135671,5.84834884 240.542022,5.84834884 C243.948373,5.84834884 246.709766,3.22995388 246.709766,-1.77635684e-15 L268.296871,0 C270.000046,-2.96666451e-16 271.380743,1.30919748 271.380743,2.92417442 L271.380743,36.5521802 L271.380743,114.042802 C271.380743,115.657779 270.000046,116.966977 268.296871,116.966977 L246.709766,116.966977 C246.709766,113.737023 243.948373,111.118628 240.542022,111.118628 C237.135671,111.118628 234.374278,113.737023 234.374278,116.966977 Z" id="path-1"></path>
        <filter x="-8.8%" y="-12.8%" width="117.7%" height="141.0%" filterUnits="objectBoundingBox" id="filter-3">
            <feOffset dx="0" dy="9" in="SourceAlpha" result="shadowOffsetOuter1"></feOffset>
            <feGaussianBlur stdDeviation="6.5" in="shadowOffsetOuter1" result="shadowBlurOuter1"></feGaussianBlur>
            <feColorMatrix values="0 0 0 0 0.0154360817   0 0 0 0 0.114317264   0 0 0 0 0.21619898  0 0 0 0.459380661 0" type="matrix" in="shadowBlurOuter1"></feColorMatrix>
        </filter>
        <rect id="path-4" x="239.542022" y="6.84834884" width="1" height="105.270279"></rect>
        <mask id="mask-5" maskContentUnits="userSpaceOnUse" maskUnits="objectBoundingBox" x="0" y="0" width="0.770968019" height="105.270279" fill="white">
            <use xlink:href="#path-4"></use>
        </mask>
    </defs>
    <g id="Page-1" stroke="none" stroke-width="1" fill="none" fill-rule="evenodd">
        <g id="главная_гайды" transform="translate(-673.000000, -1414.000000)">
            <g id="Group-8-Copy" transform="translate(398.000000, 1216.000000)">
                <g id="Group-13-Copy-25" transform="translate(288.000000, 202.000000)">
                    <g id="Group-2">
                        <g id="Group">
                            <mask id="mask-2" fill="white">
                                <use xlink:href="#path-1"></use>
                            </mask>
                            <g id="Mask">
                                <use fill="black" fill-opacity="1" filter="url(#filter-3)" xlink:href="#path-1"></use>
                                <use fill="#01B2FF" fill-rule="evenodd" xlink:href="#path-1"></use>
                            </g>
                            <rect id="Rectangle" fill="#E53A3A" mask="url(#mask-2)" x="265" y="-7" width="6.38074284" height="123.966977"></rect>
                            <g id="Rectangle-2" stroke-dasharray="2,4" mask="url(#mask-2)" stroke-width="2" stroke="#0B5B94">
                                <use mask="url(#mask-5)" xlink:href="#path-4"></use>
                            </g>
                        </g>
                    </g>
                </g>
            </g>
        </g>
    </g>
</svg>