<?xml version="1.0" encoding="UTF-8"?>
<svg width="124px" height="76px" viewBox="0 0 124 76" version="1.1" xmlns="http://www.w3.org/2000/svg" xmlns:xlink="http://www.w3.org/1999/xlink">
    <!-- Generator: sketchtool 50.2 (55047) - http://www.bohemiancoding.com/sketch -->
    <title>52E85194-0040-4EE8-B018-F2A446AC4CE3</title>
    <desc>Created with sketchtool.</desc>
    <defs></defs>
    <g id="Page-1" stroke="none" stroke-width="1" fill="none" fill-rule="evenodd">
        <g id="бронирование1920-" transform="translate(-1126.000000, -849.000000)">
            <g id="Group-9" transform="translate(1126.000000, 849.000000)">
                <g id="like" transform="translate(0.372996, 0.000000)" fill="#FFA81D" fill-rule="nonzero">
                    <path d="M96.1726581,3.75565205 C97.1053317,1.54505843 99.2359687,0.000462177215 101.714163,0.000462177215 C105.052469,0.000462177215 107.456715,2.85625519 107.758979,6.2597282 C107.758979,6.2597282 107.922127,7.10458815 107.563016,8.62561337 C107.074032,10.6970916 105.924597,12.5374813 104.374917,13.9420379 L96.1726581,21.2601519 L88.10859,13.9415757 C86.5589098,12.5374813 85.4094751,10.6966295 84.9204916,8.62515119 C84.5613799,7.10412597 84.7245285,6.25926602 84.7245285,6.25926602 C85.0267924,2.85579301 87.4310382,0 90.7693443,0 C93.2480007,0 95.2399845,1.54505843 96.1726581,3.75565205 Z" id="Shape"></path>
                    <path d="M115.231004,23.5294259 C115.846428,22.0707674 117.252327,21.0515667 118.887562,21.0515667 C121.090341,21.0515667 122.67678,22.9359596 122.876229,25.1817387 C122.876229,25.1817387 122.983883,25.739219 122.746923,26.7428663 C122.424268,28.1097297 121.665814,29.3241095 120.643259,30.2509051 L115.231004,35.0797572 L109.909935,30.2506001 C108.887379,29.3241095 108.128926,28.1094248 107.80627,26.7425614 C107.569311,25.738914 107.676964,25.1814338 107.676964,25.1814338 C107.876413,22.9356546 109.462853,21.0512617 111.665631,21.0512617 C113.301171,21.0512617 114.61558,22.0707674 115.231004,23.5294259 Z" id="Shape-Copy"></path>
                    <path d="M7.57843791,39.8825589 C8.19386191,38.4239004 9.59976114,37.4046997 11.2349958,37.4046997 C13.4377745,37.4046997 15.0242144,39.2890926 15.223663,41.5348717 C15.223663,41.5348717 15.3313165,42.092352 15.0943569,43.0959993 C14.7717015,44.4628627 14.0132478,45.6772425 12.9906925,46.6040381 L7.57843791,51.4328902 L2.25736857,46.6037331 C1.23481324,45.6772425 0.476359577,44.4625578 0.15370418,43.0956943 C-0.0832554073,42.092047 0.0243980474,41.5345668 0.0243980474,41.5345668 C0.223846658,39.2887876 1.81028652,37.4043947 4.01306528,37.4043947 C5.64860488,37.4043947 6.96301391,38.4239004 7.57843791,39.8825589 Z" id="Shape-Copy-2"></path>
                </g>
                <g id="email" transform="translate(30.108062, 9.655004)">
                    <polygon id="XMLID_1257_" fill="#F24841" fill-rule="nonzero" points="51.0829086 33.1659787 51.0829086 33.1661383 35.9165477 47.4896576 57.4664764 65.4479314 57.4664764 27.1369472"></polygon>
                    <polygon id="XMLID_1258_" fill="#F24841" fill-rule="nonzero" points="0 27.1369472 0 65.4479314 21.5499286 47.4896576"></polygon>
                    <polygon id="XMLID_1259_" fill="#D41D15" fill-rule="nonzero" points="21.5499286 47.4896576 0 65.4479314 28.7332382 65.4479314 28.7332382 54.2738944"></polygon>
                    <polygon id="XMLID_1260_" fill="#AA251F" fill-rule="nonzero" points="28.7332382 54.2738944 28.7332382 65.4479314 57.4664764 65.4479314 35.9165477 47.4896576"></polygon>
                    <polygon id="XMLID_1261_" fill="#F24841" fill-rule="nonzero" points="6.38404664 21.1075964 0 27.1369472 6.38356775 27.1369472"></polygon>
                    <polygon id="XMLID_1262_" fill="#F24841" fill-rule="nonzero" points="57.4664764 27.1369472 51.0821105 21.1072772 51.0825894 27.1369472"></polygon>
                    <polygon id="XMLID_1263_" fill="#F24841" fill-rule="nonzero" points="28.7332382 0 12.2936442 13.982504 45.3926341 13.982504"></polygon>
                    <polygon id="XMLID_1264_" fill="#AA251F" fill-rule="nonzero" points="51.0829086 33.1659787 57.4664764 27.1369472 51.0825894 27.1369472"></polygon>
                    <polygon id="XMLID_1265_" fill="#AA251F" fill-rule="nonzero" points="28.7332382 54.2738944 6.38292924 33.1653402 6.38356775 27.1369472 0 27.1369472 21.5499286 47.4896576"></polygon>
                    <path d="M6.38292924,33.1653402 L28.7332382,54.2738944 L35.9165477,47.4896576 L51.0829086,33.1661383 L51.0825894,27.1369472 L51.0821105,21.1072772 L51.081759,17.9556804 C51.0815126,15.7465414 49.2904518,13.9558802 47.0813129,13.9561266 C47.0798554,13.9561267 47.078398,13.9561277 47.0769406,13.9561295 L38.8897994,13.9659917 L18.5509767,13.9900957 L10.3797595,13.9998523 C8.1727327,14.0024875 6.38488283,15.7921918 6.38453563,17.9992202 L6.38404664,21.1075964 L6.38356775,27.1369472 L6.38292924,33.1653402 Z" id="XMLID_1266_" fill="#FFFFFF" fill-rule="nonzero"></path>
                    <polygon id="XMLID_1266_-path" fill="#434C5C" points="14.3666191 28.7332382 43.0998573 28.7332382 43.0998573 31.1276747 14.3666191 31.1276747"></polygon>
                    <polygon id="XMLID_1266_-path" fill="#434C5C" points="14.3666191 23.9443652 14.3666191 21.5499286 43.0998573 21.5499286 43.0998573 23.9443652"></polygon>
                </g>
            </g>
        </g>
    </g>
</svg>