<?xml version="1.0" encoding="UTF-8"?>
<svg width="17px" height="14px" viewBox="0 0 17 14" version="1.1" xmlns="http://www.w3.org/2000/svg" xmlns:xlink="http://www.w3.org/1999/xlink">
    <!-- Generator: sketchtool 45 (43475) - http://www.bohemiancoding.com/sketch -->
    <title>3EA70A5D-363F-4AA1-AD62-605ED268F5B9</title>
    <desc>Created with sketchtool.</desc>
    <defs></defs>
    <g id="Page-1" stroke="none" stroke-width="1" fill="none" fill-rule="evenodd">
        <g id="выдача-по-стране" transform="translate(-718.000000, -1076.000000)" fill-rule="nonzero" fill="#A7AEB1">
            <g id="Group-23" transform="translate(400.000000, 1029.000000)">
                <g id="double-king-size-bed-copy-3" transform="translate(318.000000, 47.000000)">
                    <path d="M16.7768207,9.0947403 L14.9263741,6.16512824 L14.9263741,0.775972939 L14.1731277,0.0227265205 L2.63743853,0.0227265205 L1.88419211,0.775972939 L1.88419211,6.1650852 L0.0337454396,9.0947403 L16.7768207,9.0947403 Z M13.4198812,1.52921936 L13.4198812,5.28951157 C12.4491403,5.03840073 10.7721555,4.72875189 8.40528309,4.72875189 C6.03841068,4.72875189 4.36142589,5.03840073 3.39068495,5.28951157 L3.39068495,1.52921936 L13.4198812,1.52921936 Z" id="Shape"></path>
                    <polygon id="Shape" points="0 10.0216638 0 11.5281567 1.75519328 11.5281567 1.75519328 13.6026834 3.26168612 13.6026834 3.26168612 11.5281567 13.5488801 11.5281567 13.5488801 13.6026834 15.0553729 13.6026834 15.0553729 11.5281567 16.8106092 11.5281567 16.8106092 10.0216638"></polygon>
                    <path d="M7.7939483,3.94498823 L7.7939483,3.06739159 C7.7939483,2.54648941 7.03794715,2.12406882 6.10538504,2.12406882 C5.17282293,2.12406882 4.41686483,2.54648941 4.41686483,3.06739159 L4.41686483,4.38466892 C4.41686483,4.38466892 5.41287181,4.13390243 6.0974652,4.0690802 C6.71379294,4.01067132 7.7939483,3.94498823 7.7939483,3.94498823 Z" id="Shape"></path>
                    <path d="M12.3937444,4.38466892 L12.3937444,3.06739159 C12.3937444,2.54648941 11.6377433,2.12406882 10.7051811,2.12406882 C9.77261904,2.12406882 9.01661789,2.54648941 9.01661789,3.06739159 L9.01661789,3.94498823 C9.01661789,3.94498823 10.0968163,4.01062827 10.713144,4.0690802 C11.3977805,4.13390243 12.3937444,4.38466892 12.3937444,4.38466892 Z" id="Shape"></path>
                </g>
            </g>
        </g>
    </g>
</svg>