<?xml version="1.0" encoding="UTF-8"?>
<svg width="11px" height="12px" viewBox="0 0 11 12" version="1.1" xmlns="http://www.w3.org/2000/svg" xmlns:xlink="http://www.w3.org/1999/xlink">
    <!-- Generator: Sketch 49.1 (51147) - http://www.bohemiancoding.com/sketch -->
    <title>₽</title>
    <desc>Created with Sketch.</desc>
    <defs></defs>
    <g id="Page-1" stroke="none" stroke-width="1" fill="none" fill-rule="evenodd">
        <g id="раннее_бронирование" transform="translate(-1227.000000, -487.000000)" fill="#F24841">
            <g id="Group-6" transform="translate(665.000000, 437.000000)">
                <g id="Group-12-Copy-2">
                    <g id="Group-3-Copy-31" transform="translate(458.000000, 47.000000)">
                        <path d="M108.210938,5.6015625 L108.210938,9.125 L109.570312,9.125 C110.9375,9.125 111.648438,8.453125 111.648438,7.359375 C111.648438,6.2734375 110.9375,5.6015625 109.585938,5.6015625 L108.210938,5.6015625 Z M111.265625,13.4921875 L108.210938,13.4921875 L108.210938,15 L105.851562,15 L105.851562,13.4921875 L104.4375,13.4921875 L104.4375,12.0390625 L105.851562,12.0390625 L105.851562,10.8828125 L104.4375,10.8828125 L104.4375,9.15625 L105.851562,9.15625 L105.851562,3.7265625 L110.289062,3.7265625 C112.546875,3.7265625 114.039062,5.2265625 114.039062,7.3359375 C114.039062,9.421875 112.46875,10.921875 110.164062,10.921875 L108.210938,10.921875 L108.210938,12.0390625 L111.265625,12.0390625 L111.265625,13.4921875 Z" id="₽"></path>
                    </g>
                </g>
            </g>
        </g>
    </g>
</svg>