<?xml version="1.0" encoding="UTF-8"?>
<svg width="14px" height="16px" viewBox="0 0 14 16" version="1.1" xmlns="http://www.w3.org/2000/svg" xmlns:xlink="http://www.w3.org/1999/xlink">
    <!-- Generator: Sketch 45 (43475) - http://www.bohemiancoding.com/sketch -->
    <title>₽</title>
    <desc>Created with Sketch.</desc>
    <defs></defs>
    <g id="Page-1" stroke="none" stroke-width="1" fill="none" fill-rule="evenodd">
        <g id="главная_выход" transform="translate(-821.000000, -454.000000)" fill="#4a535b">
            <g id="Group-8" transform="translate(399.000000, 222.000000)">
                <g id="Group-13-Copy-25" transform="translate(288.000000, 202.000000)">
                    <g id="Group-2">
                        <path d="M139.478516,32.765625 L139.478516,38.0722656 L141.573242,38.0722656 C142.56869,38.0722656 143.320635,37.8323592 143.829102,37.3525391 C144.337568,36.872719 144.591797,36.2246135 144.591797,35.4082031 C144.591797,34.5917928 144.339358,33.947268 143.834473,33.4746094 C143.329587,33.0019508 142.579432,32.765625 141.583984,32.765625 L139.478516,32.765625 Z M143.775391,43.7871094 L139.478516,43.7871094 L139.478516,46 L136.707031,46 L136.707031,43.7871094 L134.6875,43.7871094 L134.6875,41.9824219 L136.707031,41.9824219 L136.707031,40.2207031 L134.6875,40.2207031 L134.6875,38.09375 L136.707031,38.09375 L136.707031,30.4990234 L142.378906,30.4990234 C143.897143,30.4990234 145.114579,30.9591425 146.03125,31.8793945 C146.947921,32.7996465 147.40625,33.9687429 147.40625,35.3867188 C147.40625,36.7903716 146.933598,37.9523066 145.988281,38.8725586 C145.042964,39.7928106 143.800463,40.2529297 142.260742,40.2529297 L139.478516,40.2529297 L139.478516,41.9824219 L143.775391,41.9824219 L143.775391,43.7871094 Z" id="₽"></path>
                    </g>
                </g>
            </g>
        </g>
    </g>
</svg>