<?xml version="1.0" encoding="UTF-8"?>
<svg width="7px" height="8px" viewBox="0 0 7 8" version="1.1" xmlns="http://www.w3.org/2000/svg" xmlns:xlink="http://www.w3.org/1999/xlink">
    <!-- Generator: Sketch 49.1 (51147) - http://www.bohemiancoding.com/sketch -->
    <title>₽</title>
    <desc>Created with Sketch.</desc>
    <defs></defs>
    <g id="Page-1" stroke="none" stroke-width="1" fill="none" fill-rule="evenodd">
        <g id="раннее_бронирование" transform="translate(-1197.000000, -463.000000)" fill="#3E4758">
            <g id="Group-6" transform="translate(665.000000, 437.000000)">
                <g id="Group-12-Copy-2">
                    <g id="Group-4">
                        <g id="Group-13" transform="translate(459.000000, 20.000000)">
                            <path d="M75.8842773,7.51464844 L75.8842773,9.609375 L76.668457,9.609375 C77.5117188,9.609375 77.9790039,9.21728516 77.9790039,8.56201172 C77.9790039,7.91210938 77.5170898,7.51464844 76.6791992,7.51464844 L75.8842773,7.51464844 Z M77.9199219,12.8212891 L75.8842773,12.8212891 L75.8842773,13.7504883 L73.918457,13.7504883 L73.918457,12.8212891 L73,12.8212891 L73,11.6826172 L73.918457,11.6826172 L73.918457,11.0166016 L73,11.0166016 L73,9.64160156 L73.918457,9.64160156 L73.918457,6 L77.2861328,6 C78.8867188,6 79.9663086,7.04199219 79.9663086,8.53515625 C79.9663086,10.0068359 78.8168945,11.0541992 77.1625977,11.0541992 L75.8842773,11.0541992 L75.8842773,11.6826172 L77.9199219,11.6826172 L77.9199219,12.8212891 Z" id="₽"></path>
                        </g>
                    </g>
                </g>
            </g>
        </g>
    </g>
</svg>