<?xml version="1.0" encoding="UTF-8"?>
<svg width="20px" height="22px" viewBox="0 0 20 22" version="1.1" xmlns="http://www.w3.org/2000/svg" xmlns:xlink="http://www.w3.org/1999/xlink">
    <!-- Generator: sketchtool 50.2 (55047) - http://www.bohemiancoding.com/sketch -->
    <title>A34191DE-A658-4753-8DFF-F7671B0492FC</title>
    <desc>Created with sketchtool.</desc>
    <defs></defs>
    <g id="Page-1" stroke="none" stroke-width="1" fill="none" fill-rule="evenodd">
        <g id="бронирование1920-" transform="translate(-1472.000000, -350.000000)" fill="#0090D5">
            <g id="Group-10" transform="translate(1303.000000, 350.000000)">
                <path d="M177.466797,4.99316406 L177.466797,10.7060547 L179.605469,10.7060547 C181.905273,10.7060547 183.179688,9.63671875 183.179688,7.84960938 C183.179688,6.07714844 181.919922,4.99316406 179.634766,4.99316406 L177.466797,4.99316406 Z M183.018555,19.4658203 L177.466797,19.4658203 L177.466797,22 L172.105469,22 L172.105469,19.4658203 L169.600586,19.4658203 L169.600586,16.3603516 L172.105469,16.3603516 L172.105469,14.5439453 L169.600586,14.5439453 L169.600586,10.7939453 L172.105469,10.7939453 L172.105469,0.862304688 L181.290039,0.862304688 C185.655273,0.862304688 188.599609,3.70410156 188.599609,7.77636719 C188.599609,11.7900391 185.464844,14.6464844 180.953125,14.6464844 L177.466797,14.6464844 L177.466797,16.3603516 L183.018555,16.3603516 L183.018555,19.4658203 Z" id="₽"></path>
            </g>
        </g>
    </g>
</svg>