<svg xmlns="http://www.w3.org/2000/svg" width="30" height="30" viewBox="0 0 30 30">
    <g fill="#038ECF" fill-rule="nonzero" transform="matrix(-1 0 0 1 30 0)">
        <circle cx="9.821" cy="2.955" r="2.955"/>
        <path d="M26.552 18.581c-3.097 1.812-4.955-.846-6.355-3.405a3.447 3.447 0 0 0-.28-.748 148.785 148.785 0 0 0-3.398-6.248c2.311-.737 4.424-.064 6.086 2.263 1.352 1.894 4.513.078 3.146-1.837-3.217-4.505-8.013-5.623-12.814-2.772-.2.118-.36.256-.488.407-.073.029-.146.06-.217.093-.195.04-.396.115-.6.236-2.984 1.771-5.758 1.436-7.83-1.466C2.45 3.21-.71 5.026.659 6.942c2.642 3.702 6.353 5.11 10.257 3.915a144.313 144.313 0 0 1 3.506 6.409 22.837 22.837 0 0 0-4.602 3.132c-.062.053-.116.109-.168.164-.31.16-.582.427-.774.825L6.01 27.309c-1.026 2.121 2.275 3.658 3.297 1.548l2.725-5.63c.123-.068.245-.151.362-.254 1.649-1.435 3.537-2.598 5.605-3.319a1.92 1.92 0 0 0 .282-.124c2.532 3.212 6.064 4.982 10.294 2.51 2.228-1.302.213-4.765-2.023-3.459z"/>
    </g>
</svg>
