<?xml version="1.0" encoding="UTF-8"?>
<svg width="21px" height="23px" viewBox="0 0 21 23" version="1.1" xmlns="http://www.w3.org/2000/svg" xmlns:xlink="http://www.w3.org/1999/xlink">
    <!-- Generator: sketchtool 45 (43475) - http://www.bohemiancoding.com/sketch -->
    <title>2FDD7B20-0EE4-4336-AE2F-289052FAD0E5</title>
    <desc>Created with sketchtool.</desc>
    <defs></defs>
    <g id="Page-1" stroke="none" stroke-width="1" fill="none" fill-rule="evenodd">
        <g id="бронирование1920_продолжить" transform="translate(-1377.000000, -933.000000)" fill-rule="nonzero" fill="#45BBF0">
            <g id="school-calendar-copy" transform="translate(1377.291773, 933.000000)">
                <path d="M18.9775753,2.66331652 L17.3042556,2.66331652 L17.3042556,1.52119975 C17.3042556,0.68107155 16.623184,0 15.7830558,0 L15.7222079,0 C14.8820797,0 14.2010081,0.68107155 14.2010081,1.52119975 L14.2010081,2.66331652 L6.35161742,2.66331652 L6.35161742,1.52119975 C6.35161742,0.68107155 5.67054587,0 4.83041767,0 L4.76956968,0 C3.92944149,0 3.24836994,0.68107155 3.24836994,1.52119975 L3.24836994,2.66331652 L1.57505022,2.66331652 C0.734922021,2.66331652 0.053850471,3.34438807 0.053850471,4.18451626 L0.053850471,20.4917775 C0.053850471,21.3320274 0.734922021,22.0129773 1.57505022,22.0129773 L18.9775753,22.0129773 C19.8177035,22.0129773 20.4987751,21.3320274 20.4987751,20.4917775 L20.4987751,4.18451626 C20.4987751,3.34438807 19.8176427,2.66331652 18.9775753,2.66331652 Z M17.9431595,19.6094817 L2.60946604,19.6094817 L2.60946604,7.25733975 L17.9431595,7.25733975 L17.9431595,19.6094817 Z" id="Shape"></path>
                <path d="M4.69357054,12.8470795 L7.34033641,12.8470795 C7.47474962,12.8470795 7.58372837,12.7381007 7.58372837,12.6036875 L7.58372837,9.95692167 C7.58372837,9.82250846 7.47474962,9.71352971 7.34033641,9.71352971 L4.69357054,9.71352971 C4.55915734,9.71352971 4.45017859,9.82250846 4.45017859,9.95692167 L4.45017859,12.6036875 C4.45017859,12.7381007 4.55915734,12.8470795 4.69357054,12.8470795 Z" id="Shape"></path>
                <path d="M8.95292983,12.8470795 L11.5996957,12.8470795 C11.7341089,12.8470795 11.8430877,12.7381007 11.8430877,12.6036875 L11.8430877,9.95692167 C11.8430877,9.82250846 11.7341089,9.71352971 11.5996957,9.71352971 L8.95292983,9.71352971 C8.81851662,9.71352971 8.70953787,9.82250846 8.70953787,9.95692167 L8.70953787,12.6036875 C8.70953787,12.7381007 8.81851662,12.8470795 8.95292983,12.8470795 Z" id="Shape"></path>
                <path d="M13.2122891,12.8470795 L15.859055,12.8470795 C15.9934682,12.8470795 16.1024469,12.7381007 16.1024469,12.6036875 L16.1024469,9.95692167 C16.1024469,9.82250846 15.9934682,9.71352971 15.859055,9.71352971 L13.2122891,9.71352971 C13.0778759,9.71352971 12.9688972,9.82250846 12.9688972,9.95692167 L12.9688972,12.6036875 C12.9688972,12.7381007 13.0778759,12.8470795 13.2122891,12.8470795 Z" id="Shape"></path>
                <path d="M4.69357054,17.1064388 L7.34033641,17.1064388 C7.47474962,17.1064388 7.58372837,16.99746 7.58372837,16.8630468 L7.58372837,14.216281 C7.58372837,14.0818677 7.47474962,13.972889 7.34033641,13.972889 L4.69357054,13.972889 C4.55915734,13.972889 4.45017859,14.0818677 4.45017859,14.216281 L4.45017859,16.8630468 C4.45017859,16.99746 4.55915734,17.1064388 4.69357054,17.1064388 Z" id="Shape"></path>
                <path d="M8.95292983,17.1064388 L11.5996957,17.1064388 C11.7341089,17.1064388 11.8430877,16.99746 11.8430877,16.8630468 L11.8430877,14.216281 C11.8430877,14.0818677 11.7341089,13.972889 11.5996957,13.972889 L8.95292983,13.972889 C8.81851662,13.972889 8.70953787,14.0818677 8.70953787,14.216281 L8.70953787,16.8630468 C8.70953787,16.99746 8.81851662,17.1064388 8.95292983,17.1064388 Z" id="Shape"></path>
                <path d="M13.2122891,17.1064388 L15.859055,17.1064388 C15.9934682,17.1064388 16.1024469,16.99746 16.1024469,16.8630468 L16.1024469,14.216281 C16.1024469,14.0818677 15.9934682,13.972889 15.859055,13.972889 L13.2122891,13.972889 C13.0778759,13.972889 12.9688972,14.0818677 12.9688972,14.216281 L12.9688972,16.8630468 C12.9688972,16.99746 13.0778759,17.1064388 13.2122891,17.1064388 Z" id="Shape"></path>
            </g>
        </g>
    </g>
</svg>