<?xml version="1.0" encoding="UTF-8"?>
<svg width="27px" height="27px" viewBox="0 0 27 27" version="1.1" xmlns="http://www.w3.org/2000/svg" xmlns:xlink="http://www.w3.org/1999/xlink">
    <!-- Generator: sketchtool 45 (43475) - http://www.bohemiancoding.com/sketch -->
    <title>9C02C5D2-79C9-4E4A-86D6-B5E9955C839A</title>
    <desc>Created with sketchtool.</desc>
    <defs></defs>
    <g id="Page-1" stroke="none" stroke-width="1" fill="none" fill-rule="evenodd">
        <g id="главная_гайды" transform="translate(-1131.000000, -2186.000000)" fill-rule="nonzero" fill="#7BC8E9">
            <g id="musica-searcher" transform="translate(1131.000000, 2186.000000)">
                <path d="M25.8019674,22.6761789 L20.0559984,16.9303155 C20.0254611,16.8997783 19.9896406,16.8784339 19.9577297,16.85001 C21.0883476,15.1349578 21.7482269,13.0819882 21.7482269,10.8742191 C21.7482269,4.86852501 16.8797019,0 10.8741134,0 C4.86852501,0 0,4.86852501 0,10.8741134 C0,16.8795962 4.86841934,21.7482269 10.8740078,21.7482269 C13.0818825,21.7482269 15.1347464,21.0883476 16.8497986,19.9577297 C16.8782226,19.989535 16.8994613,20.0253555 16.9299985,20.0558927 L22.6760732,25.8019674 C23.5392524,26.6650409 24.9386825,26.6650409 25.8019674,25.8019674 C26.6650409,24.9387882 26.6650409,23.539358 25.8019674,22.6761789 Z M10.8741134,17.9785145 C6.95034117,17.9785145 3.76960672,14.7977801 3.76960672,10.8741134 C3.76960672,6.95034117 6.95044683,3.76960672 10.8741134,3.76960672 C14.7976744,3.76960672 17.9785145,6.95044683 17.9785145,10.8741134 C17.9785145,14.7977801 14.7976744,17.9785145 10.8741134,17.9785145 Z" id="Shape"></path>
            </g>
        </g>
    </g>
</svg>