<svg xmlns="http://www.w3.org/2000/svg" xmlns:xlink="http://www.w3.org/1999/xlink" width="120" height="122" viewBox="0 0 120 122">
    <defs>
        <path id="a" d="M0 .274h16.71V33.96H0z"/>
    </defs>
    <g fill="none" fill-rule="evenodd">
        <path fill="#BDC7CB" d="M120 117.5c0-2.485-25.072-4.5-56-4.5s-56 2.015-56 4.5 25.072 4.5 56 4.5 56-2.015 56-4.5" opacity=".546"/>
        <path fill="#0A5593" d="M36.974 32.088c.145 3.062-.304 6.284-1.6 8.912-1.49-.401-2.97-1.149-4.374-1.875 1.201-2.096 1.902-4.583 2.008-7.125 1.413.166 2.552-.078 3.966.088"/>
        <path fill="#E84943" d="M42 26.131c.026 2.744-.616 5.805-3.042 7.869 0 0-4.015-.913-9.323-1.83-8.081-1.4-19.16-2.798-23.635-.987l2.485-12.515L10.802 7s7.983 6.799 21.27 10.823a67.641 67.641 0 0 0 8.86 2.056s1.036 2.885 1.067 6.252"/>
        <path fill="#EC686A" d="M42 27c-11.678-.431-23.274-3.104-34-7.803L10.35 7s8.1 7.107 21.58 11.314a66.913 66.913 0 0 0 8.987 2.15S41.968 23.48 42 27"/>
        <g transform="translate(0 2)">
            <mask id="b" fill="#fff">
                <use xlink:href="#a"/>
            </mask>
            <path fill="#575756" d="M.048 28.467c.066 1.303.214 2.649 1.11 3.767.895 1.119 2.734 1.951 4.599 1.672 2.298-.344 3.563-2.071 4.476-3.585 3.584-5.945 6.251-12.174 6.404-18.55.066-2.763.638-9.251-2.889-11.016C9.01-1.616 5.442 5.43 4.416 7.704 1.347 14.508-.309 21.44.048 28.467" mask="url(#b)"/>
        </g>
        <path fill="#3C3C3B" d="M14.824 14.234a27.802 27.802 0 0 1-.219 2.277c-.437 3.233-1.401 6.39-2.697 9.463a60.244 60.244 0 0 1-2.823 5.76c-.78 1.41-1.85 3.01-3.7 3.24-1.5.188-2.943-.692-3.623-1.803-.679-1.11-.75-2.408-.76-3.658C.95 22.76 2.503 16.189 5.185 9.803 6.08 7.67 9.167 1.07 12.88 3.55c2.76 1.843 2.088 8.038 1.944 10.685"/>
        <path fill="#216DB5" d="M39.799 34s-4.22-.904-9.799-1.81c2.238-4.392 3.14-9.363 2.564-14.19a74.806 74.806 0 0 0 9.314 2.032s3.593 9.43-2.08 13.968"/>
        <path fill="#216DB5" d="M37.974 33.088c.145 3.062-.304 6.284-1.6 8.912-1.49-.401-2.97-1.149-4.374-1.875 1.201-2.096 1.902-4.583 2.008-7.125 1.413.166 2.552-.078 3.966.088"/>
        <path fill="#44B0E5" d="M40.982 24c.038-.926.036-1.813-.219-2.71-2.628-.28-5.135-.74-7.713-1.29.198 1 .181 2.036-.05 3.03 2.702.417 5.28.553 7.982.97M41.745 26c.037-.34.217-.713.255-1.054-3.003-.287-5.945-.66-8.948-.946L33 25.07c2.907.3 5.866.46 8.745.93"/>
        <path fill="#FEFEFE" d="M14.975 15.627s.004 0 0 .004c-.45 3.2-1.442 6.326-2.776 9.369-2.073-1.32-4.122-2.48-6.199-3.8.42-2.103 1.137-3.948 1.438-6.2a65.533 65.533 0 0 1 7.562.45l-.025.177"/>
        <path fill="#B0DEF5" d="M12.854 24c.665-.733.888-1.663 1.146-2.524-2.508-.398-4.086-.766-6.482-1.476-.162.499-.284 1.015-.518 1.5 1.816.981 3.832 1.818 5.854 2.5"/>
        <path fill="#143454" d="M36.003 32.095c-.573-.12-1.205-.148-1.762.046-.374.13-.288.61.09.652.632.071 1.27.103 1.905.17.248.027.728.137.763-.227.037-.392-.719-.583-.996-.641M36.72 31.21c-.745-.189-1.723-.316-2.469-.087-.304.094-.364.624 0 .68.381.06.761.034 1.145.057.409.024.812.084 1.218.137.45.058.534-.678.106-.787"/>
        <path fill="#3C3C3B" d="M46.206 46.289c-.35-.41-1.121-.566-1.546-.156-.884.852-1.005 1.884-1.432 2.983-.497 1.28-1.281 2.525-2.29 3.489-1.958 1.87-6.075 3.323-8.622 1.704-2.233-1.42-2.137-4.955-1.86-7.178.353-2.844 2.616-5.704 2.484-8.56-.025-.532-.257-1.085-.722-1.369-.688-.419-1.603-.123-2.282.31-3.49 2.22-3.893 7.65-3.935 11.304-.041 3.65 1.104 7.992 4.937 9.534 3.804 1.53 8.71.19 11.758-2.266 2.277-1.836 5.923-6.956 3.51-9.795"/>
        <path fill="#44B0E5" d="M50 3.077c-.074.069-.147.14-.22.214-1.88 1.916-2.31 5.003-2.498 7.553-.273 3.703-.407 7.421-.61 11.129-.76 13.817-1.519 27.634-2.277 41.452l-.815 14.83c-.204 3.71-1.219 7.736.04 11.365 1.22 3.52 3.53 4.1 6.865 4.444l19.166 1.969 16.377 1.682c4.137.425 8.787.869 11.775-2.623 3.283-3.839 2.82-10.1 3.281-14.87l1.395-14.44 4.057-42.008.994-10.291c.265-2.744 1.137-5.906-.498-8.391-2.63-3.997-9.909-2.79-14.152-2.92L76.241 1.66l-14.396-.443C58 1.1 53.072.225 50.001 3.077"/>
        <path fill="#216DB5" d="M49.678 1.97a6.322 6.322 0 0 0-.21.203c-1.794 1.817-2.204 4.745-2.383 7.163-.26 3.513-.389 7.04-.583 10.556L44.33 59.207l-.777 14.067c-.194 3.519-1.162 7.337.037 10.778 1.164 3.338 3.37 3.89 6.55 4.214l18.28 1.868 15.622 1.596c3.946.403 8.382.824 11.231-2.488 3.132-3.64 2.691-9.58 3.13-14.104l1.33-13.695 3.87-39.843.949-9.76c.252-2.603 1.084-5.602-.476-7.96-2.508-3.79-9.45-2.645-13.498-2.768L74.708.627 60.975.207c-3.67-.112-8.369-.942-11.298 1.763"/>
        <path fill="#DBF2FE" d="M99.753 18.918c-.365 3.696-.806 7.388-1.207 11.083-1.035 9.476-2.065 18.956-3.1 28.432l-1.431 13.132c-.313 2.872-.31 6.89-2.659 9.046-2.675 2.455-7.932.961-11.152.705-4.423-.35-8.842-.701-13.265-1.056-4.376-.346-8.755-.697-13.134-1.044-1.275-.102-3.504.15-4.667-.354-1.416-.607-1.941-2.006-2.09-3.542-.136-1.423.049-2.96.149-4.098.305-3.499.433-7.021.65-10.528.589-9.554 1.174-19.109 1.764-28.66l.758-12.292c.176-2.85.028-6.044 1.756-7.668.782-.733 1.945-1.146 3.694-1.064 8.292.398 16.593.674 24.894.934 4.15.13 8.301.252 12.452.386 1.122.036 2.706-.082 4.046.19.681.133 1.303.37 1.764.776 1.512 1.324.955 3.821.778 5.622"/>
        <path fill="#FEFEFE" d="M97.984 12.43a2.831 2.831 0 0 0-.679-.43c.569 1.364.204 3.198.067 4.606-.362 3.688-.8 7.373-1.197 11.062-1.026 9.457-2.048 18.918-3.075 28.375L91.68 69.15c-.31 2.868-.306 6.878-2.636 9.03-2.653 2.449-7.867.959-11.06.703-4.387-.35-8.77-.7-13.157-1.054-4.339-.346-8.682-.696-13.025-1.042-1.265-.102-3.476.15-4.63-.354-.062-.027-.113-.063-.172-.093.324.665.814 1.209 1.556 1.529 1.153.503 3.364.251 4.63.354 4.342.346 8.685.696 13.024 1.042 4.387.354 8.77.704 13.157 1.054 3.193.255 8.407 1.746 11.06-.704 2.33-2.151 2.327-6.162 2.637-9.029l1.42-13.106c1.026-9.457 2.048-18.919 3.074-28.376.398-3.688.835-7.373 1.197-11.061.175-1.797.728-4.29-.771-5.612"/>
        <path fill="#143454" d="M74.646 88.06c.144-1.148.278-2.436.352-3.597.038-.6-.398-1.142-.984-1.218-3.6-.465-7.084-.774-10.68-1.236a1.057 1.057 0 0 0-1.194 1.03c-.036 1.123-.106 2.497-.14 3.59-.017.578.4 1.084.96 1.173 3.606.576 6.8.918 10.56 1.195a1.055 1.055 0 0 0 1.126-.937M90 5c-1.332 0-1.334 2 0 2 1.332 0 1.334-2 0-2M96 5c-1.332 0-1.334 2 0 2 1.332 0 1.334-2 0-2M85.491 5.502c-2.461-.48-5.382-.174-7.918-.262-2.602-.091-5.554-.481-8.098-.017-.664.122-.601.873 0 1.03 2.608.676 5.76.474 8.475.574 2.468.091 5.385.47 7.708-.302.562-.187.379-.917-.167-1.023"/>
        <path fill="#216DB5" d="M103.596 41c-.518-.258-1.037-.266-1.596-.199.354-4.612.801-9.214 1.341-13.801.495.031 1.164.146 1.659.178-.49 4.634-.915 9.188-1.404 13.822"/>
        <path fill="#FEFEFE" d="M97 12.536C86.01 37.397 68.676 59.468 47.048 76c-.136-1.437.048-2.99.148-4.141.303-3.536.431-7.095.647-10.64.587-9.655 1.17-19.31 1.757-28.962l.755-12.423c.175-2.879.028-6.108 1.749-7.748.778-.741 1.936-1.16 3.678-1.075 8.258.402 16.524.68 24.79.943 4.133.132 8.266.255 12.399.39 1.118.036 2.695-.083 4.029.192"/>
        <path fill="#3C3C3B" d="M114.88 70.119c-.278-2.9-1.11-5.67-2.409-8.245-1.262-2.504-2.986-4.753-4.965-6.678-1.832-1.782-3.943-3.637-6.587-3.103-1.442.292-1.005 2.264.066 2.683 3.857 1.51 7.04 5.925 8.721 9.728a18.247 18.247 0 0 1 1.562 6.728c.07 2.029-.698 4.372.222 6.234.277.561 1.038.67 1.519.373 2.242-1.385 2.097-5.354 1.87-7.72M30.827 37.38c-1.125 1.469-1.101 3.723.067 5.157 1.168 1.434 3.368 1.89 4.995 1.025 1.627-.865 2.496-2.968 1.946-4.739-.885-2.843-5.115-3.914-7.008-1.442"/>
        <path fill="#3C3C3B" d="M107.827 72.38c-1.125 1.469-1.101 3.723.066 5.157 1.168 1.434 3.369 1.89 4.996 1.025 1.627-.865 2.496-2.968 1.946-4.739-.886-2.843-5.115-3.914-7.008-1.442M61.221 113.454c-.018-3.71.27-7.459.435-11.177.08-1.798.165-3.597.236-5.396.07-1.748.302-3.61-.254-5.247-.278-.818-1.307-.872-1.686 0-.676 1.55-.669 3.228-.772 4.862-.123 1.927-.224 3.854-.337 5.78-.183 3.114-.286 6.246-.554 9.364-.998.027-2.063.248-2.803.403-1.197.252-2.422.687-3.362 1.51-.452.397-1.01.983-1.108 1.61-.175 1.13 1.099.79 1.835.784 2.047-.016 4.098-.12 6.099-.592.382-.09.785-.212 1.137-.401.607-.229 1.138-.872 1.134-1.5M80.16 115.441c-.02-3.707.292-7.454.469-11.17.086-1.798.178-3.595.255-5.393.075-1.748.325-3.608-.274-5.245-.3-.817-1.41-.87-1.819 0-.728 1.55-.72 3.227-.832 4.86-.132 1.926-.241 3.852-.363 5.778-.197 3.111-.308 6.242-.597 9.358-1.076.026-2.224.248-3.022.403-1.362.265-2.77.737-3.799 1.657-.447.4-.935.978-1.12 1.539-.357 1.082 1.03.712 1.798.708 2.3-.012 4.606-.101 6.855-.595.412-.09.847-.211 1.226-.4.655-.229 1.227-.872 1.224-1.5"/>
    </g>
</svg>
