<svg xmlns="http://www.w3.org/2000/svg" width="181" height="99" viewBox="0 0 181 99">
    <g fill="none" fill-rule="evenodd">
        <g fill="#FFF6DF" fill-rule="nonzero">
            <path d="M144.19 5.035c1.251-2.963 4.108-5.034 7.43-5.034 4.476 0 7.7 3.828 8.105 8.392 0 0 .219 1.132-.263 3.172-.655 2.777-2.196 5.245-4.274 7.128l-10.997 9.811-10.812-9.812c-2.078-1.882-3.619-4.35-4.274-7.128-.482-2.04-.263-3.172-.263-3.172C129.247 3.83 132.47 0 136.946 0c3.324 0 5.994 2.072 7.245 5.035zM169.743 31.547c.825-1.956 2.71-3.322 4.903-3.322 2.953 0 5.08 2.526 5.347 5.537 0 0 .145.748-.173 2.093-.433 1.833-1.45 3.461-2.82 4.704l-7.257 6.474-7.134-6.475c-1.371-1.242-2.388-2.87-2.82-4.703-.318-1.346-.174-2.093-.174-2.093.268-3.011 2.395-5.538 5.348-5.538 2.193 0 3.955 1.367 4.78 3.323zM10.66 50.79c.826-1.955 2.71-3.321 4.903-3.321 2.954 0 5.08 2.526 5.348 5.537 0 0 .144.747-.173 2.093-.433 1.833-1.45 3.46-2.82 4.703l-7.257 6.475-7.134-6.475c-1.371-1.242-2.388-2.87-2.82-4.703-.319-1.346-.174-2.093-.174-2.093.267-3.011 2.394-5.538 5.348-5.538 2.192 0 3.955 1.367 4.78 3.323z"/>
        </g>
        <path fill="#F24841" fill-rule="nonzero" d="M108.856 54.73L88.522 73.936l28.893 24.077V46.647zM40.367 46.647v51.365L69.26 73.935z"/>
        <path fill="#D41D15" fill-rule="nonzero" d="M69.26 73.935L40.367 98.012h38.524V83.031z"/>
        <path fill="#AA251F" fill-rule="nonzero" d="M78.89 83.03v14.982h38.525L88.522 73.935z"/>
        <path fill="#F24841" fill-rule="nonzero" d="M48.926 38.563l-8.559 8.084h8.559zM117.415 46.647l-8.56-8.084v8.084zM78.89 10.263L56.85 29.01h44.377z"/>
        <path fill="#AA251F" fill-rule="nonzero" d="M108.856 54.73l8.559-8.083h-8.56zM78.89 83.03l-29.965-28.3v-8.083h-8.558L69.26 73.935z"/>
        <path fill="#FFF" fill-rule="nonzero" d="M48.925 54.73l29.966 28.3 9.63-9.095 20.335-19.204v-8.084l-.001-8.084v-5.59a4 4 0 0 0-4.005-4l-12.342.015-27.269.032-12.316.015a4 4 0 0 0-3.996 4v5.528l-.001 8.084-.001 8.082z"/>
        <path fill="#1083C5" d="M59.629 48.787h38.524v3.21H59.629zM59.629 42.367v-3.21h38.524v3.21z"/>
    </g>
</svg>
