<?xml version="1.0" encoding="UTF-8"?>
<svg width="22px" height="18px" viewBox="0 0 22 18" version="1.1" xmlns="http://www.w3.org/2000/svg" xmlns:xlink="http://www.w3.org/1999/xlink">
    <!-- Generator: sketchtool 45 (43475) - http://www.bohemiancoding.com/sketch -->
    <title>B5754F98-30BB-4235-BFDC-4D6D97912B60</title>
    <desc>Created with sketchtool.</desc>
    <defs></defs>
    <g id="Page-1" stroke="none" stroke-width="1" fill="none" fill-rule="evenodd">
        <g id="бронирование1920" transform="translate(-926.000000, -502.000000)" fill-rule="nonzero" fill="#0191d0">
            <g id="double-king-size-bed-copy-7" transform="translate(926.000000, 502.691896)">
                <path d="M21.2826721,11.5373692 L18.9352399,7.82093371 L18.9352399,0.984380644 L17.9796895,0.0288303184 L3.34579121,0.0288303184 L2.39024089,0.984380644 L2.39024089,7.8208791 L0.0428086546,11.5373692 L21.2826721,11.5373692 Z M17.0241392,1.93993097 L17.0241392,6.7101474 C15.7926806,6.39159423 13.6652979,5.99878114 10.6627404,5.99878114 C7.66018284,5.99878114 5.5328002,6.39159423 4.30134154,6.7101474 L4.30134154,1.93993097 L17.0241392,1.93993097 Z" id="Shape"></path>
                <polygon id="Shape" points="0 12.7132422 0 14.6243428 2.22659607 14.6243428 2.22659607 17.2560376 4.13769672 17.2560376 4.13769672 14.6243428 17.187784 14.6243428 17.187784 17.2560376 19.0988847 17.2560376 19.0988847 14.6243428 21.3255354 14.6243428 21.3255354 12.7132422"></polygon>
                <path d="M9.88721573,5.00451737 L9.88721573,3.89121934 C9.88721573,3.23041534 8.92817082,2.69454271 7.74514491,2.69454271 C6.56211901,2.69454271 5.6031287,3.23041534 5.6031287,3.89121934 L5.6031287,5.56228575 C5.6031287,5.56228575 6.86663925,5.24416939 7.73509798,5.16193746 C8.51695656,5.08784136 9.88721573,5.00451737 9.88721573,5.00451737 Z" id="Shape"></path>
                <path d="M15.7224067,5.56228575 L15.7224067,3.89121934 C15.7224067,3.23041534 14.7633617,2.69454271 13.5803358,2.69454271 C12.3973099,2.69454271 11.438265,3.23041534 11.438265,3.89121934 L11.438265,5.00451737 C11.438265,5.00451737 12.8085788,5.08778676 13.5904374,5.16193746 C14.4589507,5.24416939 15.7224067,5.56228575 15.7224067,5.56228575 Z" id="Shape"></path>
            </g>
        </g>
    </g>
</svg>