<?xml version="1.0" encoding="UTF-8"?>
<svg width="9px" height="8px" viewBox="0 0 9 8" version="1.1" xmlns="http://www.w3.org/2000/svg" xmlns:xlink="http://www.w3.org/1999/xlink">
    <!-- Generator: sketchtool 45 (43475) - http://www.bohemiancoding.com/sketch -->
    <title>56212D40-69CE-457D-961B-85E2C39D5781</title>
    <desc>Created with sketchtool.</desc>
    <defs></defs>
    <g id="Page-1" stroke="none" stroke-width="1" fill="none" fill-rule="evenodd">
        <g id="выдача-по-стране" transform="translate(-1111.000000, -1171.000000)" fill-rule="nonzero" fill="#01B2FF">
            <g id="Group-23-Copy" transform="translate(400.000000, 1109.000000)">
                <g id="Group-8" transform="translate(711.000000, 56.000000)">
                    <g id="share-symbol-copy" transform="translate(0.000000, 6.000000)">
                        <path d="M8.58405427,2.35353753 L6.34691515,0.116255567 C6.27302338,0.0424454239 6.18552051,0.00557096188 6.08461059,0.00557096188 C6.03818591,0.00557096188 5.98949611,0.0152844339 5.93907177,0.0346501585 C5.78753344,0.100705849 5.71176428,0.215288087 5.71176428,0.378417279 L5.71176428,1.49711948 L4.77953625,1.49711948 C4.36785645,1.49711948 3.98615373,1.51848504 3.63471378,1.56119575 C3.28323302,1.60388605 2.97346306,1.66308517 2.7054651,1.73889515 C2.43744673,1.81456228 2.19565066,1.90879928 1.98007689,2.02144291 C1.76454392,2.13404572 1.58102868,2.2535051 1.42951076,2.37975983 C1.27797244,2.50599415 1.14498358,2.64973721 1.03040134,2.81092779 C0.915757882,2.97209796 0.824541033,3.13035001 0.756505916,3.28572475 C0.688593238,3.4411403 0.634230445,3.61202395 0.593417538,3.7984369 C0.552563817,3.98489067 0.525402827,4.15965154 0.511812129,4.32273992 C0.498221431,4.48586911 0.491426082,4.66265022 0.491426082,4.85287918 C0.491426082,5.0704732 0.525464047,5.30735131 0.593417538,5.56379922 C0.661391435,5.82008387 0.736160682,6.04145308 0.817725278,6.22792726 C0.899269467,6.41423818 0.995445084,6.60754852 1.1061501,6.80753176 C1.2168347,7.00755582 1.29352215,7.14050387 1.33625327,7.20657997 C1.37896398,7.27249281 1.4198177,7.3328347 1.45863077,7.38717708 C1.49746425,7.43766265 1.54794982,7.46288503 1.61006707,7.46288503 C1.625678,7.46288503 1.64888014,7.45908943 1.67999998,7.45129416 C1.76931903,7.40854264 1.80813211,7.3426298 1.79648002,7.25324953 C1.62171915,5.94817518 1.76546221,5.02949704 2.22762758,4.49741916 C2.67436566,3.98860464 3.52496788,3.73415657 4.77947503,3.73415657 L5.71176428,3.73415657 L5.71176428,4.85275674 C5.71176428,5.01602878 5.78747222,5.1305498 5.93901055,5.1966259 C5.98943489,5.21603243 6.03804307,5.22568469 6.08454937,5.22568469 C6.18943855,5.22568469 6.2768802,5.18881022 6.34685393,5.1150613 L8.58407468,2.87775893 C8.6578032,2.80390797 8.69475929,2.71658875 8.69475929,2.61559721 C8.69473888,2.5146873 8.65778279,2.42722524 8.58405427,2.35353753 Z" id="Shape"></path>
                    </g>
                </g>
            </g>
        </g>
    </g>
</svg>