<svg xmlns="http://www.w3.org/2000/svg" width="1250" height="236" viewBox="0 0 1250 236">
    <g fill="#47C7FF" fill-rule="nonzero">
        <path d="M557.512 20.398l-2.901-1.7 2.514-1.506a.998.998 0 0 0 .345-1.355.967.967 0 0 0-1.335-.35l-3.463 2.074-5.223-3.061 5.222-3.06 3.464 2.073a.958.958 0 0 0 .494.137.971.971 0 0 0 .84-.488.998.998 0 0 0-.344-1.355l-2.515-1.504 2.902-1.701a.998.998 0 0 0 .357-1.352.967.967 0 0 0-1.331-.362l-2.902 1.7-.026-2.963a.981.981 0 0 0-.984-.981.982.982 0 0 0-.966.998l.037 4.083-5.222 3.06v-6.12l3.5-2.009a.998.998 0 0 0 .37-1.349.967.967 0 0 0-1.328-.374l-2.542 1.458V.99A.982.982 0 0 0 545.5 0a.982.982 0 0 0-.975.99V4.39l-2.541-1.458a.967.967 0 0 0-1.329.375.998.998 0 0 0 .37 1.348l3.5 2.009v6.12l-5.222-3.06.037-4.083a.982.982 0 0 0-.966-.998h-.01a.982.982 0 0 0-.974.98l-.026 2.964-2.902-1.7a.967.967 0 0 0-1.331.362.998.998 0 0 0 .357 1.352l2.902 1.7-2.516 1.506a.998.998 0 0 0-.344 1.355.972.972 0 0 0 .84.487.96.96 0 0 0 .494-.137l3.465-2.073 5.222 3.06-5.223 3.061-3.464-2.074a.967.967 0 0 0-1.334.35.998.998 0 0 0 .344 1.355l2.515 1.506-2.901 1.7a.998.998 0 0 0-.357 1.352c.18.317.508.495.845.495a.96.96 0 0 0 .486-.133l2.902-1.7.026 2.963c.005.544.44.981.975.981h.009a.982.982 0 0 0 .965-.999l-.036-4.082 5.222-3.061v6.121l-3.5 2.009a.998.998 0 0 0-.37 1.348c.18.322.51.503.85.503a.96.96 0 0 0 .479-.128l2.541-1.458v3.401c0 .547.437.99.975.99a.982.982 0 0 0 .975-.99V24.61l2.542 1.458a.959.959 0 0 0 .478.128c.34 0 .67-.18.85-.503a.998.998 0 0 0-.37-1.348l-3.5-2.009v-6.121l5.222 3.06-.037 4.083a.982.982 0 0 0 .974 1c.534 0 .97-.438.975-.981l.027-2.965 2.902 1.701a.96.96 0 0 0 .486.133.972.972 0 0 0 .845-.495.998.998 0 0 0-.357-1.352zM192.454 198.508l-3.25-1.876 2.816-1.661a1.092 1.092 0 0 0-1.109-1.881l-3.879 2.288-5.849-3.378 5.848-3.377 3.88 2.287a1.091 1.091 0 0 0 1.109-1.882l-2.816-1.66 3.25-1.877a1.092 1.092 0 0 0-1.092-1.89l-3.25 1.876-.029-3.27a1.09 1.09 0 1 0-2.183.02l.04 4.504-5.848 3.378v-6.755l3.921-2.216a1.092 1.092 0 0 0-1.074-1.902l-2.847 1.61v-3.754a1.092 1.092 0 1 0-2.184 0v3.754l-2.846-1.61a1.091 1.091 0 1 0-1.075 1.902l3.921 2.216v6.755l-5.848-3.378.04-4.505a1.092 1.092 0 0 0-1.082-1.102h-.01c-.598 0-1.086.483-1.091 1.083l-.03 3.27-3.25-1.877a1.091 1.091 0 1 0-1.09 1.891l3.25 1.877-2.818 1.661a1.092 1.092 0 0 0 1.11 1.882l3.88-2.288 5.848 3.377-5.85 3.378-3.879-2.288a1.092 1.092 0 0 0-1.109 1.88l2.817 1.662-3.25 1.876a1.092 1.092 0 0 0 1.092 1.892l3.25-1.877.029 3.27c.005.6.493 1.083 1.091 1.083h.01a1.092 1.092 0 0 0 1.082-1.102l-.04-4.505 5.848-3.378v6.755l-3.92 2.216a1.092 1.092 0 0 0 1.074 1.902l2.846-1.61v3.754a1.092 1.092 0 1 0 2.184 0v-3.754l2.847 1.61a1.091 1.091 0 0 0 1.074-1.901l-3.921-2.217v-6.755l5.848 3.378-.041 4.505a1.092 1.092 0 0 0 1.081 1.102h.01c.599 0 1.086-.483 1.092-1.082l.03-3.271 3.25 1.877a1.092 1.092 0 0 0 1.092-1.891zM1249.512 177.398l-2.901-1.7 2.514-1.506a.998.998 0 0 0 .345-1.355.967.967 0 0 0-1.335-.35l-3.463 2.074-5.223-3.061 5.222-3.06 3.464 2.073a.958.958 0 0 0 .494.137.971.971 0 0 0 .84-.488.998.998 0 0 0-.344-1.355l-2.515-1.504 2.902-1.701a.998.998 0 0 0 .357-1.352.967.967 0 0 0-1.331-.362l-2.902 1.7-.026-2.963a.981.981 0 0 0-.984-.981.982.982 0 0 0-.966.998l.037 4.083-5.222 3.06v-6.12l3.5-2.009a.998.998 0 0 0 .37-1.349.967.967 0 0 0-1.328-.374l-2.542 1.458v-3.401a.982.982 0 0 0-.975-.99.982.982 0 0 0-.975.99v3.401l-2.541-1.458a.967.967 0 0 0-1.329.375.998.998 0 0 0 .37 1.348l3.5 2.009v6.12l-5.222-3.06.037-4.083a.982.982 0 0 0-.966-.998h-.01a.982.982 0 0 0-.974.98l-.026 2.964-2.902-1.7a.967.967 0 0 0-1.331.362.998.998 0 0 0 .357 1.352l2.902 1.7-2.516 1.506a.998.998 0 0 0-.344 1.355.972.972 0 0 0 .84.487.96.96 0 0 0 .494-.137l3.465-2.073 5.222 3.06-5.223 3.061-3.464-2.074a.967.967 0 0 0-1.334.35.998.998 0 0 0 .344 1.355l2.515 1.506-2.901 1.7a.998.998 0 0 0-.357 1.352c.18.317.508.495.845.495a.96.96 0 0 0 .486-.133l2.902-1.7.026 2.963c.005.544.44.981.975.981h.009a.982.982 0 0 0 .965-.999l-.036-4.082 5.222-3.061v6.121l-3.5 2.009a.998.998 0 0 0-.37 1.348c.18.322.51.503.85.503a.96.96 0 0 0 .479-.128l2.541-1.458v3.401c0 .547.437.99.975.99a.982.982 0 0 0 .975-.99v-3.401l2.542 1.458a.959.959 0 0 0 .478.128c.34 0 .67-.18.85-.503a.998.998 0 0 0-.37-1.348l-3.5-2.009v-6.121l5.222 3.06-.037 4.083a.982.982 0 0 0 .974 1c.534 0 .97-.438.975-.981l.027-2.965 2.902 1.701a.96.96 0 0 0 .486.133.972.972 0 0 0 .845-.495.998.998 0 0 0-.357-1.352zM31.376 79.322l-3.714-2.111 3.218-1.869a1.218 1.218 0 0 0 .441-1.682 1.259 1.259 0 0 0-1.708-.434L25.18 75.8 18.495 72l6.683-3.8 4.435 2.574c.199.116.417.17.632.17.428 0 .844-.216 1.076-.605a1.218 1.218 0 0 0-.441-1.682l-3.219-1.868 3.715-2.111c.597-.34.801-1.09.456-1.678a1.258 1.258 0 0 0-1.704-.45l-3.714 2.111-.033-3.679a1.238 1.238 0 0 0-1.26-1.217 1.238 1.238 0 0 0-1.236 1.24l.047 5.068-6.684 3.8v-7.6l4.481-2.493c.6-.334.811-1.083.472-1.674a1.258 1.258 0 0 0-1.7-.465l-3.253 1.81v-4.223C17.248 54.55 16.689 54 16 54s-1.248.55-1.248 1.228v4.223l-3.253-1.81a1.258 1.258 0 0 0-1.7.465c-.34.59-.128 1.34.472 1.674l4.481 2.494v7.598l-6.684-3.8.047-5.068a1.238 1.238 0 0 0-1.237-1.24h-.011c-.684 0-1.241.544-1.248 1.218l-.033 3.68-3.714-2.112A1.258 1.258 0 0 0 .168 63a1.218 1.218 0 0 0 .456 1.678l3.715 2.111-3.22 1.869a1.218 1.218 0 0 0-.441 1.682 1.258 1.258 0 0 0 1.709.435L6.821 68.2l6.683 3.8-6.685 3.8-4.434-2.575a1.259 1.259 0 0 0-1.708.434 1.218 1.218 0 0 0 .441 1.682l3.219 1.869-3.714 2.11A1.218 1.218 0 0 0 .167 81c.231.394.65.614 1.082.614.212 0 .426-.053.623-.164l3.713-2.112.034 3.68a1.239 1.239 0 0 0 1.248 1.217h.011a1.238 1.238 0 0 0 1.237-1.24l-.047-5.068 6.684-3.8v7.6l-4.48 2.493a1.218 1.218 0 0 0-.473 1.674 1.258 1.258 0 0 0 1.7.465l3.253-1.81v4.223c0 .678.559 1.228 1.248 1.228.69 0 1.248-.55 1.248-1.228v-4.223l3.253 1.81c.194.108.405.16.613.16a1.25 1.25 0 0 0 1.087-.625c.34-.59.128-1.34-.472-1.674l-4.481-2.494v-7.598l6.684 3.8-.048 5.067a1.238 1.238 0 0 0 1.248 1.24c.684 0 1.241-.542 1.247-1.217l.035-3.68 3.714 2.112c.197.111.411.164.623.164.431 0 .85-.22 1.082-.614a1.218 1.218 0 0 0-.457-1.678zM871.512 227.991l-2.901-1.583 2.514-1.401c.464-.259.618-.824.345-1.262-.274-.438-.871-.584-1.335-.326l-3.463 1.93-5.223-2.85 5.222-2.848 3.464 1.93c.155.086.326.127.494.127a.987.987 0 0 0 .84-.453c.274-.439.12-1.004-.344-1.262l-2.515-1.4 2.902-1.585c.467-.254.626-.817.357-1.258-.27-.44-.865-.592-1.331-.337l-2.902 1.583-.026-2.76c-.005-.508-.447-.92-.984-.912-.538.004-.97.42-.966.93l.037 3.8-5.222 2.85v-5.699l3.5-1.87c.47-.25.635-.813.37-1.256-.265-.443-.86-.599-1.328-.348l-2.542 1.357v-3.167c0-.508-.437-.921-.975-.921s-.975.413-.975.921v3.167l-2.541-1.357c-.47-.25-1.064-.095-1.329.348-.265.443-.1 1.006.37 1.256l3.5 1.87v5.7l-5.222-2.85.037-3.802c.005-.509-.428-.925-.966-.93h-.01c-.534 0-.969.408-.974.914l-.026 2.759-2.902-1.583c-.466-.255-1.062-.104-1.331.337-.27.44-.11 1.004.357 1.258l2.902 1.584-2.516 1.401c-.463.259-.618.823-.344 1.262a.987.987 0 0 0 .84.454c.169 0 .339-.042.494-.128l3.465-1.93 5.222 2.85-5.223 2.849-3.464-1.93c-.463-.259-1.06-.113-1.334.325s-.12 1.003.344 1.262l2.515 1.401-2.901 1.583c-.467.255-.626.818-.357 1.259.18.295.508.46.845.46.165 0 .333-.04.486-.123l2.902-1.583.026 2.76c.005.505.44.912.975.912h.009c.538-.004.97-.42.965-.93l-.036-3.8 5.222-2.85v5.699l-3.5 1.87c-.47.25-.635.812-.37 1.256.18.3.51.468.85.468.162 0 .327-.039.479-.12l2.541-1.357v3.167c0 .508.437.921.975.921s.975-.413.975-.921v-3.167l2.542 1.357c.151.081.316.12.478.12.34 0 .67-.169.85-.468.265-.443.1-1.006-.37-1.256l-3.5-1.87v-5.7l5.222 2.85-.037 3.801c-.006.51.427.926.965.93h.01c.533 0 .969-.407.974-.912l.027-2.76 2.902 1.583c.153.084.32.124.486.124a.987.987 0 0 0 .845-.461c.27-.44.11-1.004-.357-1.259z"/>
    </g>
</svg>
