<svg xmlns="http://www.w3.org/2000/svg" xmlns:xlink="http://www.w3.org/1999/xlink" width="232" height="165" viewBox="0 0 232 165">
    <defs>
        <path id="a" d="M0 165V.607h231.455V165z"/>
    </defs>
    <g fill="none" fill-rule="evenodd">
        <path fill="#FFF" d="M111.415 53.6c.37.667.806 1.417 1.344 2.193.261.395.55.795.861 1.199.3.417.64.818.995 1.228.71.823 1.507 1.648 2.372 2.464.875.8 1.824 1.578 2.825 2.321l.373.283.42.28.75.5c.59.34 1.188.716 1.776 1.009 1.185.61 2.438 1.175 3.753 1.504 1.312.338 2.663.48 3.958.395a14.476 14.476 0 0 0 6.59-2.096 13.828 13.828 0 0 0 3.582-3.147c.707-.912.986-1.529.986-1.529l-.335-.356-.416.15c-.276.093-.665.244-1.168.4-.987.338-2.39.755-4.004 1.072-1.617.321-3.443.517-5.333.433a37.234 37.234 0 0 1-2.913-.215c-.997-.121-2.03-.309-3.051-.63-.525-.152-.987-.34-1.467-.531l-.803-.39-.349-.171-.372-.198a35.7 35.7 0 0 1-2.865-1.66 30.15 30.15 0 0 1-2.556-1.782c-.78-.614-1.523-1.206-2.156-1.812-.65-.59-1.2-1.18-1.68-1.715-.476-.537-.858-1.035-1.175-1.447-.628-.835-.905-1.352-.905-1.352l-.452.178s.148.625.558 1.639c.201.512.495 1.108.857 1.782"/>
        <g>
            <mask id="b" fill="#fff">
                <use xlink:href="#a"/>
            </mask>
            <path fill="#FFF" d="M177.773 162.41a789.132 789.132 0 0 0-7.807-.031c-.21-.205-.413-.44-.639-.677l-1.48-1.593c-.52-.593-1.04-1.283-1.618-1.99-.593-.692-1.136-1.504-1.712-2.35l-.898-1.29-.859-1.408c-.29-.48-.587-.968-.89-1.466-.293-.504-.555-1.04-.842-1.573l-.871-1.622c-.285-.556-.545-1.135-.825-1.713l-.836-1.764-.773-1.85a86.178 86.178 0 0 1-1.53-3.838c-1.016-2.618-1.86-5.402-2.746-8.219-.419-1.417-.818-2.853-1.216-4.295-.357-1.455-.756-2.903-1.082-4.373-.705-2.924-1.367-5.864-1.91-8.782-.552-2.915-1.092-5.79-1.544-8.585-.43-2.799-.866-5.505-1.218-8.082-.347-2.577-.675-5.017-.953-7.274-.547-4.515-.96-8.292-1.243-10.94l-.335-3.076c-.008-.078-.016-.135-.024-.204a39.967 39.967 0 0 0 2.75-5.2 39.697 39.697 0 0 0 3.08-11.958 320.47 320.47 0 0 0 5.903-11.013c.419.854.872 1.876 1.267 3.068.574 1.772.986 3.918.652 6.08-.15 1.075-.534 2.154-1.055 3.126l-.46.84c-.164.298-.332.597-.468.911-.297.617-.55 1.255-.788 1.897-.45 1.296-.76 2.63-.961 3.95-.216 1.32-.252 2.634-.245 3.891.004 1.259.13 2.467.296 3.598.157 1.133.39 2.186.644 3.144.038.145.08.272.119.413a33.84 33.84 0 0 0-.084-.13s.112.35.326.974c.231.747.47 1.403.702 1.99a191.97 191.97 0 0 0 2.637 6.877c.586 1.458 1.22 3.04 1.936 4.69.707 1.655 1.435 3.408 2.251 5.192.81 1.787 1.615 3.649 2.494 5.511.862 1.872 1.769 3.757 2.674 5.644.92 1.88 1.838 3.76 2.775 5.595.914 1.845 1.885 3.629 2.79 5.37.898 1.746 1.829 3.402 2.7 4.978.857 1.582 1.722 3.054 2.517 4.412.778 1.365 1.548 2.592 2.22 3.682.657 1.095 1.296 2.021 1.798 2.792.492.775.95 1.352 1.232 1.753l.451.607-1.11-2.667c-.699-1.696-1.68-4.125-2.916-7.01a242.99 242.99 0 0 0-2.007-4.653c-.723-1.646-1.478-3.384-2.302-5.163-.646-1.393-1.295-2.837-1.967-4.289.43-.13.903-.288 1.408-.475 2.058-.752 4.594-2.018 7.003-3.342.616-.304 1.178-.683 1.808-.934l.948-.375.949-.35 3.475-1.258c.086-.03.163-.06.248-.089.844 1.438 1.754 2.845 2.539 4.325l1.257 2.23 1.177 2.268c.802 1.5 1.51 3.04 2.249 4.552.72 1.52 1.36 3.063 2.05 4.563l1.83 4.534c.55 1.51 1.094 2.995 1.625 4.448.49 1.47.967 2.911 1.432 4.312l1.242 4.13 1.049 3.9c.367 1.246.607 2.464.894 3.614.269 1.153.573 2.241.773 3.28.393 2.075.843 3.88 1.108 5.381.257 1.503.504 2.684.653 3.492l.072.357c-4.276-.12-9.063-.18-14.271-.262-5.425-.087-11.302-.184-17.518-.208m-30.663-38.33l-.008.022c-.004.021-.03.025.008-.023m.427-.068l-.009-.005c-.011-.008-.024-.016.01.005m10.683 38.407l-20.907.19-10.75.162-10.836.247c-3.617.07-7.233.142-10.836.214-3.602.046-7.19.08-10.75.083-7.12.012-14.127-.095-20.908-.287-6.78-.148-13.336-.366-19.551-.414-.595-.005-1.17-.005-1.758-.009a728.268 728.268 0 0 1 7.847-2.275l3.034-.848c1.048-.293 2.103-.683 3.207-1.026a372.938 372.938 0 0 1 6.954-2.116c4.838-1.416 10.026-2.833 15.26-4.001 2.618-.584 5.247-1.103 7.844-1.494 2.593-.383 5.17-.661 7.61-.591 1.209.042 2.405.172 3.408.53.248.092.481.197.689.318.103.06.199.125.29.193.08.064.169.138.288.248l1.307 1.181c1.735 1.555 3.41 3 5.102 4.212.858.6 1.685 1.16 2.695 1.55.259.095.535.177.866.212l.046.001c.09.035.178.074.27.105.45.18.914.318 1.38.446.465.132.935.253 1.414.323.477.08.963.121 1.452.122.487.02.982-.028 1.467-.044.49-.043.974-.064 1.456-.081.474-.03.97-.004 1.438.01.468.019.945.023 1.428.012.961-.004 1.914-.046 2.868-.149a28.324 28.324 0 0 0 2.845-.435c.47-.105.94-.215 1.404-.352.472-.137.92-.271 1.407-.475l.204-.085.066-.255c.701-2.703 1.456-5.394 2.186-8.09a300.26 300.26 0 0 0 2.064-8.116l1.959-8.14c.326-1.357.616-2.722.925-4.082.315-1.36.595-2.726.874-4.094l.118-.576.414-.004.677-.005.314.009.052.002c.051.01-.04-.01-.09-.07.127.08-.005.018.227.12a.512.512 0 0 0 .469-.088c.185-.173.183-.282.213-.364.02-.086.027-.157.033-.227.01-.137.009-.262.004-.385a9.513 9.513 0 0 0-.062-.716c-.054-.468-.152-.925-.246-1.382l-.244.024c-.011.459-.05.92-.078 1.372-.018.225-.041.45-.075.664-.009.056-.02.104-.032.156h-.004l-.37-.087-.696-.134-1.38-.209a137.496 137.496 0 0 0-5.503-.65c-.916-.099-1.834-.184-2.75-.261-.918-.077-1.833-.17-2.75-.235-1.836-.125-3.666-.288-5.501-.368-1.833-.114-3.669-.172-5.5-.26a303.836 303.836 0 0 1-5.485-.28l-2.723-.176c-.896-.072-1.816-.131-2.633-.287a3.754 3.754 0 0 1-.4-.097c-.033-.008-.089-.033-.044-.003.01.01.017.025.02.04-.012-.005-.04-.032-.06-.048l-.017-.023c-.043-.068-.112-.123-.141-.201a2.108 2.108 0 0 1-.268-1.032c-.014-.704.214-1.488.544-2.174 2.897.062 5.788.23 8.67.583 1.49.172 2.98.39 4.47.58 1.49.19 2.981.35 4.475.464 1.495.108 2.993.168 4.49.218 1.498.07 2.998.068 4.496.099 2.983.005 5.967-.03 8.963-.285.285 1.366.583 2.733.898 4.097.35 1.494.777 2.973 1.16 4.454.426 1.471.854 2.936 1.301 4.382a97.787 97.787 0 0 0 3.092 8.352c.565 1.332 1.108 2.645 1.754 3.884l.915 1.853.977 1.768c.326.58.632 1.158.961 1.713l1.02 1.613c.343.523.66 1.048 1.008 1.542l1.05 1.435 1.008 1.369 1.053 1.242c.687.803 1.33 1.567 2.021 2.213.677.657 1.265 1.305 1.887 1.835l1.732 1.424c.076.06.147.12.22.18-.31.002-.612 0-.924 0l-9.988.04m-132.75.373c.08-.767.206-1.825.4-3.154a86.64 86.64 0 0 1 .87-5.15c.37-1.977.851-4.194 1.475-6.58 1.222-4.778 2.955-10.259 5.365-15.871a95.746 95.746 0 0 1 4.105-8.443 91.472 91.472 0 0 1 5.076-8.186c1.008-1.474 2.105-2.923 3.227-4.355.666.107 1.42.219 2.253.36a37.52 37.52 0 0 1 4.586 1.029 27.28 27.28 0 0 1 4.85 1.947c.783.422 1.568.847 2.304 1.34.75.467 1.465.975 2.15 1.488.675.496 1.366 1.071 2.008 1.577.652.507 1.267.986 1.835 1.43.938.716 1.75 1.326 2.393 1.805-.149.126-.299.25-.446.378-.598.477-1.177.976-1.792 1.43a60.755 60.755 0 0 1-3.73 2.667c-.633.428-1.287.826-1.923 1.25l-1.957 1.195-9.107 5.56 10.355-2.666c.857-.22 1.874-.41 2.832-.565.976-.15 1.959-.277 2.946-.37a56.736 56.736 0 0 1 5.954-.34c.996-.001 1.993.004 2.988.06.996.04 1.991.097 2.987.167.988.085 2.04.171 3.027.279 1 .097 2.008.219 3.014.339 2.013.226 4.027.493 6.043.787l6.071.863c2.029.294 4.073.52 6.112.754.358.036.718.064 1.077.099.137.056.27.113.437.172.46.174 1.036.328 1.705.481.67.128 1.438.26 2.28.311.422.027.861.054 1.315.05.457.013.927 0 1.409-.04.483-.024.977-.066 1.48-.132a14.734 14.734 0 0 0 1.531-.24 24.937 24.937 0 0 0 3.146-.766 41.205 41.205 0 0 0 3.14-1.083c2.06-.791 4.075-1.635 5.981-2.274.946-.306 1.895-.568 2.711-.591.406-.013.743.073.869.225.073.074.12.193.148.343.003.028.009.102.011.093.002.063-.002.105-.002.105 0 .04-.018.122-.044.189-.245.598-.813 1.155-1.29 1.566-.496.419-.964.758-1.365 1.014-.799.52-1.3.757-1.3.757s.539-.12 1.44-.493c.445-.195.988-.441 1.568-.814.29-.184.593-.397.897-.656.299-.265.613-.56.85-1.019a1.595 1.595 0 0 0 .172-.612c.004-.113-.001-.147-.003-.225a1.617 1.617 0 0 0-.307-.862c-.443-.564-1.105-.669-1.62-.702-1.074-.036-2.072.217-3.093.478-2.033.543-4.086 1.345-6.143 2.057a48.06 48.06 0 0 1-3.068.967c-.504.163-1.02.256-1.519.393-.264.075-.527.14-.79.2.075-.24.151-.516.222-.826.232-1.029.326-2.384.217-3.724-.11-1.338-.42-2.66-.813-3.64a9.534 9.534 0 0 0-.56-1.176 4.382 4.382 0 0 0-.279-.442s-.092.176-.204.48a9.57 9.57 0 0 0-.366 1.25c-.23 1.03-.327 2.386-.22 3.725.106 1.339.415 2.662.809 3.642.14.347.277.631.406.88-.457.105-.913.177-1.358.26-.473.096-.938.17-1.393.225-.91.122-1.774.223-2.575.26-.533.035-1.024.048-1.494.05l-9.794-2.44c-1.99-.476-3.975-.993-5.986-1.425-2.008-.44-4.027-.861-6.06-1.229-1.02-.166-2.037-.334-3.068-.48-1.041-.157-2.024-.28-3.069-.415-1.041-.109-2.083-.245-3.13-.29a56.092 56.092 0 0 0-3.146-.107 59.275 59.275 0 0 0-5.41.2 54.215 54.215 0 0 0 1.848-1.5c.623-.504 1.21-1.05 1.812-1.575a46.815 46.815 0 0 0 1.73-1.664 52.677 52.677 0 0 0 1.655-1.736c.55-.58 1.063-1.194 1.587-1.796a38.625 38.625 0 0 0 1.494-1.871c.485-.634.948-1.285 1.401-1.94.455-.655.888-1.323 1.315-1.994.422-.675.813-1.37 1.199-2.064a39.642 39.642 0 0 0 2.048-4.293c.6-1.463 1.103-2.97 1.435-4.508-.6 1.45-1.36 2.819-2.138 4.162a55.202 55.202 0 0 1-2.535 3.894c-.45.628-.923 1.238-1.389 1.851-.474.608-.952 1.21-1.45 1.797-.99 1.179-2.041 2.3-3.102 3.407-.543.543-1.074 1.095-1.638 1.614a51.586 51.586 0 0 1-1.698 1.548c-.23.205-.465.404-.701.603-.17-.278-.354-.573-.58-.896-.342-.49-.72-1.051-1.165-1.634a46.688 46.688 0 0 0-1.474-1.85 43.65 43.65 0 0 0-1.767-2c-.327-.345-.687-.672-1.043-1.014-.381-.313-.75-.652-1.157-.953-.8-.62-1.676-1.171-2.584-1.666-.91-.492-1.87-.896-2.833-1.222a17.645 17.645 0 0 0-2.894-.717 18.558 18.558 0 0 0-6.378.088c.53-.665 1.06-1.326 1.587-1.984 1.024-1.246 2.01-2.51 3.04-3.703a175.71 175.71 0 0 1 3.028-3.553c4.022-4.616 8.008-8.69 11.646-11.98 1.798-1.674 3.547-3.1 5.077-4.408 1.55-1.283 2.945-2.358 4.08-3.275l2.668-2.096c.14-.114.263-.212.373-.3.49.216.982.42 1.48.606.68.25 1.366.475 2.055.683.967.573 2.095 1.275 3.379 2.074a98.428 98.428 0 0 1 4.524 3.04c1.608 1.155 3.303 2.497 4.816 4.05.372.39.722.799 1.035 1.22.138.21.316.44.403.616.055.103.107.166.17.3l.188.412.695 1.68c.24.593.553 1.16.83 1.75 1.19 2.32 2.617 4.669 4.496 6.761 1.882 2.078 4.15 3.95 6.784 5.24 2.625 1.298 5.582 1.923 8.458 1.904 2.885-.016 5.669-.739 8.114-1.862 1.222-.568 2.385-1.207 3.435-1.96a23.664 23.664 0 0 0 2.898-2.457c.214-.216.397-.423.595-.633l.314-.341.3-.354c.386-.477.737-.966 1.042-1.468a17.046 17.046 0 0 0 1.428-3.022c.729-1.992 1.05-3.88 1.23-5.541.188-1.662.2-3.11.19-4.296-.003-1.185-.076-2.111-.09-2.741a4.77 4.77 0 0 1-.002-.505 42.98 42.98 0 0 0 6.398-7.84c-.029.713-.093 1.74-.124 3.047-.041 1.334-.083 2.954-.08 4.813 0 1.86.01 3.96.102 6.248.071 2.288.188 4.768.397 7.386.192 2.62.44 5.381.794 8.227.375 2.844.732 5.792 1.293 8.757.264 1.526.561 3.062.879 4.6-.92-.18-1.84-.336-2.762-.48.094-.142.189-.3.278-.498.105-.267.258-.572.18-1.103l-.046-.204a1.533 1.533 0 0 0-.152-.275l-.218-.283-.005-.006c-.045-.033.098.064-.104-.074l-.03-.018-.058-.034-.125-.065-.196-.09c-.09-.042-.182-.083-.274-.127l-1.063-.455a1.376 1.376 0 0 0-.583-.119c-.203-.012-.405-.046-.614-.074-3.33-.451-7.746-.938-12.18-1.361-4.439-.415-8.86-.784-12.271-.852-.215-.002-.428 0-.635-.017a1.543 1.543 0 0 0-.617.03c-.403.114-.766.201-1.35.418-.087.048-.149.093-.223.137l-.007.004c.099-.044-.14.063-.119.055l-.015.014-.03.027-.061.054-.116.106c-.154.13-.29.307-.405.461a2.303 2.303 0 0 0-.398 1.025c-.07.66.191 1.065.335 1.3.163.236.28.327.28.327s-.03-.148-.025-.407c.001-.252.073-.642.313-.916.121-.136.275-.239.468-.31.11-.027.193-.07.32-.09l.087-.017.044-.01.02-.004.012-.003c.026-.011-.208.093-.105.05l.008-.002c.082-.003.177-.015.253-.013.082.104.438.138.794.232.18.05.354.031.548.01.192-.015.386-.014.587-.011 3.248.063 7.678.43 12.076.841 4.403.42 8.81.908 12.08 1.35.202.029.403.05.595.093.19.058.378.082.57.053l1.06-.097.214-.016.053-.004-.016-.02-.01-.026-.004-.015v-.007c-.198-.136-.051-.036-.094-.066l.007.003.11.05c.013.006.049.024.042.018a.171.171 0 0 1-.032-.036.13.13 0 0 1-.024-.087l.029.002c.107.03.183.28.208.486.024.203.028.397.025.574-1.808-.268-3.62-.488-5.431-.686-1.494-.135-2.985-.302-4.48-.398-1.494-.115-2.99-.221-4.487-.277a85.155 85.155 0 0 0-4.5-.034c-1.502.025-3.005.078-4.506.083-3.004.034-5.996-.125-8.982-.401l-.258-.024-.144.231c-.532.854-.933 1.742-1.06 2.808a3.387 3.387 0 0 0 .217 1.657c.043.142.13.264.198.397l.055.097.028.049.097.114.065.067c.052.045.11.089.168.13.14.094.192.111.265.15.073.038.141.068.203.092.131.056.254.099.376.141.963.312 1.872.504 2.799.677.921.17 1.841.315 2.762.431 1.84.243 3.68.424 5.52.604.43.039.859.074 1.29.112 1.783.27 3.567.53 5.352.786 2.491.33 4.978.632 7.481.853 1.25.112 2.502.22 3.757.304.735.043 1.467.081 2.203.115-.203.86-.401 1.723-.585 2.588-.294 1.364-.61 2.723-.885 4.091l-1.665 8.205a300.342 300.342 0 0 0-1.56 8.228c-.463 2.673-.906 5.35-1.395 8.016a10.86 10.86 0 0 1-1.02.402 19.806 19.806 0 0 1-4.063.89c-.461.063-.926.089-1.39.129-.464.016-.931.058-1.393.045-.46.002-.927-.01-1.402-.038a7.216 7.216 0 0 1-1.387-.166c-.919-.188-1.81-.537-2.694-.829a15.237 15.237 0 0 0-1.334-.383c-.448-.104-.897-.2-1.354-.27-.13-.028-.262-.046-.392-.07a2.352 2.352 0 0 0-.263-.873c-.495-.9-1.04-1.443-1.526-2-.487-.519-.933-.997-1.337-1.429l-.537-.6c-.184-.17-.242-.407-.444-.5-.378-.214-.566-.467-.66-.4-.07-.014-.003-.127.084-.183.085-.069.178-.121.254-.156.155-.074.244-.103.244-.103s-.08-.04-.253-.101a1.636 1.636 0 0 0-.346-.084c-.14-.004-.368-.023-.618.229-.246.292-.212.664-.179.921.042.272.116.528.204.787.065.279.316.426.474.653.18.203.374.419.578.646l1.33 1.424c.408.451.867.97 1.17 1.467-.178-.025-.352-.056-.53-.08-.116-.018-.235-.027-.351-.041-.547-.284-1.124-.663-1.696-1.068-1.596-1.143-3.245-2.56-4.958-4.096l-1.305-1.179a7.198 7.198 0 0 0-.389-.333 4.908 4.908 0 0 0-.458-.306 5.986 5.986 0 0 0-.957-.44c-1.295-.458-2.605-.578-3.913-.63-2.616-.073-5.253.22-7.905.609-2.65.397-5.311.925-7.956 1.514-5.287 1.181-10.503 2.605-15.365 4.029-2.43.712-4.77 1.428-6.984 2.124-1.106.352-2.197.646-3.222 1.024l-2.959 1.113a273.754 273.754 0 0 0-8.927 3.564c-5.01-.016-9.79.022-14.25.05-3.801.045-7.375.088-10.693.144m48.632-89.355c-.363-.523-.648-1.086-.916-1.7-.12-.308-.312-.646-.397-.96-.1-.307-.184-.626-.263-.944-.3-1.29-.51-2.624-.733-3.988-.216-1.372-.46-2.75-.882-4.223-.223-.735-.475-1.504-.995-2.323a5.9 5.9 0 0 0-.459-.622l-.292-.313a6.112 6.112 0 0 0-.446-.37l-.222-.16-.4-.227-.538-.274c-1.35-.641-2.533-1.158-3.662-1.763-1.115-.584-2.148-1.245-2.85-1.952-.348-.35-.608-.702-.732-1.006a1.653 1.653 0 0 1-.134-.838c.003-.133.048-.334.071-.402.014-.04-.01-.013.028-.111l.09-.243.052-.137c-.016.041.013-.033 0 .002l.003-.005.006-.008.01-.016.018-.035c.09-.185.298-.397.609-.63.652-.46 1.716-.86 2.85-1.113a17.596 17.596 0 0 1 1.771-.297 19.552 19.552 0 0 1 1.76-.128l3.168-.076-.665-3.235a11.885 11.885 0 0 1-.185-1.174 25.69 25.69 0 0 1-.097-1.347c-.032-.911.013-1.83.088-2.746a17.77 17.77 0 0 1 .502-2.719c.102-.453.27-.885.398-1.333l.466-1.234.653-1.349.749-1.36a86.338 86.338 0 0 1 1.52-2.698c.51-.9 1.052-1.764 1.575-2.653.541-.87 1.101-1.725 1.655-2.593 1.17-1.674 2.375-3.347 3.785-4.844 1.369-1.54 2.932-2.9 4.584-4.153.849-.594 1.69-1.206 2.596-1.719.893-.533 1.786-1.068 2.736-1.503.934-.461 1.881-.898 2.863-1.26.967-.395 1.95-.749 2.957-1.04.999-.314 1.994-.626 3.01-.863 1.011-.257 2.005-.52 3.052-.745l1.551-.351.773-.183.702-.153c.948-.199 1.902-.31 2.849-.39a22.241 22.241 0 0 1 5.642.33c1.864.343 3.694.95 5.472 1.75 1.774.81 3.491 1.812 5.146 2.948 1.645 1.15 3.264 2.39 4.78 3.77 1.549 1.348 3.004 2.82 4.452 4.321a90.354 90.354 0 0 1 4.164 4.727l.288-.165c.176-.05.436-.134.772-.281.637-.286 1.529-.81 2.533-1.654.507-.4 1.03-.983 1.523-1.48.46-.438 1.052-.768 1.702-.813a2.498 2.498 0 0 1 1.856.656c.536.48.875 1.217.996 2.059.06.412.053.9-.004 1.32a6.284 6.284 0 0 1-.333 1.397c-.16.426-.361.767-.685 1.146-.314.375-.814.865-1.245 1.553-.4.63-.633 1.354-.752 2.037l-.184-.159-.126-.11-.065-.056c-.108-.097-.04-.035-.07-.061l-.021-.015-.041-.03-.33-.233c-.876-.631-1.806-1.05-2.731-1.382-1.85-.669-3.708-1.017-5.525-1.241a53.62 53.62 0 0 0-5.317-.36c-3.435-.087-6.618.123-9.333.351-5.432.465-9 1.122-9 1.122l.04.324s.899-.066 2.478-.133c1.578-.059 3.831-.157 6.532-.15 2.699.008 5.847.09 9.178.376a51.51 51.51 0 0 1 5.072.69c1.694.324 3.386.777 4.895 1.445.752.335 1.455.733 2 1.207l.21.172.019.016.04.042.12.12.47.48c.175.168.28.314.382.456l.324.421c.852 1.243 1.317 2.59 1.36 3.923.056.668-.054 1.336-.16 1.998a11.37 11.37 0 0 1-.616 1.929c-.248.627-.586 1.214-.936 1.77a16.24 16.24 0 0 1-1.134 1.618 54.44 54.44 0 0 1-2.284 2.77 71.627 71.627 0 0 1-1.903 2.079c-1.086 1.137-1.744 1.772-1.744 1.772l.174.277s.878-.321 2.29-1.124a27.106 27.106 0 0 0 2.464-1.586 28.537 28.537 0 0 0 2.955-2.449 19.265 19.265 0 0 0 1.554-1.638c.315-.401.62-.836.913-1.29.096.413.199.827.283 1.24a48.795 48.795 0 0 1 1.036 8.36c.089 2.821-.076 5.655-.556 8.396a38.434 38.434 0 0 1-2.223 7.85c-1.968 4.943-4.842 9.108-7.714 12.273a46.288 46.288 0 0 1-7.748 6.858c-2.056 1.438-3.338 2.084-3.338 2.084l.109.22s1.32-.61 3.442-1.99a46.742 46.742 0 0 0 6.96-5.556 5.631 5.631 0 0 0-.064.38l-.387 2.708a49.607 49.607 0 0 1-.78 4.125c-.385 1.56-.912 3.293-1.733 5.026-.415.863-.914 1.72-1.516 2.52-.3.402-.616.795-.967 1.163l-.266.273-.284.265c-.207.19-.42.397-.627.577a21.396 21.396 0 0 1-5.75 3.51c-2.167.895-4.564 1.346-6.972 1.357a16.891 16.891 0 0 1-3.597-.431c-1.186-.268-2.323-.727-3.433-1.239-2.22-1.044-4.197-2.615-5.887-4.427-1.71-1.8-3.135-3.86-4.326-5.972-.287-.537-.587-1.058-.857-1.593l-.833-1.66-.216-.399c-.075-.136-.2-.318-.299-.472-.214-.342-.422-.57-.631-.84a15.488 15.488 0 0 0-1.328-1.37c-1.812-1.662-3.727-2.82-5.483-3.874-1.763-1.044-3.443-1.861-4.93-2.577-.045-.022-.088-.04-.134-.063.736.157 1.475.302 2.215.432 2.73.485 5.478.826 8.23 1.082l.054-.488c-2.73-.36-5.446-.805-8.127-1.388-2.678-.581-5.328-1.31-7.84-2.324-1.25-.514-2.46-1.116-3.568-1.839-1.097-.736-2.089-1.602-2.804-2.652m76.104-51.089s8.781 4.288 10.109 6.33c1.327 2.042-9.803 22.974-9.803 22.974l-.832-3.063a52.474 52.474 0 0 0-.553-3.82c-.223-1.138-.45-2.235-.668-3.318.018-.27.035-.575.052-.915a9.934 9.934 0 0 0 .307-2.944c-.072-1.553-.616-3.1-1.454-4.428-.003-.107-.013-.22-.014-.324-.002-1.204.167-2.29.613-2.99.215-.372.595-.744 1.038-1.299a6.153 6.153 0 0 0 1.048-1.926c.223-.67.315-1.353.358-1.953a7.324 7.324 0 0 0-.124-1.97c-.017-.09-.053-.174-.075-.262 0-.055-.002-.092-.002-.092m78.648 141.108c-1.695-.06-4.181-.147-7.346-.256-3.165-.115-7.007-.186-11.415-.305-.109-.003-.223-.005-.334-.009l.01-.384c.007-.82.044-2.03.035-3.568 0-1.54-.104-3.403-.22-5.548-.05-1.074-.193-2.206-.295-3.408-.121-1.2-.232-2.466-.443-3.774-.197-1.308-.4-2.676-.636-4.087l-.876-4.346c-.335-1.485-.745-2.995-1.13-4.55-.407-1.55-.922-3.103-1.394-4.701-.512-1.585-1.1-3.175-1.673-4.793-.642-1.59-1.254-3.219-1.973-4.817-.734-1.59-1.413-3.224-2.248-4.792l-1.21-2.375-1.294-2.337c-.85-1.568-1.83-3.058-2.74-4.58l-1.469-2.214a50.598 50.598 0 0 0-1.504-2.168l-1.535-2.12-1.597-2.041c-1.054-1.355-2.163-2.642-3.256-3.9-2.2-2.506-4.472-4.794-6.687-6.889a102.217 102.217 0 0 0-6.538-5.56c-4.216-3.236-7.98-5.561-10.694-7.022-1.344-.75-2.45-1.255-3.19-1.613l-1.155-.51 1.013.752c.658.49 1.603 1.23 2.796 2.18 1.196.94 2.593 2.154 4.194 3.526 1.588 1.393 3.32 3.025 5.181 4.82a153.652 153.652 0 0 1 5.777 6.008 149.484 149.484 0 0 1 5.975 7.084c1.96 2.54 3.958 5.184 5.814 7.99.73 1.032 1.399 2.115 2.08 3.192a39.202 39.202 0 0 0-3.532.375c-.345.048-.692.118-1.048.18-.36.073-.746.144-1.082.23-.731.17-1.519.32-2.236.578-.724.245-1.425.538-2.085.866-.666.322-1.294.68-1.883 1.052a20.239 20.239 0 0 0-3.016 2.318c-.337.322-.635.625-.904.92l-2.562-5.374-2.763-5.594c-.914-1.845-1.866-3.634-2.757-5.38-.887-1.75-1.798-3.414-2.647-5a201.943 201.943 0 0 0-2.443-4.445 206.003 206.003 0 0 0-3.525-6.087 62.141 62.141 0 0 1-.47-3.483c-.186-1.9-.3-4.112-.168-6.445.056-1.166.224-2.356.42-3.55.208-1.192.518-2.379.936-3.522.204-.572.42-1.14.678-1.686.117-.278.255-.546.39-.814l.433-.856c.645-1.293.98-2.656 1.09-3.993.128-1.334-.056-2.617-.332-3.769-.278-1.157-.708-2.185-1.166-3.085a17.535 17.535 0 0 0-2.17-3.287c4.2-8.31 8.517-18.012 6.8-19.82-.503-.528-1.212-1.049-2.042-1.552l11.736-20.262c.08.01.16.025.243.025a2.137 2.137 0 1 0-2.137-2.137c0 .328.08.634.212.912l-12.403 20.223c-3.498-1.643-7.712-2.926-9.114-3.334-.293-.404-.623-.777-1.017-1.066-1.004-.763-2.29-1.018-3.375-.773-1.097.225-1.943.884-2.467 1.585-.48.668-.833 1.17-1.23 1.65-.769.947-1.502 1.582-2.035 1.965-.21.158-.375.265-.511.348-.791-1.899-1.771-3.702-2.867-5.443-1.136-1.838-2.445-3.57-3.85-5.24-1.439-1.637-2.965-3.231-4.683-4.64-1.708-1.418-3.573-2.693-5.6-3.728-2.02-1.043-4.211-1.839-6.501-2.277a19.65 19.65 0 0 0-6.97-.085c-1.15.186-2.268.504-3.352.874-.274.1-.535.18-.817.298l-.733.307-1.46.63c-.971.403-1.958.875-2.935 1.33-.981.451-1.953.906-2.91 1.391-.48.24-.961.474-1.444.701l-1.43.733-1.434.718-1.416.757c-.956.476-1.878 1.025-2.82 1.537-.95.497-1.819 1.137-2.76 1.662-1.795 1.184-3.59 2.404-5.263 3.797-1.72 1.347-3.273 2.888-4.796 4.462a49.989 49.989 0 0 0-4.118 5.07c-.619.888-1.251 1.772-1.821 2.683l-.874 1.36-.846 1.442c-.27.537-.56 1.113-.806 1.666-.212.551-.469 1.09-.637 1.66-.387 1.123-.66 2.284-.866 3.458a20.07 20.07 0 0 0-.268 3.573c.003.25.015.498.028.747-.572.094-1.146.201-1.724.343-1.536.393-3.134.919-4.71 2.107-.77.61-1.552 1.42-2.047 2.492l-.09.199-.044.1-.02.05-.064.162-.079.246-.08.246c-.022.062-.07.263-.101.388a6.52 6.52 0 0 0 .592 4.785c.504.927 1.162 1.633 1.825 2.216 1.341 1.155 2.74 1.865 4.1 2.48 1.355.597 2.758 1.05 3.942 1.494l.401.158.081.035.041.017.02.008.01.005c-.209-.123-.05-.03-.092-.055l.215.116a.072.072 0 0 1-.043-.044.624.624 0 0 0 .074.05c.056.05.12.103.189.183.272.312.583.816.85 1.367.55 1.11.985 2.411 1.49 3.698.493 1.298.993 2.632 1.666 3.927.17.323.343.646.539.961.21.31.31.596.472.916.304.64.666 1.302 1.112 1.898.885 1.208 2.047 2.143 3.262 2.9.68.411 1.381.771 2.094 1.097l-.287.118a65.4 65.4 0 0 0-3.116 1.384c-1.338.615-2.918 1.442-4.725 2.427-1.789 1.011-3.787 2.21-5.87 3.67-1.055.712-2.099 1.527-3.2 2.347-1.064.865-2.19 1.736-3.277 2.705-2.213 1.903-4.417 4.047-6.601 6.347a119.534 119.534 0 0 0-6.388 7.37c-2.059 2.6-4.092 5.252-5.986 8.128a82.082 82.082 0 0 0-8.871 17.906 86.72 86.72 0 0 0-2.586 8.78 86.358 86.358 0 0 0-1.526 8.025 97.56 97.56 0 0 0-.692 6.848 86.4 86.4 0 0 0-.124 5.29c.022 1.363.081 2.435.138 3.21-1.328.022-2.618.047-3.858.075-4.408.086-8.25.192-11.414.303-3.165.115-5.652.205-7.347.268l-2.6.123v.245l2.6.122 7.347.27c3.163.11 7.006.216 11.414.301 4.407.1 9.38.16 14.805.225 5.425.034 11.302.088 17.518.034 6.215-.049 12.77-.267 19.551-.415 6.78-.192 13.788-.3 20.908-.286 3.56.004 7.148.036 10.75.083l10.836.214 10.835.247 10.75.161 20.908.19 9.988.04c3.263.012 6.456-.003 9.564-.031 6.216-.025 12.093-.12 17.518-.208 5.424-.084 10.397-.146 14.804-.277 4.408-.119 8.25-.189 11.415-.304l7.346-.256 2.6-.11v-.245l-2.6-.11" mask="url(#b)"/>
        </g>
        <path fill="#FFF" d="M94.131 37.209c.028.606.15 1.2.222 1.781.122.574.243 1.138.412 1.664.166.529.317 1.035.518 1.497.177.469.383.897.563 1.29.758 1.562 1.484 2.474 1.484 2.474.05.062.136.098.222.08a.213.213 0 0 0 .168-.252s-.242-1.085-.379-2.702a24.554 24.554 0 0 1-.083-2.72c0-.489.075-.99.086-1.49.074-.499.1-1.005.211-1.493.108-.489.222-.973.43-1.418.089-.226.188-.444.254-.663.092-.212.178-.419.24-.628.059-.21.104-.42.13-.632.053-.201.087-.405.114-.61.054-.407.075-.815.138-1.186.05-.376.058-.754.07-1.102.037-.333.06-.643.064-.915.018-.543-.018-.92-.018-.92l-.002-.02a.277.277 0 0 0-.335-.237s-.357.073-.903.32a8.03 8.03 0 0 0-.948.51c-.332.23-.663.531-1.011.882-.172.176-.357.362-.512.572-.141.216-.3.437-.437.677a8.662 8.662 0 0 0-.412.748 7.133 7.133 0 0 0-.26.837c-.066.29-.13.586-.15.89-.016.305 0 .617.005.925-.002.62.085 1.234.12 1.84M110.014 19.786c.032.148.174.24.316.207l.025-.005s.368-.085.858-.25l.391-.134c.137-.048.256-.123.426-.153.326-.075.654-.167.97-.284.321-.114.707-.162 1.035-.294.338-.121.738-.176 1.077-.369a8.78 8.78 0 0 0 1.14-.599c.423-.178.847-.411 1.32-.518.93-.254 1.92-.396 2.874-.505.476-.073.942-.063 1.39-.11a31.431 31.431 0 0 1 3.936.057.21.21 0 0 0 .199-.108.221.221 0 0 0-.075-.297s-.958-.593-2.525-1.2a33.196 33.196 0 0 0-1.288-.449c-.467-.13-.96-.286-1.485-.387-.523-.114-1.071-.233-1.641-.277-.567-.08-1.157-.09-1.753-.104-.594-.026-1.208.027-1.824.02-.614.061-1.238.132-1.807.344-.559.262-1.097.515-1.523.923-.428.404-.83.764-1.106 1.206-.278.44-.493.858-.65 1.236-.145.39-.2.77-.243 1.069-.082.6-.04.954-.04.954l.003.027M103.348 40.644c.022.043-.026.009-.07-.052.03.014.058.03.07.052m-.868 1.068c.14.13.353.24.568.272.215.035.413.008.565-.035a2.17 2.17 0 0 0 .717-.371c.14-.103.277-.204.461-.387a3.78 3.78 0 0 0 .793-1.08c.407-.796.53-1.734.304-2.576-.114-.417-.317-.822-.644-1.124l-.125-.106-.031-.025c-.054-.048-.03-.022-.047-.037l-.05-.03a1.132 1.132 0 0 0-1.006-.16c-.37.133-.574.348-.743.527-.16.19-.27.366-.354.512-.16.3-.22.48-.22.48s.145-.125.416-.3a3.31 3.31 0 0 1 .481-.284c.178-.094.404-.175.574-.156a.277.277 0 0 1 .174.072c.033.03.013.026.047.063l.038.044c-.004-.002.037.034-.004.002l.007.018.03.069c.08.182.128.416.13.673a3.29 3.29 0 0 1-.409 1.595 3.393 3.393 0 0 1-.477.687c-.059.086-.2.21-.332.333a.932.932 0 0 1-.119.108 3.67 3.67 0 0 1-.238-.631c-.13-.502-.229-.962-.304-1.283l-.122-.513s-.096.173-.213.49a5.482 5.482 0 0 0-.323 1.375c-.028.303-.05.632.046 1.049.06.205.13.46.41.729M121.9 20.434c-.01-.003-.008-.026-.006-.042.005.01.019.022.02.032.013.024-.013.022-.015.01m.882-.582c-.411-.457-.805-.526-1.155-.63a7.107 7.107 0 0 0-.977-.158c-.6-.046-1.09-.048-1.436-.026l-.538.039s.77.186 1.841.561c.265.094.55.202.82.341.234.118.49.293.556.41l-.001.002-.022.064-.006.017-.002.003c-.014.05.02-.062.015-.05l-.004.006-.019.024c-.098.123-.186.245-.29.342-.2.201-.406.335-.603.389a1.562 1.562 0 0 1-.647.037 3.566 3.566 0 0 1-.776-.197c-.114-.026-.314-.13-.463-.186a3.03 3.03 0 0 1-.327-.143 2.192 2.192 0 0 1-.454-.28.504.504 0 0 1-.19-.382c-.028-.176.016-.356.048-.516.082-.312.166-.519.166-.519l-.151.042c-.1.029-.24.085-.408.189a1.75 1.75 0 0 0-.533.518 1.485 1.485 0 0 0-.184 1.121c.102.45.395.826.711 1.108.171.15.31.251.534.387.167.088.273.165.498.263.424.196.851.32 1.37.363.505.041 1.097-.056 1.589-.347.499-.282.83-.73 1.017-1.158.095-.217.156-.434.188-.649l.007-.04.02-.071.001-.017.01-.068a1.35 1.35 0 0 0 .008-.31 1.036 1.036 0 0 0-.213-.479M121.277 136.993a.204.204 0 0 1-.034.054c-.001-.004.013-.026.034-.054m5.7 16.449l-.004.03v-.005c0-.01 0 .008.005-.025m-5.843-17.608c-.146.09-.297.181-.458.304-.08.062-.165.129-.277.264-.041.067-.067.093-.11.207a.755.755 0 0 0-.032.27c.001.095.077.286.181.382.243.207.414.162.445.183.43.046.776.048 1.177.062l2.513.054c.894.045 1.84 0 2.835-.043.995-.02 2.04-.023 3.12.012 1.071.042 2.22.101 3.25.348.236.06.469.142.606.222-.054.357-.27.723-.648 1.013-.793.61-2.043.906-3.282 1.069-1.26.162-2.587.198-3.942.184-1.357-.013-2.74-.089-4.168-.15l-1.093-.03c-.187 0-.378 0-.585.014-.103.005-.21.015-.338.034-.143.038-.232.005-.571.203a1.11 1.11 0 0 0-.173.151c-.058.061-.154.212-.116.157l-.036.06-.04.069c-.032.063-.06.129-.084.197-.102.279-.1.509-.059.748.1.464.326.71.504.905.374.37.727.578 1.078.777 1.395.748 2.779 1.218 4.156 1.748.687.259 1.37.517 2.037.793.66.293 1.463.581 2.202.754.752.183 1.503.306 2.22.425.358.06.709.122 1.027.2.313.073.618.183.732.277.057.046.056.053.056.053a.433.433 0 0 1-.004.146c-.032.202-.153.505-.305.794-.067.136-.197.353-.17.284a.694.694 0 0 1-.19.114c-.196.086-.494.132-.8.146-1.267.034-2.676-.292-4.011-.632-1.348-.354-2.677-.774-3.985-1.202-1.32-.424-2.574-.882-3.938-1.243a5.64 5.64 0 0 0-.567-.114c-.119-.012-.213-.032-.417-.016-.102.019-.24.003-.517.19-.15.106-.33.372-.346.58-.022.1-.017.263-.006.306l.004.032c.086.55.307.945.53 1.288.467.672 1.01 1.16 1.558 1.585 1.107.836 2.243 1.43 3.37 1.954 1.134.516 2.289.86 3.129 1.311.172.09.312.201.366.259a.99.99 0 0 1-.026.126c-.086.33-.211.473-.464.56-.261.084-.663.134-1.075.112a7.421 7.421 0 0 1-1.258-.19c-1.672-.404-3.134-1.027-4.327-1.508a65.823 65.823 0 0 0-2.799-1.12c-.655-.24-1.014-.33-1.014-.33s.339.153.942.502l2.592 1.563c1.13.66 2.48 1.499 4.23 2.212.443.173.913.335 1.442.443.524.1 1.132.188 1.824-.08.34-.134.696-.371.953-.704.268-.335.416-.694.508-1.087.03-.116.036-.174.048-.243l.01-.05c.011-.07.01-.086.013-.131a1.38 1.38 0 0 0 .002-.238 1.61 1.61 0 0 0-.313-.832c-.311-.401-.62-.576-.904-.742-1.13-.594-2.206-.89-3.247-1.37-1.044-.485-2.115-1.053-3.06-1.768a6.631 6.631 0 0 1-.716-.632c.967.293 1.98.645 2.998.974 1.32.431 2.673.86 4.075 1.229 1.411.349 2.832.714 4.464.68.414-.025.846-.066 1.327-.265.241-.105.484-.24.726-.488.298-.33.323-.47.438-.66.192-.382.387-.782.482-1.338.036-.284.055-.62-.076-.988a1.808 1.808 0 0 0-.62-.831c-.488-.351-.907-.444-1.302-.55-.395-.095-.769-.16-1.136-.222-.73-.121-1.432-.237-2.11-.403a11.353 11.353 0 0 1-1.98-.68 69.111 69.111 0 0 0-2.083-.812c-1.369-.522-2.765-1.012-3.947-1.65a4.434 4.434 0 0 1-.267-.159l.97.027c1.404.06 2.818.138 4.213.151 1.397.015 2.783-.02 4.156-.196 1.363-.204 2.757-.443 4.039-1.39.63-.48 1.18-1.26 1.284-2.188l.013-.12.006-.06c.01-.088.005-.118.005-.18 0-.218-.072-.445-.166-.618-.2-.352-.433-.505-.624-.627-.392-.231-.725-.322-1.053-.412-1.289-.304-2.448-.345-3.575-.395a65.229 65.229 0 0 0-3.2-.015c-1.012-.005-1.97.015-2.864.131l-2.43.252c.767-.665 1.441-1.18 1.897-1.555l.852-.667-.977.441c-.639.296-1.56.717-2.724 1.393"/>
    </g>
</svg>
