<?xml version="1.0" encoding="UTF-8"?>
<svg width="127px" height="119px" viewBox="0 0 127 119" version="1.1" xmlns="http://www.w3.org/2000/svg" xmlns:xlink="http://www.w3.org/1999/xlink">
    <!-- Generator: sketchtool 45 (43475) - http://www.bohemiancoding.com/sketch -->
    <title>B355EB3E-F163-4D4A-942C-35F0D5E96463</title>
    <desc>Created with sketchtool.</desc>
    <defs>
        <polygon id="path-1" points="0.0385619481 0.0392060474 1.98654242 0.0392060474 1.98654242 9.62917327 0.0385619481 9.62917327 0.0385619481 0.0392060474"></polygon>
    </defs>
    <g id="Page-1" stroke="none" stroke-width="1" fill="none" fill-rule="evenodd">
        <g id="гайды" transform="translate(-252.000000, -6108.000000)">
            <g id="Page-1" transform="translate(252.000000, 6108.000000)">
                <path d="M74.3150909,28.9625154 L7.54299149,28.9625154 C4.30261167,28.9625154 1.65144273,26.3113465 1.65144273,23.0709666 C1.65144273,19.8305868 4.30261167,17.1791378 7.54299149,17.1791378 L74.3150909,17.1791378 C77.5554707,17.1791378 80.2066397,19.8305868 80.2066397,23.0709666 C80.2066397,26.3113465 77.5554707,28.9625154 74.3150909,28.9625154 Z" id="Fill-1" fill="#399BF7"></path>
                <path d="M94.3109872,50.5652156 L27.5388878,50.5652156 C24.298508,50.5652156 21.647339,47.9140466 21.647339,44.6736668 L21.647339,44.6736668 C21.647339,41.433287 24.298508,38.781838 27.5388878,38.781838 L94.3109872,38.781838 C97.551367,38.781838 100.202536,41.433287 100.202536,44.6736668 L100.202536,44.6736668 C100.202536,47.9140466 97.551367,50.5652156 94.3109872,50.5652156" id="Fill-3" fill="#399BF7"></path>
                <path d="M42.5904815,38.8132588 L60.4180313,38.8132588 L60.4180313,28.869485 L42.5904815,28.869485 C45.3251033,28.869485 47.5623684,31.1070302 47.5623684,33.8413719 C47.5623684,36.5759937 45.3251033,38.8132588 42.5904815,38.8132588" id="Fill-5" fill="#399BF7"></path>
                <path d="M72.4630248,38.8999023 L54.4630248,38.8999023 L54.4630248,28.8999023 L72.4630248,28.8999023 C69.7019503,28.8999023 67.4430436,31.1500995 67.4430436,33.8999023 C67.4430436,36.6499868 69.7019503,38.8999023 72.4630248,38.8999023" id="Fill-7" fill="#399BF7"></path>
                <path d="M11.5154882,45.5662485 C11.5154882,48.746139 8.93769062,51.3239366 5.75780013,51.3239366 C2.57790964,51.3239366 0.000112017278,48.746139 0.000112017278,45.5662485 C0.000112017278,42.386358 2.57790964,39.8085604 5.75780013,39.8085604 C8.93769062,39.8085604 11.5154882,42.386358 11.5154882,45.5662485" id="Fill-9" fill="#399BF7"></path>
                <path d="M5.28514322,83.8820666 L5.28514322,83.8820666 C4.74942059,83.8820666 4.31115298,83.443799 4.31115298,82.9080764 L4.31115298,75.2659776 C4.31115298,74.7302549 4.74942059,74.2919873 5.28514322,74.2919873 L5.28514322,74.2919873 C5.82086585,74.2919873 6.25913345,74.7302549 6.25913345,75.2659776 L6.25913345,82.9080764 C6.25913345,83.443799 5.82086585,83.8820666 5.28514322,83.8820666" id="Fill-11" fill="#0B559A"></path>
                <path d="M9.27785909,82.4596712 L9.27785909,82.4596712 C8.74213645,82.4596712 8.30386885,82.0214036 8.30386885,81.4856809 L8.30386885,77.3586844 C8.30386885,76.8229617 8.74213645,76.3846941 9.27785909,76.3846941 L9.27785909,76.3846941 C9.81358172,76.3846941 10.2518493,76.8229617 10.2518493,77.3586844 L10.2518493,81.4856809 C10.2518493,82.0214036 9.81358172,82.4596712 9.27785909,82.4596712" id="Fill-13" fill="#0B559A"></path>
                <path d="M13.270575,83.4907902 L13.270575,83.4907902 C12.7348523,83.4907902 12.2965847,83.0525226 12.2965847,82.5168 L12.2965847,76.435662 C12.2965847,75.8999394 12.7348523,75.4616718 13.270575,75.4616718 L13.270575,75.4616718 C13.8062976,75.4616718 14.2445652,75.8999394 14.2445652,76.435662 L14.2445652,82.5168 C14.2445652,83.0525226 13.8062976,83.4907902 13.270575,83.4907902" id="Fill-15" fill="#0B559A"></path>
                <path d="M13.0369909,90.8984088 C13.0369909,94.3384595 12.6832964,97.2511887 10.2598025,97.4881053 C10.2233969,97.4914658 8.82038052,97.4077329 8.60894791,97.4105333 C8.53557659,97.4113734 8.44372242,97.4080129 8.36951097,97.4080129 C5.7919934,97.4080129 3.70231107,94.4936034 3.70231107,90.8984088 C3.70231107,87.3032143 5.7919934,84.3888047 8.36951097,84.3888047 C8.66803702,84.3888047 10.2281577,84.3944056 10.5107213,84.4688971 C12.6712545,85.038785 13.0369909,87.7193585 13.0369909,90.8984088" id="Fill-17" fill="#FBAE0C"></path>
                <path d="M14.9272825,90.9784172 C14.9272825,94.5736117 12.8376002,97.4880213 10.2598025,97.4880213 C7.68228497,97.4880213 5.59260264,94.5736117 5.59260264,90.9784172 C5.59260264,87.3832226 7.68228497,84.4688131 10.2598025,84.4688131 C12.8376002,84.4688131 14.9272825,87.3832226 14.9272825,90.9784172" id="Fill-19" fill="#FED66E"></path>
                <path d="M29.5077315,61.349707 L29.5077315,61.349707 C28.9720089,61.349707 28.5337413,60.9114394 28.5337413,60.3757168 L28.5337413,52.733618 C28.5337413,52.1978954 28.9720089,51.7596278 29.5077315,51.7596278 L29.5077315,51.7596278 C30.0434541,51.7596278 30.4817217,52.1978954 30.4817217,52.733618 L30.4817217,60.3757168 C30.4817217,60.9114394 30.0434541,61.349707 29.5077315,61.349707" id="Fill-21" fill="#0B559A"></path>
                <path d="M33.5004194,59.9273116 L33.5004194,59.9273116 C32.9646967,59.9273116 32.5264291,59.489044 32.5264291,58.9533214 L32.5264291,54.8263248 C32.5264291,54.2906022 32.9646967,53.8523346 33.5004194,53.8523346 L33.5004194,53.8523346 C34.036142,53.8523346 34.4744096,54.2906022 34.4744096,54.8263248 L34.4744096,58.9533214 C34.4744096,59.489044 34.036142,59.9273116 33.5004194,59.9273116" id="Fill-23" fill="#0B559A"></path>
                <path d="M37.4931352,60.9584307 L37.4931352,60.9584307 C36.9574126,60.9584307 36.519145,60.5201631 36.519145,59.9844404 L36.519145,53.9033024 C36.519145,53.3675798 36.9574126,52.9293122 37.4931352,52.9293122 C38.0288579,52.9293122 38.4671255,53.3675798 38.4671255,53.9033024 L38.4671255,59.9844404 C38.4671255,60.5201631 38.0288579,60.9584307 37.4931352,60.9584307" id="Fill-25" fill="#0B559A"></path>
                <path d="M37.2595792,69.3536776 C37.2595792,72.785887 36.9058846,75.6924554 34.4823908,75.9285318 C34.4459852,75.9321723 33.0429688,75.8484394 32.8315362,75.8512399 C32.7581649,75.85236 32.6663107,75.8487195 32.5920992,75.8487195 C30.0145817,75.8487195 27.9248993,72.9407509 27.9248993,69.3536776 C27.9248993,65.7666043 30.0145817,62.8586358 32.5920992,62.8586358 C32.8906253,62.8586358 34.4507459,62.8639566 34.7333095,62.9384481 C36.8938428,63.5072158 37.2595792,66.1816283 37.2595792,69.3536776" id="Fill-27" fill="#FBAE0C"></path>
                <path d="M39.1498708,69.4335459 C39.1498708,73.0206192 37.0601884,75.9285878 34.4823908,75.9285878 C31.9048732,75.9285878 29.8151909,73.0206192 29.8151909,69.4335459 C29.8151909,65.8464726 31.9048732,62.9385041 34.4823908,62.9385041 C37.0601884,62.9385041 39.1498708,65.8464726 39.1498708,69.4335459" id="Fill-29" fill="#FED66E"></path>
                <g id="Group-33" transform="translate(44.806911, 0.240837)">
                    <mask id="mask-2" fill="white">
                        <use xlink:href="#path-1"></use>
                    </mask>
                    <g id="Clip-32"></g>
                    <path d="M1.01255218,9.62917327 L1.01255218,9.62917327 C0.47682955,9.62917327 0.0385619481,9.19090567 0.0385619481,8.65518304 L0.0385619481,1.01308427 C0.0385619481,0.477361632 0.47682955,0.0390940302 1.01255218,0.0390940302 L1.01255218,0.0390940302 C1.54827482,0.0390940302 1.98654242,0.477361632 1.98654242,1.01308427 L1.98654242,8.65518304 C1.98654242,9.19090567 1.54827482,9.62917327 1.01255218,9.62917327" id="Fill-31" fill="#0B559A" mask="url(#mask-2)"></path>
                </g>
                <path d="M49.8121794,8.44761502 L49.8121794,8.44761502 C49.2764568,8.44761502 48.8381892,8.00934742 48.8381892,7.47362479 L48.8381892,3.34662821 C48.8381892,2.81090557 49.2764568,2.37263797 49.8121794,2.37263797 C50.347902,2.37263797 50.7861696,2.81090557 50.7861696,3.34662821 L50.7861696,7.47362479 C50.7861696,8.00934742 50.347902,8.44761502 49.8121794,8.44761502" id="Fill-34" fill="#0B559A"></path>
                <path d="M53.8048673,9.47876207 L53.8048673,9.47876207 C53.2691446,9.47876207 52.830877,9.04049447 52.830877,8.50477184 L52.830877,2.42363384 C52.830877,1.88791121 53.2691446,1.4496436 53.8048673,1.4496436 C54.3405899,1.4496436 54.7788575,1.88791121 54.7788575,2.42363384 L54.7788575,8.50477184 C54.7788575,9.04049447 54.3405899,9.47876207 53.8048673,9.47876207" id="Fill-36" fill="#0B559A"></path>
                <path d="M53.5713112,16.8022557 C53.5713112,20.1977795 53.2176167,23.0729829 50.7941229,23.306819 C50.7577172,23.3101795 49.3547008,23.2272867 49.1432682,23.2300872 C49.0698969,23.2312074 48.9780427,23.2278468 48.9038313,23.2278468 C46.3263137,23.2278468 44.2366314,20.3509631 44.2366314,16.8022557 C44.2366314,13.2535483 46.3263137,10.3766646 48.9038313,10.3766646 C49.2023573,10.3766646 50.762478,10.3822654 51.0450416,10.4556368 C53.2055748,11.0185236 53.5713112,13.6640916 53.5713112,16.8022557" id="Fill-38" fill="#FBAE0C"></path>
                <path d="M55.4616028,16.8812559 C55.4616028,20.4299633 53.3719205,23.306847 50.7941229,23.306847 C48.2166053,23.306847 46.126923,20.4299633 46.126923,16.8812559 C46.126923,13.3325485 48.2166053,10.4556648 50.7941229,10.4556648 C53.3719205,10.4556648 55.4616028,13.3325485 55.4616028,16.8812559" id="Fill-40" fill="#FED66E"></path>
                <path d="M123.753497,73.3940288 L72.6702572,73.3940288 C71.1300196,73.3940288 69.8698252,72.1338345 69.8698252,70.5935969 L69.8698252,40.8910953 C69.8698252,39.3508578 71.1300196,38.0906634 72.6702572,38.0906634 L123.753497,38.0906634 C125.293734,38.0906634 126.553929,39.3508578 126.553929,40.8910953 L126.553929,70.5935969 C126.553929,72.1338345 125.293734,73.3940288 123.753497,73.3940288" id="Fill-42" fill="#084D8D"></path>
                <polygon id="Fill-44" fill="#0084FF" points="69.8702173 54.4373168 126.553481 54.4373168 126.553481 46.833864 69.8702173 46.833864"></polygon>
                <path d="M89.5148274,61.8312973 L74.6635767,61.8312973 C73.9351843,61.8312973 73.3389723,61.2350853 73.3389723,60.506413 L73.3389723,60.506413 C73.3389723,59.7780206 73.9351843,59.1818086 74.6635767,59.1818086 L89.5148274,59.1818086 C90.2434998,59.1818086 90.8394317,59.7780206 90.8394317,60.506413 L90.8394317,60.506413 C90.8394317,61.2350853 90.2434998,61.8312973 89.5148274,61.8312973" id="Fill-46" fill="#FEFEFE"></path>
                <path d="M83.5876572,67.8626156 L74.7802987,67.8626156 C74.0519063,67.8626156 73.4556943,67.2664037 73.4556943,66.5377313 C73.4556943,65.8093389 74.0519063,65.213127 74.7802987,65.213127 L83.5876572,65.213127 C84.3163296,65.213127 84.9125415,65.8093389 84.9125415,66.5377313 C84.9125415,67.2664037 84.3163296,67.8626156 83.5876572,67.8626156" id="Fill-47" fill="#FEFEFE"></path>
                <path d="M104.15543,61.8312973 L95.3480712,61.8312973 C94.6196788,61.8312973 94.0234669,61.2350853 94.0234669,60.506413 L94.0234669,60.506413 C94.0234669,59.7780206 94.6196788,59.1818086 95.3480712,59.1818086 L104.15543,59.1818086 C104.884102,59.1818086 105.480314,59.7780206 105.480314,60.506413 L105.480314,60.506413 C105.480314,61.2350853 104.884102,61.8312973 104.15543,61.8312973" id="Fill-48" fill="#FEFEFE"></path>
                <path d="M112.820694,96.5532931 L66.659214,118.430828 C65.2673993,119.090329 63.5888204,118.491317 62.9293187,117.099502 L50.2086365,90.2590422 C49.5488548,88.8669475 50.1481472,87.1886486 51.5399619,86.5288668 L97.7014422,64.6513323 C99.0932569,63.9918306 100.771556,64.590843 101.431338,65.9826576 L114.15202,92.8233978 C114.811521,94.2152124 114.212509,95.8937914 112.820694,96.5532931" id="Fill-49" fill="#E84943"></path>
                <path d="M74.7947769,103.706688 L64.2242664,108.716381 C63.5658849,109.028349 62.7719624,108.744946 62.4597142,108.086564 L62.4597142,108.086564 C62.1477461,107.428183 62.4311498,106.63426 63.0895314,106.322292 L73.6600419,101.312599 C74.3184234,101.000351 75.1126259,101.283755 75.424594,101.942136 L75.424594,101.942136 C75.7365622,102.600518 75.4531584,103.39472 74.7947769,103.706688" id="Fill-50" fill="#FEFEFE"></path>
                <path d="M73.5201043,109.883349 L66.4792582,113.220344 C65.8208767,113.532312 65.0266742,113.248908 64.7147061,112.590527 L64.7147061,112.590527 C64.402738,111.932145 64.6861417,111.138223 65.3445232,110.825975 L72.3853693,107.48926 C73.0437508,107.177012 73.8376733,107.460415 74.1499214,108.118797 L74.1499214,108.118797 C74.4618895,108.777179 74.1784858,109.571381 73.5201043,109.883349" id="Fill-51" fill="#FEFEFE"></path>
                <path d="M83.1470932,99.839936 L79.6563548,101.494431 C78.9979732,101.806399 78.2040508,101.522996 77.8918026,100.864614 L77.8918026,100.864614 C77.5798345,100.206233 77.8632382,99.41203 78.5216198,99.1000619 L82.0123582,97.4458468 C82.6707397,97.1335986 83.4649422,97.4170023 83.7769104,98.0753839 L83.7769104,98.0753839 C84.0888785,98.7337654 83.8054748,99.5279679 83.1470932,99.839936" id="Fill-52" fill="#FEFEFE"></path>
                <path d="M65.6889203,95.7806259 L60.1852314,98.3889482 C59.1655941,98.8723028 58.7270465,100.101412 59.210121,101.12105 L59.210121,101.12105 C59.6931955,102.140407 60.9225851,102.579235 61.9419424,102.09588 L67.4456313,99.4875577 C68.4652686,99.0044832 68.9038162,97.7750935 68.4207417,96.7557363 L68.4207417,96.7557363 C67.9376672,95.7363791 66.7082776,95.2975514 65.6889203,95.7806259" id="Fill-53" fill="#F9B424"></path>
                <path d="M76.422836,90.6934452 L70.9191471,93.3017675 C69.8995098,93.7851221 69.4609622,95.0142317 69.9440367,96.033869 L69.9440367,96.033869 C70.4271112,97.0532262 71.6565008,97.4920539 72.6758581,97.0086993 L78.179547,94.400377 C79.1991843,93.9173025 79.6377319,92.6879129 79.1546574,91.6685556 L79.1546574,91.6685556 C78.6715829,90.6491984 77.4421933,90.2103707 76.422836,90.6934452" id="Fill-54" fill="#F9B424"></path>
                <path d="M87.1567797,85.6062645 L81.6530908,88.2145869 C80.6334535,88.6979414 80.1949059,89.927051 80.6779804,90.9466883 L80.6779804,90.9466883 C81.1610549,91.9660455 82.3904445,92.4048732 83.4098017,91.9215186 L88.9134907,89.3131963 C89.9331279,88.8301218 90.3716756,87.6007322 89.8886011,86.5813749 L89.8886011,86.5813749 C89.4055266,85.5620177 88.1761369,85.12319 87.1567797,85.6062645" id="Fill-55" fill="#F9B424"></path>
                <path d="M97.8906954,80.5191119 L92.3870065,83.1274342 C91.3673692,83.6107887 90.9288215,84.8398983 91.411896,85.8595356 L91.411896,85.8595356 C91.8949706,86.8788928 93.1243602,87.3177205 94.1437174,86.834366 L99.6474063,84.2260436 C100.667044,83.7429691 101.105591,82.5135795 100.622517,81.4942223 L100.622517,81.4942223 C100.139442,80.474865 98.9100526,80.0360373 97.8906954,80.5191119" id="Fill-56" fill="#F9B424"></path>
                <path d="M59.100036,86.8529048 L55.2259185,88.688868 C54.3505034,89.103892 53.9738453,90.1593748 54.3885893,91.0345098 L55.9207056,94.2673285 C56.3354496,95.1424635 57.3912124,95.5191216 58.2663474,95.1043776 L62.140465,93.2684144 C63.01588,92.8533904 63.3925381,91.7979076 62.9777942,90.9227726 L61.4456778,87.6899539 C61.0309339,86.814819 59.9754511,86.4381609 59.100036,86.8529048" id="Fill-57" fill="#FED66E"></path>
                <polygon id="Fill-58" fill="#F9B424" points="59.4018386 94.5715114 58.282786 95.1019132 55.2403967 88.682203 56.3594493 88.1518012"></polygon>
                <polygon id="Fill-59" fill="#F9B424" points="57.1017878 91.0456275 57.6321896 92.1646802 55.4153677 93.2151222 54.8852459 92.0960696"></polygon>
                <polygon id="Fill-60" fill="#F9B424" points="61.9320008 88.7564424 62.4624027 89.8754951 60.2455807 90.9259371 59.715459 89.8068845"></polygon>
                <polygon id="Fill-61" fill="#F9B424" points="62.2288186 93.2317007 61.109766 93.7621026 58.0673767 87.3423923 59.1864293 86.8119905"></polygon>
            </g>
        </g>
    </g>
</svg>