<svg xmlns="http://www.w3.org/2000/svg" width="19" height="16" viewBox="0 0 19 16">
    <path fill="#FFF" fill-rule="evenodd" d="M10.092 12.598c-.716.67-1.427 1.327-2.13 1.99-.247.232-.523.36-.876.343-.241-.012-.376-.114-.45-.333-.54-1.604-1.087-3.204-1.623-4.81-.052-.155-.129-.23-.294-.28-1.27-.371-2.538-.752-3.804-1.137a2.208 2.208 0 0 1-.56-.247C.096 7.955.059 7.68.292 7.48c.215-.182.473-.342.74-.443 1.552-.59 3.114-1.16 4.672-1.736L17.57.912c.752-.278 1.33.114 1.252.894-.05.498-.185.989-.294 1.481-.858 3.887-1.718 7.774-2.582 11.66-.205.922-.88 1.163-1.673.603-1.327-.937-2.653-1.878-3.98-2.817-.062-.044-.128-.086-.2-.135zm-2.978 1.18l.044-.011c.009-.037.02-.072.024-.108.085-.881.175-1.762.25-2.644a.638.638 0 0 1 .24-.469c1.224-1.048 2.44-2.103 3.658-3.156 1.348-1.165 2.697-2.33 4.04-3.5.084-.072.119-.195.176-.295-.127-.013-.263-.061-.377-.033a1.676 1.676 0 0 0-.445.21c-2.977 1.797-5.95 3.597-8.929 5.39-.168.1-.2.187-.135.364.22.604.42 1.214.626 1.823l.828 2.43z"/>
</svg>
