<svg xmlns="http://www.w3.org/2000/svg" width="26" height="26" viewBox="0 0 26 26">
    <g fill="#BCC1CB" fill-rule="nonzero">
        <path d="M22.903 13.021c-.116.583-.633 1.007-1.252 1.034a.424.424 0 0 0-.398.343.423.423 0 0 0 .234.469c.562.264.876.854.757 1.437l-.11.554c-.146.73-.953 1.186-1.66 1.012-.197-.047-.4-.084-.6-.124l-.887-.176c-.39-.08-.78-.156-1.17-.235-.464-.092-.931-.187-1.395-.28l-1.559-.313c-.553-.11-1.11-.222-1.664-.335-.57-.113-1.139-.23-1.706-.343l-1.69-.34L8.19 15.4l-1.476-.296c-.428-.084-.855-.171-1.28-.255a734.994 734.994 0 0 0-1.726-.349c-.109-.02-.217-.044-.325-.065-.005 0-.01-.003-.016-.003a1.351 1.351 0 0 1-1.577 1.6c-.176-.034-.369.032-.445.196l-.237.514c-.077.163 0 .353.14.467.026.02 19.033 8.783 19.064 8.791.177.034.37-.032.446-.195l.237-.514c.077-.164 0-.354-.14-.467a1.347 1.347 0 0 1-.382-1.62 1.351 1.351 0 0 1 1.482-.759c.177.035.37-.031.446-.195l.237-.514c.076-.163 0-.353-.14-.467a1.347 1.347 0 0 1-.382-1.619 1.351 1.351 0 0 1 1.482-.76c.176.035.369-.03.445-.194l.238-.514c.076-.164 0-.354-.14-.467a1.347 1.347 0 0 1-.382-1.62 1.351 1.351 0 0 1 1.482-.759c.176.035.369-.031.445-.195l.261-.57a.325.325 0 0 0-.158-.432l-2.84-1.31-.045.192z"/>
        <path d="M.255 12.84c.032.015 20.55 4.131 20.584 4.131.179-.008.353-.118.387-.293l.111-.553c.034-.177-.082-.346-.245-.422a1.351 1.351 0 0 1 .517-2.571c.179-.008.353-.119.387-.293l.082-.406.029-.15c.034-.177-.082-.346-.245-.422a1.351 1.351 0 0 1 .517-2.571c.179-.008.353-.119.387-.293l.111-.554c.034-.176-.082-.345-.245-.422a1.351 1.351 0 0 1 .517-2.571c.179-.007.353-.118.387-.292l.124-.615a.325.325 0 0 0-.256-.382S2.786.026 2.765.026a.327.327 0 0 0-.319.261l-.124.615c-.034.176.082.345.245.422a1.351 1.351 0 0 1-.517 2.571c-.179.008-.353.118-.387.292l-.11.554c-.035.177.081.346.244.422a1.351 1.351 0 0 1-.517 2.571c-.179.008-.353.119-.387.293l-.11.554c-.035.176.081.345.245.421a1.351 1.351 0 0 1-.517 2.571c-.18.008-.354.12-.388.293l-.11.554c-.038.177.078.343.242.42zM17.83 6.08a.66.66 0 0 1 1.292.26l-.87 4.329-.535 2.669a.66.66 0 1 1-1.293-.259l.599-2.977.807-4.021zM5.943 3.695a.66.66 0 0 1 1.292.259l-.3 1.495-.341 1.695L6.32 8.51l-.488 2.442a.66.66 0 0 1-.828.504.657.657 0 0 1-.461-.762l.097-.493.256-1.277 1.047-5.229z"/>
    </g>
</svg>
