<?xml version="1.0" encoding="UTF-8"?>
<svg width="223px" height="111px" viewBox="0 0 223 111" version="1.1" xmlns="http://www.w3.org/2000/svg" xmlns:xlink="http://www.w3.org/1999/xlink">
    <!-- Generator: sketchtool 45 (43475) - http://www.bohemiancoding.com/sketch -->
    <title>90BB0526-D032-4B8E-9885-A672AE9FFA23</title>
    <desc>Created with sketchtool.</desc>
    <defs>
        <path d="M187.514447,108.966977 L3.36175107,108.966977 C1.97139649,108.966977 0.844291397,107.747322 0.844291397,106.242802 L0.844291397,2.72417442 C0.844291397,1.21965443 1.97139649,2.76375838e-16 3.36175107,0 L187.514447,0 C187.514447,3.22995388 190.116142,5.84834884 193.325496,5.84834884 C196.53485,5.84834884 199.136546,3.22995388 199.136546,-1.50102153e-13 L219.863283,0 C221.253638,-2.76375838e-16 222.380743,1.21965443 222.380743,2.72417442 L222.380743,34.0521802 L222.380743,106.242802 C222.380743,107.747322 221.253638,108.966977 219.863283,108.966977 L199.136546,108.966977 C199.136546,105.737023 196.53485,103.118628 193.325496,103.118628 C190.116142,103.118628 187.514447,105.737023 187.514447,108.966977 Z" id="path-1"></path>
        <rect id="path-3" x="192.542022" y="-3.15165116" width="1" height="105.270279"></rect>
        <mask id="mask-4" maskContentUnits="userSpaceOnUse" maskUnits="objectBoundingBox" x="0" y="0" width="0.770968019" height="105.270279" fill="white">
            <use xlink:href="#path-3"></use>
        </mask>
    </defs>
    <g id="Page-1" stroke="none" stroke-width="1" fill="none" fill-rule="evenodd">
        <g id="выдача_туров_768-" transform="translate(-508.000000, -264.000000)">
            <g id="Group-13-Copy-27" transform="translate(508.000000, 265.000000)">
                <g id="Group-2">
                    <g id="Group">
                        <mask id="mask-2" fill="white">
                            <use xlink:href="#path-1"></use>
                        </mask>
                        <use id="Mask" stroke="#FFFFFF" fill-opacity="0.144050045" fill="#48C8FF" xlink:href="#path-1"></use>
                        <g id="Rectangle-2" stroke-dasharray="2,4" mask="url(#mask-2)" stroke-width="2" stroke="#FFFFFF">
                            <use mask="url(#mask-4)" xlink:href="#path-3"></use>
                        </g>
                    </g>
                </g>
            </g>
        </g>
    </g>
</svg>