<?xml version="1.0" encoding="UTF-8"?>
<svg width="17px" height="18px" viewBox="0 0 17 18" version="1.1" xmlns="http://www.w3.org/2000/svg" xmlns:xlink="http://www.w3.org/1999/xlink">
    <!-- Generator: sketchtool 45 (43475) - http://www.bohemiancoding.com/sketch -->
    <title>22238599-EB7F-46F1-B7B0-7D80DE63F7B2</title>
    <desc>Created with sketchtool.</desc>
    <defs></defs>
    <g id="Page-1" stroke="none" stroke-width="1" fill="none" fill-rule="evenodd">
        <g id="выдача-по-стране" transform="translate(-1282.000000, -729.000000)" fill-rule="nonzero" fill="#FF4C79">
            <g id="info-local-time" transform="translate(1267.000000, 718.000000)">
                <g id="icon" transform="translate(15.000000, 11.801431)">
                    <path d="M8.16460472,0 C3.65549401,0 0,3.65652185 0,8.16563255 C0,12.6726876 3.65549401,16.3281816 8.16460472,16.3281816 C12.6732015,16.3281816 16.3276677,12.6726876 16.3276677,8.16563255 C16.3276677,3.65652185 12.6732015,0 8.16460472,0 Z M8.16460472,13.8485305 C5.02970897,13.8485305 2.47862331,11.2989866 2.47862331,8.16511864 C2.47862331,5.02816722 5.02970897,2.47708156 8.16460472,2.47708156 C11.3000144,2.47708156 13.8490444,5.02868113 13.8490444,8.16511864 C13.8490444,11.2989866 11.2995005,13.8485305 8.16460472,13.8485305 Z" id="Shape"></path>
                    <path d="M8.8666158,7.71492705 L8.86712972,4.56307203 C8.86712972,4.17557836 8.55312623,3.8626027 8.16460472,3.8626027 C7.77505538,3.8626027 7.46053797,4.17557836 7.46053797,4.56307203 L7.46053797,7.71492705 L7.46053797,9.11997705 L7.46053797,9.12100488 L8.8666158,9.12100488 L8.8666158,9.11997705 L12.0189847,9.12100488 C12.4054506,9.12100488 12.7209958,8.80700139 12.7209958,8.41847988 C12.7209958,8.02893054 12.4054506,7.71492705 12.0189847,7.71492705 C12.0194987,7.71492705 8.8666158,7.71492705 8.8666158,7.71492705 Z" id="Shape"></path>
                </g>
            </g>
        </g>
    </g>
</svg>