<?xml version="1.0" encoding="UTF-8"?>
<svg width="93px" height="24px" viewBox="0 0 93 24" version="1.1" xmlns="http://www.w3.org/2000/svg" xmlns:xlink="http://www.w3.org/1999/xlink">
    <!-- Generator: sketchtool 50.2 (55047) - http://www.bohemiancoding.com/sketch -->
    <title>7F9FC098-05D8-4E45-8DD0-EB5117BCC012</title>
    <desc>Created with sketchtool.</desc>
    <defs></defs>
    <g id="Page-1" stroke="none" stroke-width="1" fill="none" fill-rule="evenodd">
        <g id="конкурс-copy-2" transform="translate(-437.000000, -1498.000000)" fill="#FFFFFF">
            <path d="M456.168,1500.36 C455.528,1504.008 454.152,1512.68 454.152,1520.168 C454.152,1520.616 453.768,1520.904 453.256,1520.904 C451.144,1520.904 448.904,1519.784 448.168,1518.824 C447.944,1518.536 447.848,1518.184 447.848,1517.768 C447.848,1515.976 448.072,1513.448 448.392,1510.824 C447.048,1513.928 445.544,1517.736 444.2,1520.072 C444.136,1520.456 443.848,1520.744 443.4,1520.744 C441.256,1520.744 439.048,1519.848 438.28,1518.888 C438.056,1518.6 437.96,1517.608 437.96,1517.192 C437.96,1511.848 439.784,1500.904 440.264,1499.08 C440.36,1498.792 440.552,1498.472 441.064,1498.472 C442.152,1498.472 444.808,1499.016 445.64,1499.336 C446.152,1499.528 446.408,1499.784 446.312,1500.296 C445.96,1502.216 445.416,1505.48 444.936,1509.224 C447.176,1505.608 449.064,1499.848 450.504,1498.728 C450.632,1498.6 450.824,1498.472 451.144,1498.472 C452.2,1498.472 454.664,1499.08 455.496,1499.4 C455.976,1499.592 456.232,1499.848 456.168,1500.36 Z M468.521856,1503.91227 C470.311934,1504.16913 470.215978,1505.80023 470.152,1506.472 C469.832,1510.12 469.288,1512.232 469.256,1518.952 C469.256,1520.36 468.808,1521.192 468.008,1521.16 C465.864,1521.064 463.752,1520.072 462.984,1519.112 C462.76,1518.824 462.664,1518.472 462.664,1518.056 C462.728,1512.744 463.72,1505.96 463.912,1504.104 C462.664,1504.104 461.512,1504.136 460.552,1504.232 C459.368,1504.136 459.208,1503.816 458.536,1503.016 C458.28,1502.728 457.32,1500.904 457.192,1499.336 C457.16,1498.792 457.16,1498.376 457.608,1498.312 C459.24,1498.088 465.544,1497.896 470.376,1498.152 C471.432,1498.216 474.088,1498.28 474.504,1498.504 C475.208,1498.856 476.232,1500.936 476.808,1503.016 C476.968,1503.56 476.808,1504.456 475.752,1504.424 C475.27855,1504.39244 472.407884,1503.92502 468.521856,1503.91227 Z M485.192,1498.12 C487.432,1498.12 489.96,1498.696 491.272,1499.528 C492.584,1500.392 494.76,1502.888 494.76,1507.976 C494.76,1515.688 491.112,1521.672 486.472,1521.672 C484.232,1521.672 481.672,1521.16 480.392,1520.296 C479.08,1519.432 476.872,1516.936 476.872,1511.816 C476.872,1504.136 480.552,1498.12 485.192,1498.12 Z M486.408,1503.112 C485.736,1503.112 485.384,1503.304 485.224,1503.464 C484.616,1504.104 483.368,1507.24 483.368,1512.648 C483.368,1516.008 484.296,1516.712 485.288,1516.712 C485.96,1516.712 486.28,1516.488 486.44,1516.328 C487.08,1515.752 488.328,1512.616 488.328,1507.208 C488.328,1503.784 487.4,1503.112 486.408,1503.112 Z M503.688,1506.472 C503.24,1510.152 502.696,1512.392 502.44,1518.792 C502.376,1520.2 502.248,1521.096 501.448,1521.064 C499.624,1520.968 497.832,1519.976 497.064,1519.016 C496.84,1518.728 496.744,1518.376 496.744,1517.96 C496.808,1513 497.672,1506.856 497.928,1504.552 C497.416,1503.912 496.776,1502.92 496.712,1501.896 C496.68,1501.352 496.744,1500.968 497.128,1500.776 C498.76,1499.912 501.864,1498.536 506.056,1498.472 C507.112,1498.44 509.448,1498.248 510.248,1498.408 C510.952,1498.536 511.56,1498.728 511.528,1499.816 C511.496,1500.392 511.336,1503.144 510.28,1503.112 C509.768,1503.08 509.672,1503.144 505.192,1503.24 C504.584,1503.272 503.272,1503.528 502.312,1503.784 C502.408,1503.784 502.504,1503.816 502.6,1503.816 C504.072,1504.072 503.848,1505.16 503.688,1506.472 Z M529.768,1500.36 C529.128,1504.008 527.752,1512.68 527.752,1520.168 C527.752,1520.616 527.368,1520.904 526.856,1520.904 C524.744,1520.904 522.504,1519.784 521.768,1518.824 C521.544,1518.536 521.448,1518.184 521.448,1517.768 C521.448,1515.976 521.672,1513.448 521.992,1510.824 C520.648,1513.928 519.144,1517.736 517.8,1520.072 C517.736,1520.456 517.448,1520.744 517,1520.744 C514.856,1520.744 512.648,1519.848 511.88,1518.888 C511.656,1518.6 511.56,1517.608 511.56,1517.192 C511.56,1511.848 513.384,1500.904 513.864,1499.08 C513.96,1498.792 514.152,1498.472 514.664,1498.472 C515.752,1498.472 518.408,1499.016 519.24,1499.336 C519.752,1499.528 520.008,1499.784 519.912,1500.296 C519.56,1502.216 519.016,1505.48 518.536,1509.224 C520.776,1505.608 522.664,1499.848 524.104,1498.728 C524.232,1498.6 524.424,1498.472 524.744,1498.472 C525.8,1498.472 528.264,1499.08 529.096,1499.4 C529.576,1499.592 529.832,1499.848 529.768,1500.36 Z" id="ИТОГИ"></path>
        </g>
    </g>
</svg>