<?xml version="1.0" encoding="UTF-8"?>
<svg width="32px" height="32px" viewBox="0 0 32 32" version="1.1" xmlns="http://www.w3.org/2000/svg" xmlns:xlink="http://www.w3.org/1999/xlink">
    <!-- Generator: sketchtool 45 (43475) - http://www.bohemiancoding.com/sketch -->
    <title>4779209B-F27E-4C1C-82B6-67EB5E958EFA</title>
    <desc>Created with sketchtool.</desc>
    <defs></defs>
    <g id="Page-1" stroke="none" stroke-width="1" fill="none" fill-rule="evenodd">
        <g id="главная_вход" transform="translate(-1294.000000, -103.000000)" fill-rule="nonzero">
            <g id="Group-7" transform="translate(946.000000, 52.000000)">
                <g id="Group-6" transform="translate(198.000000, 51.000000)">
                    <g id="Group-9">
                        <g id="twitter" transform="translate(150.000000, 0.000000)">
                            <circle id="Oval" fill="#55ACEE" cx="16.0002811" cy="16" r="16"></circle>
                            <path d="M26.4328077,11.3347086 C25.7569311,11.6344109 25.0298859,11.8371177 24.2674162,11.9276469 C25.0459113,11.4612246 25.6433479,10.7232146 25.925338,9.84238216 C25.196887,10.2745046 24.389715,10.5879831 23.5313742,10.7569522 C22.8436895,10.0245652 21.8638934,9.56685843 20.7789484,9.56685843 C18.6973386,9.56685843 17.0090529,11.2551441 17.0090529,13.336754 C17.0090529,13.6322391 17.0425094,13.9198521 17.1071731,14.1959381 C13.9740748,14.0387772 11.1960647,12.5380163 9.33656066,10.2565112 C9.01211742,10.8131816 8.82599834,11.4612246 8.82599834,12.1520019 C8.82599834,13.459615 9.49203477,14.6140032 10.5030381,15.2898798 C9.88535894,15.2704807 9.30366651,15.1009492 8.7956345,14.8178345 C8.79535335,14.8338599 8.79535335,14.8498853 8.79535335,14.8656295 C8.79535335,16.6922393 10.0953755,18.215773 11.8196479,18.5618646 C11.5036391,18.6484577 11.169918,18.6942846 10.8266379,18.6942846 C10.5831649,18.6942846 10.3472829,18.6709495 10.1173049,18.6270906 C10.5969411,20.1244777 11.9888982,21.2144833 13.638948,21.2451283 C12.3484848,22.2564128 10.723176,22.8589101 8.95645038,22.8589101 C8.652812,22.8589101 8.35198507,22.8411978 8.05762452,22.8060545 C9.72510534,23.8760987 11.7071893,24.4999631 13.8360318,24.4999631 C20.7702329,24.4999631 24.562339,18.7555746 24.562339,13.7733747 C24.562339,13.6100285 24.5586841,13.4472446 24.5513743,13.2858664 C25.2885408,12.7544992 25.9275872,12.090712 26.4328077,11.3347086 L26.4328077,11.3347086 Z" id="Shape" fill="#FFFFFF"></path>
                        </g>
                    </g>
                </g>
            </g>
        </g>
    </g>
</svg>