<svg xmlns="http://www.w3.org/2000/svg" width="21" height="21" viewBox="0 0 21 21">
    <path fill="#FFF" fill-rule="nonzero" d="M11.156 0C6.364 0 3.297 3.467 3.231 8.077H.404c-.161 0-.328.091-.328.252-.082.161-.082.322 0 .404l4.846 6.21c.082.081.167.15.328.15.16 0 .246-.069.328-.15l4.846-6.21c.082-.082.082-.243 0-.404-.082-.16-.246-.252-.328-.252H7.27C7.323 1.99 10.437.637 11.156.076c.161-.082.161-.076 0-.076zm4.594 5.931a.474.474 0 0 0-.328.127l-4.846 6.209c-.082.16-.076.322-.076.404.082.16.246.252.328.252h2.903c-.054 6.086-3.168 7.44-3.887 8.001-.161.082-.161.076 0 .076 4.792 0 7.859-3.467 7.925-8.077h2.751c.161 0 .329-.091.329-.252.16-.161.157-.322.075-.404l-4.846-6.21a.474.474 0 0 0-.328-.126z"/>
</svg>
