<svg xmlns="http://www.w3.org/2000/svg" width="19" height="20" viewBox="0 0 19 20">
    <g fill="#FFF" fill-rule="nonzero">
        <path d="M14.498 12.95c-.61-.599-1.37-.599-1.975 0-.462.457-.923.914-1.377 1.378-.124.128-.229.155-.38.07-.299-.163-.617-.295-.904-.472-1.338-.84-2.46-1.92-3.453-3.134-.492-.604-.93-1.25-1.237-1.977-.062-.147-.05-.244.07-.363.461-.445.911-.902 1.365-1.358.632-.635.632-1.378-.004-2.016-.36-.364-.721-.72-1.082-1.083-.372-.371-.741-.747-1.117-1.114-.61-.592-1.37-.592-1.975.004-.465.456-.911.924-1.385 1.373-.438.414-.66.92-.706 1.513-.073.963.163 1.872.497 2.758.683 1.834 1.722 3.462 2.983 4.955a18.453 18.453 0 0 0 6.114 4.77c1.07.519 2.18.917 3.386.983.83.046 1.552-.162 2.13-.808.396-.442.842-.844 1.26-1.266.621-.626.625-1.384.009-2.003-.738-.74-1.478-1.474-2.22-2.21zM13.994 10l1.498-.26a6.867 6.867 0 0 0-1.872-3.682 6.613 6.613 0 0 0-3.816-1.94l-.21 1.535a5.131 5.131 0 0 1 2.955 1.501A5.298 5.298 0 0 1 13.994 10zM15.876 3.577c-1.66-1.544-3.76-2.52-6.08-2.82l-.203 1.345c2.004.26 3.82 1.105 5.254 2.436 1.36 1.265 2.253 2.864 2.577 4.622l1.438-.229c-.378-2.037-1.411-3.886-2.986-5.354z"/>
    </g>
</svg>
