<?xml version="1.0" encoding="UTF-8"?>
<svg width="14px" height="14px" viewBox="0 0 14 14" version="1.1" xmlns="http://www.w3.org/2000/svg" xmlns:xlink="http://www.w3.org/1999/xlink">
    <!-- Generator: sketchtool 45 (43475) - http://www.bohemiancoding.com/sketch -->
    <title>5B6D93AF-5466-4448-9372-86B8E8EE2E3B</title>
    <desc>Created with sketchtool.</desc>
    <defs></defs>
    <g id="Page-1" stroke="none" stroke-width="1" fill="none" fill-rule="evenodd">
        <g id="выдача-по-стране" transform="translate(-1284.000000, -476.000000)" fill-rule="nonzero" fill="#3E4758">
            <g id="passport-with-globe" transform="translate(1284.000000, 476.000000)">
                <path d="M6.80341953,13.4760201 C10.4182847,13.4760201 13.3598295,10.5348933 13.3598295,6.91961013 C13.3598295,3.30432699 10.4182847,0.363618073 6.80341953,0.363618073 C3.18855434,0.363618073 0.247009518,3.30474495 0.247009518,6.92002808 C0.247009518,10.5353112 3.18813639,13.4760201 6.80341953,13.4760201 Z M2.91897543,10.5169213 L4.40939157,10.5169213 C4.53895663,11.0071788 4.69568856,11.4610745 4.88209507,11.8564569 C4.12852796,11.5622188 3.45980507,11.1008 2.91897543,10.5169213 Z M1.54140627,7.5469558 L3.99102181,7.5469558 C4.01317326,8.13125242 4.06750699,8.70969773 4.15193326,9.26306592 L2.05423314,9.26306592 L2.05423314,9.26306592 C1.7917594,8.73393893 1.61371193,8.15716544 1.54140627,7.5469558 Z M2.05381518,4.57699025 C2.05381518,4.57699025 2.05423314,4.57699025 2.05381518,4.57699025 L4.15151531,4.57699025 C4.06750699,5.13077639 4.01317326,5.70838579 3.99060386,6.29268242 L1.54098832,6.29268242 C1.61371193,5.68289073 1.7917594,5.10611724 2.05381518,4.57699025 Z M6.80341953,1.6174735 C7.1081064,1.6174735 7.55155327,2.22893699 7.89009423,3.32313482 L5.71632688,3.32313482 C6.05528579,2.22893699 6.49873266,1.6174735 6.80341953,1.6174735 Z M8.18391435,4.57699025 C8.27210218,5.09190688 8.33604881,5.6640829 8.36154387,6.29268242 L5.24571314,6.29268242 C5.2712082,5.6640829 5.33515483,5.09190688 5.42292471,4.57699025 L8.18391435,4.57699025 Z M11.5530239,4.57699025 C11.8150797,5.10611724 11.9931271,5.68289073 12.0654328,6.29310037 L9.6162352,6.29310037 C9.59408375,5.70880374 9.53975002,5.13077639 9.45532375,4.5774082 L11.5530239,4.57699025 C11.5526059,4.57699025 11.5526059,4.57699025 11.5530239,4.57699025 Z M11.5526059,9.26306592 L11.5526059,9.26306592 L9.4549058,9.26306592 C9.53933206,8.70927977 9.59324785,8.13125242 9.61581724,7.5469558 L12.0650148,7.5469558 C11.9927092,8.15716544 11.8146617,8.73393893 11.5526059,9.26306592 Z M6.80341953,12.2221647 C6.49915061,12.2221647 6.05528579,11.6107012 5.71674483,10.5169213 L7.89009423,10.5169213 C7.55155327,11.6111192 7.10768845,12.2221647 6.80341953,12.2221647 Z M5.42292471,9.26306592 C5.33473688,8.74773134 5.27079025,8.17555531 5.24529519,7.5469558 L8.36112592,7.5469558 C8.33563086,8.17597327 8.27168423,8.74814929 8.1834964,9.26306592 L5.42292471,9.26306592 L5.42292471,9.26306592 Z M8.72474399,11.8564569 C8.91156845,11.4610745 9.06830038,11.0071788 9.19786544,10.5169213 L10.6878636,10.5169213 C10.147034,11.1008 9.4783111,11.5622188 8.72474399,11.8564569 Z M10.6882816,3.32313482 L9.19786544,3.32313482 C9.06830038,2.8324594 8.91156845,2.37856374 8.72474399,1.98318133 C9.47872905,2.27783735 10.147034,2.73925615 10.6882816,3.32313482 Z M4.88209507,1.98318133 C4.69527061,2.37856374 4.53853868,2.8324594 4.40897362,3.32313482 L2.91855747,3.32313482 C3.45980507,2.73925615 4.12811001,2.27783735 4.88209507,1.98318133 Z" id="Shape"></path>
            </g>
        </g>
    </g>
</svg>