<?xml version="1.0" encoding="UTF-8"?>
<svg width="18px" height="11px" viewBox="0 0 18 11" version="1.1" xmlns="http://www.w3.org/2000/svg" xmlns:xlink="http://www.w3.org/1999/xlink">
    <!-- Generator: sketchtool 45 (43475) - http://www.bohemiancoding.com/sketch -->
    <title>A7AB69C7-F15D-4417-AAA9-5F2D528A0F8C</title>
    <desc>Created with sketchtool.</desc>
    <defs></defs>
    <g id="Page-1" stroke="none" stroke-width="1" fill="none" fill-rule="evenodd">
        <g id="главная-copy" transform="translate(-435.000000, -3578.000000)" fill-rule="nonzero" fill="#FFFFFF">
            <g id="Group-7" transform="translate(0.000000, 3524.000000)">
                <g id="Group-6" transform="translate(435.000000, 50.000000)">
                    <g id="vk" transform="translate(0.000000, 4.000000)">
                        <path d="M8.98385742,10.3529475 L9.97452962,10.3529475 C9.97452962,10.3529475 10.2737788,10.3200976 10.4265534,10.155398 C10.567178,10.0041985 10.562678,9.72024927 10.562678,9.72024927 C10.562678,9.72024927 10.543328,8.39095302 11.1602763,8.19520357 C11.7684496,8.00237911 12.5494224,9.47994995 13.377195,10.0480733 C14.0031433,10.4780471 14.4787919,10.3837724 14.4787919,10.3837724 L16.6921107,10.3529475 C16.6921107,10.3529475 17.8499574,10.2816227 17.300959,9.37127525 C17.2559591,9.29680046 16.9812349,8.69785215 15.6553136,7.46710562 C14.2675175,6.17898425 14.453367,6.38733366 16.1251123,4.15916494 C17.1432344,2.80219376 17.5502583,1.9737461 17.4231336,1.6189221 C17.301859,1.28097305 16.5530611,1.3702978 16.5530611,1.3702978 L14.0609681,1.38582275 C14.0609681,1.38582275 13.8762436,1.36062283 13.739219,1.4425226 C13.6053444,1.52284737 13.5191696,1.71004684 13.5191696,1.71004684 C13.5191696,1.71004684 13.1247457,2.76011888 12.5986972,3.65314137 C11.4890004,5.53751106 11.0453016,5.63696078 10.8639521,5.51996111 C10.4420783,5.24726187 10.547378,4.42443919 10.547378,3.83989084 C10.547378,2.01379599 10.8243522,1.25239813 10.0080545,1.05529869 C9.73715529,0.989823871 9.53780585,0.946623992 8.84503281,0.939649012 C7.95583531,0.930424038 7.20321243,0.942349004 6.77706363,1.15114842 C6.49356443,1.28997302 6.27486505,1.59934715 6.40806467,1.6171221 C6.57276421,1.63917204 6.94581316,1.71769682 7.1435876,1.98702106 C7.39896188,2.33442008 7.38996191,3.11471788 7.38996191,3.11471788 C7.38996191,3.11471788 7.53666149,5.26436183 7.04728787,5.53143607 C6.71136382,5.71458556 6.25056512,5.34063661 5.2612429,3.63109143 C4.75431933,2.7553939 4.37159541,1.78744662 4.37159541,1.78744662 C4.37159541,1.78744662 4.29779562,1.60654713 4.16617099,1.50979741 C4.00642144,1.39257274 3.78322207,1.35522284 3.78322207,1.35522284 L1.41510374,1.3707478 C1.41510374,1.3707478 1.05960474,1.38064777 0.929105111,1.53522233 C0.813005438,1.67269695 0.919880137,1.95709615 0.919880137,1.95709615 C0.919880137,1.95709615 2.77387491,6.29463392 4.873119,8.48050276 C6.79798857,10.4845721 8.98385742,10.3529475 8.98385742,10.3529475 L8.98385742,10.3529475 Z" id="Combined-Shape"></path>
                    </g>
                </g>
            </g>
        </g>
    </g>
</svg>