<?xml version="1.0" encoding="UTF-8"?>
<svg width="32px" height="32px" viewBox="0 0 32 32" version="1.1" xmlns="http://www.w3.org/2000/svg" xmlns:xlink="http://www.w3.org/1999/xlink">
    <!-- Generator: sketchtool 45 (43475) - http://www.bohemiancoding.com/sketch -->
    <title>B840FEC0-60D5-401C-B8D2-A99A00B71790</title>
    <desc>Created with sketchtool.</desc>
    <defs></defs>
    <g id="Page-1" stroke="none" stroke-width="1" fill="none" fill-rule="evenodd">
        <g id="главная_вход" transform="translate(-1144.000000, -103.000000)">
            <g id="Group-7" transform="translate(946.000000, 52.000000)">
                <g id="Group-6" transform="translate(198.000000, 51.000000)">
                    <g id="Group-9">
                        <g id="Group-10">
                            <circle id="XMLID_11_" fill="#4186CE" fill-rule="nonzero" cx="16" cy="16" r="16"></circle>
                            <path d="M15.9801322,22.5882431 L17.1994211,22.5882431 C17.1994211,22.5882431 17.5677277,22.5478124 17.755758,22.3451053 C17.9288344,22.1590135 17.923296,21.8095376 17.923296,21.8095376 C17.923296,21.8095376 17.8994806,20.1734806 18.6588016,19.9325582 C19.4073225,19.6952358 20.3685198,21.5137846 21.387317,22.2130134 C22.1577148,22.7422119 22.7431285,22.6261814 22.7431285,22.6261814 L25.4672132,22.5882431 C25.4672132,22.5882431 26.8922553,22.5004587 26.2165649,21.3800311 C26.1611804,21.2883698 25.8230583,20.5512026 24.1911552,19.0364377 C22.4830985,17.4510575 22.7118363,17.7074876 24.769369,14.9651261 C26.0224424,13.2950077 26.5233948,12.2753798 26.3669337,11.8386734 C26.2176726,11.4227361 25.2960752,11.5326742 25.2960752,11.5326742 L22.2288838,11.5517819 C22.2288838,11.5517819 22.0015306,11.5207666 21.8328849,11.6215663 C21.6681162,11.7204275 21.5620549,11.9508269 21.5620549,11.9508269 C21.5620549,11.9508269 21.0766102,13.2432232 20.4291658,14.3423278 C19.0633851,16.6615521 18.5172943,16.7839517 18.2940949,16.6399521 C17.7748656,16.3043223 17.9044652,15.2916175 17.9044652,14.5721733 C17.9044652,12.324672 18.2453566,11.3875669 17.2406825,11.144983 C16.9072681,11.0643986 16.6619149,11.0112295 15.8092711,11.0026449 C14.7148742,10.9912911 13.7885691,11.005968 13.2640783,11.2629519 C12.9151562,11.433813 12.6459878,11.8145811 12.8099258,11.836458 C13.0126329,11.8635964 13.47177,11.9602422 13.7151847,12.2917182 C14.0294915,12.7192863 14.0184147,13.6796528 14.0184147,13.6796528 C14.0184147,13.6796528 14.198968,16.3253684 13.596662,16.6540752 C13.183217,16.8794899 12.6160801,16.4192451 11.3984528,14.3151895 C10.7745469,13.2374079 10.303502,12.0460882 10.303502,12.0460882 C10.303502,12.0460882 10.2126715,11.8234426 10.050672,11.704366 C9.85405716,11.5600895 9.57935024,11.5141204 9.57935024,11.5141204 L6.66474307,11.5332281 C6.66474307,11.5332281 6.22720584,11.5454126 6.06659091,11.7356583 C5.923699,11.9048578 6.05523709,12.2548876 6.05523709,12.2548876 C6.05523709,12.2548876 8.33707682,17.5933956 10.9207618,20.2836957 C13.2898321,22.7502426 15.9801322,22.5882431 15.9801322,22.5882431 L15.9801322,22.5882431 Z" id="Shape" fill="#FFFFFF"></path>
                        </g>
                    </g>
                </g>
            </g>
        </g>
    </g>
</svg>