<svg xmlns="http://www.w3.org/2000/svg" width="20" height="18" viewBox="0 0 20 18">
    <path fill="#FFF" fill-rule="nonzero" d="M18.122 12.366c-.072-.034-2.764-1.356-3.242-1.528-.196-.07-.405-.138-.627-.138-.364 0-.67.18-.907.535-.269.4-1.083 1.348-1.334 1.631-.033.038-.078.083-.105.083-.024 0-.44-.172-.567-.226-2.887-1.251-5.08-4.26-5.38-4.766-.043-.073-.044-.106-.045-.106.01-.039.108-.136.158-.186.147-.145.305-.336.46-.52.072-.087.145-.175.216-.257.223-.26.323-.46.438-.693l.06-.12c.28-.557.04-1.027-.037-1.179-.063-.127-1.2-2.862-1.32-3.15C5.598 1.053 5.214.73 4.68.73c-.05 0 0 0-.208.008-.252.011-1.63.192-2.238.575-.645.405-1.738 1.7-1.738 3.975 0 2.047 1.303 3.981 1.863 4.716l.076.11c2.143 3.121 4.814 5.434 7.522 6.513 2.607 1.038 3.841 1.158 4.543 1.158.295 0 .531-.023.74-.044l.131-.012c.9-.08 2.88-1.102 3.33-2.35.355-.983.448-2.056.212-2.446-.161-.265-.44-.398-.792-.567z"/>
</svg>
