<?xml version="1.0" encoding="UTF-8"?>
<svg width="225px" height="299px" viewBox="0 0 225 299" version="1.1" xmlns="http://www.w3.org/2000/svg" xmlns:xlink="http://www.w3.org/1999/xlink">
    <!-- Generator: sketchtool 49.1 (51147) - http://www.bohemiancoding.com/sketch -->
    <title>29126CBD-91C3-4454-A47D-8823C7205B3C</title>
    <desc>Created with sketchtool.</desc>
    <defs>
        <polygon id="path-1" points="0.0115406481 0.291238086 49.9670911 0.291238086 49.9670911 31.1351351 0.0115406481 31.1351351"></polygon>
    </defs>
    <g id="Page-1" stroke="none" stroke-width="1" fill="none" fill-rule="evenodd">
        <g id="о_компании" transform="translate(-497.000000, -2398.000000)">
            <g id="Group-3" transform="translate(395.000000, 2374.000000)">
                <g id="Page-1" transform="translate(102.000000, 24.000000)">
                    <path d="M67.8700703,113.105245 C65.4685656,112.076836 63.343526,112.756044 61.2937124,114.017007 C59.4168805,115.171659 57.882957,116.675882 56.5666926,118.393464 C56.3509429,118.674744 56.2306576,119.024314 56.0664587,119.342508 C56.1122816,119.42704 56.1584864,119.511572 56.2043094,119.596104 C56.6846867,119.482041 57.1952308,119.434423 57.6397135,119.24358 C59.8178313,118.308194 61.9810567,117.341062 64.1439003,116.372822 C65.5850322,115.727575 66.8073596,116.012916 67.8181376,117.164246 C68.4340745,117.865602 69.0820875,118.554776 69.5930135,119.325159 C70.5270381,120.733407 70.3555838,122.01135 69.048484,123.125397 C65.0160639,126.562777 60.9947176,130.016398 56.3406327,132.686347 C54.5352082,133.722138 52.7591868,134.805179 50.9698004,135.866809 C49.9513852,136.471082 49.7497642,137.13737 50.2958211,138.090844 C50.8048377,138.97935 51.8140883,139.2909 52.7385665,138.689949 C55.9572473,136.598064 59.2496267,134.589604 62.3021993,132.287313 C65.4059409,129.946632 68.263384,127.299938 71.220874,124.77912 C72.2324157,123.917191 73.3195654,123.252011 74.7412226,123.509666 C75.1566841,123.58497 75.6966312,123.702724 75.917727,123.989541 C77.8510739,126.497809 79.7584544,129.02638 81.5929001,131.602938 C82.047693,132.241909 82.149649,133.106791 82.5303614,133.808516 C82.7052524,134.131508 83.1623364,134.310908 83.4914979,134.555644 C83.676699,134.207181 84.0161708,133.861302 84.0230442,133.509517 C84.0738313,130.909334 83.7767458,128.337575 82.7629129,125.914946 C82.3925107,125.028654 81.719677,124.243506 81.1003033,123.476075 C80.1700973,122.323638 79.1650472,121.227308 78.0484945,119.941983 C79.5488144,119.486102 80.7944351,119.615299 82.0289819,119.723824 C85.3981148,120.020608 88.091359,121.797252 90.81477,123.506713 C91.6666952,124.04122 92.5071646,124.615224 93.4232418,125.023856 C93.8478679,125.213222 94.4405115,125.049326 94.9571653,125.045635 C94.9430365,124.556531 95.100362,123.979944 94.8876671,123.592722 C93.3758914,120.835657 91.4104685,118.399739 88.5732638,116.84716 C87.4582385,116.236612 86.0419273,116.114059 84.7455195,115.848651 C83.6744079,115.629016 82.5780937,115.526397 81.2858863,115.342199 C81.606647,114.964205 81.7777194,114.722792 81.988505,114.520137 C84.0535929,112.533086 85.5672778,110.215292 86.502448,107.545712 C87.8381872,103.731815 86.209563,99.4465342 82.6311719,97.3734755 C82.4135129,97.2472315 82.1950901,97.1014234 81.9556652,97.0368249 C81.730369,96.9759177 81.4771972,97.0106164 81.2362448,97.0036028 C81.2286076,97.2612586 81.1216874,97.5683784 81.2286076,97.7691875 C82.3780001,99.9301002 82.4860659,102.261184 82.4261142,104.607771 C82.3585253,107.251512 80.7741966,109.109365 78.850778,110.763825 C78.7583684,110.843558 78.6354102,110.897083 78.5177979,110.938795 C78.4337891,110.968695 78.3345061,110.958728 78.0943174,110.979031 C78.1745076,110.617648 78.2592801,110.312743 78.3085397,110.002301 C78.5212346,108.670833 78.8882001,107.338627 78.8950736,106.005314 C78.9080567,103.381507 77.2588122,101.75547 74.9359702,100.734813 C72.809785,99.8001649 70.6003548,99.116528 68.2030505,99.3690159 C67.9823366,99.3922714 67.7280192,99.3612641 67.5485459,99.4579773 C67.2663529,99.6096916 67.0345651,99.8488906 66.7817751,100.051176 C66.9948519,100.253093 67.1724158,100.532158 67.4278788,100.642899 C68.7036663,101.195124 70.0176395,101.666877 71.2865536,102.23313 C74.9691918,103.876885 75.3285202,107.43571 74.1623259,110.379556 C73.8996076,111.04326 73.541043,110.956144 73.1190899,110.505431 C72.1820105,109.50397 71.2865536,108.45895 70.2803578,107.526517 C68.8239515,106.176592 67.1036814,105.582655 65.0363023,105.963602 C63.7620423,106.198371 62.442723,106.196526 61.1547161,106.374817 C60.8133351,106.422067 60.5131947,106.743583 60.1939614,106.938855 C60.5032664,107.121207 60.7900417,107.386246 61.125313,107.469301 C62.1708401,107.729171 63.2320234,107.933303 64.2920612,108.134481 C65.6472751,108.391029 66.8463091,108.886408 67.6298817,110.060993 C68.3240994,111.101583 69.0164079,112.14365 69.709862,113.184978 C69.6117245,113.276523 69.513587,113.368068 69.4154495,113.459245 C68.8984138,113.345551 68.3458653,113.309007 67.8700703,113.105245" id="Fill-1" fill="#FEFEFE"></path>
                    <g id="Group-5" transform="translate(21.000000, 267.000000)">
                        <mask id="mask-2" fill="white">
                            <use xlink:href="#path-1"></use>
                        </mask>
                        <g id="Clip-4"></g>
                        <path d="M24.3143704,27.4706798 C20.9888148,28.5937954 17.5477037,29.1666068 14.071037,29.4025586 C11.5528889,29.5736143 9.00585185,29.5938709 6.48881481,29.4231904 C3.40696296,29.2142473 2.224,27.2343528 3.57585185,24.540601 C5.05807407,21.5868895 7.09733333,19.0503138 9.96177778,17.2943672 C10.6680741,16.8614763 11.274,16.8412197 12.0265926,17.2459764 C16.1065926,19.4415661 19.8236296,22.1585756 23.3302963,25.1850608 C23.9543704,25.7237361 24.5262222,26.3243066 25.2821481,27.0494176 C24.8080741,27.2576104 24.5680741,27.3847768 24.3143704,27.4706798 M47.3665926,1.22413598 C47.1714074,0.526408857 46.9954815,0.123152589 46.0484444,0.358729274 C42.8406667,1.15736425 39.5825185,1.67728349 36.2580741,1.5977576 C36.0806667,1.59325614 35.8991852,1.65252543 35.7243704,1.70016594 C35.6854815,1.71104448 35.6665926,1.79769769 35.5843704,1.94999726 C36.9547407,2.33974914 38.2988148,2.72574979 39.6451111,3.10312263 C41.2773333,3.56077161 42.9154815,3.9966635 44.541037,4.47719492 C44.8084444,4.55634569 45.1391852,4.76266285 45.2462222,5.00011514 C46.6984444,8.21716236 47.9895556,11.4653447 48.0558519,15.1047794 C48.0902963,17.0021471 47.3765926,18.2760617 45.7502963,19.0563157 C43.4154815,20.1764303 41.0984444,21.3513128 38.7002963,22.3146264 C34.8936296,23.8436241 31.0225185,25.207193 27.1877037,26.6645424 C26.3895556,26.967641 25.9728889,26.7992112 25.651037,25.9533108 C24.3488148,22.5261952 22.0914074,19.947981 18.8665926,18.2145417 C17.7736296,17.6267254 16.791037,16.8284655 15.6277037,16.0380832 C16.904,15.6918455 17.9888148,15.4802767 19.0147407,15.1032789 C22.2277037,13.9223945 24.4062222,11.4593428 26.4217778,8.81435676 C27.8351111,6.95975304 29.2436296,5.10139811 30.664,3.25242123 C30.8854815,2.96395233 31.1588148,2.71637174 31.5506667,2.29736034 C32.1147407,3.75208388 32.6195556,5.05413273 33.2243704,6.61389046 C32.0836296,6.30816594 31.1806667,6.06583706 30.2773333,5.8238833 C30.2299259,5.92254041 30.1821481,6.0208224 30.1347407,6.11947952 C31.4254815,7.04903211 32.7288148,7.96207932 34.0006667,8.91789046 C34.4343704,9.24424669 34.8473333,9.63474881 35.1680741,10.0721412 C36.1795556,11.4514652 37.1384444,12.8698019 38.1280741,14.2656313 C38.3332593,14.5552255 38.5814074,14.8140598 38.8095556,15.0867736 C38.9165926,15.0248784 39.0236296,14.9626081 39.1306667,14.9003379 C38.4725185,13.5303919 37.814,12.1600709 37.0917778,10.6573317 C38.576963,10.8861562 39.9788148,11.1022265 41.381037,11.3179217 C41.4184444,11.2316436 41.4558519,11.1449904 41.4936296,11.0587123 C40.8777037,10.3538579 40.0521481,9.93372113 39.1962222,9.56685171 C38.7714074,9.38491749 38.3247407,9.25550036 37.8902963,9.09532322 C36.2728889,8.49925418 35.0032593,7.54231768 34.1858519,5.92629163 C33.5858519,4.7397804 32.6817778,3.71382143 32.0428889,2.54344044 C31.8265926,2.14693637 32.0088148,1.52760977 32.0088148,0.942044155 C31.6314074,1.14423497 31.0232593,1.3873141 30.511037,1.76356158 C29.5888148,2.44103211 28.6632593,3.13538313 27.8454815,3.93476835 C25.2828889,6.44058404 22.2125185,8.15376672 19.1117778,9.83243816 C15.1199259,11.9935166 11.034,13.9989194 7.17288889,16.378319 C3.61251852,18.5720331 1.23992593,21.8997413 0.168814815,26.0238338 C-0.314148148,27.882939 0.315481481,29.1654815 2.054,29.9262291 C3.39140741,30.5117947 4.86288889,31.0666003 6.28807407,31.1037374 C9.42214815,31.1843887 12.5862222,31.1228686 15.6988148,30.7668778 C21.0054815,30.1599302 26.1854815,28.8785131 31.1928889,26.958263 C33.896963,25.9210503 36.5747407,24.8129396 39.2854815,23.7944831 C40.6958519,23.2648107 42.1758519,22.9230744 43.5802963,22.3791474 C44.6962222,21.9470067 45.7443704,21.3355577 46.824,20.8066355 C47.9762222,20.2420767 48.6132593,19.29977 49.0199259,18.0779973 C50.3332593,14.1347136 50.2825185,10.2506993 48.856963,6.34080156 C48.2502963,4.67638476 47.8451111,2.93544305 47.3665926,1.22413598" id="Fill-3" fill="#FEFEFE" mask="url(#mask-2)"></path>
                    </g>
                    <path d="M59.8600051,282.885452 C59.9065316,282.789176 59.9530581,282.693284 60,282.597008 C59.4578833,282.263303 58.9581389,281.832938 58.3661724,281.615071 C56.9612386,281.098787 55.4981466,280.716752 54.0886432,280.209673 C53.5182783,280.004463 52.9304659,279.697991 52.5154662,279.293326 C51.4345561,278.238127 50.4450374,277.103145 49.4193775,276 C49.3030613,276.076714 49.1871605,276.153044 49.0712597,276.229374 C49.7434013,277.421124 50.4155429,278.612874 51.1371189,279.891694 C49.7213843,280.263756 48.1623314,279.925065 47,281.273694 C48.5848086,281.456273 49.9585863,281.6891 51.3415032,281.747786 C52.2554164,281.786526 52.7925481,282.103738 53.2075478,282.825999 C53.8701349,283.979008 54.6066658,285.095962 55.3203489,286.224039 C55.5002237,286.507881 55.7112546,286.774845 56.0340321,287 C56.5661788,285.275089 55.4512047,283.921856 54.8791781,282.214206 C55.7465648,282.322756 56.5549626,282.417498 57.3612833,282.526048 C58.1954368,282.638817 59.0270978,282.765395 59.8600051,282.885452" id="Fill-6" fill="#FEFEFE"></path>
                    <path d="M111.115213,276.903022 C111.191521,276.935223 111.268169,276.967424 111.344477,277 C111.495397,276.757368 111.725,276.535705 111.783333,276.268361 C112.021415,275.18176 112.311047,274.089168 112.379215,272.983846 C112.435174,272.079219 112.650533,271.438941 113.392248,271.023322 C113.602859,270.905376 113.756492,270.663867 114,270.412998 C113.333576,269.968548 112.425678,271.045413 112.250339,270 C111.57001,270.374806 110.965649,270.816261 110.301599,271.051404 C108.883285,271.553517 107.651163,272.245092 107,274.118374 C107.395446,273.988072 107.642684,273.931158 107.872626,273.826692 C108.681153,273.458625 109.479845,273.065098 110.28905,272.698903 C110.900533,272.422573 111.165068,272.601551 111.129118,273.393474 C111.075533,274.560578 111.115213,275.732923 111.115213,276.903022" id="Fill-8" fill="#FEFEFE"></path>
                    <path d="M117.692956,123.989871 C118.013884,124.03841 118.556906,123.908381 118.698862,123.688005 C119.158694,122.974793 119.077031,122.144662 118.555379,121.514712 C117.632281,120.398658 116.58707,119.369054 115.570098,118.321735 C115.410969,118.158048 115.133543,118.000737 114.910306,118.000029 C114.273791,117.998257 113.636896,118.079392 113,118.127932 C113.05228,118.653009 112.970617,119.233002 113.18813,119.690761 C113.510967,120.371377 114.045211,120.965543 114.489779,121.596556 C114.55427,121.56148 114.619142,121.526758 114.683633,121.492036 C114.532518,120.891848 114.381404,120.292013 114.167706,119.445584 C116.035272,120.306185 116.991951,121.496642 117.608622,123.061598 C117.304866,123.161511 117.053389,123.244064 116.642784,123.378699 C117.045757,123.627419 117.346842,123.937434 117.692956,123.989871" id="Fill-10" fill="#FEFEFE"></path>
                    <path d="M102.377403,53.5183625 C100.080192,54.6471 97.7151534,55.068897 95.1614415,54.9074951 C94.1405025,54.8429343 93.1121569,54.8784428 92.0873197,54.8684 C92.0580832,54.9476663 92.0288467,55.0269325 92,55.1061988 C92.2518238,55.3063372 92.4693435,55.5925566 92.7620984,55.6922672 C94.0913852,56.1445512 95.4171635,56.791235 96.7901102,56.9070857 C99.0358641,57.0968226 101.317482,56.9447461 103.583116,56.8984776 C104.093781,56.8880761 104.613411,56.7603893 105.106534,56.6201489 C110.500475,55.0857546 111.570531,52.5790033 110.756977,48.4966105 C110.035809,44.8779792 109.085818,41.2909109 107.190122,38.0241359 C105.297935,34.7634582 103.204211,31.6021324 101.193519,28.3995594 C101.101521,28.252863 100.958457,28.1327083 100.839172,28 C100.772513,28.0344324 100.706244,28.0685062 100.639974,28.1025799 C101.156486,29.6373329 101.58178,31.2043663 102.20861,32.7000242 C103.520355,35.8312217 104.033748,39.093334 104.369384,42.4027909 C104.5947,44.6276268 105.018044,46.840268 105.140838,49.068332 C105.247648,51.0083832 104.405247,52.5219746 102.377403,53.5183625" id="Fill-12" fill="#FEFEFE"></path>
                    <path d="M91.642121,22.5572057 C90.3466454,20.5132103 88.7531949,18.9760234 86.3949036,19.0002832 C83.1596929,19.0333647 80.2719262,20.2176823 77.7799134,22.5916104 C77.4823251,22.874788 77.2581676,23.2589745 77,23.5964057 C77.0514016,23.7309372 77.1028033,23.8654686 77.1542049,24 C77.9147944,23.7918071 78.6796352,23.6034631 79.4344275,23.3718927 C81.7502061,22.6604199 84.060574,22.7790722 86.4084304,23.2175123 C88.1939606,23.5505327 90.0154334,23.6321338 92,23.8447375 C91.8338143,23.2232465 91.8137174,22.8275918 91.642121,22.5572057" id="Fill-14" fill="#FEFEFE"></path>
                    <path d="M120.252653,32.6621403 C120.669319,33.1330363 121.151137,33.5555549 121.603031,34 C121.735228,33.936309 121.867424,33.8722699 122,33.8082308 C121.682576,32.8076204 121.571213,31.6914612 121.000759,30.8328504 C120.059093,29.4145939 118.883336,28.1125822 117.689019,26.8558155 C116.613263,25.7239945 115.077658,25.2283878 113.51516,25.0056433 C113.063645,24.9412562 112.43713,25.4413874 112.037131,25.8148326 C111.908722,25.9349058 112.1341,26.6052278 112.395842,26.8077862 C113.570084,27.7175586 114.722734,28.7098161 116.059475,29.370045 C117.748489,30.2042931 119.071972,31.3281091 120.252653,32.6621403" id="Fill-16" fill="#FEFEFE"></path>
                    <path d="M84.5375047,26.3480587 C84.4901301,26.2861399 84.4432154,26.2242211 84.3958408,26.1623023 C83.5155012,26.1982653 82.4672806,26.111016 82.1016223,26.834653 C81.7497624,27.5310831 82.3624126,28.0946068 83.1595017,28.5127151 C84.2229005,29.0709225 85.3782889,29.1612989 86.5930105,28.7228637 C87.4669109,28.4076407 88.0367859,27.9692056 87.9981504,27.249634 C87.9599747,26.5400696 87.176684,26.3277318 86.1891765,26 C86.7935476,26.9616178 85.9086085,27.2846588 85.0517261,27.6302158 C84.2532571,27.9520059 83.7486946,27.5836203 83.2666695,27.2621429 C83.183419,27.2064785 83.3398012,26.8831247 83.5109017,26.7758614 C83.8002087,26.5944831 84.1897843,26.4865942 84.5375047,26.3480587" id="Fill-18" fill="#FEFEFE"></path>
                    <path d="M112.12325,34.4614993 C112.73673,35.4989671 115.474114,36.2637965 117.030621,35.9141509 C117.999248,35.6968921 118.282715,35.272533 117.695301,34.673515 C117.317811,34.2884787 116.702935,34.0181341 116.19465,33.6963421 C116.092714,33.7553264 115.991243,33.813983 115.889307,33.8726396 C115.968436,34.1141474 116.047564,34.3559829 116.126693,34.5974908 C115.315392,34.8874968 113.782158,34.7370869 113.466575,34.2432574 C113.30599,33.9915912 113.571304,33.6049165 113.644382,33.2791922 C113.680222,33.1858005 113.716063,33.0930641 113.751903,33 C113.228258,33.1028948 112.505395,33.0966687 112.236358,33.339815 C111.958011,33.5911535 111.932411,34.1390519 112.12325,34.4614993" id="Fill-20" fill="#FEFEFE"></path>
                    <path d="M75.4704581,50.0737084 C75.2488399,50.9026328 75.0661876,51.7867931 75.0142332,52.7246442 C74.9663377,53.6601777 75.0324984,54.6524922 75.317436,55.6463517 C75.3527488,55.7703427 75.3998325,55.8927887 75.4416396,56.0163934 L75.5069885,56.2010281 L75.5232243,56.2473798 L75.5317481,56.2705557 L75.535807,56.2821437 C75.5224125,56.2551051 75.558943,56.3323581 75.5565076,56.3273367 L75.5881673,56.4034308 C75.677464,56.6089238 75.7444365,56.7978073 75.8471277,57.0183645 L76.1921376,57.7093924 C76.313094,57.9233831 76.4263384,58.1431678 76.5570363,58.3525234 C77.0672451,59.1968984 77.6894806,59.9841062 78.4123778,60.6237609 C79.1360868,61.262643 79.9474689,61.7493367 80.7556039,62.0931124 C81.5625211,62.4422959 82.3588852,62.6663295 83.0968005,62.8077024 C84.580343,63.0804054 85.824814,63.0216932 86.6767856,62.8853417 C87.1021625,62.8254706 87.433372,62.7381748 87.6570196,62.6755999 C87.8802613,62.6110936 88,62.5628105 88,62.5628105 L88,62.2537986 C88,62.2537986 87.5738113,62.069164 86.8277781,61.745474 C86.1012279,61.4167626 85.08974,60.9741031 83.9909849,60.3873667 C83.4397809,60.0992132 82.8703116,59.7689567 82.3049013,59.4000737 C81.7411145,59.0277144 81.1744865,58.6341105 80.6066408,58.2092191 C80.0375774,57.7870316 79.457149,57.3277627 78.9424754,56.7715413 C78.8125893,56.6336447 78.6977213,56.4837739 78.5714882,56.3385384 C78.4521554,56.1944616 78.3596116,56.0499985 78.2504261,55.9036041 C78.1424583,55.7421454 78.0259667,55.5347211 77.9167812,55.3504728 L77.87538,55.2797863 C77.8721329,55.2736061 77.8806567,55.2913743 77.8867451,55.304121 L77.8843097,55.2987133 L77.8770036,55.2840352 L77.8627973,55.2546791 L77.8051604,55.1360958 C77.7674122,55.0569115 77.7239816,54.9800448 77.6894806,54.8977704 C77.1321881,53.5755857 77.0895692,51.9235309 77.2710039,50.3950807 C77.4625858,48.8581328 77.8368201,47.4061632 78.2329726,46.1840211 C78.6214132,44.9556988 79.031772,43.9506376 79.3215804,43.2476355 C79.6162594,42.545406 79.8090591,42.1564373 79.8090591,42.1564373 L79.5289922,42 C79.5289922,42 79.2566373,42.3565225 78.8231425,43.0035161 C78.3864006,43.6501235 77.8015073,44.597245 77.1796777,45.7861683 C76.5748956,46.9804993 75.9169415,48.4147007 75.4704581,50.0737084" id="Fill-22" fill="#FEFEFE"></path>
                    <path d="M223.094042,58.5588295 C223.096305,58.5554448 223.095173,58.5663511 223.092156,58.5795139 C223.091779,58.5697358 223.091779,58.5607099 223.094042,58.5588295 M209.820359,71.9006447 C210.983857,72.2112868 209.289336,73.4421968 209.00723,73.59827 C207.532963,74.4136115 205.658921,74.664833 204.023989,74.9555428 C202.879726,75.1590021 201.598935,75.3289903 200.45354,75.0514432 C199.428455,74.8028543 200.902722,73.6005265 201.391504,73.2857475 C202.333994,72.9807466 203.411503,72.6099317 204.52748,72.3030504 C204.969119,72.2146716 205.394918,72.122532 205.789036,72.0450595 C206.183909,71.9672109 206.613479,71.8818407 207.055873,71.7814274 C208.028912,71.6655947 208.97291,71.6738685 209.820359,71.9006447 M202.716044,80.2180307 C202.145798,80.2112613 200.298156,80.2319457 200.433929,79.2830958 C200.505964,78.7817811 201.06565,78.3853927 201.518226,78.146958 C202.55274,77.9577897 207.020044,77.1296615 207.45414,78.1875746 C208.349863,80.3707192 203.791667,80.2300653 202.716044,80.2180307 M204.023989,70.4689081 C202.879726,70.6723674 201.598935,70.8423555 200.45354,70.5644324 C199.428455,70.3162196 200.902722,69.1138917 201.391504,68.7991127 C203.863702,67.9984383 207.275372,66.7336812 209.820359,67.4136339 C210.983857,67.7250281 209.289336,68.9559381 209.00723,69.1116352 C207.532963,69.9269767 205.658921,70.1781982 204.023989,70.4689081 M126.871439,284.804816 C128.609709,282.63521 130.361933,280.476135 132.143952,278.342257 C132.798302,277.559258 133.59295,277.445306 134.578058,277.89585 C136.921271,278.96655 139.260713,280.0113 141.002754,282.010165 C141.708018,282.819113 141.934307,283.71456 141.497193,284.698385 C141.078938,285.639338 140.208483,285.805565 139.288999,285.809326 C137.971625,285.814591 136.654251,285.810454 135.336877,285.810454 L135.333483,285.911996 C132.672335,285.799172 130.011187,285.683715 127.349661,285.576532 C126.783941,285.553591 126.411697,285.378714 126.871439,284.804816 M163.952139,122.916277 C163.751874,122.781264 163.531243,122.66844 163.354361,122.507478 C159.941182,119.404442 156.526495,116.30291 153.134059,113.177309 C152.775769,112.847486 152.486498,112.401079 152.282461,111.955425 C151.690718,110.662838 152.114254,109.917447 153.530063,109.886984 C154.747116,109.861035 155.96794,110.062238 157.187633,110.070511 C158.622677,110.080666 159.300032,110.92835 159.797112,112.111874 C160.937981,114.827548 162.124862,117.524042 163.269503,120.237835 C163.616478,121.060322 163.886138,121.915152 164.19125,122.754939 C164.111672,122.808718 164.031716,122.862498 163.952139,122.916277 M149.714846,107.817416 C148.774619,105.706855 148.310728,103.479709 148.088966,100.467308 C147.94037,99.2345175 149.371642,98.2796503 150.600764,97.2349 C150.724845,97.1295976 151.307914,97.3229027 151.458773,97.5335076 C151.875143,98.1153034 152.155363,98.7914953 152.524967,99.4090187 C153.409376,100.886261 154.3183,102.348836 155.207989,103.822694 C155.53045,104.357104 155.541764,104.74221 154.756922,104.84676 C153.720145,104.984405 153.01224,105.640289 152.446143,106.473682 C152.094265,106.99192 151.76313,107.52821 151.36788,108.011849 C150.665256,108.871944 150.159502,108.816285 149.714846,107.817416 M224.783659,57.7051279 C224.766311,57.6690242 224.735385,57.6201338 224.709739,57.578765 L224.643361,57.4798559 L224.604892,57.4268286 C224.479302,57.2662425 224.381998,57.1996763 224.29978,57.1458968 C224.199459,57.0815872 224.156464,57.0680483 224.079904,57.0330728 C224.027857,57.0135167 223.969022,56.9928323 223.922633,56.9800455 C223.830232,56.9544721 223.753671,56.939805 223.681259,56.9277704 C223.408205,56.8871538 223.202283,56.8856495 222.997115,56.8856495 C222.197941,56.8973079 221.483248,56.986815 220.748188,57.0800828 C220.018409,57.1767354 219.291647,57.2918159 218.561491,57.4147941 C215.645392,57.9146044 212.673852,58.5419059 209.662712,59.2312606 C206.651194,59.923624 203.612522,60.6825535 200.581393,61.5986844 C199.918746,61.8017676 199.256853,62.0161333 198.588172,62.2556962 C198.582138,62.1060164 198.580629,61.9525757 198.573086,61.8040241 C198.531223,61.0119996 198.469371,60.2323857 198.395827,59.4565326 C198.243837,57.9063307 198.061675,56.3753089 197.789752,54.858202 C197.652848,54.0985203 197.501989,53.3444799 197.294936,52.574268 C197.187072,52.1861534 197.075059,51.8021757 196.886863,51.3662989 C196.838211,51.2564835 196.783147,51.1414031 196.710735,51.0146641 C196.635683,50.887549 196.549316,50.7450147 196.378092,50.5652484 C196.328308,50.516358 196.281919,50.4719806 196.212524,50.4185772 C196.182352,50.3945081 196.145769,50.3681825 196.10202,50.3407287 C196.06242,50.3162835 196.026214,50.2918383 195.93683,50.2500934 C195.862532,50.2147419 195.757308,50.1805186 195.775411,50.1869119 C195.835,50.2030834 195.660004,50.1538169 195.65397,50.154569 L195.535168,50.1331325 C195.376767,50.1015418 195.216102,50.0928919 195.055061,50.0925158 C194.404482,50.1015418 193.857242,50.3482503 193.442381,50.6133867 C193.026388,50.8860447 192.702419,51.1925499 192.415787,51.5016877 C191.846295,52.1229719 191.424645,52.767197 191.036938,53.4087896 C190.278496,54.6964876 189.685998,55.9819291 189.170061,57.2504471 C188.147993,59.7882351 187.372957,62.2241055 186.700881,64.4802096 C186.365598,65.6080736 186.060863,66.6934406 185.789694,67.724276 C185.721431,67.9788822 185.653544,68.2304797 185.586789,68.4786925 C185.554732,68.5915165 185.522674,68.7035884 185.490994,68.8149081 C185.452148,68.9299886 185.413302,69.0443169 185.37521,69.1578931 C185.216054,69.6283692 185.061047,70.0853064 184.911319,70.5279526 C184.60319,71.4117407 184.328628,72.2676988 184.06915,73.0450563 C183.805902,73.8235419 183.579237,74.5448634 183.377086,75.1984905 C182.961093,76.5001035 182.666164,77.536204 182.465145,78.2428584 C182.272046,78.9528975 182.169085,79.3316101 182.169085,79.3316101 C182.169085,79.3316101 182.364824,78.9912577 182.731411,78.3526738 C183.090077,77.7110812 183.611671,76.7678725 184.237358,75.5512536 C184.557556,74.9461408 184.900382,74.2707011 185.259803,73.5298234 C185.61847,72.785185 186.031445,72.0029385 186.42217,71.1225351 C186.62168,70.6828976 186.827602,70.2293451 187.039182,69.7622537 C187.093491,69.6396516 187.143274,69.5392382 187.201732,69.3963278 L187.273013,69.1879795 L187.335242,68.9950504 C187.413311,68.7457093 187.492512,68.4929836 187.572845,68.2368731 C187.890402,67.2267221 188.224554,66.1650482 188.573038,65.0567403 C189.288108,62.8544156 190.109911,60.4813506 191.148574,58.0766949 C191.673939,56.8818887 192.232494,55.6611329 192.916638,54.534021 C193.257956,53.9759183 193.630577,53.4317304 194.037518,52.9984863 C194.238915,52.7829924 194.450117,52.5972089 194.642462,52.4742307 C194.730337,52.419323 194.808406,52.3828432 194.877424,52.3572698 C194.967185,52.5851743 195.053175,52.8668582 195.128604,53.1526791 C195.302846,53.814956 195.44239,54.5272516 195.566849,55.2459405 C195.810108,56.6885835 196.015654,58.175604 196.166512,59.674659 C196.242319,60.4238104 196.306811,61.1774748 196.351314,61.9262501 C196.372812,62.3000737 196.389783,62.6735212 196.396195,63.0379427 C196.39808,63.1560318 196.396195,63.2688558 196.39544,63.3831842 C196.36112,63.4219204 196.325291,63.4659218 196.292856,63.5118035 C196.250239,63.5742328 196.212147,63.6411751 196.179335,63.7092456 C196.137472,63.8017612 196.100512,63.9130809 196.080146,64.0334265 C196.035265,64.176337 196.0941,64.4899877 196.114843,64.5625712 C196.108054,64.5460236 196.108432,64.547528 196.11522,64.5633233 C196.118237,64.5738536 196.120123,64.5787426 196.120877,64.5772383 C196.148409,64.6423001 196.213278,64.7964929 196.211393,64.7916039 C196.23289,64.8325966 196.262685,64.8841196 196.297382,64.9382751 L196.3664,65.0360559 C196.404115,65.0830659 196.428629,65.1146566 196.484447,65.1710686 C196.538379,65.224472 196.602117,65.2846448 196.728461,65.3621173 C196.847639,65.4301878 197.042247,65.5290968 197.333027,65.5290968 C197.615133,65.5306012 197.888565,65.4110077 198.038669,65.2869013 C198.175196,65.1804706 198.261563,65.0665184 198.304935,65.0007044 C198.366033,64.9085648 198.377347,64.8777262 198.410159,64.8122883 C198.428639,64.7701673 198.447119,64.7242856 198.459942,64.6878058 C198.464845,64.6735148 198.466354,64.6656171 198.470502,64.6524543 C198.65983,64.5697167 198.866506,64.4869791 199.071674,64.4091305 C199.763739,64.1492592 200.493518,63.9119527 201.225937,63.6848004 C204.168437,62.7859691 207.185234,62.0127485 210.15074,61.2790164 C213.120771,60.5576949 216.061385,59.8965462 218.908089,59.3700342 C219.619388,59.2402865 220.324653,59.1191888 221.018603,59.0180232 C221.685021,58.9221228 222.361623,58.8363766 222.957515,58.8168204 C222.864736,58.9390464 222.733866,59.07782 222.588665,59.2075676 C222.378217,59.3971119 222.134203,59.5798868 221.881137,59.7543879 C220.853412,60.4505121 219.698966,61.0202733 218.578463,61.535503 C217.452679,62.0518609 216.332176,62.4978918 215.255045,62.926623 C213.095125,63.7735552 211.073995,64.4685511 209.273119,65.0499709 C208.854863,65.1864879 208.449807,65.3162355 208.055689,65.440718 C205.589903,65.5678331 203.070939,66.2868981 200.738663,67.0352974 C200.736778,67.0360495 200.735646,67.0368017 200.73376,67.0371778 C200.661348,67.0589904 200.587805,67.0875725 200.513129,67.1300695 C198.509725,68.2722246 197.127105,71.0950813 199.645692,72.2511513 C198.110327,73.6490408 197.454092,75.9596765 199.951935,76.8645251 C199.977958,76.8739271 200.004736,76.8803204 200.030759,76.8889703 C198.637578,78.0119453 197.674722,80.2601517 199.565737,81.3699639 C200.390934,81.8543549 201.505026,82.1382954 202.690021,82.2270503 C202.352852,82.4545787 202.010025,82.6730812 201.66041,82.8795491 C200.721315,83.429002 199.738093,83.8991021 198.726585,84.2951143 C197.713946,84.688118 196.674906,85.0096664 195.620404,85.2590075 C195.093152,85.3831139 194.56213,85.4906728 194.028467,85.5749147 C193.761824,85.6181639 193.494427,85.6542676 193.227784,85.6862344 C192.963781,85.7170729 192.687333,85.7437746 192.439547,85.7558092 L192.160081,85.7697242 L192.048069,86.0401257 C191.530246,87.2898396 191.133111,88.574153 190.789153,89.8656118 C190.446326,91.1581989 190.159318,92.4601879 189.899463,93.7644335 C189.383904,96.3740528 188.963762,98.9934502 188.584352,101.612095 L187.457438,109.448475 C187.078782,112.051701 186.685418,114.647782 186.189093,117.205126 C185.943193,118.487183 185.669007,119.740657 185.337118,121.019706 C185.024841,122.270548 184.648071,123.524399 184.258855,124.754932 C183.862474,125.986218 183.438184,127.201333 182.999939,128.397644 C182.56622,129.595835 182.109496,130.772213 181.628633,131.918881 C181.144754,133.063292 180.613354,134.171224 179.995965,135.176862 C179.374427,136.174227 178.661242,137.079451 177.81681,137.672529 C177.3978,137.973769 176.942584,138.1934 176.447013,138.296446 C175.954082,138.40927 175.410236,138.427698 174.85055,138.314498 C174.497918,138.250564 174.141892,138.141501 173.787374,138.00348 C172.766814,134.640196 171.545613,131.338213 170.167895,128.080984 C170.070969,127.851575 169.989128,127.614645 169.918979,127.375834 C169.905024,127.3292 169.911058,127.273164 169.921996,127.194564 L168.691743,124.022329 C168.600096,123.970806 168.508827,123.918907 168.41718,123.867384 C168.082651,123.244971 167.719458,122.636098 167.418495,121.998266 C166.142984,119.295003 164.79657,116.631604 163.391698,113.999796 C163.992116,113.528191 164.700021,112.952413 165.501835,112.28111 C166.329295,111.577464 167.261979,110.783935 168.246332,109.863667 C168.492609,109.632002 168.742658,109.395824 168.99874,109.143098 C169.13225,109.007333 169.244263,108.903159 169.398893,108.736932 L169.432836,108.697067 C169.300458,109.599659 169.211828,110.380778 169.158651,111.002438 C169.070398,112.019358 169.066627,112.6083 169.066627,112.6083 C169.066627,112.6083 169.136022,112.479304 169.266892,112.236732 C169.389464,111.993033 169.585204,111.641022 169.811115,111.186341 C170.267462,110.279988 170.898429,108.982888 171.609728,107.421028 C171.958966,106.639533 172.337621,105.792601 172.737774,104.897155 C173.123218,103.998323 173.536948,103.054738 173.947284,102.074298 C174.350077,101.090472 174.794356,100.086715 175.20092,99.0506144 C175.632376,98.0246681 176.049877,96.9750287 176.474545,95.9291501 C176.895818,94.8825194 177.316714,93.8358887 177.731198,92.8058055 C178.166803,91.7866286 178.530372,90.7505281 178.942971,89.7791134 C179.724419,87.8058214 180.454198,85.9641575 181.079508,84.3853736 C181.401968,83.598238 181.688977,82.8671385 181.933745,82.2108788 C182.178136,81.5542431 182.426299,81.0006533 182.601672,80.5237838 C182.786851,80.0533077 182.914704,79.669706 183.010499,79.4128434 C183.099129,79.1514678 183.146649,79.0119421 183.146649,79.0119421 C183.146649,79.0119421 183.04218,79.1146119 182.846818,79.3067888 C182.657867,79.5038547 182.368595,79.7862908 182.023129,80.1634991 C181.679171,80.5410835 181.243944,80.9938838 180.802305,81.548978 C180.361043,82.1048242 179.874146,82.7415277 179.352175,83.4459256 C178.834352,84.15258 178.333879,84.9506218 177.79041,85.792289 C177.240907,86.6316996 176.747599,87.5568565 176.215445,88.5083389 C176.084575,88.7471498 175.948048,88.9855845 175.820572,89.2307887 C175.697999,89.4774972 175.574672,89.7264622 175.450214,89.9765554 C175.198657,90.4759897 174.951249,90.984826 174.709498,91.5011838 C174.211287,92.5282584 173.784356,93.6027191 173.326877,94.6655212 C172.909753,95.7437427 172.492629,96.8215881 172.123779,97.8971769 C171.937468,98.4342192 171.763981,98.9708854 171.595773,99.5019104 C171.422286,100.031055 171.258227,100.556063 171.116797,101.07919 C170.565785,102.962223 170.146775,104.757253 169.835629,106.347695 C169.817526,106.30219 169.799046,106.257436 169.780188,106.212306 C169.600289,105.790721 169.392482,105.443223 169.179016,105.08181 C168.313842,103.682416 167.250288,102.428565 166.062275,101.178475 C164.888217,99.9851733 163.660981,98.7967604 162.396408,97.5899196 C161.141263,96.3770615 159.866507,95.1450233 158.591751,93.9129851 C156.055815,91.4357459 153.519503,88.9585067 151.141969,86.6362125 C149.951317,85.4767578 148.800642,84.3556632 147.709556,83.2928611 C146.612436,82.2357001 145.575282,81.2357033 144.617706,80.313179 C140.794192,76.6163123 138.22205,74.1740485 138.22205,74.1740485 L138.060254,74.3320021 C138.060254,74.3320021 140.439296,76.962682 144.041803,80.8750425 C144.940921,81.8543549 145.915091,82.9156528 146.945456,84.0382517 C147.981479,85.1548333 149.074073,86.332716 150.204382,87.5508392 C152.468018,89.9844531 154.882889,92.5797814 157.29776,95.1754858 C158.498218,96.4797313 159.699054,97.7839769 160.880655,99.0679141 C162.051696,100.358621 163.225754,101.624506 164.368131,102.813295 C165.472417,103.965228 166.518623,105.149504 167.349854,106.280001 C167.544462,106.56018 167.74171,106.847506 167.869563,107.098727 C167.916706,107.187858 167.958946,107.279245 167.985724,107.344683 C167.979312,107.351829 167.973278,107.358222 167.966489,107.366496 C167.93594,107.402976 167.907277,107.441336 167.880123,107.4812 C167.805825,107.582366 167.678726,107.732798 167.582177,107.854648 C167.371352,108.111511 167.152984,108.366117 166.939519,108.61433 C166.072081,109.61395 165.276301,110.530833 164.571414,111.343166 C163.962699,112.048692 163.427904,112.673737 162.971557,113.217549 C160.58648,108.798609 158.034328,104.471432 155.346779,100.216462 C150.255297,92.155187 145.035208,84.1796578 139.317285,76.5456092 C134.642173,70.3034328 129.425478,64.5505366 123.211984,59.7630378 C123.112417,59.6863175 123.017753,59.6039559 122.917809,59.5276117 C122.32682,59.0763156 121.686047,58.7803407 121.436753,58.6735339 C123.490318,55.2214953 124.851064,51.371564 125.523139,47.1350225 C126.045865,43.8383049 127.597824,41.4001781 130.504118,39.7157156 C134.125859,37.6160608 134.854883,31.2441368 131.843743,28.519437 C130.841287,27.6119559 129.589159,27.2674665 128.272163,27.34005 C127.479023,27.3836753 127.12375,27.0139886 126.697197,26.4438513 C124.071878,22.9342724 121.615898,19.2663639 118.69565,16.015152 C113.450669,10.1765095 107.026727,5.84557185 99.7711765,2.83204255 C94.1460315,0.495833393 88.2153976,-0.358996519 82.159551,0.134796563 C75.8215985,0.651906607 70.5355085,3.40217988 66.1692796,8.05541812 C63.7396997,10.6447291 61.6861352,13.4453971 60.0979699,16.6014608 C59.9550313,16.8854012 59.8731904,17.1998041 59.7626864,17.499916 C59.843773,17.5646017 59.9248595,17.6292875 60.0059461,17.6943493 C60.267686,17.4875053 60.5694035,17.3152607 60.7855086,17.0685522 C63.2049055,14.3009792 65.8355047,11.7650716 68.6527915,9.38975007 C72.6479079,6.02120122 77.2649394,4.32620852 82.3828219,3.76998615 C87.913303,3.16863418 93.2582279,4.12237314 98.5281006,5.69438767 C105.36087,7.73236537 111.353356,11.3145277 116.670749,15.9538509 C120.714894,19.4826099 123.908574,23.7014757 125.205205,29.0658813 C125.41075,29.9158221 125.636283,30.2054038 126.580282,29.8330845 C128.350609,29.13508 131.084924,30.3746398 131.666107,32.0075793 C132.415875,34.1147557 131.311212,36.8007193 129.216538,37.3103077 C126.381903,37.9996624 124.90575,39.8958579 124.089604,42.4295091 C123.159183,45.3178038 122.301928,48.236937 121.577429,51.1827719 C120.708106,54.7179242 118.932498,57.7280687 116.579479,60.4328363 C113.220987,64.2936739 109.469884,67.7092328 104.843047,70.0123469 C100.402143,72.2229453 95.7160938,73.6554342 90.7287041,73.9209467 C84.4940898,74.2530253 78.5068839,73.1450936 72.8821161,70.449728 C68.8666338,68.5257025 65.3693512,65.8457562 62.2122551,62.6825471 C59.6634968,60.1289637 57.4172103,57.3587581 56.4279541,53.9014544 C55.5635336,50.8819078 55.0521225,47.7307332 54.7017531,44.6028756 C54.0937924,39.1767929 54.0949238,33.7179913 54.6549869,28.2813783 C54.8167829,26.7119963 54.7756738,25.4637867 53.6031244,24.1215571 C51.9251981,22.2001642 52.6496972,20.2704976 54.5339227,18.6435753 C54.9001323,18.3276681 55.7215581,18.3415831 56.2695524,18.4713307 C57.2614486,18.7060046 58.2058243,19.1422575 59.1713202,19.4950205 C59.2648526,19.2404143 59.3150131,19.1573007 59.2987958,19.1407531 C58.0025421,17.8523029 56.6259562,16.6556163 54.8288516,16.1366258 C53.7083483,15.8128209 52.7884872,16.2926991 52.1081143,17.1922825 C50.0334296,19.9357863 49.8075186,23.0053515 50.9193475,26.1061314 C51.737379,28.3866807 52.0854855,30.5931423 51.6770355,32.9966698 C50.8009234,38.1512227 50.7420885,43.3366142 51.5288168,48.5129797 C51.5736973,48.8093308 51.9689471,50.9593803 52.0854855,51.2361752 C52.7888643,52.9063466 53.3817392,54.6457168 54.2861373,56.2034403 C56.3740221,59.7995175 59.222235,62.7397112 62.6580426,65.097733 C62.7466721,65.158658 62.8164443,65.2161982 62.8767878,65.2729863 L62.879805,65.2688495 L64.8575629,66.7175097 C64.8583172,66.7137489 64.8590715,66.7103642 64.8598258,66.7066034 C67.9233895,68.6908017 71.1785438,70.3139631 74.5577794,71.5670617 C74.4819729,71.9905279 74.2402218,73.0104569 74.1647924,73.175556 C73.3867385,74.881079 73.3512867,74.909285 71.6846749,74.1326797 C71.6560117,74.1191408 71.6265943,74.1082345 71.5990625,74.0935674 C66.8213665,71.5937634 62.0406533,69.0999767 57.275403,66.5764797 C57.0083831,66.4350736 56.6466993,65.9724952 56.7093057,65.7912246 C57.1256758,64.5956662 57.6457612,63.4362115 58.1322806,62.2647222 L57.7543795,61.9085744 C57.673293,62.1188031 57.5367658,62.3324166 57.3225464,62.5640819 C56.091162,63.8995421 55.0034705,65.365502 53.828281,66.7543656 C53.376082,67.2891514 53.4579228,67.5663224 54.0839866,67.8773406 C60.5196201,71.0766534 66.5188947,74.9499016 72.047113,79.5392063 C72.6067989,80.0036651 72.9477396,79.9446205 73.2781202,79.3007715 C73.7457823,78.3895296 74.2643592,77.5046133 74.7614387,76.6084146 C74.8579883,76.6046538 74.954915,76.6012691 75.0514646,76.5971322 C75.2966101,77.3421467 75.5934246,78.0751267 75.7729465,78.8355605 C75.9766058,79.6956556 76.4167362,80.2353304 77.250985,80.6050171 C83.6213721,83.4259934 89.973279,86.2887146 96.3334832,89.1330079 C96.6299206,89.265388 96.9493639,89.3473735 97.3570597,89.2488405 C96.5918287,88.780997 95.8420608,88.2856996 95.0587269,87.8498228 C89.5195714,84.7670948 83.9804159,81.6836146 78.4216487,78.6362381 C77.6899839,78.2353368 77.2864368,77.7328939 77.1423667,76.92545 C76.9884908,76.0634746 76.7312766,75.2210553 76.5381774,74.3654733 C76.4834912,74.1225256 76.0754183,72.6588221 75.9403997,72.0585983 C83.277037,74.5358375 91.1514857,75.2857411 98.9150532,74.1770572 C101.722534,73.4775483 105.829663,72.1232841 108.926793,70.5475088 C106.048031,74.3477975 103.157955,78.1394364 100.287868,81.9461185 C99.7560907,82.6512685 99.379321,82.7610839 98.5812783,82.1514582 C95.6350072,79.9002431 92.5420261,77.8626415 89.0530407,76.5080012 C88.879176,76.4403068 88.7041799,76.3748689 88.5254123,76.3233459 C88.4741204,76.3086788 88.4077425,76.3459107 88.1633514,76.4015706 C88.4601659,76.6430139 88.6691053,76.826541 88.8912447,76.9920162 C98.3432986,84.0435168 106.663535,92.216112 113.41748,101.89566 C116.458415,106.254051 118.809171,111.021618 120.949103,115.870042 C123.124485,120.798947 125.118084,125.80758 127.196917,130.778982 C127.320998,131.075333 127.492223,131.352504 127.641573,131.638325 C127.748306,131.606735 127.855038,131.574768 127.962148,131.543177 C127.765654,130.498427 127.614041,129.442394 127.365502,128.410054 C125.739244,121.659794 123.507289,115.130668 120.441086,108.876833 C116.077497,99.9765234 110.253218,92.2089665 102.800043,85.6580284 C102.258083,85.1819111 101.707826,84.7140675 101.142482,84.2657801 C100.752135,83.9562662 100.732901,83.6990275 101.118345,83.3639402 C105.658061,79.4162281 108.645819,74.3805165 111.329218,69.1244219 C111.630559,68.9202105 112.078986,68.6298767 112.078986,68.6298767 C112.078986,68.6298767 113.063717,67.9032901 113.747107,67.3628631 C116.926454,64.848392 119.470687,61.9616017 121.405827,58.7243047 C121.532926,58.8766171 121.785614,59.1752247 121.973433,59.3726667 C125.996459,63.5960455 130.134136,67.7163783 134.030063,72.0529571 C139.66426,78.3237156 144.638072,85.0882671 148.475164,92.6298 C148.587554,92.8509351 148.689383,93.0777113 148.858722,93.4327309 C148.240579,93.5715044 147.688059,93.7226886 147.125733,93.8155804 C145.877377,94.0212961 145.349371,94.8325008 145.121952,95.9904512 C144.705959,98.1074057 145.082351,100.170205 145.452709,102.239021 C145.502116,102.515064 145.527384,102.795619 145.55039,103.075047 C145.554539,103.121305 145.48967,103.172828 145.375017,103.343944 C145.020876,102.930256 144.682198,102.548911 144.359361,102.154403 C142.054239,99.3417003 139.763449,96.5177154 137.437962,93.7223125 C137.100416,93.3165222 136.599565,93.0457445 136.17452,92.7121615 C136.069673,92.7693257 135.964826,92.8261138 135.85998,92.883278 C135.934278,93.3022311 135.906369,93.776468 136.099468,94.1314876 C137.774,97.2104548 139.481721,100.272122 141.195476,103.330029 C141.632212,104.109643 142.125143,104.857666 142.592051,105.620356 L142.436289,105.809901 C142.131177,105.704598 141.822294,105.609826 141.521708,105.492865 C139.391205,104.662857 137.284086,103.766282 135.125298,103.016378 C133.609167,102.489866 132.146592,102.848271 131.330823,104.273238 C130.170343,106.299933 129.208241,108.440957 128.203899,110.553022 C128.103578,110.764003 128.294037,111.112629 128.349478,111.397322 C128.6082,111.331132 128.926135,111.339029 129.11584,111.187469 C130.388711,110.16754 131.656678,109.138585 132.880897,108.061492 C133.596722,107.431934 134.429085,107.075786 135.303688,107.306699 C137.204508,107.808014 139.070253,108.445094 140.937885,109.064497 C141.199624,109.151372 141.390838,109.450356 141.794008,109.811392 C141.269774,109.982885 140.948822,110.136326 140.611653,110.189729 C138.752319,110.485704 136.889968,110.763627 135.026862,111.034781 C133.198077,111.300669 132.123963,112.268323 131.762279,114.137817 C131.151679,117.294257 131.242948,120.43114 131.776988,123.573289 C131.816211,123.804578 132.052682,124.002396 132.19713,124.21601 C132.395132,124.035867 132.671203,123.892957 132.777559,123.669565 C133.290101,122.596233 133.790198,121.514251 134.232214,120.410456 C135.083434,118.285228 136.529415,116.703059 138.502647,115.56993 C139.726112,114.867036 140.932605,114.132928 142.169269,113.454856 C142.574702,113.232592 143.043118,113.077647 143.499843,113.013714 C143.806463,112.970841 144.143256,113.141581 144.46647,113.216797 C144.38727,113.52932 144.398961,113.91593 144.213405,114.141954 C143.158902,115.425515 142.072719,116.684631 140.968056,117.926447 C138.88168,120.272058 138.642569,122.546214 140.346141,125.210365 C141.959575,127.73311 143.875104,130.010275 146.251506,131.867358 C146.526069,132.081724 146.860598,132.219745 147.167219,132.393118 C147.24642,132.342347 147.32562,132.291952 147.404821,132.241182 C147.276214,131.651864 147.15779,131.060666 147.017492,130.474358 C146.306193,127.494675 145.482881,124.536054 144.909241,121.530422 C144.490608,119.336747 145.447052,117.323967 146.472137,115.452593 C147.193242,114.135937 149.042393,113.657939 150.266234,114.546992 C152.211181,115.960301 154.128972,117.46951 155.799355,119.188196 C159.581007,123.07912 163.2514,127.080987 166.85202,131.139267 C167.553891,131.930163 167.866545,133.149415 168.131303,134.226508 C169.352127,139.193397 170.238799,144.227228 170.374572,149.346054 C170.499785,154.054199 169.985734,158.726994 169.156765,163.366693 C168.06945,169.453172 165.895199,175.128972 162.721508,180.422299 C160.06564,184.851769 156.709788,188.753976 153.300381,192.611053 C148.834208,197.664064 144.195679,202.580182 139.970126,207.826122 C136.218646,212.48425 132.969903,217.54215 129.424723,222.369137 C125.517105,227.689165 121.921387,233.202123 119.149735,239.193454 C116.6798,244.531534 114.407491,249.961377 112.095581,255.370912 C111.785566,256.096371 111.377493,256.473579 110.626594,256.622883 C106.65486,257.412651 102.751391,257.05199 98.8878987,255.97264 C98.0423355,255.736086 97.2220411,255.395734 96.3670492,255.210702 C95.4068334,255.003482 95.2959522,254.486748 95.5014973,253.640568 C96.1154923,251.116695 96.7253387,248.590189 97.2461785,246.046008 C98.5661924,239.597364 99.7146045,233.111863 100.028768,226.530463 C100.246382,221.969364 100.130975,217.392846 100.19509,212.82385 C100.212438,211.604975 100.276176,210.377449 100.455698,209.174369 C100.519436,208.749023 100.923737,208.299607 101.28957,208.006265 C103.249979,206.437259 105.250366,204.917896 107.229632,203.372583 C107.587922,203.092779 107.914531,202.772735 108.255472,202.471495 C108.221906,202.395151 108.18834,202.319183 108.154773,202.243214 C107.693523,202.353782 107.220958,202.430126 106.773285,202.580558 C104.302219,203.409439 101.853781,204.307894 99.3653665,205.078858 C97.6297368,205.616652 95.8318779,205.953244 94.0811623,206.447413 C93.1552668,206.708789 92.2210741,207.022439 91.3766424,207.473359 C89.0319205,208.726082 87.2845992,210.485384 86.1293985,212.983684 C83.9245981,217.750874 81.2344098,222.304075 79.1891425,227.132567 C77.0812689,232.108106 75.4278572,237.281463 73.7144791,242.414579 C72.4465115,246.211859 71.4142606,250.086988 70.236431,253.915106 C70.1115954,254.320521 69.7812148,254.738722 69.429714,254.986935 C65.7423494,257.591289 61.5786484,258.126451 57.2143053,257.660864 C56.0632531,257.537885 54.9325669,257.223859 53.7815148,257.09712 C52.9438717,257.004604 52.6760974,256.587531 52.6395142,255.815815 C52.5324045,253.564976 52.4105861,251.314513 52.251053,249.066683 C51.5733201,239.529669 50.4230223,230.053204 48.5949916,220.661734 C47.8938756,217.060768 47.429985,213.359388 45.5736683,210.138262 C42.4603212,204.735873 40.4282541,198.886324 38.2804029,193.09582 C36.9366287,189.472665 36.1170887,185.658085 35.0139342,181.943919 C33.9892263,178.49376 32.7997051,175.089108 31.8673982,171.615257 C30.9022794,168.019555 30.125357,164.371579 29.3299543,160.733005 C28.761594,158.133163 28.2509372,155.518279 27.8217441,152.892864 C27.7086001,152.200501 27.8277785,151.368988 28.1211987,150.729652 C29.5177734,147.684532 31.0233436,144.689431 32.4606501,141.662738 C32.7785849,140.993316 33.138383,140.809789 33.7542638,141.274248 C33.8775908,141.367516 34.0303353,141.422047 34.1687481,141.495759 C35.5626828,142.236261 35.8270628,142.168942 36.6813003,140.864697 C40.3961966,135.193786 44.3124893,129.663153 48.8665373,124.63045 C50.6681677,122.639106 52.8160189,120.961037 54.7832168,119.116365 C55.0890829,118.829792 55.3413941,118.442805 55.5031901,118.054314 C56.6979912,115.186704 57.177722,112.172799 57.285586,109.086686 C57.316512,108.21042 57.336878,107.333401 57.3915643,106.458639 C57.6382183,102.511679 56.3928795,98.7170314 56.3151872,94.8039187 C56.2295749,94.8027904 56.1443397,94.8016622 56.0587274,94.800534 C55.9274803,96.5026722 55.7509756,98.2033061 55.6744147,99.9080769 C55.5073387,103.630141 55.4639668,107.358974 55.2320215,111.076902 C55.0453338,114.073507 54.1420672,116.924946 52.9031398,119.65115 C52.6591258,120.188569 52.1050971,120.601128 51.6510124,121.025723 C47.5951753,124.816986 43.4740919,128.541682 39.4940614,132.410418 C37.9537937,133.907592 36.7209008,135.719922 35.360155,137.398743 C35.0637176,137.764293 34.8219665,138.103141 34.2981095,137.703368 C30.7314319,134.980548 26.5507593,133.319403 22.7238504,131.050136 C20.4089232,129.677444 18.2376889,128.063308 16.0049796,126.553347 C15.4867799,126.202841 15.3679786,125.775238 15.6727133,125.18404 C19.1311497,118.473268 22.4485332,111.686903 26.0725371,105.066767 C28.0978156,101.366515 30.5990534,97.9227504 32.9305751,94.3932393 C38.0612806,86.6249301 43.2214035,78.8758011 48.3656863,71.1165179 C48.6387406,70.7050863 48.878606,70.2718421 49.1339344,69.8487521 C49.0709509,69.8006138 49.0079674,69.7520995 48.9446067,69.7039613 C47.7679086,71.0450627 46.6111992,72.4042159 45.4103637,73.7238807 C39.0927772,80.6666942 33.3944657,88.113831 27.5241753,95.4240747 C22.3421778,101.87648 18.2750264,108.981384 14.562393,116.319081 C13.2759451,118.861382 12.0917041,121.455206 10.7973362,123.992994 C10.3636173,124.842935 10.3357084,125.43827 11.2759355,125.879788 C11.4709204,125.971551 11.6308307,126.137027 11.8069582,126.268655 C13.2506763,127.3465 13.1620468,127.325816 12.7577454,129.054279 C11.8020553,133.136628 10.817325,137.218601 10.0698199,141.341566 C9.14241587,146.455879 8.30703564,151.595012 7.69077772,156.754454 C7.25705886,160.383626 7.2348072,164.06357 7.06622257,167.722452 C6.85275746,172.353126 6.75055067,176.990192 6.43223874,181.612968 C6.35718653,182.700968 5.66776212,183.77242 5.15823675,184.800622 C3.54442546,188.058228 1.88422511,191.29214 0.237224897,194.533574 C-0.1855567,195.365839 -0.0392237299,196.23496 0.644166328,196.831047 C1.51726124,197.593361 2.12559908,197.650525 2.98813388,197.088661 C3.3434062,196.85662 3.73149029,196.674973 4.10486565,196.470762 L4.3066392,196.622698 C4.17501496,196.976966 4.04263642,197.331233 3.91138933,197.6855 C3.21894774,199.555746 2.47973996,201.410949 1.85443051,203.303384 C1.56214171,204.187924 1.53649573,205.348507 2.43221945,205.757682 C3.21819345,206.116463 4.3967773,206.134138 5.20236293,205.809581 C6.26327696,205.381978 7.13788047,204.484651 8.07282746,203.763706 C8.35795046,203.543323 8.57782707,203.238698 8.82787542,202.972434 C8.91047057,203.00252 8.99268858,203.032606 9.07528374,203.062693 C8.89576185,203.9446 8.72378289,204.827636 8.53445518,205.707288 C8.19728591,207.273285 7.90273424,208.822358 8.32551584,210.440631 C8.8599329,212.487258 10.6970151,213.191656 12.3606098,211.871615 C13.6055715,210.883277 14.2693499,209.489148 14.7867953,208.029206 C15.1349019,207.046509 15.4403908,206.049144 15.7647371,205.058173 C15.8790126,205.068704 15.9932881,205.079234 16.1071864,205.089388 C16.329703,205.920901 16.4930076,206.773851 16.789445,207.578286 C17.1745119,208.623036 17.570139,209.688471 18.1554708,210.624534 C18.4062735,211.025059 19.1907389,211.363531 19.6516123,211.280794 C20.043845,211.210467 20.4949126,210.537283 20.6099424,210.057029 C20.8407563,209.093512 20.9704948,208.076592 20.9414545,207.087501 C20.8901625,205.337977 20.696309,203.592213 20.5435646,201.846074 C20.5186729,201.564014 20.395723,201.290604 20.126063,201.053673 L19.4158956,207.200325 C19.3125573,207.204086 19.2092191,207.207847 19.1058809,207.211608 C18.9995255,206.779492 18.8788385,206.350384 18.7894547,205.914884 C18.4884915,204.44253 18.2640891,202.950621 17.8775136,201.501585 C17.6719686,200.732877 17.2367412,200.009299 16.8147139,199.32032 C16.6272719,199.013815 16.2161818,198.843827 15.9065443,198.611786 C15.6813876,198.919043 15.3872131,199.196966 15.2423887,199.538447 C14.0932223,202.244343 12.9734734,204.962649 11.8409014,207.675314 C11.7854609,207.807695 11.693437,207.925408 11.3905881,208.018299 C11.4366,207.486146 11.4818577,206.953617 11.5286239,206.421464 C11.70362,204.427487 11.9027535,202.435015 12.0407893,200.438406 C12.081144,199.853226 11.986103,199.249617 11.8887991,198.665189 C11.685517,197.446314 11.0839678,197.134167 10.0618998,197.883695 C8.85578428,198.768235 7.77639005,199.825772 6.65098391,200.818623 C6.21424788,201.203729 5.80164924,201.615913 5.37811335,202.016062 C5.30343828,201.968676 5.22914035,201.92129 5.15446528,201.873528 C5.51049189,200.995757 5.91215326,200.133029 6.211985,199.236455 C6.77695095,197.548983 7.31664806,195.851358 7.78581872,194.135681 C7.88274546,193.78179 7.72962384,193.070998 7.51087868,192.985252 C7.1631493,192.849487 6.53519983,192.960055 6.25083112,193.215413 C5.32304991,194.048054 4.42242328,194.935603 3.65417519,195.913411 C2.98775674,196.761472 2.19084548,196.673093 1.36602536,196.493327 C0.604565911,196.327475 0.698475472,195.70055 0.974169805,195.21992 C1.76768674,193.836697 2.59703262,192.470775 3.473899,191.137947 C4.00643033,190.328999 4.66304296,189.60166 5.24611196,188.824303 C6.72603613,186.852515 7.01681633,184.555042 7.19860111,182.178969 C7.67757758,175.905201 8.22368619,169.636323 8.8116581,163.371582 C9.10696407,160.222664 9.41019012,157.062088 9.96346452,153.951906 C10.6921122,149.856394 11.5569099,145.776678 12.5748292,141.742844 C13.5011018,138.073055 14.7068402,134.47284 15.7986803,130.84442 C15.9318131,130.401774 16.124158,129.976804 16.3266859,129.444274 C16.6487693,129.592074 16.912772,129.673307 17.1326486,129.819978 C21.0496956,132.430726 24.9505253,135.065543 28.8837896,137.651845 C29.6335575,138.145262 29.7184155,138.566848 29.370309,139.395728 C27.0418045,144.937267 24.6582365,150.461131 22.5341456,156.080895 C20.5646848,161.292612 19.635395,166.766081 19.2276993,172.319278 C19.0787263,174.34823 18.8233979,176.379814 18.8377295,178.40839 C18.8599811,181.499392 18.9870796,184.596787 19.2590025,187.675002 C19.3446148,188.644536 20.010279,189.574582 20.4594608,190.498987 C21.5678954,192.780665 22.7219647,195.04053 23.8149362,197.329353 C24.0382071,197.79682 24.1400368,198.348153 24.1819001,198.870153 C24.2746782,200.029607 23.5407504,200.490681 22.5130253,199.961161 C22.1852847,199.792301 21.8643328,199.609902 21.5403637,199.43352 C21.4819059,199.494069 21.4234481,199.554618 21.3649904,199.615167 C22.152473,200.424491 22.8728234,201.321066 23.7598728,202.002147 C24.1260823,202.283455 24.9075306,202.264275 25.3955586,202.090526 C26.005405,201.873152 26.3780261,201.232311 26.1834183,200.548222 C25.8255059,199.290986 25.4856967,198.007049 24.9320451,196.831047 C22.9361841,192.59112 21.2899382,188.251533 20.3587626,183.637407 C19.6832927,180.291047 19.6093719,176.971012 20.3893115,173.667901 C21.3891278,169.433992 22.5118939,165.229418 23.5946824,161.015441 C23.6927406,160.634096 23.8850855,160.276444 24.2761868,159.904877 C24.3474675,160.23846 24.4251598,160.570914 24.4892747,160.906002 C25.7478137,167.519369 26.9181003,174.151164 28.3173151,180.734821 C28.7133192,182.597546 29.7516045,184.330146 30.5398413,186.102988 C32.3094143,190.084171 33.8085729,194.143579 35.1429184,198.305656 C36.7525811,203.325949 39.1817838,208.078848 41.0810953,213.014523 C42.2483647,216.047608 43.1444656,219.189757 44.0635724,222.311597 C46.2265095,229.660577 47.6641932,237.159237 48.4362128,244.775986 C48.922355,249.572134 49.284416,254.38107 49.6713686,259.186996 C49.7814955,260.556304 49.7320893,260.560441 51.167133,260.654085 C53.0822846,260.778567 53.0913361,260.775934 53.6585649,262.604812 C53.9248306,263.463402 54.1477244,264.335532 54.6202894,265.250159 C54.8910808,264.230606 55.2214614,263.222335 55.4175778,262.188867 C55.6487688,260.96924 55.8147134,260.833851 57.0555264,260.756002 C60.1243702,260.564201 63.1920825,260.341938 66.2537605,260.061382 C66.992214,259.993688 67.3139202,260.199404 67.3934982,260.889887 C67.4964593,261.785333 67.606209,262.680028 67.7023815,263.576602 C67.7404733,263.930494 67.7502791,264.288146 67.7729079,264.643918 C67.8626689,264.659713 67.952807,264.675508 68.0425679,264.69168 C68.4495094,263.561183 68.9552633,262.454756 69.2415177,261.294173 C69.753306,259.217459 69.3599418,259.722158 71.2686819,259.321257 C72.0836962,259.15014 72.4257684,258.796625 72.684114,258.088843 C74.1425408,254.094497 75.7514492,250.150921 77.0839089,246.115959 C78.8878022,240.652644 80.5110422,235.129909 82.167471,229.619584 C83.4109241,225.482328 85.3147613,221.658346 87.6304429,218.036319 C89.0130632,215.873483 90.5186333,213.788495 91.989506,211.682823 C92.9904537,210.249958 95.2401345,210.439126 95.8431923,212.075075 C96.2146819,213.082593 96.3674264,214.201807 96.4375757,215.282661 C96.8252826,221.269479 96.4013696,227.235989 95.952942,233.204379 C95.698745,236.585715 95.2703062,239.929818 94.396457,243.20698 C93.2242847,247.601851 91.6610111,251.851179 89.5595489,255.895168 C89.433959,256.136987 89.3411809,256.396106 89.1714648,256.790238 C90.4567812,257.152027 91.6463023,257.508175 92.8471379,257.819569 C95.5512806,258.521711 95.5641036,258.510428 96.1328411,261.198648 C96.4760447,262.819553 96.7868137,264.447228 97.0945655,266.075278 C97.1439717,266.335149 97.1017313,266.612697 97.1017313,267.04406 C95.8020833,266.436315 94.6796943,265.910931 93.4249268,265.324246 C93.2061816,266.284379 93.0489114,267.104233 92.8305434,267.907916 C92.0268435,270.86541 90.7898019,273.616059 88.8686159,276.035382 C86.605735,278.885316 87.373983,282.535549 90.4858216,284.378341 C93.1194379,285.937945 96.0328971,286.044376 98.9316477,286.314025 C105.747068,286.948096 112.570786,287.50131 119.376777,288.222255 C123.370008,288.645345 127.322884,289.462567 131.318378,289.848049 C134.246546,290.130485 137.211297,290.063167 140.110424,289.26851 C145.576036,287.770959 145.589991,283.125619 143.536049,279.829653 C142.183223,277.658919 140.090436,276.513003 137.69329,275.852983 C133.308581,274.645014 128.931792,273.404702 124.524832,272.282103 C122.770345,271.83532 120.945331,271.659691 119.150112,271.377254 C118.859332,271.331373 118.554974,271.370861 118.257028,271.370861 C118.235531,271.447205 118.213657,271.52355 118.192159,271.60027 C118.587786,271.842465 118.983036,272.085037 119.385075,272.33137 C118.591935,273.261415 118.007734,273.268937 117.099942,272.327985 C117.023381,272.598386 116.995849,272.83983 116.889871,273.040656 C116.613045,273.565288 116.405992,274.188829 115.984342,274.563404 C114.844227,275.575436 114.172528,276.791679 113.978675,278.280956 C113.942092,278.560759 114.005829,278.853726 114.023178,279.140675 C114.113316,279.176778 114.203077,279.213258 114.293215,279.249362 C115.082584,278.24598 115.872329,277.242223 116.812556,276.047416 C117.178011,277.262907 117.4703,278.236202 117.762966,279.209121 C117.909299,279.192574 118.055632,279.176026 118.201965,279.159102 C118.249486,278.512997 118.299646,277.866892 118.341886,277.220034 C118.349807,277.096304 118.352824,276.960915 118.312846,276.846586 C117.635868,274.909398 119.021882,274.003797 120.254021,273.049682 C120.461829,272.88872 120.876313,272.819145 121.122213,272.908276 C123.837293,273.892478 126.538419,274.915415 129.241053,275.934216 C129.318368,275.96355 129.368151,276.064716 129.482427,276.18807 C129.348162,276.345272 129.244824,276.546475 129.079634,276.647264 C126.161649,278.433268 124.553118,281.096667 123.900654,284.379093 C123.758092,285.098158 123.385848,285.255736 122.723956,285.256864 C116.662829,285.268147 110.601702,285.324935 104.540575,285.326439 C100.012173,285.327567 95.693465,284.386239 91.6625197,282.272293 C91.4132256,282.141793 91.1673259,282.001891 90.9289691,281.851083 C90.2089958,281.39565 90.0140109,280.840556 90.4416954,280.030856 C92.1086844,276.875921 93.7488959,273.70707 95.369873,270.528442 C95.6598989,269.960185 95.9518106,269.744691 96.6170976,269.941757 C99.1515243,270.691284 101.722157,271.351305 104.393111,271.022235 C106.540962,270.757475 108.669956,270.338145 110.80423,269.970715 C111.062576,269.925962 111.302818,269.77741 111.550226,269.446084 C110.533061,269.24977 109.523062,269.003061 108.497977,268.866544 C105.326172,268.444582 102.149087,268.063237 98.9738881,267.669858 C98.2999267,267.586368 98.1102219,267.202014 98.1520852,266.559293 C98.298041,264.310335 98.4300424,262.060248 98.5186719,259.808657 C98.5458265,259.115541 98.8158636,258.936527 99.4852992,258.888389 C102.741208,258.654843 105.994099,258.372783 109.245482,258.077184 C110.409734,257.97113 110.447449,257.955334 110.186086,259.141115 C109.647143,261.586011 108.949422,264.004205 109.032394,266.545002 C109.042577,266.851131 109.033903,267.158013 109.242465,267.53334 C109.377483,267.219314 109.558514,266.916569 109.641486,266.58938 C110.643565,262.636402 112.718627,259.127952 114.303775,255.418298 C118.643604,245.261129 125.133924,236.501473 132.022511,227.947532 C137.662364,220.944546 143.59149,214.145395 148.455175,206.53692 C149.1842,205.396645 150.279434,204.475249 151.267559,203.516621 C157.298891,197.664064 162.194634,190.927342 166.684944,183.876218 C169.195234,179.934147 171.586345,175.928142 173.364969,171.582914 C176.478693,163.976319 177.513961,156.153478 176.153216,148.01285 C175.691965,145.252798 175.074953,142.541638 174.329334,139.869965 C175.010838,140.193018 175.796435,140.405879 176.614466,140.412648 C177.440041,140.419794 178.272027,140.220848 179.014629,139.895538 C180.508884,139.224236 181.632782,138.126082 182.545477,136.991072 C183.463453,135.845533 184.183426,134.612742 184.794027,133.356635 C185.407645,132.100152 185.894541,130.807564 186.303745,129.504447 C186.708047,128.198697 187.025604,126.879409 187.305825,125.559368 C187.589062,124.237822 187.832322,122.924927 188.073696,121.595484 C188.297721,120.294623 188.541358,118.959163 188.736343,117.639122 C189.132347,114.993399 189.420864,112.353693 189.685244,109.718125 L190.402954,101.827965 C190.654134,99.2063115 190.89928,96.5876663 191.25342,93.9908337 C191.431434,92.6926054 191.635093,91.4000183 191.892684,90.1217223 C192.133304,88.931429 192.422953,87.7527942 192.800854,86.6110152 C192.98377,86.5895786 193.163292,86.5655095 193.344323,86.5376796 C193.623034,86.4940543 193.900237,86.44554 194.175554,86.3902562 C194.726943,86.2815691 195.27192,86.149565 195.811617,86.0010134 C196.892143,85.7057905 197.946268,85.3233172 198.96909,84.8746537 C199.990781,84.4222294 200.978152,83.8953413 201.914607,83.2909807 C202.381515,82.9867319 202.839748,82.6689443 203.277616,82.3259593 C203.307033,82.3037706 203.334942,82.2785732 203.363982,82.2560084 C205.377192,82.2785732 207.479409,81.74642 208.671193,80.6339752 C210.335164,79.0803886 209.25313,76.7941981 207.4383,76.1778029 C208.978944,75.7990903 210.610482,75.2026274 211.500548,74.0093255 C212.236739,73.0213632 212.184315,71.7069635 211.381747,70.7569854 C211.204111,70.5467566 210.992908,70.3876748 210.760586,70.2662009 C211.040052,70.0469463 211.291609,69.8021182 211.500548,69.5226907 C212.236739,68.5347284 212.184315,67.2207048 211.381747,66.2703506 C211.222214,66.0815584 211.032509,65.9390241 210.827718,65.8224393 C212.3529,65.4034861 214.005934,64.909693 215.766079,64.3297776 C216.889222,63.960467 218.045931,63.5321119 219.236584,63.0469686 C220.425728,62.5524234 221.646175,62.0168854 222.872656,61.2572038 C223.1789,61.0623943 223.485897,60.8536699 223.790632,60.600568 C224.093481,60.3425771 224.40425,60.0627736 224.680698,59.6163666 C224.814586,59.3937272 224.94357,59.1127954 224.986187,58.7607845 C225.035594,58.4117822 224.94885,58.0041115 224.783659,57.7051279" id="Fill-24" fill="#FEFEFE"></path>
                </g>
            </g>
        </g>
    </g>
</svg>