<?xml version="1.0" encoding="UTF-8"?>
<svg width="20px" height="15px" viewBox="0 0 20 15" version="1.1" xmlns="http://www.w3.org/2000/svg" xmlns:xlink="http://www.w3.org/1999/xlink">
    <!-- Generator: Sketch 50.2 (55047) - http://www.bohemiancoding.com/sketch -->
    <title>№</title>
    <desc>Created with Sketch.</desc>
    <defs></defs>
    <g id="Page-1" stroke="none" stroke-width="1" fill="none" fill-rule="evenodd">
        <g id="бронирование1920-" transform="translate(-465.000000, -1740.000000)" fill="#FFFFFF">
            <path d="M465.583984,1755 L465.583984,1740.54688 L467.996094,1740.54688 L473.894531,1750.01953 L473.894531,1740.54688 L476.306641,1740.54688 L476.306641,1755 L473.894531,1755 L467.996094,1745.51758 L467.996094,1755 L465.583984,1755 Z M477.869141,1755 L477.869141,1753.31055 L483.894531,1753.31055 L483.894531,1755 L477.869141,1755 Z M480.837891,1751.98242 C479.783198,1751.98242 478.925459,1751.61947 478.264648,1750.89355 C477.603838,1750.16764 477.273438,1749.22527 477.273438,1748.06641 C477.273438,1746.90104 477.605465,1745.95866 478.269531,1745.23926 C478.933597,1744.51985 479.805984,1744.16016 480.886719,1744.16016 C481.960943,1744.16016 482.831702,1744.51985 483.499023,1745.23926 C484.166344,1745.95866 484.5,1746.89778 484.5,1748.05664 C484.5,1749.24154 484.166344,1750.19205 483.499023,1750.9082 C482.831702,1751.62435 481.944667,1751.98242 480.837891,1751.98242 Z M480.857422,1750.17578 C481.677738,1750.17578 482.087891,1749.47266 482.087891,1748.06641 C482.087891,1746.66666 481.687504,1745.9668 480.886719,1745.9668 C480.079423,1745.9668 479.675781,1746.66666 479.675781,1748.06641 C479.675781,1749.47266 480.069658,1750.17578 480.857422,1750.17578 Z" id="№"></path>
        </g>
    </g>
</svg>