<?xml version="1.0" encoding="UTF-8"?>
<svg width="15px" height="15px" viewBox="0 0 15 15" version="1.1" xmlns="http://www.w3.org/2000/svg" xmlns:xlink="http://www.w3.org/1999/xlink">
    <!-- Generator: sketchtool 47 (45396) - http://www.bohemiancoding.com/sketch -->
    <title>B9ACD710-7ACA-4D19-B0BE-ECDB325F5E18</title>
    <desc>Created with sketchtool.</desc>
    <defs></defs>
    <g id="Page-1" stroke="none" stroke-width="1" fill="none" fill-rule="evenodd">
        <g id="выдача-по-стране_новый_фильтр" transform="translate(-739.000000, -512.000000)" fill-rule="nonzero" fill="#4A535B">
            <g id="election-event-on-a-calendar-with-star-symbol" transform="translate(739.000000, 512.000000)">
                <path d="M5.69508546,9.54772692 L5.45375781,10.9169786 C5.42086668,11.1041762 5.50126722,11.2928185 5.66169025,11.4045352 C5.82236531,11.5160111 6.03571659,11.5309388 6.21126198,11.4430582 L7.499939,10.8004465 L8.78861603,11.4431786 C8.86485792,11.4809793 8.94840895,11.5 9.03107785,11.5 C9.13932873,11.5 9.24732758,11.4676166 9.33843979,11.4046556 C9.49898884,11.2929389 9.57964142,11.1042966 9.54649825,10.917099 L9.30542264,9.54784731 L10.3430685,8.57550288 C10.4849666,8.44271894 10.5355005,8.24456629 10.474633,8.06423053 C10.4135135,7.88401515 10.24994,7.75207389 10.0536014,7.72438549 L8.61571705,7.52069516 L7.96810203,6.27724517 C7.88026633,6.10750323 7.69829394,6 7.49981298,6 C7.30171008,6 7.11986371,6.10750323 7.03127189,6.27724517 L6.38428697,7.52069516 L4.94640267,7.72426511 C4.74968598,7.75195351 4.58686858,7.88389476 4.52562303,8.06411014 C4.46437747,8.2444459 4.51478534,8.44283932 4.65693551,8.57538249 L5.69508546,9.54772692 Z" id="Shape"></path>
                <path d="M13.4867045,1.59465284 L11.8916092,1.59465284 L11.8916092,0.723716891 C11.8916092,0.324002115 11.5624568,0 11.156266,0 L11.0396708,0 C10.6336022,0 10.3045718,0.324002115 10.3045718,0.723716891 L10.3045718,1.59465284 L4.67662643,1.59465284 L4.67662643,0.723716891 C4.67662643,0.324002115 4.34747397,0 3.94152742,0 L3.82481015,0 C3.4187415,0 3.08971114,0.324002115 3.08971114,0.723716891 L3.08971114,1.59465284 L1.51317342,1.59465284 C0.678937987,1.59465284 0,2.26272694 0,3.08414921 L0,13.5105036 C0,14.3314452 0.678937987,15 1.51317342,15 L13.4868266,15 C14.3209399,15 15,14.3315654 15,13.5105036 L15,3.08414921 C14.9998779,2.26272694 14.3208178,1.59465284 13.4867045,1.59465284 Z M13.2892863,13.3161745 L1.71059164,13.3161745 L1.71059164,5.19989745 L13.2892863,5.19989745 L13.2892863,13.3161745 Z" id="Shape"></path>
            </g>
        </g>
    </g>
</svg>