<?xml version="1.0" encoding="UTF-8"?>
<svg width="13px" height="18px" viewBox="0 0 13 18" version="1.1" xmlns="http://www.w3.org/2000/svg" xmlns:xlink="http://www.w3.org/1999/xlink">
    <!-- Generator: sketchtool 47 (45396) - http://www.bohemiancoding.com/sketch -->
    <title>7FD29272-732A-42CF-B975-8D9B141490CC</title>
    <desc>Created with sketchtool.</desc>
    <defs></defs>
    <g id="Page-1" stroke="none" stroke-width="1" fill="none" fill-rule="evenodd">
        <g id="выдача-по-стране_новый_фильтр" transform="translate(-879.000000, -511.000000)" fill-rule="nonzero" fill="#F24841">
            <g id="placeholder-filled-point" transform="translate(879.000000, 511.000000)">
                <path d="M6.49972897,0 C2.91595202,0 0,2.86275312 0,6.3815021 C0,7.29932864 0.191349188,8.17564543 0.568446217,8.98632717 C2.19355915,12.4775804 5.30935272,16.1636101 6.22580511,17.2100458 C6.29446676,17.2882757 6.39456822,17.3333333 6.49990966,17.3333333 C6.60525109,17.3333333 6.70535255,17.2882757 6.7740142,17.2100458 C7.69010522,16.1637875 10.8058988,12.4779352 12.4315538,8.98632717 C12.8088315,8.17564543 13,7.29932864 13,6.3815021 C12.9996386,2.86275312 10.0836866,0 6.49972897,0 Z M6.49972897,9.69607281 C4.63809471,9.69607281 3.12338249,8.20899514 3.12338249,6.38132471 C3.12338249,4.55347688 4.63809471,3.06639921 6.49972897,3.06639921 C8.36136323,3.06639921 9.87607544,4.55347688 9.87607544,6.38132471 C9.87625613,8.20899514 8.36154391,9.69607281 6.49972897,9.69607281 Z" id="Shape"></path>
            </g>
        </g>
    </g>
</svg>