<?xml version="1.0" encoding="UTF-8"?>
<svg width="18px" height="18px" viewBox="0 0 18 18" version="1.1" xmlns="http://www.w3.org/2000/svg" xmlns:xlink="http://www.w3.org/1999/xlink">
    <!-- Generator: sketchtool 47 (45396) - http://www.bohemiancoding.com/sketch -->
    <title>BB0D62D5-AF9A-40AA-B525-B50E98F5911E</title>
    <desc>Created with sketchtool.</desc>
    <defs></defs>
    <g id="Page-1" stroke="none" stroke-width="1" fill="none" fill-rule="evenodd">
        <g id="выдача-по-стране_новый_фильтр" transform="translate(-598.000000, -511.000000)" fill-rule="nonzero" fill="#FFA62B">
            <g id="sun" transform="translate(598.000000, 511.000000)">
                <path d="M9,5 C6.79437256,5 5,6.79441004 5,9 C5,11.20559 6.79437256,13 9,13 C11.2056274,13 13,11.20559 13,9 C13,6.79441004 11.20559,5 9,5 Z" id="XMLID_1034_"></path>
                <path d="M17.7625838,8.52148288 L15.9435016,7.13949627 L16.8278628,5.03312352 C16.900578,4.85992949 16.8881183,4.66269742 16.7942095,4.5 C16.7003007,4.33730258 16.5356799,4.22792952 16.3493446,4.20429212 L14.0829937,3.91699756 L13.7956985,1.6506517 C13.7720611,1.46427681 13.6626878,1.29969641 13.49999,1.20578782 C13.3372922,1.11183918 13.1400597,1.09941953 12.9668653,1.17213458 L10.8604878,2.05653389 L9.47849815,0.237415644 C9.36487813,0.0878189491 9.18787768,0 9.00002003,0 C8.81216238,0 8.63516193,0.0878189491 8.52150185,0.237415644 L7.13951216,2.05649383 L5.03313472,1.17209451 C4.85994031,1.09937946 4.6627078,1.11183918 4.50001002,1.20574776 C4.33731223,1.29965635 4.22789887,1.46427681 4.20430148,1.65061163 L3.91700628,3.91699756 L1.65065537,4.20429212 C1.46432013,4.22788946 1.2996993,4.33730258 1.20579051,4.5 C1.11184165,4.66269742 1.09942197,4.85992949 1.17213719,5.03312352 L2.05653847,7.13949627 L0.237416173,8.52148288 C0.0878191446,8.63510265 0,8.81214277 0,9 C0,9.18785723 0.0878191446,9.36485729 0.237416173,9.47851712 L2.05649841,10.8605037 L1.17209712,12.9668765 C1.09938191,13.1400705 1.11184165,13.3373026 1.20575044,13.5 C1.29965924,13.6626974 1.46424001,13.7720705 1.65061531,13.7957079 L3.91696622,14.0830024 L4.20426142,16.3493483 C4.22785881,16.5356831 4.33727217,16.7003036 4.49996995,16.7942122 C4.66262767,16.8881608 4.85986018,16.9005805 5.03309466,16.8278654 L7.1394721,15.9435062 L8.52146178,17.7625844 C8.63508181,17.912141 8.81212232,18 8.99997997,18 C9.18779755,18 9.36483807,17.9121811 9.47849815,17.7625844 L10.8604878,15.9435062 L12.9668653,16.8278654 C13.1399796,16.9005404 13.3372922,16.8880807 13.49999,16.7942122 C13.6626477,16.7003036 13.7720611,16.5357232 13.7956985,16.3493483 L14.0829937,14.0830024 L16.3493446,13.7957079 C16.5357199,13.7720705 16.7003007,13.6626974 16.7942095,13.5 C16.8881583,13.3373026 16.900578,13.1401106 16.8278628,12.9668765 L15.9435016,10.8605037 L17.7625838,9.47851712 C17.9121408,9.36489735 18,9.18785723 18,9 C18,8.81214277 17.9121809,8.63510265 17.7625838,8.52148288 Z M9.00002003,14.477747 C5.97955427,14.477747 3.52226083,12.020419 3.52226083,9 C3.52226083,5.97958103 5.97955427,3.52221292 9.00002003,3.52221292 C12.0204858,3.52221292 14.4777792,5.97954096 14.4777792,8.99995994 C14.4777792,12.0203789 12.0204457,14.477747 9.00002003,14.477747 Z" id="XMLID_1050_"></path>
            </g>
        </g>
    </g>
</svg>