<?xml version="1.0" encoding="UTF-8"?>
<svg width="20px" height="17px" viewBox="0 0 20 17" version="1.1" xmlns="http://www.w3.org/2000/svg" xmlns:xlink="http://www.w3.org/1999/xlink">
    <!-- Generator: sketchtool 47 (45396) - http://www.bohemiancoding.com/sketch -->
    <title>31169B3C-1BA7-4411-9DC3-BD8B54EA48FF</title>
    <desc>Created with sketchtool.</desc>
    <defs></defs>
    <g id="Page-1" stroke="none" stroke-width="1" fill="none" fill-rule="evenodd">
        <g id="выдача-по-стране_новый_фильтр" transform="translate(-459.000000, -512.000000)" fill-rule="nonzero" fill="#1FB9FF">
            <g id="woman-and-man-partners" transform="translate(459.000000, 512.000000)">
                <path d="M15.277515,3.88888889 C16.3498292,3.88888889 17.2222222,3.01660984 17.2222222,1.94440691 C17.2222222,0.872279054 16.3498667,0 15.277515,0 C14.2054636,0 13.3333333,0.872241524 13.3333333,1.94440691 C13.3333333,3.01660984 14.2055012,3.88888889 15.277515,3.88888889 Z" id="Shape"></path>
                <path d="M19.8367172,7.70805187 L19.152941,6.77994262 C18.9982238,6.5698451 18.7385556,6.23254906 18.5741542,6.02807505 L17.5650338,4.77318995 C17.4042448,4.57323005 17.2337331,4.45854098 16.9068133,4.45854098 C16.9040079,4.45854098 14.3256187,4.45987992 14.3018693,4.45987992 C13.9912436,4.45987992 13.8345665,4.6214316 13.695029,4.8258291 L12.2815149,6.89623841 C12.1641512,7.06811899 11.9360721,7.35124568 11.7933449,7.50208591 L11.6775953,7.62450252 L11.5147694,7.4523159 C11.3684683,7.2976119 11.1347401,7.00756102 11.014571,6.83158713 L9.6009801,4.76110131 C9.46847516,4.5669562 9.25150218,4.4476 9.01581403,4.44453958 C8.99417821,4.4442718 6.53918615,4.44465435 6.52669656,4.44465435 C6.26210942,4.44465435 6.10116666,4.54274067 5.96362746,4.71377963 L4.95450709,5.96866474 C4.79191186,6.17084344 4.53362715,6.50634148 4.37879468,6.71647726 L3.6997069,7.63823614 C3.61243349,7.61635417 3.52239316,7.60460982 3.43077722,7.60460982 C3.19247586,7.60460982 2.97004589,7.68188531 2.78765946,7.82809666 C2.76679224,7.84477593 2.74696261,7.86241157 2.727671,7.88050628 L2.35544282,7.42006677 C2.27262723,7.31754285 2.14888423,7.25878288 2.01595657,7.25878288 C1.91715431,7.25878288 1.82042725,7.29263872 1.74368353,7.35411482 L0.162040396,8.62101205 C0.0717310591,8.69335262 0.0151243984,8.79664165 0.00259637979,8.91186629 C-0.0099316388,9.02716744 0.0231561649,9.14013503 0.0958263586,9.22995822 L2.23273741,11.8736216 C2.31555299,11.9761455 2.439296,12.0349055 2.57222365,12.0349055 C2.67102591,12.0349055 2.76775297,12.0010497 2.8444967,11.9395736 L4.42613983,10.6727528 C4.51644916,10.6004123 4.57305583,10.4971232 4.58558384,10.3818603 C4.59811186,10.2665592 4.56502406,10.1535916 4.49235386,10.0637684 L4.12012568,9.60332891 C4.14195364,9.58844764 4.16351259,9.57291603 4.18434138,9.55623676 C4.44158849,9.35007953 4.57113435,9.04143663 4.56525464,8.72594605 C4.68015886,8.67579349 4.78172804,8.59622269 4.85747259,8.49343098 L5.36212885,7.80839524 L4.66436433,11.5032731 C4.63700252,11.6481838 4.67012875,11.7858642 4.75767117,11.8908747 C4.84513672,11.9958852 4.97491316,12.0537271 5.12302047,12.0537271 L5.48959952,12.0537271 L4.8748043,14.9601654 C4.78418753,15.3885853 5.06064938,15.8105401 5.49094455,15.9007458 C5.54516858,15.9121459 5.60069922,15.9179224 5.65607613,15.9179224 C6.03064852,15.9179224 6.35864434,15.6526991 6.43592607,15.287362 L7.1198944,12.0537271 L7.87461145,12.0537271 C7.8837961,12.2538782 7.88698575,12.4880383 7.88122132,12.6409443 L7.7880682,15.0937525 C7.77999801,15.3056863 7.85531984,15.5080945 8.00019907,15.6636019 C8.1450783,15.8191475 8.34206795,15.9092385 8.55473683,15.9171955 C8.56511279,15.9176163 8.5754119,15.9178076 8.58567258,15.9178076 C9.01608303,15.9178076 9.3660221,15.5821948 9.38227778,15.1537366 L9.4754309,12.7010432 C9.48227136,12.5220471 9.48023459,12.279471 9.47143424,12.0537271 L10.0279703,12.0537271 C10.1751169,12.0537271 10.3069685,11.9961147 10.3991225,11.891525 C10.4912764,11.7869353 10.5315121,11.6493314 10.5123358,11.5040382 L10.0415744,7.93597631 C10.1822264,8.11646431 10.3403638,8.30429731 10.4649907,8.43612471 L10.8410618,8.83382569 C10.8385639,9.06021993 10.9264137,9.28699671 11.1046882,9.4540954 C11.2616727,9.60111011 11.4666941,9.6820581 11.6820146,9.6820581 C11.9134371,9.6820581 12.1370968,9.58588454 12.295657,9.41825028 L13.0202069,8.65196051 C13.2217696,8.43891733 13.509376,8.08195813 13.6750456,7.83930544 L14.0707927,7.25966275 L14.2331189,9.06488706 L13.9987373,11.6827664 C13.9732202,11.9688388 13.9614223,12.4170366 13.971952,12.7032237 L14.0656815,15.2590149 C14.083167,15.7368223 14.4728806,16.1111111 14.9528651,16.1111111 C14.9638175,16.1111111 14.9748852,16.1108433 14.9857992,16.1104225 C15.2229477,16.1018151 15.4424954,16.001816 15.6040531,15.828826 C15.7656107,15.6557978 15.8498097,15.4305512 15.8411247,15.1945167 L15.7473951,12.6387255 C15.7395939,12.4258736 15.7494319,12.0524646 15.7684545,11.8395745 L15.9252853,10.0874484 L16.2100479,10.0874484 L16.6283146,12.0645915 C16.6818469,12.3176879 16.7749232,12.7280896 16.8359108,12.9794262 L17.4062815,15.331279 C17.5029702,15.7298981 17.8577898,16.0082429 18.2691392,16.0082429 C18.3390425,16.0082429 18.4094069,15.999865 18.4782342,15.9833388 C18.9543757,15.8689557 19.2482077,15.3902302 19.1332651,14.9162101 L18.5629328,12.5643956 C18.5054038,12.3271752 18.4174002,11.9394588 18.3667502,11.7001343 L17.8673972,9.33967412 L17.7171762,7.66861076 C17.7449608,7.70564179 17.771016,7.74060704 17.7941121,7.77193804 L18.4779267,8.70008554 C18.6360257,8.91465892 18.8902369,9.04281382 19.1578984,9.04281382 C19.3379406,9.04281382 19.5099895,8.98665519 19.655522,8.88042052 C19.8370246,8.74794279 19.9558486,8.55303258 19.9900124,8.33161152 C20.0242531,8.11019046 19.9697985,7.88873114 19.8367172,7.70805187 Z M3.05401436,8.28436635 C3.07176879,8.26462667 3.0906761,8.24588163 3.11169704,8.22904934 C3.20131465,8.15720609 3.31164576,8.11925694 3.43073879,8.11925694 C3.47393356,8.11925694 3.51701303,8.12465092 3.55924706,8.13444425 C3.56059209,8.14901948 3.56159126,8.16359471 3.56382017,8.17813168 C3.59310345,8.36753314 3.69471106,8.53432579 3.84996626,8.64763767 C3.91129975,8.69239625 3.97816709,8.72663464 4.04860837,8.75000857 C4.04780135,8.90635754 3.98466168,9.05566756 3.86034223,9.15528408 C3.83935972,9.17211637 3.81718589,9.18680636 3.79405133,9.19988964 L3.05401436,8.28436635 Z" id="Shape"></path>
                <path d="M8.05581831,3.88888889 C9.12786969,3.88888889 10,3.01660984 10,1.94440691 C10,0.872279054 9.12786969,0 8.05581831,0 C6.98350418,0 6.11111111,0.872241524 6.11111111,1.94440691 C6.11111111,3.01660984 6.98346664,3.88888889 8.05581831,3.88888889 Z" id="Shape"></path>
            </g>
        </g>
    </g>
</svg>