<svg xmlns="http://www.w3.org/2000/svg" width="24" height="24" viewBox="0 0 24 24">
    <g fill="none" fill-rule="nonzero">
        <circle cx="12" cy="12" r="12" fill="#DDFFE4"/>
        <g fill="#29C07A">
            <path d="M13.88 17.834l-1.265-6.765-.615-.3-.615.3-1.265 6.765a.362.362 0 0 0 .356.428h3.048a.362.362 0 0 0 .356-.428z"/>
            <path d="M16.514 9.132c-.442-.214-.992-.31-1.557-.34L17.177 8a.362.362 0 0 0 .224-.456 2.247 2.247 0 0 0-2.889-1.41c-.633.226-1.306.834-2 1.808-.202.284-.376.557-.512.782a12.27 12.27 0 0 0-.512-.782c-.695-.974-1.367-1.582-2-1.808A2.247 2.247 0 0 0 6.6 7.543.362.362 0 0 0 6.821 8l2.221.794c-.565.028-1.115.125-1.557.34-1.256.607-1.828 2.014-1.276 3.135a.365.365 0 0 0 .49.167L12 9.868l5.3 2.567a.368.368 0 0 0 .49-.167c.552-1.121-.02-2.528-1.276-3.136z"/>
        </g>
    </g>
</svg>
