<svg xmlns="http://www.w3.org/2000/svg" width="24" height="24" viewBox="0 0 24 24">
    <g fill="none" fill-rule="nonzero">
        <circle cx="12" cy="12" r="12" fill="#DDFFE4"/>
        <g fill="#29C07A">
            <path d="M6.833 7.881c-.666-.64-3.5-.8-4.416-.881-.084 0-.167 0-.25.08-.084.08-.167.24-.167.32v7.212c0 .24.167.4.417.4h2.5c.166 0 .333-.08.416-.24 0-.24 1.5-4.487 1.667-6.57 0-.08 0-.24-.167-.32zM15.73 10.018c-.85-.238-1.614-.555-2.293-.793-1.53-.634-2.21-.317-3.569.951-.594.555-1.019 1.348-.934 1.665 0 .08 0 .08.17.159.425.159 1.02.238 1.614-.634.085-.08.17-.159.34-.159.255 0 .34-.08.594-.159.17-.079.34-.158.595-.237h.17c.085 0 .255.079.34.079.425.396 1.19.951 1.954 1.586 1.19.872 2.379 1.823 2.973 2.537h.085c-.594-1.586-1.614-4.282-2.039-4.995zM21.588 7.763c-3.214 0-5.028.801-5.11.801l-.247.24c0 .08 0 .241.082.321.495.802 2.143 5.209 2.39 6.33.083.16.248.32.412.32h2.473c.247 0 .412-.16.412-.4V8.164c0-.24-.165-.4-.412-.4z"/>
            <path d="M16.929 15.512c-.332-.718-1.742-1.755-2.986-2.712-.663-.559-1.326-1.037-1.824-1.436-.083.08-.249.08-.249.16-.249.079-.332.159-.663.159-.664.798-1.493 1.117-2.405.798a.962.962 0 0 1-.747-.718c-.166-.798.58-1.915 1.161-2.474H7.558c-.332 1.596-.913 3.67-1.327 4.787.331.32.663.718.912.878 1.576 1.276 3.4 2.553 3.732 2.792.249.16.746.32.995.32h.249l-1.327-1.277a.376.376 0 0 1 0-.559.412.412 0 0 1 .58 0l1.66 1.596c.165.16.33.08.497.08.249-.08.332-.24.414-.479l-1.907-1.835a.376.376 0 0 1 0-.558.412.412 0 0 1 .58 0l2.074 1.994c.083.08.415.08.663 0 .083-.08.25-.16.332-.319l-2.322-2.234a.376.376 0 0 1 0-.558.412.412 0 0 1 .58 0l2.406 2.313c.165.08.331 0 .497-.08a.527.527 0 0 0 .083-.638z"/>
        </g>
    </g>
</svg>
