<svg xmlns="http://www.w3.org/2000/svg" width="24" height="24" viewBox="0 0 24 24">
    <g fill="none" fill-rule="nonzero">
        <circle cx="12" cy="12" r="12" fill="#D8F1FF"/>
        <g fill="#30B4FD" transform="translate(4 5)">
            <path d="M2.861 9.02H.965S0 9.02 0 10.498c.046.954.787 1.107.92 1.107h3.86s.967 0 1.01-1.165c.001-.044.005-.001.005-.046.002-.172 0-1.062 0-1.062.003-.126.099-.27.229-.27h3.023a.09.09 0 0 1 .087.08l.714 1.623c.266.664.784 1.15 1.65.838.819-.297.861-.949.716-1.407L10.44 4.788c-.267-.64-.94-1.014-1.783-1.014H4.493c-2.254 0-4.144 2.638-1.585 5.173.018.04-.002.074-.047.074z"/>
            <ellipse cx="13.209" cy="2.83" rx="2.791" ry="2.83"/>
        </g>
    </g>
</svg>
