<svg xmlns="http://www.w3.org/2000/svg" width="24" height="24" viewBox="0 0 24 24">
    <g fill="none" fill-rule="nonzero">
        <circle cx="12" cy="12" r="12" fill="#DDFFE4"/>
        <g fill="#29C07A">
            <path d="M19.792 10.77c-.522-.404-4.855-3.71-7.255-4.195v-.312a1.68 1.68 0 0 0 1.142-1.588 1.68 1.68 0 0 0-3.359 0 .536.536 0 0 0 1.073 0 .607.607 0 0 1 1.214 0 .607.607 0 0 1-.607.606.535.535 0 0 0-.536.535v.759c-2.4.485-6.734 3.79-7.256 4.195a.534.534 0 0 0 .328.957h3.006v-1.07H6.163C8.012 9.347 10.775 7.58 12 7.58c1.223 0 3.987 1.766 5.836 3.078H16.46v1.07h3.004a.536.536 0 0 0 .329-.958z"/>
            <path d="M15.274 11H8.726c-.2 0-.362.156-.362.349v5.331h.364v.593h-.364v1.378c0 .193.162.349.362.349h6.548c.2 0 .362-.156.362-.349v-1.378h-.364v-.593h.364V11.35a.356.356 0 0 0-.362-.349zm-3.928 6.273h-1.31v-.593h1.31v.593zm2.617 0h-1.309v-.593h1.31v.593z"/>
        </g>
    </g>
</svg>
