<svg xmlns="http://www.w3.org/2000/svg" width="24" height="24" viewBox="0 0 24 24">
    <g fill="none" fill-rule="nonzero">
        <circle cx="12" cy="12" r="12" fill="#FFD7CA"/>
        <path fill="#FF4949" d="M17.182 13.252c.12.127.226.238.32.332.095.095.196.186.304.274.108.089.188.133.237.133.095 0 .278-.135.55-.407.271-.27.407-.454.407-.548 0-.044-.08-.157-.237-.34-.158-.183-.36-.399-.607-.648-.247-.25-.487-.487-.72-.714a133.481 133.481 0 0 0-1.065-1.03.263.263 0 0 0-.19-.083c-.095 0-.278.135-.55.407-.272.27-.407.454-.407.548 0 .05.044.128.133.237.088.107.18.209.274.303.094.094.205.2.333.32.127.119.2.186.216.203l-.798.797-2.954-2.948c.727-.975 1.09-1.985 1.09-3.032 0-.902-.284-1.637-.852-2.205C12.097 4.284 11.36 4 10.457 4c-.887 0-1.755.263-2.604.789a6.318 6.318 0 0 0-2.063 2.06c-.527.847-.79 1.713-.79 2.6 0 .902.284 1.637.853 2.204.568.568 1.304.852 2.208.852 1.048 0 2.06-.363 3.036-1.088l5.582 5.573a.77.77 0 0 0 .566.232c.233 0 .457-.108.673-.324.217-.216.325-.44.325-.673a.768.768 0 0 0-.233-.564l-1.83-1.828.799-.797.203.216zM11.455 8.32c-.31.31-.687.465-1.131.465a1.63 1.63 0 0 1-.69-.158c.105.227.157.457.157.69 0 .442-.155.819-.465 1.129-.31.31-.688.465-1.132.465-.443 0-.82-.155-1.131-.465a1.537 1.537 0 0 1-.466-1.13c0-.443.155-.82.466-1.13.31-.31.688-.464 1.131-.464.233 0 .463.052.69.158a1.624 1.624 0 0 1-.157-.69c0-.443.155-.82.465-1.13.311-.31.688-.464 1.132-.464.443 0 .82.155 1.131.465.31.31.466.686.466 1.13 0 .442-.155.819-.466 1.129z"/>
    </g>
</svg>
