<svg xmlns="http://www.w3.org/2000/svg" width="23" height="24" viewBox="0 0 23 24">
    <g fill="none" fill-rule="nonzero">
        <ellipse cx="11.5" cy="12" fill="#FFD7CA" rx="11.5" ry="12"/>
        <path fill="#FB6051" d="M14.275 7.264v-.446C14.275 5.265 13.03 4 11.5 4 9.97 4 8.725 5.265 8.725 6.818v.446H6.708v8.182c0 .98.785 1.777 1.751 1.777h6.082c.966 0 1.75-.797 1.75-1.777V7.264h-2.016zM9.409 9.339a.593.593 0 0 1-.588-.597c0-.33.263-.597.588-.597.324 0 .588.267.588.597a.591.591 0 0 1-.588.597zm3.586-2.075h-2.99v-.446c0-.837.67-1.518 1.495-1.518.825 0 1.495.68 1.495 1.518v.446zm.596 2.075a.593.593 0 0 1-.588-.597c0-.33.264-.597.588-.597.325 0 .588.267.588.597a.593.593 0 0 1-.588.597z"/>
    </g>
</svg>
