<svg xmlns="http://www.w3.org/2000/svg" width="23" height="24" viewBox="0 0 23 24">
    <g fill="none" fill-rule="nonzero">
        <ellipse cx="11.5" cy="12" fill="#FFD7CA" rx="11.5" ry="12"/>
        <g fill="#FB6051">
            <path d="M4.792 14.496h13.417v1.299H4.792zM15.814 9.39c-.947-.998-2.151-1.627-3.454-1.82.085-.154.133-.332.133-.523C12.493 6.47 12.048 6 11.5 6s-.993.47-.993 1.047c0 .19.048.37.133.524-1.303.192-2.507.821-3.454 1.82-1.12 1.18-1.75 2.738-1.784 4.401h12.196c-.034-1.663-.664-3.222-1.784-4.402z"/>
        </g>
    </g>
</svg>
