<svg xmlns="http://www.w3.org/2000/svg" width="24" height="24" viewBox="0 0 24 24">
    <g fill="none" fill-rule="nonzero">
        <circle cx="12" cy="12" r="12" fill="#FFEDC3"/>
        <path fill="#FFA81D" d="M20.73 9.461l-1.67-.92a3.149 3.149 0 0 0-3.613-2.5 3.14 3.14 0 0 0-2.057 1.277 3.145 3.145 0 0 0-.554 2.358c.01.058.024.114.036.17a19.14 19.14 0 0 0-2.01-.105C6.947 9.741 3 10.887 3 13.446c0 2.558 3.948 3.704 7.861 3.704s7.862-1.146 7.862-3.704c0-.704-.3-1.3-.814-1.795a3.16 3.16 0 0 0 .793-.911l1.86-.305a.523.523 0 0 0 .167-.974zm-9.869 4.813c-2.302 0-3.929-.452-4.663-.828.734-.377 2.361-.83 4.663-.83s3.93.453 4.664.83c-.735.376-2.362.828-4.664.828zm6.363-4.962a.708.708 0 1 1-.229-1.397.708.708 0 0 1 .229 1.397z"/>
    </g>
</svg>
