<svg xmlns="http://www.w3.org/2000/svg" width="23" height="24" viewBox="0 0 23 24">
    <g fill="none" fill-rule="nonzero">
        <ellipse cx="11.5" cy="12" fill="#D8F1FF" rx="11.5" ry="12"/>
        <path fill="#30B4FD" d="M19.154 10.555h-.059v-.528c0-.503-.391-.911-.874-.911h-.251v-.734c0-.503-.392-.912-.874-.912h-1.462c-.482 0-.873.409-.873.912v2.173h-6.53V8.382c0-.503-.392-.912-.874-.912H5.895c-.482 0-.873.409-.873.912v.734h-.254c-.482 0-.873.408-.873.911v.528H3.78c-.499 0-.905.418-.905.94s.406.94.905.94h.115v.528c0 .503.391.911.873.911h.254v.734c0 .503.39.912.873.912h1.462c.482 0 .873-.41.873-.912v-2.172h6.531v2.172c0 .503.391.912.873.912h1.462c.483 0 .874-.41.874-.912v-.734h.251c.483 0 .874-.408.874-.911v-.528h.059c.5 0 .906-.418.906-.94s-.405-.94-.906-.94z"/>
    </g>
</svg>
