<svg xmlns="http://www.w3.org/2000/svg" width="24" height="24" viewBox="0 0 24 24">
    <g fill="none" fill-rule="nonzero">
        <circle cx="12" cy="12" r="12" fill="#FFD7CA"/>
        <g transform="translate(6 6)">
            <circle cx="6" cy="6" r="6" fill="#FFF"/>
            <path fill="#FF4949" d="M11.34.66C10.9.22 10.37 0 9.75 0h-7.5C1.63 0 1.1.22.66.66.22 1.1 0 1.63 0 2.25v7.5c0 .62.22 1.15.66 1.59.44.44.97.66 1.59.66h7.5c.62 0 1.15-.22 1.59-.66.44-.44.66-.97.66-1.59v-7.5c0-.62-.22-1.15-.66-1.59zM10 9.5c0 .135-.05.253-.148.351A.48.48 0 0 1 9.5 10h-1a.48.48 0 0 1-.351-.149A.48.48 0 0 1 8 9.5V7H4v2.5a.48.48 0 0 1-.148.351A.48.48 0 0 1 3.5 10h-1a.48.48 0 0 1-.352-.149A.48.48 0 0 1 2 9.5v-7a.48.48 0 0 1 .148-.352A.48.48 0 0 1 2.5 2h1a.48.48 0 0 1 .352.148A.48.48 0 0 1 4 2.5V5h4V2.5a.48.48 0 0 1 .148-.352A.48.48 0 0 1 8.5 2h1c.135 0 .253.05.352.148A.48.48 0 0 1 10 2.5v7z"/>
        </g>
    </g>
</svg>
