<svg xmlns="http://www.w3.org/2000/svg" width="23" height="24" viewBox="0 0 23 24">
    <g fill="none" fill-rule="nonzero">
        <ellipse cx="11.5" cy="12" fill="#D8F1FF" rx="11.5" ry="12"/>
        <g fill="#11A0F0" transform="translate(4.792 7)">
            <ellipse cx="6.665" cy="8.875" rx="1.55" ry="1.564"/>
            <path d="M10.37 5.108c-.024-.024-.048-.045-.072-.067l-.07-.066c-.01-.012-.024-.021-.038-.033a5.025 5.025 0 0 0-6.985.166l-.224.227-.31.313a.987.987 0 0 0 .002 1.385.966.966 0 0 0 1.374.003l.535-.54a3.104 3.104 0 0 1 4.411 0l.387.377a.957.957 0 0 0 1.361-.003.971.971 0 0 0 .283-.687.96.96 0 0 0-.28-.685l-.375-.39z"/>
            <path d="M13.01 3.175l-.322-.324c-.002-.002-.002-.004-.005-.004l-.254-.258a.918.918 0 0 0-.144-.117 8.384 8.384 0 0 0-11.398.265c-.016.014-.033.024-.048.04l-.582.587a.898.898 0 0 0 .004 1.262.879.879 0 0 0 1.252.003l.581-.585a6.62 6.62 0 0 1 9.203-.064l.458.462a.88.88 0 0 0 1.252-.003.9.9 0 0 0 .003-1.264z"/>
        </g>
    </g>
</svg>
