<?xml version="1.0" encoding="UTF-8"?>
<svg width="284px" height="25px" viewBox="0 0 284 25" version="1.1" xmlns="http://www.w3.org/2000/svg" xmlns:xlink="http://www.w3.org/1999/xlink">
    <!-- Generator: sketchtool 50.2 (55047) - http://www.bohemiancoding.com/sketch -->
    <title>3207A4D2-E2A1-476E-B73C-A378CA02FFE4</title>
    <desc>Created with sketchtool.</desc>
    <defs></defs>
    <g id="Page-1" stroke="none" stroke-width="1" fill="none" fill-rule="evenodd">
        <g id="конкурс-copy-2" transform="translate(-432.000000, -1300.000000)" fill="#FFFFFF">
            <path d="M440.528,1324.224 L437.264,1322.624 C436.368,1322.176 436.368,1320.544 436.56,1320 C436.912,1318.976 437.552,1317.536 438.288,1315.872 C437.072,1316 436.368,1315.616 435.728,1314.048 C434.544,1311.104 433.52,1307.84 432.976,1304.672 C432.88,1304.096 433.04,1302.944 433.488,1302.464 C434.352,1301.504 436.784,1301.184 438.256,1300.896 C438.704,1300.8 439.824,1300.864 439.952,1301.6 C440.592,1305.44 440.72,1308.48 441.2,1311.104 C442.896,1306.4 445.104,1302.24 445.936,1301.344 C446.16,1301.12 446.48,1300.672 446.864,1300.64 C447.92,1300.384 449.392,1301.92 450.224,1302.496 C450.48,1302.656 450.864,1303.008 450.928,1303.488 C450.992,1304.064 450.704,1304.768 450.448,1305.216 C447.952,1309.28 443.856,1318.56 442.576,1323.424 C442.416,1324.064 441.616,1324.8 440.528,1324.224 Z M460.816,1306.016 C460.144,1306.016 459.632,1306.304 459.472,1306.464 C458.864,1307.104 457.776,1310.24 457.776,1315.648 C457.776,1319.008 459.344,1318.88 460.336,1318.88 C461.008,1318.88 461.84,1318.368 462.896,1317.504 C463.536,1316.992 465.424,1314.24 466.512,1316.16 L467.44,1318.56 C467.728,1319.52 467.632,1320.416 466.992,1321.184 C465.552,1322.944 464.08,1324.608 460.24,1324.608 C454.896,1324.608 451.28,1321.952 451.28,1314.816 C451.28,1306.816 454.64,1301.184 459.92,1301.024 C462.48,1300.96 464.848,1301.344 466.32,1302.208 C467.216,1302.72 468.624,1303.2 468.464,1304.896 C468.336,1306.272 468.24,1308.48 466.608,1310.816 C466.32,1311.232 465.68,1312.48 463.44,1311.84 C461.84,1311.52 461.808,1311.008 462.224,1309.6 C462.8,1307.584 462.256,1306.016 460.816,1306.016 Z M488.24,1303.968 C487.792,1307.776 486.64,1315.104 486.64,1322.944 C486.64,1323.424 486.352,1323.872 485.808,1323.968 C483.6,1324.256 481.872,1323.232 481.104,1322.72 C480.752,1322.496 480.176,1321.632 480.176,1321.216 C480.176,1317.568 480.912,1311.328 481.552,1306.944 C480.912,1306.88 480.144,1306.848 479.28,1306.848 C478.768,1306.848 477.968,1306.752 477.424,1306.848 C478,1307.04 478.544,1307.68 478.608,1308.288 C478.192,1312.128 477.68,1316.352 475.696,1322.144 C475.28,1323.328 474.384,1324.096 473.712,1324.096 C471.472,1324.096 469.776,1323.104 468.656,1322.112 C468.336,1321.856 468.176,1321.44 468.176,1320.992 C468.176,1320.672 468.816,1320 469.648,1318.88 C471.28,1316.736 472.816,1312.128 473.296,1307.136 C472.944,1306.112 472.208,1304.352 472.112,1303.36 C472.048,1302.784 472.624,1301.984 473.072,1301.856 C474.256,1301.44 476.112,1301.312 478.512,1301.248 C479.184,1301.248 481.104,1301.344 482.672,1301.472 L482.832,1301.472 C483.952,1301.472 486.512,1301.792 487.408,1302.112 C487.888,1302.304 488.304,1302.432 488.24,1303.968 Z M498.512,1301.12 C500.752,1301.12 503.28,1301.696 504.592,1302.528 C505.904,1303.392 508.08,1305.888 508.08,1310.976 C508.08,1318.688 504.432,1324.672 499.792,1324.672 C497.552,1324.672 494.992,1324.16 493.712,1323.296 C492.4,1322.432 490.192,1319.936 490.192,1314.816 C490.192,1307.136 493.872,1301.12 498.512,1301.12 Z M499.728,1306.112 C499.056,1306.112 498.704,1306.304 498.544,1306.464 C497.936,1307.104 496.688,1310.24 496.688,1315.648 C496.688,1319.008 497.616,1319.712 498.608,1319.712 C499.28,1319.712 499.6,1319.488 499.76,1319.328 C500.4,1318.752 501.648,1315.616 501.648,1310.208 C501.648,1306.784 500.72,1306.112 499.728,1306.112 Z M510.128,1304.672 C509.936,1304.128 509.968,1303.712 510.288,1303.456 C511.056,1302.848 514.704,1301.024 518.736,1301.024 C520.656,1301.024 525.136,1302.72 525.712,1303.296 C526.128,1303.68 526.64,1304.384 526.64,1305.92 C526.64,1308.864 524.08,1311.264 521.392,1312 L521.392,1312.224 C523.856,1312.544 526.128,1313.408 526.512,1314.176 C526.704,1314.464 526.896,1315.008 526.896,1315.936 C526.896,1320.704 522.64,1324.288 517.296,1324.288 C514.544,1324.288 511.888,1323.552 510.672,1322.016 C510.448,1321.76 510.384,1321.44 510.384,1321.024 C510.384,1317.664 510.928,1311.744 511.536,1307.36 C511.024,1306.56 510.256,1305.056 510.128,1304.672 Z M516.784,1318.72 L517.36,1318.72 C518.896,1318.72 520.336,1317.44 520.336,1316.032 C520.336,1315.264 519.664,1314.912 518.576,1314.912 C517.904,1314.912 517.392,1315.04 517.04,1315.136 C516.944,1316.32 516.848,1317.536 516.784,1318.72 Z M517.84,1307.616 C517.712,1308.384 517.616,1309.312 517.488,1310.304 C518.896,1309.856 520.176,1308.544 520.176,1307.36 C520.176,1306.496 519.568,1306.08 518.544,1306.08 C517.872,1306.08 517.168,1306.272 516.432,1306.528 L517.2,1306.72 C517.68,1306.912 517.904,1307.104 517.84,1307.616 Z M547.024,1303.36 C546.384,1307.008 545.008,1315.68 545.008,1323.168 C545.008,1323.616 544.624,1323.904 544.112,1323.904 C542,1323.904 539.76,1322.784 539.024,1321.824 C538.8,1321.536 538.704,1321.184 538.704,1320.768 C538.704,1318.976 538.928,1316.448 539.248,1313.824 C537.904,1316.928 536.4,1320.736 535.056,1323.072 C534.992,1323.456 534.704,1323.744 534.256,1323.744 C532.112,1323.744 529.904,1322.848 529.136,1321.888 C528.912,1321.6 528.816,1320.608 528.816,1320.192 C528.816,1314.848 530.64,1303.904 531.12,1302.08 C531.216,1301.792 531.408,1301.472 531.92,1301.472 C533.008,1301.472 535.664,1302.016 536.496,1302.336 C537.008,1302.528 537.264,1302.784 537.168,1303.296 C536.816,1305.216 536.272,1308.48 535.792,1312.224 C538.032,1308.608 539.92,1302.848 541.36,1301.728 C541.488,1301.6 541.68,1301.472 542,1301.472 C543.056,1301.472 545.52,1302.08 546.352,1302.4 C546.832,1302.592 547.088,1302.848 547.024,1303.36 Z M559.152,1319.104 C559.248,1318.304 559.344,1317.376 559.504,1316.352 L557.712,1316.096 C555.952,1319.584 553.616,1323.904 552.56,1323.904 C551.184,1323.904 549.2,1321.856 548.336,1320.896 C547.888,1320.416 547.952,1319.872 548.272,1319.36 C549.168,1317.952 551.664,1316.672 552.944,1314.528 L553.072,1314.272 C551.152,1312.448 550.096,1309.6 550.288,1307.36 C550.608,1303.392 553.36,1301.504 557.488,1300.928 C559.792,1300.608 562.192,1301.248 563.376,1301.952 C564.784,1302.336 566.128,1303.072 566.704,1303.776 C566.928,1304.064 567.152,1304.672 567.088,1305.088 C566.384,1310.432 565.232,1320.544 564.848,1323.008 C564.816,1323.296 564.592,1323.616 564.08,1323.616 C562.992,1323.616 561.168,1322.56 560.304,1322.048 C559.504,1321.568 559.024,1320.16 559.152,1319.104 Z M560.048,1312.288 C560.24,1310.624 560.464,1308.8 560.624,1306.784 C560.048,1306.528 559.376,1306.368 558.736,1306.368 C557.392,1306.368 556.208,1306.944 556.208,1308.48 C556.208,1309.216 556.464,1311.168 557.84,1311.744 C558.608,1312.096 559.376,1312.256 560.048,1312.288 Z M593.616,1304.576 C593.2,1308.224 591.856,1315.776 591.856,1323.264 C591.856,1323.712 591.6,1324.16 591.088,1324.224 C588.976,1324.512 587.152,1323.84 586.416,1322.88 C586.192,1322.592 585.872,1321.856 585.872,1321.44 C585.872,1317.92 586.416,1311.584 586.96,1307.168 C586.512,1307.168 586,1307.2 585.392,1307.2 C584.688,1307.232 583.12,1307.2 582.128,1307.392 L582.736,1307.552 C583.248,1307.744 583.472,1308 583.408,1308.512 C583.024,1312.16 582.384,1317.632 582.128,1323.52 C582.096,1323.968 581.776,1324.448 581.296,1324.448 C579.152,1324.448 577.168,1323.488 576.4,1322.528 C576.176,1322.24 576.08,1321.888 576.08,1321.472 C576.272,1316.128 577.04,1309.536 577.328,1307.392 L577.328,1307.328 C577.04,1306.368 576.688,1304.992 576.624,1304.16 C576.56,1303.616 577.04,1302.912 577.424,1302.72 C579.056,1301.856 580.464,1301.76 584.656,1301.696 C585.296,1301.696 586.992,1301.792 588.4,1301.888 L588.464,1301.888 C589.52,1301.888 591.984,1302.336 592.816,1302.656 C593.296,1302.848 593.68,1303.104 593.616,1304.576 Z M595.696,1304.832 C595.504,1304.288 595.536,1303.872 595.856,1303.616 C596.624,1303.008 600.304,1301.024 604.304,1301.024 C604.848,1301.024 610.288,1302.656 611.056,1303.232 C611.504,1303.584 612.528,1305.984 612.528,1307.52 C612.528,1311.2 610.576,1315.296 606.448,1316.32 C603.888,1316.96 603.472,1316.192 602.8,1315.328 C602.8,1315.328 602.64,1315.168 602.512,1315.008 C602.288,1317.28 602.096,1319.936 601.968,1323.392 C601.936,1323.84 601.712,1324.064 601.232,1324.064 C599.088,1324.064 596.848,1323.008 596.08,1322.048 C595.856,1321.76 595.76,1321.408 595.76,1320.992 C595.76,1315.776 596.624,1309.408 597.136,1307.424 C596.624,1306.656 595.856,1305.216 595.696,1304.832 Z M603.312,1308.416 C603.12,1309.728 602.928,1311.072 602.736,1312.576 C604.656,1312.288 606.64,1310.784 606.64,1308.608 C606.64,1307.424 605.808,1306.208 604.112,1306.208 C603.504,1306.208 602.864,1306.368 602.192,1306.624 C602.256,1306.624 602.288,1306.656 602.352,1306.656 C602.832,1306.848 603.472,1307.36 603.312,1308.416 Z M621.808,1301.12 C624.048,1301.12 626.576,1301.696 627.888,1302.528 C629.2,1303.392 631.376,1305.888 631.376,1310.976 C631.376,1318.688 627.728,1324.672 623.088,1324.672 C620.848,1324.672 618.288,1324.16 617.008,1323.296 C615.696,1322.432 613.488,1319.936 613.488,1314.816 C613.488,1307.136 617.168,1301.12 621.808,1301.12 Z M623.024,1306.112 C622.352,1306.112 622,1306.304 621.84,1306.464 C621.232,1307.104 619.984,1310.24 619.984,1315.648 C619.984,1319.008 620.912,1319.712 621.904,1319.712 C622.576,1319.712 622.896,1319.488 623.056,1319.328 C623.696,1318.752 624.944,1315.616 624.944,1310.208 C624.944,1306.784 624.016,1306.112 623.024,1306.112 Z M642.832,1306.016 C642.16,1306.016 641.648,1306.304 641.488,1306.464 C640.88,1307.104 639.792,1310.24 639.792,1315.648 C639.792,1319.008 641.36,1318.88 642.352,1318.88 C643.024,1318.88 643.856,1318.368 644.912,1317.504 C645.552,1316.992 647.44,1314.24 648.528,1316.16 L649.456,1318.56 C649.744,1319.52 649.648,1320.416 649.008,1321.184 C647.568,1322.944 646.096,1324.608 642.256,1324.608 C636.912,1324.608 633.296,1321.952 633.296,1314.816 C633.296,1306.816 636.656,1301.184 641.936,1301.024 C644.496,1300.96 646.864,1301.344 648.336,1302.208 C649.232,1302.72 650.64,1303.2 650.48,1304.896 C650.352,1306.272 650.256,1308.48 648.624,1310.816 C648.336,1311.232 647.696,1312.48 645.456,1311.84 C643.856,1311.52 643.824,1311.008 644.24,1309.6 C644.816,1307.584 644.272,1306.016 642.832,1306.016 Z M662.193856,1306.91227 C663.983934,1307.16913 663.887978,1308.80023 663.824,1309.472 C663.504,1313.12 662.96,1315.232 662.928,1321.952 C662.928,1323.36 662.48,1324.192 661.68,1324.16 C659.536,1324.064 657.424,1323.072 656.656,1322.112 C656.432,1321.824 656.336,1321.472 656.336,1321.056 C656.4,1315.744 657.392,1308.96 657.584,1307.104 C656.336,1307.104 655.184,1307.136 654.224,1307.232 C653.04,1307.136 652.88,1306.816 652.208,1306.016 C651.952,1305.728 650.992,1303.904 650.864,1302.336 C650.832,1301.792 650.832,1301.376 651.28,1301.312 C652.912,1301.088 659.216,1300.896 664.048,1301.152 C665.104,1301.216 667.76,1301.28 668.176,1301.504 C668.88,1301.856 669.904,1303.936 670.48,1306.016 C670.64,1306.56 670.48,1307.456 669.424,1307.424 C668.95055,1307.39244 666.079884,1306.92502 662.193856,1306.91227 Z M679.376,1302.144 C679.12,1303.744 678.64,1306.592 678.16,1309.888 C678.992,1309.344 680.08,1308.864 681.456,1308.96 C685.712,1309.248 687.504,1312.192 686.96,1315.264 C686.32,1318.88 683.792,1322.72 680.112,1323.808 C678.384,1324.288 676.432,1324.064 675.056,1323.712 C673.328,1323.456 671.76,1322.272 671.024,1321.344 C670.8,1321.056 670.544,1320.512 670.544,1320.096 C670.704,1314.752 672.336,1302.528 672.72,1300.704 C672.784,1300.416 672.976,1300.096 673.488,1300.096 C674.576,1300.096 677.232,1300.384 678.096,1300.576 C679.024,1300.768 679.536,1301.088 679.376,1302.144 Z M697.744,1303.072 C696.912,1306.688 694.928,1315.744 694.512,1323.232 C694.48,1323.68 694.096,1324 693.616,1323.968 C691.472,1323.84 689.232,1322.048 688.528,1321.056 C688.304,1320.736 688.24,1320.224 688.24,1319.808 C688.528,1314.464 690.448,1303.424 691.024,1301.632 C691.152,1301.344 691.344,1301.024 691.856,1301.056 C692.944,1301.12 696.336,1301.728 697.136,1302.08 C697.648,1302.304 697.872,1302.592 697.744,1303.072 Z M677.648,1313.344 C677.424,1315.008 677.232,1316.736 677.072,1318.432 C678.992,1318.112 680.624,1316.768 680.624,1314.752 C680.624,1313.568 680.016,1312.768 679.28,1312.736 C678.672,1312.704 678.128,1312.96 677.648,1313.344 Z M711.824,1314.304 C709.872,1314.304 707.888,1314.4 706.32,1314.88 C706.16,1315.872 706,1316.96 705.84,1318.176 C705.84,1318.848 705.456,1319.2 706.384,1319.104 C708.752,1318.432 712.08,1318.272 713.392,1318.272 C713.744,1318.272 714.384,1318.304 714.512,1318.784 C715.088,1320.384 714.64,1320.864 714.416,1321.856 C714.16,1322.784 713.776,1323.104 713.36,1323.328 C712.496,1323.808 710.224,1323.584 707.984,1323.968 C704.88,1324.512 701.616,1324.32 700.016,1322.4 C699.92,1322.304 699.568,1321.504 699.568,1321.344 C699.472,1321.088 699.408,1320.512 699.408,1320.192 C699.568,1315.168 700.336,1310.72 701.136,1307.616 C701.136,1307.584 701.136,1307.552 701.168,1307.52 L701.072,1307.424 C700.752,1307.04 700.336,1305.472 700.048,1304.704 C699.824,1304.192 700.432,1303.328 700.752,1303.04 C703.024,1301.056 708.304,1300.64 713.136,1300.64 C714.192,1300.64 715.216,1300.832 715.6,1301.088 C716.336,1301.6 715.856,1304.128 715.536,1304.992 C715.44,1305.28 714.896,1305.792 714.608,1305.792 C710.896,1305.792 708.304,1305.632 705.712,1306.272 C706.224,1306.24 706.608,1306.336 706.864,1306.496 C707.248,1306.784 707.568,1307.136 707.568,1307.584 C707.568,1307.648 707.536,1307.712 707.536,1307.776 C707.408,1308.48 707.248,1309.216 707.12,1310.016 C709.008,1309.664 711.184,1309.376 712.688,1309.856 C713.552,1310.144 713.072,1312.64 712.752,1313.504 C712.656,1313.792 712.112,1314.304 711.824,1314.304 Z" id="УСЛОВИЯ-ПРОСТЫЕ"></path>
        </g>
    </g>
</svg>