<?xml version="1.0" encoding="UTF-8"?>
<svg width="1101px" height="90px" viewBox="0 0 1101 90" version="1.1" xmlns="http://www.w3.org/2000/svg" xmlns:xlink="http://www.w3.org/1999/xlink">
    <!-- Generator: sketchtool 50.2 (55047) - http://www.bohemiancoding.com/sketch -->
    <title>BD8BEC24-AF55-43E1-9C2B-69C9A39AF4C1</title>
    <desc>Created with sketchtool.</desc>
    <defs></defs>
    <g id="Page-1" stroke="none" stroke-width="1" fill="none" fill-rule="evenodd">
        <g id="конкурс-copy-2" transform="translate(-411.000000, -734.000000)" fill="#FFFFFF">
            <path d="M453.926961,757.920997 C460.639751,758.884227 460.279917,765.00087 460.04,767.52 C458.84,781.2 456.8,789.12 456.68,814.32 C456.68,819.6 455,822.72 452,822.6 C443.96,822.24 436.04,818.52 433.16,814.92 C432.32,813.84 431.96,812.52 431.96,810.96 C432.2,791.04 435.92,765.6 436.64,758.64 C431.96,758.64 427.64,758.76 424.04,759.12 C419.6,758.76 419,757.56 416.48,754.56 C415.52,753.48 411.92,746.64 411.44,740.76 C411.32,738.72 411.32,737.16 413,736.92 C419.12,736.08 442.76,735.36 460.88,736.32 C464.84,736.56 474.8,736.8 476.36,737.64 C479,738.96 482.84,746.76 485,754.56 C485.6,756.6 485,759.96 481.04,759.84 C479.264561,759.721637 468.499564,757.96881 453.926961,757.920997 Z M559.4,741.96 C557,755.64 551.96,792.24 551.96,820.32 C551.96,822 551,822.84 549.08,822.84 C541.16,822.84 531.44,818.88 528.68,815.28 C527.84,814.2 527.48,812.88 527.48,811.32 C527.48,805.56 527.96,797.64 528.68,789.12 C524.36,789.6 519.44,789.96 514.4,790.2 C513.56,800.4 512.96,810.84 512.96,820.32 C512.96,822 512,822.84 510.2,822.84 C502.16,822.84 492.56,818.88 489.68,815.28 C488.84,814.2 488.48,812.88 488.48,811.32 C488.48,804.6 489.08,794.88 490.16,784.68 C487.64,780.96 485.24,776.16 485.24,774.12 C485.24,772.92 485.84,772.32 486.92,772.32 L491.48,772.32 C493.28,756.24 495.56,741.36 496.52,737.76 C496.88,736.68 497.6,735.48 499.52,735.48 C503.6,735.48 514.76,737.16 517.88,738.36 C519.8,739.08 520.76,740.04 520.4,741.96 C519.32,748.08 517.64,758.76 516.2,771.24 L530.72,770.28 C532.52,754.92 534.56,741.24 535.52,737.76 C535.76,736.68 536.6,735.48 538.52,735.48 C542.48,735.48 553.76,737.16 556.88,738.36 C558.68,739.08 559.64,740.04 559.4,741.96 Z M613.28,785.64 C605.96,785.64 598.52,786 592.64,787.8 C592.04,791.52 591.44,795.6 590.84,800.16 C590.84,802.68 589.4,804 592.88,803.64 C601.76,801.12 614.24,800.52 619.16,800.52 C620.48,800.52 622.88,800.64 623.36,802.44 C625.52,808.44 623.84,810.24 623,813.96 C622.04,817.44 620.6,818.64 619.04,819.48 C615.8,821.28 607.28,820.44 598.88,821.88 C587.24,823.92 575,823.2 569,816 C568.64,815.64 567.32,812.64 567.32,812.04 C566.96,811.08 566.72,808.92 566.72,807.72 C567.32,788.88 570.2,772.2 573.2,760.56 C573.2,760.44 573.2,760.32 573.32,760.2 L572.96,759.84 C571.76,758.4 570.2,752.52 569.12,749.64 C568.28,747.72 570.56,744.48 571.76,743.4 C580.28,735.96 600.08,734.4 618.2,734.4 C622.16,734.4 626,735.12 627.44,736.08 C630.2,738 628.4,747.48 627.2,750.72 C626.84,751.8 624.8,753.72 623.72,753.72 C609.8,753.72 600.08,753.12 590.36,755.52 C592.28,755.4 593.72,755.76 594.68,756.36 C596.12,757.44 597.32,758.76 597.32,760.44 C597.32,760.68 597.2,760.92 597.2,761.16 C596.72,763.8 596.12,766.56 595.64,769.56 C602.72,768.24 610.88,767.16 616.52,768.96 C619.76,770.04 617.96,779.4 616.76,782.64 C616.4,783.72 614.36,785.64 613.28,785.64 Z M688.28,795.96 C685.76,787.56 657.68,790.68 657.68,767.04 C657.68,748.92 674.96,735.48 689.12,735.48 C698.72,735.48 704.6,737.88 710.48,740.4 C715.04,742.32 719.36,746.16 718.76,751.32 C718.16,756.48 718.16,762.6 713.24,771.36 C712.64,772.44 711.08,776.4 707.84,777.24 C706.16,777.72 703.88,776.76 701.12,775.92 C695.12,774.72 694.76,772.08 696.32,766.8 C698.48,759.24 696.68,755.76 692.48,755.76 C687.08,755.76 681.44,760.8 681.32,766.8 C680.72,786 713.84,775.56 713.84,800.88 C713.84,816.72 702.2,823.56 690.8,823.56 C676.4,823.56 669.92,818.76 664.88,815.04 C659.24,810.84 656.84,802.68 656.72,799.08 C656.6,794.04 657.56,793.2 659,792.72 C662.36,791.64 667.4,796.8 670.04,798.24 C675.44,801.12 680.72,801.6 683.24,801.6 C687.68,801.6 689.6,800.4 688.28,795.96 Z M762.686961,757.920997 C769.399751,758.884227 769.039917,765.00087 768.8,767.52 C767.6,781.2 765.56,789.12 765.44,814.32 C765.44,819.6 763.76,822.72 760.76,822.6 C752.72,822.24 744.8,818.52 741.92,814.92 C741.08,813.84 740.72,812.52 740.72,810.96 C740.96,791.04 744.68,765.6 745.4,758.64 C740.72,758.64 736.4,758.76 732.8,759.12 C728.36,758.76 727.76,757.56 725.24,754.56 C724.28,753.48 720.68,746.64 720.2,740.76 C720.08,738.72 720.08,737.16 721.76,736.92 C727.88,736.08 751.52,735.36 769.64,736.32 C773.6,736.56 783.56,736.8 785.12,737.64 C787.76,738.96 791.6,746.76 793.76,754.56 C794.36,756.6 793.76,759.96 789.8,759.84 C788.024561,759.721637 777.259564,757.96881 762.686961,757.920997 Z M811.4,810.36 C810.44,816.36 810.2,817.56 809.12,821.28 C808.64,822.72 808.28,823.56 806.6,823.56 C799.28,823.56 795.32,822.6 792.68,819.24 C791.96,818.28 791.6,817.08 791.6,815.64 C791.6,811.56 792.32,807.36 793.04,804.36 C793.28,803.4 793.88,802.32 795.68,802.32 C799.4,802.32 804.8,802.44 808.64,804.96 C810.08,805.92 811.76,808.56 811.4,810.36 Z M848,752.88 C847.28,750.84 847.4,749.28 848.6,748.32 C851.48,746.04 867.08,736.44 880.88,736.44 C886.52,736.44 899.84,742.68 902.96,744.36 C905.84,745.92 908.84,752.04 908.84,757.8 C908.84,771.6 905.24,782.04 894.68,787.08 C899.72,793.68 907.16,800.76 909.92,803.28 C911.84,805.08 911.12,807.24 909.8,809.4 C907.52,813 899.24,821.76 894.08,821.64 C888.44,821.52 878.48,801.48 873.56,787.92 C872.72,795.72 872.12,805.2 871.52,818.52 C871.4,820.2 870.56,821.04 868.76,821.04 C860.72,821.04 853.28,816.6 850.4,813 C849.56,811.92 849.2,810.6 849.2,809.04 C849.68,789.72 852.08,770.04 853.52,762.6 C853.52,762.48 853.4,762.48 853.4,762.36 C851.96,760.92 848.72,754.68 848,752.88 Z M876.32,765.96 C875.6,770.88 874.88,775.56 874.28,780.72 C881.36,779.4 888.32,772.44 888.32,764.28 C888.32,759.84 885.08,755.64 878.72,755.64 C875.84,755.64 872.96,757.08 870.32,759 C871.16,759 871.76,759.24 872.36,759.36 C874.16,760.08 876.92,762 876.32,765.96 Z M963.68,785.64 C956.36,785.64 948.92,786 943.04,787.8 C942.44,791.52 941.84,795.6 941.24,800.16 C941.24,802.68 939.8,804 943.28,803.64 C952.16,801.12 964.64,800.52 969.56,800.52 C970.88,800.52 973.28,800.64 973.76,802.44 C975.92,808.44 974.24,810.24 973.4,813.96 C972.44,817.44 971,818.64 969.44,819.48 C966.2,821.28 957.68,820.44 949.28,821.88 C937.64,823.92 925.4,823.2 919.4,816 C919.04,815.64 917.72,812.64 917.72,812.04 C917.36,811.08 917.12,808.92 917.12,807.72 C917.72,788.88 920.6,772.2 923.6,760.56 C923.6,760.44 923.6,760.32 923.72,760.2 L923.36,759.84 C922.16,758.4 920.6,752.52 919.52,749.64 C918.68,747.72 920.96,744.48 922.16,743.4 C930.68,735.96 950.48,734.4 968.6,734.4 C972.56,734.4 976.4,735.12 977.84,736.08 C980.6,738 978.8,747.48 977.6,750.72 C977.24,751.8 975.2,753.72 974.12,753.72 C960.2,753.72 950.48,753.12 940.76,755.52 C942.68,755.4 944.12,755.76 945.08,756.36 C946.52,757.44 947.72,758.76 947.72,760.44 C947.72,760.68 947.6,760.92 947.6,761.16 C947.12,763.8 946.52,766.56 946.04,769.56 C953.12,768.24 961.28,767.16 966.92,768.96 C970.16,770.04 968.36,779.4 967.16,782.64 C966.8,783.72 964.76,785.64 963.68,785.64 Z M1018.76,752.64 C1016.24,752.64 1014.32,755.64 1013.72,756.24 C1011.44,758.64 1006.28,763.56 1006.28,786.24 C1006.28,797.64 1010.84,801.12 1016.96,801.12 C1020.2,801.12 1024.16,797.88 1026.56,791.64 C1026.92,790.68 1027.4,789.84 1026.8,789.12 C1026.32,788.52 1021.88,789.36 1019.12,788.16 C1015.16,786.36 1012.64,776.16 1013.6,775.44 C1019.6,771.24 1044.92,775.32 1047.68,780.84 C1048.76,784.44 1047.44,789.84 1046.72,793.44 C1044.2,805.2 1033.4,823.92 1019,823.92 C1009.64,823.92 997.52,821.52 992.6,816.48 C986.96,810.72 983,798.12 983,783.96 C983,753.96 996.8,735.24 1015.4,734.64 C1025,734.28 1033.88,737.04 1039.4,740.28 C1042.76,742.2 1044.44,746.4 1043.84,750.36 C1043.12,755.52 1042.52,757.8 1039.28,762.6 C1038.2,764.16 1035.8,768.72 1028.36,766.8 C1023.8,765.6 1022,763.32 1023.68,759.24 C1024.76,756.6 1023.8,752.64 1018.76,752.64 Z M1087.28,741.96 C1085,755.64 1079.84,792.24 1079.84,820.32 C1079.84,822 1078.88,822.84 1077.08,822.84 C1069.04,822.84 1059.44,818.88 1056.56,815.28 C1055.72,814.2 1055.36,812.88 1055.36,811.32 C1055.36,791.28 1061.6,744.6 1063.52,737.76 C1063.76,736.68 1064.48,735.48 1066.4,735.48 C1070.48,735.48 1081.76,737.16 1084.76,738.36 C1086.68,739.08 1087.64,740.04 1087.28,741.96 Z M1123.88,795.96 C1121.36,787.56 1093.28,790.68 1093.28,767.04 C1093.28,748.92 1110.56,735.48 1124.72,735.48 C1134.32,735.48 1140.2,737.88 1146.08,740.4 C1150.64,742.32 1154.96,746.16 1154.36,751.32 C1153.76,756.48 1153.76,762.6 1148.84,771.36 C1148.24,772.44 1146.68,776.4 1143.44,777.24 C1141.76,777.72 1139.48,776.76 1136.72,775.92 C1130.72,774.72 1130.36,772.08 1131.92,766.8 C1134.08,759.24 1132.28,755.76 1128.08,755.76 C1122.68,755.76 1117.04,760.8 1116.92,766.8 C1116.32,786 1149.44,775.56 1149.44,800.88 C1149.44,816.72 1137.8,823.56 1126.4,823.56 C1112,823.56 1105.52,818.76 1100.48,815.04 C1094.84,810.84 1092.44,802.68 1092.32,799.08 C1092.2,794.04 1093.16,793.2 1094.6,792.72 C1097.96,791.64 1103,796.8 1105.64,798.24 C1111.04,801.12 1116.32,801.6 1118.84,801.6 C1123.28,801.6 1125.2,800.4 1123.88,795.96 Z M1185.8,806.28 C1187.12,790.32 1187.96,777.72 1190.84,766.32 L1190.84,765.84 C1191.32,758.16 1187.96,751.8 1186.4,749.88 C1185.08,748.2 1187.12,745.56 1188.44,744.72 C1198.16,738.48 1211.72,737.04 1216.88,736.92 C1218.8,736.92 1221.56,737.04 1223.96,737.28 L1224.08,737.16 C1231.4,737.64 1235.36,740.4 1239.8,742.68 C1248.32,747.12 1252.88,754.08 1252.88,773.16 C1252.88,802.08 1233.2,819.72 1215.8,822.12 L1214.6,822.12 C1205,823.68 1193.72,821.4 1188.08,814.56 C1186.52,813 1185.56,808.56 1185.8,806.28 Z M1214.36,801.96 C1215.56,801.72 1216.52,801.36 1217.12,801.12 C1222.04,799.44 1228.76,790.56 1228.76,770.28 C1228.76,759.72 1223.96,757.32 1220.24,756.72 C1216.88,756.84 1214.24,756.96 1211.96,757.32 C1212.2,757.32 1212.32,757.44 1212.56,757.56 C1215.32,759.6 1215.2,763.56 1215.2,765.24 C1215.2,765.48 1215.08,765.72 1215.08,765.96 C1214,775.44 1212.44,785.28 1211.12,798.96 C1211.12,801.48 1210.88,802.32 1214.36,801.96 Z M1331.12,741.84 C1330.28,753.12 1328.96,765.84 1326.32,784.8 C1325.96,788.28 1325.48,791.52 1324.88,794.4 L1324.64,796.32 C1324.52,797.04 1324.4,797.52 1324.16,797.88 C1319.48,816.12 1308.56,823.92 1290.2,823.68 C1281.8,823.56 1272.56,818.76 1267.76,815.52 C1262.84,812.28 1257.8,806.88 1261.28,788.04 L1261.52,785.52 L1261.52,784.8 C1263.2,765.6 1265.48,744.36 1267.16,737.88 C1267.52,736.8 1269.2,735.72 1271.12,735.72 C1275.2,735.72 1283.6,736.2 1287.92,738 C1289.84,738.84 1291.76,739.44 1291.28,744.96 C1290.08,758.76 1286,779.04 1286,790.32 C1286,790.68 1285.88,791.16 1285.88,791.76 C1286,801 1287.92,802.32 1291.52,802.32 C1297.16,802.32 1299.2,794.88 1300.16,788.4 C1300.16,788.04 1300.16,787.68 1300.28,787.32 C1302.68,767.28 1304.24,746.28 1306.04,737.04 C1306.28,735.96 1307.12,734.76 1309.04,734.76 C1314.2,734.76 1325.48,737.04 1328.6,738.24 C1330.4,738.96 1331.36,739.92 1331.12,741.84 Z M1338.92,749.52 C1338.2,747.48 1338.32,745.92 1339.52,744.96 C1342.4,742.68 1356.08,735.84 1371.2,735.84 C1378.4,735.84 1395.2,742.2 1397.36,744.36 C1398.92,745.8 1400.84,748.44 1400.84,754.2 C1400.84,765.24 1391.24,774.24 1381.16,777 L1381.16,777.84 C1390.4,779.04 1398.92,782.28 1400.36,785.16 C1401.08,786.24 1401.8,788.28 1401.8,791.76 C1401.8,809.64 1385.84,823.08 1365.8,823.08 C1355.48,823.08 1345.52,820.32 1340.96,814.56 C1340.12,813.6 1339.88,812.4 1339.88,810.84 C1339.88,798.24 1341.92,776.04 1344.2,759.6 C1342.28,756.6 1339.4,750.96 1338.92,749.52 Z M1363.88,802.2 L1366.04,802.2 C1371.8,802.2 1377.2,797.4 1377.2,792.12 C1377.2,789.24 1374.68,787.92 1370.6,787.92 C1368.08,787.92 1366.16,788.4 1364.84,788.76 C1364.48,793.2 1364.12,797.76 1363.88,802.2 Z M1367.84,760.56 C1367.36,763.44 1367,766.92 1366.52,770.64 C1371.8,768.96 1376.6,764.04 1376.6,759.6 C1376.6,756.36 1374.32,754.8 1370.48,754.8 C1367.96,754.8 1365.32,755.52 1362.56,756.48 L1365.44,757.2 C1367.24,757.92 1368.08,758.64 1367.84,760.56 Z M1411.4,814.8 C1410.44,813.72 1410.2,812.88 1410.2,811.08 C1410.2,808.44 1410.44,805.44 1410.8,802.2 C1408.16,798 1405.4,791.76 1405.4,789.36 C1405.4,788.28 1406,787.68 1407.08,787.68 C1408.76,787.8 1410.92,787.8 1413.44,787.68 C1417.76,769.2 1425.44,748.32 1431.8,739.44 C1432.4,738.48 1433.12,737.88 1434.68,738.24 C1436.84,738.96 1440.92,739.92 1444.4,741 C1444.4,740.16 1444.4,739.56 1444.52,738.96 C1444.64,737.76 1445.36,736.8 1447.16,736.8 C1451,736.8 1460.12,738.36 1463.24,739.56 C1465.16,740.28 1465.76,741.12 1466,742.92 C1466.36,746.52 1466.72,768.72 1469.6,795.36 C1471.04,809.16 1472.6,817.8 1472.72,819.36 C1472.96,820.92 1472,821.88 1470.32,821.88 C1462.64,821.88 1453.64,821.16 1450.28,818.04 C1449.2,817.08 1448.36,812.16 1447.52,805.08 C1443.2,805.56 1438.4,806.04 1433.48,806.28 C1433.12,810.72 1433,815.16 1433.12,819.12 C1433.12,820.68 1432.4,821.88 1430.72,821.88 C1423.04,821.88 1414.76,818.76 1411.4,814.8 Z M1445.84,785.88 C1445.24,777.24 1444.76,768.24 1444.52,760.2 C1444.52,759.12 1444.16,758.64 1443.56,758.52 C1443.08,758.4 1442.72,758.64 1442.36,759.36 C1439.6,767.76 1437.44,777.24 1435.88,786.6 L1445.84,785.88 Z M1511.96,741.96 C1509.68,755.64 1504.52,792.24 1504.52,820.32 C1504.52,822 1503.56,822.84 1501.76,822.84 C1493.72,822.84 1484.12,818.88 1481.24,815.28 C1480.4,814.2 1480.04,812.88 1480.04,811.32 C1480.04,791.28 1486.28,744.6 1488.2,737.76 C1488.44,736.68 1489.16,735.48 1491.08,735.48 C1495.16,735.48 1506.44,737.16 1509.44,738.36 C1511.36,739.08 1512.32,740.04 1511.96,741.96 Z" id="The-St.-Regis-Dubai"></path>
        </g>
    </g>
</svg>