<svg xmlns="http://www.w3.org/2000/svg" xmlns:xlink="http://www.w3.org/1999/xlink" width="255" height="78" viewBox="0 0 255 78">
    <defs>
        <path id="b" d="M223.466 78H2.898C1.298 78 0 77.127 0 76.05V1.95C0 .873 1.297 0 2.898 0h220.525a5 5 0 0 0 9.972 0h18.707c1.6 0 2.898.873 2.898 1.95v74.1c0 1.077-1.297 1.95-2.898 1.95h-18.75a5 5 0 1 0-9.886 0z"/>
        <path id="a" d="M227.516-.71h2v73.43h-2z"/>
        <mask id="d" width="2" height="73.43" x="0" y="0" fill="#fff">
            <use xlink:href="#a"/>
        </mask>
    </defs>
    <g fill="none" fill-rule="evenodd">
        <mask id="c" fill="#fff">
            <use xlink:href="#b"/>
        </mask>
        <path stroke="#FFF" stroke-width="1.5" d="M222.66 77.25v-.008a5.75 5.75 0 1 1 11.5.008h17.942c1.235 0 2.148-.615 2.148-1.2V1.95c0-.585-.913-1.2-2.148-1.2h-18.054a5.752 5.752 0 0 1-11.278 0H2.898C1.663.75.75 1.365.75 1.95v74.1c0 .585.913 1.2 2.148 1.2h219.761z"/>
        <g stroke="#FFF" stroke-dasharray="2,4" stroke-width="4" mask="url(#c)">
            <use mask="url(#d)" xlink:href="#a"/>
        </g>
    </g>
</svg>
