<svg xmlns="http://www.w3.org/2000/svg" xmlns:xlink="http://www.w3.org/1999/xlink" width="23" height="98" viewBox="0 0 23 98">
    <defs>
        <path id="b" d="M0 0h1922v644H0z"/>
        <path id="c" d="M168.415 55H2.273C1.018 55 0 54.384 0 53.625V1.375C0 .615 1.018 0 2.273 0h166.15a5 5 0 0 0 9.972 0h19.332C198.982 0 200 .616 200 1.375v52.25c0 .76-1.018 1.375-2.273 1.375h-19.324a5 5 0 0 0-9.988 0z"/>
        <filter id="d" width="125.5%" height="192.7%" x="-12.8%" y="-35.5%" filterUnits="objectBoundingBox">
            <feOffset dy="6" in="SourceAlpha" result="shadowOffsetOuter1"/>
            <feGaussianBlur in="shadowOffsetOuter1" result="shadowBlurOuter1" stdDeviation="7.5"/>
            <feColorMatrix in="shadowBlurOuter1" values="0 0 0 0 0 0 0 0 0 0 0 0 0 0 0 0 0 0 0.343098958 0"/>
        </filter>
        <path id="a" d="M172.516-3.71h1.838v54.333h-1.838z"/>
        <mask id="f" width="1.838" height="54.333" x="0" y="0" fill="#fff">
            <use xlink:href="#a"/>
        </mask>
    </defs>
    <g fill="none" fill-rule="evenodd">
        <use fill="#0D80C7" transform="translate(-383 -474)" xlink:href="#b"/>
        <g transform="translate(-162 17)">
            <mask id="e" fill="#fff">
                <use xlink:href="#c"/>
            </mask>
            <use fill="#000" filter="url(#d)" xlink:href="#c"/>
            <use fill="#17B8FF" xlink:href="#c"/>
            <g stroke="#095A8C" stroke-dasharray="2,4" stroke-width="4" mask="url(#e)">
                <use mask="url(#f)" xlink:href="#a"/>
            </g>
        </g>
    </g>
</svg>
