<svg xmlns="http://www.w3.org/2000/svg" xmlns:xlink="http://www.w3.org/1999/xlink" width="285" height="108" viewBox="0 0 285 108">
    <defs>
        <path id="b" d="M223.415 78H2.898C1.298 78 0 77.127 0 76.05V1.95C0 .873 1.297 0 2.898 0h220.525a5 5 0 0 0 9.972 0h18.707c1.6 0 2.898.873 2.898 1.95v74.1c0 1.077-1.297 1.95-2.898 1.95h-18.699a5 5 0 0 0-9.988 0z"/>
        <filter id="c" height="165.4%" y="-25%" filterUnits="objectBoundingBox">
            <feOffset dy="6" in="SourceAlpha" result="shadowOffsetOuter1"/>
            <feGaussianBlur in="shadowOffsetOuter1" result="shadowBlurOuter1" stdDeviation="7.5"/>
            <feColorMatrix in="shadowBlurOuter1" values="0 0 0 0 0 0 0 0 0 0 0 0 0 0 0 0 0 0 0.343098958 0"/>
        </filter>
        <path id="a" d="M227.522-5.71h2V77h-2z"/>
        <mask id="e" width="2" height="82.71" x="0" y="0" fill="#fff">
            <use xlink:href="#a"/>
        </mask>
    </defs>
    <g fill="none" fill-rule="evenodd" transform="translate(15 9)">
        <mask id="d" fill="#fff">
            <use xlink:href="#b"/>
        </mask>
        <use fill="#000" filter="url(#c)" xlink:href="#b"/>
        <use fill="#17B8FF" xlink:href="#b"/>
        <path fill="#FF4C79" d="M247-2h8v82h-8z" mask="url(#d)"/>
        <g stroke="#095A8C" stroke-dasharray="2,4" stroke-width="4" mask="url(#d)">
            <use mask="url(#e)" xlink:href="#a"/>
        </g>
    </g>
</svg>
